<?xml version="1.0" encoding="utf-8"?>
<!-- Generator: Adobe Illustrator 23.0.1, SVG Export Plug-In . SVG Version: 6.00 Build 0)  -->
<svg version="1.1" id="레이어_1" xmlns="http://www.w3.org/2000/svg" xmlns:xlink="http://www.w3.org/1999/xlink" x="0px"
	 y="0px" width="24px" height="24px" viewBox="0 0 24 24" style="enable-background:new 0 0 24 24;" xml:space="preserve">
<style type="text/css">
	.st0{display:none;}
	.st1{display:inline;}
	.st2{fill:none;stroke:#B2B3B3;stroke-width:0.6957;stroke-linecap:round;stroke-linejoin:round;stroke-miterlimit:10;}
	.st3{fill:none;stroke:#B2B3B3;stroke-width:0.6957;stroke-linejoin:round;stroke-miterlimit:10;}
	.st4{fill:#333333;}
	.st5{display:inline;fill:#555655;}
	.st6{fill:#4D4D4D;}
	.st7{fill:#777777;stroke:#777777;stroke-width:0.2;stroke-miterlimit:10;}
</style>
<g id="Layer_3" class="st0">
	<g class="st1">
		<path class="st2" d="M16.4,11.1c-0.9,0-1.4,0.3-1.4,0.3V9.3H6.3v9.4c0,0.4,0.3,0.7,0.7,0.7h7.3c0.4,0,0.7-0.3,0.7-0.7
			c0,0,0-0.6,0-1s3.5-2,3.5-4.2C18.5,12,17.8,11.1,16.4,11.1z"/>
		<path class="st2" d="M15,13.6c0-0.5,0.3-1.2,1-1.2c0.7,0,1,0.6,1,1c0,1-2.1,1.9-2.1,2.4"/>
		<path class="st3" d="M9.8,4.6C8.9,5.1,8.4,5.8,9.3,6.4s0.5,1.2-0.5,1.9"/>
		<path class="st3" d="M12.6,3.4C11.5,4.1,10.9,5,12,5.8s0.5,1.6-0.6,2.4"/>
	</g>
</g>
<g id="Layer_4" class="st0">
	<g class="st1">
		<path class="st3" d="M8.9,14.1c1.7,0,4.2,0,5.9,0"/>
		<path class="st3" d="M17.9,14.1H20c0,0,0-1.5,0-2.1c0-0.8-2.4-1.8-4.2-2.1c-1.4-1.3-2.5-2.1-3.9-2.1s-2.1,0-2.7,0
			c-1.4,0-2.3,1-3.8,2.1c-0.7,0-0.7,0-1.1,0C4,10.8,3.9,12.3,4.1,13s0.6,1.1,1.3,1.1c0.1,0,0.3,0,0.3,0"/>
		<polyline class="st3" points="14.8,10.3 14.1,10.6 8.6,10.6 7.5,9.6 		"/>
		<circle class="st3" cx="16.4" cy="13.9" r="1.6"/>
		<circle class="st3" cx="7.3" cy="13.9" r="1.6"/>
	</g>
</g>
<g id="Layer_5" class="st0">
	<g class="st1">
		<path class="st4" d="M16.7,8.5c0-2.7-2.2-4.9-4.9-4.9S6.9,5.8,6.9,8.5c0,1.1,0.4,2.2,1.1,3.1c-0.7,0.9-1.1,2-1.1,3.1
			c0,2.7,2.2,4.9,4.9,4.9s4.9-2.2,4.9-4.9c0-1.1-0.4-2.2-1.1-3.1C16.3,10.8,16.7,9.7,16.7,8.5z M16.3,14.8c0,2.5-2,4.5-4.5,4.5
			s-4.5-2-4.5-4.5c0-1.1,0.4-2.2,1.1-3c0.1-0.1,0.1-0.2,0-0.3c-0.7-0.8-1.1-1.9-1.1-3C7.3,6,9.3,4,11.8,4s4.5,2,4.5,4.5
			c0,1.1-0.4,2.2-1.1,3c-0.1,0.1-0.1,0.2,0,0.3C15.9,12.6,16.3,13.7,16.3,14.8z"/>
		<path class="st4" d="M12.9,5.1C12.9,5,13,5,13,4.9c0-0.3-0.3-0.6-0.3-0.6c-0.1-0.1-0.2-0.1-0.3,0s-0.1,0.2,0,0.3
			c0.1,0.1,0.2,0.2,0.2,0.3c0,0,0,0.1-0.1,0.1l0,0c-0.1,0-0.3,0-0.4-0.1l0,0c0-0.3-0.3-0.6-0.3-0.6c-0.1-0.1-0.2-0.1-0.3,0
			s-0.1,0.2,0,0.3c0.1,0.1,0.2,0.2,0.2,0.3l0,0c-0.2,0-0.3,0-0.4,0V4.8c0-0.3-0.3-0.6-0.3-0.6c-0.1-0.1-0.2-0.1-0.3,0
			s-0.1,0.2,0,0.3c0.1,0.1,0.2,0.2,0.2,0.3c0,0,0,0.1-0.1,0.1L10.7,5C9.4,5.6,8.4,6.9,8.4,8.4c0,1.9,1.5,3.4,3.4,3.4
			c0.1,0,0.3,0,0.4,0c-0.9,0.8-1.3,1.8-1.3,1.9c0,0.1,0,0.2,0.1,0.2c0,0,0,0,0.1,0s0.1,0,0.2-0.1c0,0,0.8-1.8,2.2-2.4l0,0
			c1.1-0.6,1.8-1.7,1.8-3C15.2,6.9,14.3,5.6,12.9,5.1z M11.8,11.5c-1.7,0-3-1.4-3-3.1c0-1.3,0.8-2.4,1.9-2.8C10.8,5.8,11,6,11,6h0.1
			c0.1,0,0.1,0,0.2-0.1c0.1-0.1,0-0.2-0.1-0.3C11.1,5.5,11,5.4,11,5.4c0.1,0,0.3-0.1,0.4-0.1c0,0,0,0,0,0.1c0,0.3,0.3,0.5,0.4,0.6
			h0.1c0.1,0,0.2,0,0.2,0c0.1-0.1,0-0.2-0.1-0.3c-0.1-0.1-0.2-0.2-0.2-0.3c0,0,0,0,0-0.1c0.1,0,0.3,0,0.4,0l0,0
			c0,0.3,0.3,0.5,0.4,0.6h0.1C12.9,6,12.9,6,13,6c0.1-0.1,0-0.2-0.1-0.3c-0.1,0-0.2-0.1-0.2-0.2C14,5.9,14.9,7,14.9,8.4
			C14.9,10.1,13.5,11.5,11.8,11.5z"/>
		<path class="st4" d="M11,7.5c0-0.1-0.1-0.2-0.2-0.2c-0.4,0-0.9,0.2-1,0.2S9.6,7.6,9.7,7.7c0,0.1,0.1,0.1,0.2,0.1c0,0,0,0,0.1,0
			c0,0,0.5-0.2,0.8-0.2C10.9,7.7,11,7.6,11,7.5z"/>
		<path class="st4" d="M13.8,7.5c0,0-0.6-0.2-1-0.2c-0.1,0-0.2,0.1-0.2,0.2s0.1,0.2,0.2,0.2c0.3,0,0.8,0.2,0.8,0.2s0,0,0.1,0
			s0.2-0.1,0.2-0.1C13.9,7.6,13.9,7.5,13.8,7.5z"/>
		<path class="st4" d="M13.1,8.5c-1.3,1-2.3,0.1-2.4,0c-0.1-0.1-0.2-0.1-0.3,0s-0.1,0.2,0,0.3c0,0,0.6,0.6,1.4,0.6
			c0.4,0,0.9-0.1,1.4-0.5c0.1-0.1,0.1-0.2,0-0.3C13.3,8.5,13.2,8.5,13.1,8.5z"/>
	</g>
</g>
<g id="Layer_6" class="st0">
	<path id="_x31_" class="st5" d="M19.9,7.2h-4.2c-0.1-0.8-0.8-1.3-1.5-1.3h-0.4c0-0.1,0-0.2,0-0.3C13.7,4.8,13,4,12.1,4
		s-1.6,0.8-1.6,1.7c0,0.1,0,0.1,0,0.2H10c-0.8,0-1.4,0.5-1.5,1.3H4.3c-0.4,0-0.9,0.3-0.9,0.7v11.2c0,0.4,0.4,0.9,0.9,0.9h15.6
		c0.4,0,0.8-0.5,0.8-0.9V7.9C20.6,7.5,20.3,7.2,19.9,7.2z M12.1,4.5c0.6,0,1.1,0.5,1.1,1.1s-0.5,1.1-1.1,1.1S11,6.2,11,5.6
		S11.4,4.5,12.1,4.5z M10,6.5h0.6c0.3,0.4,0.8,0.8,1.5,0.8s1.2-0.3,1.5-0.9l0,0h0.6c0.6,0,1,0.5,1,1c0,0.6-0.5,1-1,1H10
		c-0.6,0-1-0.5-1-1S9.4,6.5,10,6.5z M20.1,19.1c0,0.1-0.1,0.4-0.2,0.4H4.3c-0.1,0-0.3-0.2-0.3-0.4V7.9c0-0.1,0.2-0.2,0.3-0.2h4.2
		C8.6,8.4,9.2,9.1,10,9.1h4.1c0.8,0,1.4-0.6,1.5-1.3h4.2c0.1,0,0.2,0,0.2,0.2L20.1,19.1L20.1,19.1z M8.1,13.7c0.8,0,1.5-0.7,1.5-1.5
		s-0.7-1.5-1.5-1.5s-1.5,0.7-1.5,1.5S7.3,13.7,8.1,13.7z M8.1,11.3c0.5,0,0.9,0.4,0.9,0.9s-0.4,0.9-0.9,0.9s-0.9-0.4-0.9-0.9
		C7.1,11.7,7.6,11.3,8.1,11.3z M9.3,13.7c-0.1-0.1-0.3-0.1-0.5,0L8,14.2l-0.8-0.5c-0.1-0.1-0.4-0.1-0.5,0c-0.6,0.4-1,0.8-1,1.3v1.6
		c0,0.3,0.3,0.5,0.5,0.5h3.6c0.3,0,0.4-0.3,0.4-0.5V15C10.2,14.5,9.8,14,9.3,13.7z M9.7,16.6H6.3V15c0-0.3,0.3-0.6,0.7-0.9l1.1,0.7
		l1-0.7c0.3,0.2,0.6,0.5,0.6,0.9C9.7,15,9.7,16.6,9.7,16.6z M18.3,11.3h-5.5c-0.1,0-0.3,0.1-0.3,0.3c0,0.1,0.1,0.3,0.3,0.3h5.5
		c0.1,0,0.3-0.1,0.3-0.3S18.4,11.3,18.3,11.3z M18.3,13.2h-5.5c-0.1,0-0.3,0.1-0.3,0.3c0,0.1,0.1,0.3,0.3,0.3h5.5
		c0.1,0,0.3-0.1,0.3-0.3C18.6,13.3,18.4,13.2,18.3,13.2z M18.3,14.9h-5.5c-0.1,0-0.3,0.1-0.3,0.3c0,0.1,0.1,0.3,0.3,0.3h5.5
		c0.1,0,0.3-0.1,0.3-0.3S18.4,14.9,18.3,14.9z M15.7,16.8h-2.9c-0.1,0-0.3,0.1-0.3,0.3s0.1,0.3,0.3,0.3h2.9c0.1,0,0.3-0.1,0.3-0.3
		S15.8,16.8,15.7,16.8z"/>
</g>
<path class="st6" d="M-291.1-354.1c0.2,0.4,0.7,0.7,1.1,0.7c0.2,0,0.4,0,0.6-0.1l14.7-7.4c0.6-0.3,0.9-1.1,0.6-1.7
	c-0.3-0.6-1.1-0.9-1.7-0.6l-14.7,7.4C-291.2-355.4-291.4-354.7-291.1-354.1z M-322.1-364.2c0.2,0.4,0.7,0.7,1.1,0.7
	c0.2,0,0.4,0,0.6-0.1c0.6-0.3,0.9-1.1,0.6-1.7l-7.4-14.7c-0.3-0.6-1.1-0.9-1.7-0.6c-0.6,0.3-0.9,1.1-0.6,1.7L-322.1-364.2z
	 M-309.3-366c0.7,0,1.2-0.5,1.2-1.2l0.9-16.5c0-0.7-0.5-1.3-1.2-1.3c-0.7,0-1.3,0.5-1.3,1.2l-0.9,16.5
	C-310.6-366.6-310-366-309.3-366C-309.3-366-309.3-366-309.3-366z M-298.6-362.5c0.2,0.1,0.4,0.2,0.7,0.2c0.4,0,0.8-0.2,1-0.6
	l9-13.8c0.4-0.6,0.2-1.4-0.4-1.7c-0.6-0.4-1.4-0.2-1.7,0.4l-9,13.8C-299.4-363.6-299.2-362.8-298.6-362.5z M-344.3-364.8l13.8,9
	c0.2,0.1,0.4,0.2,0.7,0.2c0.4,0,0.8-0.2,1-0.6c0.4-0.6,0.2-1.4-0.4-1.7l-13.8-9c-0.6-0.4-1.4-0.2-1.7,0.4
	C-345.1-366-344.9-365.2-344.3-364.8z M-320-340.6l-41.5-10.3c-1.2-0.3-2.4,0.3-2.9,1.5c-0.7,1.7-12,29.7-8.4,50.6
	c0.3,4.3,1.5,8.2,4.2,11.5c2.1,3.3,5,6.1,8.8,8.1l-5.8,23.1l-12.3-3.1l-1.2,4.9l29.4,7.3l1.2-4.9l-12.3-3.1l5.8-23.1
	c0.1,0,0.1,0,0.2,0c30.4,0,36.4-57.5,36.7-59.9C-318-339.2-318.8-340.3-320-340.6z M-354.8-283c-0.5,0-1,0-1.5-0.1
	c-11.5-5-13.2-18.9-11.7-32.5l40.4-0.1C-332-300.4-340.2-283-354.8-283z M-327-318.2l-40.8,0.1c1.7-11.8,5.5-23,7.2-27.5l37.2,9.3
	C-323.8-333-324.9-326-327-318.2z M-249.6-254.5l-12.3,3.1l-5.8-23.1c4-2.1,6.9-5,9-8.5c2.2-3,3.3-6.3,3.7-10
	c4.2-21.1-7.5-50.1-8.2-51.8c-0.5-1.1-1.7-1.8-2.9-1.5l-41.5,10.3c-1.2,0.3-2,1.4-1.9,2.7c0.2,2.4,6.3,59.9,36.7,59.9
	c0.1,0,0.1,0,0.2,0l5.8,23.1l-12.3,3.1l1.2,4.9l29.4-7.3L-249.6-254.5z M-304.2-331.6l37.2-9.3c1.6,4.4,5.5,15.6,7.2,27.5l-40.8-0.1
	C-302.7-321.3-303.7-328.3-304.2-331.6z M-272.7-278.3c-14.6,0-22.8-17.4-27.2-32.7l40.4,0.1c1.5,13.6-0.2,27.5-11.7,32.5
	C-271.7-278.4-272.2-278.3-272.7-278.3z"/>
<path class="st6" d="M183.1-36.4C183.1-36.4,183.1-36.4,183.1-36.4c7.9,0,15.4-3.4,22.2-10.2l1.3-1.3l-1.2-1.3
	c-0.3-0.3-7.4-8-16.9-8c-7.4,0-13.9,4.6-19.5,13.5c-1.7,1.1-3.2,2.3-4.6,3.5c0-0.2,0.1-0.4,0.1-0.6l0.1-0.1
	c0.1-0.1,12.6-7.7,6.4-24.4l-0.6-1.7l-1.7,0.6c-0.3,0.1-8,2.7-10.3,9.5c-1.5,4.5-0.3,9.7,3.6,15.3c0,0.4-0.1,0.8-0.2,1.2
	c-0.1,0.8-0.2,1.8-0.3,2.7c-2.6,2.7-4.6,5.4-6.1,7.7v-44.8c0.2,0,0.5,0,0.7,0c4.4,5.9,12.3,4.9,12.3,4.9c-0.9-2.7-2.2-4.6-3.5-6
	c6.9-1.5,11.7-4.6,14.2-9.1c5.4-9.8-2.2-22.4-2.9-23.6c-4.3-7.9,0.5-19.2,0.5-19.3l1.7-3.9l-4.3,0.5c-0.6,0.1-1.3,0.2-2.1,0.3
	c-0.5-0.8-1.7-3.1-1.2-6.2l0.4-2.8l-2.9,0c-0.4,0-5.3,0-10.7,1.9c-5.8-4.7-14.2-5.5-14.6-5.5l-2.3-0.2l-0.4,2.3
	c-0.6,3.6-1.4,6.4-2.1,8.2c-1.2-0.5-2.5-1-3.8-1.4l-4-1.3l0.7,4.1c0,0.1,1.4,7.9,1.2,13.1c-0.1,4.1-0.6,6.6-3,13.5l0.1,0
	c-0.2,0.4-0.4,0.7-0.5,1.1c-2.1,4.7-4.9,13.6-0.2,20.8c2.5,3.8,6.7,6.4,12.5,7.8c-1.3,1.4-2.5,3.3-3.4,5.9c0,0,7.8,1,12.2-4.8
	c0.1,0,0.1,0,0.2,0v29.7c-2.6-4-6.8-9.1-13.5-13.1c-5.5-9-12.1-13.6-19.5-13.6c-9.5,0-16.6,7.6-16.9,8l-1.2,1.3l1.3,1.3
	c6.9,6.8,14.3,10.2,22.2,10.2c6.4,0,11.2-2.3,13.1-3.4c1.4,0.9,2.7,1.8,3.8,2.8c-0.3,0.1-0.6,0.2-0.9,0.2l-0.6-0.1
	c-7.3-1.1-12.7,0.4-16,4.3c-4.4,5.1-3.4,12.5-3.3,12.8l0.3,1.8l1.8-0.2c16-1.8,18.5-13.8,18.8-16.3c0.7-0.2,1.5-0.4,2.1-0.5
	c6.2,6.1,8.3,12.4,8.3,12.5c0,0.1,0.1,0.2,0.2,0.3v17.9c0,1.4,1.1,2.5,2.5,2.5c1.4,0,2.5-1.1,2.5-2.5V-22c0.1-0.1,0.2-0.2,0.2-0.4
	c0-0.1,2.4-6,8.1-12c0.4,2.7,3.1,14.3,18.8,16.1l1.8,0.2l0.3-1.8c0-0.3,1.1-7.7-3.3-12.8c-3.1-3.6-8.1-5.1-14.8-4.4
	c1.1-1,2.2-1.9,3.5-2.8C172-38.7,176.8-36.4,183.1-36.4z M188.5-53.5c4,0,7.5,1.7,10.1,3.4c-8.3-0.8-15.9,0.4-22.8,3.4
	C179.7-51.2,183.9-53.5,188.5-53.5z M200.5-47.3c-5.5,4.7-11.3,7.1-17.4,7.1c-4.5,0-8-1.3-10-2.3C181-47,190.2-48.6,200.5-47.3z
	 M117.5-67.8c4.7,0,9.2,2.5,13.2,7.3c-6.9-2.8-14.8-4-23.7-3.6C109.6-65.9,113.3-67.8,117.5-67.8z M122.9-54.6c-6,0-11.8-2.3-17.2-7
	c10.3-0.7,19.3,0.8,26.8,4.6c0,0.1,0.1,0.2,0.1,0.2C130.5-55.7,127.1-54.6,122.9-54.6z M125.2-44.5c1.9-2.2,4.8-3.3,8.8-3.3
	c0.2,0,0.4,0,0.6,0c-4.3,1.8-8.7,4.6-12,10.4C122.8-39.5,123.3-42.4,125.2-44.5z M123.8-36.9c3.2-5.7,7.6-8.4,11.9-10
	C134.6-43.7,131.7-38.7,123.8-36.9z M165.8-134.8c0.1,2,0.7,3.7,1.3,5c-4.4,1.2-9.6,3-14.8,5.4c-0.4-0.4-1.2-1.1-2.2-2
	C153.6-132.5,161.7-134.3,165.8-134.8z M145-138.3c2,0.4,4.9,1.2,7.5,2.7c-2.5,1.5-4.8,3.6-6.4,6.4c-0.9-0.6-2-1.2-3.1-1.8
	C143.6-132.8,144.3-135.2,145-138.3z M147.6-121.9c-3.7,2.1-7.2,4.4-10.3,7.1c0.2-1.2,0.2-2.5,0.3-3.9c0.1-3.1-0.3-7-0.6-9.9
	C142.1-126.2,145.7-123.5,147.6-121.9z M152.7-79.6c-10.1,0-16.7-2.2-19.5-6.6c-3.5-5.3-0.7-13,0.6-16c5.6-12.7,26-20.8,37-23.3
	c-1.3,4.8-2.5,12.8,1.1,19.5l0.1,0.1c0.1,0.1,6.9,11.1,2.8,18.6C172-82.2,164.4-79.6,152.7-79.6z M163.1-47.1
	c-1.5-3.2-1.9-6-1.1-8.5c0.9-2.7,3.1-4.6,5-5.8C164.8-56.3,163.6-52,163.1-47.1z M168.3-61.3c2.3,8.9-1.8,14-4.2,16.1
	C164.6-51,165.8-55.6,168.3-61.3z M178.5-30.2c1.8,2.1,2.4,4.8,2.5,6.9c-3.3-6-7.6-8.6-11.7-10.2C173.4-33.5,176.5-32.5,178.5-30.2z
	 M180-22.5c-8-1.9-11-7-12-10.1C172.2-31.2,176.6-28.7,180-22.5z"/>
<path class="st6" d="M-80.5-297.9c0,1,0.8,1.9,1.9,1.9c1,0,1.9-0.8,1.9-1.9c0-1-0.8-1.9-1.9-1.9C-79.7-299.7-80.5-298.9-80.5-297.9z
	 M-81.4-331.5c1,0,1.9-0.8,1.9-1.9c0-1-0.8-1.9-1.9-1.9c-1,0-1.9,0.8-1.9,1.9C-83.2-332.4-82.4-331.5-81.4-331.5z M-27.8-260h-2.5
	l-46.3-98.1c4.5-1.4,7.7-5.6,7.7-10.5c0-6.1-4.9-11-11-11c-6.1,0-11,4.9-11,11c0,4.9,3.3,9.1,7.7,10.5l-46.3,98.1h-2.5
	c-4.9,0-8.9,4-8.9,8.9c0,4.9,4,8.9,8.9,8.9h104.3c4.9,0,8.9-4,8.9-8.9C-18.9-256-22.9-260-27.8-260z M-63.6-318.8l-2.1,2.1
	c-0.5,0.5-0.8,1.3-0.7,2l0.5,3l-2.7-1.4c-0.7-0.3-1.5-0.3-2.1,0l-2.7,1.5l0.5-3.1c0.1-0.7-0.1-1.5-0.7-2l-2.2-2.1l3-0.4
	c0.7-0.1,1.4-0.6,1.7-1.2l1.4-2.8l1.4,2.8c0.3,0.7,1,1.1,1.7,1.2L-63.6-318.8L-63.6-318.8z M-86-368.6c0-3.3,2.7-6,6-6
	c3.3,0,6,2.7,6,6c0,3.3-2.7,6-6,6C-83.3-362.6-86-365.3-86-368.6z M-107.2-295.6l2.4-0.4c0.7-0.1,1.4-0.6,1.7-1.2l1.5-3.1l1.5,3.1
	c0.3,0.7,1,1.1,1.7,1.2l3.4,0.5l-2.5,2.4c-0.5,0.5-0.8,1.3-0.6,2l0.6,3.4l-3-1.6c-0.6-0.3-1.4-0.3-2.1,0l-3.1,1.6l0.6-3.4
	c0.1-0.7-0.1-1.5-0.6-2l-1.9-1.8L-107.2-295.6z M-119.4-269.9c0.7,0.6,1.7,1,2.8,1c2.3,0,4.3-1.9,4.3-4.3c0-2.1-1.5-3.8-3.5-4.2
	l7.2-15.2l1.1,1.1l-0.6,3.8c-0.1,0.7,0.1,1.3,0.5,1.8c0.4,0.5,1.1,0.8,1.7,0.8c0.4,0,0.7-0.1,1-0.3l3.4-1.8l3.4,1.8
	c0.9,0.5,2.1,0.2,2.8-0.5c0.4-0.5,0.6-1.2,0.5-1.8l-0.6-3.8l2.8-2.7c0.6-0.6,0.8-1.5,0.6-2.3c-0.3-0.8-1-1.4-1.8-1.5l-3.8-0.6
	l-1.7-3.4c-0.4-0.8-1.1-1.2-2-1.2c-0.9,0-1.6,0.5-2,1.2l-1.7,3.4l-0.7,0.1l26-55.1l2.8,6c-0.5,0.4-0.8,1-0.8,1.7
	c0,1.2,1,2.2,2.2,2.2c0.1,0,0.3,0,0.4,0l10.4,22l-1.2-0.2l-1.5-3c-0.4-0.8-1.2-1.3-2-1.3c-0.9,0-1.7,0.5-2,1.3l-1.5,3l-3.4,0.5
	c-0.9,0.1-1.6,0.7-1.8,1.6c-0.3,0.8,0,1.7,0.6,2.3l2.4,2.4l-0.6,3.3c-0.1,0.7,0.1,1.3,0.5,1.9c0.4,0.5,1.1,0.8,1.7,0.8h0
	c0.4,0,0.7-0.1,1.1-0.3l3-1.6l3,1.6c0.3,0.2,0.7,0.3,1.1,0.3c0.7,0,1.3-0.3,1.7-0.8c0.4-0.5,0.6-1.2,0.5-1.9l-0.6-3.3l1.4-1.4
	l18.4,39c0,0,0,0,0,0c-2,0-3.6,1.6-3.6,3.6c0,2,1.6,3.6,3.6,3.6c1.1,0,2.1-0.5,2.8-1.4l5.4,11.5H-124L-119.4-269.9z M-27.8-247.2
	h-104.3c-2.1,0-3.9-1.7-3.9-3.9c0-2.1,1.7-3.9,3.9-3.9h104.3c2.1,0,3.9,1.7,3.9,3.9C-23.9-249-25.7-247.2-27.8-247.2z M-58.8-285.5
	l-6-0.8l-2.7-5.5c-0.4-0.8-1.2-1.3-2.2-1.3c-0.9,0-1.8,0.5-2.2,1.3l-2.7,5.5l-6.1,0.9c-0.9,0.1-1.7,0.8-1.9,1.6
	c-0.3,0.9-0.1,1.8,0.6,2.5l4.4,4.2l-1,6.1c-0.1,0.7,0.1,1.4,0.5,2c0.5,0.5,1.1,0.9,1.8,0.9c0.4,0,0.8-0.1,1.1-0.3l5.4-2.9l5.5,2.9
	c0.3,0.2,0.7,0.3,1.1,0.3c0.7,0,1.4-0.3,1.8-0.9c0.5-0.5,0.6-1.3,0.5-2l-1.1-6l4.4-4.3c0.7-0.6,0.9-1.6,0.6-2.5
	C-57.2-284.7-57.9-285.4-58.8-285.5z M-63.7-278.9c-0.6,0.6-0.8,1.4-0.7,2.1l1.1,5.9l-5.3-2.8c-0.3-0.2-0.7-0.3-1.1-0.3
	c-0.4,0-0.8,0.1-1.1,0.3l-5.3,2.8l1-5.9c0.1-0.8-0.1-1.6-0.7-2.1l-4.3-4.2l5.9-0.9c0.8-0.1,1.5-0.6,1.8-1.3l2.7-5.4l2.7,5.4
	c0.4,0.7,1,1.2,1.8,1.3l5.9,0.9L-63.7-278.9z M-91-313.5c-1.6,0-2.9,1.3-2.9,2.9c0,1.6,1.3,2.9,2.9,2.9c1.6,0,2.9-1.3,2.9-2.9
	C-88.1-312.2-89.4-313.5-91-313.5z M-93.5-271.7c-1.4,0-2.5,1.1-2.5,2.5c0,1.4,1.1,2.5,2.5,2.5c1.4,0,2.5-1.1,2.5-2.5
	C-91-270.6-92.1-271.7-93.5-271.7z"/>
<path class="st6" d="M383.5-326.2l1.3-0.2l0.9,1c0,0,0.1,0.1,0.2,0.1c0,0,0,0,0.1,0c0.1,0,0.1-0.1,0.2-0.2l0.2-1.3l1.2-0.6
	c0.1,0,0.1-0.1,0.1-0.2c0-0.1,0-0.2-0.1-0.2l-1.2-0.6l-0.2-1.3c0-0.1-0.1-0.2-0.2-0.2c-0.1,0-0.2,0-0.2,0.1l-1,1l-1.3-0.2
	c-0.1,0-0.2,0-0.2,0.1c-0.1,0.1-0.1,0.2,0,0.2l0.6,1.2l-0.6,1.2c0,0.1,0,0.2,0,0.2C383.3-326.2,383.4-326.2,383.5-326.2z
	 M384.3-327.6c0-0.1,0-0.1,0-0.2l-0.5-0.9l1,0.2c0.1,0,0.1,0,0.2-0.1l0.7-0.7l0.1,1c0,0.1,0.1,0.1,0.1,0.2l0.9,0.5l-0.9,0.4
	c-0.1,0-0.1,0.1-0.1,0.2l-0.2,1l-0.7-0.7c0,0-0.1-0.1-0.2-0.1c0,0,0,0,0,0l-1,0.2L384.3-327.6z M384.3-324.6c-0.1,0-0.2,0-0.3,0.1
	l-3.2,7.7c0,0.1,0,0.2,0.1,0.3c0,0,0.1,0,0.1,0c0.1,0,0.2-0.1,0.2-0.1l3.2-7.7C384.5-324.4,384.4-324.5,384.3-324.6z M390.4-326.7
	l-0.8,0.6c-0.1,0.1-0.1,0.3,0.1,0.3l0.9,0.3c0.1,0,0.1,0.1,0.1,0.1l0.3,0.9c0.1,0.1,0.3,0.2,0.3,0l0.5-0.8c0-0.1,0.1-0.1,0.2-0.1
	l1,0c0.2,0,0.2-0.2,0.1-0.3l-0.6-0.8c0,0-0.1-0.1,0-0.2l0.3-0.9c0-0.2-0.1-0.3-0.3-0.2l-0.9,0.4c-0.1,0-0.1,0-0.2,0l-0.8-0.6
	c-0.1-0.1-0.3,0-0.3,0.2l0.1,1C390.5-326.8,390.4-326.7,390.4-326.7z M389.5-330c0.2-0.3,0.2-0.7-0.1-0.9c-0.3-0.2-0.7-0.2-0.9,0.1
	c-0.2,0.3-0.2,0.7,0.1,0.9C388.8-329.7,389.2-329.7,389.5-330z M382.1-315.4c0.1,0,0.1,0,0.2-0.1l7.7-8.6c0.1-0.1,0.1-0.2,0-0.3
	c-0.1-0.1-0.2-0.1-0.3,0l-7.7,8.6c-0.1,0.1-0.1,0.2,0,0.3C382-315.4,382.1-315.4,382.1-315.4z M381-326.2c0.3-0.3,0.3-0.8-0.1-1.1
	c-0.3-0.3-0.8-0.3-1.1,0.1c-0.3,0.3-0.3,0.8,0.1,1.1C380.2-325.8,380.7-325.8,381-326.2z M393.3-317.8
	C393.3-317.8,393.3-317.8,393.3-317.8c0.1,0,0.2-0.1,0.2-0.2c0,0,0-0.1,0-0.1l-0.3-0.9l0.6-0.8c0.1-0.1,0.1-0.2,0-0.2
	c0-0.1-0.1-0.1-0.2-0.1l-1,0l-0.6-0.8c-0.1-0.1-0.1-0.1-0.2-0.1c-0.1,0-0.2,0.1-0.2,0.2l-0.3,1l-1,0.3c-0.1,0-0.1,0.1-0.2,0.2
	c0,0.1,0,0.2,0.1,0.2l0.8,0.6l0,1c0,0.1,0,0.2,0.1,0.2c0,0,0.1,0,0.1,0c0,0,0.1,0,0.1,0l0.8-0.6L393.3-317.8
	C393.2-317.8,393.3-317.8,393.3-317.8z M392.7-319.1l0.2,0.6l-0.6-0.2c-0.1,0-0.1,0-0.2,0l-0.5,0.4l0-0.7c0-0.1,0-0.1-0.1-0.2
	l-0.6-0.4l0.6-0.2c0.1,0,0.1-0.1,0.1-0.2l0.2-0.7l0.4,0.6c0,0.1,0.1,0.1,0.2,0.1l0.7,0l-0.4,0.6
	C392.7-319.2,392.7-319.1,392.7-319.1z M393-316c-0.3,0.3-0.3,0.8,0.1,1.1c0.3,0.3,0.8,0.3,1.1-0.1c0.3-0.3,0.3-0.8-0.1-1.1
	C393.8-316.3,393.3-316.3,393-316z M395.6-322.7c-0.3-0.2-0.6-0.2-0.8,0.1c-0.2,0.2-0.2,0.6,0.1,0.8c0.3,0.2,0.6,0.2,0.8-0.1
	C395.9-322.1,395.9-322.4,395.6-322.7z M389.7-318.5l-6.5,3.7c-0.1,0.1-0.1,0.2-0.1,0.3c0,0.1,0.1,0.1,0.2,0.1c0,0,0.1,0,0.1,0
	l6.5-3.7c0.1-0.1,0.1-0.2,0.1-0.3C390-318.5,389.9-318.5,389.7-318.5z M377.7-318.1c-0.1-0.1-0.3-0.1-0.4-0.1
	c-0.1,0-0.3,0.1-0.3,0.3l-5.1,13.4c-0.1,0.2,0,0.4,0.1,0.5c0.1,0.1,0.2,0.1,0.3,0.1c0.1,0,0.1,0,0.2-0.1l12.6-6.9
	c0.1-0.1,0.2-0.2,0.2-0.3c0-0.1,0-0.3-0.2-0.4L377.7-318.1z M377.6-317l2.1,1.8l-2.7-0.2L377.6-317z M376.8-315l3.4,0.2l2.8,2.5
	l-7.1-0.5L376.8-315z M373.1-305.3l0.5-1.2l1.7,0.1L373.1-305.3z M376.1-306.9l-2.3-0.1l0.9-2.3l5.2,0.3L376.1-306.9z M380.6-309.4
	l-5.8-0.4l1-2.5l7.8,0.6l0.5,0.4L380.6-309.4z M377.9-321.6c0,0,0,0.1,0,0.1l-0.2,0.4c-0.1,0.1,0.1,0.3,0.2,0.2l0.4-0.1
	c0.1,0,0.1,0,0.1,0l0.3,0.3c0.1,0.1,0.3,0,0.3-0.1l0-0.4c0-0.1,0-0.1,0.1-0.1l0.4-0.2c0.1-0.1,0.1-0.2,0-0.3l-0.4-0.2
	c0,0-0.1-0.1-0.1-0.1l-0.1-0.4c0-0.1-0.2-0.2-0.3-0.1l-0.3,0.3c0,0-0.1,0.1-0.1,0.1l-0.4,0c-0.1,0-0.2,0.1-0.2,0.2L377.9-321.6z
	 M388.9-313.6l-0.4,0c-0.1,0-0.1,0-0.1-0.1l-0.2-0.4c-0.1-0.1-0.2-0.1-0.3,0l-0.2,0.4c0,0-0.1,0.1-0.1,0.1l-0.4,0.1
	c-0.1,0-0.2,0.2-0.1,0.3l0.3,0.3c0,0,0.1,0.1,0.1,0.1l0,0.4c0,0.1,0.1,0.2,0.2,0.1l0.4-0.2c0,0,0.1,0,0.1,0l0.4,0.2
	c0.1,0.1,0.2-0.1,0.2-0.2l-0.1-0.4c0,0,0-0.1,0-0.1l0.3-0.3C389.1-313.5,389-313.6,388.9-313.6z"/>
<path class="st6" d="M-26.5-92.3l-14.3-43.1c-0.3-0.8-1-1.5-1.9-1.7c-0.9-0.2-1.8,0.1-2.4,0.8l-30.2,33.9c-0.6,0.7-0.8,1.6-0.5,2.4
	c0.3,0.8,1,1.5,1.9,1.7l4.5,0.9L-78.5-53c-0.1,0.6,0,1.3,0.4,1.9c0.4,0.6,0.9,0.9,1.6,1.1l8.3,1.7l-6,29.2c-0.3,1.4,0.6,2.7,1.9,3
	c0.2,0,0.3,0.1,0.5,0.1c1.2,0,2.2-0.8,2.4-2l6-29.2l16.9,3.5c0.2,0,0.3,0.1,0.5,0.1c1.2,0,2.2-0.8,2.4-2l9.1-44.3l5,1
	c0.2,0,0.3,0.1,0.5,0.1c0.7,0,1.4-0.3,1.9-0.8C-26.4-90.5-26.2-91.5-26.5-92.3z M-47.9-49.3l-9.6-2l11.2-5.5L-47.9-49.3z
	 M-45.7-59.8L-61.5-52l-11.5-2.4l0.5-2.3l29.1-14L-45.7-59.8z M-42.8-73.8l-29.1,14l2.3-11.1l29.1-14L-42.8-73.8z M-39.9-88L-69-74
	l2.3-11.1l17.1-8.2l10.4,2.1L-39.9-88z M-66.1-88.2l1.7-8.2l10.7,2.2L-66.1-88.2z M-35.3-95.4c-0.2-0.1-0.3-0.1-0.5-0.2l-30-6.2
	c-0.1,0-0.2,0-0.2,0l-2.4-0.5l24.4-27.4l11.5,34.8L-35.3-95.4z M-90.6-103.8l4.5-0.9c0.9-0.2,1.6-0.8,1.9-1.7
	c0.3-0.8,0.1-1.8-0.5-2.4l-30.2-33.9c-0.6-0.7-1.5-1-2.4-0.8c-0.9,0.2-1.6,0.8-1.9,1.7l-14.3,43.1c-0.3,0.8-0.1,1.8,0.5,2.4
	c0.5,0.5,1.2,0.8,1.9,0.8c0.2,0,0.3,0,0.5-0.1l5-1l9.1,44.3c0.2,1.2,1.3,2,2.4,2c0.2,0,0.3,0,0.5-0.1l16.9-3.5l6,29.2
	c0.2,1.2,1.3,2,2.4,2c0.2,0,0.3,0,0.5-0.1c1.4-0.3,2.2-1.6,1.9-3l-6-29.2l8.3-1.7c0.7-0.1,1.2-0.5,1.6-1.1c0.4-0.6,0.5-1.2,0.4-1.9
	L-90.6-103.8z M-124.6-101.9l-2.7,0.6l11.5-34.8l24.4,27.4l-2.4,0.5c-0.1,0-0.2,0-0.2,0l-30,6.2C-124.3-102-124.5-102-124.6-101.9z
	 M-93.8-94.7l-12.4-5.9l10.7-2.2L-93.8-94.7z M-120.7-97.6l10.4-2.1l17.1,8.2l2.3,11.1l-29.1-14L-120.7-97.6z M-119.4-91.4l29.1,14
	l2.3,11.1l-29.1-14L-119.4-91.4z M-112-55.7l-1.5-7.5l11.2,5.5L-112-55.7z M-98.4-58.5l-15.8-7.8l-2.2-10.9l29.1,14l0.5,2.3
	L-98.4-58.5z"/>
<path class="st6" d="M364.5-29.5c-1.2-5.3-4.1-7.9-6.3-9.1c-4.4-2.4-9.1-1.2-10.6-0.7l-10.1,2.3c-0.1,0-0.2,0-0.3,0.1
	c-0.1,0-7.2,1.9-9.8-2.6c-0.9-1.6-1.2-3-0.9-4.3c0.6-2.2,2.8-3.6,3.7-4.1c0.2-0.1,0.2-0.1,10.3-6.9c0.1-0.1,0.2-0.1,0.3-0.2l2.7,3.7
	c0.5,0.7,1.3,1,2,1c0.5,0,0.9-0.1,1.4-0.4l10.6-6.9c0.5,0.4,1.1,0.7,1.7,0.7c0.5,0,0.9-0.1,1.4-0.4l56.9-37.1
	c5.4,0,10.9-1.9,15.6-5.2c11-7.8,14.7-21.7,8.2-30.8c-6.5-9.2-20.8-10.3-31.8-2.4c-4.8,3.4-8.4,8.1-10.2,13.3l-53.1,42.3
	c-0.8,0.7-1.1,1.8-0.8,2.7l-10,8c-1,0.8-1.2,2.3-0.5,3.4l3,4.1c-0.1,0-0.1,0.1-0.2,0.1c-3.8,2.6-9.6,6.5-9.9,6.6
	c-1.8,1-5.1,3.4-6.1,7.2c-0.7,2.6-0.2,5.4,1.4,8.1c3.7,6.2,11.7,5.9,15.5,4.9l10.2-2.3c0.1,0,0.2,0,0.3-0.1c0.6-0.2,3.9-1.2,6.8,0.3
	c1.3,0.7,3.1,2.3,3.8,5.8l2.3,10.4c0.3,1.2,1.3,2,2.4,2c0.2,0,0.4,0,0.5-0.1c1.3-0.3,2.2-1.6,1.9-3L364.5-29.5z M437.1-127.6
	c4.8,6.7,2,16.9-6.2,23.2L413-129.4C421.6-135.1,432.3-134.4,437.1-127.6z M410.9-127.9l17.9,24.9c-3.5,2.2-7.3,3.4-11.1,3.5
	l-13.7-19C405.4-122.1,407.8-125.3,410.9-127.9z M400.8-114.5l12.2,17l-7.9,5.1l-11.7-16.2L400.8-114.5z M391.4-107.1l11.6,16
	l-43.2,28.2l-8.7-12.1L391.4-107.1z M348.1-70.5l6.3,8.8l-8.4,5.4l-5.7-8L348.1-70.5z M448.2-66.8v-8.2c0-0.2,0-0.3-0.1-0.4
	c0-0.5-0.3-1-0.6-1.3c-0.4-0.4-1-0.5-1.5-0.4l-28.5,4.7c-0.8,0.1-1.4,0.8-1.5,1.5c-0.1,0.2-0.1,0.4-0.1,0.6v24.1
	c-1.1-0.6-2.4-0.9-3.9-0.9c-1.1,0-2.3,0.2-3.4,0.6c-2.1,0.8-3.8,2.2-4.9,3.9c-1.1,1.9-1.4,4-0.7,5.9c1,2.8,3.8,4.6,7.2,4.6
	c1.1,0,2.3-0.2,3.4-0.6c3.7-1.3,6-4.6,5.9-7.8c0,0,0-0.1,0-0.1v-17.8l24.9-4.3V-51c-1.1-0.6-2.4-0.9-3.9-0.9c-1.1,0-2.3,0.2-3.4,0.6
	c-4.4,1.6-6.9,6-5.5,9.9c1,2.8,3.8,4.6,7.2,4.6c1.1,0,2.3-0.2,3.4-0.6c3.7-1.3,6-4.6,5.9-7.8c0,0,0-0.1,0-0.1V-65c0,0,0-0.1,0-0.1
	L448.2-66.8z M412.4-36.3c-0.7,0.3-1.4,0.4-2.1,0.4c-1.8,0-3.2-0.8-3.7-2.1c-0.3-0.8-0.2-1.8,0.4-2.7c0.6-1,1.7-1.9,2.9-2.3
	c0.7-0.3,1.4-0.4,2.1-0.4c1.8,0,3.2,0.8,3.7,2.1C416.3-39.5,414.8-37.2,412.4-36.3z M441-41c-0.7,0.3-1.4,0.4-2.1,0.4
	c-1.8,0-3.2-0.8-3.7-2.1c-0.7-1.8,0.8-4.1,3.3-5c0.7-0.3,1.4-0.4,2.1-0.4c1.8,0,3.2,0.8,3.7,2.1C445-44.2,443.5-41.9,441-41z
	 M444.5-66.6l-24.8,4.3l0-6.8l24.8-4.1l0,6.3V-66.6z M390.3-55.8c-0.1-0.3-0.4-0.6-0.7-0.7c-0.3-0.1-0.7-0.1-1,0.1l-11.7,6.5
	c-0.5,0.3-0.7,0.7-0.6,1.2c0,0.2,0,0.4,0.1,0.5l6.2,17.1c-0.3,0-0.6-0.1-0.9-0.1c-1.5,0-3.1,0.6-4.3,1.7c-2.6,2.2-3.2,5.9-1.3,8.1
	c0.9,1.1,2.3,1.7,3.9,1.7c1.5,0,3.1-0.6,4.3-1.7c2.2-1.8,3-4.7,2.1-6.9c0,0,0,0,0-0.1l-4.6-12.6l10.8-6.2c0.5-0.3,0.8-0.9,0.5-1.5
	L390.3-55.8z M382.6-23.2c-1.5,1.3-3.7,1.4-4.7,0.2c-1-1.2-0.5-3.3,1-4.6c0.8-0.7,1.8-1.1,2.7-1.1c0.8,0,1.5,0.3,2,0.8
	C384.6-26.6,384.1-24.5,382.6-23.2z M380.9-43.3l-1.8-5l9.5-5.3l1.8,4.8L380.9-43.3z"/>
<path class="st6" d="M-265.9-77.2c0-20.1-11.7-36.5-26-36.5c-14.3,0-26,16.4-26,36.5c0,6.1,1.1,11.8,2.9,16.8
	c-3.4,1.7-7,2.6-10.7,2.6c-17.1,0-31-19.3-31-42.9c0-23.7,13.9-42.9,31-42.9c11.9,0,22.9,9.6,28,24.5c0.5,1.3,1.9,2,3.2,1.5
	c1.3-0.5,2-1.9,1.5-3.2c-5.9-16.9-18.7-27.9-32.7-27.9c-19.9,0-36,21.5-36,47.9c0,25.4,14.9,46.2,33.7,47.8l-7.2,7.7
	c-0.5,0.5-0.6,1.3-0.3,2c0.3,0.7,1,1.1,1.7,1.1h6.9v23.4c0,0.7,0.6,1.3,1.3,1.3s1.3-0.6,1.3-1.3V-42h6.8c0.7,0,1.4-0.4,1.7-1.1
	c0.3-0.7,0.2-1.5-0.3-2l-7.2-7.7c3.6-0.3,7-1.3,10.4-3c4.2,8.2,10.8,13.8,18.3,14.9l-6.7,7.3c-0.5,0.5-0.6,1.3-0.3,2
	c0.3,0.7,1,1.1,1.7,1.1h6.9v11.9c0,0.7,0.6,1.3,1.3,1.3c0.7,0,1.3-0.6,1.3-1.3v-11.9h6.8c0.7,0,1.4-0.4,1.7-1.1
	c0.3-0.7,0.2-1.5-0.3-2l-6.7-7.3C-276.1-42.8-265.9-58.3-265.9-77.2z M-321.8-45.7h-7.7l3.8-4.1L-321.8-45.7z M-288.1-34.2h-7.7
	l3.8-4.1L-288.1-34.2z M-291.9-45.7c-7.3,0-13.8-5.7-17.5-14.2c-0.1-0.2-0.1-0.4-0.3-0.7c0,0,0,0,0,0c-2-4.8-3.2-10.5-3.2-16.6
	c0-17.4,9.4-31.5,21-31.5c11.6,0,21,14.1,21,31.5C-270.9-59.8-280.3-45.7-291.9-45.7z"/>
<path class="st6" d="M201.8,295.1c-0.8-0.6-2-0.5-2.6,0.3l-5,6.4c-2.2-1.3-4.8-1.9-7.6-1.7c-3.4,0.3-6.4,1.9-8.6,4.5
	c-2.2,2.6-3.2,5.9-2.9,9.3c0.3,3,1.6,5.7,3.6,7.8l-4.7,6.1h-68.6c-1,0-1.9,0.6-2.3,1.6c-0.4,1-0.1,2,0.6,2.7l42.8,40.5V426h-20.2
	c-1.4,0-2.5,1.1-2.5,2.5c0,1.4,1.1,2.5,2.5,2.5h45.5c1.4,0,2.5-1.1,2.5-2.5c0-1.4-1.1-2.5-2.5-2.5h-20.2v-53.3l42.8-40.5
	c0.7-0.7,1-1.8,0.6-2.7c-0.4-1-1.3-1.6-2.3-1.6h-13.8l3-3.9c1.8,1,3.9,1.5,6,1.5c0.4,0,0.8,0,1.2-0.1c7-0.7,12.1-6.9,11.5-13.8
	c-0.3-2.9-1.5-5.5-3.3-7.4l5-6.5C202.8,296.9,202.6,295.7,201.8,295.1z M111.6,332.9h58.4l-7,9h-42L111.6,332.9z M148.9,368.2
	l-25.2-23.8h37.4l-13.9,17.9c-0.6,0.8-0.5,2,0.3,2.6c0.3,0.3,0.7,0.4,1.1,0.4c0.6,0,1.1-0.2,1.5-0.7l15.7-20.2h8.2L148.9,368.2z
	 M186.2,332.9l-9.5,9h-8.9l7-9H186.2z M188.5,320.5c-4.3,0.4-8-2.7-8.4-7c-0.2-2,0.4-4.1,1.7-5.6c1.3-1.6,3.2-2.6,5.2-2.8
	c0.2,0,0.5,0,0.7,0c4,0,7.3,3,7.7,7C195.8,316.3,192.7,320.1,188.5,320.5z"/>
<path class="st6" d="M-111.7,380.9c0.2,0,0.4,0,0.6-0.1c6.8-1.6,12-5.4,15.4-11.5c11.8-20.8-0.8-61-1.4-62.7c-0.3-1-1.3-1.7-2.4-1.7
	c0,0,0,0,0,0l-15.6,0.1l-15.7-0.1c0,0,0,0,0,0c-1.1,0-2,0.7-2.4,1.7c-0.5,1.7-13.2,41.9-1.4,62.7c3.5,6.1,8.6,9.9,15.4,11.5
	c0.2,0,0.4,0.1,0.6,0.1h0.9v45h-17.7c-1.4,0-2.5,1.1-2.5,2.5c0,1.4,1.1,2.5,2.5,2.5h40.5c1.4,0,2.5-1.1,2.5-2.5
	c0-1.4-1.1-2.5-2.5-2.5h-17.7v-45H-111.7z M-129,310l13.8,0.1l13.8-0.1c1.2,4,3.9,14.4,5.1,25.8h-37.8
	C-132.9,324.4-130.1,314-129,310z M-118.3,375.9c-5.3-1.3-9.2-4.2-11.9-9c-4.3-7.5-4.9-18.3-4.1-28.6H-96
	c0.8,10.3,0.2,21.1-4.1,28.6c-2.7,4.8-6.6,7.7-11.9,9H-118.3z M-25.4,394.8c11.8-17-0.6-50.7-1.1-52.1c-0.4-1-1.3-1.6-2.3-1.6
	c0,0,0,0,0,0l-12.8,0.1l-24-0.1c0,0,0,0,0,0c-1,0-1.9,0.6-2.3,1.6c-0.6,1.4-13.4,34.6-1.7,51.8c4.2,6.1,10.8,9.4,19.8,9.8V426h-16.2
	c-1.4,0-2.5,1.1-2.5,2.5c0,1.4,1.1,2.5,2.5,2.5h37.3c1.4,0,2.5-1.1,2.5-2.5c0-1.4-1.1-2.5-2.5-2.5H-45v-21.6
	C-36.1,404-29.6,400.9-25.4,394.8z M-64,346.1l22.3,0.1l11.1-0.1c1.4,4.1,4.8,15.5,5.3,26.6l-44.3,0
	C-69.1,361.5-65.4,350.2-64,346.1z M-46.3,399.4H-48c-8.4,0-14.1-2.5-17.7-7.7c-3-4.4-4.1-10.4-4-16.5l44.4,0
	c0,6.3-1.1,12.3-4.2,16.8C-32.9,397-38.4,399.4-46.3,399.4z"/>
<path class="st6" d="M343.9,358.8c-2.5,0-4.5,2-4.5,4.5c0,2.5,2,4.5,4.5,4.5c2.5,0,4.5-2,4.5-4.5
	C348.4,360.8,346.4,358.8,343.9,358.8z M343.9,366.6c-1.8,0-3.3-1.5-3.3-3.3c0-1.8,1.5-3.3,3.3-3.3s3.3,1.5,3.3,3.3
	C347.2,365.2,345.7,366.6,343.9,366.6z M353.9,372.9c-2.4,0-4.3,1.9-4.3,4.3c0,2.4,1.9,4.3,4.3,4.3c2.4,0,4.3-1.9,4.3-4.3
	C358.1,374.8,356.2,372.9,353.9,372.9z M353.9,380.2c-1.7,0-3-1.4-3-3c0-1.7,1.4-3,3-3c1.7,0,3,1.4,3,3
	C356.9,378.8,355.5,380.2,353.9,380.2z M411.4,368.4c-2.3,0-4.2,1.9-4.2,4.2c0,2.3,1.9,4.2,4.2,4.2c2.3,0,4.2-1.9,4.2-4.2
	C415.6,370.3,413.7,368.4,411.4,368.4z M411.4,375.6c-1.6,0-3-1.3-3-3c0-1.6,1.3-3,3-3s3,1.3,3,3
	C414.4,374.3,413.1,375.6,411.4,375.6z M432.8,365.7c0-2.7-2.2-5-5-5c-2.7,0-5,2.2-5,5c0,2.7,2.2,5,5,5
	C430.5,370.7,432.8,368.5,432.8,365.7z M427.8,369.4c-2,0-3.7-1.7-3.7-3.7c0-2,1.7-3.7,3.7-3.7s3.7,1.7,3.7,3.7
	C431.5,367.8,429.9,369.4,427.8,369.4z M436.4,426h-13.1v-24.8c30.7-7.2,22.4-66.6,22-69.1c-0.2-1.2-1.2-2.1-2.5-2.1h-44.1
	c-1.2,0-2.3,0.9-2.5,2.1c-0.4,2.6-8.7,61.9,22,69.1V426h-13.1c-1.4,0-2.5,1.1-2.5,2.5c0,1.4,1.1,2.5,2.5,2.5h31.2
	c1.4,0,2.5-1.1,2.5-2.5C438.9,427.1,437.7,426,436.4,426z M400.9,335h39.7c0.4,3.4,1,10.4,0.9,18.5H400
	C399.9,345.4,400.5,338.3,400.9,335z M400,356h41.4c-0.5,17.1-4.5,38-20.7,40.7C404.6,394,400.5,373.1,400,356z M367.2,355.8
	c0-3-2.4-5.4-5.4-5.4c-3,0-5.4,2.4-5.4,5.4c0,3,2.4,5.4,5.4,5.4C364.7,361.2,367.2,358.8,367.2,355.8z M361.8,359.9
	c-2.3,0-4.1-1.8-4.1-4.1c0-2.3,1.8-4.1,4.1-4.1c2.3,0,4.1,1.8,4.1,4.1C365.9,358.1,364.1,359.9,361.8,359.9z M420.6,381.3
	c-2.2,0-4,1.8-4,4c0,2.2,1.8,4,4,4c2.2,0,4-1.8,4-4C424.5,383.1,422.7,381.3,420.6,381.3z M420.6,388c-1.5,0-2.7-1.2-2.7-2.7
	c0-1.5,1.2-2.7,2.7-2.7c1.5,0,2.7,1.2,2.7,2.7C423.3,386.7,422,388,420.6,388z M382.2,314.5c-0.2-1.2-1.2-2.1-2.5-2.1h-52.1
	c-1.2,0-2.3,0.9-2.5,2.1c-0.4,3-10.3,73.2,26,81.3v30.1h-16c-1.4,0-2.5,1.1-2.5,2.5c0,1.4,1.1,2.5,2.5,2.5h36.9
	c1.4,0,2.5-1.1,2.5-2.5c0-1.4-1.1-2.5-2.5-2.5h-16v-30.1C392.5,387.7,382.6,317.6,382.2,314.5z M329.8,317.4h47.7
	c0.5,4.1,1.4,13.7,1.1,24.6h-49.9C328.4,331.1,329.3,321.5,329.8,317.4z M353.7,391.2L353.7,391.2c-18.9-3.1-24-26.6-24.9-46.6h49.7
	C377.7,364.6,372.6,388.1,353.7,391.2z"/>
<path class="st6" d="M212.9,146.2h-25.4v-4.5c3.5-0.9,12.3-4.2,15.6-13.1c4-10.6-1.2-25-15.5-42.9c-0.9-1.2-3-1.2-3.9,0
	c-14.3,17.9-19.5,32.3-15.5,42.9c3.4,8.9,12.1,12.2,15.6,13.1v4.5h-25.4c-1.4,0-2.5,1.1-2.5,2.5v49c0,1.4,1.1,2.5,2.5,2.5h54.5
	c1.4,0,2.5-1.1,2.5-2.5v-49C215.4,147.4,214.3,146.2,212.9,146.2z M172.9,126.9c-3.1-8.3,1.3-20.5,12.8-35.5
	c11.5,15,15.9,27.2,12.8,35.5c-2.2,5.9-7.8,8.6-11,9.7V129c0-1-0.8-1.9-1.9-1.9c-1,0-1.9,0.8-1.9,1.9v7.5
	C180.7,135.4,175.1,132.7,172.9,126.9z M161,151.2h12.7L161,163.9V151.2z M161,167.5l16.1-16.1c0,0,0-0.1,0.1-0.1h18.6L161,186
	V167.5z M210.4,195.3h-11l11-11V195.3z M210.4,180.7l-14.6,14.6h-18.5l33.1-33.1V180.7z M210.4,158.6l-36.7,36.7H161v-5.7l38.2-38.2
	c0,0,0-0.1,0.1-0.1h11.2V158.6z M147.6,136.7h-25.4v-5.9c3.5-0.9,12.3-4.2,15.6-13.1c4-10.6-1.2-25-15.5-42.9c-0.9-1.2-3-1.2-3.9,0
	c-14.3,17.9-19.5,32.3-15.5,42.9c3.4,8.9,12.1,12.2,15.6,13.1v5.9H93.1c-1.4,0-2.5,1.1-2.5,2.5v58.6c0,1.4,1.1,2.5,2.5,2.5h54.5
	c1.4,0,2.5-1.1,2.5-2.5v-58.6C150.1,137.8,149,136.7,147.6,136.7z M107.5,115.9c-3.1-8.3,1.4-20.5,12.8-35.5
	c11.5,15,15.9,27.2,12.8,35.5c-2.2,5.9-7.8,8.6-11,9.7v-10.2c0-1-0.8-1.9-1.9-1.9c-1,0-1.9,0.8-1.9,1.9v10.2
	C115.3,124.5,109.7,121.8,107.5,115.9z M95.6,141.7h13l-13,13V141.7z M95.6,158.2l16.5-16.5h19.4l-35.9,35.9V158.2z M145.1,195.3
	h-17.7l17.7-17.7V195.3z M145.1,174l-21.3,21.3h-19.4l40.7-40.7V174z M145.1,151.1l-44.2,44.2h-5.3v-14.1l39.4-39.4h10V151.1z"/>
<path class="st6" d="M-314.6,375.5c-3.3,0-6,2.7-6,6c0,3.3,2.7,6,6,6c3.3,0,6-2.7,6-6C-308.5,378.2-311.2,375.5-314.6,375.5z
	 M-314.6,386.2c-2.6,0-4.8-2.1-4.8-4.8c0-2.6,2.1-4.8,4.8-4.8c2.6,0,4.8,2.1,4.8,4.8C-309.8,384.1-311.9,386.2-314.6,386.2z
	 M-255.8,365.5c-0.3-7.6-2.8-13.5-7.4-17.3c-5.3-4.5-11.4-4.4-13.3-4.3h-12.2c0-0.1,0-0.1,0-0.2c4.3-4.5,9.4-14.8,1.3-25.6
	c-7.1-9.6-27-14.6-43-14.6c-12.7,0-23.3,2.9-29.7,8.3c-9,7.5-13.7,18.3-11.1,25.6c0.8,2.3,3,5.9,8.6,7.2v83.9c0,1.4,1.1,2.5,2.5,2.5
	h67.8c1.4,0,2.5-1.1,2.5-2.5v-11.9c8.8-0.4,16.2-3.7,21.9-9.7C-255.9,394.4-255.4,373.8-255.8,365.5z M-294.7,426h-62.8v-10.6h62.8
	V426z M-294.7,412.9h-62.8v-67.8c1.9,0.2,7,0.9,9.7,3.7c1.3,1.4,1.9,3.1,1.7,5.2c-0.6,11.5,0.9,19,4.6,22.9c1.9,2,4.3,3,7.1,3
	c0,0,0,0,0,0c0.3,0,0.7,0,1,0c9.3-0.7,10.1-10.6,10.6-15.9c0.1-1,0.2-1.8,0.3-2.4l0.1-0.7c0.5-3.2,0.6-4,4.2-4c0.2,0,0.5,0,0.7,0
	c1,0,1.7,0.3,2.1,0.7c0.8,0.9,0.7,2.7,0.6,3.3c-0.3,4.7,0.5,8.1,2.7,10.4c1.8,2,4.5,3,7.9,3c3.1,0,5.6-0.9,7.3-2.8
	c1.1-1.2,1.8-2.7,2.2-4.3V412.9z M-292.2,340.1c-2.1,1.3-6.6,3.5-13.6,3.2c-0.7,0-1.3,0.5-1.3,1.2c0,0.7,0.5,1.3,1.2,1.3
	c0.5,0,1,0,1.5,0c4.7,0,8.2-1,10.8-2.1c-0.6,4.9-2.1,7.4-3.4,9.3c-1.2,1.8-2.3,3.7-2.1,6.6c0.1,2.1,0.5,6.5-1.3,8.4
	c-0.8,0.8-1.9,1.2-3.6,1.2c-2,0-3.4-0.5-4.3-1.4c-1.1-1.2-1.6-3.4-1.3-6.6c0.1-1.1,0.3-4.5-1.9-7c-1.3-1.5-3.2-2.3-5.6-2.4
	c-0.3,0-0.6,0-1,0c-7.9,0-8.6,4.9-9.2,8.2l-0.1,0.7c-0.1,0.8-0.2,1.7-0.3,2.8c-0.5,6-1.3,11-6,11.4c-0.2,0-0.4,0-0.6,0h0
	c-1.4,0-2.5-0.5-3.5-1.4c-1.8-1.9-3.9-6.8-3.2-19.2c0.2-3.5-0.9-6.5-3.1-8.9c-4.8-5.2-13.6-5.4-14-5.4c-4.4-0.1-7.2-1.5-8.2-4.4
	c-1.6-4.6,1.5-13.4,9.6-20.1c5.5-4.6,15-7.1,26.5-7.1c16.9,0,33.6,5.4,39,12.6C-284.5,330.3-290.2,338-292.2,340.1z M-271.4,403.4
	c-4.7,5-10.9,7.8-18.3,8.2v-6.8c5.4-0.4,9.9-2.4,13.4-6c8.7-9.2,9-26,8.7-32.7c-0.2-4.2-1.3-7.1-3.2-8.8c-1.6-1.4-3.5-1.6-4.5-1.6
	c-0.1,0-0.3,0-0.3,0c0,0-0.1,0-0.1,0c-0.1,0-0.3,0-0.4,0h-13.5v-6.4c0-0.1,0-0.2,0-0.2c0,0,0-0.1,0-0.1h13.2c0.1,0,0.1,0,0.2,0
	c1.3-0.1,5.9-0.2,9.8,3.1c3.5,2.9,5.4,7.5,5.6,13.7C-260.5,373.4-260.9,392.3-271.4,403.4z M-289.7,399.8v-39.1h13.5
	c0.3,0,0.7,0,0.9,0c0.4,0,1,0.1,1.3,0.4c0.6,0.5,1.3,2.1,1.4,5.2c0.3,6.1,0,21.3-7.4,29.1C-282.4,397.9-285.7,399.4-289.7,399.8z
	 M-338.7,385.4c-2.4,0-4.3,2-4.3,4.3c0,2.4,2,4.3,4.3,4.3c2.4,0,4.3-2,4.3-4.3C-334.3,387.4-336.3,385.4-338.7,385.4z M-338.7,392.9
	c-1.7,0-3.1-1.4-3.1-3.1c0-1.7,1.4-3.1,3.1-3.1c1.7,0,3.1,1.4,3.1,3.1C-335.6,391.5-336.9,392.9-338.7,392.9z M-323.8,398.2
	c-2.4,0-4.3,2-4.3,4.3c0,2.4,2,4.3,4.3,4.3c2.4,0,4.3-2,4.3-4.3C-319.4,400.2-321.4,398.2-323.8,398.2z M-323.8,405.7
	c-1.7,0-3.1-1.4-3.1-3.1c0-1.7,1.4-3.1,3.1-3.1c1.7,0,3.1,1.4,3.1,3.1C-320.7,404.3-322,405.7-323.8,405.7z"/>
<path class="st6" d="M-250,196.4h-16.1v-30.3c1.2-0.7,2.3-1.7,3.2-2.9c0.4-0.5,0.5-1,0.5-1.6c-0.1-5.1-4.4-9.3-9.5-9.3h-9.5v-24.6
	c0.8-0.6,1.5-1.3,2.1-2.1c0.3-0.4,0.5-1,0.5-1.5v-1c0-5.3-4.3-9.5-9.5-9.5h-6.3v-8.9c0-1.2-0.8-2.2-1.9-2.4c0-0.1,0-0.1,0-0.2v-1
	c0.9-0.3,3.2-1.1,4.1-3.5c1-2.7-0.2-6.3-3.8-10.7c-0.5-0.6-1.5-0.6-2,0c-3.5,4.4-4.8,8-3.8,10.7c0.9,2.4,3.2,3.2,4.1,3.5v1
	c0,0.1,0,0.1,0,0.2c-1.1,0.3-1.9,1.2-1.9,2.4v8.9h-11.6v-8.9c0-1.2-0.8-2.2-1.9-2.4c0-0.1,0-0.1,0-0.2v-1c0.9-0.3,3.2-1.1,4.1-3.5
	c1-2.7-0.2-6.3-3.8-10.7c-0.5-0.6-1.5-0.6-2,0c-3.5,4.4-4.8,8-3.8,10.7c0.9,2.4,3.2,3.2,4.1,3.5v1c0,0.1,0,0.1,0,0.2
	c-1.1,0.3-1.9,1.2-1.9,2.4v8.9h-11.7v-8.9c0-1.2-0.8-2.2-1.9-2.4c0-0.1,0-0.1,0-0.2v-1c0.9-0.3,3.2-1.1,4.1-3.5
	c1-2.7-0.2-6.3-3.8-10.7c-0.5-0.6-1.5-0.6-2,0c-3.5,4.4-4.8,8-3.8,10.7c0.9,2.4,3.2,3.2,4.1,3.5v1c0,0.1,0,0.1,0,0.2
	c-1.1,0.3-1.9,1.2-1.9,2.4v8.9h-6.3c-5.3,0-9.5,4.3-9.5,9.5v1c0,0.6,0.2,1.1,0.5,1.5c0.6,0.8,1.3,1.5,2.1,2.1v24.6h-9.5
	c-5.3,0-9.5,4.3-9.5,9.5v0.4c0,0.6,0.2,1.2,0.7,1.7c0.9,1,2,1.8,3.1,2.4v30h-16.1c-1.4,0-2.5,1.1-2.5,2.5s1.1,2.5,2.5,2.5H-250
	c1.4,0,2.5-1.1,2.5-2.5S-248.7,196.4-250,196.4z M-297.8,97.5v1c-0.6-0.3-1.4-0.8-1.8-1.7c-0.6-1.6,0.3-4,2.4-7c2.1,3,3,5.4,2.4,7
	c-0.3,0.9-1.1,1.4-1.8,1.7v-1c0-0.3-0.3-0.6-0.6-0.6C-297.5,96.8-297.8,97.1-297.8,97.5z M-314.4,97.5v1c-0.6-0.3-1.4-0.8-1.8-1.7
	c-0.6-1.6,0.3-4,2.4-7c2.1,3,3,5.4,2.4,7c-0.3,0.9-1.1,1.4-1.8,1.7v-1c0-0.3-0.3-0.6-0.6-0.6C-314.1,96.8-314.4,97.1-314.4,97.5z
	 M-331,97.5v1c-0.6-0.3-1.4-0.8-1.8-1.7c-0.6-1.6,0.3-4,2.4-7c2.1,3,3,5.4,2.4,7c-0.3,0.9-1.1,1.4-1.8,1.7v-1c0-0.3-0.3-0.6-0.6-0.6
	C-330.8,96.8-331,97.1-331,97.5z M-343.8,123.1c0-2.5,2-4.5,4.5-4.5h51c2.5,0,4.5,2,4.5,4.5v0.1c-1.3,1.4-3.1,2.1-5,2.1
	c-2.5,0-4.9-1.4-6.1-3.6c-0.4-0.8-1.3-1.3-2.2-1.3c0,0,0,0,0,0c-0.9,0-1.7,0.5-2.2,1.3c-1.3,2.2-3.6,3.6-6.2,3.6
	c-2.5,0-4.9-1.4-6.2-3.6c-0.4-0.8-1.3-1.3-2.2-1.3h0c-0.9,0-1.7,0.5-2.2,1.3c-1.3,2.2-3.6,3.6-6.1,3.6c-2.5,0-4.9-1.4-6.2-3.6
	c-0.4-0.8-1.3-1.3-2.2-1.3c-0.9,0-1.7,0.5-2.2,1.3c-1.3,2.2-3.6,3.6-6.1,3.6C-340.7,125.3-342.5,124.6-343.8,123.1L-343.8,123.1z
	 M-341.2,143.4v-7.1h54.8v7.1H-341.2z M-286.4,144.7v7.3h-54.8v-7.3H-286.4z M-341.2,135.1v-5c0.8,0.2,1.6,0.3,2.4,0.3
	c3.1,0,6.1-1.2,8.3-3.3c2.2,2.1,5.2,3.3,8.3,3.3c3.1,0,6.1-1.2,8.3-3.3c2.2,2.1,5.2,3.3,8.3,3.3c3.1,0,6.1-1.2,8.3-3.3
	c2.2,2.1,5.2,3.3,8.3,3.3c0.8,0,1.6-0.1,2.4-0.3v5H-341.2z M-271.1,195.7h-85.3v-10.1h85.3V195.7z M-271.1,184.4h-85.3v-7.1h85.3
	V184.4z M-271.1,176.1h-85.3v-8.2c0.3,0,0.5,0,0.8,0c3.1,0,6.1-1.2,8.3-3.3c2.2,2.1,5.2,3.3,8.3,3.3c3.1,0,6.1-1.2,8.3-3.3
	c2.2,2.1,5.2,3.3,8.3,3.3c3.1,0,6.1-1.2,8.3-3.3c2.2,2.1,5.2,3.3,8.3,3.3c3.1,0,6.1-1.2,8.3-3.3c2.2,2.1,5.2,3.3,8.3,3.3
	c3.1,0,6.1-1.2,8.3-3.3c2.2,2.1,5.2,3.3,8.3,3.3c0.4,0,0.8,0,1.3-0.1V176.1z M-272.4,162.9c-2.5,0-4.9-1.4-6.2-3.6
	c-0.4-0.8-1.3-1.3-2.2-1.3c-0.9,0-1.7,0.5-2.2,1.3c-1.3,2.2-3.6,3.6-6.2,3.6c-2.5,0-4.9-1.4-6.1-3.6c-0.4-0.8-1.3-1.3-2.2-1.3h0
	c-0.9,0-1.7,0.5-2.2,1.3c-1.3,2.2-3.6,3.6-6.2,3.6c-2.5,0-4.9-1.4-6.2-3.6c-0.4-0.8-1.3-1.3-2.2-1.3c-0.9,0-1.7,0.5-2.2,1.3
	c-1.3,2.2-3.6,3.6-6.1,3.6c-2.5,0-4.9-1.4-6.1-3.6c-0.4-0.8-1.3-1.3-2.2-1.3c-0.9,0-1.7,0.5-2.2,1.3c-1.3,2.2-3.6,3.6-6.1,3.6
	c-2.5,0-4.9-1.4-6.2-3.6c-0.4-0.8-1.3-1.3-2.2-1.3c-0.9,0-1.7,0.5-2.2,1.3c-1.3,2.2-3.6,3.6-6.2,3.6c-1.7,0-3.2-0.6-4.5-1.6
	c0.3-2.2,2.2-3.9,4.5-3.9h83.8c2.1,0,4,1.5,4.4,3.5C-268.8,162.2-270.5,162.9-272.4,162.9z"/>
<path class="st6" d="M166.9-368.7c-12.1-0.3-23.7,4.1-32.5,12.4c-8.8,8.4-13.9,19.6-14.2,31.8c-0.6,21,16.1,38.6,37.1,39.2
	c8.6,0.2,16.8-2.9,23.1-8.8c6.3-5.9,9.8-13.9,10.1-22.6c0.2-7.4-2.5-14.4-7.5-19.7s-11.9-8.4-19.3-8.6c-0.1,0-0.1,0-0.2,0
	c-4.7,0-8.6,3.8-8.8,8.5c-0.1,2.3,0.8,4.6,2.4,6.3c1.6,1.7,3.8,2.7,6.1,2.7c2.7,0.1,5.2,1.2,7,3.1c1.8,2,2.8,4.5,2.8,7.2
	c-0.1,3.9-1.7,7.6-4.6,10.3c-2.9,2.7-6.6,4.1-10.6,4c-11.4-0.3-20.4-9.8-20.1-21.2c0.2-7.5,3.3-14.4,8.7-19.6
	c5.4-5.1,12.5-7.9,20-7.7c20.5,0.6,36.7,17.7,36.2,38.2c-0.4,13-5.8,25.1-15.2,34c-9.4,8.9-21.8,13.7-34.9,13.3h-5.7
	c-1-3.3-4.2-5.8-7.9-5.8h-19.1c-3.7,0-6.8,2.4-7.9,5.8l-17.2,0c-4.8,0-8.8,3.9-8.8,8.8c0,4.8,3.9,8.8,8.8,8.8h17.2
	c1,3.5,4.2,6,7.9,6h19.1c3.8,0,6.9-2.5,7.9-6l5.3,0c0.6,0,1.2,0,1.8,0c17,0,33.1-6.4,45.4-18.1c12.8-12.2,20.2-28.6,20.7-46.2
	C220.9-342.7,197-367.9,166.9-368.7z M107.2-253.2H94.7c-2.1,0-3.8-1.7-3.8-3.8c0-2.1,1.7-3.8,3.8-3.8l12.5,0V-253.2z M111.6-253.2
	h-3.1v-7.5l3.1,0V-253.2z M142.1-250.4c0,1.8-1.5,3.2-3.2,3.2h-19.1c-1.8,0-3.2-1.5-3.2-3.2v-12.8c0-1.8,1.5-3.2,3.2-3.2h19.1
	c1.8,0,3.2,1.5,3.2,3.2V-250.4z M150.6-253.2h-3.5v-7.5l3.5,0V-253.2z M215-312.7c-0.4,16.3-7.2,31.5-19.1,42.8
	c-11.4,10.8-26.3,16.7-42,16.7c-0.5,0-1.1,0-1.7,0h-0.3v-7.5l0.5,0c14.4,0.4,28-4.8,38.4-14.7c10.4-9.9,16.4-23.2,16.8-37.5
	c0.6-23.3-17.8-42.7-41-43.3c-8.8-0.2-17.2,3-23.6,9c-6.4,6.1-10.1,14.3-10.3,23.1c-0.4,14.1,10.8,26,24.9,26.3
	c5.3,0.2,10.3-1.8,14.1-5.4c3.8-3.6,6-8.5,6.2-13.8c0.1-4-1.4-7.8-4.1-10.8c-2.8-2.9-6.5-4.6-10.5-4.7c-1,0-1.9-0.4-2.6-1.2
	c-0.7-0.7-1.1-1.7-1-2.7c0.1-2,1.8-3.7,3.9-3.6c6,0.2,11.6,2.7,15.8,7c4.1,4.4,6.3,10.1,6.2,16.1c-0.2,7.3-3.2,14.1-8.5,19.1
	c-5.3,5-12.2,7.7-19.5,7.5c-18.3-0.5-32.7-15.8-32.2-34.1c0.3-10.8,4.8-20.9,12.7-28.3c7.9-7.4,18.2-11.4,29-11.1
	C194.1-363,215.8-340.1,215-312.7z M135.5-259.1l-2.9-0.4c-0.4-0.1-0.7-0.3-0.9-0.6l-1.3-2.6c-0.4-0.9-1.6-0.9-2.1,0l-1.3,2.6
	c-0.2,0.3-0.5,0.6-0.9,0.6l-2.9,0.4c-0.9,0.1-1.3,1.3-0.6,2l2.1,2c0.3,0.3,0.4,0.6,0.3,1l-0.5,2.9c-0.2,0.9,0.8,1.7,1.7,1.2l2.6-1.4
	c0.3-0.2,0.7-0.2,1.1,0l2.6,1.4c0.8,0.4,1.8-0.3,1.7-1.2l-0.5-2.9c-0.1-0.4,0.1-0.8,0.3-1l2.1-2
	C136.8-257.8,136.4-258.9,135.5-259.1z"/>
<path class="st6" d="M-13.5,196.2h-18.3v-65.4c0-1.4-1.1-2.5-2.5-2.5h-33.4c1.5-1.5,2.7-3.3,3.6-5.6c2.2-5.6,1.3-12-2-15
	c-2.5-2.3-5.7-3.2-9-2.8c0.6-4.4,2.9-12.9,11-17.9C-64,87-64,87-64,87c0.8,0.2,1.8,0,2.5-0.4c1.3-0.7,1.5-2.1,0.8-3.2
	c-0.6-1.1-1.9-1.8-3.2-1.1c-1,0.6-1.7,1.8-1.7,2.8c-8.7,5.6-11.2,14.4-11.9,19.3c-3.1-1.7-6.6-1.6-9.9,0.3c-4.4,2.5-7,9.6-5.8,15.8
	c0.6,3.2,2.2,5.8,4.4,7.8h-34.2c-1.4,0-2.5,1.1-2.5,2.5v65.4h-20.8c-1.4,0-2.5,1.1-2.5,2.5s1.1,2.5,2.5,2.5h23.3h88.7h20.8
	c1.4,0,2.5-1.1,2.5-2.5S-12.1,196.2-13.5,196.2z M-85,109c1.9-1.1,3.7-1.1,5.4-0.1c0.2,0.1,0.4,0.2,0.6,0.3l2.9,0.8
	c0.4,0.1,0.8,0.1,1.2,0c2.1-0.4,3.9,0,5.4,1.4c1.6,1.4,2.2,5.6,0.7,9.5c-1,2.5-3.7,7-10.7,5.9c0,0-0.1,0-0.1,0c0,0-0.1,0-0.1,0
	c-0.1,0-0.2,0-0.1,0c-5.9-0.8-7.9-4.4-8.4-7.2C-89.2,115.1-87.3,110.3-85,109z M-49.3,196.2h-71.3v-10.5h71.3V196.2z M-49.3,184.4
	h-71.3v-11.8h71.3V184.4z M-49.3,168.8h-71.3V157h71.3V168.8z M-49.3,155.8h-71.3v-11.2h71.3V155.8z M-36.8,196.2h-8.7v-53.5
	c0-1-0.8-1.9-1.9-1.9h-73.1v-7.5h83.8V196.2z"/>
<path class="st6" d="M434.2,103.6h-3.6c2.2-3.8,2.3-8.3,0.2-13.2c-1.9-4.5-5.2-7.4-9.4-8.4c-5.8-1.4-13.1,0.9-19.8,6.4
	c-3.4,2.7-6.6,5.9-9.4,8.9c-0.7-2.1-2.6-3.6-4.9-3.6c-2.3,0-4.3,1.5-4.9,3.6c-2.8-3-6-6.2-9.4-8.9c-6.7-5.5-14-7.8-19.8-6.4
	c-4.2,1-7.5,3.9-9.4,8.4c-2.1,4.8-2,9.4,0.2,13.2h-3.6c-4.5,0-8.8,1.8-11.9,5c-3.2,3.2-4.9,7.5-4.9,12v20c0,1.4,1.1,2.5,2.5,2.5h2.9
	v42.6c0,8.7,7,15.7,15.6,15.7h85.5c4.2,0,8.1-1.6,11-4.6c2.9-3,4.6-6.9,4.6-11.1l0-42.6h2.9c1.4,0,2.5-1.1,2.5-2.5v-20
	C451.1,111.2,443.5,103.6,434.2,103.6z M348.4,92.4c1.3-3,3.3-4.9,6-5.6c4.3-1,10,1,15.5,5.4c4.2,3.4,8.2,7.6,11.5,11.4h-30.9
	C347.1,100.7,346.4,96.9,348.4,92.4z M384.4,196.4h-39.9c-4.4,0-8.1-2.7-9.8-6.5h49.6V196.4z M384.4,188.6h-50.1
	c-0.3-0.9-0.4-1.9-0.4-3V143h42.9c1.4,0,2.5-1.1,2.5-2.5s-1.1-2.5-2.5-2.5h-48.3v-17.5c0-3.2,1.2-6.2,3.5-8.5
	c2.2-2.3,5.2-3.5,8.4-3.5h8.2c0,0,0.1,0.1,0.1,0.1l0.1-0.1h35.6V188.6z M404.8,92.2c5.4-4.4,11.2-6.4,15.5-5.4
	c2.7,0.7,4.7,2.5,6,5.6c2,4.5,1.3,8.3-2,11.2h-30.9C396.5,99.8,400.5,95.6,404.8,92.2z M437.6,193.3c-2,2-4.7,3.1-7.5,3.1h-39.9
	v-6.5h49.6C439.3,191.1,438.6,192.3,437.6,193.3z M440.7,185.7c0,1-0.1,2-0.4,3h-50.1V143h50.5L440.7,185.7z M446.1,138h-55.8v-29.5
	h44c6.5,0,11.9,5.4,11.9,12V138z"/>
<path class="st6" d="M-291.1-354.1c0.2,0.4,0.7,0.7,1.1,0.7c0.2,0,0.4,0,0.6-0.1l14.7-7.4c0.6-0.3,0.9-1.1,0.6-1.7
	c-0.3-0.6-1.1-0.9-1.7-0.6l-14.7,7.4C-291.2-355.4-291.4-354.7-291.1-354.1z M-322.1-364.2c0.2,0.4,0.7,0.7,1.1,0.7
	c0.2,0,0.4,0,0.6-0.1c0.6-0.3,0.9-1.1,0.6-1.7l-7.4-14.7c-0.3-0.6-1.1-0.9-1.7-0.6c-0.6,0.3-0.9,1.1-0.6,1.7L-322.1-364.2z
	 M-309.3-366c0.7,0,1.2-0.5,1.2-1.2l0.9-16.5c0-0.7-0.5-1.3-1.2-1.3c-0.7,0-1.3,0.5-1.3,1.2l-0.9,16.5
	C-310.6-366.6-310-366-309.3-366C-309.3-366-309.3-366-309.3-366z M-298.6-362.5c0.2,0.1,0.4,0.2,0.7,0.2c0.4,0,0.8-0.2,1-0.6
	l9-13.8c0.4-0.6,0.2-1.4-0.4-1.7c-0.6-0.4-1.4-0.2-1.7,0.4l-9,13.8C-299.4-363.6-299.2-362.8-298.6-362.5z M-344.3-364.8l13.8,9
	c0.2,0.1,0.4,0.2,0.7,0.2c0.4,0,0.8-0.2,1-0.6c0.4-0.6,0.2-1.4-0.4-1.7l-13.8-9c-0.6-0.4-1.4-0.2-1.7,0.4
	C-345.1-366-344.9-365.2-344.3-364.8z M-320-340.6l-41.5-10.3c-1.2-0.3-2.4,0.3-2.9,1.5c-0.7,1.7-12,29.7-8.4,50.6
	c0.3,4.3,1.5,8.2,4.2,11.5c2.1,3.3,5,6.1,8.8,8.1l-5.8,23.1l-12.3-3.1l-1.2,4.9l29.4,7.3l1.2-4.9l-12.3-3.1l5.8-23.1
	c0.1,0,0.1,0,0.2,0c30.4,0,36.4-57.5,36.7-59.9C-318-339.2-318.8-340.3-320-340.6z M-354.8-283c-0.5,0-1,0-1.5-0.1
	c-11.5-5-13.2-18.9-11.7-32.5l40.4-0.1C-332-300.4-340.2-283-354.8-283z M-327-318.2l-40.8,0.1c1.7-11.8,5.5-23,7.2-27.5l37.2,9.3
	C-323.8-333-324.9-326-327-318.2z M-249.6-254.5l-12.3,3.1l-5.8-23.1c4-2.1,6.9-5,9-8.5c2.2-3,3.3-6.3,3.7-10
	c4.2-21.1-7.5-50.1-8.2-51.8c-0.5-1.1-1.7-1.8-2.9-1.5l-41.5,10.3c-1.2,0.3-2,1.4-1.9,2.7c0.2,2.4,6.3,59.9,36.7,59.9
	c0.1,0,0.1,0,0.2,0l5.8,23.1l-12.3,3.1l1.2,4.9l29.4-7.3L-249.6-254.5z M-304.2-331.6l37.2-9.3c1.6,4.4,5.5,15.6,7.2,27.5l-40.8-0.1
	C-302.7-321.3-303.7-328.3-304.2-331.6z M-272.7-278.3c-14.6,0-22.8-17.4-27.2-32.7l40.4,0.1c1.5,13.6-0.2,27.5-11.7,32.5
	C-271.7-278.4-272.2-278.3-272.7-278.3z"/>
<path class="st6" d="M183.1-36.4C183.1-36.4,183.1-36.4,183.1-36.4c7.9,0,15.4-3.4,22.2-10.2l1.3-1.3l-1.2-1.3
	c-0.3-0.3-7.4-8-16.9-8c-7.4,0-13.9,4.6-19.5,13.5c-1.7,1.1-3.2,2.3-4.6,3.5c0-0.2,0.1-0.4,0.1-0.6l0.1-0.1
	c0.1-0.1,12.6-7.7,6.4-24.4l-0.6-1.7l-1.7,0.6c-0.3,0.1-8,2.7-10.3,9.5c-1.5,4.5-0.3,9.7,3.6,15.3c0,0.4-0.1,0.8-0.2,1.2
	c-0.1,0.8-0.2,1.8-0.3,2.7c-2.6,2.7-4.6,5.4-6.1,7.7v-44.8c0.2,0,0.5,0,0.7,0c4.4,5.9,12.3,4.9,12.3,4.9c-0.9-2.7-2.2-4.6-3.5-6
	c6.9-1.5,11.7-4.6,14.2-9.1c5.4-9.8-2.2-22.4-2.9-23.6c-4.3-7.9,0.5-19.2,0.5-19.3l1.7-3.9l-4.3,0.5c-0.6,0.1-1.3,0.2-2.1,0.3
	c-0.5-0.8-1.7-3.1-1.2-6.2l0.4-2.8l-2.9,0c-0.4,0-5.3,0-10.7,1.9c-5.8-4.7-14.2-5.5-14.6-5.5l-2.3-0.2l-0.4,2.3
	c-0.6,3.6-1.4,6.4-2.1,8.2c-1.2-0.5-2.5-1-3.8-1.4l-4-1.3l0.7,4.1c0,0.1,1.4,7.9,1.2,13.1c-0.1,4.1-0.6,6.6-3,13.5l0.1,0
	c-0.2,0.4-0.4,0.7-0.5,1.1c-2.1,4.7-4.9,13.6-0.2,20.8c2.5,3.8,6.7,6.4,12.5,7.8c-1.3,1.4-2.5,3.3-3.4,5.9c0,0,7.8,1,12.2-4.8
	c0.1,0,0.1,0,0.2,0v29.7c-2.6-4-6.8-9.1-13.5-13.1c-5.5-9-12.1-13.6-19.5-13.6c-9.5,0-16.6,7.6-16.9,8l-1.2,1.3l1.3,1.3
	c6.9,6.8,14.3,10.2,22.2,10.2c6.4,0,11.2-2.3,13.1-3.4c1.4,0.9,2.7,1.8,3.8,2.8c-0.3,0.1-0.6,0.2-0.9,0.2l-0.6-0.1
	c-7.3-1.1-12.7,0.4-16,4.3c-4.4,5.1-3.4,12.5-3.3,12.8l0.3,1.8l1.8-0.2c16-1.8,18.5-13.8,18.8-16.3c0.7-0.2,1.5-0.4,2.1-0.5
	c6.2,6.1,8.3,12.4,8.3,12.5c0,0.1,0.1,0.2,0.2,0.3v17.9c0,1.4,1.1,2.5,2.5,2.5c1.4,0,2.5-1.1,2.5-2.5V-22c0.1-0.1,0.2-0.2,0.2-0.4
	c0-0.1,2.4-6,8.1-12c0.4,2.7,3.1,14.3,18.8,16.1l1.8,0.2l0.3-1.8c0-0.3,1.1-7.7-3.3-12.8c-3.1-3.6-8.1-5.1-14.8-4.4
	c1.1-1,2.2-1.9,3.5-2.8C172-38.7,176.8-36.4,183.1-36.4z M188.5-53.5c4,0,7.5,1.7,10.1,3.4c-8.3-0.8-15.9,0.4-22.8,3.4
	C179.7-51.2,183.9-53.5,188.5-53.5z M200.5-47.3c-5.5,4.7-11.3,7.1-17.4,7.1c-4.5,0-8-1.3-10-2.3C181-47,190.2-48.6,200.5-47.3z
	 M117.5-67.8c4.7,0,9.2,2.5,13.2,7.3c-6.9-2.8-14.8-4-23.7-3.6C109.6-65.9,113.3-67.8,117.5-67.8z M122.9-54.6c-6,0-11.8-2.3-17.2-7
	c10.3-0.7,19.3,0.8,26.8,4.6c0,0.1,0.1,0.2,0.1,0.2C130.5-55.7,127.1-54.6,122.9-54.6z M125.2-44.5c1.9-2.2,4.8-3.3,8.8-3.3
	c0.2,0,0.4,0,0.6,0c-4.3,1.8-8.7,4.6-12,10.4C122.8-39.5,123.3-42.4,125.2-44.5z M123.8-36.9c3.2-5.7,7.6-8.4,11.9-10
	C134.6-43.7,131.7-38.7,123.8-36.9z M165.8-134.8c0.1,2,0.7,3.7,1.3,5c-4.4,1.2-9.6,3-14.8,5.4c-0.4-0.4-1.2-1.1-2.2-2
	C153.6-132.5,161.7-134.3,165.8-134.8z M145-138.3c2,0.4,4.9,1.2,7.5,2.7c-2.5,1.5-4.8,3.6-6.4,6.4c-0.9-0.6-2-1.2-3.1-1.8
	C143.6-132.8,144.3-135.2,145-138.3z M147.6-121.9c-3.7,2.1-7.2,4.4-10.3,7.1c0.2-1.2,0.2-2.5,0.3-3.9c0.1-3.1-0.3-7-0.6-9.9
	C142.1-126.2,145.7-123.5,147.6-121.9z M152.7-79.6c-10.1,0-16.7-2.2-19.5-6.6c-3.5-5.3-0.7-13,0.6-16c5.6-12.7,26-20.8,37-23.3
	c-1.3,4.8-2.5,12.8,1.1,19.5l0.1,0.1c0.1,0.1,6.9,11.1,2.8,18.6C172-82.2,164.4-79.6,152.7-79.6z M163.1-47.1
	c-1.5-3.2-1.9-6-1.1-8.5c0.9-2.7,3.1-4.6,5-5.8C164.8-56.3,163.6-52,163.1-47.1z M168.3-61.3c2.3,8.9-1.8,14-4.2,16.1
	C164.6-51,165.8-55.6,168.3-61.3z M178.5-30.2c1.8,2.1,2.4,4.8,2.5,6.9c-3.3-6-7.6-8.6-11.7-10.2C173.4-33.5,176.5-32.5,178.5-30.2z
	 M180-22.5c-8-1.9-11-7-12-10.1C172.2-31.2,176.6-28.7,180-22.5z"/>
<path class="st6" d="M-80.5-297.9c0,1,0.8,1.9,1.9,1.9c1,0,1.9-0.8,1.9-1.9c0-1-0.8-1.9-1.9-1.9C-79.7-299.7-80.5-298.9-80.5-297.9z
	 M-81.4-331.5c1,0,1.9-0.8,1.9-1.9c0-1-0.8-1.9-1.9-1.9c-1,0-1.9,0.8-1.9,1.9C-83.2-332.4-82.4-331.5-81.4-331.5z M-27.8-260h-2.5
	l-46.3-98.1c4.5-1.4,7.7-5.6,7.7-10.5c0-6.1-4.9-11-11-11c-6.1,0-11,4.9-11,11c0,4.9,3.3,9.1,7.7,10.5l-46.3,98.1h-2.5
	c-4.9,0-8.9,4-8.9,8.9c0,4.9,4,8.9,8.9,8.9h104.3c4.9,0,8.9-4,8.9-8.9C-18.9-256-22.9-260-27.8-260z M-63.6-318.8l-2.1,2.1
	c-0.5,0.5-0.8,1.3-0.7,2l0.5,3l-2.7-1.4c-0.7-0.3-1.5-0.3-2.1,0l-2.7,1.5l0.5-3.1c0.1-0.7-0.1-1.5-0.7-2l-2.2-2.1l3-0.4
	c0.7-0.1,1.4-0.6,1.7-1.2l1.4-2.8l1.4,2.8c0.3,0.7,1,1.1,1.7,1.2L-63.6-318.8L-63.6-318.8z M-86-368.6c0-3.3,2.7-6,6-6
	c3.3,0,6,2.7,6,6c0,3.3-2.7,6-6,6C-83.3-362.6-86-365.3-86-368.6z M-107.2-295.6l2.4-0.4c0.7-0.1,1.4-0.6,1.7-1.2l1.5-3.1l1.5,3.1
	c0.3,0.7,1,1.1,1.7,1.2l3.4,0.5l-2.5,2.4c-0.5,0.5-0.8,1.3-0.6,2l0.6,3.4l-3-1.6c-0.6-0.3-1.4-0.3-2.1,0l-3.1,1.6l0.6-3.4
	c0.1-0.7-0.1-1.5-0.6-2l-1.9-1.8L-107.2-295.6z M-119.4-269.9c0.7,0.6,1.7,1,2.8,1c2.3,0,4.3-1.9,4.3-4.3c0-2.1-1.5-3.8-3.5-4.2
	l7.2-15.2l1.1,1.1l-0.6,3.8c-0.1,0.7,0.1,1.3,0.5,1.8c0.4,0.5,1.1,0.8,1.7,0.8c0.4,0,0.7-0.1,1-0.3l3.4-1.8l3.4,1.8
	c0.9,0.5,2.1,0.2,2.8-0.5c0.4-0.5,0.6-1.2,0.5-1.8l-0.6-3.8l2.8-2.7c0.6-0.6,0.8-1.5,0.6-2.3c-0.3-0.8-1-1.4-1.8-1.5l-3.8-0.6
	l-1.7-3.4c-0.4-0.8-1.1-1.2-2-1.2c-0.9,0-1.6,0.5-2,1.2l-1.7,3.4l-0.7,0.1l26-55.1l2.8,6c-0.5,0.4-0.8,1-0.8,1.7
	c0,1.2,1,2.2,2.2,2.2c0.1,0,0.3,0,0.4,0l10.4,22l-1.2-0.2l-1.5-3c-0.4-0.8-1.2-1.3-2-1.3c-0.9,0-1.7,0.5-2,1.3l-1.5,3l-3.4,0.5
	c-0.9,0.1-1.6,0.7-1.8,1.6c-0.3,0.8,0,1.7,0.6,2.3l2.4,2.4l-0.6,3.3c-0.1,0.7,0.1,1.3,0.5,1.9c0.4,0.5,1.1,0.8,1.7,0.8h0
	c0.4,0,0.7-0.1,1.1-0.3l3-1.6l3,1.6c0.3,0.2,0.7,0.3,1.1,0.3c0.7,0,1.3-0.3,1.7-0.8c0.4-0.5,0.6-1.2,0.5-1.9l-0.6-3.3l1.4-1.4
	l18.4,39c0,0,0,0,0,0c-2,0-3.6,1.6-3.6,3.6c0,2,1.6,3.6,3.6,3.6c1.1,0,2.1-0.5,2.8-1.4l5.4,11.5H-124L-119.4-269.9z M-27.8-247.2
	h-104.3c-2.1,0-3.9-1.7-3.9-3.9c0-2.1,1.7-3.9,3.9-3.9h104.3c2.1,0,3.9,1.7,3.9,3.9C-23.9-249-25.7-247.2-27.8-247.2z M-58.8-285.5
	l-6-0.8l-2.7-5.5c-0.4-0.8-1.2-1.3-2.2-1.3c-0.9,0-1.8,0.5-2.2,1.3l-2.7,5.5l-6.1,0.9c-0.9,0.1-1.7,0.8-1.9,1.6
	c-0.3,0.9-0.1,1.8,0.6,2.5l4.4,4.2l-1,6.1c-0.1,0.7,0.1,1.4,0.5,2c0.5,0.5,1.1,0.9,1.8,0.9c0.4,0,0.8-0.1,1.1-0.3l5.4-2.9l5.5,2.9
	c0.3,0.2,0.7,0.3,1.1,0.3c0.7,0,1.4-0.3,1.8-0.9c0.5-0.5,0.6-1.3,0.5-2l-1.1-6l4.4-4.3c0.7-0.6,0.9-1.6,0.6-2.5
	C-57.2-284.7-57.9-285.4-58.8-285.5z M-63.7-278.9c-0.6,0.6-0.8,1.4-0.7,2.1l1.1,5.9l-5.3-2.8c-0.3-0.2-0.7-0.3-1.1-0.3
	c-0.4,0-0.8,0.1-1.1,0.3l-5.3,2.8l1-5.9c0.1-0.8-0.1-1.6-0.7-2.1l-4.3-4.2l5.9-0.9c0.8-0.1,1.5-0.6,1.8-1.3l2.7-5.4l2.7,5.4
	c0.4,0.7,1,1.2,1.8,1.3l5.9,0.9L-63.7-278.9z M-91-313.5c-1.6,0-2.9,1.3-2.9,2.9c0,1.6,1.3,2.9,2.9,2.9c1.6,0,2.9-1.3,2.9-2.9
	C-88.1-312.2-89.4-313.5-91-313.5z M-93.5-271.7c-1.4,0-2.5,1.1-2.5,2.5c0,1.4,1.1,2.5,2.5,2.5c1.4,0,2.5-1.1,2.5-2.5
	C-91-270.6-92.1-271.7-93.5-271.7z"/>
<path class="st6" d="M383.5-326.2l1.3-0.2l0.9,1c0,0,0.1,0.1,0.2,0.1c0,0,0,0,0.1,0c0.1,0,0.1-0.1,0.2-0.2l0.2-1.3l1.2-0.6
	c0.1,0,0.1-0.1,0.1-0.2c0-0.1,0-0.2-0.1-0.2l-1.2-0.6l-0.2-1.3c0-0.1-0.1-0.2-0.2-0.2c-0.1,0-0.2,0-0.2,0.1l-1,1l-1.3-0.2
	c-0.1,0-0.2,0-0.2,0.1c-0.1,0.1-0.1,0.2,0,0.2l0.6,1.2l-0.6,1.2c0,0.1,0,0.2,0,0.2C383.3-326.2,383.4-326.2,383.5-326.2z
	 M384.3-327.6c0-0.1,0-0.1,0-0.2l-0.5-0.9l1,0.2c0.1,0,0.1,0,0.2-0.1l0.7-0.7l0.1,1c0,0.1,0.1,0.1,0.1,0.2l0.9,0.5l-0.9,0.4
	c-0.1,0-0.1,0.1-0.1,0.2l-0.2,1l-0.7-0.7c0,0-0.1-0.1-0.2-0.1c0,0,0,0,0,0l-1,0.2L384.3-327.6z M384.3-324.6c-0.1,0-0.2,0-0.3,0.1
	l-3.2,7.7c0,0.1,0,0.2,0.1,0.3c0,0,0.1,0,0.1,0c0.1,0,0.2-0.1,0.2-0.1l3.2-7.7C384.5-324.4,384.4-324.5,384.3-324.6z M390.4-326.7
	l-0.8,0.6c-0.1,0.1-0.1,0.3,0.1,0.3l0.9,0.3c0.1,0,0.1,0.1,0.1,0.1l0.3,0.9c0.1,0.1,0.3,0.2,0.3,0l0.5-0.8c0-0.1,0.1-0.1,0.2-0.1
	l1,0c0.2,0,0.2-0.2,0.1-0.3l-0.6-0.8c0,0-0.1-0.1,0-0.2l0.3-0.9c0-0.2-0.1-0.3-0.3-0.2l-0.9,0.4c-0.1,0-0.1,0-0.2,0l-0.8-0.6
	c-0.1-0.1-0.3,0-0.3,0.2l0.1,1C390.5-326.8,390.4-326.7,390.4-326.7z M389.5-330c0.2-0.3,0.2-0.7-0.1-0.9c-0.3-0.2-0.7-0.2-0.9,0.1
	c-0.2,0.3-0.2,0.7,0.1,0.9C388.8-329.7,389.2-329.7,389.5-330z M382.1-315.4c0.1,0,0.1,0,0.2-0.1l7.7-8.6c0.1-0.1,0.1-0.2,0-0.3
	c-0.1-0.1-0.2-0.1-0.3,0l-7.7,8.6c-0.1,0.1-0.1,0.2,0,0.3C382-315.4,382.1-315.4,382.1-315.4z M381-326.2c0.3-0.3,0.3-0.8-0.1-1.1
	c-0.3-0.3-0.8-0.3-1.1,0.1c-0.3,0.3-0.3,0.8,0.1,1.1C380.2-325.8,380.7-325.8,381-326.2z M393.3-317.8
	C393.3-317.8,393.3-317.8,393.3-317.8c0.1,0,0.2-0.1,0.2-0.2c0,0,0-0.1,0-0.1l-0.3-0.9l0.6-0.8c0.1-0.1,0.1-0.2,0-0.2
	c0-0.1-0.1-0.1-0.2-0.1l-1,0l-0.6-0.8c-0.1-0.1-0.1-0.1-0.2-0.1c-0.1,0-0.2,0.1-0.2,0.2l-0.3,1l-1,0.3c-0.1,0-0.1,0.1-0.2,0.2
	c0,0.1,0,0.2,0.1,0.2l0.8,0.6l0,1c0,0.1,0,0.2,0.1,0.2c0,0,0.1,0,0.1,0c0,0,0.1,0,0.1,0l0.8-0.6L393.3-317.8
	C393.2-317.8,393.3-317.8,393.3-317.8z M392.7-319.1l0.2,0.6l-0.6-0.2c-0.1,0-0.1,0-0.2,0l-0.5,0.4l0-0.7c0-0.1,0-0.1-0.1-0.2
	l-0.6-0.4l0.6-0.2c0.1,0,0.1-0.1,0.1-0.2l0.2-0.7l0.4,0.6c0,0.1,0.1,0.1,0.2,0.1l0.7,0l-0.4,0.6
	C392.7-319.2,392.7-319.1,392.7-319.1z M393-316c-0.3,0.3-0.3,0.8,0.1,1.1c0.3,0.3,0.8,0.3,1.1-0.1c0.3-0.3,0.3-0.8-0.1-1.1
	C393.8-316.3,393.3-316.3,393-316z M395.6-322.7c-0.3-0.2-0.6-0.2-0.8,0.1c-0.2,0.2-0.2,0.6,0.1,0.8c0.3,0.2,0.6,0.2,0.8-0.1
	C395.9-322.1,395.9-322.4,395.6-322.7z M389.7-318.5l-6.5,3.7c-0.1,0.1-0.1,0.2-0.1,0.3c0,0.1,0.1,0.1,0.2,0.1c0,0,0.1,0,0.1,0
	l6.5-3.7c0.1-0.1,0.1-0.2,0.1-0.3C390-318.5,389.9-318.5,389.7-318.5z M377.7-318.1c-0.1-0.1-0.3-0.1-0.4-0.1
	c-0.1,0-0.3,0.1-0.3,0.3l-5.1,13.4c-0.1,0.2,0,0.4,0.1,0.5c0.1,0.1,0.2,0.1,0.3,0.1c0.1,0,0.1,0,0.2-0.1l12.6-6.9
	c0.1-0.1,0.2-0.2,0.2-0.3c0-0.1,0-0.3-0.2-0.4L377.7-318.1z M377.6-317l2.1,1.8l-2.7-0.2L377.6-317z M376.8-315l3.4,0.2l2.8,2.5
	l-7.1-0.5L376.8-315z M373.1-305.3l0.5-1.2l1.7,0.1L373.1-305.3z M376.1-306.9l-2.3-0.1l0.9-2.3l5.2,0.3L376.1-306.9z M380.6-309.4
	l-5.8-0.4l1-2.5l7.8,0.6l0.5,0.4L380.6-309.4z M377.9-321.6c0,0,0,0.1,0,0.1l-0.2,0.4c-0.1,0.1,0.1,0.3,0.2,0.2l0.4-0.1
	c0.1,0,0.1,0,0.1,0l0.3,0.3c0.1,0.1,0.3,0,0.3-0.1l0-0.4c0-0.1,0-0.1,0.1-0.1l0.4-0.2c0.1-0.1,0.1-0.2,0-0.3l-0.4-0.2
	c0,0-0.1-0.1-0.1-0.1l-0.1-0.4c0-0.1-0.2-0.2-0.3-0.1l-0.3,0.3c0,0-0.1,0.1-0.1,0.1l-0.4,0c-0.1,0-0.2,0.1-0.2,0.2L377.9-321.6z
	 M388.9-313.6l-0.4,0c-0.1,0-0.1,0-0.1-0.1l-0.2-0.4c-0.1-0.1-0.2-0.1-0.3,0l-0.2,0.4c0,0-0.1,0.1-0.1,0.1l-0.4,0.1
	c-0.1,0-0.2,0.2-0.1,0.3l0.3,0.3c0,0,0.1,0.1,0.1,0.1l0,0.4c0,0.1,0.1,0.2,0.2,0.1l0.4-0.2c0,0,0.1,0,0.1,0l0.4,0.2
	c0.1,0.1,0.2-0.1,0.2-0.2l-0.1-0.4c0,0,0-0.1,0-0.1l0.3-0.3C389.1-313.5,389-313.6,388.9-313.6z"/>
<path class="st6" d="M-26.5-92.3l-14.3-43.1c-0.3-0.8-1-1.5-1.9-1.7c-0.9-0.2-1.8,0.1-2.4,0.8l-30.2,33.9c-0.6,0.7-0.8,1.6-0.5,2.4
	c0.3,0.8,1,1.5,1.9,1.7l4.5,0.9L-78.5-53c-0.1,0.6,0,1.3,0.4,1.9c0.4,0.6,0.9,0.9,1.6,1.1l8.3,1.7l-6,29.2c-0.3,1.4,0.6,2.7,1.9,3
	c0.2,0,0.3,0.1,0.5,0.1c1.2,0,2.2-0.8,2.4-2l6-29.2l16.9,3.5c0.2,0,0.3,0.1,0.5,0.1c1.2,0,2.2-0.8,2.4-2l9.1-44.3l5,1
	c0.2,0,0.3,0.1,0.5,0.1c0.7,0,1.4-0.3,1.9-0.8C-26.4-90.5-26.2-91.5-26.5-92.3z M-47.9-49.3l-9.6-2l11.2-5.5L-47.9-49.3z
	 M-45.7-59.8L-61.5-52l-11.5-2.4l0.5-2.3l29.1-14L-45.7-59.8z M-42.8-73.8l-29.1,14l2.3-11.1l29.1-14L-42.8-73.8z M-39.9-88L-69-74
	l2.3-11.1l17.1-8.2l10.4,2.1L-39.9-88z M-66.1-88.2l1.7-8.2l10.7,2.2L-66.1-88.2z M-35.3-95.4c-0.2-0.1-0.3-0.1-0.5-0.2l-30-6.2
	c-0.1,0-0.2,0-0.2,0l-2.4-0.5l24.4-27.4l11.5,34.8L-35.3-95.4z M-90.6-103.8l4.5-0.9c0.9-0.2,1.6-0.8,1.9-1.7
	c0.3-0.8,0.1-1.8-0.5-2.4l-30.2-33.9c-0.6-0.7-1.5-1-2.4-0.8c-0.9,0.2-1.6,0.8-1.9,1.7l-14.3,43.1c-0.3,0.8-0.1,1.8,0.5,2.4
	c0.5,0.5,1.2,0.8,1.9,0.8c0.2,0,0.3,0,0.5-0.1l5-1l9.1,44.3c0.2,1.2,1.3,2,2.4,2c0.2,0,0.3,0,0.5-0.1l16.9-3.5l6,29.2
	c0.2,1.2,1.3,2,2.4,2c0.2,0,0.3,0,0.5-0.1c1.4-0.3,2.2-1.6,1.9-3l-6-29.2l8.3-1.7c0.7-0.1,1.2-0.5,1.6-1.1c0.4-0.6,0.5-1.2,0.4-1.9
	L-90.6-103.8z M-124.6-101.9l-2.7,0.6l11.5-34.8l24.4,27.4l-2.4,0.5c-0.1,0-0.2,0-0.2,0l-30,6.2C-124.3-102-124.5-102-124.6-101.9z
	 M-93.8-94.7l-12.4-5.9l10.7-2.2L-93.8-94.7z M-120.7-97.6l10.4-2.1l17.1,8.2l2.3,11.1l-29.1-14L-120.7-97.6z M-119.4-91.4l29.1,14
	l2.3,11.1l-29.1-14L-119.4-91.4z M-112-55.7l-1.5-7.5l11.2,5.5L-112-55.7z M-98.4-58.5l-15.8-7.8l-2.2-10.9l29.1,14l0.5,2.3
	L-98.4-58.5z"/>
<path class="st6" d="M364.5-29.5c-1.2-5.3-4.1-7.9-6.3-9.1c-4.4-2.4-9.1-1.2-10.6-0.7l-10.1,2.3c-0.1,0-0.2,0-0.3,0.1
	c-0.1,0-7.2,1.9-9.8-2.6c-0.9-1.6-1.2-3-0.9-4.3c0.6-2.2,2.8-3.6,3.7-4.1c0.2-0.1,0.2-0.1,10.3-6.9c0.1-0.1,0.2-0.1,0.3-0.2l2.7,3.7
	c0.5,0.7,1.3,1,2,1c0.5,0,0.9-0.1,1.4-0.4l10.6-6.9c0.5,0.4,1.1,0.7,1.7,0.7c0.5,0,0.9-0.1,1.4-0.4l56.9-37.1
	c5.4,0,10.9-1.9,15.6-5.2c11-7.8,14.7-21.7,8.2-30.8c-6.5-9.2-20.8-10.3-31.8-2.4c-4.8,3.4-8.4,8.1-10.2,13.3l-53.1,42.3
	c-0.8,0.7-1.1,1.8-0.8,2.7l-10,8c-1,0.8-1.2,2.3-0.5,3.4l3,4.1c-0.1,0-0.1,0.1-0.2,0.1c-3.8,2.6-9.6,6.5-9.9,6.6
	c-1.8,1-5.1,3.4-6.1,7.2c-0.7,2.6-0.2,5.4,1.4,8.1c3.7,6.2,11.7,5.9,15.5,4.9l10.2-2.3c0.1,0,0.2,0,0.3-0.1c0.6-0.2,3.9-1.2,6.8,0.3
	c1.3,0.7,3.1,2.3,3.8,5.8l2.3,10.4c0.3,1.2,1.3,2,2.4,2c0.2,0,0.4,0,0.5-0.1c1.3-0.3,2.2-1.6,1.9-3L364.5-29.5z M437.1-127.6
	c4.8,6.7,2,16.9-6.2,23.2L413-129.4C421.6-135.1,432.3-134.4,437.1-127.6z M410.9-127.9l17.9,24.9c-3.5,2.2-7.3,3.4-11.1,3.5
	l-13.7-19C405.4-122.1,407.8-125.3,410.9-127.9z M400.8-114.5l12.2,17l-7.9,5.1l-11.7-16.2L400.8-114.5z M391.4-107.1l11.6,16
	l-43.2,28.2l-8.7-12.1L391.4-107.1z M348.1-70.5l6.3,8.8l-8.4,5.4l-5.7-8L348.1-70.5z M448.2-66.8v-8.2c0-0.2,0-0.3-0.1-0.4
	c0-0.5-0.3-1-0.6-1.3c-0.4-0.4-1-0.5-1.5-0.4l-28.5,4.7c-0.8,0.1-1.4,0.8-1.5,1.5c-0.1,0.2-0.1,0.4-0.1,0.6v24.1
	c-1.1-0.6-2.4-0.9-3.9-0.9c-1.1,0-2.3,0.2-3.4,0.6c-2.1,0.8-3.8,2.2-4.9,3.9c-1.1,1.9-1.4,4-0.7,5.9c1,2.8,3.8,4.6,7.2,4.6
	c1.1,0,2.3-0.2,3.4-0.6c3.7-1.3,6-4.6,5.9-7.8c0,0,0-0.1,0-0.1v-17.8l24.9-4.3V-51c-1.1-0.6-2.4-0.9-3.9-0.9c-1.1,0-2.3,0.2-3.4,0.6
	c-4.4,1.6-6.9,6-5.5,9.9c1,2.8,3.8,4.6,7.2,4.6c1.1,0,2.3-0.2,3.4-0.6c3.7-1.3,6-4.6,5.9-7.8c0,0,0-0.1,0-0.1V-65c0,0,0-0.1,0-0.1
	L448.2-66.8z M412.4-36.3c-0.7,0.3-1.4,0.4-2.1,0.4c-1.8,0-3.2-0.8-3.7-2.1c-0.3-0.8-0.2-1.8,0.4-2.7c0.6-1,1.7-1.9,2.9-2.3
	c0.7-0.3,1.4-0.4,2.1-0.4c1.8,0,3.2,0.8,3.7,2.1C416.3-39.5,414.8-37.2,412.4-36.3z M441-41c-0.7,0.3-1.4,0.4-2.1,0.4
	c-1.8,0-3.2-0.8-3.7-2.1c-0.7-1.8,0.8-4.1,3.3-5c0.7-0.3,1.4-0.4,2.1-0.4c1.8,0,3.2,0.8,3.7,2.1C445-44.2,443.5-41.9,441-41z
	 M444.5-66.6l-24.8,4.3l0-6.8l24.8-4.1l0,6.3V-66.6z M390.3-55.8c-0.1-0.3-0.4-0.6-0.7-0.7c-0.3-0.1-0.7-0.1-1,0.1l-11.7,6.5
	c-0.5,0.3-0.7,0.7-0.6,1.2c0,0.2,0,0.4,0.1,0.5l6.2,17.1c-0.3,0-0.6-0.1-0.9-0.1c-1.5,0-3.1,0.6-4.3,1.7c-2.6,2.2-3.2,5.9-1.3,8.1
	c0.9,1.1,2.3,1.7,3.9,1.7c1.5,0,3.1-0.6,4.3-1.7c2.2-1.8,3-4.7,2.1-6.9c0,0,0,0,0-0.1l-4.6-12.6l10.8-6.2c0.5-0.3,0.8-0.9,0.5-1.5
	L390.3-55.8z M382.6-23.2c-1.5,1.3-3.7,1.4-4.7,0.2c-1-1.2-0.5-3.3,1-4.6c0.8-0.7,1.8-1.1,2.7-1.1c0.8,0,1.5,0.3,2,0.8
	C384.6-26.6,384.1-24.5,382.6-23.2z M380.9-43.3l-1.8-5l9.5-5.3l1.8,4.8L380.9-43.3z"/>
<path class="st6" d="M-265.9-77.2c0-20.1-11.7-36.5-26-36.5c-14.3,0-26,16.4-26,36.5c0,6.1,1.1,11.8,2.9,16.8
	c-3.4,1.7-7,2.6-10.7,2.6c-17.1,0-31-19.3-31-42.9c0-23.7,13.9-42.9,31-42.9c11.9,0,22.9,9.6,28,24.5c0.5,1.3,1.9,2,3.2,1.5
	c1.3-0.5,2-1.9,1.5-3.2c-5.9-16.9-18.7-27.9-32.7-27.9c-19.9,0-36,21.5-36,47.9c0,25.4,14.9,46.2,33.7,47.8l-7.2,7.7
	c-0.5,0.5-0.6,1.3-0.3,2c0.3,0.7,1,1.1,1.7,1.1h6.9v23.4c0,0.7,0.6,1.3,1.3,1.3s1.3-0.6,1.3-1.3V-42h6.8c0.7,0,1.4-0.4,1.7-1.1
	c0.3-0.7,0.2-1.5-0.3-2l-7.2-7.7c3.6-0.3,7-1.3,10.4-3c4.2,8.2,10.8,13.8,18.3,14.9l-6.7,7.3c-0.5,0.5-0.6,1.3-0.3,2
	c0.3,0.7,1,1.1,1.7,1.1h6.9v11.9c0,0.7,0.6,1.3,1.3,1.3c0.7,0,1.3-0.6,1.3-1.3v-11.9h6.8c0.7,0,1.4-0.4,1.7-1.1
	c0.3-0.7,0.2-1.5-0.3-2l-6.7-7.3C-276.1-42.8-265.9-58.3-265.9-77.2z M-321.8-45.7h-7.7l3.8-4.1L-321.8-45.7z M-288.1-34.2h-7.7
	l3.8-4.1L-288.1-34.2z M-291.9-45.7c-7.3,0-13.8-5.7-17.5-14.2c-0.1-0.2-0.1-0.4-0.3-0.7c0,0,0,0,0,0c-2-4.8-3.2-10.5-3.2-16.6
	c0-17.4,9.4-31.5,21-31.5c11.6,0,21,14.1,21,31.5C-270.9-59.8-280.3-45.7-291.9-45.7z"/>
<path class="st6" d="M201.8,295.1c-0.8-0.6-2-0.5-2.6,0.3l-5,6.4c-2.2-1.3-4.8-1.9-7.6-1.7c-3.4,0.3-6.4,1.9-8.6,4.5
	c-2.2,2.6-3.2,5.9-2.9,9.3c0.3,3,1.6,5.7,3.6,7.8l-4.7,6.1h-68.6c-1,0-1.9,0.6-2.3,1.6c-0.4,1-0.1,2,0.6,2.7l42.8,40.5V426h-20.2
	c-1.4,0-2.5,1.1-2.5,2.5c0,1.4,1.1,2.5,2.5,2.5h45.5c1.4,0,2.5-1.1,2.5-2.5c0-1.4-1.1-2.5-2.5-2.5h-20.2v-53.3l42.8-40.5
	c0.7-0.7,1-1.8,0.6-2.7c-0.4-1-1.3-1.6-2.3-1.6h-13.8l3-3.9c1.8,1,3.9,1.5,6,1.5c0.4,0,0.8,0,1.2-0.1c7-0.7,12.1-6.9,11.5-13.8
	c-0.3-2.9-1.5-5.5-3.3-7.4l5-6.5C202.8,296.9,202.6,295.7,201.8,295.1z M111.6,332.9h58.4l-7,9h-42L111.6,332.9z M148.9,368.2
	l-25.2-23.8h37.4l-13.9,17.9c-0.6,0.8-0.5,2,0.3,2.6c0.3,0.3,0.7,0.4,1.1,0.4c0.6,0,1.1-0.2,1.5-0.7l15.7-20.2h8.2L148.9,368.2z
	 M186.2,332.9l-9.5,9h-8.9l7-9H186.2z M188.5,320.5c-4.3,0.4-8-2.7-8.4-7c-0.2-2,0.4-4.1,1.7-5.6c1.3-1.6,3.2-2.6,5.2-2.8
	c0.2,0,0.5,0,0.7,0c4,0,7.3,3,7.7,7C195.8,316.3,192.7,320.1,188.5,320.5z"/>
<path class="st6" d="M-111.7,380.9c0.2,0,0.4,0,0.6-0.1c6.8-1.6,12-5.4,15.4-11.5c11.8-20.8-0.8-61-1.4-62.7c-0.3-1-1.3-1.7-2.4-1.7
	c0,0,0,0,0,0l-15.6,0.1l-15.7-0.1c0,0,0,0,0,0c-1.1,0-2,0.7-2.4,1.7c-0.5,1.7-13.2,41.9-1.4,62.7c3.5,6.1,8.6,9.9,15.4,11.5
	c0.2,0,0.4,0.1,0.6,0.1h0.9v45h-17.7c-1.4,0-2.5,1.1-2.5,2.5c0,1.4,1.1,2.5,2.5,2.5h40.5c1.4,0,2.5-1.1,2.5-2.5
	c0-1.4-1.1-2.5-2.5-2.5h-17.7v-45H-111.7z M-129,310l13.8,0.1l13.8-0.1c1.2,4,3.9,14.4,5.1,25.8h-37.8
	C-132.9,324.4-130.1,314-129,310z M-118.3,375.9c-5.3-1.3-9.2-4.2-11.9-9c-4.3-7.5-4.9-18.3-4.1-28.6H-96
	c0.8,10.3,0.2,21.1-4.1,28.6c-2.7,4.8-6.6,7.7-11.9,9H-118.3z M-25.4,394.8c11.8-17-0.6-50.7-1.1-52.1c-0.4-1-1.3-1.6-2.3-1.6
	c0,0,0,0,0,0l-12.8,0.1l-24-0.1c0,0,0,0,0,0c-1,0-1.9,0.6-2.3,1.6c-0.6,1.4-13.4,34.6-1.7,51.8c4.2,6.1,10.8,9.4,19.8,9.8V426h-16.2
	c-1.4,0-2.5,1.1-2.5,2.5c0,1.4,1.1,2.5,2.5,2.5h37.3c1.4,0,2.5-1.1,2.5-2.5c0-1.4-1.1-2.5-2.5-2.5H-45v-21.6
	C-36.1,404-29.6,400.9-25.4,394.8z M-64,346.1l22.3,0.1l11.1-0.1c1.4,4.1,4.8,15.5,5.3,26.6l-44.3,0
	C-69.1,361.5-65.4,350.2-64,346.1z M-46.3,399.4H-48c-8.4,0-14.1-2.5-17.7-7.7c-3-4.4-4.1-10.4-4-16.5l44.4,0
	c0,6.3-1.1,12.3-4.2,16.8C-32.9,397-38.4,399.4-46.3,399.4z"/>
<path class="st6" d="M343.9,358.8c-2.5,0-4.5,2-4.5,4.5c0,2.5,2,4.5,4.5,4.5c2.5,0,4.5-2,4.5-4.5
	C348.4,360.8,346.4,358.8,343.9,358.8z M343.9,366.6c-1.8,0-3.3-1.5-3.3-3.3c0-1.8,1.5-3.3,3.3-3.3s3.3,1.5,3.3,3.3
	C347.2,365.2,345.7,366.6,343.9,366.6z M353.9,372.9c-2.4,0-4.3,1.9-4.3,4.3c0,2.4,1.9,4.3,4.3,4.3c2.4,0,4.3-1.9,4.3-4.3
	C358.1,374.8,356.2,372.9,353.9,372.9z M353.9,380.2c-1.7,0-3-1.4-3-3c0-1.7,1.4-3,3-3c1.7,0,3,1.4,3,3
	C356.9,378.8,355.5,380.2,353.9,380.2z M411.4,368.4c-2.3,0-4.2,1.9-4.2,4.2c0,2.3,1.9,4.2,4.2,4.2c2.3,0,4.2-1.9,4.2-4.2
	C415.6,370.3,413.7,368.4,411.4,368.4z M411.4,375.6c-1.6,0-3-1.3-3-3c0-1.6,1.3-3,3-3s3,1.3,3,3
	C414.4,374.3,413.1,375.6,411.4,375.6z M432.8,365.7c0-2.7-2.2-5-5-5c-2.7,0-5,2.2-5,5c0,2.7,2.2,5,5,5
	C430.5,370.7,432.8,368.5,432.8,365.7z M427.8,369.4c-2,0-3.7-1.7-3.7-3.7c0-2,1.7-3.7,3.7-3.7s3.7,1.7,3.7,3.7
	C431.5,367.8,429.9,369.4,427.8,369.4z M436.4,426h-13.1v-24.8c30.7-7.2,22.4-66.6,22-69.1c-0.2-1.2-1.2-2.1-2.5-2.1h-44.1
	c-1.2,0-2.3,0.9-2.5,2.1c-0.4,2.6-8.7,61.9,22,69.1V426h-13.1c-1.4,0-2.5,1.1-2.5,2.5c0,1.4,1.1,2.5,2.5,2.5h31.2
	c1.4,0,2.5-1.1,2.5-2.5C438.9,427.1,437.7,426,436.4,426z M400.9,335h39.7c0.4,3.4,1,10.4,0.9,18.5H400
	C399.9,345.4,400.5,338.3,400.9,335z M400,356h41.4c-0.5,17.1-4.5,38-20.7,40.7C404.6,394,400.5,373.1,400,356z M367.2,355.8
	c0-3-2.4-5.4-5.4-5.4c-3,0-5.4,2.4-5.4,5.4c0,3,2.4,5.4,5.4,5.4C364.7,361.2,367.2,358.8,367.2,355.8z M361.8,359.9
	c-2.3,0-4.1-1.8-4.1-4.1c0-2.3,1.8-4.1,4.1-4.1c2.3,0,4.1,1.8,4.1,4.1C365.9,358.1,364.1,359.9,361.8,359.9z M420.6,381.3
	c-2.2,0-4,1.8-4,4c0,2.2,1.8,4,4,4c2.2,0,4-1.8,4-4C424.5,383.1,422.7,381.3,420.6,381.3z M420.6,388c-1.5,0-2.7-1.2-2.7-2.7
	c0-1.5,1.2-2.7,2.7-2.7c1.5,0,2.7,1.2,2.7,2.7C423.3,386.7,422,388,420.6,388z M382.2,314.5c-0.2-1.2-1.2-2.1-2.5-2.1h-52.1
	c-1.2,0-2.3,0.9-2.5,2.1c-0.4,3-10.3,73.2,26,81.3v30.1h-16c-1.4,0-2.5,1.1-2.5,2.5c0,1.4,1.1,2.5,2.5,2.5h36.9
	c1.4,0,2.5-1.1,2.5-2.5c0-1.4-1.1-2.5-2.5-2.5h-16v-30.1C392.5,387.7,382.6,317.6,382.2,314.5z M329.8,317.4h47.7
	c0.5,4.1,1.4,13.7,1.1,24.6h-49.9C328.4,331.1,329.3,321.5,329.8,317.4z M353.7,391.2L353.7,391.2c-18.9-3.1-24-26.6-24.9-46.6h49.7
	C377.7,364.6,372.6,388.1,353.7,391.2z"/>
<path class="st6" d="M212.9,146.2h-25.4v-4.5c3.5-0.9,12.3-4.2,15.6-13.1c4-10.6-1.2-25-15.5-42.9c-0.9-1.2-3-1.2-3.9,0
	c-14.3,17.9-19.5,32.3-15.5,42.9c3.4,8.9,12.1,12.2,15.6,13.1v4.5h-25.4c-1.4,0-2.5,1.1-2.5,2.5v49c0,1.4,1.1,2.5,2.5,2.5h54.5
	c1.4,0,2.5-1.1,2.5-2.5v-49C215.4,147.4,214.3,146.2,212.9,146.2z M172.9,126.9c-3.1-8.3,1.3-20.5,12.8-35.5
	c11.5,15,15.9,27.2,12.8,35.5c-2.2,5.9-7.8,8.6-11,9.7V129c0-1-0.8-1.9-1.9-1.9c-1,0-1.9,0.8-1.9,1.9v7.5
	C180.7,135.4,175.1,132.7,172.9,126.9z M161,151.2h12.7L161,163.9V151.2z M161,167.5l16.1-16.1c0,0,0-0.1,0.1-0.1h18.6L161,186
	V167.5z M210.4,195.3h-11l11-11V195.3z M210.4,180.7l-14.6,14.6h-18.5l33.1-33.1V180.7z M210.4,158.6l-36.7,36.7H161v-5.7l38.2-38.2
	c0,0,0-0.1,0.1-0.1h11.2V158.6z M147.6,136.7h-25.4v-5.9c3.5-0.9,12.3-4.2,15.6-13.1c4-10.6-1.2-25-15.5-42.9c-0.9-1.2-3-1.2-3.9,0
	c-14.3,17.9-19.5,32.3-15.5,42.9c3.4,8.9,12.1,12.2,15.6,13.1v5.9H93.1c-1.4,0-2.5,1.1-2.5,2.5v58.6c0,1.4,1.1,2.5,2.5,2.5h54.5
	c1.4,0,2.5-1.1,2.5-2.5v-58.6C150.1,137.8,149,136.7,147.6,136.7z M107.5,115.9c-3.1-8.3,1.4-20.5,12.8-35.5
	c11.5,15,15.9,27.2,12.8,35.5c-2.2,5.9-7.8,8.6-11,9.7v-10.2c0-1-0.8-1.9-1.9-1.9c-1,0-1.9,0.8-1.9,1.9v10.2
	C115.3,124.5,109.7,121.8,107.5,115.9z M95.6,141.7h13l-13,13V141.7z M95.6,158.2l16.5-16.5h19.4l-35.9,35.9V158.2z M145.1,195.3
	h-17.7l17.7-17.7V195.3z M145.1,174l-21.3,21.3h-19.4l40.7-40.7V174z M145.1,151.1l-44.2,44.2h-5.3v-14.1l39.4-39.4h10V151.1z"/>
<path class="st6" d="M-314.6,375.5c-3.3,0-6,2.7-6,6c0,3.3,2.7,6,6,6c3.3,0,6-2.7,6-6C-308.5,378.2-311.2,375.5-314.6,375.5z
	 M-314.6,386.2c-2.6,0-4.8-2.1-4.8-4.8c0-2.6,2.1-4.8,4.8-4.8c2.6,0,4.8,2.1,4.8,4.8C-309.8,384.1-311.9,386.2-314.6,386.2z
	 M-255.8,365.5c-0.3-7.6-2.8-13.5-7.4-17.3c-5.3-4.5-11.4-4.4-13.3-4.3h-12.2c0-0.1,0-0.1,0-0.2c4.3-4.5,9.4-14.8,1.3-25.6
	c-7.1-9.6-27-14.6-43-14.6c-12.7,0-23.3,2.9-29.7,8.3c-9,7.5-13.7,18.3-11.1,25.6c0.8,2.3,3,5.9,8.6,7.2v83.9c0,1.4,1.1,2.5,2.5,2.5
	h67.8c1.4,0,2.5-1.1,2.5-2.5v-11.9c8.8-0.4,16.2-3.7,21.9-9.7C-255.9,394.4-255.4,373.8-255.8,365.5z M-294.7,426h-62.8v-10.6h62.8
	V426z M-294.7,412.9h-62.8v-67.8c1.9,0.2,7,0.9,9.7,3.7c1.3,1.4,1.9,3.1,1.7,5.2c-0.6,11.5,0.9,19,4.6,22.9c1.9,2,4.3,3,7.1,3
	c0,0,0,0,0,0c0.3,0,0.7,0,1,0c9.3-0.7,10.1-10.6,10.6-15.9c0.1-1,0.2-1.8,0.3-2.4l0.1-0.7c0.5-3.2,0.6-4,4.2-4c0.2,0,0.5,0,0.7,0
	c1,0,1.7,0.3,2.1,0.7c0.8,0.9,0.7,2.7,0.6,3.3c-0.3,4.7,0.5,8.1,2.7,10.4c1.8,2,4.5,3,7.9,3c3.1,0,5.6-0.9,7.3-2.8
	c1.1-1.2,1.8-2.7,2.2-4.3V412.9z M-292.2,340.1c-2.1,1.3-6.6,3.5-13.6,3.2c-0.7,0-1.3,0.5-1.3,1.2c0,0.7,0.5,1.3,1.2,1.3
	c0.5,0,1,0,1.5,0c4.7,0,8.2-1,10.8-2.1c-0.6,4.9-2.1,7.4-3.4,9.3c-1.2,1.8-2.3,3.7-2.1,6.6c0.1,2.1,0.5,6.5-1.3,8.4
	c-0.8,0.8-1.9,1.2-3.6,1.2c-2,0-3.4-0.5-4.3-1.4c-1.1-1.2-1.6-3.4-1.3-6.6c0.1-1.1,0.3-4.5-1.9-7c-1.3-1.5-3.2-2.3-5.6-2.4
	c-0.3,0-0.6,0-1,0c-7.9,0-8.6,4.9-9.2,8.2l-0.1,0.7c-0.1,0.8-0.2,1.7-0.3,2.8c-0.5,6-1.3,11-6,11.4c-0.2,0-0.4,0-0.6,0h0
	c-1.4,0-2.5-0.5-3.5-1.4c-1.8-1.9-3.9-6.8-3.2-19.2c0.2-3.5-0.9-6.5-3.1-8.9c-4.8-5.2-13.6-5.4-14-5.4c-4.4-0.1-7.2-1.5-8.2-4.4
	c-1.6-4.6,1.5-13.4,9.6-20.1c5.5-4.6,15-7.1,26.5-7.1c16.9,0,33.6,5.4,39,12.6C-284.5,330.3-290.2,338-292.2,340.1z M-271.4,403.4
	c-4.7,5-10.9,7.8-18.3,8.2v-6.8c5.4-0.4,9.9-2.4,13.4-6c8.7-9.2,9-26,8.7-32.7c-0.2-4.2-1.3-7.1-3.2-8.8c-1.6-1.4-3.5-1.6-4.5-1.6
	c-0.1,0-0.3,0-0.3,0c0,0-0.1,0-0.1,0c-0.1,0-0.3,0-0.4,0h-13.5v-6.4c0-0.1,0-0.2,0-0.2c0,0,0-0.1,0-0.1h13.2c0.1,0,0.1,0,0.2,0
	c1.3-0.1,5.9-0.2,9.8,3.1c3.5,2.9,5.4,7.5,5.6,13.7C-260.5,373.4-260.9,392.3-271.4,403.4z M-289.7,399.8v-39.1h13.5
	c0.3,0,0.7,0,0.9,0c0.4,0,1,0.1,1.3,0.4c0.6,0.5,1.3,2.1,1.4,5.2c0.3,6.1,0,21.3-7.4,29.1C-282.4,397.9-285.7,399.4-289.7,399.8z
	 M-338.7,385.4c-2.4,0-4.3,2-4.3,4.3c0,2.4,2,4.3,4.3,4.3c2.4,0,4.3-2,4.3-4.3C-334.3,387.4-336.3,385.4-338.7,385.4z M-338.7,392.9
	c-1.7,0-3.1-1.4-3.1-3.1c0-1.7,1.4-3.1,3.1-3.1c1.7,0,3.1,1.4,3.1,3.1C-335.6,391.5-336.9,392.9-338.7,392.9z M-323.8,398.2
	c-2.4,0-4.3,2-4.3,4.3c0,2.4,2,4.3,4.3,4.3c2.4,0,4.3-2,4.3-4.3C-319.4,400.2-321.4,398.2-323.8,398.2z M-323.8,405.7
	c-1.7,0-3.1-1.4-3.1-3.1c0-1.7,1.4-3.1,3.1-3.1c1.7,0,3.1,1.4,3.1,3.1C-320.7,404.3-322,405.7-323.8,405.7z"/>
<path class="st6" d="M-250,196.4h-16.1v-30.3c1.2-0.7,2.3-1.7,3.2-2.9c0.4-0.5,0.5-1,0.5-1.6c-0.1-5.1-4.4-9.3-9.5-9.3h-9.5v-24.6
	c0.8-0.6,1.5-1.3,2.1-2.1c0.3-0.4,0.5-1,0.5-1.5v-1c0-5.3-4.3-9.5-9.5-9.5h-6.3v-8.9c0-1.2-0.8-2.2-1.9-2.4c0-0.1,0-0.1,0-0.2v-1
	c0.9-0.3,3.2-1.1,4.1-3.5c1-2.7-0.2-6.3-3.8-10.7c-0.5-0.6-1.5-0.6-2,0c-3.5,4.4-4.8,8-3.8,10.7c0.9,2.4,3.2,3.2,4.1,3.5v1
	c0,0.1,0,0.1,0,0.2c-1.1,0.3-1.9,1.2-1.9,2.4v8.9h-11.6v-8.9c0-1.2-0.8-2.2-1.9-2.4c0-0.1,0-0.1,0-0.2v-1c0.9-0.3,3.2-1.1,4.1-3.5
	c1-2.7-0.2-6.3-3.8-10.7c-0.5-0.6-1.5-0.6-2,0c-3.5,4.4-4.8,8-3.8,10.7c0.9,2.4,3.2,3.2,4.1,3.5v1c0,0.1,0,0.1,0,0.2
	c-1.1,0.3-1.9,1.2-1.9,2.4v8.9h-11.7v-8.9c0-1.2-0.8-2.2-1.9-2.4c0-0.1,0-0.1,0-0.2v-1c0.9-0.3,3.2-1.1,4.1-3.5
	c1-2.7-0.2-6.3-3.8-10.7c-0.5-0.6-1.5-0.6-2,0c-3.5,4.4-4.8,8-3.8,10.7c0.9,2.4,3.2,3.2,4.1,3.5v1c0,0.1,0,0.1,0,0.2
	c-1.1,0.3-1.9,1.2-1.9,2.4v8.9h-6.3c-5.3,0-9.5,4.3-9.5,9.5v1c0,0.6,0.2,1.1,0.5,1.5c0.6,0.8,1.3,1.5,2.1,2.1v24.6h-9.5
	c-5.3,0-9.5,4.3-9.5,9.5v0.4c0,0.6,0.2,1.2,0.7,1.7c0.9,1,2,1.8,3.1,2.4v30h-16.1c-1.4,0-2.5,1.1-2.5,2.5s1.1,2.5,2.5,2.5H-250
	c1.4,0,2.5-1.1,2.5-2.5S-248.7,196.4-250,196.4z M-297.8,97.5v1c-0.6-0.3-1.4-0.8-1.8-1.7c-0.6-1.6,0.3-4,2.4-7c2.1,3,3,5.4,2.4,7
	c-0.3,0.9-1.1,1.4-1.8,1.7v-1c0-0.3-0.3-0.6-0.6-0.6C-297.5,96.8-297.8,97.1-297.8,97.5z M-314.4,97.5v1c-0.6-0.3-1.4-0.8-1.8-1.7
	c-0.6-1.6,0.3-4,2.4-7c2.1,3,3,5.4,2.4,7c-0.3,0.9-1.1,1.4-1.8,1.7v-1c0-0.3-0.3-0.6-0.6-0.6C-314.1,96.8-314.4,97.1-314.4,97.5z
	 M-331,97.5v1c-0.6-0.3-1.4-0.8-1.8-1.7c-0.6-1.6,0.3-4,2.4-7c2.1,3,3,5.4,2.4,7c-0.3,0.9-1.1,1.4-1.8,1.7v-1c0-0.3-0.3-0.6-0.6-0.6
	C-330.8,96.8-331,97.1-331,97.5z M-343.8,123.1c0-2.5,2-4.5,4.5-4.5h51c2.5,0,4.5,2,4.5,4.5v0.1c-1.3,1.4-3.1,2.1-5,2.1
	c-2.5,0-4.9-1.4-6.1-3.6c-0.4-0.8-1.3-1.3-2.2-1.3c0,0,0,0,0,0c-0.9,0-1.7,0.5-2.2,1.3c-1.3,2.2-3.6,3.6-6.2,3.6
	c-2.5,0-4.9-1.4-6.2-3.6c-0.4-0.8-1.3-1.3-2.2-1.3h0c-0.9,0-1.7,0.5-2.2,1.3c-1.3,2.2-3.6,3.6-6.1,3.6c-2.5,0-4.9-1.4-6.2-3.6
	c-0.4-0.8-1.3-1.3-2.2-1.3c-0.9,0-1.7,0.5-2.2,1.3c-1.3,2.2-3.6,3.6-6.1,3.6C-340.7,125.3-342.5,124.6-343.8,123.1L-343.8,123.1z
	 M-341.2,143.4v-7.1h54.8v7.1H-341.2z M-286.4,144.7v7.3h-54.8v-7.3H-286.4z M-341.2,135.1v-5c0.8,0.2,1.6,0.3,2.4,0.3
	c3.1,0,6.1-1.2,8.3-3.3c2.2,2.1,5.2,3.3,8.3,3.3c3.1,0,6.1-1.2,8.3-3.3c2.2,2.1,5.2,3.3,8.3,3.3c3.1,0,6.1-1.2,8.3-3.3
	c2.2,2.1,5.2,3.3,8.3,3.3c0.8,0,1.6-0.1,2.4-0.3v5H-341.2z M-271.1,195.7h-85.3v-10.1h85.3V195.7z M-271.1,184.4h-85.3v-7.1h85.3
	V184.4z M-271.1,176.1h-85.3v-8.2c0.3,0,0.5,0,0.8,0c3.1,0,6.1-1.2,8.3-3.3c2.2,2.1,5.2,3.3,8.3,3.3c3.1,0,6.1-1.2,8.3-3.3
	c2.2,2.1,5.2,3.3,8.3,3.3c3.1,0,6.1-1.2,8.3-3.3c2.2,2.1,5.2,3.3,8.3,3.3c3.1,0,6.1-1.2,8.3-3.3c2.2,2.1,5.2,3.3,8.3,3.3
	c3.1,0,6.1-1.2,8.3-3.3c2.2,2.1,5.2,3.3,8.3,3.3c0.4,0,0.8,0,1.3-0.1V176.1z M-272.4,162.9c-2.5,0-4.9-1.4-6.2-3.6
	c-0.4-0.8-1.3-1.3-2.2-1.3c-0.9,0-1.7,0.5-2.2,1.3c-1.3,2.2-3.6,3.6-6.2,3.6c-2.5,0-4.9-1.4-6.1-3.6c-0.4-0.8-1.3-1.3-2.2-1.3h0
	c-0.9,0-1.7,0.5-2.2,1.3c-1.3,2.2-3.6,3.6-6.2,3.6c-2.5,0-4.9-1.4-6.2-3.6c-0.4-0.8-1.3-1.3-2.2-1.3c-0.9,0-1.7,0.5-2.2,1.3
	c-1.3,2.2-3.6,3.6-6.1,3.6c-2.5,0-4.9-1.4-6.1-3.6c-0.4-0.8-1.3-1.3-2.2-1.3c-0.9,0-1.7,0.5-2.2,1.3c-1.3,2.2-3.6,3.6-6.1,3.6
	c-2.5,0-4.9-1.4-6.2-3.6c-0.4-0.8-1.3-1.3-2.2-1.3c-0.9,0-1.7,0.5-2.2,1.3c-1.3,2.2-3.6,3.6-6.2,3.6c-1.7,0-3.2-0.6-4.5-1.6
	c0.3-2.2,2.2-3.9,4.5-3.9h83.8c2.1,0,4,1.5,4.4,3.5C-268.8,162.2-270.5,162.9-272.4,162.9z"/>
<path class="st6" d="M166.9-368.7c-12.1-0.3-23.7,4.1-32.5,12.4c-8.8,8.4-13.9,19.6-14.2,31.8c-0.6,21,16.1,38.6,37.1,39.2
	c8.6,0.2,16.8-2.9,23.1-8.8c6.3-5.9,9.8-13.9,10.1-22.6c0.2-7.4-2.5-14.4-7.5-19.7s-11.9-8.4-19.3-8.6c-0.1,0-0.1,0-0.2,0
	c-4.7,0-8.6,3.8-8.8,8.5c-0.1,2.3,0.8,4.6,2.4,6.3c1.6,1.7,3.8,2.7,6.1,2.7c2.7,0.1,5.2,1.2,7,3.1c1.8,2,2.8,4.5,2.8,7.2
	c-0.1,3.9-1.7,7.6-4.6,10.3c-2.9,2.7-6.6,4.1-10.6,4c-11.4-0.3-20.4-9.8-20.1-21.2c0.2-7.5,3.3-14.4,8.7-19.6
	c5.4-5.1,12.5-7.9,20-7.7c20.5,0.6,36.7,17.7,36.2,38.2c-0.4,13-5.8,25.1-15.2,34c-9.4,8.9-21.8,13.7-34.9,13.3h-5.7
	c-1-3.3-4.2-5.8-7.9-5.8h-19.1c-3.7,0-6.8,2.4-7.9,5.8l-17.2,0c-4.8,0-8.8,3.9-8.8,8.8c0,4.8,3.9,8.8,8.8,8.8h17.2
	c1,3.5,4.2,6,7.9,6h19.1c3.8,0,6.9-2.5,7.9-6l5.3,0c0.6,0,1.2,0,1.8,0c17,0,33.1-6.4,45.4-18.1c12.8-12.2,20.2-28.6,20.7-46.2
	C220.9-342.7,197-367.9,166.9-368.7z M107.2-253.2H94.7c-2.1,0-3.8-1.7-3.8-3.8c0-2.1,1.7-3.8,3.8-3.8l12.5,0V-253.2z M111.6-253.2
	h-3.1v-7.5l3.1,0V-253.2z M142.1-250.4c0,1.8-1.5,3.2-3.2,3.2h-19.1c-1.8,0-3.2-1.5-3.2-3.2v-12.8c0-1.8,1.5-3.2,3.2-3.2h19.1
	c1.8,0,3.2,1.5,3.2,3.2V-250.4z M150.6-253.2h-3.5v-7.5l3.5,0V-253.2z M215-312.7c-0.4,16.3-7.2,31.5-19.1,42.8
	c-11.4,10.8-26.3,16.7-42,16.7c-0.5,0-1.1,0-1.7,0h-0.3v-7.5l0.5,0c14.4,0.4,28-4.8,38.4-14.7c10.4-9.9,16.4-23.2,16.8-37.5
	c0.6-23.3-17.8-42.7-41-43.3c-8.8-0.2-17.2,3-23.6,9c-6.4,6.1-10.1,14.3-10.3,23.1c-0.4,14.1,10.8,26,24.9,26.3
	c5.3,0.2,10.3-1.8,14.1-5.4c3.8-3.6,6-8.5,6.2-13.8c0.1-4-1.4-7.8-4.1-10.8c-2.8-2.9-6.5-4.6-10.5-4.7c-1,0-1.9-0.4-2.6-1.2
	c-0.7-0.7-1.1-1.7-1-2.7c0.1-2,1.8-3.7,3.9-3.6c6,0.2,11.6,2.7,15.8,7c4.1,4.4,6.3,10.1,6.2,16.1c-0.2,7.3-3.2,14.1-8.5,19.1
	c-5.3,5-12.2,7.7-19.5,7.5c-18.3-0.5-32.7-15.8-32.2-34.1c0.3-10.8,4.8-20.9,12.7-28.3c7.9-7.4,18.2-11.4,29-11.1
	C194.1-363,215.8-340.1,215-312.7z M135.5-259.1l-2.9-0.4c-0.4-0.1-0.7-0.3-0.9-0.6l-1.3-2.6c-0.4-0.9-1.6-0.9-2.1,0l-1.3,2.6
	c-0.2,0.3-0.5,0.6-0.9,0.6l-2.9,0.4c-0.9,0.1-1.3,1.3-0.6,2l2.1,2c0.3,0.3,0.4,0.6,0.3,1l-0.5,2.9c-0.2,0.9,0.8,1.7,1.7,1.2l2.6-1.4
	c0.3-0.2,0.7-0.2,1.1,0l2.6,1.4c0.8,0.4,1.8-0.3,1.7-1.2l-0.5-2.9c-0.1-0.4,0.1-0.8,0.3-1l2.1-2
	C136.8-257.8,136.4-258.9,135.5-259.1z"/>
<path class="st6" d="M-13.5,196.2h-18.3v-65.4c0-1.4-1.1-2.5-2.5-2.5h-33.4c1.5-1.5,2.7-3.3,3.6-5.6c2.2-5.6,1.3-12-2-15
	c-2.5-2.3-5.7-3.2-9-2.8c0.6-4.4,2.9-12.9,11-17.9C-64,87-64,87-64,87c0.8,0.2,1.8,0,2.5-0.4c1.3-0.7,1.5-2.1,0.8-3.2
	c-0.6-1.1-1.9-1.8-3.2-1.1c-1,0.6-1.7,1.8-1.7,2.8c-8.7,5.6-11.2,14.4-11.9,19.3c-3.1-1.7-6.6-1.6-9.9,0.3c-4.4,2.5-7,9.6-5.8,15.8
	c0.6,3.2,2.2,5.8,4.4,7.8h-34.2c-1.4,0-2.5,1.1-2.5,2.5v65.4h-20.8c-1.4,0-2.5,1.1-2.5,2.5s1.1,2.5,2.5,2.5h23.3h88.7h20.8
	c1.4,0,2.5-1.1,2.5-2.5S-12.1,196.2-13.5,196.2z M-85,109c1.9-1.1,3.7-1.1,5.4-0.1c0.2,0.1,0.4,0.2,0.6,0.3l2.9,0.8
	c0.4,0.1,0.8,0.1,1.2,0c2.1-0.4,3.9,0,5.4,1.4c1.6,1.4,2.2,5.6,0.7,9.5c-1,2.5-3.7,7-10.7,5.9c0,0-0.1,0-0.1,0c0,0-0.1,0-0.1,0
	c-0.1,0-0.2,0-0.1,0c-5.9-0.8-7.9-4.4-8.4-7.2C-89.2,115.1-87.3,110.3-85,109z M-49.3,196.2h-71.3v-10.5h71.3V196.2z M-49.3,184.4
	h-71.3v-11.8h71.3V184.4z M-49.3,168.8h-71.3V157h71.3V168.8z M-49.3,155.8h-71.3v-11.2h71.3V155.8z M-36.8,196.2h-8.7v-53.5
	c0-1-0.8-1.9-1.9-1.9h-73.1v-7.5h83.8V196.2z"/>
<path class="st6" d="M434.2,103.6h-3.6c2.2-3.8,2.3-8.3,0.2-13.2c-1.9-4.5-5.2-7.4-9.4-8.4c-5.8-1.4-13.1,0.9-19.8,6.4
	c-3.4,2.7-6.6,5.9-9.4,8.9c-0.7-2.1-2.6-3.6-4.9-3.6c-2.3,0-4.3,1.5-4.9,3.6c-2.8-3-6-6.2-9.4-8.9c-6.7-5.5-14-7.8-19.8-6.4
	c-4.2,1-7.5,3.9-9.4,8.4c-2.1,4.8-2,9.4,0.2,13.2h-3.6c-4.5,0-8.8,1.8-11.9,5c-3.2,3.2-4.9,7.5-4.9,12v20c0,1.4,1.1,2.5,2.5,2.5h2.9
	v42.6c0,8.7,7,15.7,15.6,15.7h85.5c4.2,0,8.1-1.6,11-4.6c2.9-3,4.6-6.9,4.6-11.1l0-42.6h2.9c1.4,0,2.5-1.1,2.5-2.5v-20
	C451.1,111.2,443.5,103.6,434.2,103.6z M348.4,92.4c1.3-3,3.3-4.9,6-5.6c4.3-1,10,1,15.5,5.4c4.2,3.4,8.2,7.6,11.5,11.4h-30.9
	C347.1,100.7,346.4,96.9,348.4,92.4z M384.4,196.4h-39.9c-4.4,0-8.1-2.7-9.8-6.5h49.6V196.4z M384.4,188.6h-50.1
	c-0.3-0.9-0.4-1.9-0.4-3V143h42.9c1.4,0,2.5-1.1,2.5-2.5s-1.1-2.5-2.5-2.5h-48.3v-17.5c0-3.2,1.2-6.2,3.5-8.5
	c2.2-2.3,5.2-3.5,8.4-3.5h8.2c0,0,0.1,0.1,0.1,0.1l0.1-0.1h35.6V188.6z M404.8,92.2c5.4-4.4,11.2-6.4,15.5-5.4
	c2.7,0.7,4.7,2.5,6,5.6c2,4.5,1.3,8.3-2,11.2h-30.9C396.5,99.8,400.5,95.6,404.8,92.2z M437.6,193.3c-2,2-4.7,3.1-7.5,3.1h-39.9
	v-6.5h49.6C439.3,191.1,438.6,192.3,437.6,193.3z M440.7,185.7c0,1-0.1,2-0.4,3h-50.1V143h50.5L440.7,185.7z M446.1,138h-55.8v-29.5
	h44c6.5,0,11.9,5.4,11.9,12V138z"/>
<path class="st7" d="M11.9,14.2c0,0.2,0.1,0.3,0.3,0.3c0.2,0,0.3-0.1,0.3-0.3c0-0.2-0.1-0.3-0.3-0.3C12,13.9,11.9,14,11.9,14.2z
	 M11.8,8.5c0.2,0,0.3-0.1,0.3-0.3c0-0.2-0.1-0.3-0.3-0.3c-0.2,0-0.3,0.1-0.3,0.3C11.4,8.4,11.6,8.5,11.8,8.5z M20.7,20.5h-0.4
	L12.5,4.1c0.7-0.2,1.3-0.9,1.3-1.8c0-1-0.8-1.8-1.8-1.8c-1,0-1.8,0.8-1.8,1.8c0,0.8,0.5,1.5,1.3,1.8L3.7,20.5H3.3
	c-0.8,0-1.5,0.7-1.5,1.5c0,0.8,0.7,1.5,1.5,1.5h17.5c0.8,0,1.5-0.7,1.5-1.5C22.2,21.2,21.6,20.5,20.7,20.5z M14.7,10.7L14.4,11
	c-0.1,0.1-0.1,0.2-0.1,0.3l0.1,0.5l-0.5-0.2c-0.1-0.1-0.2-0.1-0.4,0l-0.5,0.2l0.1-0.5c0-0.1,0-0.3-0.1-0.3l-0.4-0.4l0.5-0.1
	c0.1,0,0.2-0.1,0.3-0.2l0.2-0.5l0.2,0.5c0.1,0.1,0.2,0.2,0.3,0.2L14.7,10.7L14.7,10.7z M11,2.3c0-0.6,0.5-1,1-1c0.6,0,1,0.5,1,1
	c0,0.6-0.5,1-1,1C11.4,3.3,11,2.9,11,2.3z M7.4,14.6l0.4-0.1c0.1,0,0.2-0.1,0.3-0.2l0.3-0.5l0.3,0.5c0.1,0.1,0.2,0.2,0.3,0.2
	l0.6,0.1L9.1,15C9,15.1,8.9,15.2,9,15.3l0.1,0.6l-0.5-0.3c-0.1-0.1-0.2-0.1-0.3,0l-0.5,0.3l0.1-0.6c0-0.1,0-0.2-0.1-0.3l-0.3-0.3
	L7.4,14.6z M5.4,18.9C5.5,19,5.7,19,5.9,19c0.4,0,0.7-0.3,0.7-0.7c0-0.4-0.3-0.6-0.6-0.7l1.2-2.5l0.2,0.2l-0.1,0.6
	c0,0.1,0,0.2,0.1,0.3c0.1,0.1,0.2,0.1,0.3,0.1c0.1,0,0.1,0,0.2,0L8.4,16l0.6,0.3c0.2,0.1,0.4,0,0.5-0.1c0.1-0.1,0.1-0.2,0.1-0.3
	l-0.1-0.6l0.5-0.4c0.1-0.1,0.1-0.2,0.1-0.4c0-0.1-0.2-0.2-0.3-0.3L9,14.1l-0.3-0.6c-0.1-0.1-0.2-0.2-0.3-0.2c-0.1,0-0.3,0.1-0.3,0.2
	l-0.3,0.6l-0.1,0L12,4.9l0.5,1c-0.1,0.1-0.1,0.2-0.1,0.3c0,0.2,0.2,0.4,0.4,0.4c0,0,0,0,0.1,0l1.7,3.7l-0.2,0l-0.3-0.5
	c-0.1-0.1-0.2-0.2-0.3-0.2c-0.1,0-0.3,0.1-0.3,0.2l-0.3,0.5l-0.6,0.1c-0.1,0-0.3,0.1-0.3,0.3c0,0.1,0,0.3,0.1,0.4l0.4,0.4l-0.1,0.6
	c0,0.1,0,0.2,0.1,0.3c0.1,0.1,0.2,0.1,0.3,0.1h0c0.1,0,0.1,0,0.2,0l0.5-0.3l0.5,0.3c0.1,0,0.1,0,0.2,0c0.1,0,0.2,0,0.3-0.1
	c0.1-0.1,0.1-0.2,0.1-0.3l-0.1-0.6l0.2-0.2l3.1,6.5c0,0,0,0,0,0c-0.3,0-0.6,0.3-0.6,0.6c0,0.3,0.3,0.6,0.6,0.6
	c0.2,0,0.4-0.1,0.5-0.2l0.9,1.9H4.6L5.4,18.9z M20.7,22.7H3.3c-0.4,0-0.6-0.3-0.6-0.6c0-0.4,0.3-0.6,0.6-0.6h17.5
	c0.4,0,0.6,0.3,0.6,0.6C21.4,22.4,21.1,22.7,20.7,22.7z M15.5,16.3l-1-0.1l-0.5-0.9C14,15,13.9,15,13.7,15c-0.2,0-0.3,0.1-0.4,0.2
	l-0.4,0.9l-1,0.1c-0.2,0-0.3,0.1-0.3,0.3c0,0.1,0,0.3,0.1,0.4l0.7,0.7l-0.2,1c0,0.1,0,0.2,0.1,0.3c0.1,0.1,0.2,0.1,0.3,0.1
	c0.1,0,0.1,0,0.2,0l0.9-0.5l0.9,0.5c0.1,0,0.1,0,0.2,0c0.1,0,0.2-0.1,0.3-0.1c0.1-0.1,0.1-0.2,0.1-0.3l-0.2-1l0.7-0.7
	c0.1-0.1,0.1-0.3,0.1-0.4C15.8,16.4,15.7,16.3,15.5,16.3z M14.7,17.4c-0.1,0.1-0.1,0.2-0.1,0.4l0.2,1l-0.9-0.5c-0.1,0-0.1,0-0.2,0
	c-0.1,0-0.1,0-0.2,0l-0.9,0.5l0.2-1c0-0.1,0-0.3-0.1-0.4L12,16.7l1-0.1c0.1,0,0.2-0.1,0.3-0.2l0.4-0.9l0.4,0.9
	c0.1,0.1,0.2,0.2,0.3,0.2l1,0.1L14.7,17.4z M10.1,11.6c-0.3,0-0.5,0.2-0.5,0.5c0,0.3,0.2,0.5,0.5,0.5c0.3,0,0.5-0.2,0.5-0.5
	C10.6,11.8,10.4,11.6,10.1,11.6z M9.7,18.6c-0.2,0-0.4,0.2-0.4,0.4c0,0.2,0.2,0.4,0.4,0.4c0.2,0,0.4-0.2,0.4-0.4
	C10.1,18.8,10,18.6,9.7,18.6z"/>
</svg>
