<?xml version="1.0" encoding="utf-8"?>
<!-- Generator: Adobe Illustrator 23.0.6, SVG Export Plug-In . SVG Version: 6.00 Build 0)  -->
<!DOCTYPE svg PUBLIC "-//W3C//DTD SVG 1.1//EN" "http://www.w3.org/Graphics/SVG/1.1/DTD/svg11.dtd" [
	<!ENTITY ns_extend "http://ns.adobe.com/Extensibility/1.0/">
	<!ENTITY ns_ai "http://ns.adobe.com/AdobeIllustrator/10.0/">
	<!ENTITY ns_graphs "http://ns.adobe.com/Graphs/1.0/">
	<!ENTITY ns_vars "http://ns.adobe.com/Variables/1.0/">
	<!ENTITY ns_imrep "http://ns.adobe.com/ImageReplacement/1.0/">
	<!ENTITY ns_sfw "http://ns.adobe.com/SaveForWeb/1.0/">
	<!ENTITY ns_custom "http://ns.adobe.com/GenericCustomNamespace/1.0/">
	<!ENTITY ns_adobe_xpath "http://ns.adobe.com/XPath/1.0/">
]>
<svg version="1.1" id="Layer_1" xmlns:x="&ns_extend;" xmlns:i="&ns_ai;" xmlns:graph="&ns_graphs;"
	 xmlns="http://www.w3.org/2000/svg" xmlns:xlink="http://www.w3.org/1999/xlink" x="0px" y="0px" width="36px" height="36px"
	 viewBox="0 0 36 36" style="enable-background:new 0 0 36 36;" xml:space="preserve">
<style type="text/css">
	.st0{fill:none;stroke:#F78F38;stroke-width:1.44;stroke-linecap:round;stroke-linejoin:round;stroke-miterlimit:22.9256;}
</style>
<metadata>
	<sfw  xmlns="&ns_sfw;">
		<slices></slices>
		<sliceSourceBounds  bottomLeftOrigin="true" height="33.3" width="33.3" x="1.3" y="-35"></sliceSourceBounds>
	</sfw>
</metadata>
<path class="st0" d="M18,9.4c5,0,9,4,9,9c0,5-4,9-9,9c-5,0-9-4-9-9C9,13.5,13,9.4,18,9.4L18,9.4z"/>
<polygon class="st0" points="18.1,5.6 18.1,2.5 18.1,5.6 "/>
<polygon class="st0" points="11.6,7.2 10.1,4.6 11.6,7.2 "/>
<polygon class="st0" points="6.9,11.9 4.2,10.4 6.9,11.9 "/>
<polygon class="st0" points="5.1,18.3 2.1,18.3 5.1,18.3 "/>
<polygon class="st0" points="6.8,24.7 4.1,26.3 6.8,24.7 "/>
<polygon class="st0" points="11.5,29.5 9.9,32.1 11.5,29.5 "/>
<polygon class="st0" points="17.9,31.2 17.9,34.3 17.9,31.2 "/>
<polygon class="st0" points="24.3,29.6 25.8,32.2 24.3,29.6 "/>
<polygon class="st0" points="29,24.9 31.7,26.5 29,24.9 "/>
<polygon class="st0" points="30.8,18.5 33.9,18.5 30.8,18.5 "/>
<polygon class="st0" points="29.1,12.1 31.8,10.5 29.1,12.1 "/>
<polygon class="st0" points="24.5,7.4 26,4.7 24.5,7.4 "/>
</svg>
