<?xml version="1.0" encoding="utf-8"?>
<!-- Generator: Adobe Illustrator 24.2.1, SVG Export Plug-In . SVG Version: 6.00 Build 0)  -->
<svg version="1.1" id="Layer_1" xmlns="http://www.w3.org/2000/svg" xmlns:xlink="http://www.w3.org/1999/xlink" x="0px" y="0px"
	 width="36px" height="36px" viewBox="0 0 36 36" style="enable-background:new 0 0 36 36;" xml:space="preserve">
<style type="text/css">
	.st0{fill:none;stroke:#FF8F33;stroke-width:1.44;stroke-linecap:round;stroke-linejoin:round;stroke-miterlimit:22.9256;}
	.st1{fill:none;stroke:#00A1BA;stroke-width:1.44;stroke-linecap:round;stroke-linejoin:round;stroke-miterlimit:22.9256;}
</style>
<path class="st0" d="M16.5,11.2C17,8.7,19,6.7,21.7,6.4c3.2-0.3,6.2,2,6.5,5.3c0.2,1.7-0.4,3.4-1.5,4.6"/>
<polygon class="st0" points="21.4,3 21.2,0.8 21.4,3 "/>
<polygon class="st0" points="16.9,4.7 15.6,2.9 16.9,4.7 "/>
<polygon class="st0" points="13.8,8.5 11.8,7.5 13.8,8.5 "/>
<polygon class="st0" points="30.8,16.2 32.8,17.1 30.8,16.2 "/>
<polygon class="st0" points="31.6,11.4 33.8,11.2 31.6,11.4 "/>
<polygon class="st0" points="29.9,6.9 31.7,5.6 29.9,6.9 "/>
<polygon class="st0" points="26.2,3.8 27.1,1.8 26.2,3.8 "/>
<line class="st1" x1="9" y1="29.3" x2="5.6" y2="35.2"/>
<path class="st1" d="M13.8,26.6c9.8,0,7.5,0,8.9,0c3.3,0,5.9-2.4,5.9-5.4s-2.6-5.4-5.9-5.4c-0.4,0-0.8,0-1.2,0.1
	c-1.1-2.6-3.8-4.4-7-4.4c-4.2,0-7.5,3.1-7.5,6.9l0,0.1c-0.1,0-0.2,0-0.3,0c-2.4,0-4.4,1.8-4.4,4c0,2.2,2,4,4.4,4
	C7.6,26.6,8.5,26.6,13.8,26.6L13.8,26.6z"/>
<line class="st1" x1="13.6" y1="29.4" x2="10.3" y2="35.1"/>
<line class="st1" x1="18.2" y1="29.4" x2="14.9" y2="35.1"/>
<line class="st1" x1="22.8" y1="29.4" x2="19.5" y2="35.1"/>
</svg>
