<?xml version="1.0" encoding="utf-8"?>
<!-- Generator: Adobe Illustrator 24.2.1, SVG Export Plug-In . SVG Version: 6.00 Build 0)  -->
<svg version="1.1" id="레이어_2" xmlns="http://www.w3.org/2000/svg" xmlns:xlink="http://www.w3.org/1999/xlink" x="0px"
	 y="0px" width="102px" height="127.6px" viewBox="0 0 102 127.6" style="enable-background:new 0 0 102 127.6;"
	 xml:space="preserve">
<style type="text/css">
	.st0{fill:#3683D5;}
	.st1{fill:#3683D5;stroke:#3683D5;stroke-width:0.8703;stroke-miterlimit:10;}
</style>
<g>
	<path class="st0" d="M20.4,122.3v3h-19v-3H20.4z M15.7,118.2l-4.9-9.7l-4.9,9.7H2.1l6.6-13.8h4.2l6.6,13.8H15.7z"/>
	<path class="st0" d="M22.3,125.1v-20.7h10.8v20.7C33.1,125.1,22.3,125.1,22.3,125.1z M25.6,122h4v-14.8h-4V122z M35.9,125.1v-20.9
		H39v7h2.3v3H39v11L35.9,125.1L35.9,125.1z"/>
	<path class="st0" d="M60.4,122.3v3H41.6v-3H60.4z M59.5,104.4v3H46.1v2.6h13.4v3H46.1v2.4h13.4v3H42.6v-13.9
		C42.6,104.4,59.5,104.4,59.5,104.4z"/>
	<path class="st0" d="M79.2,121.6H65.6v1h13.6v2.4H62.8v-5.7h13.6v-1H62.8V116h6.6v-1.2h-8v-2.4h19.1v2.4h-8v1.2h6.6L79.2,121.6
		L79.2,121.6z M72.8,105.1h6.6v2.4l-3.8,1l3.8,1v2.4l-8-2.3l-8.5,2.3v-2.6l7.7-1.9h-7.7v-2.6h6.6v-1.6H73v1.7h-0.2V105.1z"/>
	<path class="st0" d="M89.5,122v-5.9h3.3v5.9h7.8v3.1h-19V122H89.5z M93.5,107.2H82.7v-3h16.7v3l-5.4,3.5l5.4,3.5v3.5l-8.4-5.2
		l-8.4,5.2v-3.5L93.5,107.2z"/>
</g>
<path class="st1" d="M73.3,66.6c-0.7-0.2-1.4,0-1.7,0.3l-4.9,5.2c-0.7,0.7-0.5,1.7,0.2,2.3c0.7,0.7,1.7,0.5,2.3-0.2l1.7-1.9v4.5
	c0,5-4.2,9.2-9.2,9.2s-8.9-4-8.9-9.1V41.2c2.6-0.7,4.5-3.1,4.5-5.9c0-3.5-2.8-6.3-6.3-6.3s-6.3,2.8-6.3,6.3c0,2.8,1.9,5.2,4.5,5.9
	v35.9c0,5-4.2,9.2-9.2,9.2s-9.2-4.2-9.2-9.2v-4.5l1.7,1.9c0.7,0.7,1.7,0.7,2.3,0.2c0.7-0.7,0.7-1.7,0.2-2.3l-4.7-5
	c-0.5-0.5-1.2-0.7-1.7-0.3c-0.7,0.2-1,0.9-1,1.6v8.9C27.5,84.2,33.1,90,40,90c4.7,0,8.7-2.6,10.8-6.3c2.1,3.8,6.3,6.3,10.8,6.3
	c6.8,0,12.5-5.6,12.5-12.5v-8.9C74.3,67.5,73.8,66.8,73.3,66.6z M48,35.1c0-1.6,1.2-3,3-3c1.6,0,3,1.2,3,3c0,1.6-1.2,3-3,3l0,0l0,0
	C49.4,38.1,48,36.9,48,35.1z"/>
<g>
	<path d="M21.9,15.8V9.6h-2.1v0.3c0,2.1-1.2,3.2-2.8,3.2s-2.8-1.1-2.8-3.2V8.7c0-2.1,1.2-3.2,2.8-3.2c1.6,0,2.8,1.1,2.8,3.1h2.1V4.7
		h1.2v11.1H21.9z M18.6,9.7V8.8c0-1.7-0.8-2.3-1.6-2.3c-0.9,0-1.6,0.6-1.6,2.3v0.9c0,1.7,0.8,2.3,1.6,2.3
		C17.8,12,18.6,11.4,18.6,9.7z"/>
	<path d="M32.8,9.3h-3v1h4.5v1H24.1v-1h4.5v-1h-3V5h1.2v1.3h4.9V4.9h1.2V9.3z M25.4,12.3h7.4v3.6h-1.2v-2.6h-6.2V12.3z M26.8,8.3
		h4.9V7.2h-4.9V8.3z"/>
	<path d="M41.5,11.6c-1.9,0.2-3.3,0.3-7,0.3v-1c1.2,0,2.1,0,2.9,0v-0.6c-1.3-0.1-1.9-0.7-1.9-1.5V8.4c0-0.9,0.9-1.5,2.5-1.5
		c1.7,0,2.5,0.7,2.5,1.5v0.3c0,0.7-0.7,1.3-1.9,1.5v0.6c1,0,1.9-0.1,2.9-0.2L41.5,11.6z M40.9,5.6v1h-6v-1h2.4v-1h1.2v1H40.9z
		 M36.4,14c0-1.1,1.3-1.8,3.5-1.8s3.5,0.7,3.5,1.8v0.3c0,1.1-1.3,1.8-3.5,1.8s-3.5-0.7-3.5-1.8V14z M36.6,8.5v0.1
		c0,0.4,0.4,0.7,1.4,0.7c0.9,0,1.4-0.3,1.4-0.7V8.5c0-0.4-0.4-0.7-1.4-0.7C37,7.8,36.6,8.1,36.6,8.5z M37.5,14.2
		c0,0.4,0.8,0.9,2.3,0.9s2.3-0.5,2.3-0.9V14c0-0.4-0.8-0.9-2.3-0.9s-2.3,0.5-2.3,0.9V14.2z M42.1,11.9V4.7h1.2V8h1.6v1h-1.6v2.8
		H42.1z"/>
	<path d="M47.6,10.4c-0.1,0.2-0.3,0.5-0.5,0.8c-0.5,0.6-1.1,1.2-1.7,1.9l-0.8-0.8c0.7-0.7,1.3-1.3,1.9-2C46.9,9.6,47,9,47,8.4V6.8
		h-1.9v-1h4.8v1h-1.8v1.6c0,0.7,0.2,1.2,0.6,1.9c0.5,0.6,1,1.2,1.7,1.9l-0.8,0.8c-0.6-0.6-1.1-1.2-1.6-1.7
		C47.9,10.9,47.7,10.6,47.6,10.4L47.6,10.4z M51,4.9h1.2v10.3H51V9.4h-1.7v-1H51V4.9z M54.4,15.8h-1.2V4.7h1.2V15.8z"/>
	<path d="M60.8,10.2c-0.1,0.3-0.3,0.5-0.7,0.9c-0.5,0.5-1.1,1.2-1.9,1.9l-0.8-0.8c0.7-0.6,1.4-1.3,1.9-1.9C60,9.6,60.2,9,60.2,8.2
		V5.5h1.2v2.7c0,0.9,0.2,1.4,1,2.3c0.5,0.6,1,1.1,1.8,1.7L63.3,13c-0.8-0.8-1.4-1.3-1.8-1.8C61.2,10.8,60.9,10.5,60.8,10.2
		L60.8,10.2z M67.8,9.7h-1.7v6H65V4.7h1.2v4h1.7V9.7z"/>
	<path d="M71.2,8.7c-0.1,0.2-0.4,0.6-0.8,0.9c-0.5,0.4-1.2,1-1.8,1.4l-0.7-0.9c0.8-0.5,1.5-1.1,1.9-1.5c0.6-0.6,0.8-1,0.8-1.9V6.4
		h-2.3v-1H74v1h-2.2v0.4c0,0.8,0.1,1.2,0.6,1.7c0.6,0.5,1.2,1,1.9,1.4l-0.7,0.9c-0.6-0.4-1.1-0.8-1.7-1.3
		C71.6,9.1,71.3,8.9,71.2,8.7L71.2,8.7z M69.9,13.5c0-1.2,1.2-2.1,3.3-2.1s3.3,0.9,3.3,2.1V14c0,1.2-1.2,2.1-3.3,2.1
		s-3.3-0.9-3.3-2.1V13.5z M75.4,13.6c0-0.6-0.8-1.2-2.2-1.2c-1.3,0-2.2,0.6-2.2,1.2v0.3c0,0.6,0.8,1.2,2.2,1.2
		c1.3,0,2.2-0.6,2.2-1.2V13.6z M75.4,11.2V4.7h1.2v2.7h1.6v1h-1.6v2.8H75.4z"/>
	<path d="M80.1,5.3V9c2,0,3.2,0,5-0.3l0.1,1C83.5,10,82.1,10,78.9,10V5.3H80.1z M87.3,11.3v4.4h-6.9v-4.4H87.3z M81.6,14.8h4.5v-2.4
		h-4.5V14.8z M86.1,10.8V4.7h1.2v6.1H86.1z"/>
</g>
</svg>
