<?xml version="1.0" encoding="utf-8"?>
<!-- Generator: Adobe Illustrator 24.2.1, SVG Export Plug-In . SVG Version: 6.00 Build 0)  -->
<svg version="1.1" id="레이어_1" xmlns="http://www.w3.org/2000/svg" xmlns:xlink="http://www.w3.org/1999/xlink" x="0px"
	 y="0px" width="270px" height="200px" viewBox="0 0 270 200" style="enable-background:new 0 0 270 200;" xml:space="preserve">
<style type="text/css">
	.st0{fill:url(#SVGID_1_);}
	.st1{fill:#F4BC8F;}
	.st2{fill:url(#SVGID_2_);}
</style>
<g>
	
		<linearGradient id="SVGID_1_" gradientUnits="userSpaceOnUse" x1="4584.9673" y1="118.1845" x2="4641.6489" y2="118.1845" gradientTransform="matrix(-1 0 0 1 4717.2407 0)">
		<stop  offset="5.552700e-02" style="stop-color:#F4BC8F"/>
		<stop  offset="1" style="stop-color:#EBA17C"/>
	</linearGradient>
	<path class="st0" d="M118.4,85.7c-5.4,2.4-10.4,6.5-14.1,11.1c-3.6,4.5-6.4,9-9.1,13.2c-2.7,4.2-5.4,8.1-8.2,11.9
		c-2.8,3.7-5.9,7.2-9.1,10.7l-0.1,0.1c-4.2,4.5-3.9,11.5,0.6,15.7c4.5,4.2,11.5,3.9,15.7-0.6c0.4-0.5,0.9-1,1.2-1.5
		c2.9-4.6,5.7-9.2,8.2-14c2.5-4.8,4.6-9.6,6.6-14.3c2-4.7,3.8-9.2,5.8-12.9c2.1-3.7,4.5-6.7,8-9.1l0.1-0.1c2.6-1.8,3.2-5.4,1.4-8
		C123.9,85.3,120.9,84.6,118.4,85.7z"/>
	<path class="st1" d="M87.6,157.4l-43.7-4.1c0.2-6.7-12-34.4-12-62.6c20.4-6.2,40.9-9.7,61.5-6.4C91.6,119.6,112.4,128,87.6,157.4z"
		/>
	<path class="st1" d="M84.4,24.5c-0.3,22.2-3.5,44.4-5.8,67.2c-0.4,4,2.5,7.5,6.5,7.9c4,0.4,7.5-2.5,7.9-6.5c0-0.1,0-0.2,0-0.3
		c1.2-22.4,3.5-45.2,2.8-68.4c-0.1-3.2-2.7-5.7-5.9-5.6C86.9,19,84.5,21.5,84.4,24.5z"/>
	<path class="st1" d="M59.4,21.2c1.8,22.4,2.7,44.9,2.7,67.4c0,4,3.2,7.2,7.2,7.2c4,0,7.2-3.2,7.2-7.2c0-0.1,0-0.2,0-0.3
		c-1-22.9-2.9-45.7-5.7-68.3c-0.4-3.1-3.3-5.4-6.4-5C61.4,15.4,59.2,18.2,59.4,21.2z"/>
	<path class="st1" d="M35.7,32.4c3.9,19.4,6.8,38.9,8.8,58.5c0.4,4,4,6.9,7.9,6.5c4-0.4,6.9-4,6.5-7.9c0-0.1,0-0.2,0-0.4
		c-3-19.9-7-39.7-12-59.2c-0.8-3.1-3.9-4.9-7-4.2C36.9,26.5,35.1,29.4,35.7,32.4z"/>
	<path class="st1" d="M15.7,56.2c7.7,18.2,14.5,36.7,20.4,55.5c1.2,3.8,5.3,5.9,9.1,4.7c3.8-1.2,5.9-5.3,4.7-9.1
		c0-0.1-0.1-0.2-0.1-0.3c-7-18.9-14.9-37.5-23.6-55.6c-1.4-2.9-4.8-4.1-7.7-2.7C15.8,50.1,14.6,53.4,15.7,56.2z"/>
	<polygon class="st1" points="40.4,185 85.9,185 87.8,145.3 44.2,143.3 	"/>
</g>
<g>
	<linearGradient id="SVGID_2_" gradientUnits="userSpaceOnUse" x1="137.7265" y1="118.1845" x2="194.4081" y2="118.1845">
		<stop  offset="5.552700e-02" style="stop-color:#F4BC8F"/>
		<stop  offset="1" style="stop-color:#EBA17C"/>
	</linearGradient>
	<path class="st2" d="M151.6,85.7c5.4,2.4,10.4,6.5,14.1,11.1c3.6,4.5,6.4,9,9.1,13.2c2.7,4.2,5.4,8.1,8.2,11.9
		c2.8,3.7,5.9,7.2,9.1,10.7l0.1,0.1c4.2,4.5,3.9,11.5-0.6,15.7c-4.5,4.2-11.5,3.9-15.7-0.6c-0.4-0.5-0.9-1-1.2-1.5
		c-2.9-4.6-5.7-9.2-8.2-14c-2.5-4.8-4.6-9.6-6.6-14.3c-2-4.7-3.8-9.2-5.8-12.9c-2.1-3.7-4.5-6.7-8-9.1l-0.1-0.1
		c-2.6-1.8-3.2-5.4-1.4-8C146.1,85.3,149.1,84.6,151.6,85.7z"/>
	<path class="st1" d="M182.4,157.4l43.7-4.1c-0.2-6.7,12-34.4,12-62.6c-20.4-6.2-40.9-9.7-61.5-6.4
		C178.4,119.6,157.6,128,182.4,157.4z"/>
	<path class="st1" d="M185.6,24.5c0.3,22.2,3.5,44.4,5.8,67.2c0.4,4-2.5,7.5-6.5,7.9c-4,0.4-7.5-2.5-7.9-6.5c0-0.1,0-0.2,0-0.3
		c-1.2-22.4-3.5-45.2-2.8-68.4c0.1-3.2,2.7-5.7,5.9-5.6C183.1,19,185.5,21.5,185.6,24.5z"/>
	<path class="st1" d="M210.6,21.2c-1.8,22.4-2.7,44.9-2.7,67.4c0,4-3.2,7.2-7.2,7.2c-4,0-7.2-3.2-7.2-7.2c0-0.1,0-0.2,0-0.3
		c1-22.9,2.9-45.7,5.7-68.3c0.4-3.1,3.3-5.4,6.4-5C208.6,15.4,210.8,18.2,210.6,21.2z"/>
	<path class="st1" d="M234.3,32.4c-3.9,19.4-6.8,38.9-8.8,58.5c-0.4,4-4,6.9-7.9,6.5c-4-0.4-6.9-4-6.5-7.9c0-0.1,0-0.2,0-0.4
		c3-19.9,7-39.7,12-59.2c0.8-3.1,3.9-4.9,7-4.2C233.1,26.5,234.9,29.4,234.3,32.4z"/>
	<path class="st1" d="M254.3,56.2c-7.7,18.2-14.5,36.7-20.4,55.5c-1.2,3.8-5.3,5.9-9.1,4.7c-3.8-1.2-5.9-5.3-4.7-9.1
		c0-0.1,0.1-0.2,0.1-0.3c7-18.9,14.9-37.5,23.6-55.6c1.4-2.9,4.8-4.1,7.7-2.7C254.2,50.1,255.4,53.4,254.3,56.2z"/>
	<polygon class="st1" points="229.6,185 184.1,185 182.2,145.3 225.8,143.3 	"/>
</g>
</svg>
