<?xml version="1.0" encoding="utf-8"?>
<!-- Generator: Adobe Illustrator 22.1.0, SVG Export Plug-In . SVG Version: 6.00 Build 0)  -->
<svg version="1.1" id="레이어_1" xmlns="http://www.w3.org/2000/svg" xmlns:xlink="http://www.w3.org/1999/xlink" x="0px"
	 y="0px" width="16px" height="16px" viewBox="0 0 16 16" style="enable-background:new 0 0 16 16;" xml:space="preserve">
<style type="text/css">
	.st0{fill:#452C32;}
	.st1{fill:#FFF100;}
	.st2{fill:#CABBB2;}
</style>
<g>
	<g>
		<g>
			<path class="st0" d="M6.7,12.9c0,0,0.9,0.1,1.3,0.1c4.1,0,7.5-2.6,7.5-5.9c0-3.3-3.4-5.9-7.5-5.9C3.9,1.1,0.5,3.8,0.5,7
				c0,2,1.3,3.8,3.3,4.9c0,0-0.3,1.4-1.8,2.8c0,0-0.1,0.3,0.3,0.2C2.7,14.8,5.5,13.8,6.7,12.9z"/>
		</g>
	</g>
</g>
<path class="st1" d="M4.7,5.4H2.5c-0.2,0-0.4,0.2-0.4,0.4c0,0.2,0.2,0.4,0.4,0.4h0.7v2.7c0,0.1,0,0.2,0.1,0.3
	c0.1,0.1,0.2,0.1,0.3,0.1h0.1c0.1,0,0.2,0,0.3-0.1C4,9.1,4,9,4,8.9V6.2h0.7c0.2,0,0.4-0.2,0.4-0.4C5.1,5.6,4.9,5.4,4.7,5.4z"/>
<path class="st1" d="M10.1,8.5h-1V5.8c0-0.2-0.2-0.4-0.4-0.4c-0.2,0-0.4,0.2-0.4,0.4v3c0,0,0,0,0,0.1c0,0,0,0,0,0.1
	c0,0.2,0.2,0.3,0.3,0.3h1.5c0.2,0,0.3-0.2,0.3-0.3C10.5,8.7,10.3,8.5,10.1,8.5z"/>
<path class="st1" d="M13.4,8.7l-1.2-1.5l1-1c0.1-0.1,0.1-0.4,0-0.5c-0.1-0.1-0.4-0.1-0.5,0l-1.3,1.3V5.8c0-0.2-0.2-0.4-0.4-0.4
	c-0.2,0-0.4,0.2-0.4,0.4v3c0,0.2,0.2,0.4,0.4,0.4c0.2,0,0.4-0.2,0.4-0.4V7.9l0.2-0.2l1.1,1.4c0.1,0.2,0.4,0.2,0.5,0.1
	C13.5,9.1,13.6,8.8,13.4,8.7z"/>
<path class="st1" d="M7.9,8.8L6.8,5.7c0,0,0,0,0,0C6.7,5.5,6.5,5.4,6.3,5.4C6,5.4,5.8,5.6,5.8,5.8c0,0,0,0,0,0.1L4.6,8.8
	C4.6,9,4.7,9.2,4.9,9.2c0.2,0.1,0.4,0,0.5-0.2l0.2-0.5H7L7.2,9c0.1,0.2,0.3,0.3,0.5,0.2C7.9,9.2,8,9,7.9,8.8z M5.8,7.8l0.5-1.5
	c0,0,0,0,0,0l0.5,1.5H5.8z"/>
<polygon class="st2" points="6.8,3.6 6.5,3.6 6.2,4.1 6.2,3.6 6,3.6 6,4.6 6.2,4.6 6.2,4.2 6.5,4.6 6.8,4.6 6.5,4.1 "/>
<polygon class="st2" points="8.6,3.6 8.3,3.6 8,4.1 8,3.6 7.8,3.6 7.8,4.6 8,4.6 8,4.2 8.3,4.6 8.6,4.6 8.3,4.1 "/>
<path class="st2" d="M7.4,4.6h0.2L7.5,3.9c0,0,0-0.2-0.3-0.2C7,3.6,7,3.9,7,3.9L6.8,4.6h0.2l0-0.2h0.3L7.4,4.6z M7.1,4.2l0-0.4
	c0.1-0.1,0.1,0,0.1,0l0,0.4H7.1z"/>
<path class="st2" d="M9.2,4.6h0.2L9.3,3.9c0,0,0-0.2-0.3-0.2c-0.2,0-0.3,0.2-0.3,0.2L8.6,4.6h0.2l0-0.2h0.3L9.2,4.6z M8.9,4.2l0-0.4
	c0.1-0.1,0.1,0,0.1,0l0,0.4H8.9z"/>
<path class="st2" d="M10.3,3.9c0,0,0-0.3-0.4-0.3c-0.3,0-0.4,0.3-0.4,0.3v0.4l0,0l0,0c0,0,0,0.3,0.4,0.3c0.3,0,0.4-0.3,0.4-0.3l0,0
	l0,0V3.9z M9.9,4.4c-0.1,0-0.1-0.1-0.1-0.1V4c0,0,0-0.1,0.1-0.1C10,3.9,10,4,10,4v0.3C10,4.3,10,4.4,9.9,4.4z"/>
</svg>
