<?xml version="1.0" encoding="utf-8"?>
<!-- Generator: Adobe Illustrator 24.2.1, SVG Export Plug-In . SVG Version: 6.00 Build 0)  -->
<svg version="1.1" id="레이어_1" xmlns="http://www.w3.org/2000/svg" xmlns:xlink="http://www.w3.org/1999/xlink" x="0px"
	 y="0px" width="24px" height="24px" viewBox="0 0 24 24" style="enable-background:new 0 0 24 24;" xml:space="preserve">
<style type="text/css">
	.st0{fill:none;stroke:#333333;stroke-linecap:round;stroke-linejoin:round;stroke-miterlimit:10;}
</style>
<g>
	<line class="st0" x1="20.28" y1="15.63" x2="20.28" y2="15.63"/>
	<path class="st0" d="M8.36,11.57c2.95-0.71,5.9-4.35,5.9-8.68c0-1.08,2.14-1.23,2.7,0.77c0.63,2.26-0.39,4.24-1.16,6.17h3.86"/>
	<path class="st0" d="M19.66,9.83c0.85,0,1.54,0.69,1.54,1.54l0,0c0,0.85-0.69,1.54-1.54,1.54h-0.39"/>
	<path class="st0" d="M19.28,12.91c0.85,0,1.54,0.69,1.54,1.54l0,0c0,0.85-0.69,1.54-1.54,1.54h-0.39"/>
	<path class="st0" d="M18.51,16c0.85,0,1.54,0.69,1.54,1.54l0,0c0,0.85-0.69,1.54-1.54,1.54h-0.39"/>
	<path class="st0" d="M19.28,12.91c0.85,0,1.54,0.69,1.54,1.54l0,0c0,0.85-0.69,1.54-1.54,1.54h-0.77"/>
	<path class="st0" d="M18.12,21.78h-4.24h-1.15c-1.55,0-4.36-1.42-4.36-1.42"/>
	<path class="st0" d="M17.73,19.08h0.19c0.75,0,1.35,0.6,1.35,1.35l0,0c0,0.75-0.6,1.35-1.35,1.35h-0.58"/>
	<circle class="st0" cx="6.55" cy="20.24" r="0.39"/>
	<path class="st0" d="M7.36,22.12H3.21c-0.55,0-1-0.45-1-1V10.81c0-0.55,0.45-1,1-1h4.16c0.55,0,1,0.45,1,1v10.31
		C8.36,21.68,7.91,22.12,7.36,22.12z"/>
</g>
</svg>
