<?xml version="1.0" encoding="utf-8"?>
<!-- Generator: Adobe Illustrator 24.2.1, SVG Export Plug-In . SVG Version: 6.00 Build 0)  -->
<svg version="1.1" xmlns="http://www.w3.org/2000/svg" xmlns:xlink="http://www.w3.org/1999/xlink" x="0px" y="0px" width="36px"
	 height="36px" viewBox="0 0 36 36" style="enable-background:new 0 0 36 36;" xml:space="preserve">
<style type="text/css">
	.st0{fill:#C1DEFD;}
	.st1{fill:#0B8CC8;}
</style>
<g id="레이어_1">
	<polygon class="st0" points="17.8,13.8 15.9,20.6 9.5,21 9.5,23.2 32.4,23.1 33.2,21 29.1,20.8 29,14 	"/>
</g>
<g id="레이어_3">
	<g>
		<path class="st1" d="M21.9,15.4h-2c-0.2,0-0.5,0.2-0.6,0.4l-0.9,2.4c-0.1,0.2,0,0.4,0.1,0.6c0.1,0.2,0.3,0.3,0.5,0.3h2
			c0.2,0,0.5-0.2,0.6-0.4l0.9-2.4c0.1-0.2,0-0.4-0.1-0.6C22.3,15.5,22.1,15.4,21.9,15.4z M20.6,17.8h-0.7l0.5-1.2h0.7L20.6,17.8z"/>
		<path class="st1" d="M26.4,15.4h-2c-0.2,0-0.5,0.2-0.6,0.4l-0.9,2.4c-0.1,0.2,0,0.4,0.1,0.6c0.1,0.2,0.3,0.3,0.5,0.3h2
			c0.2,0,0.5-0.2,0.6-0.4l0.9-2.4c0.1-0.2,0-0.4-0.1-0.6C26.8,15.5,26.6,15.4,26.4,15.4z M25.1,17.8h-0.7l0.5-1.2h0.7L25.1,17.8z"/>
		<path class="st1" d="M1.7,6.8c7.3,4,9.7,11.5,10.2,13.4H8.8c-0.3,0-0.6,0.3-0.6,0.6c0,1.2,0.4,2.3,1.1,3.4
			c0.2,0.3,0.6,0.4,0.8,0.2c0.3-0.2,0.4-0.6,0.2-0.8c0,0,0,0,0,0h21.3c-0.3,0.5-0.7,1-1.2,1.4c-0.2,0.2-0.3,0.6,0,0.9
			c0.1,0.1,0.3,0.2,0.4,0.2c0.1,0,0.3-0.1,0.4-0.2c1.6-1.5,2.5-3.2,2.5-5c0-0.3-0.3-0.6-0.6-0.6h-3.4v-6.4c0-0.3-0.3-0.6-0.6-0.6
			H17.7c-0.3,0-0.5,0.2-0.6,0.4l-1.5,6.5h-2.4c-0.3-1.4-2.5-10-10.8-14.5C2,5.6,1.7,5.7,1.5,6C1.3,6.3,1.4,6.7,1.7,6.8z M32.2,22.4
			H9.9c-0.1,0-0.1,0-0.2,0c-0.1-0.3-0.2-0.7-0.2-1h23C32.4,21.7,32.3,22.1,32.2,22.4z M18.2,14.4h10.3v5.8H16.8L18.2,14.4z"/>
		<path class="st1" d="M1.7,8.4v16.4c0,0.3,0.3,0.6,0.6,0.6c0.3,0,0.6-0.3,0.6-0.6V8.4c0-0.3-0.3-0.6-0.6-0.6C2,7.8,1.7,8.1,1.7,8.4
			z"/>
		<path class="st1" d="M34.8,24.9c-1.4,0-2.1,0.8-2.8,1.4c-0.6,0.6-1.1,1.2-2.3,1.2c-1.1,0-1.6-0.6-2.3-1.2
			c-0.6-0.7-1.4-1.4-2.8-1.4c-1.4,0-2.1,0.8-2.8,1.4c-0.6,0.6-1.1,1.2-2.3,1.2c-1.1,0-1.6-0.6-2.3-1.2c-0.6-0.7-1.4-1.4-2.8-1.4
			s-2.1,0.8-2.8,1.4c-0.6,0.6-1.1,1.2-2.3,1.2s-1.6-0.6-2.3-1.2c-0.6-0.7-1.4-1.4-2.8-1.4c-0.2,0-0.4,0.3-0.4,0.6s0.2,0.6,0.4,0.6
			c1.1,0,1.6,0.6,2.3,1.2c0.6,0.7,1.4,1.4,2.8,1.4c1.4,0,2.1-0.8,2.8-1.4c0.6-0.6,1.1-1.2,2.3-1.2c1.1,0,1.6,0.6,2.3,1.2
			c0.6,0.7,1.4,1.4,2.8,1.4c1.4,0,2.1-0.8,2.8-1.4c0.6-0.6,1.1-1.2,2.3-1.2c1.1,0,1.6,0.6,2.3,1.2c0.6,0.7,1.4,1.4,2.8,1.4
			c1.4,0,2.1-0.8,2.8-1.4c0.6-0.6,1.1-1.2,2.3-1.2c0.2,0,0.4-0.3,0.4-0.6S35,24.9,34.8,24.9z"/>
	</g>
</g>
<g id="레이어_2">
</g>
</svg>
