<?xml version="1.0" encoding="utf-8"?>
<!-- Generator: Adobe Illustrator 24.2.1, SVG Export Plug-In . SVG Version: 6.00 Build 0)  -->
<svg version="1.1" id="레이어_1" xmlns="http://www.w3.org/2000/svg" xmlns:xlink="http://www.w3.org/1999/xlink" x="0px"
	 y="0px" width="16px" height="16px" viewBox="0 0 16 16" style="enable-background:new 0 0 16 16;" xml:space="preserve">
<style type="text/css">
	.st0{fill:#FFFFFF;}
</style>
<path class="st0" d="M8.64,4.67c1.45,0.06,2.63,1.24,2.68,2.69C11.34,7.72,11.63,8,11.99,8c0.01,0,0.02,0,0.03,0
	c0.37-0.01,0.65-0.32,0.64-0.69c-0.08-2.14-1.82-3.88-3.96-3.97C8.34,3.33,8.02,3.6,8,3.97C7.99,4.34,8.27,4.65,8.64,4.67z M8,0
	C7.63,0,7.33,0.3,7.33,0.67S7.63,1.33,8,1.33c3.68,0,6.67,2.99,6.67,6.67c0,0.37,0.3,0.67,0.67,0.67C15.7,8.67,16,8.37,16,8
	C16,3.59,12.41,0,8,0z M10.67,9.33c-1.33,0-2.5,0.78-3.03,1.94c-1.25-0.64-2.27-1.66-2.91-2.91c1.16-0.53,1.94-1.7,1.94-3.03
	C6.67,3.5,5.17,2,3.33,2S0,3.5,0,5.33C0,11.21,4.79,16,10.67,16C12.5,16,14,14.5,14,12.67S12.5,9.33,10.67,9.33z M10.67,14.67
	c-5.15,0-9.33-4.19-9.33-9.33c0-1.1,0.9-2,2-2s2,0.9,2,2c0,0.97-0.69,1.79-1.63,1.96L2.91,7.44L3.2,8.19
	c0.81,2.12,2.49,3.8,4.61,4.61l0.75,0.29L8.7,12.3c0.17-0.95,1-1.63,1.96-1.63c1.1,0,2,0.9,2,2S11.77,14.67,10.67,14.67z"/>
</svg>
