<?xml version="1.0" encoding="utf-8"?>
<!-- Generator: Adobe Illustrator 24.2.1, SVG Export Plug-In . SVG Version: 6.00 Build 0)  -->
<svg version="1.1" id="레이어_1" xmlns="http://www.w3.org/2000/svg" xmlns:xlink="http://www.w3.org/1999/xlink" x="0px"
	 y="0px" width="16px" height="16px" viewBox="0 0 16 16" style="enable-background:new 0 0 16 16;" xml:space="preserve">
<style type="text/css">
	.st0{fill:none;stroke:#979797;stroke-width:1.5;stroke-miterlimit:10;}
	.st1{fill:#979797;}
</style>
<path class="st0" d="M15,8c0,3.87-3.13,7-7,7c-3.87,0-7-3.13-7-7c0-3.87,3.13-7,7-7C11.87,1,15,4.13,15,8z"/>
<path class="st1" d="M7.99,13.09c-0.5,0-0.9-0.4-0.9-0.9c0-0.5,0.41-0.9,0.9-0.9s0.9,0.4,0.9,0.9C8.89,12.68,8.48,13.09,7.99,13.09z
	"/>
<path class="st1" d="M8.47,10.22H7.5L7.08,3.99c0-0.5,0.4-0.91,0.9-0.91s0.9,0.4,0.9,0.9L8.47,10.22z"/>
</svg>
