<?xml version="1.0" encoding="utf-8"?>
<!-- Generator: Adobe Illustrator 24.2.1, SVG Export Plug-In . SVG Version: 6.00 Build 0)  -->
<svg version="1.1" id="레이어_1" xmlns="http://www.w3.org/2000/svg" xmlns:xlink="http://www.w3.org/1999/xlink" x="0px"
	 y="0px" width="50px" height="42px" viewBox="0 0 50 42" style="enable-background:new 0 0 50 42;" xml:space="preserve">
<style type="text/css">
	.st0{fill:#D6E3ED;}
	.st1{fill:#FFFFFF;}
	.st2{fill:#FFBF3B;}
	.st3{fill:#F62459;}
</style>
<g>
	<circle class="st0" cx="25" cy="21" r="19.8"/>
	<rect x="5.2" y="10" transform="matrix(0.9659 -0.2588 0.2588 0.9659 -4.5833 7.186)" class="st1" width="39.5" height="22"/>
	<path class="st2" d="M40.9,13.6c-0.8-1.8-0.4-3.8,1-5c0.7-0.6,0.8-1.7,0.4-2.5l-2-4.3c-0.5-1.1-1.8-1.6-2.9-1.1L1.5,17.4
		c-1.1,0.5-1.6,1.8-1.1,2.9l2,4.3c0.4,0.8,1.2,1.4,2.1,1.3c1.8-0.2,3.7,0.7,4.5,2.5c0.8,1.8,0.4,3.8-1,5c-0.7,0.6-0.8,1.7-0.4,2.5
		l2,4.3c0.5,1.1,1.8,1.6,2.9,1.1l35.8-16.7c1.1-0.5,1.6-1.8,1.1-2.9l-2-4.3c-0.4-0.8-1.2-1.4-2.1-1.3C43.6,16.3,41.7,15.3,40.9,13.6
		z"/>
	<g>
		<path class="st3" d="M42,16.5c-0.5-1.9,0.3-3.8,1.8-4.8c0.8-0.5,1-1.5,0.8-2.4l-1.2-4.6c-0.3-1.2-1.5-1.9-2.7-1.6L2.5,13.4
			c-1.2,0.3-1.9,1.5-1.6,2.7l1.2,4.6c0.2,0.9,1,1.6,1.9,1.7c1.8,0.1,3.5,1.4,4,3.2c0.5,1.9-0.3,3.8-1.8,4.8c-0.8,0.5-1,1.5-0.8,2.4
			l1.2,4.6c0.3,1.2,1.5,1.9,2.7,1.6l38.2-10.2c1.2-0.3,1.9-1.5,1.6-2.7l-1.2-4.6c-0.2-0.9-1-1.6-1.9-1.7
			C44.1,19.6,42.5,18.3,42,16.5z"/>
		<g>
			<path class="st1" d="M19.2,15.7c2.1-0.6,3.7,0.7,4.3,2.8c0.7,2.6-0.6,4.4-2.4,4.8c-1.9,0.5-3.7-0.5-4.4-2.8
				C16.2,18.3,17.1,16.3,19.2,15.7L19.2,15.7z M19.5,17.3c-0.9,0.2-1,1.3-0.6,2.6c0.3,1.3,1,2.1,1.9,1.9c0.8-0.2,1-1.2,0.6-2.6
				C21,18,20.4,17.1,19.5,17.3L19.5,17.3z M22.6,28.5l3.7-14.6l1.5-0.4L24.2,28L22.6,28.5z M29.4,18.5c2.1-0.6,3.7,0.7,4.3,2.8
				c0.7,2.6-0.6,4.4-2.4,4.8c-1.9,0.5-3.7-0.5-4.3-2.8C26.4,21.1,27.3,19,29.4,18.5L29.4,18.5z M29.8,20.1c-0.9,0.2-1,1.3-0.6,2.5
				c0.3,1.3,1,2.1,1.8,1.9s1-1.2,0.6-2.5C31.3,20.7,30.7,19.8,29.8,20.1L29.8,20.1z"/>
		</g>
	</g>
</g>
</svg>
