<?xml version="1.0" encoding="utf-8"?>
<!-- Generator: Adobe Illustrator 24.2.1, SVG Export Plug-In . SVG Version: 6.00 Build 0)  -->
<svg version="1.1" id="레이어_1" xmlns="http://www.w3.org/2000/svg" xmlns:xlink="http://www.w3.org/1999/xlink" x="0px"
	 y="0px" width="64px" height="64px" viewBox="0 0 64 64" style="enable-background:new 0 0 64 64;" xml:space="preserve">
<style type="text/css">
	.st0{fill:#3683D5;stroke:#3683D5;stroke-width:0.5277;stroke-miterlimit:10;}
	.st1{fill:#3683D5;}
</style>
<g>
	<path class="st0" d="M50.6,21.2h-4.3c-0.1-3.2-1.4-6.3-3.6-8.8l3-3c0.3-0.3,0.3-0.7,0-0.9c-0.3-0.3-0.7-0.3-0.9,0l-3,3
		c-2.4-2.2-5.5-3.5-8.8-3.7V3.6c0-0.4-0.3-0.7-0.7-0.7s-0.7,0.3-0.7,0.7v4.3c-3.3,0.2-6.4,1.4-8.8,3.7l-3-3c-0.3-0.3-0.7-0.3-0.9,0
		c-0.3,0.3-0.3,0.7,0,0.9l3,3c-2.3,2.5-3.5,5.6-3.6,8.8h-4.3c-0.4,0-0.7,0.3-0.7,0.7c0,0.4,0.3,0.7,0.7,0.7h4.3
		c0.1,3.2,1.4,6.3,3.6,8.8l-3,3c-0.3,0.3-0.3,0.7,0,0.9c0.1,0.1,0.3,0.2,0.5,0.2c0.2,0,0.3-0.1,0.5-0.2l3-3c2.4,2.2,5.5,3.5,8.8,3.7
		v4.3c0,0.4,0.3,0.7,0.7,0.7s0.7-0.3,0.7-0.7V36c3.3-0.2,6.4-1.4,8.8-3.7l3,3c0.1,0.1,0.3,0.2,0.5,0.2c0.2,0,0.3-0.1,0.5-0.2
		c0.3-0.3,0.3-0.7,0-0.9l-3-3c2.3-2.5,3.5-5.6,3.6-8.8h4.3c0.4,0,0.7-0.3,0.7-0.7C51.2,21.5,50.9,21.2,50.6,21.2z M41.3,30.9
		c-0.2,0.2-0.3,0.3-0.5,0.4c-2.2,2-4.9,3.1-7.9,3.3c-0.2,0-0.4,0-0.7,0c-0.2,0-0.4,0-0.7,0c-2.9-0.2-5.7-1.3-7.9-3.3
		c-0.2-0.1-0.3-0.3-0.5-0.4c-0.2-0.2-0.3-0.3-0.4-0.5c-2-2.2-3.1-5-3.3-7.9c0-0.4,0-0.9,0-1.3c0.1-2.8,1.2-5.6,3.3-7.9
		c0.1-0.2,0.3-0.3,0.4-0.5c0.2-0.2,0.3-0.3,0.5-0.4c2.2-2,4.9-3.1,7.9-3.3c0.2,0,0.4,0,0.7,0c0.2,0,0.4,0,0.7,0
		c2.9,0.2,5.7,1.3,7.9,3.3c0.2,0.1,0.3,0.3,0.5,0.4c0.2,0.2,0.3,0.3,0.4,0.5c2,2.2,3.1,5,3.3,7.9c0,0.4,0,0.9,0,1.3
		c-0.1,2.8-1.2,5.6-3.3,7.9C41.6,30.6,41.4,30.8,41.3,30.9z"/>
	<path class="st0" d="M40.4,14.6c-0.1-0.2-0.3-0.3-0.4-0.5c-0.2-0.2-0.3-0.3-0.5-0.4c-1.8-1.6-4.2-2.6-6.6-2.7c-0.2,0-0.4,0-0.7,0
		c-0.2,0-0.4,0-0.7,0c-2.5,0.1-4.8,1.1-6.6,2.7c-0.2,0.1-0.3,0.3-0.5,0.4c-0.2,0.2-0.3,0.3-0.4,0.5c-1.7,1.9-2.6,4.2-2.7,6.6
		c0,0.4,0,0.9,0,1.3c0.1,2.4,1.1,4.7,2.7,6.6c0.1,0.2,0.3,0.3,0.4,0.5c0.2,0.2,0.3,0.3,0.5,0.4c1.8,1.6,4.2,2.6,6.6,2.7
		c0.2,0,0.4,0,0.7,0c0.2,0,0.4,0,0.7,0c2.5-0.1,4.8-1.1,6.6-2.7c0.2-0.1,0.3-0.3,0.5-0.4c0.2-0.2,0.3-0.3,0.4-0.5
		c1.6-1.8,2.6-4.2,2.7-6.6c0-0.2,0-0.4,0-0.7c0-0.2,0-0.4,0-0.7C43,18.8,42.1,16.5,40.4,14.6z M32.9,31.5v-6.3
		c0.4-0.1,0.9-0.3,1.2-0.5l4.5,4.5C37,30.6,35,31.4,32.9,31.5z M31.6,12.3v6.3c-0.4,0.1-0.9,0.3-1.2,0.5l-4.5-4.5
		C27.5,13.2,29.4,12.4,31.6,12.3z M34.2,21.2c0.1,0.4,0.1,0.9,0,1.3c0,0.1-0.1,0.2-0.1,0.2c-0.1,0.2-0.2,0.4-0.4,0.6
		c-0.2,0.2-0.4,0.3-0.6,0.4c-0.1,0-0.2,0.1-0.2,0.1c-0.2,0.1-0.4,0.1-0.7,0.1c-0.2,0-0.5,0-0.7-0.1c-0.1,0-0.2-0.1-0.2-0.1
		c-0.2-0.1-0.4-0.2-0.6-0.4c-0.2-0.2-0.3-0.4-0.4-0.6c0-0.1-0.1-0.2-0.1-0.2c-0.1-0.4-0.1-0.9,0-1.3c0-0.1,0.1-0.2,0.1-0.2
		c0.1-0.2,0.2-0.4,0.4-0.6c0.2-0.2,0.4-0.3,0.6-0.4c0.1,0,0.2-0.1,0.2-0.1c0.2-0.1,0.4-0.1,0.7-0.1c0.2,0,0.4,0,0.7,0.1
		c0.1,0,0.2,0.1,0.2,0.1c0.2,0.1,0.4,0.2,0.6,0.4c0.2,0.2,0.3,0.4,0.4,0.6C34.1,21.1,34.1,21.2,34.2,21.2z M34.1,19.1
		c-0.4-0.2-0.8-0.4-1.2-0.5v-6.3c2.1,0.1,4.1,1,5.7,2.3L34.1,19.1z M29.4,20c-0.3,0.4-0.4,0.8-0.5,1.2h-6.3c0.1-2,0.9-4,2.3-5.7
		L29.4,20z M28.9,22.6c0.1,0.4,0.3,0.8,0.5,1.2l-4.5,4.5c-1.4-1.6-2.2-3.6-2.3-5.7H28.9z M30.3,24.7c0.4,0.2,0.8,0.4,1.2,0.5v6.3
		c-2.1-0.1-4.1-1-5.7-2.4L30.3,24.7z M35.1,23.8c0.3-0.4,0.4-0.8,0.5-1.2h6.3c-0.1,2.1-1,4.1-2.4,5.7L35.1,23.8z M35.6,21.2
		c-0.1-0.4-0.3-0.8-0.5-1.2l4.5-4.5c1.4,1.6,2.2,3.6,2.3,5.7H35.6z"/>
	<path class="st0" d="M32.8,21.3c0,0-0.1,0-0.1-0.1c-0.1-0.1-0.2-0.1-0.4-0.2c0,0-0.1,0-0.1,0c0,0-0.1,0-0.1,0
		c-0.1,0-0.3,0.1-0.4,0.2c0,0-0.1,0-0.1,0.1c0,0,0,0.1-0.1,0.1c-0.1,0.1-0.1,0.2-0.2,0.4c0,0.1,0,0.2,0,0.2c0,0.1,0.1,0.3,0.2,0.4
		c0,0,0,0.1,0.1,0.1c0,0,0.1,0,0.1,0.1c0.1,0.1,0.2,0.1,0.4,0.2c0,0,0.1,0,0.1,0c0,0,0.1,0,0.1,0c0.1,0,0.3-0.1,0.4-0.2
		c0,0,0.1,0,0.1-0.1c0,0,0-0.1,0.1-0.1C33,22.3,33,22.2,33,22c0-0.1,0-0.2,0-0.2c0-0.1-0.1-0.3-0.2-0.4
		C32.9,21.4,32.9,21.3,32.8,21.3z"/>
</g>
<g>
	<path class="st1" d="M14.5,57.6v1.7h-11v-1.7H14.5z M11.8,55.2L9,49.5l-2.8,5.6H3.9l3.8-8h2.4l3.8,8H11.8z"/>
	<path class="st1" d="M15.6,59.2v-12h6.3v12H15.6z M17.5,57.5h2.4v-8.5h-2.4V57.5z M23.5,59.2V47.1h1.8v4h1.3v1.7h-1.3v6.3H23.5z"/>
	<path class="st1" d="M37.7,57.6v1.7h-11v-1.7H37.7z M37.1,47.2v1.7h-7.8v1.5h7.8v1.7h-7.8v1.4h7.8v1.7h-9.8v-8H37.1z"/>
	<path class="st1" d="M49.3,52.5v1.6h-11v-1.6H49.3z M48.9,51.6h-2.5l-2.5-2.9l-2.5,2.9h-2.5l3.8-4.4h2.4L48.9,51.6z M41.2,54.9h5.4
		c1.3,0,2.3,0.9,2.3,2.2c0,1.3-1,2.2-2.3,2.2h-5.4c-1.3,0-2.3-0.9-2.3-2.2C38.9,55.8,39.9,54.9,41.2,54.9z M41.2,57.7h5.4
		c0.3,0,0.5-0.3,0.5-0.6c0-0.3-0.2-0.6-0.5-0.6h-5.4c-0.3,0-0.5,0.3-0.5,0.6C40.6,57.4,40.9,57.7,41.2,57.7z"/>
	<path class="st1" d="M54.5,47.2l2.5,6.5h-2l-1.6-4l-1.6,4h-2l2.5-6.5H54.5z M52.7,57.5h6v-6.3h-2v-1.7h2v-2.3h1.8v12.1h-9.7v-3.9
		h1.8V57.5z"/>
</g>
</svg>
