<?xml version="1.0" encoding="utf-8"?>
<!-- Generator: Adobe Illustrator 24.2.1, SVG Export Plug-In . SVG Version: 6.00 Build 0)  -->
<svg version="1.1" id="레이어_1" xmlns="http://www.w3.org/2000/svg" xmlns:xlink="http://www.w3.org/1999/xlink" x="0px"
	 y="0px" width="24px" height="24px" viewBox="0 0 24 24" style="enable-background:new 0 0 24 24;" xml:space="preserve">
<style type="text/css">
	.st0{fill:#333333;stroke:#333333;stroke-width:0.25;stroke-miterlimit:10;}
</style>
<path class="st0" d="M23.4,17H0.5c-0.2,0-0.3,0.1-0.3,0.3c0,0.2,0.1,0.3,0.3,0.3h22.9c0.2,0,0.3-0.1,0.3-0.3
	C23.7,17.2,23.6,17,23.4,17z"/>
<path class="st0" d="M20.7,20.1c0.2,0,0.3-0.1,0.3-0.3c0-0.2-0.1-0.3-0.3-0.3h-3.9c-0.2,0-0.3,0.1-0.3,0.3c0,0.2,0.1,0.3,0.3,0.3
	H20.7z"/>
<path class="st0" d="M14.3,19.5H2.7c-0.2,0-0.3,0.1-0.3,0.3c0,0.2,0.1,0.3,0.3,0.3h11.7c0.2,0,0.3-0.1,0.3-0.3
	C14.7,19.6,14.5,19.5,14.3,19.5z"/>
<path class="st0" d="M5.9,22.3c0,0.2,0.1,0.3,0.3,0.3h11c0.2,0,0.3-0.1,0.3-0.3c0-0.2-0.1-0.3-0.3-0.3h-11C6,21.9,5.9,22.1,5.9,22.3
	z"/>
<g>
	<path class="st0" d="M11.2,15.1c2,0,3.8-0.8,5.1-2.3c0.1-0.1,0.1-0.2,0-0.3c-0.1-0.1-0.2-0.1-0.3-0.1c-0.4,0.1-0.8,0.1-1.2,0.1
		C11.6,12.5,9,9.9,9,6.7c0-1.8,0.9-3.6,2.4-4.7c0.1-0.1,0.1-0.2,0.1-0.3c0-0.1-0.1-0.2-0.2-0.2l0,0c0,0-0.1,0-0.1,0
		c-3.7,0-6.7,3-6.7,6.7C4.4,12.1,7.5,15.1,11.2,15.1z M10.5,2.2c-1.3,1.2-2,2.8-2,4.6c0,3.5,2.8,6.3,6.3,6.3c0.2,0,0.4,0,0.6,0
		c-1.1,1-2.6,1.6-4.2,1.6c-3.4,0-6.2-2.8-6.2-6.2C4.9,5.1,7.4,2.5,10.5,2.2z"/>
	<path class="st0" d="M13.8,6.7c0-0.1-0.1-0.3-0.3-0.3c-0.1,0-0.3,0.1-0.3,0.3v0.4c0,0.1,0.1,0.3,0.3,0.3c0.1,0,0.3-0.1,0.3-0.3V6.7
		z"/>
	<path class="st0" d="M13.5,9.2c0.1,0,0.3-0.1,0.3-0.3V8.5c0-0.1-0.1-0.3-0.3-0.3c-0.1,0-0.3,0.1-0.3,0.3v0.4
		C13.3,9,13.4,9.2,13.5,9.2z"/>
	<path class="st0" d="M12.4,7.5c-0.1,0-0.3,0.1-0.3,0.3c0,0.1,0.1,0.3,0.3,0.3h0.4c0.1,0,0.3-0.1,0.3-0.3c0-0.1-0.1-0.3-0.3-0.3
		H12.4z"/>
	<path class="st0" d="M14.2,7.5c-0.1,0-0.3,0.1-0.3,0.3c0,0.1,0.1,0.3,0.3,0.3h0.4c0.1,0,0.3-0.1,0.3-0.3c0-0.1-0.1-0.3-0.3-0.3
		H14.2z"/>
	<path class="st0" d="M20.5,9.3c0-0.1-0.1-0.3-0.3-0.3C20.1,9,20,9.1,20,9.3v0.6c0,0.1,0.1,0.3,0.3,0.3c0.1,0,0.3-0.1,0.3-0.3V9.3z"
		/>
	<path class="st0" d="M20.3,11c-0.1,0-0.3,0.1-0.3,0.3v0.6c0,0.1,0.1,0.3,0.3,0.3c0.1,0,0.3-0.1,0.3-0.3v-0.6
		C20.5,11.1,20.4,11,20.3,11z"/>
	<path class="st0" d="M19,10.3c-0.1,0-0.3,0.1-0.3,0.3s0.1,0.3,0.3,0.3h0.6c0.1,0,0.3-0.1,0.3-0.3s-0.1-0.3-0.3-0.3H19z"/>
	<path class="st0" d="M21.8,10.6c0-0.1-0.1-0.3-0.3-0.3h-0.6c-0.1,0-0.3,0.1-0.3,0.3s0.1,0.3,0.3,0.3h0.6
		C21.7,10.8,21.8,10.7,21.8,10.6z"/>
	<path class="st0" d="M16,2.3C16,2.1,15.9,2,15.8,2c-0.1,0-0.3,0.1-0.3,0.3v1c0,0.1,0.1,0.3,0.3,0.3c0.1,0,0.3-0.1,0.3-0.3V2.3z"/>
	<path class="st0" d="M15.8,4.5c-0.1,0-0.3,0.1-0.3,0.3v1c0,0.1,0.1,0.3,0.3,0.3C15.9,6,16,5.9,16,5.7v-1C16,4.6,15.9,4.5,15.8,4.5z
		"/>
	<path class="st0" d="M15.3,4c0-0.1-0.1-0.3-0.3-0.3h-1c-0.1,0-0.3,0.1-0.3,0.3c0,0.1,0.1,0.3,0.3,0.3h1C15.1,4.3,15.3,4.1,15.3,4z"
		/>
	<path class="st0" d="M16.5,4.3h1c0.1,0,0.3-0.1,0.3-0.3c0-0.1-0.1-0.3-0.3-0.3h-1c-0.1,0-0.3,0.1-0.3,0.3
		C16.2,4.1,16.4,4.3,16.5,4.3z"/>
</g>
</svg>
