<?xml version="1.0" encoding="utf-8"?>
<!-- Generator: Adobe Illustrator 24.2.1, SVG Export Plug-In . SVG Version: 6.00 Build 0)  -->
<svg version="1.1" id="레이어_1" xmlns="http://www.w3.org/2000/svg" xmlns:xlink="http://www.w3.org/1999/xlink" x="0px"
	 y="0px" width="16px" height="16px" viewBox="0 0 16 16" style="enable-background:new 0 0 16 16;" xml:space="preserve">
<style type="text/css">
	.st0{fill:#333333;stroke:#333333;stroke-width:0.7;stroke-miterlimit:10;}
</style>
<path id="XMLID_428_" class="st0" d="M0.6,7.8L0.6,7.8C0.6,7.9,0.6,7.9,0.6,7.8V8v0.1c0,0,0,0,0,0.1l0,0v0.1l0,0c0,0,0,0.1,0.1,0.1
	l6.9,6.9c0.1,0.1,0.2,0.1,0.3,0.1c0.1,0,0.2-0.1,0.3-0.1c0.1-0.1,0.1-0.4,0-0.6L2,8.4h13.1c0.2,0,0.4-0.2,0.4-0.4
	c0-0.2-0.2-0.4-0.4-0.4H2l6.2-6.2c0.1-0.1,0.1-0.4,0-0.6s-0.4-0.1-0.6,0L0.6,7.7C0.6,7.7,0.6,7.7,0.6,7.8C0.6,7.8,0.6,7.8,0.6,7.8
	C0.6,7.8,0.6,7.8,0.6,7.8z"/>
</svg>
