<?xml version="1.0" encoding="utf-8"?>
<!-- Generator: Adobe Illustrator 24.2.1, SVG Export Plug-In . SVG Version: 6.00 Build 0)  -->
<svg version="1.1" id="Layer_1" xmlns="http://www.w3.org/2000/svg" xmlns:xlink="http://www.w3.org/1999/xlink" x="0px" y="0px"
	 width="30px" height="30px" viewBox="0 0 30 30" style="enable-background:new 0 0 30 30;" xml:space="preserve">
<style type="text/css">
	.st0{fill:#FFFFFF;stroke:#FFFFFF;stroke-width:0.5;stroke-miterlimit:10;}
</style>
<g>
	<path class="st0" d="M25.7,3.7H4.3c-1.1,0-2,0.9-2,2v1.8c0,1.1,0.9,2,2,2h0.3v7c0,5.8,4.7,10.5,10.5,10.5s10.5-4.7,10.5-10.5v-7
		h0.3c1.1,0,2-0.9,2-2V5.8C27.8,4.6,26.9,3.7,25.7,3.7z M24.2,16.6c0,5-4.1,9.2-9.2,9.2c-5,0-9.2-4.1-9.2-9.2v-7h18.3V16.6z
		 M26.5,7.6c0,0.4-0.3,0.7-0.7,0.7h-0.3H4.5H4.3C3.9,8.3,3.5,8,3.5,7.6V5.8C3.5,5.3,3.9,5,4.3,5h21.5c0.4,0,0.7,0.3,0.7,0.7V7.6z"/>
	<path class="st0" d="M16.8,24.2c2.5,0,4.5-2,4.5-4.5c0-2.5-2-4.5-4.5-4.5c-2.5,0-4.5,2-4.5,4.5C12.3,22.1,14.3,24.2,16.8,24.2z
		 M16.8,16.4c1.8,0,3.2,1.5,3.2,3.2c0,1.8-1.5,3.2-3.2,3.2c-1.8,0-3.2-1.5-3.2-3.2C13.6,17.9,15.1,16.4,16.8,16.4z"/>
	<path class="st0" d="M16.8,21.7c1.1,0,2-0.9,2-2c0-1.1-0.9-2-2-2c-1.1,0-2,0.9-2,2C14.8,20.8,15.7,21.7,16.8,21.7z M16.8,18.9
		c0.4,0,0.7,0.3,0.7,0.7c0,0.4-0.3,0.7-0.7,0.7c-0.4,0-0.7-0.3-0.7-0.7C16.1,19.2,16.4,18.9,16.8,18.9z"/>
</g>
</svg>
