<?xml version="1.0" encoding="utf-8"?>
<!-- Generator: Adobe Illustrator 24.2.1, SVG Export Plug-In . SVG Version: 6.00 Build 0)  -->
<svg version="1.1" id="레이어_1" xmlns="http://www.w3.org/2000/svg" xmlns:xlink="http://www.w3.org/1999/xlink" x="0px"
	 y="0px" width="24px" height="24px" viewBox="0 0 24 24" style="enable-background:new 0 0 24 24;" xml:space="preserve">
<style type="text/css">
	.st0{fill:none;stroke:#777777;stroke-linecap:round;stroke-linejoin:round;stroke-miterlimit:10;}
</style>
<g>
	<line class="st0" x1="20.6" y1="15.7" x2="20.6" y2="15.7"/>
	<path class="st0" d="M8.7,11.7c3-0.7,5.9-4.3,5.9-8.7c0-1.1,2.1-1.2,2.7,0.8C17.9,6,16.9,8,16.1,9.9H20"/>
	<path class="st0" d="M20,9.9c0.9,0,1.5,0.7,1.5,1.5l0,0c0,0.9-0.7,1.5-1.5,1.5h-0.4"/>
	<path class="st0" d="M19.6,13c0.9,0,1.5,0.7,1.5,1.5l0,0c0,0.9-0.7,1.5-1.5,1.5h-0.4"/>
	<path class="st0" d="M18.8,16.1c0.9,0,1.5,0.7,1.5,1.5l0,0c0,0.9-0.7,1.5-1.5,1.5h-0.4"/>
	<path class="st0" d="M19.6,13c0.9,0,1.5,0.7,1.5,1.5l0,0c0,0.9-0.7,1.5-1.5,1.5h-0.8"/>
	<path class="st0" d="M18.4,21.9h-4.2H13c-1.6,0-4.4-1.4-4.4-1.4"/>
	<path class="st0" d="M18,19.2h0.2c0.8,0,1.4,0.6,1.4,1.4l0,0c0,0.8-0.6,1.4-1.4,1.4h-0.6"/>
	<circle class="st0" cx="6.8" cy="20.4" r="0.4"/>
	<path class="st0" d="M7.7,22.2H3.5c-0.5,0-1-0.5-1-1V10.9c0-0.6,0.5-1,1-1h4.2c0.6,0,1,0.4,1,1v10.3C8.7,21.8,8.2,22.2,7.7,22.2z"
		/>
</g>
</svg>
