<?xml version="1.0" encoding="utf-8"?>
<!-- Generator: Adobe Illustrator 23.0.6, SVG Export Plug-In . SVG Version: 6.00 Build 0)  -->
<!DOCTYPE svg PUBLIC "-//W3C//DTD SVG 1.1//EN" "http://www.w3.org/Graphics/SVG/1.1/DTD/svg11.dtd" [
	<!ENTITY ns_extend "http://ns.adobe.com/Extensibility/1.0/">
	<!ENTITY ns_ai "http://ns.adobe.com/AdobeIllustrator/10.0/">
	<!ENTITY ns_graphs "http://ns.adobe.com/Graphs/1.0/">
	<!ENTITY ns_vars "http://ns.adobe.com/Variables/1.0/">
	<!ENTITY ns_imrep "http://ns.adobe.com/ImageReplacement/1.0/">
	<!ENTITY ns_sfw "http://ns.adobe.com/SaveForWeb/1.0/">
	<!ENTITY ns_custom "http://ns.adobe.com/GenericCustomNamespace/1.0/">
	<!ENTITY ns_adobe_xpath "http://ns.adobe.com/XPath/1.0/">
]>
<svg version="1.1" xmlns:x="&ns_extend;" xmlns:i="&ns_ai;" xmlns:graph="&ns_graphs;"
	 xmlns="http://www.w3.org/2000/svg" xmlns:xlink="http://www.w3.org/1999/xlink" x="0px" y="0px" width="48px" height="48px"
	 viewBox="0 0 48 48" style="enable-background:new 0 0 48 48;" xml:space="preserve">
<style type="text/css">
	.st0{fill:#C4C4C4;}
	.st1{fill:#F9E482;}
	.st2{fill:#F4D451;}
</style>
<metadata>
	<sfw  xmlns="&ns_sfw;">
		<slices></slices>
		<sliceSourceBounds  bottomLeftOrigin="true" height="47" width="47" x="1" y="-48"></sliceSourceBounds>
	</sfw>
</metadata>
<g id="Layer_2">
	<circle class="st0" cx="25" cy="25" r="23"/>
</g>
<g id="Layer_3">
	<circle class="st1" cx="24" cy="24" r="23"/>
</g>
<g id="Layer_1">
	<g>
		<g>
			<path class="st2" d="M3.5,26.2L3.5,26.2c0,0-0.1,0-0.1,0c0,0,0,0,0,0c0,0.1-0.1,0.1-0.1,0.2c-0.1,0.4,0,0.8,0,1.3c0,0,0,0,0,0
				c0,0,0,0,0,0.1c0,0,0,0,0,0.1c0,0,0,0,0,0c0.3,0.2,0.5,0.1,0.7-0.1c0,0,0-0.1,0.1-0.2c0-0.3,0-0.6-0.1-0.8c0,0,0,0,0-0.1
				c0,0-0.1-0.1-0.1-0.1c0,0,0,0,0-0.1C3.8,26.3,3.7,26.2,3.5,26.2z"/>
			<path class="st2" d="M10.3,34.2C10.4,34.1,10.4,34.1,10.3,34.2c0.1-0.1,0.1-0.1,0.1-0.1l0-0.1c-0.1-0.3-0.3-0.4-0.5-0.4
				c0,0-0.1,0-0.1,0c0,0,0,0,0,0c0,0,0,0,0,0.1c0,0,0,0.1,0,0.2c0.2,0.3,0.4,0.6,0.7,0.8c0,0,0.1,0,0.1,0c0,0,0,0,0.1,0c0,0,0,0,0,0
				c0-0.1,0-0.1,0-0.2C10.5,34.4,10.4,34.3,10.3,34.2z"/>
			<path class="st2" d="M11.6,34.5C11.6,34.4,11.5,34.4,11.6,34.5c-0.1-0.1-0.1-0.1-0.2-0.1v0c0,0-0.1,0-0.1,0c0,0,0,0.1-0.1,0.1
				c0,0,0,0,0,0c0.1,0.2,0.2,0.3,0.3,0.3c0,0,0,0,0.1,0l0,0c0,0,0,0,0-0.1c0,0,0,0,0-0.1C11.7,34.6,11.7,34.6,11.6,34.5z"/>
			<path class="st2" d="M36.6,25.5c0,0-0.1,0-0.1,0c-0.1,0.4-0.1,0.8-0.1,1.3c0,0.5,0,0.9,0.1,1.4c0,0,0,0,0.1,0.1c0,0,0,0,0,0
				c0,0,0,0,0,0.1c0,0,0,0.1,0,0.1c0.2,0.3,0.6,0.5,1.1,0.3c0,0,0.1,0.1,0.2,0.1c0.3,0.1,0.7,0.1,1,0c0.1-0.2,0.1-0.4,0.1-0.6
				c0-0.2,0-0.4,0-0.6c0.1,0,0.1-0.1,0.2-0.2c0,0,0,0,0,0c0-0.1,0-0.2,0.1-0.3v0c0,0,0-0.1,0-0.2c-0.3-0.3-0.6-0.7-0.9-0.9
				c-0.2-0.1-0.4-0.2-0.7-0.3C37.3,25.7,37,25.6,36.6,25.5L36.6,25.5C36.6,25.5,36.6,25.5,36.6,25.5z"/>
			<path class="st2" d="M36.5,29.7C36.5,29.7,36.5,29.7,36.5,29.7c0,0.1,0,0.2,0,0.2v0c0,0.1,0.1,0.2,0.1,0.3
				c0.2,0.2,0.5,0.1,0.6-0.1l0,0c0-0.2,0-0.4-0.1-0.6c0,0,0,0-0.1,0C36.9,29.4,36.7,29.5,36.5,29.7z"/>
			<path class="st2" d="M40.8,29C40.8,28.9,40.8,28.9,40.8,29c-0.2-0.1-0.4-0.1-0.5-0.1v0c0,0-0.1,0-0.1,0c0,0.1-0.1,0.2-0.2,0.3
				c0,0,0,0.1-0.1,0.1v0.1c0,0,0,0,0,0.1c0,0,0,0,0,0.1c0,0,0,0,0.1,0c0,0,0,0,0,0h0c0,0,0,0,0,0c0,0,0.1,0,0.1,0c0,0,0,0,0.1,0
				c0.1-0.1,0.1-0.1,0.2-0.2c0.1-0.1,0.2-0.2,0.3-0.3C40.8,29.1,40.8,29.1,40.8,29C40.8,29,40.8,29,40.8,29z"/>
			<path class="st2" d="M40.8,19.8C40.8,19.8,40.8,19.9,40.8,19.8c0,0.2,0,0.4,0,0.5c0,0,0,0.1,0,0.1c-0.1,0.1-0.2,0.3-0.3,0.4
				c-0.1,0.1-0.2,0.2-0.3,0.3c0,0.2,0,0.4,0,0.6c0,0.1,0,0.3,0,0.4c0,0,0,0,0,0.1c0,0,0,0-0.1,0c-0.1,0.3-0.1,0.6-0.1,0.8
				c0,0.4,0,0.7,0.2,1.1c0,0,0,0-0.1,0.1c0,0.1-0.1,0.2-0.1,0.2c0,0,0,0,0,0.1c0,0.2,0,0.4,0,0.7c0,0.1,0,0.2,0,0.3
				c0,0.1,0,0.1,0,0.1c0,0,0,0,0.1,0.1c0,0,0,0,0,0.1c0.4,0.2,0.8,0.2,1.3,0.2c0,0,0,0,0,0.1c0.1,0,0.2,0,0.2,0l0,0c0,0,0,0.1,0,0.1
				c0,0,0,0,0,0c0,0,0,0,0,0.1c0,0,0,0,0,0c0,0,0,0,0,0.1c-0.2,0.5-0.3,1.1-0.2,1.6c0,0.1,0,0.2,0,0.3c0.4,0.7,0.9,0.8,1.5,0.3
				c0,0,0-0.1,0-0.1c0-0.1,0-0.2,0-0.3c0,0,0,0,0-0.1c0,0,0,0,0,0c0-0.1,0.1-0.2,0.2-0.2c0,0,0,0,0.1,0c0-0.2,0.2-0.3,0.4-0.4
				c0.1,0,0.2,0,0.3-0.2c0,0,0-0.1,0.1-0.1c0-0.1,0.1-0.1,0.1-0.2l0-0.1c0,0,0-0.1,0-0.1c0-0.1,0.1-0.2,0.1-0.2c0-0.1,0-0.1,0-0.1
				c0-0.3,0-0.6,0-0.8c0-0.3,0-0.6,0-0.9c0.1,0,0.2-0.1,0.2-0.2c0,0,0,0,0,0c0,0,0,0,0-0.1c0,0,0,0,0,0c0,0,0,0,0,0
				c0,0,0.1-0.1,0.1-0.1c0,0,0,0,0.1,0c0.2-0.2,0.3-0.4,0.3-0.7c0-0.3,0-0.7,0-1l0,0c0-0.1-0.1-0.1-0.1-0.2c0,0,0,0,0,0
				c-0.4-0.5-0.8-0.7-1.4-0.8c-0.3-0.3-0.7-0.7-0.8-1.2c-0.3-0.7-0.8-1-1.5-1c-0.2,0-0.3,0.2-0.3,0.4C40.9,19.6,40.9,19.7,40.8,19.8
				z"/>
			<path class="st2" d="M44,28.3C43.9,28.3,43.9,28.3,44,28.3c-0.1-0.2-0.2-0.2-0.3-0.2c0,0,0,0-0.1,0c0,0-0.1,0-0.2,0
				c0,0,0,0.1,0,0.2c0,0.1,0,0.3,0.1,0.4c0.2,0.1,0.4,0.1,0.6-0.1c0,0,0-0.1,0-0.1C44,28.4,44,28.3,44,28.3z"/>
			<path class="st2" d="M26.6,11.1C26.6,11.1,26.6,11.1,26.6,11.1c-0.1,0.6,0,1.1,0.1,1.6c0.1,0.4,0.3,0.7,0.4,1.1
				c0.2,0.1,0.4,0.1,0.6,0c0,0,0.1,0,0.1-0.1c0,0,0-0.1,0.1-0.1c0.1-0.1,0.2-0.2,0.4-0.3h0.1c0.7,1.1,1.6,1.9,2.9,2.1
				c0.1,0,0.3,0.1,0.5,0.1c0.1,0,0.2,0,0.3,0.1c0,0,0,0,0,0.1c-0.1,0.1-0.2,0.3-0.3,0.4c0,0,0,0,0,0.1c0,0.3,0,0.6,0,0.9
				c0,0,0.1,0,0.1,0.1c0,0,0,0,0,0.1c-0.2,0.2-0.3,0.4-0.3,0.7c0,0,0,0.1,0,0.1c0,0.3-0.1,0.7-0.1,1c0,0,0,0.1,0,0.2
				c0,0.3,0,0.7,0,1.1c0.2,0.4,0.5,0.7,0.9,0.8c0.7,0.1,1.2,0.2,1.7,0.3h0c0,0,0,0.1,0.1,0.1c0,0.1,0,0.1,0,0.2c0,0.4,0.1,0.8,0,1.2
				c0,0,0,0,0,0c0,0,0.1,0.1,0.1,0.1c0,0,0,0.1,0,0.1c0,0.2,0,0.5,0,0.7c0.3,0.2,0.5,0.3,0.7,0.3c0,0,0,0,0,0.1c0,0,0,0.1,0,0.1
				c0.3,0.5,0.6,0.6,1.1,0.5c0,0,0,0,0.1,0c0,0,0-0.1,0.1-0.1c0,0,0,0,0,0c0-0.3,0-0.5-0.1-0.7c0,0,0,0,0-0.1
				c-0.3-0.4-0.5-0.8-0.5-1.3c0.3-0.4,0.7-0.7,1.2-1c0,0,0,0,0,0c0,0,0,0,0-0.1c0,0,0,0,0-0.1c0.1-0.2,0.1-0.5,0.1-0.7c0,0,0,0,0,0
				c0.1-0.2,0.2-0.2,0.5-0.1c0.2,0.6,0.7,0.7,1.2,0.7c0,0,0-0.1,0.1-0.2c0,0,0-0.1,0.1-0.1c0-0.1,0-0.3,0-0.4c0-0.3,0-0.6,0-0.9
				c0,0,0.1-0.1,0.2-0.1c0,0,0,0,0,0c0.2-0.3,0.4-0.7,0.6-1c0.1-0.3,0.1-0.7,0-1.1c-0.1-0.1-0.2-0.2-0.4-0.3c-0.3-0.3-0.7-0.5-1-0.6
				c0-0.1,0-0.2,0-0.2c0-0.7-0.1-1.3-0.3-1.8c0,0,0-0.1-0.1-0.2c0,0,0,0,0,0c0-0.1,0-0.1,0-0.2c0-0.2-0.1-0.4-0.3-0.5c0,0,0,0-0.1,0
				c0,0-0.1,0-0.2,0l0,0c0,0,0,0-0.1,0l0,0c0,0-0.1,0.1-0.1,0.1c0,0-0.1,0.1-0.1,0.1c0,0,0,0.1-0.1,0.2c0,0.1,0,0.2-0.1,0.3
				c-0.4,0-0.7-0.2-0.9-0.5c0-0.1-0.1-0.1-0.1-0.1c-0.3,0-0.7,0-0.9,0.1c-0.2,0-0.4,0.1-0.6,0.2c0-0.2,0.1-0.3,0.1-0.5
				c0-0.1,0.1-0.2,0.1-0.3v0c0,0,0,0,0,0c0.1-0.1,0.1-0.1,0.2-0.2c0.1-0.2,0.1-0.4,0.1-0.6c0-1-0.5-1.6-1.5-1.7c0,0-0.1-0.1-0.1-0.1
				c0,0-0.1-0.1-0.1-0.2c0,0,0,0,0,0c0,0-0.1,0-0.1-0.1c-0.1-0.1-0.2-0.3-0.4-0.4c0,0,0,0,0-0.1c0-0.1,0-0.2,0-0.2
				c0-0.3-0.1-0.6-0.3-0.9c-0.5-0.5-1-0.6-1.7-0.3c0,0.1,0,0.1,0,0.2c0,0.1,0,0.1-0.1,0.2l0,0c0,0,0,0,0,0c-0.6-0.7-1.4-1-2.5-0.8v0
				c-0.1,0-0.1,0-0.1,0l0,0c0,0,0,0-0.1,0.1c0,0-0.1,0.1-0.1,0.1l0,0c0,0,0,0.1,0,0.1c0,0.1,0,0.3,0,0.4c0,0.3-0.1,0.6-0.1,0.9
				c0,0.2,0,0.5,0,0.7c0,0-0.1,0.1-0.1,0.1C27,10.8,26.8,10.9,26.6,11.1z"/>
			<path class="st2" d="M44.6,16.4c0,0,0.1,0,0.1-0.1c0.1-1.1-0.4-2-1.4-2.7c-0.2-0.1-0.3-0.2-0.4-0.3c-0.6-0.4-1.2-0.7-1.9-0.6
				c0,0,0,0-0.1,0c-0.2,0.2-0.3,0.5-0.3,0.8c0,0.1,0,0.2,0,0.3c0,0,0,0,0,0.1c0,0,0,0,0,0.1c0.1,0.3,0.1,0.6,0.2,0.8
				c0.1,0.2,0.1,0.4,0.3,0.6c0,0.3,0.1,0.6,0.3,0.9c0.1,0.3,0.4,0.7,0.6,1c0,0,0.1,0,0.1,0c0.5,0.1,0.9,0.2,1.4,0.1c0,0,0-0.1,0-0.2
				c0-0.2,0-0.4,0-0.6c0-0.1,0-0.1,0-0.3C44.1,16.4,44.4,16.4,44.6,16.4z"/>
			<path class="st2" d="M39.4,11.6C39.4,11.6,39.4,11.6,39.4,11.6c0,0.1,0,0.2,0,0.3c0,0,0,0.1,0,0.1c0,0,0,0,0,0
				c0,0.1,0.1,0.1,0.3,0.2c0,0,0,0,0.1,0c0,0,0,0,0-0.1c0,0,0,0,0-0.1c0,0,0,0,0-0.1c0,0,0-0.1,0-0.1c0,0,0-0.1,0-0.1c0,0,0,0,0,0
				c-0.1,0-0.2,0-0.3,0C39.5,11.6,39.5,11.6,39.4,11.6z"/>
			<path class="st2" d="M44.6,17.4c0,0-0.1,0-0.1,0c-0.1,0.2-0.1,0.4,0,0.6c0,0.2,0.2,0.3,0.4,0.4c0,0,0,0,0.1,0c0,0,0,0,0,0
				c0,0,0.1-0.1,0.1-0.2c0-0.1,0-0.3,0-0.5c0,0,0,0,0-0.1C44.9,17.4,44.7,17.4,44.6,17.4z"/>
			<path class="st2" d="M13.3,37.4C13.3,37.4,13.3,37.4,13.3,37.4c0.1,0,0.1-0.1,0.1-0.2c0-0.1,0-0.1,0-0.2c0,0,0,0,0,0
				c-0.1-0.1-0.4-0.3-0.7-0.3c-0.1,0-0.2,0-0.3,0.1c0,0,0,0.1,0,0.1c0,0.2,0.2,0.4,0.5,0.3c0,0,0,0,0.1,0
				C13,37.4,13.1,37.4,13.3,37.4C13.2,37.4,13.2,37.4,13.3,37.4z"/>
			<path class="st2" d="M41.3,34.6C41.3,34.6,41.3,34.6,41.3,34.6c-0.4,0.2-0.6,0.5-0.7,0.8c0,0,0,0-0.1,0c0,0.1,0,0.1,0,0.1
				c0,0,0,0,0,0c0,0,0,0.1,0,0.2l0,0c0,0,0,0,0,0c0.1,0,0.2,0,0.3,0c0,0,0,0,0,0c0.1-0.1,0.2-0.2,0.3-0.3c0,0,0.1,0,0.2,0
				c0,0,0,0,0,0c0,0.1,0,0.1,0,0.1c0,0,0,0-0.1,0c0,0,0,0.1-0.1,0.1c0,0,0,0,0,0.1c0,0,0,0,0,0c0,0.1,0,0.1,0,0.1
				c-0.1,0.2-0.3,0.3-0.6,0.5c0,0,0,0,0,0c0,0,0,0,0,0v0c0.2,0.2,0.4,0.2,0.6,0.1c0.3-0.2,0.6-0.5,0.7-0.8c0.2-0.3,0.2-0.6,0.1-0.8
				C41.9,34.8,41.6,34.6,41.3,34.6z M41.3,34.9C41.2,34.9,41.2,34.9,41.3,34.9C41.2,34.9,41.2,34.9,41.3,34.9L41.3,34.9z"/>
			<path class="st2" d="M14.6,41.1c0-0.2-0.1-0.4-0.2-0.6c-0.2-0.3-0.4-0.5-0.7-0.6c-0.2,0-0.3-0.1-0.5-0.1c-0.1,0-0.2,0-0.2,0v0
				c-0.1,0-0.2,0-0.2,0c0,0-0.1,0.1-0.2,0.1v0c0,0.1,0,0.1,0,0.2c0,0.1,0,0.1,0,0.2c0,0,0,0,0,0.1c0.1,0.1,0.2,0.1,0.3,0.3
				c0,0,0,0,0,0c0,0,0,0,0,0c0,0,0.1,0.1,0.1,0.2c0,0,0,0,0.1,0c0,0,0.1,0.1,0.1,0.2c0.1,0,0.1,0,0.2,0c0,0,0,0,0-0.1c0,0,0,0,0,0
				c0,0,0,0,0,0c0-0.1,0-0.1,0-0.1c-0.1-0.1-0.1-0.2-0.2-0.3c0,0-0.1-0.1,0-0.2v0c0.1,0,0.1,0,0.3,0c0.1,0,0.2,0,0.3,0.1v0
				c0,0,0,0,0.1,0.1c0,0,0.1,0,0.2,0c0.1,0.1,0.2,0.3,0.2,0.5c0,0,0,0,0.1,0C14.5,41.2,14.5,41.2,14.6,41.1
				C14.6,41.1,14.6,41.1,14.6,41.1C14.6,41.1,14.6,41.1,14.6,41.1z"/>
			<path class="st2" d="M23.5,38.3C23.5,38.4,23.5,38.4,23.5,38.3c0,0.2,0,0.2,0,0.3c0,0.1,0,0.1,0,0.2c0,0,0,0-0.1,0.1
				c0,0-0.1,0.1-0.1,0.2c0,0,0,0,0,0c0,0,0,0,0,0c0.1,0,0.2,0.1,0.2,0l0.1,0c0.1-0.1,0.1-0.3,0.1-0.4c0-0.7-0.4-1.1-1.2-1.3
				c-0.2,0-0.3,0-0.5,0c0,0,0,0.1,0,0.1c0,0.1-0.1,0.1-0.1,0.1c0,0,0,0,0,0c0,0,0.1,0,0.1,0C22.7,37.8,23.1,37.9,23.5,38.3z"/>
			<path class="st2" d="M23.3,38.8C23.3,38.8,23.3,38.8,23.3,38.8c-0.2-0.4-0.4-0.6-0.8-0.6c-0.2,0-0.3,0-0.5,0.1c0,0,0,0,0,0.1
				c0,0-0.1,0-0.2,0c0,0,0,0-0.1-0.1c0,0,0,0,0,0.1c0,0,0,0,0,0.1l0,0c0,0.1,0.1,0.1,0.1,0.2c0.4,0.5,0.9,0.6,1.4,0.4v0
				c0,0,0,0,0.1,0c0,0,0,0,0,0C23.3,38.9,23.3,38.9,23.3,38.8z"/>
			<path class="st2" d="M29.2,5C29.2,5,29.2,5,29.2,5c-0.4,0.3-0.5,0.5-0.5,0.8c0,0.1,0,0.3,0,0.4c0,0,0.1,0,0.1,0.1
				c0.1,0.1,0.2,0.2,0.3,0.2c0,0,0,0,0,0c0,0.1,0,0.2,0.1,0.2c0,0,0.1,0.1,0.1,0.2c0,0,0,0,0,0c0,0,0,0,0.1,0.1c0,0,0.1,0,0.1,0
				c0,0,0,0,0.1,0C29.8,7.1,29.9,7,30,7l0,0c0,0,0,0,0-0.1c-0.1,0-0.1-0.1-0.2-0.1c0,0,0,0,0-0.1c0,0,0,0,0,0c0-0.1,0-0.2,0-0.3
				c0,0,0-0.1,0-0.2c0,0,0,0,0-0.1c0,0,0,0,0.1,0c0.2,0,0.6,0,0.8,0c0,0,0,0,0,0c0.1,0.1,0.2,0.1,0.3,0.2c0,0,0,0,0,0c0,0,0,0,0,0.1
				c0,0,0,0,0,0.1c0,0,0,0.1,0,0.1c0,0,0,0,0,0.1c-0.2,0-0.4,0-0.5,0.2c0,0,0,0,0,0c0,0,0,0,0,0.1c0,0,0,0,0,0c0,0,0,0,0,0.1
				c0,0,0,0,0,0C31,7.6,31.4,7.5,31.7,7c0-0.1,0.1-0.2,0-0.3C31.4,5.6,30.6,5,29.3,5l0,0H29.2C29.2,5,29.2,5,29.2,5z"/>
			<path class="st2" d="M34.4,41.1c-0.1,0-0.1,0-0.2,0c-0.2,0-0.4,0-0.6,0c0,0,0-0.1,0.1-0.2c0.2-0.3,0.2-0.6,0.2-1
				c0,0-0.1,0-0.1-0.1c-0.3-0.2-0.6-0.3-0.9-0.4c0.1-0.2,0.2-0.3,0.2-0.5c0,0,0-0.1,0-0.2c-0.1-0.2-0.3-0.3-0.5-0.3
				c-1.1-0.3-2-0.1-2.7,0.5c0,0.1,0,0.2,0,0.3c0,0.2,0,0.4,0.1,0.5c0.2,0.1,0.6,0.3,0.9,0.4c-0.9,0.5-1.7,0.9-2.5,1.5
				c0,0.1,0,0.2,0,0.2c0,0.1,0,0.1,0,0.1c0.1,0.1,0.1,0.2,0.2,0.3c0,0.1,0.1,0.1,0.2,0.1c0.9,0.5,1.9,0.5,2.8,0.2c0,0,0,0.1,0.1,0.2
				c0.1,0,0.2,0,0.3,0c0.4-0.3,0.8-0.4,1.3-0.5c-0.6,0.5-1.1,0.9-1.7,1.2v0.1c0,0.1,0,0.3,0,0.4c0.7,0.4,1.4,0.4,2.1,0
				c1.4-0.7,1.7-1.7,1-3C34.5,41.2,34.5,41.2,34.4,41.1z"/>
			<path class="st2" d="M21.8,4.7L21.8,4.7c-0.2-0.2-0.4-0.2-0.6-0.2c0,0-0.1,0-0.1,0c-0.3,0-0.5,0.1-0.6,0.3c0,0,0,0,0,0.1
				c0,0,0,0.1,0,0.1c0,0,0,0,0,0c0.1,0.1,0.3,0.2,0.4,0.3c0,0.1,0,0.2,0,0.3c0,0,0,0.1,0,0.2c-0.1,0-0.2,0.1-0.3,0.2
				c0,0-0.1,0-0.1,0.1c0,0-0.1,0-0.1,0C20.1,6,20,5.9,19.8,5.7c-0.1-0.1-0.2-0.2-0.3-0.4c-0.9-0.2-1.7-0.1-2.4,0.5c0,0,0,0.1,0,0.2
				c0,0,0,0-0.1,0.1c0,0,0,0-0.1,0.1c0,0.1-0.1,0.3-0.1,0.4l0,0c-0.3-0.4-0.8-0.6-1.4-0.4c-0.3,0.1-0.6,0.2-0.8,0.3
				c-0.7,0.3-1,0.8-1,1.5c0,0,0.1,0.1,0.1,0.1c0,0,0,0,0,0c0,0,0,0,0,0.1c0,0.2-0.1,0.3-0.2,0.5c0,0,0,0-0.1,0c0,0,0,0,0,0.1
				c0,0.1-0.1,0.2-0.1,0.3c0,0,0,0,0,0c0,0,0,0,0,0c0,0,0,0,0,0.1c-0.1,0.2-0.3,0.3-0.5,0.3c-0.3,0-0.6,0.2-0.7,0.4
				c0-0.1-0.1-0.1-0.1-0.2c-0.1-0.1-0.2-0.2-0.4-0.3c-0.1,0-0.3-0.1-0.3-0.2c0-0.1,0-0.2,0-0.3c0,0,0-0.1,0-0.2v0
				c0,0,0.1-0.1,0.1-0.2c0-0.2,0-0.5,0.1-0.7c0,0,0,0,0,0c0.2,0,0.4,0,0.6-0.1c0,0,0,0,0.1,0c0.2,0,0.3,0,0.5-0.1c0,0,0,0,0,0
				c0.7-0.8,1.4-1.4,2.3-1.8c0.6-0.3,0.8-0.7,0.8-1.3c0,0,0,0,0,0c-0.5-0.1-1-0.1-1.4-0.1c-0.2,0.1-0.5,0.2-0.7,0.3
				c-1,0.4-2,0.9-2.9,1.5c0,0,0,0,0,0c0,0,0,0,0-0.1l0,0c0,0,0,0,0-0.1c-0.1-0.2-0.3-0.2-0.4-0.2c0,0-0.1,0.1-0.1,0.1
				C9.7,6,9.4,6.2,9.2,6.4C8.9,6.7,8.6,7,8.3,7.4C8.1,7.6,7.9,7.8,7.8,8c0,0.1-0.1,0.3-0.1,0.4c-0.1,0.4-0.4,0.7-0.7,1
				C6.8,9.6,6.8,9.6,6.7,9.8c-0.1,0.2-0.3,0.4-0.4,0.6c-0.2,0.2-0.4,0.5-0.6,0.7c0,0.1,0,0.2-0.1,0.3l-0.2,0.2c0,0,0,0.1,0,0.1
				c-0.1,0.2-0.2,0.4-0.3,0.6c-0.3,0.5-0.5,1-0.7,1.5c-0.1,0.3-0.2,0.6-0.2,0.8c0,0-0.1,0.1-0.1,0.1c0,0-0.1,0.1-0.1,0.1
				c0,0,0,0.1,0,0.1c0,0.1-0.1,0.3-0.1,0.4c0,0-0.1,0.1-0.1,0.2c-0.1,0.3-0.2,0.7-0.3,1c0,0,0,0,0,0.1c0,0.1,0,0.3,0,0.4
				c0,0,0,0,0,0c0,0,0,0-0.1,0.1c0,0,0,0.1,0,0.1c0,0.1,0,0.2,0,0.4c-0.1,0.2-0.2,0.5-0.2,0.7c-0.1,1.1-0.1,2.2,0,3.3
				c0.3,0.3,0.5,0.6,0.8,0.7c0,0.1,0.1,0.2,0.2,0.3c0.2,0.3,0.2,0.7,0.2,1.1c0,0,0,0,0,0c0,0.1,0,0.2-0.1,0.3c0,0.3,0,0.6,0,0.9
				c0,0,0,0,0,0.1c0,0.3,0.1,0.6,0.3,0.9c0.3,0.1,0.5,0.1,0.7,0.1c0.1,0.1,0.3,0.3,0.5,0.3c0.1,0.1,0.2,0.2,0.2,0.3
				C5.9,27.6,6,28.3,6,29c0.5,0.5,1,0.7,1.6,0.6c0,0,0,0,0-0.1c0,0,0,0,0.1,0c0,0,0-0.1,0-0.1c0-0.3,0-0.6-0.1-0.9
				c0.1,0,0.3,0,0.4-0.1c0,0,0,0,0,0c0,0,0.1-0.1,0.1-0.1c0.1,0,0.3,0.1,0.4,0.1c0,0,0,0.1,0.1,0.1c0.6,0.3,1.2,0.3,1.6-0.2
				c0.1,0,0.2,0,0.2,0c0.6,0.3,1,0.7,1.2,1.3c-0.5,0.5-0.5,1-0.1,1.5c0,0,0,0,0,0c-0.3,0.1-0.6,0.2-0.9,0.3c0,0,0,0-0.1,0
				c-0.4,0.5-0.5,1-0.3,1.7c0.2,0.4,0.6,0.7,1.1,0.8c0.4,0.7,1,0.9,1.8,0.5c0.3,0.3,0.6,0.3,1,0.2c0-0.1,0-0.1,0.1-0.2
				c0.3-0.8,0-1.4-0.6-2c0,0,0,0,0-0.1c0-0.1,0-0.2,0-0.3c0,0,0.1-0.1,0.1-0.1c0.2-0.4,0.3-0.7,0.3-1.2c0,0,0.1,0,0.2,0
				c0.3,0.2,0.5,0.5,0.7,0.8c0,0.2,0,0.4,0,0.5c0,0.2,0,0.4,0.1,0.5c0.2,0.4,0.5,0.8,0.7,1.1c-0.1,0-0.3,0.1-0.4,0.2
				c0,0.1,0,0.2-0.1,0.3c0,0.6,0,1,0.1,1.5c0,0.4,0.3,0.7,0.7,0.8c0,0,0.1,0.1,0.3,0.1c0.7,0.3,1.1,0.2,1.4-0.3c0,0,0,0,0-0.1
				c0-0.1,0-0.2,0-0.3c0.1,0,0.2,0,0.2,0c0.7,0.3,1.3,0.2,1.6-0.5c0,0,0,0,0,0c0,0,0,0,0-0.1c0.2-0.2,0.2-0.6,0.2-0.9
				c0-0.1,0-0.1,0.1-0.1c0.7,0,1.4,0,2.1,0c0.1,0,0.2-0.1,0.2-0.3c0-0.2,0.1-0.5,0.2-0.7c0.2-0.5,0.2-0.9,0.1-1.3
				c-0.2-0.1-0.4-0.3-0.6-0.5c0-0.1,0-0.1,0-0.2c-0.1-0.2-0.1-0.3-0.1-0.5c0-0.2,0.1-0.5,0.3-0.7c0.5-1.1,0.5-2-0.3-3
				c-0.2-0.1-0.4-0.2-0.5-0.4c-0.2,0-0.4-0.2-0.6-0.3c0,0,0-0.1-0.1-0.2l0,0c0-0.2,0-0.3-0.1-0.5c0,0,0,0,0-0.1c0,0,0,0,0.1-0.1
				c0.1-0.1,0.2-0.2,0.3-0.4v0c0-0.1,0-0.3,0-0.4c0,0,0,0,0,0c0,0,0.1,0,0.1,0c0,0,0,0,0,0s0,0,0,0c0-0.1,0-0.3,0-0.4
				c0.2,0,0.3,0.1,0.5,0.1c0.5,0.1,0.9-0.1,1.2-0.4c0.9-1.1,1.1-2.3,0.6-3.7c0,0,0,0,0,0c0.4-0.3,0.7-0.7,1-0.9
				c0.1,0,0.1,0.1,0.2,0.1c0.4,0.3,0.8,0.4,1.2,0.4c0.3-0.2,0.5-0.6,0.7-0.9c0.1,0,0.2,0,0.3,0c0.2,0.1,0.4,0.3,0.7,0.4
				c0.1,0,0.2,0,0.5,0c0.6-0.3,0.9-0.9,0.9-1.5c0-0.2,0.1-0.3,0.1-0.5c0.1-0.2,0-0.5-0.1-0.7c-0.1-0.1-0.3-0.2-0.5-0.3
				c-0.2-0.2-0.5-0.2-0.7,0c0,0,0,0,0,0.1c0,0,0,0.1,0,0.2c0,0,0,0,0,0.1c-0.1-0.1-0.3-0.2-0.5-0.3c0,0-0.1,0-0.1,0
				c-0.9-0.7-1.9-0.9-2.9-0.3c-0.2-0.1-0.3-0.3-0.4-0.5c0-0.1-0.1-0.1-0.2-0.2c0,0,0-0.1,0-0.1c0-0.1,0-0.2,0-0.3c0,0,0,0,0,0
				c0.1-0.3,0.2-0.6,0.2-0.9c0-0.6,0.3-0.9,0.7-1.3c0,0,0,0,0-0.1c0-0.1,0-0.2,0.1-0.3l0,0c0-0.3,0-0.7,0.2-0.9
				c0.1-0.2,0.1-0.5,0.2-0.8c0.2-0.1,0.3-0.2,0.5-0.3c0.2-0.1,0.4-0.3,0.5-0.5c0,0,0,0,0.1-0.1c0.1-0.2,0.1-0.5,0-0.8
				c0-0.2,0-0.4-0.1-0.6c0-0.2,0-0.4-0.2-0.6c-0.1,0-0.1-0.1-0.1-0.1c-0.1,0-0.1-0.1-0.2-0.1c-0.5,0-0.9,0-1.4-0.1
				c0,0-0.1-0.1-0.1-0.1c0-0.1-0.1-0.3-0.1-0.4c0,0,0,0-0.1,0c0-0.2-0.1-0.5-0.2-0.6c-0.2-0.5-0.5-0.7-1-0.9c0,0,0,0,0,0
				C22.6,5,22.2,4.9,21.8,5c0,0,0,0,0,0C21.9,4.8,21.9,4.8,21.8,4.7z M21,24.1L21,24.1L21,24.1L21,24.1L21,24.1z"/>
		</g>
	</g>
</g>
</svg>
