<?xml version="1.0" encoding="utf-8"?>
<!-- Generator: Adobe Illustrator 24.0.1, SVG Export Plug-In . SVG Version: 6.00 Build 0)  -->
<svg version="1.1" id="Layer_1" xmlns="http://www.w3.org/2000/svg" xmlns:xlink="http://www.w3.org/1999/xlink" x="0px" y="0px"
	 width="20px" height="20px" viewBox="0 0 20 20" style="enable-background:new 0 0 20 20;" xml:space="preserve">
<style type="text/css">
	.st0{fill:#FFFFFF;}
</style>
<path class="st0" d="M19.8,10c0-1.1-0.7-2-1.6-2.3v-5c0-1.3-1.1-2.4-2.4-2.4c-1.3,0-2.4,1-2.4,2.3c-0.5,0.7-4.4,3.4-7.1,3.4l-1.8,0
	C2,5.9,0.2,7.8,0.2,10c0,2,1.4,3.6,3.3,4v3.3c0,1.3,1.1,2.4,2.4,2.4c1.3,0,2.4-1.1,2.4-2.4v-3c2.2,0.7,4.6,2.6,4.9,3.2
	c0.1,1.3,1.1,2.3,2.4,2.3c1.3,0,2.4-1.1,2.4-2.4v-5C19.1,12,19.8,11.1,19.8,10z M8.9,12.7c-0.5-0.2-1-0.1-1.5,0.2
	c-0.4,0.3-0.7,0.8-0.7,1.3v3c0,0.4-0.4,0.8-0.8,0.8c-0.5,0-0.8-0.4-0.8-0.8v-4.9H4.3c-1.3,0-2.4-1.1-2.4-2.4s1.1-2.4,2.4-2.4l1.6,0
	c0.1,0,0.2,0,0.2,0c2.1,0,5.3-1.4,7.1-2.9v10.5C12,14.2,10.2,13.2,8.9,12.7z M16.5,17.3c0,0.4-0.4,0.8-0.8,0.8
	c-0.4,0-0.8-0.4-0.8-0.8V2.7c0-0.4,0.4-0.8,0.8-0.8c0.4,0,0.8,0.4,0.8,0.8V17.3z"/>
</svg>
