<?xml version="1.0" encoding="utf-8"?>
<!-- Generator: Adobe Illustrator 24.2.1, SVG Export Plug-In . SVG Version: 6.00 Build 0)  -->
<svg version="1.1" id="레이어_1" xmlns="http://www.w3.org/2000/svg" xmlns:xlink="http://www.w3.org/1999/xlink" x="0px"
	 y="0px" width="32px" height="22px" viewBox="0 0 32 22" style="enable-background:new 0 0 32 22;" xml:space="preserve">
<style type="text/css">
	.st0{fill:none;stroke:#2B72BA;stroke-width:0.9716;stroke-linecap:round;stroke-linejoin:round;stroke-miterlimit:22.9256;}
	.st1{fill:none;stroke:#333333;stroke-width:0.9716;stroke-linecap:round;stroke-linejoin:round;stroke-miterlimit:22.9256;}
</style>
<g>
	<path class="st0" d="M27.65,17.56c-1.3,0-2.43-0.8-3-1.98c-0.57,1.18-1.7,1.98-3,1.98c-1.3,0-2.43-0.8-3-1.98
		c-0.57,1.18-1.7,1.98-3,1.98c-1.3,0-2.43-0.8-3-1.98c-0.57,1.18-1.7,1.98-3,1.98c-1.3,0-2.43-0.8-3-1.98
		c-0.57,1.18-1.7,1.98-3,1.98"/>
	<path class="st0" d="M27.65,21.01c-1.3,0-2.43-0.8-3-1.98c-0.57,1.18-1.7,1.98-3,1.98c-1.3,0-2.43-0.8-3-1.98
		c-0.57,1.18-1.7,1.98-3,1.98c-1.3,0-2.43-0.8-3-1.98c-0.57,1.18-1.7,1.98-3,1.98c-1.3,0-2.43-0.8-3-1.98
		c-0.57,1.18-1.7,1.98-3,1.98"/>
	<polyline class="st1" points="7.16,13.28 13.74,1.02 20.02,13.38 	"/>
	<polyline class="st1" points="18.17,9.38 19.97,7.21 22.93,11.63 24.16,10.35 27,15.28 	"/>
</g>
</svg>
