<?xml version="1.0" encoding="utf-8"?>
<!-- Generator: Adobe Illustrator 24.2.1, SVG Export Plug-In . SVG Version: 6.00 Build 0)  -->
<svg version="1.1" id="Layer_1" xmlns="http://www.w3.org/2000/svg" xmlns:xlink="http://www.w3.org/1999/xlink" x="0px" y="0px"
	 width="30px" height="30px" viewBox="0 0 30 30" style="enable-background:new 0 0 30 30;" xml:space="preserve">
<style type="text/css">
	.st0{fill:#FFFFFF;}
</style>
<path class="st0" d="M17,10.4h-1v-1h-2v1h-1c-1.1,0-2,0.9-2,2v1.3c0,0.9,0.5,1.6,1.4,1.9l4.6,1.5v1.3h-4v-1h-2v1c0,1.1,0.9,2,2,2h1
	v1h2v-1h1c1.1,0,2-0.9,2-2v-1.3c0-0.9-0.5-1.6-1.4-1.9L13,13.7v-1.3h4v1h2v-1C19,11.3,18.1,10.4,17,10.4z M15,3.4
	c-6.6,0-12,5.4-12,12s5.4,12,12,12s12-5.4,12-12S21.6,3.4,15,3.4z M15,25.4c-5.5,0-10-4.5-10-10s4.5-10,10-10s10,4.5,10,10
	S20.5,25.4,15,25.4z"/>
</svg>
