<?xml version="1.0" encoding="utf-8"?>
<!-- Generator: Adobe Illustrator 24.2.1, SVG Export Plug-In . SVG Version: 6.00 Build 0)  -->
<svg version="1.1" id="Layer_1" xmlns="http://www.w3.org/2000/svg" xmlns:xlink="http://www.w3.org/1999/xlink" x="0px" y="0px"
	 width="30px" height="30px" viewBox="0 0 30 30" style="enable-background:new 0 0 30 30;" xml:space="preserve">
<style type="text/css">
	.st0{fill:#FFFFFF;}
</style>
<path class="st0" d="M10.1,15.5l1.6-1.6c-1-0.1-1.7-1-1.7-2c0-1.1,0.9-2,2-2c1,0,1.8,0.7,2,1.7l1.6-1.6C14.9,8.9,13.5,8,12,8
	c-2.2,0-4,1.8-4,4C8,13.5,8.9,14.9,10.1,15.5z M15,3C8.4,3,3,8.4,3,15s5.4,12,12,12c6.6,0,12-5.4,12-12S21.6,3,15,3z M15,25
	C9.5,25,5,20.5,5,15S9.5,5,15,5c5.5,0,10,4.5,10,10S20.5,25,15,25z M19.9,8.6L8.6,19.9l1.4,1.4l3-3c0.2,2.1,1.9,3.7,4,3.7
	c2.2,0,4-1.8,4-4c0-2.1-1.6-3.8-3.7-4l4.1-4.1L19.9,8.6z M19,18c0,1.1-0.9,2-2,2c-1.1,0-2-0.9-2-2s0.9-2,2-2C18.1,16,19,16.9,19,18z
	"/>
</svg>
