<?xml version="1.0" encoding="utf-8"?>
<!-- Generator: Adobe Illustrator 24.2.1, SVG Export Plug-In . SVG Version: 6.00 Build 0)  -->
<svg version="1.1" id="레이어_1" xmlns="http://www.w3.org/2000/svg" xmlns:xlink="http://www.w3.org/1999/xlink" x="0px"
	 y="0px" width="102px" height="127.6px" viewBox="0 0 102 127.6" style="enable-background:new 0 0 102 127.6;"
	 xml:space="preserve">
<style type="text/css">
	.st0{fill:none;}
	.st1{fill:#3683D5;stroke:#3683D5;stroke-width:0.9185;stroke-miterlimit:10;}
	.st2{fill:#3683D5;}
</style>
<rect x="50.6" y="31.3" class="st0" width="1.3" height="7.6"/>
<g>
	<path class="st1" d="M82.9,59.3h-7.5c-0.2-5.6-2.4-11-6.3-15.3l5.2-5.2c0.5-0.5,0.5-1.2,0-1.6c-0.5-0.5-1.2-0.5-1.6,0l-5.2,5.2
		c-4.2-3.8-9.6-6.1-15.3-6.4v-7.3c0-0.7-0.5-1.2-1.2-1.2s-1.2,0.5-1.2,1.2v7.5c-5.7,0.3-11.1,2.4-15.3,6.4l-5.2-5.2
		c-0.5-0.5-1.2-0.5-1.6,0c-0.5,0.5-0.5,1.2,0,1.6l5.2,5.2c-4,4.4-6.1,9.7-6.3,15.3h-7.5c-0.7,0-1.2,0.5-1.2,1.2s0.5,1.2,1.2,1.2h7.5
		c0.2,5.6,2.4,11,6.3,15.3l-5.2,5.2c-0.5,0.5-0.5,1.2,0,1.6c0.2,0.2,0.5,0.3,0.9,0.3s0.5-0.2,0.9-0.3l5.2-5.2
		c4.2,3.8,9.6,6.1,15.3,6.4v7.5c0,0.7,0.5,1.2,1.2,1.2s1.2-0.5,1.2-1.2V85c5.7-0.3,11.1-2.4,15.3-6.4l5.2,5.2
		c0.2,0.2,0.5,0.3,0.9,0.3s0.5-0.2,0.9-0.3c0.5-0.5,0.5-1.2,0-1.6L69.5,77c4-4.4,6.1-9.7,6.3-15.3h7.5c0.7,0,1.2-0.5,1.2-1.2
		C84,59.8,83.4,59.3,82.9,59.3z M66.7,76.2c-0.3,0.3-0.5,0.5-0.9,0.7c-3.8,3.5-8.5,5.4-13.8,5.7c-0.3,0-0.7,0-1.2,0
		c-0.3,0-0.7,0-1.2,0c-5-0.3-9.9-2.3-13.8-5.7c-0.3-0.2-0.5-0.5-0.9-0.7c-0.3-0.3-0.5-0.5-0.7-0.9c-3.5-3.8-5.4-8.7-5.7-13.8
		c0-0.7,0-1.6,0-2.3c0.2-4.9,2.1-9.7,5.7-13.8c0.2-0.3,0.5-0.5,0.7-0.9c0.3-0.3,0.5-0.5,0.9-0.7c3.8-3.5,8.5-5.4,13.8-5.7
		c0.3,0,0.7,0,1.2,0c0.3,0,0.7,0,1.2,0c5,0.3,9.9,2.3,13.8,5.7c0.3,0.2,0.5,0.5,0.9,0.7c0.3,0.3,0.5,0.5,0.7,0.9
		c3.5,3.8,5.4,8.7,5.7,13.8c0,0.7,0,1.6,0,2.3c-0.2,4.9-2.1,9.7-5.7,13.8C67.3,75.7,66.9,76,66.7,76.2z"/>
	<path class="st1" d="M65.2,47.8c-0.2-0.3-0.5-0.5-0.7-0.9c-0.3-0.3-0.5-0.5-0.9-0.7c-3.1-2.8-7.3-4.5-11.5-4.7c-0.3,0-0.7,0-1.2,0
		c-0.3,0-0.7,0-1.2,0c-4.4,0.2-8.4,1.9-11.5,4.7c-0.3,0.2-0.5,0.5-0.9,0.7c-0.3,0.3-0.5,0.5-0.7,0.9c-3,3.3-4.5,7.3-4.7,11.5
		c0,0.7,0,1.6,0,2.3c0.2,4.2,1.9,8.2,4.7,11.5c0.2,0.3,0.5,0.5,0.7,0.9c0.3,0.3,0.5,0.5,0.9,0.7c3.1,2.8,7.3,4.5,11.5,4.7
		c0.3,0,0.7,0,1.2,0c0.3,0,0.7,0,1.2,0c4.4-0.2,8.4-1.9,11.5-4.7c0.3-0.2,0.5-0.5,0.9-0.7c0.3-0.3,0.5-0.5,0.7-0.9
		c2.8-3.1,4.5-7.3,4.7-11.5c0-0.3,0-0.7,0-1.2c0-0.3,0-0.7,0-1.2C69.7,55.1,68.1,51.1,65.2,47.8z M52.1,77.2v-11
		c0.7-0.2,1.6-0.5,2.1-0.9l7.8,7.8C59.3,75.7,55.8,77,52.1,77.2z M49.9,43.8v11c-0.7,0.2-1.6,0.5-2.1,0.9L40,47.9
		C42.7,45.4,46,44,49.9,43.8z M54.4,59.3c0.2,0.7,0.2,1.6,0,2.3c0,0.2-0.2,0.3-0.2,0.3c-0.2,0.3-0.3,0.7-0.7,1
		c-0.3,0.3-0.7,0.5-1,0.7c-0.2,0-0.3,0.2-0.3,0.2C51.8,64,51.4,64,50.9,64c-0.3,0-0.9,0-1.2-0.2c-0.2,0-0.3-0.2-0.3-0.2
		c-0.3-0.2-0.7-0.3-1-0.7c-0.3-0.3-0.5-0.7-0.7-1c0-0.2-0.2-0.3-0.2-0.3c-0.2-0.7-0.2-1.6,0-2.3c0-0.2,0.2-0.3,0.2-0.3
		c0.2-0.3,0.3-0.7,0.7-1c0.3-0.3,0.7-0.5,1-0.7c0.2,0,0.3-0.2,0.3-0.2c0.3-0.2,0.7-0.2,1.2-0.2c0.3,0,0.7,0,1.2,0.2
		c0.2,0,0.3,0.2,0.3,0.2c0.3,0.2,0.7,0.3,1,0.7c0.3,0.3,0.5,0.7,0.7,1C54.2,59.1,54.2,59.3,54.4,59.3z M54.2,55.6
		c-0.7-0.3-1.4-0.7-2.1-0.9v-11c3.7,0.2,7.1,1.7,9.9,4L54.2,55.6z M46,57.2c-0.5,0.7-0.7,1.4-0.9,2.1h-11c0.2-3.5,1.6-7,4-9.9
		L46,57.2z M45.2,61.7c0.2,0.7,0.5,1.4,0.9,2.1l-7.8,7.8c-2.4-2.8-3.8-6.3-4-9.9C34.2,61.7,45.2,61.7,45.2,61.7z M47.6,65.4
		c0.7,0.3,1.4,0.7,2.1,0.9v11C46,77,42.5,75.5,39.8,73L47.6,65.4z M55.9,63.8c0.5-0.7,0.7-1.4,0.9-2.1h11c-0.2,3.7-1.7,7.1-4.2,9.9
		L55.9,63.8z M56.8,59.3c-0.2-0.7-0.5-1.4-0.9-2.1l7.8-7.8c2.4,2.8,3.8,6.3,4,9.9C67.7,59.3,56.8,59.3,56.8,59.3z"/>
	<path class="st1" d="M51.9,59.5c0,0-0.2,0-0.2-0.2c-0.2-0.2-0.3-0.2-0.7-0.3h-0.2h-0.2c-0.2,0-0.5,0.2-0.7,0.3c0,0-0.2,0-0.2,0.2
		c0,0,0,0.2-0.2,0.2c-0.2,0.2-0.2,0.3-0.3,0.7c0,0.2,0,0.3,0,0.3c0,0.2,0.2,0.5,0.3,0.7c0,0,0,0.2,0.2,0.2c0,0,0.2,0,0.2,0.2
		c0.2,0.2,0.3,0.2,0.7,0.3h0.2H51c0.2,0,0.5-0.2,0.7-0.3c0,0,0.2,0,0.2-0.2c0,0,0-0.2,0.2-0.2c0.2-0.2,0.2-0.3,0.2-0.7
		c0-0.2,0-0.3,0-0.3c0-0.2-0.2-0.5-0.3-0.7C52.1,59.6,52.1,59.5,51.9,59.5z"/>
</g>
<g>
	<path class="st2" d="M20.8,122.6v3H1.6v-3H20.8z M16.1,118.5l-4.9-9.9l-4.9,9.7h-4L9,104.4h4.2l6.6,13.9h-3.7
		C16.1,118.3,16.1,118.5,16.1,118.5z"/>
	<path class="st2" d="M22.7,125.4v-20.9h11v20.9H22.7z M26,122.5h4.2v-14.8H26V122.5z M36.5,125.4v-21.1h3.1v7h2.3v3h-2.3v11
		L36.5,125.4L36.5,125.4z"/>
	<path class="st2" d="M61.2,122.6v3H42v-3H61.2z M60.1,104.5v3H46.5v2.6h13.6v3H46.5v2.4h13.6v3h-17v-13.9
		C43.1,104.5,60.1,104.5,60.1,104.5z"/>
	<path class="st2" d="M81.4,113.8v2.8H62.2v-2.8H81.4z M80.7,112.2h-4.4l-4.4-5l-4.4,5h-4.4l6.6-7.7H74L80.7,112.2z M67.3,117.9h9.4
		c2.3,0,4,1.6,4,3.8s-1.7,3.8-4,3.8h-9.4c-2.3,0-4-1.6-4-3.8C63.3,119.5,65,117.9,67.3,117.9z M67.3,122.8h9.4c0.5,0,0.9-0.5,0.9-1
		s-0.3-1-0.9-1h-9.4c-0.5,0-0.9,0.5-0.9,1C66.2,122.3,66.7,122.8,67.3,122.8z"/>
	<path class="st2" d="M90.4,104.5l4.4,11.3h-3.5l-2.8-7l-2.8,7h-3.5l4.4-11.3H90.4z M87.3,122.5h10.4v-11h-3.5v-3h3.5v-4h3.1v21.1
		H84v-6.8h3.1v3.7C87.1,122.5,87.3,122.5,87.3,122.5z"/>
</g>
<g>
	<path d="M22.1,15.8V9.6h-2.1v0.3c0,2.1-1.2,3.2-2.8,3.2s-2.8-1.1-2.8-3.2V8.7c0-2.1,1.2-3.2,2.8-3.2c1.6,0,2.8,1.1,2.8,3.1h2.1V4.7
		h1.2v11.1H22.1z M18.8,9.7V8.8c0-1.7-0.8-2.3-1.6-2.3c-0.9,0-1.6,0.6-1.6,2.3v0.9c0,1.7,0.8,2.3,1.6,2.3C18,12,18.8,11.4,18.8,9.7z
		"/>
	<path d="M33,9.3h-3v1h4.5v1H24.3v-1h4.5v-1h-3V5H27v1.3h4.9V4.9H33V9.3z M25.6,12.3h7.4v3.6h-1.2v-2.6h-6.2V12.3z M27,8.3h4.9V7.2
		H27V8.3z"/>
	<path d="M41.7,11.6c-1.9,0.2-3.3,0.3-7,0.3v-1c1.2,0,2.1,0,2.9,0v-0.6c-1.3-0.1-1.9-0.7-1.9-1.5V8.4c0-0.9,0.9-1.5,2.5-1.5
		c1.7,0,2.5,0.7,2.5,1.5v0.3c0,0.7-0.7,1.3-1.9,1.5v0.6c1,0,1.9-0.1,2.9-0.2L41.7,11.6z M41.1,5.6v1h-6v-1h2.4v-1h1.2v1H41.1z
		 M36.6,14c0-1.1,1.3-1.8,3.5-1.8s3.5,0.7,3.5,1.8v0.3c0,1.1-1.3,1.8-3.5,1.8s-3.5-0.7-3.5-1.8V14z M36.8,8.5v0.1
		c0,0.4,0.4,0.7,1.4,0.7c0.9,0,1.4-0.3,1.4-0.7V8.5c0-0.4-0.4-0.7-1.4-0.7C37.2,7.8,36.8,8.1,36.8,8.5z M37.7,14.2
		c0,0.4,0.8,0.9,2.3,0.9s2.3-0.5,2.3-0.9V14c0-0.4-0.8-0.9-2.3-0.9s-2.3,0.5-2.3,0.9V14.2z M42.3,11.9V4.7h1.2V8H45v1h-1.6v2.8H42.3
		z"/>
	<path d="M47.8,10.4c-0.1,0.2-0.3,0.5-0.5,0.8c-0.5,0.6-1.1,1.2-1.7,1.9l-0.8-0.8c0.7-0.7,1.3-1.3,1.9-2c0.5-0.6,0.6-1.2,0.6-1.9
		V6.8h-1.9v-1h4.8v1h-1.8v1.6c0,0.7,0.2,1.2,0.6,1.9c0.5,0.6,1,1.2,1.7,1.9l-0.8,0.8c-0.6-0.6-1.1-1.2-1.6-1.7
		C48.1,10.9,47.9,10.6,47.8,10.4L47.8,10.4z M51.2,4.9h1.2v10.3h-1.2V9.4h-1.7v-1h1.7V4.9z M54.6,15.8h-1.2V4.7h1.2V15.8z"/>
	<path d="M61.1,8.9c-0.1,0.2-0.4,0.6-0.8,1c-0.5,0.5-1.2,1.1-1.8,1.6l-0.7-0.8c0.8-0.6,1.5-1.2,1.9-1.6c0.6-0.6,0.8-1.1,0.8-1.9V5.2
		h1.2v1.7c0,0.7,0,1.1,0.6,1.7c0.6,0.5,1.2,1.1,2,1.6L63.5,11c-0.6-0.5-1.2-0.9-1.8-1.4C61.4,9.3,61.2,9,61.1,8.9L61.1,8.9z
		 M61.2,14.6h5.9v1H60v-3.7h1.2V14.6z M65.7,12.6V8.2h-2.2v-1h2.2V4.7h1.2v7.9H65.7z"/>
	<path d="M71.4,8.7c-0.1,0.2-0.4,0.6-0.8,0.9c-0.5,0.4-1.2,1-1.8,1.4l-0.7-0.9c0.8-0.5,1.5-1.1,1.9-1.5c0.6-0.6,0.8-1,0.8-1.9V6.4
		h-2.3v-1h5.7v1H72v0.4c0,0.8,0.1,1.2,0.6,1.7c0.6,0.5,1.2,1,1.9,1.4l-0.7,0.9c-0.6-0.4-1.1-0.8-1.7-1.3C71.8,9.1,71.5,8.9,71.4,8.7
		L71.4,8.7z M70.1,13.5c0-1.2,1.2-2.1,3.3-2.1s3.3,0.9,3.3,2.1V14c0,1.2-1.2,2.1-3.3,2.1s-3.3-0.9-3.3-2.1V13.5z M75.6,13.6
		c0-0.6-0.8-1.2-2.2-1.2c-1.3,0-2.2,0.6-2.2,1.2v0.3c0,0.6,0.8,1.2,2.2,1.2c1.3,0,2.2-0.6,2.2-1.2V13.6z M75.6,11.2V4.7h1.2v2.7h1.6
		v1h-1.6v2.8H75.6z"/>
	<path d="M80.3,5.3V9c2,0,3.2,0,5-0.3l0.1,1C83.7,10,82.3,10,79.1,10V5.3H80.3z M87.5,11.3v4.4h-6.9v-4.4H87.5z M81.8,14.8h4.5v-2.4
		h-4.5V14.8z M86.3,10.8V4.7h1.2v6.1H86.3z"/>
</g>
</svg>
