<?xml version="1.0" encoding="utf-8"?>
<!-- Generator: Adobe Illustrator 22.1.0, SVG Export Plug-In . SVG Version: 6.00 Build 0)  -->
<svg version="1.1" id="레이어_1" xmlns="http://www.w3.org/2000/svg" xmlns:xlink="http://www.w3.org/1999/xlink" x="0px"
	 y="0px" width="24px" height="24px" viewBox="0 0 24 24" style="enable-background:new 0 0 24 24;" xml:space="preserve">
<style type="text/css">
	.st0{fill:none;stroke:#787777;stroke-width:0.8038;stroke-linecap:round;stroke-linejoin:round;stroke-miterlimit:10;}
	.st1{fill:#787777;}
</style>
<g id="레이어_2_1_">
</g>
<g>
	<g>
		<g>
			<path class="st0" d="M23.4,20.4c-0.3-2.6-2.7-2.1-2.7-2.1l0,0C20.7,18.3,20.7,20.7,23.4,20.4L23.4,20.4z"/>
			<path class="st0" d="M22.7,15.6c-2.6,0.3-2.1,2.7-2.1,2.7l0,0C20.7,18.3,23.1,18.2,22.7,15.6L22.7,15.6z"/>
		</g>
		<path class="st0" d="M7.6,5.4C7.6,5.4,7,4,8,1.5"/>
		<path class="st0" d="M4,7.1c0,0-1.2-1.7-3.3-2.1"/>
		<path class="st0" d="M9.5,6.1C7.7,4.9,5.2,5.3,4,7.1c-0.9,1.3-0.9,2.8-0.2,4.1l0,0c0,0,0.5,1.3,1.8,2.9c0,0,0,0,0,0
			c-0.1,3-2.5,3.4-2.5,3.4c3.3,1,4.4-1.5,4.4-1.5c0,0,0,0,0,0c0.9,0.8,2.1,1.6,3.4,2.3c5.4,2.7,9.7,0.2,9.7,0.2s-4.5-1.2-7-4.6
			c1.9-0.8,2-2.9,2-2.9c-2.1,1.5-3.4,0.5-3.4,0.5c-0.9-3.6-1.9-4.5-1.9-4.5C10.1,6.6,9.8,6.3,9.5,6.1z"/>
		<path class="st0" d="M20.5,18.4c0,0-8.2,1.3-11.7-5.6"/>
	</g>
	<circle class="st1" cx="4.3" cy="8.9" r="0.7"/>
	<path class="st1" d="M8.8,6.1C9.1,6.3,9.2,6.8,9,7.1C8.8,7.4,8.4,7.4,8,7.2C7.7,7,7.7,6.6,7.9,6.3C8.1,6,8.5,5.9,8.8,6.1z"/>
</g>
</svg>
