<?xml version="1.0" encoding="utf-8"?>
<!-- Generator: Adobe Illustrator 24.2.1, SVG Export Plug-In . SVG Version: 6.00 Build 0)  -->
<svg version="1.1" id="Layer_1" xmlns="http://www.w3.org/2000/svg" xmlns:xlink="http://www.w3.org/1999/xlink" x="0px" y="0px"
	 width="36px" height="36px" viewBox="0 0 36 36" style="enable-background:new 0 0 36 36;" xml:space="preserve">
<style type="text/css">
	.st0{fill:none;stroke:#FF8F33;stroke-width:1.3429;stroke-linecap:round;stroke-linejoin:round;stroke-miterlimit:22.9256;}
	.st1{fill:none;stroke:#00A1BA;stroke-width:1.3429;stroke-linecap:round;stroke-linejoin:round;stroke-miterlimit:22.9256;}
</style>
<path class="st0" d="M17.1,10.7c0.4-2.3,2.4-4.2,4.8-4.5c3-0.3,5.7,1.9,6.1,4.9c0.2,1.6-0.4,3.1-1.4,4.3"/>
<polygon class="st0" points="21.7,3.1 21.5,1 21.7,3.1 "/>
<polygon class="st0" points="17.5,4.7 16.3,3 17.5,4.7 "/>
<polygon class="st0" points="14.6,8.1 12.7,7.3 14.6,8.1 "/>
<polygon class="st0" points="30.4,15.3 32.4,16.2 30.4,15.3 "/>
<polygon class="st0" points="31.2,10.9 33.3,10.7 31.2,10.9 "/>
<polygon class="st0" points="29.6,6.7 31.3,5.5 29.6,6.7 "/>
<polygon class="st0" points="26.1,3.8 27,1.9 26.1,3.8 "/>
<path class="st1" d="M12.3,27.4l-2.2,3.8 M14.9,29.8l-3,5.2 M20.2,27.4l-2.2,3.8 M14.6,25.1c9.1,0,7,0,8.3,0c3,0,5.5-2.3,5.5-5
	s-2.5-5-5.5-5c-0.4,0-0.8,0-1.1,0.1c-1-2.4-3.6-4.1-6.6-4.1c-3.9,0-7,2.9-7,6.4l0,0.1c-0.1,0-0.2,0-0.3,0c-2.3,0-4.1,1.7-4.1,3.8
	c0,2.1,1.8,3.8,4.1,3.8C8.8,25.1,9.7,25.1,14.6,25.1L14.6,25.1z"/>
</svg>
