<?xml version="1.0" encoding="utf-8"?>
<!-- Generator: Adobe Illustrator 24.2.1, SVG Export Plug-In . SVG Version: 6.00 Build 0)  -->
<svg version="1.1" id="Layer_1" xmlns="http://www.w3.org/2000/svg" xmlns:xlink="http://www.w3.org/1999/xlink" x="0px" y="0px"
	 width="36px" height="36px" viewBox="0 0 36 36" style="enable-background:new 0 0 36 36;" xml:space="preserve">
<style type="text/css">
	.st0{fill:none;stroke:#00A1BA;stroke-width:1.44;stroke-linecap:round;stroke-linejoin:round;stroke-miterlimit:22.9256;}
</style>
<path class="st0" d="M17.7,30.9c6.7,0,4.8,0,6.3,0c3.5,0,6.3-2.6,6.3-5.7c0-3.2-2.8-5.7-6.3-5.7c-0.4,0-0.9,0-1.3,0.1
	c-1.2-2.7-4.1-4.7-7.5-4.7c-4.4,0-8,3.3-8,7.3l0,0.1c-0.1,0-0.2,0-0.3,0c-2.6,0-4.7,1.9-4.7,4.3c0,2.4,2.1,4.3,4.7,4.3
	C8.8,30.9,10.6,30.9,17.7,30.9L17.7,30.9z"/>
<path class="st0" d="M3.7,22.3c-1.4-1.2-2.3-3-2.3-5c0-3.8,3.3-6.8,7.5-6.8c0.5,0,1,0,1.5,0.1c1.4-3.3,4.8-5.6,8.9-5.6
	c5.3,0,9.5,3.9,9.5,8.7l0,0.1c0.1,0,0.2,0,0.4,0c3.1,0,5.6,2.3,5.6,5.1c0,2.2-1.5,4.1-3.7,4.8"/>
</svg>
