<?xml version="1.0" encoding="utf-8"?>
<!-- Generator: Adobe Illustrator 24.2.1, SVG Export Plug-In . SVG Version: 6.00 Build 0)  -->
<svg version="1.1" id="Layer_1" xmlns="http://www.w3.org/2000/svg" xmlns:xlink="http://www.w3.org/1999/xlink" x="0px" y="0px"
	 width="36px" height="36px" viewBox="0 0 36 36" style="enable-background:new 0 0 36 36;" xml:space="preserve">
<style type="text/css">
	.st0{fill:none;stroke:#FF8F33;stroke-width:1.3687;stroke-linecap:round;stroke-linejoin:round;stroke-miterlimit:22.9256;}
	.st1{fill:none;stroke:#00A1BA;stroke-width:1.3687;stroke-linecap:round;stroke-linejoin:round;stroke-miterlimit:22.9256;}
	.st2{fill:none;stroke:#00A1BA;stroke-width:1.3684;stroke-linecap:round;stroke-linejoin:round;stroke-miterlimit:22.9256;}
</style>
<path class="st0" d="M16.6,10.9C17,8.5,19,6.6,21.5,6.3c3.1-0.3,5.8,1.9,6.2,5c0.2,1.6-0.4,3.2-1.4,4.3 M21.3,3.1L21,1L21.3,3.1
	L21.3,3.1z M17,4.7L15.7,3L17,4.7L17,4.7z M14,8.3l-1.9-0.9L14,8.3L14,8.3z M30.2,15.6l1.9,0.9L30.2,15.6L30.2,15.6z M30.9,11.1
	l2.1-0.2L30.9,11.1L30.9,11.1z M29.3,6.8L31,5.5L29.3,6.8L29.3,6.8z M25.8,3.9l0.9-1.9L25.8,3.9L25.8,3.9z"/>
<path class="st1" d="M24.9,25c1.9-0.8,3.1-2.6,3.1-4.6c0-2.8-2.5-5.1-5.6-5.1c-0.4,0-0.8,0-1.1,0.1c-1-2.4-3.6-4.2-6.7-4.2
	c-4,0-7.2,2.9-7.2,6.6l0,0.1c-0.1,0-0.2,0-0.3,0c-2.3,0-4.2,1.7-4.2,3.8c0,2.1,1.9,3.8,4.2,3.8c0.6,0,1.2,0,3.1,0"/>
<path class="st2" d="M18.7,23.4v6.5 M21.6,28.3l-5.6-3.2 M15.9,28.3l5.6-3.2 M11.3,28.5V35 M14.1,33.4l-5.6-3.2 M8.4,33.4l5.6-3.2
	 M13.7,16.5V23 M16.5,21.4l-5.6-3.2 M10.9,21.4l5.6-3.2"/>
</svg>
