<?xml version="1.0" encoding="utf-8"?>
<!-- Generator: Adobe Illustrator 24.2.1, SVG Export Plug-In . SVG Version: 6.00 Build 0)  -->
<svg version="1.1" id="Layer_1" xmlns="http://www.w3.org/2000/svg" xmlns:xlink="http://www.w3.org/1999/xlink" x="0px" y="0px"
	 width="36px" height="36px" viewBox="0 0 36 36" style="enable-background:new 0 0 36 36;" xml:space="preserve">
<style type="text/css">
	.st0{fill:none;stroke:#00A1BA;stroke-width:1.4397;stroke-linecap:round;stroke-linejoin:round;stroke-miterlimit:22.9256;}
	.st1{fill:none;stroke:#00A1BA;stroke-width:1.44;stroke-linecap:round;stroke-linejoin:round;stroke-miterlimit:22.9256;}
</style>
<path class="st0" d="M20.5,20.6v6.8 M23.5,25.8l-5.9-3.4 M17.6,25.8l5.9-3.4"/>
<path class="st1" d="M27.3,22.4c4.1,0,7.5-3.1,7.5-6.9c0-3.8-3.4-6.9-7.5-6.9c-0.5,0-1,0-1.5,0.1c-1.4-3.3-4.9-5.6-8.9-5.6
	c-5.3,0-9.6,3.9-9.6,8.8l0,0.1c-0.1,0-0.2,0-0.4,0c-3.1,0-5.6,2.3-5.6,5.2c0,2.8,2.5,5.2,5.6,5.2c1,0,2,0,3.5,0"/>
<path class="st0" d="M12.6,26v6.8 M15.6,31.1l-5.9-3.4 M9.7,31.1l5.9-3.4 M15.2,13.4v6.8 M18.1,18.5l-5.9-3.4 M12.2,18.5l5.9-3.4"/>
</svg>
