<?xml version="1.0" encoding="utf-8"?>
<!-- Generator: Adobe Illustrator 23.0.1, SVG Export Plug-In . SVG Version: 6.00 Build 0)  -->
<svg version="1.1" id="레이어_1" xmlns="http://www.w3.org/2000/svg" xmlns:xlink="http://www.w3.org/1999/xlink" x="0px"
	 y="0px" width="24px" height="24px" viewBox="0 0 24 24" style="enable-background:new 0 0 24 24;" xml:space="preserve">
<style type="text/css">
	.st0{fill:#777777;stroke:#777777;stroke-width:0.2043;stroke-miterlimit:10;}
</style>
<g id="레이어_2_1_">
</g>
<g>
	<path class="st0" d="M0.5,16.3c0,0.1,0.1,0.3,0.3,0.3c0.1,0,0.2,0,0.3,0s0.1,0,0.2,0s0,0,0,0.1C1.1,16.8,1,16.9,1,17
		c0,0.1,0.1,0.2,0.2,0.3c2,1,4.7,1.6,7.5,1.6l0,0c1.1,0,2.1-0.1,3.2-0.2c1.8-0.3,4-0.7,7.2-2c0.7,0.9,2.1,1.7,4,2.3h0.1
		c0.1,0,0.1,0,0.2-0.1s0.1-0.1,0.1-0.2c-0.1-0.5-0.2-0.9-0.3-1.3c-0.2-0.7-0.5-1.4-0.8-2c0.4-0.6,0.8-1.2,1.2-1.9
		c0.2-0.4,0.4-0.8,0.5-1.3c0-0.1,0-0.2,0-0.2c-0.1-0.1-0.1-0.1-0.2-0.1c-1.4,0.2-2.7,0.6-3.6,1.1c-0.4,0.2-0.7,0.4-0.9,0.7
		c-1.2-1.2-2.5-2.4-3.8-3.3C15.3,9,14,7.5,12.1,6.5c-0.9-0.5-2.3-1-2.9-0.8c-0.9,0-2,1.2-3,2.8l0,0C2.8,9.7,0.4,12.8,0.5,16.3z
		 M14.8,9.6c-0.7-0.5-1.5-0.9-2.3-1.2c0.1-0.1,0.2-0.2,0.1-0.3C12.6,8,12.4,8,12.3,8c-0.1,0.1-0.3,0.2-0.4,0.3
		c-0.3-0.1-0.6-0.2-1-0.2C11,8,11.1,7.9,11.2,7.8c0.1-0.1,0.2-0.2,0.1-0.3c-0.1-0.1-0.2-0.2-0.3-0.1c-0.4,0.2-0.7,0.4-0.8,0.6
		C10,8,9.7,8,9.4,8C9.2,8,9.1,8,9,8c0.2-0.2,0.4-0.5,0.7-0.6c0-0.1,0.1-0.3,0-0.4C9.6,6.9,9.5,6.8,9.4,6.9C8.8,7.2,8.5,7.8,8.3,8
		C7.9,8.1,7.4,8.1,7,8.3C7.8,7,8.7,6.1,9.2,5.9c0.3-0.1,1.4,0.1,2.5,0.7C13.2,7.5,14.3,8.5,14.8,9.6z M19.6,16.2
		c0.4-0.3,0.5-0.6,0.6-0.9c0.1-0.5-0.1-1-0.6-1.6c0.2-0.2,0.5-0.4,0.8-0.6c0.8-0.4,1.8-0.8,3-1c-0.1,0.3-0.2,0.5-0.3,0.8
		c-0.3,0.7-0.7,1.3-1.2,1.9c-0.1,0.1-0.1,0.2,0,0.3c0.4,0.6,0.6,1.3,0.8,2.1c0.1,0.3,0.1,0.6,0.2,0.9C21.4,17.7,20.2,17,19.6,16.2z
		 M1.1,16c0-3.8,3.2-7,7.3-7.5c0.3,0,0.7-0.1,1-0.1c4,0,6.7,2.6,9.6,5.4c0.5,0.5,0.8,1,0.7,1.4c0,0.3-0.3,0.5-0.6,0.7
		c-3.2,1.3-5.4,1.7-7.2,2c-1,0.1-2.1,0.2-3.1,0.2l0,0c-1,0-1.9-0.1-2.8-0.2c0.6-0.9,1-2.1,1-3.4c0-0.9-0.2-1.8-0.6-2.7
		c-0.1-0.1-0.2-0.2-0.3-0.1C6,11.8,5.9,11.9,6,12c0.4,0.8,0.5,1.6,0.5,2.4c0,1.2-0.4,2.4-1.1,3.4c-1.3-0.2-2.5-0.6-3.5-1.1
		c0.2-0.1,0.3-0.3,0.3-0.5c0-0.1-0.1-0.4-0.6-0.4C1.4,15.9,1.2,16,1.1,16z"/>
	<path class="st0" d="M3.4,13.4L3.4,13.4c0.2,0,0.3,0.1,0.3,0.3S3.6,14,3.4,14l0,0c-0.1,0-0.3-0.1-0.3-0.3S3.2,13.4,3.4,13.4z"/>
	<path class="st0" d="M15.9,12c0.3,0.2,0.7,0.3,1,0.5c0.1,0.1,0.2,0.2,0.1,0.3c0,0.1-0.1,0.1-0.2,0.1h-0.1c-0.3-0.2-0.7-0.3-1-0.5
		c-0.1-0.1-0.2-0.2-0.1-0.3C15.6,12,15.7,12,15.9,12z"/>
	<path class="st0" d="M8.1,11.3c-0.1,0-0.3-0.1-0.3-0.2c0-0.1,0.1-0.3,0.2-0.3c2.2-0.3,4.6,0,6.9,0.9c0.1,0.1,0.2,0.2,0.1,0.3
		c0,0.1-0.1,0.2-0.2,0.2h-0.1C12.5,11.3,10.3,11,8.1,11.3z"/>
	<path class="st0" d="M7.6,15.7c0.4-0.2,3-1.2,4.8-0.8c0.3,0.1,0.3,0.2,0.3,0.3s0,0.2-0.2,0.4c-0.4,0.2-1.5,0.8-1.9,1.5
		c-0.1,0.2-0.3,0.3-0.5,0.3H10l-1.8-0.3c-0.1,0-0.2-0.2-0.2-0.3c0-0.1,0.2-0.2,0.3-0.2l1.8,0.3c0,0,0,0,0.1,0c0.3-0.6,1-1.2,1.6-1.5
		c-1.6-0.1-3.6,0.7-3.9,0.9c-0.1,0.1-0.3,0-0.4-0.1C7.5,16,7.5,15.8,7.6,15.7z"/>
</g>
</svg>
