<?xml version="1.0" encoding="utf-8"?>
<!-- Generator: Adobe Illustrator 22.1.0, SVG Export Plug-In . SVG Version: 6.00 Build 0)  -->
<svg version="1.1" id="레이어_1" xmlns="http://www.w3.org/2000/svg" xmlns:xlink="http://www.w3.org/1999/xlink" x="0px"
	 y="0px" width="24px" height="24px" viewBox="0 0 24 24" style="enable-background:new 0 0 24 24;" xml:space="preserve">
<style type="text/css">
	.st0{fill:#777777;stroke:#777777;stroke-width:0.2;stroke-miterlimit:10;}
</style>
<g id="레이어_2_1_">
</g>
<g>
	<path class="st0" d="M22.2,21.2c0-0.2-0.2-0.4-0.3-0.6c0-0.1-0.1-0.1-0.1-0.2c0,0,0-0.1,0-0.1c0.1-0.1,0.3-0.1,0.5-0.1
		c0.3,0,0.6-0.1,0.7-0.3c0.1-0.3-0.1-0.7-1.5-1.9c-1.3-1.1-3.1-2-5.5-2.8l0,0c-2.6-0.9-5.1-1.9-6.7-2.9c2-0.7,3.2-1.6,3.6-2.7
		c0.5-1.2-0.2-2.3-0.5-2.8l0-0.1c-0.5-1.2-2.5-2.3-4.2-2.9C5,2.7,3.6,2,2.6,1C1.9,0.2,1.4,0.5,1.2,0.6C0.8,0.8,0.7,1.3,0.9,1.9
		c1.3,3.6,4.3,4.9,6.3,5.7c0.8,0.4,1.6,0.7,1.7,1c0,0.2-0.1,0.4-0.5,0.7c-0.1,0-0.2,0.1-0.3,0.2c-3,1.2-3.5,3.6-3.2,4.9
		c0.2,0.9,0.8,1.7,1.7,2.5c0.8,0.8,2,1.5,3.3,2.1c2.6,1.2,5.7,1.9,8.4,1.9c1,0,1.8,0.3,2.4,0.5c0.6,0.2,1,0.3,1.2,0.1
		C22.2,21.6,22.3,21.4,22.2,21.2z M12.4,9.4c-0.4,1-1.6,1.8-3.7,2.5c-0.6-0.4-0.9-0.9-0.9-1.2c0-0.5,0.8-0.8,1.4-1
		C11,9.1,12,8.5,12.4,7.8C12.6,8.3,12.7,8.8,12.4,9.4z M7.4,7.2c-1.9-0.8-4.8-2.1-6-5.4C1.3,1.4,1.4,1.1,1.5,1C1.6,1,1.8,1,2.1,1.3
		c0,0,0.1,0.1,0.1,0.1c1,1.1,2.4,1.8,5.8,2.9c1.9,0.6,4,1.8,4,2.9c0,0.7-0.9,1.3-2.6,1.9c0.1-0.2,0.1-0.3,0.1-0.5
		C9.3,8,8.5,7.6,7.4,7.2z M21,21.1c-0.7-0.2-1.6-0.5-2.6-0.5c-2.6,0-5.7-0.7-8.2-1.9c-2.6-1.2-4.4-2.8-4.8-4.3
		c-0.3-1,0.1-2.7,1.9-3.8c0,0,0,0.1,0,0.1c0,1.9,6,4.2,8.5,5l0,0c2.4,0.8,4.1,1.7,5.3,2.7c0.9,0.7,1.2,1.1,1.3,1.2
		c-0.1,0-0.1,0-0.2,0c-0.3,0-0.6,0-0.8,0.2c-0.2,0.1-0.2,0.2-0.3,0.4c0,0.3,0.1,0.5,0.2,0.6c0.1,0.1,0.2,0.2,0.2,0.3c0,0,0,0,0,0
		C21.5,21.3,21.3,21.2,21,21.1z"/>
	<path class="st0" d="M13.5,17.3c-2.3-0.5-3.9-1.2-5-1.9c-0.1-0.1-0.3-0.1-0.4,0.1c-0.1,0.1-0.1,0.3,0,0.4c0,0,0,0,0,0
		c1.1,0.7,2.8,1.4,5.2,2c0.1,0,0.3-0.1,0.3-0.2C13.8,17.5,13.7,17.3,13.5,17.3z"/>
	<path class="st0" d="M7.7,14.5c-0.3-0.4-0.3-0.7-0.4-1c0-0.1-0.2-0.3-0.3-0.2c-0.1,0-0.3,0.2-0.2,0.3c0,0.3,0.1,0.7,0.5,1.2
		c0,0,0,0,0,0c0.1,0.1,0.2,0.1,0.3,0C7.7,14.8,7.7,14.7,7.7,14.5z"/>
	<path class="st0" d="M20.4,18.8l-0.1-0.1c-0.1-0.1-0.3-0.1-0.4,0c-0.1,0.1-0.1,0.3,0,0.4l0.1,0.1c0.1,0.1,0.3,0.1,0.4,0
		S20.5,18.8,20.4,18.8z"/>
	<path class="st0" d="M18.2,18.2c-0.4-0.3-1-0.6-1.6-0.5c-0.4,0.1-0.7,0.3-0.9,0.6c-0.1,0.2-0.3,0.8-0.1,1.3c0,0,0,0.1,0.1,0.1
		c0.1,0.1,0.2,0.1,0.3,0c0.1-0.1,0.2-0.2,0.1-0.4c-0.2-0.4,0-0.8,0-0.8c0.2-0.2,0.3-0.3,0.5-0.4c0.3,0,0.7,0.1,1.2,0.4
		c0.1,0.1,0.3,0.1,0.4,0C18.4,18.5,18.3,18.3,18.2,18.2z"/>
	<path class="st0" d="M9.4,6.4C8.7,6,8,5.7,7.5,5.5c-0.1,0-0.2-0.1-0.3-0.1c-0.1-0.1-0.3,0-0.4,0.1c0,0.1,0,0.2,0.1,0.3
		c0,0,0,0,0.1,0C7.1,5.9,7.2,6,7.3,6c0.4,0.2,1.1,0.4,1.8,0.9C9.2,7,9.4,6.9,9.5,6.8C9.5,6.7,9.5,6.5,9.4,6.4z"/>
	<path class="st0" d="M6.4,5C6.2,4.9,6,4.8,5.9,4.7c-0.1-0.1-0.3,0-0.4,0.1C5.4,5,5.5,5.1,5.6,5.2c0,0,0,0,0,0
		C5.8,5.3,6,5.4,6.2,5.5c0.1,0.1,0.3,0,0.4-0.1C6.6,5.3,6.5,5.1,6.4,5z"/>
</g>
</svg>
