<?xml version="1.0" encoding="utf-8"?>
<!-- Generator: Adobe Illustrator 22.1.0, SVG Export Plug-In . SVG Version: 6.00 Build 0)  -->
<svg version="1.1" id="레이어_1" xmlns="http://www.w3.org/2000/svg" xmlns:xlink="http://www.w3.org/1999/xlink" x="0px"
	 y="0px" width="24px" height="24px" viewBox="0 0 24 24" style="enable-background:new 0 0 24 24;" xml:space="preserve">
<style type="text/css">
	.st0{fill:none;stroke:#777777;stroke-width:0.9167;stroke-linejoin:round;stroke-miterlimit:10;}
</style>
<g id="레이어_2_1_">
</g>
<g>
	<path class="st0" d="M6.8,1c0.2-0.1,0.4,0.1,0.3,0.3c-0.4,1.6-1,5.1-0.3,5.4c0.7,0.4,2.6-0.2,2.7,0.6c0.3,1.7-1,4.7-3.2,4.7
		c-2.2,0-2.9-3.1-2.9-5.3C3.4,5,4.2,2,6.8,1z"/>
	<path class="st0" d="M7.4,6.9c0.5-0.3,1-2.5,1.1-3.3c0-0.5,1-0.3,1.3,1.1c0.2,1.1,0,2.1-0.3,2.6"/>
	<line class="st0" x1="9.2" y1="15.1" x2="6.3" y2="15.8"/>
	<line class="st0" x1="9.5" y1="16.7" x2="6.7" y2="17.7"/>
	<path class="st0" d="M9.2,14.1C8.3,14,6.8,13.3,6.3,12"/>
	<path class="st0" d="M8.3,10.9c0.5,0.3,1.1,0.6,1.4,1"/>
	<path class="st0" d="M17.2,1c-0.2-0.1-0.4,0.1-0.3,0.3c0.4,1.6,1,5.1,0.3,5.4c-0.7,0.4-2.6-0.2-2.7,0.6c-0.3,1.7,1,4.7,3.2,4.7
		c2.2,0,2.9-3.1,2.9-5.3C20.6,5,19.8,2,17.2,1z"/>
	<path class="st0" d="M16.6,6.9c-0.5-0.3-1-2.5-1.1-3.3c0-0.5-1-0.3-1.3,1.1c-0.2,1.1,0,2.1,0.3,2.6"/>
	<line class="st0" x1="14.8" y1="15.1" x2="17.7" y2="15.8"/>
	<line class="st0" x1="14.5" y1="16.7" x2="17.3" y2="17.7"/>
	<path class="st0" d="M14.8,14.1c0.9-0.1,2.4-0.8,2.9-2.1"/>
	<path class="st0" d="M15.7,10.9c-0.5,0.3-1.1,0.6-1.4,1"/>
	<path class="st0" d="M13.9,17.4c1-0.5,1.1-2.2,0.9-4c-0.3-2.1-2-3.8-2.7-3.8c-0.7,0-2.5,1.8-2.7,3.8c-0.2,1.8-0.1,3.5,0.9,4"/>
	<path class="st0" d="M13.4,18.7c0.3-0.3,0.5-0.6,0.5-1c0-0.8-0.9-1.4-1.9-1.4c-1.1,0-1.9,0.6-1.9,1.4c0,0.4,0.2,0.7,0.5,1"/>
	<path class="st0" d="M13.6,20.6c0.2-0.3,0.3-0.7,0.3-1c0-0.8-0.9-1.4-1.9-1.4c-1.1,0-1.9,0.6-1.9,1.4c0,0.2,0.1,0.7,0.3,1"/>
	<path class="st0" d="M13.6,20.6c-0.4-0.4-0.9-0.5-1.6-0.5c-0.7,0-1.2,0.1-1.6,0.5c-0.8,0.1-2.1,1-1.7,1.9c0.4,0.9,2,0.3,2.4,0
		c0.2,0.2,0.5,0.5,1,0.5c0.5,0,0.8-0.3,1-0.5c0.4,0.3,2,0.9,2.4,0C15.8,21.6,14.4,20.7,13.6,20.6z"/>
</g>
</svg>
