<?xml version="1.0" encoding="utf-8"?>
<!-- Generator: Adobe Illustrator 24.2.1, SVG Export Plug-In . SVG Version: 6.00 Build 0)  -->
<svg version="1.1" xmlns="http://www.w3.org/2000/svg" xmlns:xlink="http://www.w3.org/1999/xlink" x="0px" y="0px" width="270px"
	 height="640px" viewBox="0 0 270 640" style="enable-background:new 0 0 270 640;" xml:space="preserve">
<style type="text/css">
	.st0{fill:#FFFEFA;}
	.st1{fill:#647787;}
</style>
<g id="레이어_2">
	<path class="st0" d="M134,10c0,0-69,74-71,149s-2,450-2,450s9,26,26,26s33,0,33,0s1-6,15-5s14,5,14,5h39c0,0,19-13,20-20
		s0-121,0-121l1-334c0,0-5-43-22-74S143,8,134,10z"/>
</g>
<g id="레이어_1">
	<path class="st1" d="M144.3,86.2c0-0.4-0.3-0.8-0.8-0.8h-3.9c-0.4,0-0.8,0.3-0.8,0.8v2.3c0,0.4,0.3,0.8,0.8,0.8h3.9
		c0.4,0,0.8-0.3,0.8-0.8V86.2z M143.5,89h-3.9c-0.3,0-0.5-0.2-0.5-0.5v-2.3c0-0.3,0.2-0.5,0.5-0.5h3.9c0.3,0,0.5,0.2,0.5,0.5v2.3
		C144.1,88.8,143.8,89,143.5,89z"/>
	<path class="st1" d="M198.5,527.7l0.1,5.6c0,0.1,0.1,0.2,0.2,0.2h2.2c0.1,0,0.2-0.1,0.2-0.2l0.1-5.6c0,0,0,0,0,0c0,0,0-0.1,0-0.1
		c0,0-0.1-0.1-0.1-0.1h-2.4c0,0-0.1,0-0.1,0.1C198.5,527.6,198.5,527.6,198.5,527.7z M200.9,527.8l-0.1,5.2h-1.9l-0.1-5.2H200.9z"/>
	<path class="st1" d="M198.4,521.6l0.1,5.6c0,0.1,0.1,0.2,0.2,0.2h2.5c0.1,0,0.2-0.1,0.2-0.2l0.1-5.6c0,0,0,0,0,0c0,0,0-0.1,0-0.1
		c0,0-0.1-0.1-0.1-0.1h-2.7c0,0-0.1,0-0.1,0.1C198.4,521.5,198.4,521.5,198.4,521.6z M201,521.7l-0.1,5.2h-2.1l-0.1-5.2H201z"/>
	<path class="st1" d="M198.2,509.4l0.1,5.6c0,0.1,0.1,0.2,0.2,0.2h2.9c0.1,0,0.2-0.1,0.2-0.2l0.1-5.6c0,0,0,0,0,0c0,0,0-0.1,0-0.1
		c0,0-0.1-0.1-0.1-0.1h-3.1c0,0-0.1,0-0.1,0.1C198.2,509.3,198.2,509.4,198.2,509.4z M201.3,509.6l-0.1,5.2h-2.6l-0.1-5.2H201.3z"/>
	<path class="st1" d="M198.3,515.5l0.1,5.6c0,0.1,0.1,0.2,0.2,0.2h2.7c0.1,0,0.2-0.1,0.2-0.2l0.1-5.6c0,0,0,0,0,0c0,0,0-0.1,0-0.1
		c0,0-0.1-0.1-0.1-0.1h-2.9c0,0-0.1,0-0.1,0.1C198.3,515.4,198.3,515.5,198.3,515.5z M201.2,515.7l-0.1,5.2h-2.4l-0.1-5.2H201.2z"/>
	<path class="st1" d="M198.6,533.7l0.1,5.6c0,0.1,0.1,0.2,0.2,0.2h2c0.1,0,0.2-0.1,0.2-0.2l0.1-5.6c0,0,0,0,0,0c0,0,0-0.1,0-0.1
		c0,0-0.1-0.1-0.1-0.1h-2.2c0,0-0.1,0-0.1,0.1C198.6,533.7,198.6,533.7,198.6,533.7z M200.8,533.9l-0.1,5.2H199l-0.1-5.2H200.8z"/>
	<path class="st1" d="M199,558.1l0.1,5.6c0,0.1,0.1,0.2,0.2,0.2h1.1c0.1,0,0.2-0.1,0.2-0.2l0.1-5.6c0,0,0,0,0,0c0,0,0-0.1,0-0.1
		c0,0-0.1-0.1-0.1-0.1h-1.3c0,0-0.1,0-0.1,0.1C199.1,558,199,558,199,558.1z M200.4,558.2l-0.1,5.2h-0.8l-0.1-5.2H200.4z"/>
	<path class="st1" d="M198.7,539.8l0.1,5.6c0,0.1,0.1,0.2,0.2,0.2h1.8c0.1,0,0.2-0.1,0.2-0.2l0.1-5.6c0,0,0,0,0,0c0,0,0-0.1,0-0.1
		c0,0-0.1-0.1-0.1-0.1h-2c0,0-0.1,0-0.1,0.1C198.7,539.7,198.7,539.8,198.7,539.8z M200.7,540l-0.1,5.2h-1.5L199,540H200.7z"/>
	<path class="st1" d="M198.1,503.3l0.1,5.6c0,0.1,0.1,0.2,0.2,0.2h3.1c0.1,0,0.2-0.1,0.2-0.2l0.1-5.6c0,0,0,0,0,0c0,0,0-0.1,0-0.1
		c0,0-0.1-0.1-0.1-0.1h-3.3c0,0-0.1,0-0.1,0.1C198.1,503.2,198,503.3,198.1,503.3z M201.4,503.5l-0.1,5.2h-2.8l-0.1-5.2H201.4z"/>
	<path class="st1" d="M198.9,552l0.1,5.6c0,0.1,0.1,0.2,0.2,0.2h1.4c0.1,0,0.2-0.1,0.2-0.2l0.1-5.6c0,0,0,0,0,0c0,0,0-0.1,0-0.1
		c0,0-0.1-0.1-0.1-0.1h-1.6c0,0-0.1,0-0.1,0.1C198.9,551.9,198.9,551.9,198.9,552z M200.5,552.2l-0.1,5.2h-1l-0.1-5.2H200.5z"/>
	<path class="st1" d="M198.8,545.9l0.1,5.6c0,0.1,0.1,0.2,0.2,0.2h1.6c0.1,0,0.2-0.1,0.2-0.2l0.1-5.6c0,0,0,0,0,0c0,0,0-0.1,0-0.1
		c0,0-0.1-0.1-0.1-0.1H199c0,0-0.1,0-0.1,0.1C198.8,545.8,198.8,545.9,198.8,545.9z M200.6,546.1l-0.1,5.2h-1.3l-0.1-5.2H200.6z"/>
	<path class="st1" d="M199.2,564.1l0.1,4.8c0,0.1,0.1,0.2,0.2,0.2h1c0.1,0,0.2-0.1,0.2-0.2l0.1-4.8c0,0,0,0,0,0c0,0,0-0.1,0-0.1
		c0,0-0.1-0.1-0.1-0.1h-1.1c0,0-0.1,0-0.1,0.1C199.2,564.1,199.2,564.1,199.2,564.1z M200.3,564.3l-0.1,4.5h-0.6l-0.1-4.5H200.3z"/>
	<path class="st1" d="M197.2,454.7l0.1,5.6c0,0.1,0.1,0.2,0.2,0.2h4.9c0.1,0,0.2-0.1,0.2-0.2l0.1-5.6c0,0,0,0,0,0c0,0,0-0.1,0-0.1
		c0,0-0.1-0.1-0.1-0.1h-5.1c0,0-0.1,0-0.1,0.1C197.2,454.6,197.2,454.6,197.2,454.7z M202.3,454.8l-0.1,5.2h-4.5l-0.1-5.2H202.3z"/>
	<path class="st1" d="M197.3,460.8l0.1,5.6c0,0.1,0.1,0.2,0.2,0.2h4.7c0.1,0,0.2-0.1,0.2-0.2l0.1-5.6c0,0,0,0,0,0c0,0,0-0.1,0-0.1
		c0,0-0.1-0.1-0.1-0.1h-4.9c0,0-0.1,0-0.1,0.1C197.3,460.7,197.3,460.7,197.3,460.8z M202.1,460.9l-0.1,5.2h-4.3l-0.1-5.2H202.1z"/>
	<path class="st1" d="M197.4,466.8l0.1,5.6c0,0.1,0.1,0.2,0.2,0.2h4.4c0.1,0,0.2-0.1,0.2-0.2l0.1-5.6c0,0,0,0,0,0c0,0,0-0.1,0-0.1
		c0,0-0.1-0.1-0.1-0.1h-4.6c0,0-0.1,0-0.1,0.1C197.4,466.7,197.4,466.8,197.4,466.8z M202,467l-0.1,5.2h-4.1l-0.1-5.2H202z"/>
	<path class="st1" d="M197.6,479l0.1,5.6c0,0.1,0.1,0.2,0.2,0.2h4c0.1,0,0.2-0.1,0.2-0.2l0.1-5.6c0,0,0,0,0,0c0,0,0-0.1,0-0.1
		c0,0-0.1-0.1-0.1-0.1h-4.2c0,0-0.1,0-0.1,0.1C197.6,478.9,197.6,479,197.6,479z M201.8,479.2l-0.1,5.2H198l-0.1-5.2H201.8z"/>
	<path class="st1" d="M197.7,485.1l0.1,5.6c0,0.1,0.1,0.2,0.2,0.2h3.8c0.1,0,0.2-0.1,0.2-0.2l0.1-5.6c0,0,0,0,0,0c0,0,0-0.1,0-0.1
		c0,0-0.1-0.1-0.1-0.1h-4c0,0-0.1,0-0.1,0.1C197.7,485,197.7,485,197.7,485.1z M201.7,485.2l-0.1,5.2h-3.5l-0.1-5.2H201.7z"/>
	<path class="st1" d="M197.8,491.2l0.1,5.6c0,0.1,0.1,0.2,0.2,0.2h3.6c0.1,0,0.2-0.1,0.2-0.2l0.1-5.6c0,0,0,0,0,0c0,0,0-0.1,0-0.1
		c0,0-0.1-0.1-0.1-0.1H198c0,0-0.1,0-0.1,0.1C197.8,491.1,197.8,491.1,197.8,491.2z M201.6,491.3l-0.1,5.2h-3.2l-0.1-5.2H201.6z"/>
	<path class="st1" d="M197.9,497.2l0.1,5.6c0,0.1,0.1,0.2,0.2,0.2h3.3c0.1,0,0.2-0.1,0.2-0.2l0.1-5.6c0,0,0,0,0,0c0,0,0-0.1,0-0.1
		c0,0-0.1-0.1-0.1-0.1h-3.5c0,0-0.1,0-0.1,0.1C198,497.2,197.9,497.2,197.9,497.2z M201.5,497.4l-0.1,5.2h-3l-0.1-5.2H201.5z"/>
	<path class="st1" d="M197.5,472.9l0.1,5.6c0,0.1,0.1,0.2,0.2,0.2h4.2c0.1,0,0.2-0.1,0.2-0.2l0.1-5.6c0,0,0,0,0,0c0,0,0-0.1,0-0.1
		c0,0-0.1-0.1-0.1-0.1h-4.4c0,0-0.1,0-0.1,0.1C197.5,472.8,197.5,472.9,197.5,472.9z M201.9,473.1l-0.1,5.2h-3.9l-0.1-5.2H201.9z"/>
	<path class="st1" d="M195.8,451.4v1.1c0,0.1,0.1,0.2,0.2,0.2h0.6l2.1,116.8c0,0.1,0.1,0.2,0.2,0.2h2.1c0.1,0,0.2-0.1,0.2-0.2
		l2.1-116.8h0.6c0.1,0,0.2-0.1,0.2-0.2v-1.1c0-0.1-0.1-0.2-0.2-0.2H196C195.9,451.3,195.8,451.3,195.8,451.4z M200.8,569.4H199
		l-2.1-116.6h0.2l0,1.4c0,0.1,0.1,0.2,0.2,0.2h5.1c0.1,0,0.2-0.1,0.2-0.2l0-1.4h0.2L200.8,569.4z M197.5,452.7h4.8l0,1.3h-4.8
		L197.5,452.7z M203.6,451.6v0.8h-7.4v-0.8H203.6z"/>
	<path class="st1" d="M120,583.4v13.1c0,0.7,0.6,1.3,1.3,1.3h4.6l-0.1,1.4c0,0,0,0,0,0.1c0,0,0,0.1,0,0.1c0,1,0.8,1.8,1.8,1.8
		c0.8,0,1.5-0.5,1.7-1.3l0.7-2.1h9.8l0.7,2.1c0.2,0.8,0.9,1.3,1.7,1.3c1,0,1.8-0.8,1.8-1.8c0,0,0-0.1,0-0.1c0,0,0,0,0-0.1
		c0,0,0,0,0,0l-0.1-1.4h4.6c0.7,0,1.3-0.6,1.3-1.3v-13.1c0-1.8-1.4-3.2-3.2-3.2h-23.3C121.5,580.2,120,581.6,120,583.4z
		 M127.6,600.9c-0.8,0-1.4-0.7-1.4-1.5c0,0,0-0.1,0-0.1l0,0c0,0,0-0.1,0-0.1l0.3-5c0.4,0.9,1.3,1.5,2.3,1.5c0.7,0,1.3-0.3,1.7-0.7
		l-1.5,4.9C128.8,600.5,128.2,600.9,127.6,600.9z M143.8,596.9l-0.3-4c0,0,0,0,0-0.1c-0.2-1.3-1.2-2.2-2.5-2.2
		c-1.4,0-2.5,1.1-2.5,2.5c0,0.3,0,0.5,0.1,0.8c0,0,0,0,0,0.1l0,0l0.9,3h-9.3l0.9-3l0,0c0,0,0,0,0-0.1c0.1-0.2,0.1-0.5,0.1-0.8
		c0-1.4-1.1-2.5-2.5-2.5c-1.3,0-2.3,0.9-2.5,2.2c0,0,0,0,0,0.1l-0.3,4h-4.6c-0.2,0-0.4-0.2-0.4-0.4v-13.1c0-1.3,1-2.3,2.3-2.3h23.3
		c1.3,0,2.3,1,2.3,2.3v13.1c0,0.2-0.2,0.4-0.4,0.4H143.8z M138.9,593.8C138.9,593.8,138.9,593.8,138.9,593.8
		C138.9,593.8,138.9,593.8,138.9,593.8c-0.1-0.2-0.1-0.5-0.1-0.7c0-1.2,1-2.2,2.2-2.2c1.1,0,2.1,0.8,2.2,2c0,0,0,0,0,0
		c0,0.1,0,0.2,0,0.2c0,1.2-1,2.2-2.2,2.2C140,595.3,139.2,594.7,138.9,593.8z M126.6,592.9C126.6,592.9,126.6,592.9,126.6,592.9
		c0.1-1.1,1.1-2,2.2-2c1.2,0,2.2,1,2.2,2.2c0,0.2,0,0.5-0.1,0.7c0,0,0,0,0,0c0,0,0,0,0,0c-0.3,0.9-1.1,1.5-2.1,1.5
		c-1.2,0-2.2-1-2.2-2.2C126.6,593,126.6,593,126.6,592.9z M130.1,597.5l0.1-0.2h9.5l0.1,0.2H130.1z M143.6,599.3L143.6,599.3
		c0,0.1,0,0.1,0,0.2c0,0.8-0.7,1.5-1.5,1.5c-0.6,0-1.2-0.4-1.4-1.1l-1.5-4.9c0.5,0.4,1.1,0.7,1.7,0.7c1,0,1.9-0.6,2.3-1.5
		L143.6,599.3C143.6,599.2,143.6,599.2,143.6,599.3z M146.5,580.5c1.6,0,2.9,1.3,2.9,2.9v13.1c0,0.5-0.4,0.9-0.9,0.9h-4.6l0-0.2h4.6
		c0.4,0,0.7-0.3,0.7-0.7v-13.1c0-1.4-1.2-2.6-2.6-2.6h-23.3c-1.4,0-2.6,1.2-2.6,2.6v13.1c0,0.4,0.3,0.7,0.7,0.7h4.6l0,0.2h-4.6
		c-0.5,0-0.9-0.4-0.9-0.9v-13.1c0-1.6,1.3-2.9,2.9-2.9H146.5z"/>
	<path class="st1" d="M140,585.5c0-0.8-0.6-1.4-1.4-1.4c-0.8,0-1.4,0.6-1.4,1.4s0.6,1.4,1.4,1.4C139.4,586.9,140,586.3,140,585.5z
		 M137.6,585.5c0-0.6,0.5-1.1,1.1-1.1c0.6,0,1.1,0.5,1.1,1.1s-0.5,1.1-1.1,1.1C138,586.5,137.6,586.1,137.6,585.5z"/>
	<path class="st1" d="M132.5,585.5c0-0.8-0.6-1.4-1.4-1.4c-0.8,0-1.4,0.6-1.4,1.4s0.6,1.4,1.4,1.4
		C131.9,586.9,132.5,586.3,132.5,585.5z M130.1,585.5c0-0.6,0.5-1.1,1.1-1.1c0.6,0,1.1,0.5,1.1,1.1s-0.5,1.1-1.1,1.1
		C130.6,586.5,130.1,586.1,130.1,585.5z"/>
	<path class="st1" d="M150.3,606c0,1.1,0.9,2.1,2.1,2.1c1.1,0,2.1-0.9,2.1-2.1s-0.9-2.1-2.1-2.1C151.3,603.9,150.3,604.8,150.3,606z
		 M154.2,606c0,1-0.8,1.7-1.7,1.7c-1,0-1.7-0.8-1.7-1.7c0-1,0.8-1.7,1.7-1.7C153.4,604.2,154.2,605,154.2,606z"/>
	<path class="st1" d="M68.5,527.7l0.1,5.6c0,0.1,0.1,0.2,0.2,0.2H71c0.1,0,0.2-0.1,0.2-0.2l0.1-5.6c0,0,0,0,0,0c0,0,0-0.1,0-0.1
		c0,0-0.1-0.1-0.1-0.1h-2.4c0,0-0.1,0-0.1,0.1C68.5,527.6,68.5,527.6,68.5,527.7z M70.9,527.8l-0.1,5.2h-1.9l-0.1-5.2H70.9z"/>
	<path class="st1" d="M68.4,521.6l0.1,5.6c0,0.1,0.1,0.2,0.2,0.2h2.5c0.1,0,0.2-0.1,0.2-0.2l0.1-5.6c0,0,0,0,0,0c0,0,0-0.1,0-0.1
		c0,0-0.1-0.1-0.1-0.1h-2.7c0,0-0.1,0-0.1,0.1C68.4,521.5,68.4,521.5,68.4,521.6z M71,521.7L71,527h-2.1l-0.1-5.2H71z"/>
	<path class="st1" d="M68.2,509.4l0.1,5.6c0,0.1,0.1,0.2,0.2,0.2h2.9c0.1,0,0.2-0.1,0.2-0.2l0.1-5.6c0,0,0,0,0,0c0,0,0-0.1,0-0.1
		c0,0-0.1-0.1-0.1-0.1h-3.1c0,0-0.1,0-0.1,0.1C68.2,509.3,68.2,509.4,68.2,509.4z M71.3,509.6l-0.1,5.2h-2.6l-0.1-5.2H71.3z"/>
	<path class="st1" d="M68.3,515.5l0.1,5.6c0,0.1,0.1,0.2,0.2,0.2h2.7c0.1,0,0.2-0.1,0.2-0.2l0.1-5.6c0,0,0,0,0,0c0,0,0-0.1,0-0.1
		c0,0-0.1-0.1-0.1-0.1h-2.9c0,0-0.1,0-0.1,0.1C68.3,515.4,68.3,515.5,68.3,515.5z M71.2,515.7l-0.1,5.2h-2.4l-0.1-5.2H71.2z"/>
	<path class="st1" d="M68.6,533.7l0.1,5.6c0,0.1,0.1,0.2,0.2,0.2h2c0.1,0,0.2-0.1,0.2-0.2l0.1-5.6c0,0,0,0,0,0c0,0,0-0.1,0-0.1
		c0,0-0.1-0.1-0.1-0.1h-2.2c0,0-0.1,0-0.1,0.1C68.6,533.7,68.6,533.7,68.6,533.7z M70.8,533.9l-0.1,5.2H69l-0.1-5.2H70.8z"/>
	<path class="st1" d="M69,558.1l0.1,5.6c0,0.1,0.1,0.2,0.2,0.2h1.1c0.1,0,0.2-0.1,0.2-0.2l0.1-5.6c0,0,0,0,0,0c0,0,0-0.1,0-0.1
		c0,0-0.1-0.1-0.1-0.1h-1.4c0,0-0.1,0-0.1,0.1C69.1,558,69,558,69,558.1z M70.4,558.2l-0.1,5.2h-0.8l-0.1-5.2H70.4z"/>
	<path class="st1" d="M68.7,539.8l0.1,5.6c0,0.1,0.1,0.2,0.2,0.2h1.8c0.1,0,0.2-0.1,0.2-0.2l0.1-5.6c0,0,0,0,0,0c0,0,0-0.1,0-0.1
		c0,0-0.1-0.1-0.1-0.1h-2c0,0-0.1,0-0.1,0.1C68.7,539.7,68.7,539.8,68.7,539.8z M70.7,540l-0.1,5.2h-1.5l-0.1-5.2H70.7z"/>
	<path class="st1" d="M68.1,503.3l0.1,5.6c0,0.1,0.1,0.2,0.2,0.2h3.1c0.1,0,0.2-0.1,0.2-0.2l0.1-5.6c0,0,0,0,0,0c0,0,0-0.1,0-0.1
		c0,0-0.1-0.1-0.1-0.1h-3.3c0,0-0.1,0-0.1,0.1C68.1,503.2,68.1,503.3,68.1,503.3z M71.4,503.5l-0.1,5.2h-2.8l-0.1-5.2H71.4z"/>
	<path class="st1" d="M68.9,552l0.1,5.6c0,0.1,0.1,0.2,0.2,0.2h1.4c0.1,0,0.2-0.1,0.2-0.2l0.1-5.6c0,0,0,0,0,0c0,0,0-0.1,0-0.1
		c0,0-0.1-0.1-0.1-0.1h-1.6c0,0-0.1,0-0.1,0.1C69,551.9,68.9,551.9,68.9,552z M70.5,552.2l-0.1,5.2h-1l-0.1-5.2H70.5z"/>
	<path class="st1" d="M68.8,545.9l0.1,5.6c0,0.1,0.1,0.2,0.2,0.2h1.6c0.1,0,0.2-0.1,0.2-0.2l0.1-5.6c0,0,0,0,0,0c0,0,0-0.1,0-0.1
		c0,0-0.1-0.1-0.1-0.1H69c0,0-0.1,0-0.1,0.1C68.8,545.8,68.8,545.9,68.8,545.9z M70.6,546.1l-0.1,5.2h-1.3l-0.1-5.2H70.6z"/>
	<path class="st1" d="M69.2,564.1l0.1,4.8c0,0.1,0.1,0.2,0.2,0.2h1c0.1,0,0.2-0.1,0.2-0.2l0.1-4.8c0,0,0,0,0,0c0,0,0-0.1,0-0.1
		c0,0-0.1-0.1-0.1-0.1h-1.1c0,0-0.1,0-0.1,0.1C69.2,564.1,69.1,564.1,69.2,564.1z M70.3,564.3l-0.1,4.5h-0.6l-0.1-4.5H70.3z"/>
	<path class="st1" d="M67.2,454.7l0.1,5.6c0,0.1,0.1,0.2,0.2,0.2h4.9c0.1,0,0.2-0.1,0.2-0.2l0.1-5.6c0,0,0,0,0,0c0,0,0-0.1,0-0.1
		c0,0-0.1-0.1-0.1-0.1h-5.1c0,0-0.1,0-0.1,0.1C67.2,454.6,67.2,454.6,67.2,454.7z M72.3,454.8l-0.1,5.2h-4.5l-0.1-5.2H72.3z"/>
	<path class="st1" d="M67.3,460.8l0.1,5.6c0,0.1,0.1,0.2,0.2,0.2h4.7c0.1,0,0.2-0.1,0.2-0.2l0.1-5.6c0,0,0,0,0,0c0,0,0-0.1,0-0.1
		c0,0-0.1-0.1-0.1-0.1h-4.9c0,0-0.1,0-0.1,0.1C67.3,460.7,67.3,460.7,67.3,460.8z M72.1,460.9l-0.1,5.2h-4.3l-0.1-5.2H72.1z"/>
	<path class="st1" d="M67.4,466.8l0.1,5.6c0,0.1,0.1,0.2,0.2,0.2h4.4c0.1,0,0.2-0.1,0.2-0.2l0.1-5.6c0,0,0,0,0,0c0,0,0-0.1,0-0.1
		c0,0-0.1-0.1-0.1-0.1h-4.6c0,0-0.1,0-0.1,0.1C67.4,466.7,67.4,466.8,67.4,466.8z M72,467l-0.1,5.2h-4.1l-0.1-5.2H72z"/>
	<path class="st1" d="M67.6,479l0.1,5.6c0,0.1,0.1,0.2,0.2,0.2h4c0.1,0,0.2-0.1,0.2-0.2l0.1-5.6c0,0,0,0,0,0c0,0,0-0.1,0-0.1
		c0,0-0.1-0.1-0.1-0.1h-4.2c0,0-0.1,0-0.1,0.1C67.6,478.9,67.6,479,67.6,479z M71.8,479.2l-0.1,5.2h-3.7l-0.1-5.2H71.8z"/>
	<path class="st1" d="M67.7,485.1l0.1,5.6c0,0.1,0.1,0.2,0.2,0.2h3.8c0.1,0,0.2-0.1,0.2-0.2l0.1-5.6c0,0,0,0,0,0c0,0,0-0.1,0-0.1
		c0,0-0.1-0.1-0.1-0.1h-4c0,0-0.1,0-0.1,0.1C67.7,485,67.7,485,67.7,485.1z M71.7,485.2l-0.1,5.2h-3.5l-0.1-5.2H71.7z"/>
	<path class="st1" d="M67.8,491.2l0.1,5.6c0,0.1,0.1,0.2,0.2,0.2h3.6c0.1,0,0.2-0.1,0.2-0.2l0.1-5.6c0,0,0,0,0,0c0,0,0-0.1,0-0.1
		c0,0-0.1-0.1-0.1-0.1H68c0,0-0.1,0-0.1,0.1C67.9,491.1,67.8,491.1,67.8,491.2z M71.6,491.3l-0.1,5.2h-3.2l-0.1-5.2H71.6z"/>
	<path class="st1" d="M67.9,497.2l0.1,5.6c0,0.1,0.1,0.2,0.2,0.2h3.3c0.1,0,0.2-0.1,0.2-0.2l0.1-5.6c0,0,0,0,0,0c0,0,0-0.1,0-0.1
		c0,0-0.1-0.1-0.1-0.1h-3.5c0,0-0.1,0-0.1,0.1C68,497.2,67.9,497.2,67.9,497.2z M71.5,497.4l-0.1,5.2h-3l-0.1-5.2H71.5z"/>
	<path class="st1" d="M67.5,472.9l0.1,5.6c0,0.1,0.1,0.2,0.2,0.2H72c0.1,0,0.2-0.1,0.2-0.2l0.1-5.6c0,0,0,0,0,0c0,0,0-0.1,0-0.1
		c0,0-0.1-0.1-0.1-0.1h-4.4c0,0-0.1,0-0.1,0.1C67.5,472.8,67.5,472.9,67.5,472.9z M71.9,473.1l-0.1,5.2h-3.9l-0.1-5.2H71.9z"/>
	<path class="st1" d="M65.8,451.4v1.1c0,0.1,0.1,0.2,0.2,0.2h0.6l2.1,116.8c0,0.1,0.1,0.2,0.2,0.2h2.1c0.1,0,0.2-0.1,0.2-0.2
		l2.1-116.8h0.6c0.1,0,0.2-0.1,0.2-0.2v-1.1c0-0.1-0.1-0.2-0.2-0.2H66C65.9,451.3,65.8,451.3,65.8,451.4z M72.3,452.7l0,1.3h-4.8
		l0-1.3H72.3z M70.8,569.4H69l-2.1-116.6h0.2l0,1.4c0,0.1,0.1,0.2,0.2,0.2h5.1c0.1,0,0.2-0.1,0.2-0.2l0-1.4h0.2L70.8,569.4z
		 M73.6,451.6v0.8h-7.4v-0.8H73.6z"/>
	<path class="st1" d="M115.3,606c0,1.1,0.9,2.1,2.1,2.1c1.2,0,2.1-0.9,2.1-2.1s-0.9-2.1-2.1-2.1C116.2,603.9,115.3,604.8,115.3,606z
		 M119.1,606c0,1-0.8,1.7-1.8,1.7c-1,0-1.7-0.8-1.7-1.7c0-1,0.8-1.7,1.7-1.7C118.3,604.2,119.1,605,119.1,606z"/>
	<path class="st1" d="M135.4,7.9c0,0.5,0.1,0.9,0.3,1.3c-0.6-0.1-1.1-0.1-1.7,0c0.2-0.4,0.3-0.8,0.3-1.3c0,0,0,0,0,0
		c0-0.7-0.3-1.4-0.8-2c-0.5-0.5-1.2-0.9-2-0.9c-1.6,0-2.9,1.2-2.9,2.8c0,0,0,0,0,0c0,1.3,0.9,2.5,2.2,2.8c-0.2,0.2-0.4,0.3-0.5,0.5
		c-0.4-1.1-1.4-1.9-2.6-1.9c-1.6,0-2.9,1.2-2.9,2.8c0,0,0,0,0,0c0,0.7,0.2,1.3,0.6,1.8c-0.4-0.2-0.9-0.4-1.4-0.4
		c-0.8,0-1.5,0.3-2,0.8c-0.5,0.5-0.9,1.2-0.9,2c0,0.7,0.2,1.4,0.7,1.9c-0.3-0.1-0.7-0.2-1.1-0.2c-0.8,0-1.5,0.3-2,0.8
		c-0.5,0.5-0.9,1.2-0.9,2c0,0.7,0.2,1.3,0.6,1.8c-0.4-0.2-0.7-0.2-1.1-0.3c-0.8,0-1.5,0.3-2,0.8c-0.5,0.5-0.9,1.2-0.9,2c0,0,0,0,0,0
		c0,0.7,0.3,1.4,0.8,2c0.1,0.1,0.1,0.1,0.2,0.2c-0.4-0.2-0.8-0.3-1.3-0.3c-1.6,0-2.9,1.2-2.9,2.8c0,0,0,0,0,0c0,0.8,0.3,1.4,0.8,2
		c-0.3-0.1-0.7-0.2-1-0.2c-1.6,0-2.9,1.2-2.9,2.8c0,0.8,0.3,1.5,0.8,2c0.5,0.5,1.2,0.9,2,0.9c0.2,0,0.3,0,0.5,0l0,0.1l-0.1,0.2
		c-0.5,0.7-0.9,1.4-1.4,2.1l-0.6,0.9c-0.2,0.4-0.5,0.7-0.7,1.1c0,0.1-0.1,0.1-0.1,0.2l0,0c-1.4,2.1-2.7,4.2-4.1,6.4c0,0,0,0,0,0
		l-0.3,0.4c-0.2,0.3-0.4,0.7-0.6,1l0,0.1c-0.2,0.3-0.3,0.5-0.5,0.8c0,0,0,0,0,0c-9,14-17.2,29.1-23.8,43.7c0,0,0,0,0,0
		c-0.2,0.4-0.4,0.9-0.6,1.3l0,0c0,0,0,0.1,0,0.1l0,0l-0.7,1.6l0,0c-0.6,1.4-1.2,2.8-1.7,4.1l0,0c-0.2,0.5-0.4,0.9-0.6,1.4
		c-0.2,0.4-0.4,0.9-0.5,1.3l0,0.1c-0.3,0.7-0.5,1.3-0.8,2c-0.2,0.5-0.4,0.9-0.5,1.4c-0.2,0.5-0.4,1-0.6,1.6l-0.1,0.2
		c-0.1,0.4-0.3,0.8-0.4,1.2c-0.3,0.8-0.6,1.6-0.9,2.4l0,0c-0.1,0.2-0.2,0.5-0.3,0.7c0,0.1-0.1,0.2-0.1,0.3c-0.1,0.2-0.2,0.5-0.2,0.7
		l-0.1,0.4c-0.1,0.3-0.2,0.7-0.4,1l0,0.1l0,0.1c-0.1,0.2-0.1,0.4-0.2,0.6l0,0l0,0.1c0,0.1-0.1,0.2-0.1,0.3c-0.2,0.5-0.3,0.9-0.5,1.4
		c0,0,0,0.1,0,0.1c-0.2,0.5-0.3,0.9-0.5,1.4c-0.1,0.2-0.1,0.3-0.2,0.5c-0.1,0.3-0.2,0.7-0.3,1c0,0.1-0.1,0.2-0.1,0.3
		c-0.1,0.3-0.2,0.6-0.3,0.9l-0.1,0.3c-0.3,0.9-0.6,1.9-0.9,2.9c-0.2,0.8-0.5,1.6-0.7,2.4c0,0.1,0,0.1-0.1,0.2l0,0c0,0,0,0,0,0
		c0,0,0,0,0,0.1l0,0.1c-0.1,0.3-0.2,0.6-0.2,0.9c-0.2,0.8-0.4,1.6-0.7,2.5l0,0c-0.1,0.4-0.2,0.8-0.3,1.2c-0.2,0.7-0.3,1.4-0.5,2.2
		c-0.1,0.3-0.1,0.5-0.2,0.8c-0.1,0.4-0.2,0.7-0.2,1.1l-0.1,0.5c-0.1,0.3-0.1,0.5-0.2,0.7c-0.2,0.7-0.3,1.4-0.4,2.1l0,0c0,0,0,0,0,0
		l-0.3,1.5c-0.1,0.3-0.1,0.7-0.2,1l-0.1,0.5c-0.1,0.4-0.1,0.8-0.2,1.2l0,0.3c0,0.1,0,0.2,0,0.2c0,0.2-0.1,0.4-0.1,0.6
		c0,0,0,0.1,0,0.1l0,0.1h0c0,0,0,0,0,0c0,0.2-0.1,0.3-0.1,0.5c0,0.2-0.1,0.3-0.1,0.5c0,0.1,0,0.1,0,0.2c0,0.1,0,0.1,0,0.2
		c0,0,0,0.1,0,0.1c-0.2,1-0.3,2-0.4,2.9c0,0,0,0.1,0,0.1c0,0,0,0,0,0l0,0c0,0,0,0,0,0c0,0.2-0.1,0.5-0.1,0.7c0,0.4-0.1,0.7-0.1,1.1
		l0,0.1l0,0l-0.1,0.9c0,0.1,0,0.1,0,0.2c0,0.3-0.1,0.6-0.1,0.9l0,0.1h0c0,0,0,0,0,0.1h0l0,0.3c0,0.1,0,0.2,0,0.3c0,0.1,0,0.2,0,0.2
		l-0.1,0.7c0,0.1,0,0.2,0,0.3c0,0.1,0,0.2,0,0.3l0,0.1l0,0l0,0.4c0,0.2,0,0.4-0.1,0.6l0,0h0c0,0.2,0,0.4,0,0.6l0,0l0,0
		c0,0,0,0.1,0,0.1c0,0,0,0,0,0h0c0,0,0,0,0,0h0c0,0.4-0.1,0.8-0.1,1.1l-0.1,1.2h0c0,0.3,0,0.7,0,1h0l0,0c0,0.2,0,0.5,0,0.7l0,0.1
		c0,0.1,0,0.1,0,0.2c0,0.3,0,0.7,0,1.1c0,0,0,0,0,0l0,0.1c0,0.2,0,0.5,0,0.7c0,0,0,0,0,0.1c0,0,0,0,0,0.1h0c0,0,0,0.1,0,0.1
		c0,0.3,0,0.5,0,0.8c0,0,0,0,0,0c0,0,0,0,0,0c0,0.4,0,0.8,0,1.2V258v20.7v20.4v49.1v160.9v4.4V535v35.2v16.4v6.1V604
		c0,17.1,13.9,31,31,31h28.7c0,0,0.1,0,0.1,0l0,0l9-4.8h10.7l9,4.8c0,0,0.1,0,0.1,0v0H178c17.1,0,31-13.9,31-31v-11.4v-6.1v-16.4
		V535v-21.5v-4.4V348.2v-49.1v-20.4V258v-90.6c0-0.4,0-0.8,0-1.2c0-0.3,0-0.5,0-0.8c0-0.1,0-0.1,0-0.2c0,0,0-0.1,0-0.1
		c0,0,0-0.1,0-0.1c0-0.1,0-0.2,0-0.2c0,0,0,0,0,0h0c0-0.3,0-0.6,0-0.9c0-0.2,0-0.4,0-0.6c0-0.1,0-0.1,0-0.2l0-0.4
		c0-0.4,0-0.8-0.1-1.2c0-0.1,0-0.2,0-0.4l0,0c0-0.2,0-0.5,0-0.7l0-0.2v0l0,0c0-0.3,0-0.6-0.1-0.8l0-0.1c0,0,0,0,0,0l0-0.6
		c0-0.3,0-0.6-0.1-0.9l0-0.1c0-0.1,0-0.2,0-0.4c0-0.1,0-0.2,0-0.3l-0.2,0l0.2-0.1c0,0,0-0.1,0-0.1l-0.2-1.6l0,0
		c-0.1-0.7-0.1-1.3-0.2-2l0-0.1c0-0.1,0-0.2,0-0.2c-0.1-0.5-0.1-1.1-0.2-1.6c0-0.1,0-0.1,0-0.2c0-0.1,0-0.3-0.1-0.4
		c-0.1-0.4-0.1-0.9-0.2-1.3c0,0,0,0,0,0c0,0,0,0,0-0.1c-0.1-0.5-0.1-0.9-0.2-1.4c0-0.1,0-0.3-0.1-0.4c0-0.3-0.1-0.6-0.1-0.9l0,0
		c0,0,0-0.1,0-0.1l0-0.1c0-0.1,0-0.1,0-0.2l-0.2-1.1c0-0.1,0-0.2-0.1-0.3c0-0.2-0.1-0.4-0.1-0.6l-0.4-2.1c-0.1-0.4-0.2-0.8-0.2-1.2
		c-3-14.6-8.1-30.1-15.3-46.3c0,0,0,0,0,0C184.2,80,176,64.9,167,50.8c0,0,0,0,0,0c-0.5-0.8-1-1.6-1.5-2.5l-0.3-0.4
		c-0.3-0.5-0.6-0.9-0.9-1.4c-1.5-2.3-3-4.6-4.4-6.8c-0.3-0.4-0.5-0.8-0.8-1.2l-0.8-1.2c0.2,0,0.3,0,0.5,0c0.8,0,1.5-0.3,2-0.9
		c0.5-0.5,0.8-1.2,0.8-2c0,0,0,0,0,0c0-1.6-1.3-2.8-2.9-2.8c-0.4,0-0.7,0.1-1,0.2c0.5-0.5,0.8-1.2,0.8-2c0,0,0,0,0,0
		c0-1.6-1.3-2.8-2.9-2.8c-0.5,0-0.9,0.1-1.3,0.3c0.1-0.1,0.2-0.1,0.2-0.2c0.5-0.5,0.8-1.2,0.8-2c0,0,0,0,0,0c0-0.8-0.3-1.5-0.9-2
		c-0.5-0.5-1.3-0.8-2-0.8c-0.4,0-0.8,0.1-1.1,0.3c0.4-0.5,0.6-1.1,0.6-1.8c0,0,0,0,0,0c0-0.8-0.3-1.5-0.9-2c-0.5-0.5-1.3-0.8-2-0.8
		c-0.4,0-0.8,0.1-1.1,0.2c0.4-0.5,0.7-1.2,0.7-1.9c0,0,0,0,0,0c0-0.8-0.3-1.5-0.9-2c-0.5-0.5-1.3-0.8-2-0.8c-0.5,0-1,0.1-1.4,0.4
		c0.4-0.5,0.6-1.1,0.6-1.8c0,0,0,0,0,0c0-1.6-1.3-2.8-2.9-2.8c-1.2,0-2.2,0.8-2.6,1.9c-0.2-0.2-0.4-0.4-0.5-0.5
		c1.3-0.3,2.2-1.4,2.2-2.8c0,0,0,0,0,0c0-1.6-1.3-2.8-2.9-2.8c-0.8,0-1.5,0.3-2,0.9C135.7,6.5,135.4,7.2,135.4,7.9z M129,7.9
		c0-1.4,1.2-2.5,2.6-2.5c0.7,0,1.3,0.3,1.8,0.8c0.5,0.5,0.7,1.1,0.7,1.8c0,0,0,0,0,0c0,0.5-0.2,1-0.4,1.4c-0.9,0.2-1.7,0.6-2.4,1.1
		C129.9,10.2,129,9.2,129,7.9z M125.1,12.2C125.1,12.2,125.1,12.2,125.1,12.2c0-1.4,1.2-2.5,2.6-2.5c1.1,0,2.1,0.8,2.4,1.8
		c0,0,0,0.1-0.1,0.1c-0.7,0.9-1.5,2-2.4,3.1l0,0h0C126.2,14.7,125.1,13.6,125.1,12.2z M127.3,15.1L127.3,15.1
		C127.3,15.1,127.3,15.1,127.3,15.1l-0.3,0.4c-0.1,0.1-0.1,0.2-0.2,0.2c-0.1-0.4-0.3-0.8-0.5-1.1C126.5,14.9,126.9,15,127.3,15.1
		C127.3,15.1,127.3,15.1,127.3,15.1C127.3,15.1,127.3,15.1,127.3,15.1z M121.5,16.4c0-0.7,0.3-1.3,0.8-1.8c0.5-0.5,1.1-0.7,1.8-0.7
		c1.3,0,2.3,1,2.5,2.2l-0.9,1.3c0,0,0,0.1-0.1,0.1H125c-0.8,0-1.4,0.6-1.5,1.4C122.3,18.7,121.4,17.6,121.5,16.4z M146.3,20.2v-0.9
		c0.2,0,0.5-0.1,0.7-0.2C146.6,19.4,146.4,19.8,146.3,20.2L146.3,20.2z M145.9,19v12.4l-1.1-1.1v-9.6c0-1-0.8-1.7-1.7-1.7H136
		c0,0,0,0,0,0v-0.1c0-0.3-0.2-0.5-0.5-0.5h-1c-0.3,0-0.5,0.2-0.5,0.5V19c0,0,0,0,0,0h-7.3c-1,0-1.7,0.8-1.7,1.7v9.6l-1.1,1.1V19
		c0-0.6,0.5-1.2,1.2-1.2h19.8C145.4,17.9,145.9,18.4,145.9,19z M106.5,48.9c6-8.6,11.1-15.4,15.1-20.1c0.6-0.7,1.1-1.3,1.6-1.8
		c0.1-0.1,0.2-0.2,0.3-0.3v5L106.5,48.9z M127.9,27.8c0.1,0,0.1,0,0.2,0l0.2-0.1l-23.6,23.9c0.2-0.4,0.5-0.7,0.7-1L127.9,27.8z
		 M144.5,31.2v1.2c0,0.8-0.6,1.4-1.4,1.4h-16.4c-0.8,0-1.4-0.6-1.4-1.4v-1.2l0.2-0.2v1.4c0,0.6,0.5,1.2,1.2,1.2h16.4
		c0.6,0,1.2-0.5,1.2-1.2V31L144.5,31.2z M143.9,30.7v1.8c0,0.5-0.4,0.8-0.8,0.8h-16.4c-0.5,0-0.8-0.4-0.8-0.8v-1.8l3.1-3.1v3.7
		c0,0.8,0.6,1.4,1.4,1.4h9.3c0.8,0,1.4-0.6,1.4-1.4v-3.6L143.9,30.7z M140.7,27.4v3.9c0,0.6-0.5,1-1,1h-9.3c-0.6,0-1-0.5-1-1v-3.9
		l0.2-0.1v4c0,0.4,0.4,0.8,0.8,0.8h9.3c0.4,0,0.8-0.4,0.8-0.8v-4L140.7,27.4z M140.1,27.2v4.1c0,0.3-0.2,0.5-0.5,0.5h-9.3
		c-0.3,0-0.5-0.2-0.5-0.5v-4.1l3.3-1.1c0.4,0.6,1.1,1,1.8,1c0.7,0,1.4-0.4,1.8-1L140.1,27.2z M136.4,24.9
		C136.4,24.9,136.4,24.9,136.4,24.9C136.4,24.9,136.4,24.9,136.4,24.9c0,0.4-0.1,0.6-0.2,0.8c-0.3,0.5-0.8,0.8-1.3,0.8
		c-0.5,0-1-0.3-1.3-0.8c-0.1-0.2-0.2-0.5-0.2-0.7c0,0,0,0,0,0c0,0,0,0,0-0.1c0,0,0,0,0,0c0-0.2,0-0.3,0.1-0.5
		c0.1-0.3,0.3-0.5,0.6-0.7c0.2-0.1,0.5-0.2,0.7-0.2c0.3,0,0.5,0.1,0.7,0.2c0.3,0.2,0.5,0.4,0.6,0.7
		C136.4,24.5,136.4,24.7,136.4,24.9z M132.1,25.1l-2.3,0.8v-0.3c0-0.3,0.2-0.5,0.5-0.5H132.1z M132.9,24.5c0,0.1,0,0.2,0,0.2h-2.6
		c-0.4,0-0.8,0.4-0.8,0.8v0.4l-0.2,0.1v-0.5c0-0.6,0.5-1,1-1H132.9z M132.9,25.2c0,0.2,0.1,0.4,0.1,0.6l-5,1.7c0,0,0,0-0.1,0
		c0,0,0,0,0,0l-0.2-0.5c0,0,0-0.1,0-0.1L132.9,25.2z M136.9,25.8c0.1-0.2,0.1-0.4,0.1-0.6l5,1.7c0,0,0.1,0,0,0.1l-0.2,0.5
		c0,0,0,0-0.1,0L136.9,25.8z M137.8,25.1h1.8c0.3,0,0.5,0.2,0.5,0.5v0.3L137.8,25.1z M140.4,25.9v-0.4c0-0.4-0.4-0.8-0.8-0.8H137
		c0-0.1,0-0.2,0-0.2h2.6c0.6,0,1,0.5,1,1V26L140.4,25.9z M134.3,23v-2.1c0.2,0.1,0.4,0.2,0.7,0.2c0.2,0,0.5-0.1,0.7-0.2V23
		c-0.2-0.1-0.4-0.1-0.7-0.1C134.7,22.9,134.5,22.9,134.3,23z M135.5,19.2c0,0,0.1,0.1,0.1,0.1c0,0,0.1,0.1,0.1,0.2
		c0,0.1,0,0.1,0,0.2c0,0,0,0,0,0.1c0,0.2,0,0.3-0.1,0.4c-0.1,0.2-0.4,0.4-0.7,0.4c-0.3,0-0.5-0.1-0.7-0.4c-0.1-0.1-0.1-0.3-0.1-0.4
		c0,0,0,0,0-0.1c0-0.1,0-0.1,0-0.2c0-0.1,0-0.1,0.1-0.2c0,0,0.1-0.1,0.1-0.1c0.2-0.2,0.4-0.3,0.6-0.3
		C135.2,19,135.4,19.1,135.5,19.2z M133.7,19.9c0,0.3,0.1,0.5,0.3,0.8v2.5c-0.4,0.2-0.7,0.6-0.9,1h-2.7c-0.8,0-1.4,0.6-1.4,1.4v0.6
		l-1.2,0.4c-0.2,0.1-0.3,0.3-0.3,0.5l0.2,0.5c0,0,0,0,0,0.1l-1.8,1.8v-8.7c0-0.5,0.4-0.8,0.8-0.8H133.7z M142.2,27.6
		c0,0,0.1-0.1,0.1-0.1l0.2-0.5c0,0,0-0.1,0-0.1c0-0.2-0.1-0.3-0.3-0.4l-1.2-0.4v-0.6c0-0.8-0.6-1.4-1.4-1.4h-2.8
		c-0.2-0.4-0.5-0.8-0.9-1v-2.5c0.2-0.2,0.3-0.5,0.3-0.8h6.8c0.5,0,0.8,0.4,0.8,0.8v8.7L142.2,27.6z M144.3,29.7v-9
		c0-0.6-0.5-1.2-1.2-1.2h-6.9c0,0,0,0,0-0.1c0-0.1,0-0.1-0.1-0.2h6.9c0.8,0,1.4,0.6,1.4,1.4V30L144.3,29.7z M133.7,19.3
		c0,0.1,0,0.1-0.1,0.2c0,0,0,0.1,0,0.1h-7c-0.6,0-1.2,0.5-1.2,1.2v9l-0.2,0.2v-9.2c0-0.8,0.6-1.4,1.4-1.4H133.7z M124.9,31.6v0.9
		c0,1,0.8,1.7,1.7,1.7h16.4c1,0,1.7-0.8,1.7-1.7v-0.9l1.1,1.1v1.4c0,0.6-0.5,1.2-1.2,1.2H125c-0.6,0-1.2-0.5-1.2-1.2v-1.4
		L124.9,31.6z M141.4,27.6l0.4,0.1c0,0,0,0,0.1,0l22.5,22.8c0.2,0.4,0.5,0.7,0.7,1.1L141.4,27.6z M146.3,31.7v-5
		c0.1,0.1,0.2,0.2,0.3,0.3c0.4,0.5,1,1.1,1.6,1.8c4,4.7,9.1,11.4,15.1,20.1L146.3,31.7z M123.5,19.3v0.9l-0.1,0.1
		c-0.1-0.5-0.3-0.9-0.6-1.2C123,19.2,123.3,19.2,123.5,19.3z M118.2,20.9c0-0.7,0.3-1.3,0.8-1.8c0.5-0.5,1.1-0.7,1.8-0.7
		c1.3,0,2.3,1,2.5,2.2c-0.2,0.3-0.4,0.6-0.6,0.9c-0.1,0.1-0.2,0.2-0.3,0.4l-0.1,0.2c-0.3,0.4-0.5,0.7-0.8,1.1l-0.2,0.2
		c-0.2,0-0.3,0.1-0.5,0.1c-0.7,0-1.3-0.3-1.8-0.8C118.4,22.2,118.1,21.6,118.2,20.9z M120.1,24.9c-0.1-0.5-0.3-1-0.6-1.4
		c0.4,0.2,0.7,0.2,1.1,0.3c0.1,0,0.2,0,0.3,0c-0.1,0.1-0.1,0.2-0.2,0.3l-0.2,0.3h0L120.1,24.9z M115.4,27.1
		c-0.5-0.5-0.7-1.1-0.7-1.7c0,0,0,0,0,0c0-0.7,0.3-1.3,0.8-1.8c0.5-0.5,1.1-0.7,1.8-0.7c0.7,0,1.3,0.3,1.8,0.8
		c0.5,0.5,0.7,1.1,0.7,1.8c-0.4,0.6-0.8,1.1-1.2,1.7l-0.4,0.6c-0.3,0.1-0.6,0.2-0.9,0.2C116.5,27.8,115.9,27.6,115.4,27.1z
		 M117.2,28.2c0.2,0,0.4,0,0.6-0.1l-0.1,0.2l0,0l-0.2,0.3l0,0c0,0,0,0,0,0l-0.6,0.8c-0.1-0.6-0.5-1.2-1-1.6
		C116.3,28,116.8,28.2,117.2,28.2z M111.6,30c0-1.4,1.2-2.5,2.6-2.5c1.3,0,2.4,1,2.5,2.3l-0.1,0.1c-0.6,0.8-1.1,1.7-1.7,2.5
		c-0.2,0.1-0.5,0.1-0.7,0.1C112.7,32.5,111.6,31.4,111.6,30z M113.9,33.7c-0.1,0.1-0.1,0.2-0.2,0.3c-0.1-0.5-0.4-1-0.7-1.3
		c0.3,0.1,0.7,0.2,1,0.2c0.2,0,0.3,0,0.5,0c0,0.1-0.1,0.1-0.1,0.2l-0.3,0.4l0,0L113.9,33.7z M109.2,36.4c-0.5-0.5-0.7-1.1-0.7-1.8
		c0-1.4,1.2-2.5,2.6-2.5c1.3,0,2.4,1,2.5,2.3l-0.1,0.2c-0.2,0.3-0.4,0.5-0.5,0.8c-0.4,0.5-0.7,1.1-1.1,1.7c-0.2,0.1-0.5,0.1-0.8,0.1
		C110.3,37.1,109.6,36.9,109.2,36.4z M108.7,42.2L108.7,42.2c0.3-0.5,0.6-1,1-1.5l0.3-0.5c0.1-0.1,0.1-0.2,0.2-0.3l0,0l0,0
		c0.5-0.7,0.9-1.4,1.4-2.1l0.1-0.1l0,0l0-0.1l0.1-0.1c0-0.1,0.1-0.1,0.1-0.2l0,0c0,0,0-0.1,0.1-0.1c0.4-0.6,0.8-1.1,1.1-1.7
		c0.2-0.3,0.4-0.5,0.5-0.8l1-1.5c0.1-0.2,0.3-0.4,0.4-0.6c0.6-0.9,1.2-1.7,1.8-2.6c0,0,0-0.1,0.1-0.1l0-0.1c0,0,0,0,0,0l0.8-1.1
		c0.1-0.1,0.2-0.2,0.2-0.3l0.9-1.3c0.4-0.6,0.8-1.2,1.2-1.7c0.2-0.3,0.5-0.6,0.7-0.9l0.2-0.3c0.1-0.1,0.1-0.2,0.2-0.3
		c0.1-0.1,0.1-0.2,0.2-0.3l0.2-0.3c0.3-0.4,0.5-0.8,0.8-1.1l0.1-0.2c0.1-0.1,0.2-0.2,0.3-0.4c0.2-0.3,0.5-0.6,0.7-0.9l0,0v3
		c-0.9,0.9-1.9,2-2.9,3.1c-0.5,0.5-1,1.1-1.5,1.8c-3.2,3.8-6.8,8.6-11.2,14.7C108.2,43,108.4,42.6,108.7,42.2
		C108.7,42.2,108.7,42.2,108.7,42.2z M103.1,51c0.1-0.1,0.1-0.2,0.2-0.3c0.1-0.1,0.1-0.2,0.2-0.3l3.8-5.5c4.7-6.7,8.7-12,12.1-16
		c0.5-0.6,1-1.2,1.5-1.8c0.9-1,1.8-2,2.6-2.8v2c-0.2,0.2-0.4,0.4-0.5,0.6c-0.4,0.5-1,1.1-1.6,1.8c-4.2,4.9-9.7,12.2-16.1,21.5
		c0,0,0,0.1-0.1,0.1l0,0l0,0c-0.6,0.8-1.1,1.7-1.7,2.5c-8.5,13-16.4,27.4-22.7,41.7h-1.3C85.9,79.9,94.1,64.9,103.1,51
		C103.1,51,103.1,51,103.1,51z M63,146.5l0-0.1c0-0.1,0-0.1,0-0.1c0-0.2,0.1-0.4,0.1-0.5c0-0.1,0-0.2,0-0.2l0.1-0.3
		c0.1-0.4,0.1-0.8,0.2-1.2l0.1-0.5c0.1-0.3,0.1-0.7,0.2-1l0.3-1.5c0-0.2,0.1-0.4,0.1-0.7c0.1-0.7,0.3-1.4,0.5-2.1l0,0l0.1-0.5
		c0.1-0.4,0.2-0.7,0.2-1.1c0.1-0.3,0.1-0.5,0.2-0.8c0.2-0.7,0.3-1.4,0.5-2.2c0,0,0,0,0,0l0.3-1.2c0.2-0.8,0.4-1.6,0.6-2.5
		c0.1-0.3,0.2-0.6,0.2-0.9l0-0.1c0,0,0-0.1,0-0.1c0.2-0.9,0.5-1.7,0.7-2.6l0,0c0,0,0,0,0,0c0.3-1,0.6-2,0.9-2.9l0,0
		c0.1-0.5,0.3-0.9,0.4-1.4c0.2-0.5,0.3-1,0.5-1.5c0.2-0.5,0.3-0.9,0.5-1.4l0,0c0,0,0,0,0,0c0,0,0,0,0-0.1c0.2-0.5,0.3-0.9,0.5-1.4
		c0-0.1,0.1-0.2,0.1-0.3l0.3-0.9c0.1-0.3,0.2-0.7,0.4-1l0.1-0.4c0.1-0.2,0.2-0.5,0.2-0.7c0.1-0.3,0.2-0.7,0.4-1
		c0.3-0.8,0.6-1.6,0.9-2.4c0.1-0.4,0.3-0.8,0.4-1.2l0.1-0.2c0.2-0.5,0.4-1,0.6-1.6c0.2-0.5,0.3-0.9,0.5-1.4c0.3-0.7,0.5-1.3,0.8-2
		l0-0.1c0.2-0.4,0.4-0.9,0.5-1.3l0,0c0,0,0,0,0,0c0.2-0.5,0.4-1,0.6-1.4c0,0,0,0,0,0l0,0c0,0,0-0.1,0-0.1c0.5-1.3,1.1-2.6,1.7-3.9
		c0,0,0-0.1,0-0.1l0,0l0.7-1.6c0.2-0.4,0.4-0.8,0.5-1.2h1.3c-0.1,0.3-0.3,0.6-0.4,0.9c-0.3,0.6-0.5,1.2-0.8,1.8
		c-0.2,0.4-0.4,0.9-0.6,1.3c-0.1,0.2-0.2,0.5-0.3,0.7l-0.3,0.6c-0.2,0.4-0.3,0.7-0.5,1.1c-0.2,0.4-0.3,0.8-0.5,1.1l-0.5,1.1
		c-0.2,0.4-0.3,0.8-0.5,1.2c-0.2,0.4-0.3,0.8-0.5,1.2l0,0l0,0c0,0.1-0.1,0.2-0.1,0.3c-0.1,0.2-0.2,0.4-0.2,0.6c-0.4,1-0.7,2-1.1,3
		c-0.2,0.4-0.3,0.8-0.5,1.3l-0.3,1c-0.1,0.4-0.3,0.8-0.4,1.2c-0.2,0.5-0.4,1-0.5,1.5c-0.2,0.7-0.4,1.3-0.7,1.9
		c-0.4,1.1-0.8,2.3-1.1,3.5c-0.4,1.1-0.7,2.3-1.1,3.5l0,0.1c-0.5,1.7-1,3.4-1.5,5.1c0,0,0,0,0,0.1c-0.2,0.6-0.3,1.2-0.5,1.8
		c-0.1,0.6-0.3,1.1-0.4,1.7l-0.1,0.2c-0.1,0.5-0.3,1.1-0.4,1.6c-0.1,0.6-0.3,1.2-0.4,1.8c-0.1,0.6-0.3,1.2-0.4,1.8
		c-0.1,0.5-0.2,1.1-0.3,1.6l0,0.2c-0.4,1.7-0.7,3.5-1,5.3c-0.3,1.7-0.6,3.4-0.8,5.1h-1.4c0-0.2,0.1-0.4,0.1-0.6c0-0.1,0-0.1,0-0.2
		c0.1-0.4,0.1-0.9,0.2-1.3C62.8,147.5,62.9,147,63,146.5L63,146.5C63,146.5,63,146.5,63,146.5z M62.3,150.8c0-0.1,0-0.2,0.1-0.4h1.4
		c0,0,0,0.1,0,0.1l0,0.3H62.3z M61.6,157.7l0.1-0.7c0-0.3,0.1-0.7,0.1-1c0-0.3,0.1-0.6,0.1-0.9l0,0h0c0,0,0-0.1,0-0.1h0l0,0
		c0-0.4,0.1-0.8,0.1-1.1l0.1-0.9c0.1-0.6,0.1-1.2,0.2-1.8h1.4c-0.4,2.6-0.6,5.2-0.8,7.7h-1.4c0-0.1,0-0.2,0-0.3l0-0.2
		C61.5,158.1,61.5,157.9,61.6,157.7z M62.8,159.5h-1.4c0-0.1,0-0.2,0-0.3h1.4C62.8,159.3,62.8,159.4,62.8,159.5z M61.1,166.2
		c0-0.2,0-0.5,0-0.7c0,0,0,0,0-0.1c0,0,0,0,0-0.1c0,0,0,0,0-0.1h0c0,0,0,0,0,0c0,0,0-0.1,0-0.1l0-0.1c0-0.2,0-0.5,0-0.7
		c0-0.4,0-0.7,0-1c0-0.1,0-0.1,0-0.2l0-0.1c0-0.2,0-0.5,0-0.7l0,0c0-0.3,0-0.6,0-0.8c0-0.1,0-0.1,0-0.2h0c0,0,0,0,0,0l0.1-1.2
		c0-0.1,0-0.2,0-0.4h1.4c-0.2,2.5-0.3,5.1-0.3,7.6v90.4h-1.4v-90.4C61.1,167,61.1,166.6,61.1,166.2z M61.1,278.5v-20.4h1.4v20.4
		H61.1z M62.5,278.9v20.1h-1.4v-20.1H62.5z M61.1,348v-48.8h1.4V348H61.1z M62.5,348.4V509h-1.4V348.4H62.5z M61.1,513.3v-4h1.4v4
		H61.1z M61.1,534.8v-21.2h1.4v21.2H61.1z M62.5,535.2V570h-1.4v-34.8H62.5z M61.1,586.4v-16.1h1.4v16.1H61.1z M61.1,586.7h1.4v5.9
		c0,9.9,4.5,18,12.6,23c0.9,0.6,1.9,1.1,2.9,1.6c4.4,2.1,9.5,3.2,14.8,3.3c0.5,0,1.1,0,1.8-0.1l2.7-0.3l0,1.4
		c-1.3,0.4-2.5,0.4-3.6,0.4c-6.6,0-13.2-1.7-18.5-4.7c-9.1-5.1-14.1-13.9-14.1-24.6V586.7z M75.4,312.3c0.6-0.1,1-0.6,1-1.2
		c0-0.3-0.1-0.6-0.4-0.9c-0.2-0.2-0.4-0.3-0.7-0.3V289c0.6-0.1,1-0.6,1-1.2c0-0.3-0.1-0.6-0.4-0.9c-0.2-0.2-0.4-0.3-0.7-0.3v-68.1
		h0.2c0.7,0,1.2-0.6,1.2-1.2c0-0.3-0.1-0.6-0.4-0.9c-0.2-0.2-0.5-0.3-0.8-0.4c0-0.1,0.1-0.1,0.1-0.2c0.2-0.2,0.6-0.4,0.9-0.4
		c0.7,0,1.3,0.6,1.3,1.3v166.4h-2.6V312.3z M75.1,338v0.5c-1.7,0.4-2.9,1.9-2.9,3.6c0,1.8,1.2,3.3,2.9,3.6v0.5h-4.3V338H75.1z
		 M75.1,338.9v6.6c-1.5-0.4-2.6-1.7-2.6-3.3C72.4,340.6,73.5,339.2,75.1,338.9z M75.2,312h-7.1c-0.5,0-0.9-0.4-0.9-0.9
		c0-0.5,0.4-0.9,0.9-0.9h7.1c0,0,0,0,0,0c0,0,0,0,0,0c0.2,0,0.4,0.1,0.6,0.3c0.2,0.2,0.3,0.4,0.3,0.6C76.1,311.6,75.7,312,75.2,312
		C75.2,312,75.2,312,75.2,312z M75.2,288.7h-7.1c-0.5,0-0.9-0.4-0.9-0.9c0-0.5,0.4-0.9,0.9-0.9h7.1c0,0,0,0,0,0c0,0,0,0,0,0
		c0.2,0,0.4,0.1,0.6,0.3c0.2,0.2,0.3,0.4,0.3,0.6C76.1,288.3,75.7,288.7,75.2,288.7C75.2,288.7,75.2,288.7,75.2,288.7z M75.6,218.2
		h-7.1c-0.5,0-0.9-0.4-0.9-0.9c0-0.5,0.4-0.9,0.9-0.9h7.1c0.2,0,0.5,0.1,0.6,0.3c0.2,0.2,0.3,0.4,0.3,0.6
		C76.5,217.8,76.1,218.2,75.6,218.2z M86.4,378.1c0.1-2.6,2.3-4.6,4.9-4.6c2.6,0,4.8,2,4.9,4.6c0,0.1,0.1,0.2,0.2,0.2h33.5
		c0,0.1-0.1,0.2-0.1,0.2H96.3c-0.1,0-0.2,0.1-0.2,0.2c-0.2,2.6-2.3,4.6-4.9,4.6c-2.6,0-4.8-2-4.9-4.6c0-0.1-0.1-0.2-0.2-0.2h-7.9
		v-0.2h7.9C86.3,378.3,86.3,378.2,86.4,378.1z M194.1,216c-0.3,0-0.6,0.1-0.8,0.4c-0.2,0.2-0.4,0.5-0.4,0.9c0,0.7,0.6,1.2,1.2,1.2
		h0.2v68.1c-0.2,0-0.5,0.2-0.7,0.3c-0.2,0.2-0.4,0.5-0.4,0.9c0,0.6,0.4,1.1,1,1.2v20.8c-0.2,0-0.5,0.2-0.7,0.3
		c-0.2,0.2-0.4,0.5-0.4,0.9c0,0.6,0.4,1.1,1,1.2v70.9h-2.6V216.8c0-0.7,0.6-1.3,1.3-1.3c0.3,0,0.7,0.1,0.9,0.4
		C194,215.9,194.1,216,194.1,216z M194.2,216.3h7.1c0.5,0,0.9,0.4,0.9,0.9c0,0.5-0.4,0.9-0.9,0.9h-7.1c-0.5,0-0.9-0.4-0.9-0.9
		c0-0.2,0.1-0.5,0.3-0.6C193.7,216.4,193.9,216.3,194.2,216.3z M194.6,286.9h7.1c0.5,0,0.9,0.4,0.9,0.9c0,0.5-0.4,0.9-0.9,0.9h-7.1
		c0,0,0,0-0.1,0c-0.5,0-0.9-0.4-0.9-0.9c0-0.2,0.1-0.5,0.3-0.6C194.1,287,194.3,286.9,194.6,286.9
		C194.6,286.9,194.6,286.9,194.6,286.9C194.6,286.9,194.6,286.9,194.6,286.9z M194.6,310.2h7.1c0.5,0,0.9,0.4,0.9,0.9
		c0,0.5-0.4,0.9-0.9,0.9h-7.1c0,0,0,0-0.1,0c-0.5,0-0.9-0.4-0.9-0.9c0-0.2,0.1-0.5,0.3-0.6C194.1,310.3,194.3,310.2,194.6,310.2
		C194.6,310.2,194.6,310.2,194.6,310.2C194.6,310.2,194.6,310.2,194.6,310.2z M194.7,346.3v-0.5c1.7-0.4,2.9-1.9,2.9-3.6
		c0-1.8-1.2-3.3-2.9-3.6V338h4.3v8.3H194.7z M194.7,345.4v-6.6c1.5,0.4,2.6,1.7,2.6,3.3C197.3,343.7,196.2,345.1,194.7,345.4z
		 M194.4,383.5v231.9c-0.8,0.5-1.7,0.9-2.6,1.4V383.5H194.4z M97.7,620l22.7-9v1.9l-22.6,8.5L97.7,620z M120.7,613v-2l8.7,4.7v14.3
		l-8.7,4.7V613z M129.7,629.9v-14.1h10.4v14.1H129.7z M129.6,615.4l-8.4-4.5h27.4l-8.4,4.5H129.6z M172.1,620l0,1.4l-22.6-8.5V611
		L172.1,620z M172.3,619.7l-23-9.2c0,0,0,0-0.1,0v0h-28.8v0c0,0,0,0-0.1,0l-23,9.2l-2.8,0.4c-0.7,0.1-1.2,0.1-1.8,0.1
		c-5.2-0.1-10.2-1.2-14.6-3.2v-53.8h17.1c-0.1,0.2-0.2,0.4-0.2,0.7v44.9c0,0.9,0.7,1.6,1.6,1.6H173c0.9,0,1.6-0.7,1.6-1.6v-44.9
		c0-0.2-0.1-0.5-0.2-0.7h17.1v53.8c-4.3,2-9.4,3.1-14.6,3.2c-0.5,0-1.1,0-1.8-0.1L172.3,619.7z M137.6,408.1V490c-0.1,0-0.2,0-0.2,0
		h-4.9c-0.1,0-0.2,0-0.2,0v-81.9H137.6z M191.5,424.4h-53.6v-0.2h53.6V424.4z M131.9,494.3v-3.5c0-0.1,0.1-0.3,0.2-0.4
		c0.1-0.1,0.2-0.1,0.3-0.1h4.9c0.1,0,0.2,0,0.3,0.1c0,0,0,0,0,0c0.1,0.1,0.2,0.2,0.2,0.4v3.6c0,0.2-0.2,0.5-0.5,0.5h-4.9
		C132.2,494.8,132,494.6,131.9,494.3z M138.2,494.2v-0.2h53.3v0.2H138.2z M138.2,493.6v-0.9h53.3v0.9H138.2z M138.2,492.4v-0.2h53.3
		v0.2H138.2z M138.2,491.8v-1.1c0-0.2-0.1-0.4-0.2-0.6v-29.7h53.6v31.3H138.2z M137.9,460.1v-0.2h53.6v0.2H137.9z M137.9,459.6v-0.9
		h53.6v0.9H137.9z M137.9,458.4v-0.2h53.6v0.2H137.9z M137.9,457.8v-31.3h53.6v31.3H137.9z M137.9,426.1v-0.2h53.6v0.2H137.9z
		 M137.9,425.6v-0.9h53.6v0.9H137.9z M131.8,424.4H78.3v-0.2h53.6V424.4z M131.8,424.7v0.9H78.3v-0.9H131.8z M131.8,425.9v0.2H78.3
		v-0.2H131.8z M131.8,426.5v31.3H78.3v-31.3H131.8z M131.8,458.1v0.2H78.3v-0.2H131.8z M131.8,458.7v0.9H78.3v-0.9H131.8z
		 M131.8,459.9v0.2H78.3v-0.2H131.8z M131.8,460.5v29.7c-0.1,0.1-0.2,0.3-0.2,0.6v1.1H78.3v-31.3H131.8z M131.6,492.2v0.2H78.3v-0.2
		H131.6z M131.6,492.7v0.9H78.3v-0.9H131.6z M131.6,493.9v0.2H78.3v-0.2H131.6z M131.6,494.5c0.1,0.3,0.4,0.6,0.8,0.6h4.9
		c0.4,0,0.7-0.3,0.8-0.6h53.4v31.3H78.3v-31.3H131.6z M191.5,526.2v0.2H78.3v-0.2H191.5z M191.5,526.7v0.9H78.3v-0.9H191.5z
		 M191.5,527.9v0.2H78.3v-0.2H191.5z M191.5,528.5v31.9H78.3v-31.9H191.5z M191.5,560.7v0.2H78.3v-0.2H191.5z M191.5,561.3v0.9H78.3
		v-0.9H191.5z M191.5,562.5v0.2h-17.4c-0.1,0-0.1,0-0.1,0.1c0,0.1,0,0.1,0,0.2c0.2,0.2,0.3,0.5,0.3,0.8v44.9c0,0.7-0.6,1.3-1.3,1.3
		H96.8c-0.7,0-1.3-0.6-1.3-1.3v-44.9c0-0.3,0.1-0.5,0.3-0.8c0-0.1,0-0.1,0-0.2c0-0.1-0.1-0.1-0.1-0.1H78.3v-0.2H191.5z M191.5,423.8
		h-53.6v-15.9v-2.7h6.9c0.1,0,0.2-0.1,0.2-0.2V386c0-0.1-0.1-0.2-0.2-0.2h-6.5c1.5-1.1,2.4-2.8,2.4-4.7c0-0.8-0.2-1.6-0.5-2.3h51.2
		v4.5V423.8z M132,386L132,386L132,386L132,386z M131.8,386.1v0.2h-6.4c-0.1,0-0.2,0.1-0.2,0.2v17.9c0,0.1,0.1,0.2,0.2,0.2h6.4v0.2
		h-6.8v-18.7H131.8z M131.8,386.7v17.6h-6.2v-17.6H131.8z M132.2,386.3c0.3,0.2,0.7,0.3,1.1,0.4c0.5,0.2,1.1,0.2,1.6,0.2
		c0.6,0,1.1-0.1,1.6-0.2c0.4-0.1,0.7-0.3,1.1-0.4v21.5h-5.4V386.3z M137.9,404.9v-0.2h6.4c0.1,0,0.2-0.1,0.2-0.2v-17.9
		c0-0.1-0.1-0.2-0.2-0.2h-6.4v-0.2h6.8v18.7H137.9z M137.9,404.3v-17.6h6.2v17.6H137.9z M191.5,378.5h-51.4c0-0.1-0.1-0.2-0.1-0.2
		h51.5V378.5z M139.5,378.2C139.5,378.2,139.5,378.2,139.5,378.2c0.1,0.2,0.2,0.3,0.3,0.6c0.4,0.7,0.5,1.5,0.5,2.4
		c0,1.9-1,3.7-2.6,4.7c0,0-0.1,0-0.1,0c-0.4,0.2-0.8,0.4-1.2,0.5c-0.5,0.1-1,0.2-1.6,0.2c-0.5,0-1.1-0.1-1.6-0.2
		c-0.4-0.1-0.8-0.3-1.2-0.5c0,0,0,0,0,0c-1.7-1-2.7-2.8-2.7-4.7c0-0.8,0.2-1.6,0.5-2.4c0.1-0.2,0.2-0.4,0.3-0.6
		c1-1.6,2.7-2.6,4.6-2.6C136.8,375.6,138.5,376.6,139.5,378.2z M78.3,378.8H86c0.2,2.7,2.5,4.8,5.2,4.8c2.7,0,5-2.1,5.2-4.8h33
		c-0.3,0.7-0.5,1.5-0.5,2.3c0,1.9,0.9,3.6,2.4,4.7h-6.5c-0.1,0-0.2,0.1-0.2,0.2V405c0,0.1,0.1,0.2,0.2,0.2h6.9v2.7v15.9H78.3v-40.4
		V378.8z M78,383.5v233.2c-0.9-0.4-1.7-0.9-2.6-1.4V383.5H78z M91.8,634.7c-16.9,0-30.7-13.8-30.7-30.7v-6.6
		c1.3,8.7,6.1,15.7,13.9,20.2c5.4,3,12,4.7,18.7,4.7c1.1,0,2.4-0.1,3.8-0.5l0,0c0,0,0,0,0,0l22.7-8.5v21.4H91.8z M140.4,629.9v-14.3
		l8.7-4.7v2v21.6L140.4,629.9z M208.6,604c0,16.9-13.8,30.7-30.7,30.7h-28.5v-21.4l22.7,8.5c0,0,0,0,0,0l0,0
		c1.4,0.4,2.7,0.5,3.8,0.5c6.7,0,13.3-1.7,18.7-4.7c7.8-4.4,12.7-11.5,13.9-20.2V604z M194.5,617.3c-5.3,3-11.9,4.7-18.5,4.7
		c-1.1,0-2.3-0.1-3.6-0.4l0-1.4l2.7,0.3c0.7,0.1,1.3,0.1,1.8,0.1c5.3-0.1,10.4-1.3,14.8-3.3c1-0.5,2-1,2.9-1.6
		c8.1-4.9,12.6-13.1,12.6-23v-5.9h1.4v5.9C208.6,603.4,203.6,612.1,194.5,617.3z M208.6,570.3v16.1h-1.4v-16.1H208.6z M207.2,570
		v-34.8h1.4V570H207.2z M208.6,534.8h-1.4v-21.2h1.4V534.8z M208.6,509.3v4h-1.4v-4H208.6z M207.2,509V348.4h1.4V509H207.2z
		 M208.6,299.3V348h-1.4v-48.8H208.6z M207.2,298.9v-20.1h1.4v20.1H207.2z M208.6,258.1v20.4h-1.4v-20.4H208.6z M206.9,278.7v20.4
		v49.1v160.9v4.4V535v35.2v16.4v6.1c0,9.6-4.3,17.6-12.2,22.5V383.4v-36.7h4.5c0.1,0,0.2-0.1,0.2-0.2v-8.6c0-0.1-0.1-0.2-0.2-0.2
		h-4.5v-25.3h7c0.7,0,1.2-0.6,1.2-1.2c0-0.7-0.6-1.2-1.2-1.2h-7v-20.8h7c0.7,0,1.2-0.6,1.2-1.2c0-0.7-0.6-1.2-1.2-1.2h-7v-68.1h6.5
		c0.7,0,1.2-0.6,1.2-1.2c0-0.7-0.6-1.2-1.2-1.2h-6.7c-0.1-0.1-0.2-0.3-0.3-0.4c-0.3-0.3-0.7-0.5-1.1-0.5c-0.9,0-1.6,0.7-1.6,1.6
		v161.2h-51.7c-1.1-1.7-2.9-2.6-4.9-2.6c-2,0-3.8,1-4.9,2.6H96.5c-0.2-2.7-2.5-4.8-5.2-4.8c-2.7,0-5,2.1-5.2,4.8h-7.7V216.8
		c0-0.9-0.7-1.6-1.6-1.6c-0.4,0-0.8,0.2-1.1,0.5c-0.1,0.1-0.2,0.2-0.3,0.4h-6.7c-0.7,0-1.2,0.6-1.2,1.2c0,0.7,0.6,1.2,1.2,1.2h6.5
		v68.1h-7c-0.7,0-1.2,0.6-1.2,1.2c0,0.7,0.6,1.2,1.2,1.2h7v20.8h-7c-0.7,0-1.2,0.6-1.2,1.2c0,0.7,0.6,1.2,1.2,1.2h7v25.3h-4.5
		c-0.1,0-0.2,0.1-0.2,0.2v8.6c0,0.1,0.1,0.2,0.2,0.2h4.5v31.3c-0.1,0-0.2,0.1-0.2,0.2v0.6c0,0.1,0.1,0.2,0.2,0.2v4.5v231.8
		c-7.9-4.9-12.2-12.9-12.2-22.5v-6.1v-16.4V535v-21.5v-4.4V348.2v-49.1v-20.4V258v-90.6c0-2.6,0.1-5.2,0.3-7.7c0,0,0,0,0,0
		c0-0.2,0-0.4,0-0.6l0,0c0,0,0,0,0,0c0.2-2.6,0.5-5.3,0.8-8l0.1-0.4c0-0.1,0-0.2,0-0.3c0,0,0,0,0,0l0,0c0.2-1.7,0.5-3.5,0.8-5.2
		c0.3-1.8,0.7-3.6,1-5.2l0-0.2c0.1-0.5,0.2-1.1,0.3-1.6c0.1-0.6,0.3-1.2,0.4-1.8c0.1-0.6,0.3-1.2,0.4-1.8c0.1-0.5,0.3-1.1,0.4-1.6
		l0.1-0.2c0.1-0.6,0.3-1.1,0.4-1.7c0.2-0.6,0.3-1.2,0.5-1.8c0,0,0-0.1,0-0.1c0.5-1.7,1-3.4,1.4-5l0-0.1c0.4-1.2,0.7-2.4,1.1-3.5
		c0.4-1.2,0.8-2.4,1.1-3.5c0.2-0.6,0.4-1.3,0.7-1.9c0.2-0.5,0.4-1,0.5-1.5c0.1-0.4,0.3-0.8,0.4-1.2l0.3-1c0.2-0.4,0.3-0.8,0.5-1.3
		c0.4-1.1,0.8-2.1,1.1-3c0-0.1,0.1-0.1,0.1-0.2c0.1-0.2,0.2-0.5,0.3-0.7l0-0.1c0.2-0.4,0.3-0.8,0.5-1.2c0.2-0.4,0.3-0.8,0.5-1.1
		l0.5-1.1c0.2-0.4,0.3-0.8,0.5-1.1c0.2-0.4,0.3-0.7,0.5-1.1l0.3-0.6c0.1-0.2,0.2-0.5,0.3-0.7c0.2-0.4,0.4-0.9,0.6-1.3
		c0.3-0.6,0.5-1.2,0.8-1.8C87,81.2,95,66.4,103.8,53l19.7-20v1.1c0,0.8,0.7,1.5,1.5,1.5h19.8c0.8,0,1.5-0.7,1.5-1.5V33L166,53
		c8.6,13.1,16.4,27.5,22.8,41.7c1,2.2,2,4.5,2.9,6.8c0.2,0.4,0.4,0.9,0.5,1.3l0.1,0.2c1.2,3,2.4,6,3.4,8.8c0.2,0.6,0.4,1.2,0.6,1.7
		c0.2,0.6,0.4,1.2,0.6,1.7c0.2,0.6,0.4,1.2,0.6,1.7c0.2,0.6,0.4,1.2,0.6,1.7c1.2,3.5,2.2,7.1,3.2,10.5c0,0,0,0.1,0,0.1
		c0.2,0.6,0.3,1.2,0.5,1.7c0.2,0.6,0.3,1.2,0.5,1.8c0.4,1.7,0.9,3.5,1.2,5.3c0.1,0.5,0.2,1.1,0.3,1.6l0,0.2c0.1,0.6,0.2,1.2,0.4,1.8
		c0.2,1.1,0.4,2.2,0.7,3.5c0.3,1.7,0.6,3.5,0.8,5.2l0,0c0,0,0,0,0,0c0,0.1,0,0.2,0,0.3l0.1,0.4c0.4,2.7,0.7,5.4,0.9,8
		c0,0.2,0,0.4,0,0.6c0,0,0,0,0,0l0,0c0.2,2.5,0.3,5.2,0.3,7.8V258V278.7z M208.4,160.1l0,0.2c0,0.2,0,0.5,0,0.7l0,0.1
		c0,0.1,0,0.2,0,0.3c0,0.4,0,0.8,0.1,1.2l0,0.4c0,0.1,0,0.1,0,0.2c0,0.2,0,0.4,0,0.5c0,0.3,0,0.6,0,0.9l0,0c0,0.1,0,0.1,0,0.2
		c0,0.1,0,0.1,0,0.2c0,0,0,0.1,0,0.1c0,0,0,0,0,0h0c0,0,0,0,0,0c0,0.1,0,0.1,0,0.2c0,0.3,0,0.5,0,0.8c0,0.4,0,0.8,0,1.2v90.4h-1.4
		v-90.4c0-2.5-0.1-5.1-0.3-7.6h1.4C208.4,159.9,208.4,160,208.4,160.1C208.4,160.1,208.4,160.1,208.4,160.1L208.4,160.1
		C208.4,160.1,208.4,160.1,208.4,160.1z M208.1,156.8c0,0,0,0.1,0,0.1c0,0,0,0,0,0.1c0,0.1,0,0.2,0,0.3c0,0.1,0,0.2,0,0.4l0,0.1
		c0,0.3,0.1,0.6,0.1,0.9l0,0.6l0,0l0,0.1c0,0,0,0.1,0,0.1c0,0,0,0.1,0,0.1h-1.4c0-0.2,0-0.3,0-0.5c-0.2-2.6-0.5-5.3-0.9-8l-0.1-0.4
		c0,0,0-0.1,0-0.1h1.4c0,0.2,0.1,0.5,0.1,0.7c0.1,0.5,0.1,1,0.2,1.6c0,0.1,0,0.3,0.1,0.4l0,0.2c0.1,0.5,0.1,1,0.2,1.4L208.1,156.8z
		 M190.5,94.8c7.2,16.1,12.3,31.6,15.3,46.1c0.1,0.4,0.2,0.8,0.2,1.2l0.4,2.1c0,0.2,0.1,0.4,0.1,0.6c0,0.1,0,0.2,0.1,0.3l0.2,1.1
		c0,0.1,0,0.1,0,0.2l0,0.1c0,0,0,0.1,0,0.1l0,0.1c0,0.3,0.1,0.5,0.1,0.8c0,0.1,0,0.3,0.1,0.4c0.1,0.5,0.1,1,0.2,1.4c0,0,0,0,0,0
		c0,0.3,0.1,0.5,0.1,0.8h-1.4c-0.2-1.7-0.5-3.4-0.8-5.1c-0.2-1.3-0.4-2.4-0.7-3.5c-0.1-0.6-0.2-1.2-0.4-1.8l0-0.2
		c-0.1-0.5-0.2-1.1-0.3-1.6c-0.4-1.7-0.8-3.5-1.2-5.3c-0.1-0.6-0.3-1.2-0.5-1.8c-0.2-0.6-0.3-1.2-0.5-1.7c0,0,0,0,0-0.1
		c-0.9-3.4-2-7-3.2-10.5c-0.2-0.6-0.4-1.2-0.6-1.8c-0.2-0.6-0.4-1.2-0.6-1.8c-0.2-0.6-0.4-1.2-0.6-1.7c-0.2-0.6-0.4-1.2-0.6-1.7
		c-1-2.9-2.2-5.9-3.4-8.8l-0.1-0.2c-0.2-0.4-0.3-0.9-0.5-1.3c-0.9-2.2-1.8-4.4-2.8-6.6H190.5z M190.3,94.5H189
		c-6.3-14.2-14.2-28.6-22.7-41.7c-0.5-0.8-1.1-1.7-1.7-2.5l0,0l0,0c0,0,0-0.1-0.1-0.1c-6.5-9.4-11.9-16.6-16.1-21.5
		c-0.6-0.7-1.1-1.3-1.6-1.8c-0.2-0.2-0.3-0.4-0.5-0.5l0-0.1v-2c0.8,0.9,1.7,1.8,2.6,2.8c0.5,0.5,1,1.1,1.5,1.8
		c3.4,4.1,7.4,9.3,12.1,16l3.8,5.5c0.1,0.1,0.1,0.2,0.2,0.3c0,0.1,0.1,0.1,0.1,0.2c0,0,0,0,0,0.1l0,0c0,0,0,0,0,0
		C175.7,64.9,183.8,80,190.3,94.5z M159.6,40c0.7,1.1,1.4,2.2,2.2,3.4c-4.3-6.1-8-10.9-11.2-14.7c-0.5-0.6-1-1.2-1.5-1.8
		c-1-1.1-1.9-2.1-2.9-3.1v-3l1.3,1.8c0.2,0.3,0.5,0.6,0.7,0.9c0,0.1,0.1,0.1,0.1,0.2l0.6,0.8c0.2,0.3,0.5,0.7,0.7,1c0,0,0,0.1,0,0.1
		c0.1,0.1,0.1,0.2,0.2,0.2l0.2,0.3c0.4,0.6,0.9,1.2,1.3,1.9l0.4,0.6c0.3,0.4,0.5,0.8,0.8,1.2l0,0l0,0c0,0,0,0,0,0l0.1,0.1
		c0,0.1,0.1,0.1,0.1,0.2l1.9,2.7c0,0,0.1,0.1,0.1,0.1l0.6,0.8c0,0.1,0.1,0.1,0.1,0.2c0.2,0.2,0.3,0.5,0.5,0.7l1.7,2.5
		c0.1,0.1,0.1,0.2,0.2,0.3l0.8,1.2l0,0C158.9,39,159.3,39.5,159.6,40L159.6,40C159.6,40,159.6,40,159.6,40z M149.2,24.3L149.2,24.3
		l-0.3-0.5c0.1,0,0.2,0,0.3,0c0.4,0,0.8-0.1,1.1-0.3c-0.3,0.4-0.5,0.9-0.6,1.4C149.5,24.7,149.4,24.5,149.2,24.3z M155.6,33.4
		L155.6,33.4L155.6,33.4L155.6,33.4c-0.1-0.2-0.3-0.4-0.4-0.5c0.2,0,0.3,0,0.5,0c0.4,0,0.7-0.1,1-0.2c-0.3,0.4-0.6,0.8-0.7,1.3
		C155.9,33.8,155.7,33.6,155.6,33.4z M161.3,34.6c0,0.7-0.2,1.3-0.7,1.8c-0.5,0.5-1.1,0.8-1.8,0.8c-0.3,0-0.5,0-0.8-0.1
		c-0.1-0.1-0.1-0.1-0.2-0.2l-1.6-2.4c0.1-1.3,1.2-2.3,2.5-2.3C160.2,32.1,161.3,33.2,161.3,34.6z M158.2,30
		C158.2,30,158.2,30,158.2,30c0,1.4-1.1,2.5-2.5,2.6c-0.3,0-0.5,0-0.7-0.1l-1.8-2.6c0.1-1.3,1.2-2.3,2.5-2.3
		C157,27.5,158.2,28.6,158.2,30z M152.9,29.4c-0.3-0.4-0.5-0.8-0.8-1.2l-0.1-0.2c0.2,0,0.4,0.1,0.6,0.1c0.5,0,0.9-0.1,1.3-0.3
		C153.4,28.2,153,28.8,152.9,29.4z M154.3,23.5c0.5,0.5,0.8,1.1,0.8,1.8c0,0,0,0,0,0c0,0.7-0.3,1.3-0.7,1.7
		c-0.5,0.5-1.1,0.8-1.8,0.8c-0.3,0-0.6,0-0.9-0.2c-0.4-0.6-0.9-1.2-1.3-1.8l-0.2-0.3c0-0.1-0.1-0.1-0.1-0.2c0-0.7,0.2-1.3,0.7-1.8
		c0.5-0.5,1.1-0.8,1.8-0.8C153.1,22.8,153.8,23,154.3,23.5z M150.9,19.1c0.5,0.5,0.8,1.1,0.8,1.8c0,0.7-0.2,1.3-0.7,1.8
		c-0.5,0.5-1.1,0.8-1.8,0.8c-0.2,0-0.4,0-0.5,0c0,0-0.1-0.1-0.1-0.1c-0.2-0.3-0.5-0.6-0.7-0.9l-1.2-1.7c0.1-1.2,1.2-2.2,2.5-2.2
		C149.7,18.4,150.4,18.7,150.9,19.1z M147.5,14.6c0.5,0.5,0.8,1.1,0.8,1.8c0,0,0,0,0,0c0,1.2-0.9,2.2-2.1,2.5
		c-0.1-0.8-0.7-1.4-1.5-1.4h-0.5l-1-1.3c0.1-1.3,1.2-2.2,2.5-2.2C146.4,13.9,147.1,14.2,147.5,14.6z M142.4,15
		c0.4,0,0.8-0.2,1.1-0.3c-0.3,0.3-0.4,0.7-0.5,1.1L142.4,15z M142.1,9.7c1.4,0,2.5,1.1,2.6,2.5c0,1.4-1.1,2.5-2.5,2.6h0c0,0,0,0,0,0
		c-0.3-0.4-0.6-0.8-0.9-1.2l-0.2-0.2c-0.1-0.1-0.2-0.3-0.3-0.4l-0.2-0.2c-0.3-0.3-0.5-0.7-0.8-1c0,0,0-0.1-0.1-0.1
		C140,10.4,141,9.7,142.1,9.7z M139.4,11.7c0,0,0.1,0.1,0.1,0.1c0.3,0.3,0.5,0.7,0.8,1l0.2,0.2c0.1,0.1,0.2,0.3,0.3,0.4l0.2,0.2
		c0.3,0.4,0.6,0.8,0.9,1.2c0,0,0,0.1,0.1,0.1l1.9,2.5h-18l0.9-1.2c0,0,0,0,0,0c0.1-0.2,0.3-0.4,0.4-0.5l0.3-0.4
		c0.1-0.1,0.1-0.1,0.1-0.2l0.1-0.1c0,0,0,0,0,0l0.1-0.1c0.9-1.1,1.7-2.2,2.4-3.1c0,0,0.1-0.1,0.1-0.1c0.3-0.4,0.6-0.7,1-0.9
		c0.7-0.5,1.5-0.9,2.4-1.1c0.8-0.2,1.5-0.2,2.3,0c0.9,0.2,1.7,0.5,2.4,1.1C138.8,11,139.1,11.3,139.4,11.7z M140.8,7.9
		C140.8,7.9,140.8,7.9,140.8,7.9c0,1.3-0.9,2.4-2.2,2.5c-0.7-0.5-1.5-0.9-2.4-1.1c-0.3-0.4-0.4-0.9-0.4-1.4c0-0.7,0.2-1.3,0.7-1.8
		c0.5-0.5,1.1-0.8,1.8-0.8C139.6,5.4,140.8,6.5,140.8,7.9z"/>
	<path class="st1" d="M95.8,563.8v44.9c0,0.6,0.5,1,1,1H173c0.6,0,1-0.5,1-1v-44.9c0-0.6-0.5-1-1-1H96.8
		C96.3,562.8,95.8,563.2,95.8,563.8z M173,563.1c0.4,0,0.7,0.3,0.7,0.7v44.9c0,0.4-0.3,0.7-0.7,0.7H96.8c-0.4,0-0.7-0.3-0.7-0.7
		v-44.9c0-0.4,0.3-0.7,0.7-0.7H173z"/>
	<path class="st1" d="M86.6,378.7c0.2,2.5,2.2,4.4,4.7,4.4c2.5,0,4.5-1.9,4.7-4.4c0-0.1,0-0.2,0-0.3c0-0.1,0-0.2,0-0.3
		c-0.2-2.5-2.2-4.4-4.7-4.4c-2.5,0-4.5,1.9-4.7,4.4C86.6,378.3,86.6,378.5,86.6,378.7z M86.9,378.1c0.1-2.3,2-4.1,4.3-4.1
		c2.3,0,4.2,1.8,4.3,4.1c0,0,0,0,0,0c0,0.2,0,0.4,0,0.5c-0.1,2.3-2,4.1-4.3,4.1c-2.3,0-4.2-1.8-4.3-4.1c0-0.1,0-0.2,0-0.3
		C86.9,378.3,86.9,378.2,86.9,378.1z"/>
	<path class="st1" d="M186.7,195.9v-2.6v-67h3.1c0.1,0,0.2-0.1,0.2-0.2v-8.6c0-0.1-0.1-0.2-0.2-0.2h-3.1V98.1v-4
		c0-0.1-0.1-0.2-0.2-0.2H83.3c-0.1,0-0.2,0.1-0.2,0.2v4v95.2v2.6v16.7v3.3v4.6v8.8c0,0.1,0.1,0.2,0.2,0.2h12.7
		c0.1,0,0.2-0.1,0.2-0.2v-8.7h3.1l5,6.8c0.3,0.4,0.8,0.7,1.4,0.7h2.8v70.3c-2-6.5-5-11.2-7.2-13.9c-0.7-0.8-1.3-1.6-2-2.4
		c-0.7-0.7-1.7-1.2-2.7-1.2l-0.8,0l-0.8,0c-1,0-2,0.5-2.7,1.2c-0.7,0.7-1.4,1.5-2,2.4c-3.2,4.1-8.7,12.9-9.3,26.6l-0.1,1.1
		c-0.1,1.8-0.2,3.4-0.2,5c-0.6,13.7-0.7,21.7-0.7,27.8c0,1.2,0.6,2.4,1.5,3c0.9,0.6,1.8,0.7,2.7,0.2c1.1-0.6,1.9-1.9,1.9-3.2l0-2.1
		l2.2,0.7c0,0.7,0.1,1.4,0.1,2c0.1,0.7,0.6,1.3,1.3,1.4c1.1,0.1,2.1,0.1,3.2,0c0.7-0.1,1.2-0.7,1.3-1.4c0-0.5,0.1-0.9,0.1-1.4h2.9
		c0,0.5,0,1,0.1,1.4c0.1,0.7,0.6,1.3,1.3,1.4c1.1,0.1,2.1,0.1,3.2,0c0.7-0.1,1.2-0.7,1.3-1.4c0.1-0.7,0.1-1.3,0.1-2l2.2-0.7l0,2
		c0,1.3,0.8,2.6,1.9,3.2c0.9,0.4,1.8,0.4,2.7-0.2c0.9-0.7,1.5-1.8,1.5-3c0-5.2-0.1-11.9-0.5-22.4h8.9l-8.7,27.7
		c-1.7,0.5-2.9,2.1-2.9,3.9c0,2.2,1.8,4,4,4c2.2,0,4-1.8,4-4c0-1-0.3-1.9-1-2.6l9.1-28.9h0.2c0.4,0,0.6-0.3,0.6-0.6v-2.1
		c0-0.4-0.3-0.6-0.6-0.6H111c-0.1-2.8-0.2-5.4-0.4-8.2c-0.1-2.1-0.3-4.1-0.6-6.1h49.7c-0.3,2-0.5,4-0.6,6.1c-0.1,3-0.3,5.7-0.4,8.2
		h-13.8c-0.4,0-0.6,0.3-0.6,0.6v2.1c0,0.4,0.3,0.6,0.6,0.6h0.2l9.1,28.9c-0.6,0.7-1,1.7-1,2.6c0,2.2,1.8,4,4,4c2.2,0,4-1.8,4-4
		c0-1.8-1.2-3.3-2.9-3.9l-8.7-27.7h8.9c-0.4,10.8-0.5,17.6-0.5,22.4c0,1.2,0.6,2.4,1.5,3c0.8,0.6,1.8,0.7,2.7,0.2
		c1.1-0.6,1.9-1.9,1.9-3.2l0-2l2.2,0.7c0,0.7,0.1,1.3,0.1,2c0.1,0.7,0.6,1.3,1.3,1.4c1.1,0.1,2.1,0.1,3.2,0c0.7-0.1,1.2-0.7,1.3-1.4
		c0-0.5,0.1-0.9,0.1-1.4h2.9c0,0.5,0,1,0.1,1.4c0.1,0.7,0.6,1.3,1.3,1.4c1.1,0.1,2.1,0.1,3.2,0c0.7-0.1,1.2-0.7,1.3-1.4
		c0.1-0.7,0.1-1.4,0.1-2l2.2-0.7l0,2.1c0,1.3,0.8,2.6,1.9,3.2c0.9,0.4,1.8,0.4,2.7-0.2c0.9-0.7,1.5-1.8,1.5-3
		c0-6.1-0.1-14.1-0.7-27.8c-0.1-1.6-0.2-3.3-0.2-5l-0.1-1.1c-0.7-13.6-6.1-22.5-9.3-26.6c-0.7-0.9-1.4-1.7-2-2.4
		c-0.7-0.7-1.6-1.2-2.7-1.2l-0.8,0l-0.8,0c-1,0-2,0.5-2.7,1.2c-0.7,0.7-1.4,1.5-2,2.4c-1.9,2.5-4.6,6.5-6.6,12.2v-68.6h2.3
		c0.6,0,1.1-0.3,1.4-0.7l5-6.8h3.1v8.7c0,0.1,0.1,0.2,0.2,0.2h12.7c0.1,0,0.2-0.1,0.2-0.2v-8.8v-4.6v-3.3V195.9z M83.4,97.9v-3.7
		h102.9v3.7H83.4z M174,196h12.3v16.3H174V196z M186.3,195.7H174v-2.3h12.3V195.7z M106.9,178.7v-22.9h7.8c0.1,0,0.2-0.1,0.2-0.2
		v-9.9h40v9.9c0,0.1,0.1,0.2,0.2,0.2h7.8v22.9h-1.7v-14.8c0-1.1-0.9-2-2-2h-5.4c-0.3,0-0.5-0.2-0.5-0.5V150c0-1.1-0.9-2-2-2h-32.8
		c-1.1,0-2,0.9-2,2v11.4c0,0.3-0.2,0.5-0.5,0.5h-5.4c-1.1,0-2,0.9-2,2v14.8H106.9z M155.2,141.5h7.7v13.9h-7.7V141.5z M154.9,145.4
		h-40v-3.8h40V145.4z M114.6,141.5v13.9h-7.7v-13.9H114.6z M156.9,179c0.2,0,0.4,0,0.6,0.1c0,0,0,0,0,0c1.2,0.3,2,1.3,2,2.5
		c0,1.4-1.1,2.6-2.6,2.6c-1.4,0-2.5-1.1-2.5-2.6c0-1.2,0.8-2.2,2-2.5C156.5,179,156.7,179,156.9,179z M155.5,178.7h-41.8
		c-0.4-0.2-0.9-0.3-1.4-0.3c-0.5,0-1,0.1-1.4,0.3h-0.7v-14.8c0-0.3,0.2-0.5,0.5-0.5h5.4c1.1,0,2-0.9,2-2V150c0-0.3,0.2-0.5,0.5-0.5
		h32.8c0.3,0,0.5,0.2,0.5,0.5v11.4c0,1.1,0.9,2,2,2h5.4c0.3,0,0.5,0.2,0.5,0.5v14.8h-1.3c-0.4-0.2-0.9-0.3-1.4-0.3
		C156.4,178.3,155.9,178.5,155.5,178.7z M112.3,179c0.2,0,0.4,0,0.6,0.1c1.2,0.3,2,1.3,2,2.5c0,1.4-1.1,2.6-2.6,2.6
		c-0.9,0-1.7-0.5-2.2-1.3c-0.2-0.4-0.4-0.8-0.4-1.3c0-0.5,0.1-0.9,0.4-1.3c0.4-0.6,1-1,1.6-1.2c0,0,0,0,0,0
		C111.9,179,112.1,179,112.3,179z M109,178.7v-14.8c0-0.9,0.7-1.7,1.7-1.7h5.4c0.5,0,0.8-0.4,0.8-0.8V150c0-0.9,0.7-1.7,1.7-1.7
		h32.8c0.9,0,1.7,0.7,1.7,1.7v11.4c0,0.5,0.4,0.8,0.8,0.8h5.4c0.9,0,1.7,0.7,1.7,1.7v14.8H160v-14.8c0-0.5-0.4-0.8-0.8-0.8h-5.4
		c-0.9,0-1.7-0.7-1.7-1.7V150c0-0.5-0.4-0.8-0.8-0.8h-32.8c-0.5,0-0.8,0.4-0.8,0.8v11.4c0,0.9-0.7,1.7-1.7,1.7h-5.4
		c-0.5,0-0.8,0.4-0.8,0.8v14.8H109z M164,178.7h-0.8v-23.1v-14.2c0-0.1-0.1-0.2-0.2-0.2h-8h-40.3h-8c-0.1,0-0.2,0.1-0.2,0.2v14.2
		v23.1h-0.8c-0.5,0-1,0.2-1.3,0.6v-39.8h60.2v39.4C164.5,178.7,164.3,178.7,164,178.7z M165.1,179v-39.7c0-0.1-0.1-0.2-0.2-0.2
		h-60.6c-0.1,0-0.2,0.1-0.2,0.2v40.4l-2.4,3.8v-49.3h67.2v50.9l-3.4-5.6C165.4,179.3,165.2,179.2,165.1,179z M101.8,132.3
		c0-0.7,0.6-1.3,1.3-1.3h64.6c0.7,0,1.3,0.6,1.3,1.3v1.6h-67.2V132.3z M169.3,185.6v-53.3c0-0.9-0.7-1.6-1.6-1.6h-64.6
		c-0.9,0-1.6,0.7-1.6,1.6v51.8l-0.8,1.3v-53.1c0-1.3,1.1-2.4,2.4-2.4h64.6c1.3,0,2.4,1.1,2.4,2.4v54.6L169.3,185.6z M100.3,134.2
		v51.7l-2.1,3.3v-53.6c0-0.3,0.1-0.7,0.3-0.9c0.3-0.3,0.7-0.5,1.1-0.5H100.3z M170.4,187.5v-53.3h0.4c0.2,0,0.4,0,0.6,0.1
		c0.5,0.2,0.8,0.7,0.8,1.3v54.8L170.4,187.5z M172.6,191v-55.3c0-0.7-0.4-1.3-1-1.6c-0.2-0.1-0.5-0.2-0.7-0.2h-0.4v-1.6
		c0-1.5-1.2-2.8-2.8-2.8h-64.6c-1.5,0-2.8,1.2-2.8,2.8v1.6h-0.6c-0.5,0-1,0.2-1.3,0.6c-0.3,0.3-0.4,0.7-0.4,1.1v54.2l-2.1,3.3h-7.1
		v-84.5c0-2.7,2.2-4.9,4.9-4.9h82.8c2.7,0,4.9,2.2,4.9,4.9v84.5h-7.4L172.6,191z M182.8,193.1v-84.5c0-3.5-2.9-6.4-6.4-6.4H93.6
		c-3.5,0-6.4,2.9-6.4,6.4v84.5h-3.8V98.2h102.9v94.9H182.8z M87.6,108.6c0-3.3,2.7-6,6-6h82.8c3.3,0,6,2.7,6,6v84.5h-0.8v-84.5
		c0-2.9-2.3-5.2-5.2-5.2H93.6c-2.9,0-5.2,2.3-5.2,5.2v84.5h-0.8V108.6z M189.6,117.6v8.3h-2.9v-8.3H189.6z M83.4,193.4h12.3v2.3
		H83.4V193.4z M83.4,196h12.3v16.3H83.4V196z M83.4,212.7h12.3v2.9H83.4V212.7z M83.4,220.2V216h12.3v4.3H83.4z M83.4,229.1v-8.5
		h12.3v8.5H83.4z M96.1,220.2v-3.9l2.9,3.9H96.1z M108.6,334.9l-0.1,0.2c0,0,0,0,0,0l-9.8-11.4l-0.6-0.7h0.1l10.4,12L108.6,334.9z
		 M90.1,332.9l-2.5-1.1l6.6-7.9h4.2l6.5,7.5l-3.2,1.4c-0.2-0.2-0.4-0.2-0.6-0.2H90.8C90.5,332.7,90.3,332.8,90.1,332.9z M86.3,334.7
		l0-1.3l0.9-1.1l2.6,1.2c0,0,0,0.1,0,0.1v1.1H86.3z M98.9,323.3c0,0,0,0.1,0,0.1l-0.4-0.5h0.4V323.3z M94.1,322.9l-0.5,0.6h-0.3
		c-0.2,0-0.3-0.1-0.3-0.3v-0.3H94.1z M97.6,322.9l0.6,0.6h-3.6l0.5-0.6H97.6z M105.4,332l0,2.7h-3.4v-1.1c0,0,0-0.1,0-0.1L105.4,332
		L105.4,332z M106.1,331.6L106.1,331.6c0-0.1,0-0.1-0.1-0.2c0,0-0.1,0-0.1,0l0,0l0.1,0c0.1,0,0.1-0.1,0.1-0.2v-2.3h0.2v3
		L106.1,331.6z M99.2,323.6c0.1-0.1,0.1-0.2,0.1-0.4v-0.7h6l0.1,8.3L99.2,323.6z M98.9,322.4L98.9,322.4l0,0.2h-4l-2,0v-2l0-1.4h4.5
		l1.5,0V322.4z M99.3,319.2L99.3,319.2c0-0.2-0.1-0.3-0.3-0.3h-0.6l0.6-0.7c0.2-0.1,0.3-0.2,0.3-0.4l5.9-6.8c0,1,0,1.6,0,1.6
		l0.1,6.7H99.3z M93,315.7c0.2-0.3,0.5-0.5,0.9-0.5H98c0.4,0,0.7,0.2,0.9,0.6c-0.2-0.2-0.5-0.3-0.9-0.3h-4.1
		C93.6,315.4,93.3,315.5,93,315.7z M93.1,316.2c0.2-0.3,0.5-0.5,0.8-0.5H98c0.5,0,1,0.4,1,1v0.3l-0.7,0.8h-3.8L93.1,316.2z
		 M97.9,318.2l-0.6,0.7h-2.1l-0.6-0.7H97.9z M97.9,318.9L97.9,318.9l10.6-12.3l-0.1-0.1l0.2,0.1c0,0,0,0,0,0L97.9,318.9z
		 M99.3,316.6v-0.5c0-0.7-0.6-1.3-1.3-1.3h-4.1c-0.6,0-1.1,0.4-1.2,0.9l-6-7.2c0.1-3.7,1.2-13.3,8.4-22.5c0.2-0.3,0.5-0.4,0.9-0.4
		c0.3,0,0.7,0.2,0.9,0.4c6.7,8.7,8.1,18.6,8.3,23.9L99.3,316.6z M94.8,318.9L94.8,318.9l-10.4-12.3c0,0,0,0,0,0c0,0,0,0,0,0
		c0,0,0,0,0,0L94.8,318.9z M93.5,317.9h-0.3c-0.1,0-0.2-0.1-0.2-0.2v-0.4L93.5,317.9z M92.6,316.8v0.8c0,0.3,0.3,0.6,0.6,0.6h0.6
		l0.6,0.7h-1.4c-0.2,0-0.3,0.1-0.3,0.3v1.4c0,0,0,0.1,0,0.1v2.6c0,0.4,0.3,0.6,0.6,0.6h0.1l-6.3,7.6l-0.6-0.3l0.3-20.9
		c0,0,0-0.2,0-0.7L92.6,316.8z M86.3,332l0.2,0.1l-0.2,0.2L86.3,332z M85.8,328.9v2.3c0,0.1,0,0.1,0.1,0.2l0.8,0.4l0,0l-0.7-0.3
		c-0.1,0-0.1,0-0.2,0c0,0-0.1,0.1-0.1,0.1v1.2l-0.2,0.3v-4.2H85.8z M94.5,322.9L94.5,322.9l-10,12.1l0.1,0.1l-0.2-0.1c0,0,0,0,0,0
		L94.5,322.9z M85.8,334v0.9c0,0.1,0.1,0.2,0.2,0.2h4c0.1,0,0.2-0.1,0.2-0.2v-1.2c0,0,0-0.1,0-0.1c0,0,0,0,0,0c0-0.1,0-0.1-0.1-0.2
		l-2.7-1.2l0,0l2.7,1.2c0.1,0,0.1,0,0.2,0c0.1-0.1,0.3-0.2,0.5-0.2h10.4c0.2,0,0.3,0.1,0.5,0.2c0,0.1,0.1,0.1,0.2,0l3.4-1.5l0,0
		l-3.4,1.5c-0.1,0-0.1,0.1-0.1,0.2c0,0.1,0,0.1,0,0.1v1.2c0,0.1,0.1,0.2,0.2,0.2h4c0.1,0,0.2-0.1,0.2-0.2v-2.1l0.2,0.2v9.3
		c0,0.1-0.1,0.2-0.1,0.2l-4.5,1.5c0,0,0,0-0.1,0H90.3c0,0,0,0-0.1,0l-4.5-1.5c-0.1,0-0.1-0.1-0.1-0.2v-8.1L85.8,334z M94,345.7
		c0,0.5-0.5,1-1,1.1c-1,0.1-2.1,0.1-3.1,0c-0.5-0.1-1-0.5-1-1.1c-0.1-0.6-0.1-1.2-0.1-1.9l1.4,0.5c0.1,0,0.1,0,0.2,0h3.8
		C94.1,344.8,94,345.3,94,345.7z M102.9,345.7c0,0.5-0.5,1-1,1.1c-1,0.1-2.1,0.1-3.1,0c-0.5-0.1-1-0.5-1-1.1c0-0.5-0.1-0.9-0.1-1.4
		h3.8c0,0,0.1,0,0.2,0l1.3-0.4C103,344.5,103,345.1,102.9,345.7z M111.4,345c0,1.1-0.5,2.2-1.4,2.8c-1,0.7-1.8,0.5-2.3,0.2
		c-1-0.5-1.7-1.7-1.7-2.9l0-2.1l0.3-0.1c0.2-0.1,0.4-0.3,0.4-0.5v-8.9l1.6,1.8c0.1,0.2,0.4,0.2,0.5,0c0.1-0.1,0.1-0.2,0.1-0.3
		c0-0.1,0-0.2-0.1-0.2l-2.1-2.5v-3.6c0-0.1-0.1-0.2-0.2-0.2h-0.5c-0.1,0-0.2,0.1-0.2,0.2v1.3l-0.1-7.4h5.2
		C111.3,333.1,111.3,339.8,111.4,345z M116.2,354.1c0,2-1.7,3.7-3.7,3.7c-2,0-3.7-1.7-3.7-3.7c0-1.7,1.1-3.1,2.7-3.6c0,0,0,0,0,0
		c0.3-0.1,0.6-0.1,1-0.1c1.1,0,2.1,0.4,2.7,1.2C115.9,352.3,116.2,353.2,116.2,354.1z M115.3,351.2c-0.7-0.7-1.7-1.1-2.8-1.1
		c-0.3,0-0.5,0-0.8,0.1l8.7-27.6h3.9L115.3,351.2z M125.2,319.9v2.1c0,0.2-0.1,0.3-0.3,0.3H99.3v-2.7h25.6
		C125.1,319.5,125.2,319.7,125.2,319.9z M110.3,311.1c0.1,2.7,0.3,5.4,0.4,8.2h-5.2l-0.1-6.7c0,0,0-0.7,0-2l3.3-3.8
		c0.1-0.1,0.1-0.2,0.1-0.2c0-0.1,0-0.2-0.1-0.3c-0.1-0.1-0.2-0.1-0.3-0.1c-0.1,0-0.2,0.1-0.3,0.1l-2.8,3.2
		c-0.3-5.4-1.8-15.2-8.4-23.7c-0.3-0.3-0.7-0.6-1.1-0.6c-0.4,0-0.9,0.2-1.1,0.6c-7,9-8.2,18.3-8.4,22.4l-1.5-1.8
		c-0.1-0.2-0.4-0.2-0.5,0c-0.2,0.1-0.2,0.4,0,0.5l2.1,2.5c0,0.7,0,1.1,0,1.1L86,328.5c0,0,0,0-0.1,0h-0.5c-0.1,0-0.2,0.1-0.2,0.2
		v4.8l-1,1.2c-0.1,0.1-0.1,0.4,0,0.5c0.1,0.1,0.2,0.1,0.3,0.1c0.1,0,0.2-0.1,0.3-0.1l0.5-0.6v7.7c0,0.2,0.1,0.5,0.4,0.5l0.2,0.1
		l0,2.2c0,1.2-0.7,2.4-1.7,2.9c-0.5,0.3-1.4,0.5-2.3-0.2c-0.9-0.6-1.4-1.6-1.4-2.8c0-6.1,0.1-14.1,0.7-27.8c0.1-1.6,0.2-3.3,0.2-5
		l0.1-1.1c0.7-13.5,6.1-22.3,9.3-26.4c0.7-0.9,1.3-1.6,2-2.3c0.6-0.7,1.5-1.1,2.4-1.1l0.8,0l0.8,0c0.9,0,1.8,0.4,2.4,1.1
		c0.7,0.7,1.4,1.5,2,2.3c2.3,2.9,5.4,7.9,7.4,14.9c0.1,0.4,0.2,0.9,0.4,1.3c0.3,1.3,0.6,2.6,0.8,3.9
		C110,306.9,110.2,309,110.3,311.1z M161.1,306.7l0.1-0.2c0,0,0,0,0,0l10.7,12.3h-0.1l-10.6-12.3L161.1,306.7z M185.4,306.4
		l-0.1,0.2L175,318.9h-0.1l10.3-12.3c0,0,0,0,0,0L185.4,306.4z M185.4,334.9l-0.1,0.1c0,0,0,0,0,0l-10.1-12.1h0.1l10.1,12
		L185.4,334.9z M170.8,319.4l0-0.2h3.8l2.3,0l0,1.4l0,0c0,0,0,0,0,0.1v1.9h-4.7l-1.3,0V319.4z M176.2,323.6l-0.5-0.6h1.2v0.3
		c0,0.2-0.1,0.3-0.3,0.3H176.2z M183.5,333.4l0,1.3H180v-1.1c0,0,0-0.1,0-0.1l2.6-1.2L183.5,333.4z M182.1,331.8l-2.5,1.1
		c-0.2-0.2-0.4-0.2-0.6-0.2h-10.4c-0.2,0-0.5,0.1-0.6,0.2l-3.2-1.4l6.5-7.5h4.2L182.1,331.8z M164.3,334.7l0-2.7l0,0l3.3,1.5
		c0,0,0,0.1,0,0.1v1.1H164.3z M171.6,323.6l0.6-0.6h2.5l0.5,0.6H171.6z M171.2,322.9l-0.4,0.5c0,0,0-0.1,0-0.1v-0.3H171.2z
		 M170.5,322.6v0.7c0,0.1,0,0.3,0.1,0.4l-6.2,7.2l0.1-8.3H170.5z M163.8,331.4l0.1,0L163.8,331.4c0,0.1,0,0.1,0,0.1
		c0,0-0.1,0.1-0.1,0.1v0l-0.2,0.2v-3h0.2v2.3C163.7,331.3,163.7,331.3,163.8,331.4z M171,323.8l0.7-0.8h0.1L161.3,335c0,0,0,0,0,0
		c0,0,0,0,0,0L171,323.8z M163.7,332.8v2.1c0,0.1,0.1,0.2,0.2,0.2h4c0.1,0,0.2-0.1,0.2-0.2v-1.2c0,0,0-0.1,0-0.1c0,0,0,0,0,0
		c0-0.1,0-0.1-0.1-0.2l-3.4-1.5l0,0l3.4,1.5c0.1,0,0.1,0,0.2,0c0.1-0.1,0.3-0.2,0.5-0.2H179c0.2,0,0.3,0.1,0.5,0.2
		c0,0.1,0.1,0.1,0.2,0l2.7-1.2l0,0l-2.7,1.2c-0.1,0-0.1,0.1-0.1,0.2c0,0.1,0,0.1,0,0.1v1.2c0,0.1,0.1,0.2,0.2,0.2h4
		c0.1,0,0.2-0.1,0.2-0.2V334l0.2,0.3v8.1c0,0.1-0.1,0.2-0.1,0.2l-4.5,1.5c0,0,0,0,0,0h-11.2c0,0,0,0-0.1,0l-4.5-1.5
		c-0.1,0-0.1-0.1-0.1-0.2V333L163.7,332.8z M183.4,332.2l-0.2-0.2l0.2-0.1L183.4,332.2z M183.9,332.8v-1.2c0-0.1,0-0.1-0.1-0.1
		c0,0-0.1,0-0.2,0l-0.7,0.3l0,0l0.8-0.4c0.1,0,0.1-0.1,0.1-0.2v-2.3h0.2v4.2L183.9,332.8z M183.4,331.2l-0.6,0.3l-6.3-7.6h0.1
		c0.4,0,0.6-0.3,0.6-0.6v-2.6c0,0,0-0.1,0-0.1v-1.4c0-0.2-0.1-0.3-0.3-0.3h-1.4l0.6-0.7h0.6c0.3,0,0.6-0.2,0.6-0.6v-0.8l6-7.1
		c0,0.4,0,0.6,0,0.7L183.4,331.2z M170.9,315.7c0.2-0.3,0.5-0.6,0.9-0.6h4.1c0.4,0,0.7,0.2,0.9,0.5c-0.2-0.2-0.5-0.3-0.9-0.3h-4.1
		C171.5,315.4,171.1,315.5,170.9,315.7z M170.8,317v-0.3c0-0.5,0.4-1,1-1h4.1c0.4,0,0.7,0.2,0.8,0.5l-1.4,1.6h-3.8L170.8,317z
		 M175,318.2l-0.6,0.7h-2.1l-0.6-0.7H175z M176.3,317.9l0.5-0.7v0.4c0,0.1-0.1,0.2-0.2,0.2H176.3z M177.1,315.7
		c-0.2-0.5-0.7-0.9-1.2-0.9h-4.1c-0.7,0-1.3,0.6-1.3,1.3v0.5l-5.8-6.7c0.2-5.2,1.6-15.2,8.3-23.9c0.2-0.3,0.5-0.4,0.9-0.4
		c0.3,0,0.7,0.2,0.9,0.4c7.2,9.2,8.2,18.8,8.4,22.5L177.1,315.7z M170.5,317.8c0,0.2,0.2,0.3,0.3,0.4l0.6,0.7h-0.6
		c-0.2,0-0.3,0.1-0.3,0.3v0h-5.9l0.1-6.7c0,0,0-0.6,0-1.6L170.5,317.8z M144.6,321.9v-2.1c0-0.2,0.1-0.3,0.3-0.3h25.6v2.7h-25.6
		C144.7,322.3,144.6,322.1,144.6,321.9z M158.2,350.5c1.6,0.4,2.7,1.9,2.7,3.6c0,2-1.7,3.7-3.7,3.7c-2,0-3.7-1.7-3.7-3.7
		c0-0.9,0.3-1.8,0.9-2.5c0.7-0.8,1.7-1.2,2.7-1.2C157.6,350.4,157.9,350.5,158.2,350.5C158.2,350.5,158.2,350.5,158.2,350.5z
		 M158,350.2c-0.3-0.1-0.5-0.1-0.8-0.1c-1,0-2.1,0.4-2.8,1.1l-9-28.6h3.9L158,350.2z M163.8,345.1c0,1.2-0.7,2.4-1.7,2.9
		c-0.5,0.3-1.4,0.5-2.3-0.2c-0.9-0.6-1.4-1.6-1.4-2.8c0-4.8,0.1-11.6,0.5-22.4h5.2l-0.1,7.6v-1.5c0-0.1-0.1-0.2-0.2-0.2h-0.5
		c-0.1,0-0.2,0.1-0.2,0.2v3.6l-2.1,2.5c-0.1,0.2-0.1,0.4,0,0.5c0.2,0.1,0.4,0.1,0.5,0l1.6-1.8v8.9c0,0.2,0.1,0.5,0.4,0.5l0.3,0.1
		L163.8,345.1z M172,345.7c0,0.5-0.5,1-1,1.1c-1,0.1-2.1,0.1-3.1,0c-0.5-0.1-1-0.5-1-1.1c0-0.6-0.1-1.2-0.1-1.8l1.3,0.4
		c0.1,0,0.1,0,0.2,0h3.8C172,344.8,172,345.3,172,345.7z M180.9,345.7c0,0.5-0.5,1-1,1.1c-1,0.1-2.1,0.1-3.1,0c-0.5-0.1-1-0.5-1-1.1
		c0-0.5-0.1-0.9-0.1-1.4h3.8c0,0,0.1,0,0.2,0l1.4-0.5C181,344.4,181,345.1,180.9,345.7z M170.7,282.4c0.6-0.7,1.5-1.1,2.4-1.1l0.7,0
		l0.8,0c0.9,0,1.8,0.4,2.4,1.1c0.7,0.7,1.3,1.5,2,2.3c3.2,4,8.6,12.8,9.2,26.4l0.1,1.1c0.1,1.8,0.2,3.4,0.2,5
		c0.6,13.7,0.7,21.7,0.7,27.8c0,1.1-0.5,2.2-1.4,2.8c-1,0.7-1.8,0.5-2.3,0.2c-1-0.5-1.7-1.7-1.7-2.9l0-2.2l0.2-0.1
		c0.2-0.1,0.4-0.3,0.4-0.5v-7.7l0.5,0.6c0.1,0.1,0.2,0.1,0.3,0.1c0.1,0,0.2,0,0.3-0.1c0.1-0.1,0.1-0.2,0.1-0.3c0-0.1,0-0.2-0.1-0.2
		l-1-1.3v-4.8c0-0.1-0.1-0.2-0.2-0.2h-0.5c0,0,0,0-0.1,0l-0.3-18.2c0,0,0-0.4,0-1.1l2.1-2.5c0.1-0.1,0.1-0.1,0.1-0.2
		c0-0.1,0-0.2-0.1-0.3c-0.2-0.1-0.4-0.1-0.5,0l-1.5,1.8c-0.2-4-1.4-13.3-8.4-22.4c-0.3-0.3-0.7-0.6-1.1-0.6c-0.4,0-0.9,0.2-1.1,0.6
		c-6.6,8.5-8.1,18.3-8.4,23.7l-2.8-3.2c-0.1-0.1-0.2-0.1-0.3-0.1c-0.1,0-0.2,0-0.3,0.1c-0.1,0.1-0.2,0.4,0,0.5l3.3,3.8
		c0,1.2,0,2,0,1.9l-0.1,6.7H159c0.1-2.5,0.2-5.1,0.4-8.2c0.1-2.1,0.3-4.2,0.7-6.2c0.2-1.3,0.5-2.6,0.8-3.9c0.3-1.1,0.6-2.2,0.9-3.2
		c2-6.1,4.8-10.5,6.9-13.1C169.3,283.9,170,283.1,170.7,282.4z M161.5,297.7c-0.3,1-0.6,2.1-0.9,3.2c-0.3,1.3-0.6,2.5-0.8,3.8H110
		c-0.2-1.3-0.5-2.5-0.8-3.8c-0.1-0.4-0.2-0.9-0.3-1.3v-71.5h0.7v46.6c0,0.4,0.3,0.7,0.7,0.7c0.4,0,0.7-0.3,0.7-0.7v-46.6h5.2v55.2
		c0,0.1,0.1,0.2,0.2,0.2h37c0.1,0,0.2-0.1,0.2-0.2v-55.2h5.2v46.6c0,0.4,0.3,0.7,0.7,0.7c0.4,0,0.7-0.3,0.7-0.7v-46.6h1.3V297.7z
		 M109.9,228.1h0.8v46.6c0,0.2-0.2,0.4-0.4,0.4c-0.2,0-0.4-0.2-0.4-0.4V228.1z M119.3,278c0,1.3,1,2.4,2.1,2.4h26.9
		c0.8,0,1.6-0.5,1.9-1.4c0.1-0.3,0.2-0.7,0.2-1v-49.9h0.4V278c0,0.5-0.1,1-0.3,1.4c-0.5,0.9-1.3,1.5-2.3,1.5h-26.9
		c-1.4,0-2.6-1.3-2.6-2.9v-49.9h0.4V278z M119.6,228.1h30.6V278c0,0.3-0.1,0.6-0.2,0.9c-0.3,0.7-0.9,1.1-1.6,1.1h-26.9
		c-1,0-1.8-0.9-1.8-2V228.1z M118.5,278c0,1.8,1.3,3.2,2.9,3.2h26.9c1.1,0,2.1-0.7,2.6-1.7c0.2-0.5,0.3-1,0.3-1.5v-49.9h1.9v55
		h-36.6v-55h1.9V278z M159.1,228.1h0.8v46.6c0,0.2-0.2,0.4-0.4,0.4c-0.2,0-0.4-0.2-0.4-0.4V228.1z M164.1,227.8h-58.4
		c-0.4,0-0.9-0.2-1.1-0.6l-8.4-11.4v-22.4l8.5-13.6c0.3-0.4,0.7-0.7,1.2-0.7h4.6c-0.2,0.1-0.4,0.3-0.5,0.5c-0.4,0.6-0.7,1.3-0.7,2
		c0,0.7,0.2,1.4,0.7,2c0.6,0.8,1.5,1.2,2.5,1.2c1.7,0,3.2-1.4,3.2-3.2c0-1-0.5-1.9-1.2-2.5H155c-0.8,0.6-1.2,1.5-1.2,2.5
		c0,1.7,1.4,3.2,3.2,3.2c1.5,0,2.7-1,3.1-2.4c0.1-0.2,0.1-0.5,0.1-0.7c0-0.2,0-0.5-0.1-0.7c-0.2-0.7-0.6-1.3-1.1-1.7h5.1
		c0.3,0,0.6,0.1,0.8,0.2c0.2,0.1,0.3,0.2,0.4,0.4l8.5,13.6v22.4l-8.4,11.4C165,227.5,164.5,227.8,164.1,227.8z M173.7,216.3v3.9
		h-2.9L173.7,216.3z M174,229.1v-8.5h12.3v8.5H174z M174,220.2V216h12.3v4.3H174z M186.3,215.6H174v-2.9h12.3V215.6z"/>
	<path class="st1" d="M135.3,88.8v-6.3c0-0.4-0.5-0.8-1.1-0.8h-10.6c-0.6,0-1.1,0.3-1.1,0.8v6.3c0,0.4,0.5,0.8,1.1,0.8h10.6
		C134.9,89.6,135.3,89.3,135.3,88.8z M123.6,89.3c-0.5,0-0.8-0.2-0.8-0.4v-6.3c0-0.2,0.4-0.4,0.8-0.4h10.6c0.4,0,0.8,0.2,0.8,0.4
		v6.3c0,0.2-0.4,0.4-0.8,0.4H123.6z"/>
	<path class="st1" d="M111.6,436.9v-8.6c0-0.1-0.1-0.2-0.2-0.2H102c-0.1,0-0.2,0.1-0.2,0.2v8.6c0,0.1,0.1,0.2,0.2,0.2h9.4
		C111.5,437,111.6,437,111.6,436.9z M102.2,436.7v-8.3h9.1v8.3H102.2z"/>
	<path class="st1" d="M89.3,350.7h-9.6c-0.1,0-0.2,0.1-0.2,0.2v7.3c0,0.1,0.1,0.2,0.2,0.2h9.6c0.1,0,0.2-0.1,0.2-0.2v-7.3
		C89.5,350.8,89.4,350.7,89.3,350.7z M89.2,351v7h-9.3v-7H89.2z"/>
	<path class="st1" d="M131.2,378c-0.2,0.2-0.3,0.4-0.4,0.6c-0.5,0.8-0.7,1.6-0.7,2.5c0,1.5,0.7,2.8,1.8,3.8c0.9,0.7,1.9,1,3,1
		c1.1,0,2.1-0.4,3-1c1.2-0.9,1.8-2.3,1.8-3.8c0-0.9-0.2-1.8-0.7-2.5c-0.1-0.2-0.3-0.4-0.4-0.6c0,0,0,0,0,0c-0.9-1.1-2.2-1.7-3.6-1.7
		C133.5,376.3,132.2,376.9,131.2,378z M138.3,378.2c0.2,0.2,0.3,0.4,0.4,0.6c0.4,0.7,0.7,1.5,0.7,2.4c0,1.4-0.6,2.7-1.7,3.5
		c-0.8,0.6-1.7,1-2.8,1c-1,0-2-0.3-2.8-1c-1.1-0.9-1.7-2.1-1.7-3.5c0-0.8,0.2-1.6,0.7-2.4c0.1-0.2,0.2-0.4,0.4-0.6
		c0.8-1,2.1-1.6,3.4-1.6C136.2,376.7,137.4,377.2,138.3,378.2z"/>
	<path class="st1" d="M135.4,477.2v-9.2c0-0.3-0.2-0.5-0.5-0.5c-0.3,0-0.5,0.2-0.5,0.5v9.2c0,0.3,0.2,0.5,0.5,0.5
		C135.2,477.7,135.4,477.4,135.4,477.2z M134.7,477.2v-9.2c0-0.1,0.1-0.2,0.2-0.2c0.1,0,0.2,0.1,0.2,0.2v9.2c0,0.1-0.1,0.2-0.2,0.2
		C134.8,477.3,134.7,477.3,134.7,477.2z"/>
	<path class="st1" d="M135.4,447.2v-9.2c0-0.3-0.2-0.5-0.5-0.5c-0.3,0-0.5,0.2-0.5,0.5v9.2c0,0.3,0.2,0.5,0.5,0.5
		C135.2,447.7,135.4,447.5,135.4,447.2z M134.7,447.2v-9.2c0-0.1,0.1-0.2,0.2-0.2c0.1,0,0.2,0.1,0.2,0.2v9.2c0,0.1-0.1,0.2-0.2,0.2
		C134.8,447.3,134.7,447.3,134.7,447.2z"/>
	<path class="st1" d="M135.4,427.4v-9.2c0-0.3-0.2-0.5-0.5-0.5c-0.3,0-0.5,0.2-0.5,0.5v9.2c0,0.3,0.2,0.5,0.5,0.5
		C135.2,427.9,135.4,427.7,135.4,427.4z M134.7,427.4v-9.2c0-0.1,0.1-0.2,0.2-0.2c0.1,0,0.2,0.1,0.2,0.2v9.2c0,0.1-0.1,0.2-0.2,0.2
		C134.8,427.6,134.7,427.5,134.7,427.4z"/>
	<path class="st1" d="M123.1,79h0.9c0.1,0,0.2-0.1,0.2-0.2v-1.1h6.3v1.1c0,0.1,0.1,0.2,0.2,0.2h0.9c0.1,0,0.2-0.1,0.2-0.2v-1.4h7.5
		c0.3,0.9,1.1,1.6,2.1,1.6h4.3c1.2,0,2.2-1,2.2-2.2v-1.3h3v1.2c0,0.1,0,0.1,0.1,0.1c0,0,0.1,0,0.2,0l3.4-1.3v0.6
		c0,0.1,0.1,0.2,0.2,0.2h0.9c0.1,0,0.2-0.1,0.2-0.2v-8.8c0-0.1-0.1-0.2-0.2-0.2h-0.9c-0.1,0-0.2,0.1-0.2,0.2V68l-3.4-1.3
		c-0.1,0-0.1,0-0.2,0c0,0-0.1,0.1-0.1,0.1V68h-3v-1.3c0-1.2-1-2.2-2.2-2.2h-4.3c-1,0-1.9,0.7-2.1,1.6h-7.5v-1.4
		c0-0.1-0.1-0.2-0.2-0.2h-0.9c-0.1,0-0.2,0.1-0.2,0.2v1.1h-6.3v-1.1c0-0.1-0.1-0.2-0.2-0.2h-0.9c-0.1,0-0.2,0.1-0.2,0.2v14.2
		C123,78.9,123.1,79,123.1,79z M155.5,67.5V76h-0.6v-8.5H155.5z M154.6,68.3v6.9l-3.3,1.2v-9.3L154.6,68.3z M150.9,68.4v6.8h-3v-6.8
		H150.9z M141.3,64.8h4.3c1,0,1.9,0.9,1.9,1.9v10.1c0,1-0.9,1.9-1.9,1.9h-4.3c-0.9,0-1.7-0.6-1.8-1.5c0-0.1,0-0.3,0-0.4V66.7
		c0-0.2,0-0.3,0.1-0.4c0,0,0,0,0,0C139.7,65.4,140.5,64.8,141.3,64.8z M139.1,66.4c0,0.1,0,0.2,0,0.3v10.1c0,0.1,0,0.2,0,0.3h-7.4
		V66.4H139.1z M131.4,64.8v13.9h-0.5v-1.1V65.9v-1.1H131.4z M130.5,77.4h-6.3V66.1h6.3V77.4z M123.3,78.7V64.8h0.6v1.1v11.7v1.1
		H123.3z"/>
	<path class="st1" d="M141.9,59.7c0-0.8-0.7-1.5-1.5-1.5s-1.5,0.7-1.5,1.5c0,0.8,0.7,1.5,1.5,1.5S141.9,60.5,141.9,59.7z
		 M139.2,59.7c0-0.6,0.5-1.2,1.2-1.2c0.6,0,1.2,0.5,1.2,1.2c0,0.6-0.5,1.2-1.2,1.2C139.7,60.9,139.2,60.3,139.2,59.7z"/>
	<path class="st1" d="M130.9,59.7c0-0.8-0.7-1.5-1.5-1.5c-0.8,0-1.5,0.7-1.5,1.5c0,0.8,0.7,1.5,1.5,1.5
		C130.2,61.2,130.9,60.5,130.9,59.7z M128.2,59.7c0-0.6,0.5-1.2,1.2-1.2c0.6,0,1.2,0.5,1.2,1.2c0,0.6-0.5,1.2-1.2,1.2
		C128.7,60.9,128.2,60.3,128.2,59.7z"/>
	<path class="st1" d="M131.2,38.2v13.2c0,0.4,0.3,0.7,0.7,0.7h5.9c0.4,0,0.7-0.3,0.7-0.7V38.2c0-0.4-0.3-0.7-0.7-0.7h-5.9
		C131.6,37.5,131.2,37.8,131.2,38.2z M137.8,37.9c0.2,0,0.4,0.2,0.4,0.4v13.2c0,0.2-0.2,0.4-0.4,0.4h-5.9c-0.2,0-0.4-0.2-0.4-0.4
		V38.2c0-0.2,0.2-0.4,0.4-0.4H137.8z"/>
	<path class="st1" d="M100.7,80c0-1.5-1.2-2.7-2.7-2.7c-1.5,0-2.7,1.2-2.7,2.7c0,1.5,1.2,2.7,2.7,2.7C99.5,82.7,100.7,81.5,100.7,80
		z M95.7,80c0-1.3,1-2.3,2.3-2.3c1.3,0,2.3,1,2.3,2.3c0,1.3-1,2.3-2.3,2.3C96.8,82.4,95.7,81.3,95.7,80z"/>
	<path class="st1" d="M132.2,49c0,1.5,1.2,2.7,2.7,2.7c1.5,0,2.7-1.2,2.7-2.7c0-1.5-1.2-2.7-2.7-2.7C133.4,46.3,132.2,47.5,132.2,49
		z M137.2,49c0,1.3-1,2.3-2.3,2.3c-1.3,0-2.3-1-2.3-2.3c0-1.3,1-2.3,2.3-2.3C136.2,46.7,137.2,47.7,137.2,49z"/>
	<path class="st1" d="M132.2,40.9c0,1.5,1.2,2.7,2.7,2.7c1.5,0,2.7-1.2,2.7-2.7c0-1.5-1.2-2.7-2.7-2.7
		C133.4,38.3,132.2,39.5,132.2,40.9z M137.2,40.9c0,1.3-1,2.3-2.3,2.3c-1.3,0-2.3-1-2.3-2.3c0-1.3,1-2.3,2.3-2.3
		C136.2,38.6,137.2,39.7,137.2,40.9z"/>
	<path class="st1" d="M97.4,86.3c0-1.5-1.2-2.7-2.7-2.7c-1.5,0-2.7,1.2-2.7,2.7c0,1.5,1.2,2.7,2.7,2.7
		C96.2,88.9,97.4,87.7,97.4,86.3z M92.4,86.3c0-1.3,1-2.3,2.3-2.3c1.3,0,2.3,1,2.3,2.3c0,1.3-1,2.3-2.3,2.3
		C93.4,88.6,92.4,87.6,92.4,86.3z"/>
	<path class="st1" d="M169,80c0,1.5,1.2,2.7,2.7,2.7s2.7-1.2,2.7-2.7c0-1.5-1.2-2.7-2.7-2.7S169,78.6,169,80z M174,80
		c0,1.3-1,2.3-2.3,2.3c-1.3,0-2.3-1-2.3-2.3c0-1.3,1-2.3,2.3-2.3C173,77.7,174,78.8,174,80z"/>
	<path class="st1" d="M172.4,86.3c0,1.5,1.2,2.7,2.7,2.7c1.5,0,2.7-1.2,2.7-2.7c0-1.5-1.2-2.7-2.7-2.7
		C173.6,83.6,172.4,84.8,172.4,86.3z M177.4,86.3c0,1.3-1,2.3-2.3,2.3c-1.3,0-2.3-1-2.3-2.3c0-1.3,1-2.3,2.3-2.3
		C176.3,84,177.4,85,177.4,86.3z"/>
	<path class="st1" d="M129.5,46.5v-8.8c0-0.1-0.1-0.2-0.2-0.2h-8.8c-0.1,0-0.2,0.1-0.2,0.2v8.8c0,0.1,0.1,0.2,0.2,0.2h8.8
		C129.4,46.7,129.5,46.6,129.5,46.5z M120.7,46.3v-8.5h8.5v8.5H120.7z"/>
	<path class="st1" d="M130.5,54.5c0-1.8-1.5-3.3-3.3-3.3c-1.8,0-3.3,1.5-3.3,3.3c0,1.8,1.5,3.3,3.3,3.3
		C129.1,57.9,130.5,56.4,130.5,54.5z M124.2,54.5c0-1.7,1.3-3,3-3c1.7,0,3,1.3,3,3c0,1.7-1.3,3-3,3
		C125.6,57.5,124.2,56.2,124.2,54.5z"/>
	<path class="st1" d="M130,54.5c0-1.5-1.2-2.8-2.8-2.8c-1.5,0-2.8,1.2-2.8,2.8c0,1.5,1.2,2.8,2.8,2.8C128.7,57.3,130,56,130,54.5z
		 M124.8,54.5c0-1.3,1.1-2.4,2.4-2.4c1.3,0,2.4,1.1,2.4,2.4c0,1.3-1.1,2.4-2.4,2.4C125.9,56.9,124.8,55.9,124.8,54.5z"/>
	<path class="st1" d="M145.9,54.5c0-1.8-1.5-3.3-3.3-3.3c-1.8,0-3.3,1.5-3.3,3.3c0,1.8,1.5,3.3,3.3,3.3
		C144.4,57.9,145.9,56.4,145.9,54.5z M139.6,54.5c0-1.7,1.3-3,3-3c1.7,0,3,1.3,3,3c0,1.7-1.3,3-3,3
		C140.9,57.5,139.6,56.2,139.6,54.5z"/>
	<path class="st1" d="M145.3,54.5c0-1.5-1.2-2.8-2.8-2.8c-1.5,0-2.8,1.2-2.8,2.8c0,1.5,1.2,2.8,2.8,2.8
		C144.1,57.3,145.3,56,145.3,54.5z M140.1,54.5c0-1.3,1.1-2.4,2.4-2.4c1.3,0,2.4,1.1,2.4,2.4c0,1.3-1.1,2.4-2.4,2.4
		C141.2,56.9,140.1,55.9,140.1,54.5z"/>
	<path class="st1" d="M154.4,181.5c0,1.4,1.1,2.5,2.5,2.5c1.4,0,2.5-1.1,2.5-2.5c0-1.4-1.1-2.5-2.5-2.5
		C155.5,179,154.4,180.1,154.4,181.5z M159.1,181.5c0,1.2-1,2.2-2.2,2.2c-1.2,0-2.2-1-2.2-2.2c0-1.2,1-2.2,2.2-2.2
		C158.1,179.3,159.1,180.3,159.1,181.5z"/>
	<path class="st1" d="M109.8,181.1c0,0.3,0,0.6,0,0.8c0.2,1.2,1.3,2.1,2.5,2.1c1.4,0,2.5-1.1,2.5-2.5c0-1.4-1.1-2.5-2.5-2.5
		C111,179,110,179.9,109.8,181.1z M114.5,181.5c0,1.2-1,2.2-2.2,2.2c-1.1,0-2-0.8-2.2-1.9c0-0.1,0-0.2,0-0.4c0-0.1,0-0.2,0-0.4
		c0,0,0,0,0,0c0.2-1.1,1.1-1.8,2.2-1.8C113.5,179.3,114.5,180.3,114.5,181.5z"/>
	<path class="st1" d="M171.6,195.3c0-0.8-0.2-1.5-0.7-2.2l-3.4-4.8c-0.6-0.9-1.6-1.5-2.7-1.6c-0.1,0-0.3,0-0.4,0h-59.3
		c-0.3,0-0.7,0-1,0.1c-0.8,0.2-1.6,0.7-2.1,1.5l-3.4,4.8c-0.5,0.6-0.7,1.4-0.7,2.2V214c0,0.8,0.3,1.7,0.8,2.3l4.5,5.6
		c0.7,0.9,1.8,1.4,2.9,1.4h57.1c1.2,0,2.2-0.5,2.9-1.4l4.5-5.6c0.5-0.7,0.8-1.5,0.8-2.3V195.3z M166.1,221.7
		c-0.6,0.8-1.6,1.3-2.7,1.3h-57.1c-1.1,0-2-0.5-2.7-1.3l-4.5-5.6c-0.5-0.6-0.7-1.4-0.7-2.1v-18.7c0-0.7,0.2-1.4,0.6-2l3.4-4.8
		c0.5-0.6,1.1-1.1,1.9-1.3c0.3-0.1,0.6-0.1,0.9-0.1h59.3c0.1,0,0.2,0,0.3,0c1,0.1,1.9,0.6,2.4,1.4l2.8,4l0.6,0.8
		c0.4,0.6,0.6,1.3,0.6,2V214c0,0.8-0.3,1.5-0.7,2.1L166.1,221.7z"/>
	<path class="st1" d="M170.5,195.3c0-0.2,0-0.4-0.1-0.6c-0.1-0.3-0.2-0.6-0.4-0.9l-3.4-4.8c-0.4-0.6-1-1-1.7-1.1c-0.1,0-0.3,0-0.4,0
		h-59.3c-0.3,0-0.7,0.1-1,0.2c-0.5,0.2-0.8,0.5-1.1,0.9l-3.4,4.8c-0.3,0.4-0.5,1-0.5,1.5V214c0,0.6,0.2,1.2,0.6,1.6l4.5,5.6
		c0.5,0.6,1.2,1,2,1h57.1c0.8,0,1.5-0.4,2-1l4.5-5.6c0.4-0.5,0.6-1,0.6-1.6V195.3z M165.2,221c-0.4,0.5-1.1,0.9-1.8,0.9h-57.1
		c-0.7,0-1.3-0.3-1.8-0.9l-4.5-5.6c-0.3-0.4-0.5-0.9-0.5-1.4v-18.7c0-0.5,0.1-0.9,0.4-1.3l3.4-4.8c0.2-0.3,0.6-0.6,1-0.8
		c0.3-0.1,0.6-0.2,0.9-0.2h59.3c0.1,0,0.2,0,0.3,0c0.6,0.1,1.2,0.4,1.5,0.9l3.4,4.8c0.2,0.2,0.3,0.5,0.4,0.8c0,0.2,0.1,0.4,0.1,0.5
		V214c0,0.5-0.2,1-0.5,1.4L165.2,221z"/>
	<path class="st1" d="M163,208.6h-0.9c-0.1,0-0.2,0.1-0.2,0.2v1.4h-5.3v-1.4c0-0.1-0.1-0.2-0.2-0.2h-0.9c-0.1,0-0.2,0.1-0.2,0.2v8.7
		c0,0.1,0.1,0.2,0.2,0.2h0.9c0.1,0,0.2-0.1,0.2-0.2V216h5.3v1.4c0,0.1,0.1,0.2,0.2,0.2h0.9c0.1,0,0.2-0.1,0.2-0.2v-8.7
		C163.2,208.7,163.1,208.6,163,208.6z M162.9,208.9v8.3h-0.6v-1.4c0-0.1-0.1-0.2-0.2-0.2h-5.7c-0.1,0-0.2,0.1-0.2,0.2v1.4h-0.6v-8.3
		h0.6v1.4c0,0.1,0.1,0.2,0.2,0.2h5.7c0.1,0,0.2-0.1,0.2-0.2v-1.4H162.9z"/>
	<path class="st1" d="M157.9,212.8c0,0.8,0.6,1.4,1.4,1.4c0.8,0,1.4-0.6,1.4-1.4c0-0.5-0.2-0.9-0.6-1.1c-0.2-0.2-0.5-0.3-0.8-0.3
		c-0.3,0-0.6,0.1-0.8,0.3C158.1,211.9,157.9,212.4,157.9,212.8z M160.1,212.8c0,0.5-0.4,0.8-0.8,0.8c-0.5,0-0.8-0.4-0.8-0.8
		c0-0.5,0.4-0.8,0.8-0.8C159.7,212,160.1,212.4,160.1,212.8z"/>
	<path class="st1" d="M114.4,217.5v-8.7c0-0.1-0.1-0.2-0.2-0.2h-0.9c-0.1,0-0.2,0.1-0.2,0.2v1.4h-5.3v-1.4c0-0.1-0.1-0.2-0.2-0.2
		h-0.9c-0.1,0-0.2,0.1-0.2,0.2v8.7c0,0.1,0.1,0.2,0.2,0.2h0.9c0.1,0,0.2-0.1,0.2-0.2V216h5.3v1.4c0,0.1,0.1,0.2,0.2,0.2h0.9
		C114.3,217.6,114.4,217.5,114.4,217.5z M113.5,217.3v-1.4c0-0.1-0.1-0.2-0.2-0.2h-5.7c-0.1,0-0.2,0.1-0.2,0.2v1.4h-0.6v-8.3h0.6
		v1.4c0,0.1,0.1,0.2,0.2,0.2h5.7c0.1,0,0.2-0.1,0.2-0.2v-1.4h0.6v8.3H113.5z"/>
	<path class="st1" d="M109.1,212.8c0,0.8,0.6,1.4,1.4,1.4c0.8,0,1.4-0.6,1.4-1.4c0-0.5-0.2-0.9-0.6-1.1c-0.2-0.2-0.5-0.3-0.8-0.3
		c-0.3,0-0.6,0.1-0.8,0.3C109.3,211.9,109.1,212.4,109.1,212.8z M111.3,212.8c0,0.5-0.4,0.8-0.8,0.8c-0.5,0-0.8-0.4-0.8-0.8
		c0-0.5,0.4-0.8,0.8-0.8C110.9,212,111.3,212.4,111.3,212.8z"/>
	<path class="st1" d="M137,197.8c0-0.1,0-0.3,0-0.4l3.9-2.4c0.2,0.1,0.4,0.2,0.6,0.2c0.7,0,1.3-0.6,1.3-1.3c0-0.7-0.6-1.3-1.3-1.3
		c-0.7,0-1.3,0.6-1.3,1.3l-3.9,2.3c-0.4-0.4-0.9-0.6-1.5-0.6c-0.5,0-1.1,0.2-1.5,0.6l-3.9-2.3c0,0,0,0,0,0c0-0.7-0.6-1.3-1.3-1.3
		c-0.7,0-1.3,0.6-1.3,1.3c0,0.7,0.6,1.3,1.3,1.3c0.2,0,0.5-0.1,0.6-0.2l3.9,2.4c0,0.1,0,0.2,0,0.4c0,1.2,0.9,2.1,2.1,2.1
		C136,199.9,137,198.9,137,197.8z M127.5,193.9c0-0.4,0.4-0.8,0.8-0.8c0.4,0,0.8,0.4,0.8,0.8c0,0.3-0.2,0.5-0.4,0.7
		c-0.1,0.1-0.3,0.1-0.4,0.1C127.8,194.7,127.5,194.3,127.5,193.9z M129.5,194.3l3.7,2.2c-0.1,0.2-0.2,0.3-0.3,0.5l-3.7-2.2
		C129.3,194.6,129.4,194.5,129.5,194.3z M142.3,193.9c0,0.4-0.4,0.8-0.8,0.8c-0.1,0-0.3,0-0.4-0.1c-0.2-0.1-0.4-0.4-0.4-0.7
		c0-0.4,0.4-0.8,0.8-0.8C142,193.1,142.3,193.4,142.3,193.9z M140.6,194.8l-3.7,2.3c-0.1-0.2-0.2-0.4-0.3-0.5l3.7-2.2
		C140.3,194.5,140.4,194.6,140.6,194.8z M133.4,197.8c0-0.1,0-0.2,0-0.3c0,0,0,0,0,0c0.1-0.3,0.2-0.5,0.4-0.8
		c0.3-0.3,0.7-0.4,1.1-0.4c0.4,0,0.8,0.2,1.1,0.4c0.2,0.2,0.3,0.5,0.4,0.8c0,0.1,0,0.2,0,0.3c0,0.8-0.7,1.5-1.5,1.5
		C134.1,199.2,133.4,198.6,133.4,197.8z"/>
	<path class="st1" d="M168.2,343.8C168.2,343.8,168.2,343.8,168.2,343.8l11.2,0c0,0,0,0,0.1,0l4.3-1.4l0.1,0c0.1,0,0.1-0.1,0.1-0.2
		v-1.9c0-0.1-0.1-0.2-0.2-0.2h-19.9c-0.1,0-0.2,0.1-0.2,0.2v1.9c0,0.1,0,0.1,0.1,0.2L168.2,343.8z M166.7,342.9c0-0.3,0-0.7,0-1
		c0-0.6,0-1.1,0.1-1.5h0.2c0,0.5-0.1,1-0.1,1.5c0,0.2,0,0.5,0,0.7c0,0.1,0.1,0.2,0.2,0.2h4.6c0.1,0,0.2-0.1,0.2-0.2
		c0-0.2,0-0.5,0-0.7c0-0.5,0-1-0.1-1.5h0.2c0,0.5,0.1,1,0.1,1.5c0,0.5,0,1,0,1.5l-3.9,0L166.7,342.9z M183.5,340.4l0,1.3h-2.2
		c0-0.4,0-0.9-0.1-1.3H183.5z M180.4,340.4c0,0.5,0.1,1,0.1,1.5c0,0.2,0,0.4,0,0.5h-4.2c0-0.2,0-0.4,0-0.5c0-0.5,0-1,0.1-1.5H180.4z
		 M175.4,340.4c0,0.5,0,0.9-0.1,1.3h-2.9c0-0.4,0-0.9-0.1-1.3H175.4z M175.3,342.1c0,0.4,0,0.9,0,1.3l-2.9,0c0-0.3,0-0.5,0-0.8
		c0-0.2,0-0.4,0-0.6H175.3z M171.5,340.4c0,0.6,0.1,1,0.1,1.5c0,0.2,0,0.4,0,0.5h-4.2c0-0.2,0-0.4,0-0.5c0-0.5,0-1,0.1-1.5H171.5z
		 M164.2,340.4h2.2c0,0.4,0,0.8-0.1,1.3h-2.2L164.2,340.4z M175.7,343.4c0-0.5,0-1,0-1.5c0-0.5,0-1,0.1-1.5h0.2c0,0.5-0.1,1-0.1,1.5
		c0,0.2,0,0.5,0,0.7c0,0.1,0.1,0.2,0.2,0.2h4.6c0.1,0,0.2-0.1,0.2-0.2c0-0.2,0-0.5,0-0.7c0-0.5,0-1-0.1-1.5h0.2c0,0.5,0.1,1,0.1,1.5
		c0,0.3,0,0.6,0,1l-1.7,0.5L175.7,343.4z M181.4,342.8c0-0.1,0-0.1,0-0.2c0-0.2,0-0.3,0-0.5h2.1L181.4,342.8z M164.2,342.1
		L164.2,342.1l2.2,0c0,0.2,0,0.5,0,0.7L164.2,342.1z"/>
	<path class="st1" d="M183.9,339.7v-4.3c0-0.1-0.1-0.2-0.2-0.2h-19.9c-0.1,0-0.2,0.1-0.2,0.2v4.3c0,0.1,0.1,0.2,0.2,0.2h19.9
		C183.9,339.8,183.9,339.8,183.9,339.7z M176.4,339.5c0.1-0.2,0.2-0.4,0.5-0.5c1-0.1,2-0.1,3,0c0.2,0,0.4,0.2,0.5,0.5H176.4z
		 M179.9,338.7c-1-0.1-2-0.1-3.1,0c-0.4,0.1-0.7,0.4-0.8,0.8h-0.2c0.1-0.5,0.5-1,1-1c1-0.1,2.1-0.1,3.1,0c0.5,0.1,0.9,0.5,1,1h-0.2
		C180.6,339.1,180.3,338.8,179.9,338.7z M167.4,339.5c0.1-0.2,0.2-0.4,0.5-0.5c1-0.1,2-0.1,3,0c0.2,0,0.4,0.2,0.5,0.5H167.4z
		 M170.9,338.7c-1-0.1-2-0.1-3.1,0c-0.4,0.1-0.7,0.4-0.8,0.8h-0.2c0.1-0.5,0.5-1,1-1c1-0.1,2.1-0.1,3.1,0c0.5,0.1,0.9,0.5,1,1h-0.2
		C171.7,339.1,171.4,338.8,170.9,338.7z M164.3,335.5h19.2l0,2l0,1.9h-2.3c-0.1-0.7-0.6-1.3-1.3-1.4c-1.1-0.1-2.1-0.1-3.2,0
		c-0.7,0.1-1.2,0.7-1.3,1.4h-3.1c-0.1-0.7-0.6-1.3-1.3-1.4c-1.1-0.1-2.1-0.1-3.2,0c-0.7,0.1-1.2,0.7-1.3,1.4h-2.3L164.3,335.5z"/>
	<path class="st1" d="M179.5,334.9v-1.2c0-0.3-0.2-0.5-0.5-0.5h-10.4c-0.3,0-0.5,0.2-0.5,0.5v1.2c0,0.1,0.1,0.2,0.2,0.2h11.1
		C179.5,335,179.5,334.9,179.5,334.9z M168.5,334.7v-1.1c0-0.1,0.1-0.2,0.2-0.2H179c0.1,0,0.2,0.1,0.2,0.2v1.1H168.5z"/>
	<path class="st1" d="M172.3,311v3.5c0,0.1,0.1,0.2,0.2,0.2h2.7c0.1,0,0.2-0.1,0.2-0.2V311c0-0.1-0.1-0.2-0.2-0.2h-2.7
		C172.4,310.8,172.3,310.9,172.3,311z M175,311.2v3.1h-2.4v-3.1H175z"/>
	<path class="st1" d="M171.3,307.6v0.5v1.1c0,0.4,0.2,0.7,0.5,0.8l0.2,0.1c1.1,0.5,2.4,0.5,3.5,0l0.2-0.1c0.3-0.1,0.5-0.5,0.5-0.8
		v-1.1v-0.5c0-0.4-0.2-0.7-0.5-0.8c-0.6-0.3-1.3-0.4-2-0.4c-0.7,0-1.3,0.1-2,0.4C171.5,306.9,171.3,307.2,171.3,307.6z M176,309.1
		c0,0.2-0.1,0.4-0.3,0.5l-0.2,0.1c-1,0.4-2.2,0.4-3.2,0l-0.2-0.1c-0.2-0.1-0.3-0.3-0.3-0.5v-1.1c0-0.2,0.1-0.4,0.3-0.5
		c0.6-0.2,1.2-0.4,1.8-0.4c0.6,0,1.3,0.1,1.8,0.4c0.2,0.1,0.3,0.3,0.3,0.5V309.1z M175.7,307.1c0.1,0.1,0.2,0.2,0.3,0.3
		c0,0-0.1-0.1-0.1-0.1c-0.6-0.3-1.3-0.4-2-0.4c-0.7,0-1.3,0.1-2,0.4c-0.1,0-0.1,0.1-0.1,0.1c0.1-0.1,0.1-0.2,0.3-0.3
		c0.6-0.2,1.2-0.4,1.8-0.4C174.5,306.7,175.1,306.8,175.7,307.1z"/>
	<path class="st1" d="M172.4,325.9v3.4c0,0.3,0.2,0.5,0.5,0.5h1.9c0.3,0,0.5-0.2,0.5-0.5v-3.4c0-0.3-0.2-0.5-0.5-0.5h-1.9
		C172.6,325.4,172.4,325.6,172.4,325.9z M174.8,325.7c0.1,0,0.2,0.1,0.2,0.2v3.4c0,0.1-0.1,0.2-0.2,0.2h-1.9c-0.1,0-0.2-0.1-0.2-0.2
		v-3.4c0-0.1,0.1-0.2,0.2-0.2H174.8z"/>
	<path class="st1" d="M90.3,343.8C90.4,343.8,90.4,343.8,90.3,343.8l11.2,0c0,0,0,0,0.1,0l4.2-1.4l0.2-0.1c0.1,0,0.1-0.1,0.1-0.2
		v-1.9c0-0.1-0.1-0.2-0.2-0.2H86c-0.1,0-0.2,0.1-0.2,0.2v1.9c0,0.1,0,0.1,0.1,0.2L90.3,343.8z M88.7,342.9c0-0.3,0-0.6,0-1
		c0-0.5,0-1,0.1-1.5h0.2c0,0.5-0.1,1-0.1,1.5c0,0.2,0,0.5,0,0.7c0,0.1,0.1,0.2,0.2,0.2h4.6c0.1,0,0.2-0.1,0.2-0.2c0-0.2,0-0.5,0-0.7
		c0-0.5,0-1-0.1-1.5h0.2c0,0.4,0,0.9,0.1,1.5c0,0.5,0,1,0,1.5l-3.7,0L88.7,342.9z M105.5,340.4l0,1.3h-2.2c0-0.5,0-0.9-0.1-1.3
		H105.5z M102.4,340.4c0,0.5,0.1,1,0.1,1.5c0,0.2,0,0.4,0,0.5h-4.2c0-0.2,0-0.4,0-0.5c0-0.5,0-1,0.1-1.5H102.4z M97.3,342.1
		c0,0.5,0,0.9,0,1.3l-2.9,0c0-0.3,0-0.6,0-0.8c0-0.2,0-0.3,0-0.5H97.3z M94.5,341.8c0-0.5,0-0.9-0.1-1.3h3c0,0.4,0,0.9-0.1,1.3H94.5
		z M93.5,340.4c0,0.5,0.1,1,0.1,1.5c0,0.2,0,0.4,0,0.5h-4.2c0-0.2,0-0.4,0-0.5c0-0.5,0-1,0.1-1.5H93.5z M86.2,340.4h2.2
		c0,0.5,0,0.9-0.1,1.3h-2.2L86.2,340.4z M97.7,343.4c0-0.5,0-1,0-1.5c0-0.5,0-1,0.1-1.5H98c0,0.5-0.1,1-0.1,1.5c0,0.2,0,0.5,0,0.7
		c0,0.1,0.1,0.2,0.2,0.2h4.6c0.1,0,0.2-0.1,0.2-0.2c0-0.2,0-0.5,0-0.7c0-0.5,0-1-0.1-1.5h0.2c0,0.5,0,1,0.1,1.5c0,0.3,0,0.6,0,1
		l-1.5,0.5L97.7,343.4z M103.4,342.8c0-0.1,0-0.2,0-0.3c0-0.2,0-0.3,0-0.5h2.2l0,0L103.4,342.8z M86.3,342.1h2.1c0,0.2,0,0.5,0,0.7
		L86.3,342.1z"/>
	<path class="st1" d="M106.1,339.7v-4.3c0-0.1-0.1-0.2-0.2-0.2H86c-0.1,0-0.2,0.1-0.2,0.2v4.3c0,0.1,0.1,0.2,0.2,0.2h19.9
		C106,339.8,106.1,339.8,106.1,339.7z M89.5,339.5c0.1-0.2,0.2-0.4,0.5-0.5c1-0.1,2-0.1,3,0c0.2,0,0.4,0.2,0.5,0.5H89.5z M93,338.7
		c-1-0.1-2-0.1-3.1,0c-0.4,0.1-0.7,0.4-0.8,0.8h-0.2c0.1-0.5,0.5-1,1-1c1-0.1,2.1-0.1,3.1,0c0.5,0.1,0.9,0.5,1,1h-0.2
		C93.7,339.1,93.4,338.8,93,338.7z M98.4,339.5c0.1-0.2,0.2-0.4,0.5-0.5c1-0.1,2-0.1,3,0c0.2,0,0.4,0.2,0.5,0.5H98.4z M101.9,338.7
		c-1-0.1-2-0.1-3.1,0c-0.4,0.1-0.7,0.4-0.8,0.8h-0.2c0.1-0.5,0.5-1,1-1c1-0.1,2.1-0.1,3.1,0c0.5,0.1,0.9,0.5,1,1h-0.2
		C102.6,339.1,102.3,338.8,101.9,338.7z M86.2,337.6l0-2h19.2l0.1,4h-2.3c-0.1-0.7-0.6-1.3-1.3-1.4c-1.1-0.1-2.1-0.1-3.2,0
		c-0.7,0.1-1.2,0.7-1.3,1.4h-3.1c-0.1-0.7-0.6-1.3-1.3-1.4c-1.1-0.1-2.1-0.1-3.2,0c-0.7,0.1-1.2,0.7-1.3,1.4h-2.3L86.2,337.6z"/>
	<path class="st1" d="M101.6,334.9v-1.2c0-0.3-0.2-0.5-0.5-0.5H90.8c-0.3,0-0.5,0.2-0.5,0.5v1.2c0,0.1,0.1,0.2,0.2,0.2h11.1
		C101.6,335,101.6,334.9,101.6,334.9z M90.6,334.7v-1.1c0-0.1,0.1-0.2,0.2-0.2h10.4c0.1,0,0.2,0.1,0.2,0.2v1.1H90.6z"/>
	<path class="st1" d="M94.4,311v3.5c0,0.1,0.1,0.2,0.2,0.2h2.7c0.1,0,0.2-0.1,0.2-0.2V311c0-0.1-0.1-0.2-0.2-0.2h-2.7
		C94.5,310.8,94.4,310.9,94.4,311z M97.1,311.2v3.1h-2.4v-3.1H97.1z"/>
	<path class="st1" d="M93.4,307.6v0.5v1.1c0,0.4,0.2,0.7,0.5,0.8l0.2,0.1c1.1,0.5,2.4,0.5,3.5,0l0.2-0.1c0.3-0.1,0.5-0.5,0.5-0.8
		v-1.1v-0.5c0-0.4-0.2-0.7-0.5-0.8c-0.6-0.3-1.3-0.4-2-0.4c-0.7,0-1.3,0.1-2,0.4C93.6,306.9,93.4,307.2,93.4,307.6z M98.1,309.1
		c0,0.2-0.1,0.4-0.3,0.5l-0.2,0.1c-1,0.4-2.2,0.4-3.2,0l-0.2-0.1c-0.2-0.1-0.3-0.3-0.3-0.5v-1.1c0-0.2,0.1-0.4,0.3-0.5
		c0.6-0.2,1.2-0.4,1.8-0.4c0.6,0,1.3,0.1,1.8,0.4c0.2,0.1,0.3,0.3,0.3,0.5V309.1z M97.8,307.1c0.1,0.1,0.2,0.2,0.3,0.3
		c0,0-0.1-0.1-0.1-0.1c-0.6-0.3-1.3-0.4-2-0.4c-0.7,0-1.3,0.1-2,0.4c-0.1,0-0.1,0.1-0.2,0.1c0.1-0.1,0.1-0.2,0.3-0.3
		c0.6-0.2,1.2-0.4,1.8-0.4C96.6,306.7,97.2,306.8,97.8,307.1z"/>
	<path class="st1" d="M97.4,329.3v-3.4c0-0.3-0.2-0.5-0.5-0.5H95c-0.3,0-0.5,0.2-0.5,0.5v3.4c0,0.3,0.2,0.5,0.5,0.5h1.9
		C97.2,329.8,97.4,329.6,97.4,329.3z M95,329.5c-0.1,0-0.2-0.1-0.2-0.2v-3.4c0-0.1,0.1-0.2,0.2-0.2h1.9c0.1,0,0.2,0.1,0.2,0.2v3.4
		c0,0.1-0.1,0.2-0.2,0.2H95z"/>
</g>
</svg>
