<?xml version="1.0" encoding="utf-8"?>
<!-- Generator: Adobe Illustrator 24.2.1, SVG Export Plug-In . SVG Version: 6.00 Build 0)  -->
<svg version="1.1" id="레이어_1" xmlns="http://www.w3.org/2000/svg" xmlns:xlink="http://www.w3.org/1999/xlink" x="0px"
	 y="0px" width="24px" height="24px" viewBox="0 0 24 24" style="enable-background:new 0 0 24 24;" xml:space="preserve">
<style type="text/css">
	.st0{fill:#9CB5D3;}
	.st1{fill:none;stroke:#9CB5D3;stroke-linecap:round;stroke-linejoin:round;stroke-miterlimit:10;}
</style>
<g>
	<path class="st0" d="M12,16.5c-0.5,0-0.9-0.4-0.9-0.9s0.4-0.9,0.9-0.9s0.9,0.4,0.9,0.9C12.9,16,12.5,16.5,12,16.5z"/>
	<path class="st0" d="M12.5,13.6h-1l-0.4-6.2c0-0.5,0.4-0.9,0.9-0.9s0.9,0.4,0.9,0.9L12.5,13.6z"/>
</g>
<path class="st1" d="M12,1.5C6.2,1.5,1.5,6.2,1.5,12c0,2,0.5,3.8,1.5,5.4l-1.3,5l5-1.3C8.2,22,10,22.5,12,22.5
	c5.8,0,10.5-4.7,10.5-10.5S17.8,1.5,12,1.5z"/>
</svg>
