<?xml version="1.0" encoding="utf-8"?>
<!-- Generator: Adobe Illustrator 24.2.1, SVG Export Plug-In . SVG Version: 6.00 Build 0)  -->
<svg version="1.1" id="레이어_1" xmlns="http://www.w3.org/2000/svg" xmlns:xlink="http://www.w3.org/1999/xlink" x="0px"
	 y="0px" width="24px" height="24px" viewBox="0 0 24 24" style="enable-background:new 0 0 24 24;" xml:space="preserve">
<style type="text/css">
	.st0{fill:none;stroke:#9CB5D3;stroke-linecap:round;stroke-linejoin:round;stroke-miterlimit:10;}
	.st1{fill:#9CB5D3;}
</style>
<g>
	<circle class="st0" cx="9.5" cy="9.5" r="8.8"/>
	<path class="st0" d="M20.8,22.8l-4.1-4.1c-0.6-0.6-0.6-1.5,0-2.1l0,0c0.6-0.6,1.5-0.6,2.1,0l4.1,4.1c0.6,0.6,0.6,1.5,0,2.1l0,0
		C22.3,23.4,21.3,23.4,20.8,22.8z"/>
	<line class="st0" x1="16.6" y1="16.6" x2="15.7" y2="15.7"/>
</g>
<g>
	<path class="st1" d="M9.5,14.4c-0.5,0-0.9-0.4-0.9-0.9s0.4-0.9,0.9-0.9s0.9,0.4,0.9,0.9C10.4,13.9,10,14.4,9.5,14.4z"/>
	<path class="st1" d="M10,11.5H9L8.6,5.3c0-0.5,0.4-0.9,0.9-0.9s0.9,0.4,0.9,0.9L10,11.5z"/>
</g>
</svg>
