<?xml version="1.0" encoding="utf-8"?>
<!-- Generator: Adobe Illustrator 24.2.1, SVG Export Plug-In . SVG Version: 6.00 Build 0)  -->
<svg version="1.1" id="레이어_1" xmlns="http://www.w3.org/2000/svg" xmlns:xlink="http://www.w3.org/1999/xlink" x="0px"
	 y="0px" width="16px" height="16px" viewBox="0 0 16 16" style="enable-background:new 0 0 16 16;" xml:space="preserve">
<style type="text/css">
	.st0{fill:#333333;}
</style>
<g id="iocn_1_">
	<g>
		<path class="st0" d="M13.9,16c0.9,0,1.6-0.7,1.6-1.6V2.9c0-0.9-0.7-1.6-1.6-1.6H2.2C1.4,1.3,0.6,2,0.6,2.9v11.5
			c0,0.9,0.7,1.6,1.6,1.6H13.9z M1.3,14.4V2.9c0-0.5,0.4-0.9,0.9-0.9h11.6c0.5,0,0.9,0.4,0.9,0.9v11.5c0,0.5-0.4,0.9-0.9,0.9H2.2
			C1.7,15.3,1.3,14.9,1.3,14.4z"/>
	</g>
	<g>
		<path class="st0" d="M5.3,2.9V0.3C5.3,0.1,5.1,0,4.9,0C4.8,0,4.6,0.1,4.6,0.3v2.6c0,0.2,0.1,0.3,0.3,0.3C5.1,3.3,5.3,3.1,5.3,2.9z
			"/>
	</g>
	<g>
		<path class="st0" d="M11.6,2.9V0.3c0-0.2-0.1-0.3-0.3-0.3c-0.2,0-0.3,0.1-0.3,0.3v2.6c0,0.2,0.1,0.3,0.3,0.3
			C11.4,3.3,11.6,3.1,11.6,2.9z"/>
	</g>
	<g>
		<rect x="1" y="4.5" class="st0" width="14.1" height="0.7"/>
	</g>
	<g>
		<path class="st0" d="M4,7.5c0-0.2-0.2-0.4-0.4-0.4c-0.2,0-0.4,0.2-0.4,0.4c0,0.2,0.2,0.4,0.4,0.4C3.8,7.8,4,7.7,4,7.5z"/>
	</g>
	<g>
		<path class="st0" d="M6.9,7.5c0-0.2-0.2-0.4-0.4-0.4c-0.2,0-0.4,0.2-0.4,0.4c0,0.2,0.2,0.4,0.4,0.4C6.8,7.8,6.9,7.7,6.9,7.5z"/>
	</g>
	<g>
		<path class="st0" d="M9.9,7.5c0-0.2-0.2-0.4-0.4-0.4c-0.2,0-0.4,0.2-0.4,0.4c0,0.2,0.2,0.4,0.4,0.4C9.7,7.8,9.9,7.7,9.9,7.5z"/>
	</g>
	<g>
		<path class="st0" d="M12.9,7.5c0-0.2-0.2-0.4-0.4-0.4c-0.2,0-0.4,0.2-0.4,0.4c0,0.2,0.2,0.4,0.4,0.4C12.7,7.8,12.9,7.7,12.9,7.5z"
			/>
	</g>
	<g>
		<path class="st0" d="M4,10.2C4,10,3.8,9.8,3.6,9.8c-0.2,0-0.4,0.2-0.4,0.4c0,0.2,0.2,0.4,0.4,0.4C3.8,10.6,4,10.4,4,10.2z"/>
	</g>
	<g>
		<path class="st0" d="M6.9,10.2c0-0.2-0.2-0.4-0.4-0.4c-0.2,0-0.4,0.2-0.4,0.4c0,0.2,0.2,0.4,0.4,0.4C6.8,10.6,6.9,10.4,6.9,10.2z"
			/>
	</g>
	<g>
		<path class="st0" d="M9.9,10.2c0-0.2-0.2-0.4-0.4-0.4c-0.2,0-0.4,0.2-0.4,0.4c0,0.2,0.2,0.4,0.4,0.4C9.7,10.6,9.9,10.4,9.9,10.2z"
			/>
	</g>
	<g>
		<path class="st0" d="M12.9,10.2c0-0.2-0.2-0.4-0.4-0.4c-0.2,0-0.4,0.2-0.4,0.4c0,0.2,0.2,0.4,0.4,0.4
			C12.7,10.6,12.9,10.4,12.9,10.2z"/>
	</g>
	<g>
		<path class="st0" d="M4,12.9c0-0.2-0.2-0.4-0.4-0.4c-0.2,0-0.4,0.2-0.4,0.4c0,0.2,0.2,0.4,0.4,0.4C3.8,13.3,4,13.1,4,12.9z"/>
	</g>
	<g>
		<path class="st0" d="M6.9,12.9c0-0.2-0.2-0.4-0.4-0.4c-0.2,0-0.4,0.2-0.4,0.4c0,0.2,0.2,0.4,0.4,0.4C6.8,13.3,6.9,13.1,6.9,12.9z"
			/>
	</g>
	<g>
		<path class="st0" d="M9.9,12.9c0-0.2-0.2-0.4-0.4-0.4c-0.2,0-0.4,0.2-0.4,0.4c0,0.2,0.2,0.4,0.4,0.4C9.7,13.3,9.9,13.1,9.9,12.9z"
			/>
	</g>
</g>
</svg>
