<?xml version="1.0" encoding="utf-8"?>
<!-- Generator: Adobe Illustrator 24.2.1, SVG Export Plug-In . SVG Version: 6.00 Build 0)  -->
<svg version="1.1" id="레이어_1" xmlns="http://www.w3.org/2000/svg" xmlns:xlink="http://www.w3.org/1999/xlink" x="0px"
	 y="0px" width="24px" height="24px" viewBox="0 0 24 24" style="enable-background:new 0 0 24 24;" xml:space="preserve">
<style type="text/css">
	.st0{fill:#FFFFFF;}
</style>
<g>
	<path class="st0" d="M8.3,7.5H4.1C5.7,4.7,8.7,2.9,12,2.9c4.4,0,8.2,3.2,9,7.5c0.1,0.4,0.5,0.8,0.9,0.8c0.1,0,0.1,0,0.2,0
		c0.5-0.1,0.8-0.6,0.7-1.1c-1-5.2-5.5-9-10.8-9C8.3,1.1,4.8,3,2.8,6V2H1l0,7.3h7.3V7.5z"/>
	<path class="st0" d="M15.7,14.8v1.8h4.3c-1.6,2.8-4.6,4.6-7.9,4.6c-4.4,0-8.2-3.2-9-7.5c-0.1-0.5-0.6-0.8-1.1-0.7
		c-0.5,0.1-0.8,0.6-0.7,1.1c1,5.2,5.5,9,10.8,9c3.7,0,7.2-1.9,9.2-4.9v4H23v-7.3H15.7z"/>
</g>
</svg>
