<?xml version="1.0" encoding="utf-8"?>
<!-- Generator: Adobe Illustrator 24.2.1, SVG Export Plug-In . SVG Version: 6.00 Build 0)  -->
<svg version="1.1" id="레이어_1" xmlns="http://www.w3.org/2000/svg" xmlns:xlink="http://www.w3.org/1999/xlink" x="0px"
	 y="0px" width="32px" height="22px" viewBox="0 0 32 22" style="enable-background:new 0 0 32 22;" xml:space="preserve">
<style type="text/css">
	.st0{fill:#2B72BA;}
	.st1{fill:#333333;}
	.st2{fill:#397CC0;}
</style>
<g>
	<path class="st0" d="M19.38,9.34h-1.85c-0.23,0-0.44,0.14-0.52,0.36l-0.88,2.24c-0.07,0.17-0.05,0.37,0.06,0.52
		c0.1,0.15,0.28,0.24,0.46,0.24h1.85c0.23,0,0.44-0.14,0.52-0.36l0.88-2.24c0.07-0.17,0.05-0.37-0.06-0.52
		C19.73,9.43,19.56,9.34,19.38,9.34z M18.12,11.58h-0.65l0.44-1.12h0.65L18.12,11.58z"/>
	<path class="st0" d="M23.56,9.34h-1.85c-0.23,0-0.44,0.14-0.52,0.36l-0.88,2.24c-0.07,0.17-0.05,0.37,0.06,0.52
		c0.1,0.15,0.28,0.24,0.46,0.24h1.85c0.23,0,0.44-0.14,0.52-0.36l0.88-2.24c0.07-0.17,0.05-0.37-0.06-0.52
		C23.92,9.43,23.74,9.34,23.56,9.34z M22.3,11.58h-0.65l0.44-1.12h0.65L22.3,11.58z"/>
	<path class="st1" d="M0.57,1.35c6.84,3.71,9.01,10.68,9.46,12.48H7.18c-0.31,0-0.56,0.27-0.56,0.58c0,1.11,0.34,2.19,1.02,3.2
		c0.17,0.26,0.52,0.33,0.78,0.16c0.26-0.17,0.33-0.52,0.15-0.78c0,0-0.01-0.01-0.01-0.01h19.8c-0.3,0.45-0.68,0.89-1.13,1.3
		c-0.23,0.21-0.25,0.56-0.04,0.79c0.11,0.12,0.26,0.18,0.42,0.18c0.13,0,0.27-0.05,0.38-0.15c1.52-1.38,2.33-3.01,2.33-4.7
		c0-0.31-0.25-0.58-0.56-0.58h-3.14V7.88c0-0.31-0.25-0.56-0.56-0.56H15.41c-0.26,0-0.49,0.16-0.55,0.42l-1.43,6.09h-2.24
		C10.87,12.48,8.82,4.54,1.1,0.36C0.83,0.21,0.49,0.32,0.34,0.59C0.2,0.86,0.3,1.2,0.57,1.35z M28.93,15.85H8.16
		c-0.06,0-0.11-0.01-0.16,0.01c-0.11-0.29-0.18-0.68-0.22-0.91h21.37C29.11,15.17,29.04,15.56,28.93,15.85z M15.85,8.44h9.63v5.39
		h-10.9L15.85,8.44z"/>
	<path class="st0" d="M0.53,2.83v15.26c0,0.31,0.25,0.56,0.56,0.56c0.31,0,0.56-0.25,0.56-0.56V2.83c0-0.31-0.25-0.56-0.56-0.56
		C0.78,2.27,0.53,2.52,0.53,2.83z"/>
	<path class="st2" d="M31.32,18.12c-1.31,0-1.99,0.71-2.6,1.34c-0.57,0.6-1.07,1.12-2.1,1.12c-1.04,0-1.53-0.52-2.1-1.12
		c-0.6-0.63-1.28-1.34-2.6-1.34c-1.31,0-1.99,0.71-2.6,1.34c-0.57,0.6-1.07,1.12-2.1,1.12c-1.04,0-1.53-0.52-2.1-1.12
		c-0.6-0.63-1.28-1.34-2.6-1.34s-1.99,0.71-2.6,1.34c-0.57,0.6-1.07,1.12-2.1,1.12s-1.53-0.52-2.1-1.12
		c-0.6-0.63-1.28-1.34-2.6-1.34c-0.22,0-0.41,0.25-0.41,0.56s0.18,0.56,0.41,0.56c1.04,0,1.53,0.52,2.1,1.12
		c0.6,0.63,1.28,1.34,2.6,1.34c1.31,0,1.99-0.71,2.6-1.34c0.57-0.6,1.07-1.12,2.1-1.12c1.04,0,1.53,0.52,2.1,1.12
		c0.6,0.63,1.28,1.34,2.6,1.34c1.31,0,1.99-0.71,2.6-1.34c0.57-0.6,1.07-1.12,2.1-1.12c1.04,0,1.53,0.52,2.1,1.12
		c0.6,0.63,1.28,1.34,2.6,1.34c1.31,0,1.99-0.71,2.6-1.34c0.57-0.6,1.07-1.12,2.1-1.12c0.22,0,0.41-0.25,0.41-0.56
		S31.54,18.12,31.32,18.12z"/>
</g>
</svg>
