<?xml version="1.0" encoding="utf-8"?>
<!-- Generator: Adobe Illustrator 22.1.0, SVG Export Plug-In . SVG Version: 6.00 Build 0)  -->
<svg version="1.1" id="레이어_1" xmlns="http://www.w3.org/2000/svg" xmlns:xlink="http://www.w3.org/1999/xlink" x="0px"
	 y="0px" width="24px" height="24px" viewBox="0 0 24 24" style="enable-background:new 0 0 24 24;" xml:space="preserve">
<style type="text/css">
	.st0{fill:none;stroke:#777677;stroke-width:0.8;stroke-miterlimit:10;}
	.st1{fill:none;stroke:#777677;stroke-width:0.8;stroke-linecap:round;stroke-miterlimit:10;}
</style>
<g>
	<path class="st0" d="M20,19.3H4c-1.1,0-2-0.9-2-2V7.8c0-1.1,0.9-2,2-2h16c1.1,0,2,0.9,2,2v9.5C22,18.4,21.1,19.3,20,19.3z"/>
	<path class="st0" d="M4.6,11.4c0-1.7,1.4-3,3-3c1.7,0,3,1.4,3.1,3.1c0,1.7-1.4,3-3,3C6,14.5,4.6,13.1,4.6,11.4z"/>
	<line class="st0" x1="9" y1="17.1" x2="9.8" y2="17.1"/>
	<line class="st0" x1="10.7" y1="17.1" x2="11.6" y2="17.1"/>
	<line class="st0" x1="12.4" y1="17.1" x2="13.3" y2="17.1"/>
	<line class="st0" x1="14.2" y1="17.1" x2="15" y2="17.1"/>
	<line class="st1" x1="11.1" y1="8" x2="8.5" y2="10.6"/>
	<line class="st1" x1="6.8" y1="12.3" x2="4.2" y2="14.9"/>
	<line class="st1" x1="11.1" y1="14.9" x2="8.5" y2="12.3"/>
	<line class="st1" x1="6.8" y1="10.6" x2="4.2" y2="8"/>
	<path class="st0" d="M13.3,11.4c0-1.7,1.4-3,3-3c1.7,0,3,1.4,3.1,3.1c0,1.7-1.4,3-3,3C14.7,14.5,13.3,13.1,13.3,11.4z"/>
	<line class="st1" x1="19.8" y1="8" x2="17.2" y2="10.6"/>
	<line class="st1" x1="15.5" y1="12.3" x2="12.9" y2="14.9"/>
	<line class="st1" x1="19.8" y1="14.9" x2="17.2" y2="12.3"/>
	<line class="st1" x1="15.5" y1="10.6" x2="12.9" y2="8"/>
</g>
</svg>
