<?xml version="1.0" encoding="utf-8"?>
<!-- Generator: Adobe Illustrator 22.1.0, SVG Export Plug-In . SVG Version: 6.00 Build 0)  -->
<svg version="1.1" id="레이어_1" xmlns="http://www.w3.org/2000/svg" xmlns:xlink="http://www.w3.org/1999/xlink" x="0px"
	 y="0px" width="24px" height="24px" viewBox="0 0 24 24" style="enable-background:new 0 0 24 24;" xml:space="preserve">
<style type="text/css">
	.st0{fill:#777777;stroke:#777777;stroke-width:0.2;stroke-miterlimit:10;}
</style>
<g id="레이어_2_1_">
</g>
<g>
	<path class="st0" d="M8.6,20c0.2-0.1,0.6-0.4,0.6-1.2c0-0.2,0-1.1,0.4-1.7c0.1-0.1,0-0.2-0.1-0.3c-0.1-0.1-0.2,0-0.3,0.1
		c-0.4,0.7-0.4,1.6-0.4,1.9c0,0.4-0.1,0.7-0.4,0.9c-0.3,0.1-0.6,0-0.9-0.2c-0.2-0.2-0.5-0.2-0.6-0.1c-0.1,0.1-0.2,0.4,0,0.8
		c0.2,0.4,0.8,0.7,1.4,0.7c0.1,0,0.2,0,0.3,0c0.4-0.1,1.2-0.4,1.5-1.8c0-0.1,0-0.2-0.2-0.2c-0.1,0-0.2,0-0.2,0.2
		c-0.2,0.8-0.6,1.4-1.2,1.5c-0.5,0.1-1.1-0.2-1.3-0.5c-0.1-0.1-0.1-0.1-0.1-0.2c0,0,0,0,0,0C7.6,20.1,8.1,20.2,8.6,20z"/>
	<path class="st0" d="M12.8,22.6c0.2,0.3,0.4,0.4,0.6,0.4c0,0,0.1,0,0.1,0c0.3-0.2,0.1-0.7,0.1-0.8c0-0.1-0.3-0.8,0-2
		c0.4-1.6,0.1-2.9-0.3-3.5c-0.1-0.1-0.2-0.1-0.3-0.1c-0.1,0.1-0.1,0.2-0.1,0.3c0.3,0.5,0.6,1.7,0.2,3.2c-0.3,1-0.2,1.8,0,2.3
		c0,0,0,0,0,0c0,0,0,0,0,0c-0.6-0.9-0.4-1.9-0.3-2.7c0-0.2,0.1-0.4,0.1-0.6c0-0.6-0.1-1-0.4-1.4c-0.2-0.2-0.3-0.3-0.5-0.3
		c-0.3,0-0.5,0.2-0.5,0.3c-0.2,0.3-0.4,0.7-0.4,1.4c0,0.2,0,0.4,0.1,0.6c0.1,0.8,0.2,1.8-0.3,2.7c0,0-0.1,0,0,0c0,0,0,0,0,0
		c0.2-0.4,0.3-1.3,0-2.3c-0.4-1.5-0.1-2.6,0.2-3.2c0.1-0.1,0-0.2-0.1-0.3c-0.1-0.1-0.2,0-0.3,0.1c-0.4,0.6-0.7,1.9-0.3,3.5
		c0.3,1.2,0,1.9,0,2c-0.1,0.2-0.3,0.7,0.1,0.8c0.2,0.1,0.5,0,0.7-0.4c0.7-1,0.5-2.2,0.4-3c0-0.2-0.1-0.4-0.1-0.6
		c0-0.6,0.2-0.9,0.3-1.1c0,0,0.1-0.1,0.1-0.1h0c0,0,0.1,0.1,0.1,0.1c0.2,0.3,0.3,0.7,0.3,1.1c0,0.1,0,0.3-0.1,0.6
		C12.3,20.4,12.1,21.5,12.8,22.6z"/>
	<path class="st0" d="M13.9,19c0.3,1.4,1.1,1.7,1.5,1.8c0.1,0,0.2,0,0.3,0c0.6,0,1.2-0.3,1.4-0.7c0.3-0.4,0.2-0.7,0-0.8
		c-0.1-0.1-0.3-0.2-0.6,0.1c-0.3,0.3-0.7,0.4-0.9,0.2c-0.2-0.1-0.4-0.4-0.4-0.9c0-0.4,0-1.3-0.4-1.9c-0.1-0.1-0.2-0.1-0.3-0.1
		c-0.1,0.1-0.1,0.2-0.1,0.3c0.4,0.6,0.4,1.4,0.4,1.7c0,0.8,0.4,1.1,0.6,1.2c0.4,0.2,0.9,0.1,1.4-0.3c0,0,0,0,0,0
		c0,0.1,0,0.1-0.1,0.2c-0.2,0.3-0.8,0.6-1.3,0.5c-0.6-0.1-1-0.6-1.2-1.5c0-0.1-0.1-0.2-0.2-0.2C14,18.8,13.9,18.9,13.9,19z"/>
	<path class="st0" d="M7.2,16c0.4-0.3,0.4-0.6,0.3-0.7C7.3,15,7,14.9,6.6,15.1c-0.5,0.2-0.7,0.7-0.7,1.2c0,0.6,0.4,1.1,1,1.4
		c0.2,0.1,0.5,0.2,0.8,0.2c0.3,0,0.6-0.1,0.9-0.2c0.1,0,0.2-0.2,0.1-0.3c0-0.1-0.2-0.2-0.3-0.1c-0.5,0.2-1,0.2-1.4,0
		c-0.5-0.2-0.7-0.6-0.7-1c0-0.3,0.2-0.7,0.5-0.8c0.1,0,0.1-0.1,0.2-0.1c0,0,0.1,0,0,0.1c0,0-0.1,0.1-0.1,0.1
		c-0.2,0.2-0.3,0.4-0.3,0.7c0,0.2,0.2,0.5,0.5,0.6C8,17.2,9,16.4,9.6,15.5c0.2-0.3,0-0.6-0.1-0.8l0,0c-0.1-0.1-0.1-0.4-0.1-0.6
		c0-0.2,0.1-0.4,0.3-0.5l0,0c0.2-0.2,0.5-0.4,0.4-0.7c0-0.2,0-0.3-0.1-0.6c0.4,0.1,0.8,0.3,1.2,0.6c0.3,0.2,0.5,0.3,0.8,0.3
		c0.3,0,0.6-0.1,0.8-0.3c0.3-0.2,0.7-0.5,1.2-0.6c0,0.2-0.1,0.4-0.1,0.6c0,0.3,0.2,0.6,0.4,0.7l0,0c0.1,0.1,0.2,0.3,0.3,0.5
		c0,0.2,0,0.4-0.1,0.5l0,0c-0.1,0.2-0.3,0.5-0.1,0.8c0.6,1,1.6,1.8,2.4,1.4c0.3-0.1,0.4-0.3,0.5-0.5c0-0.2,0-0.4-0.2-0.6
		c-0.1-0.1-0.1-0.2-0.1-0.2c0,0,0.2,0,0.4,0.2c0.2,0.2,0.2,0.5,0.2,0.8c-0.1,0.4-0.3,0.6-0.7,0.8c-0.4,0.2-0.9,0.2-1.4,0
		c-0.1,0-0.2,0-0.3,0.1c0,0.1,0,0.2,0.1,0.3c0.3,0.1,0.6,0.2,0.9,0.2c0.3,0,0.6-0.1,0.8-0.2c0.5-0.2,0.8-0.7,0.9-1.1
		c0.1-0.4,0-0.8-0.3-1.1c-0.2-0.3-0.5-0.4-0.8-0.4c-0.2,0-0.3,0.1-0.3,0.3c-0.1,0.2,0,0.4,0.2,0.6c0.1,0.1,0.1,0.2,0.1,0.2
		c0,0.1-0.1,0.2-0.2,0.2c-0.6,0.2-1.4-0.4-1.9-1.2c0-0.1,0-0.2,0.1-0.4l0,0c0.1-0.2,0.2-0.5,0.1-0.8c-0.1-0.3-0.2-0.6-0.4-0.7l0,0
		c-0.2-0.1-0.3-0.2-0.3-0.3c0-0.2,0.1-0.4,0.1-0.7c0,0,0-0.1,0.1-0.1c0,0,0,0,0.1,0c0.2,0,0.9-0.1,0.9-0.8c0-0.1,0-0.3,0-0.5
		c-0.1-1.1-0.2-2.1-0.3-3l1.8-1.8c0.2-0.2,0.3-0.4,0.3-0.7c0-0.3-0.1-0.5-0.4-0.6L13.1,2c-0.4-0.6-0.8-1-1.1-1c-0.3,0-0.7,0.3-1.1,1
		L7.2,4.8C7,4.9,6.8,5.1,6.8,5.4c0,0.3,0.1,0.5,0.3,0.7l1.8,1.8c-0.2,0.9-0.3,1.9-0.3,3c0,0.3,0,0.4,0,0.6c0,0.4,0.3,0.7,0.8,0.7
		c0.1,0,0.1,0,0.2,0c0.1,0,0.1,0.1,0.1,0.1c0,0.3,0.1,0.5,0.1,0.6c0,0.1-0.1,0.2-0.3,0.3l0,0C9.2,13.4,9,13.7,9,14
		c-0.1,0.3,0,0.6,0.1,0.8l0,0c0.1,0.2,0.2,0.3,0.1,0.4c-0.5,0.8-1.3,1.5-1.9,1.2c-0.1-0.1-0.2-0.1-0.2-0.2C7.1,16.2,7.1,16.1,7.2,16
		z M16.6,5.1c0.1,0.1,0.2,0.2,0.2,0.3c0,0.1,0,0.3-0.1,0.4L15,7.4c-0.4-1.9-0.9-3.4-1.4-4.5L16.6,5.1z M7.4,5.8
		C7.3,5.7,7.2,5.6,7.3,5.4c0-0.1,0.1-0.2,0.2-0.3l3-2.2C9.9,4,9.3,5.5,9,7.4L7.4,5.8z M9,11.5c0-0.1,0-0.3,0-0.6
		c0.2-3.4,0.9-5.7,1.5-7.1C11.2,2,11.9,1.4,12,1.4c0.2,0,0.8,0.6,1.6,2.4c0.6,1.4,1.3,3.7,1.5,7.1c0,0.2,0,0.3,0,0.4
		c0,0.3-0.2,0.4-0.5,0.4c-0.9,0.1-1.6,0.5-2,0.8c-0.4,0.3-0.8,0.3-1.1,0c-0.6-0.4-1.3-0.7-2.1-0.8C9,11.7,9,11.6,9,11.5z"/>
	<path class="st0" d="M9.9,14.4c0.1,0,0.2-0.1,0.2-0.2v0c0-0.1-0.1-0.2-0.2-0.2c-0.1,0-0.2,0.1-0.2,0.2v0
		C9.6,14.3,9.7,14.4,9.9,14.4z"/>
	<path class="st0" d="M14.4,14.2L14.4,14.2c0-0.2-0.1-0.3-0.2-0.3S14,14,14,14.1v0c0,0.1,0.1,0.2,0.2,0.2S14.4,14.3,14.4,14.2z"/>
</g>
</svg>
