<?xml version="1.0" encoding="utf-8"?>
<!-- Generator: Adobe Illustrator 22.1.0, SVG Export Plug-In . SVG Version: 6.00 Build 0)  -->
<svg version="1.1" id="레이어_1" xmlns="http://www.w3.org/2000/svg" xmlns:xlink="http://www.w3.org/1999/xlink" x="0px"
	 y="0px" width="24px" height="24px" viewBox="0 0 24 24" style="enable-background:new 0 0 24 24;" xml:space="preserve">
<style type="text/css">
	.st0{fill:none;stroke:#787777;stroke-width:0.7763;stroke-linecap:round;stroke-linejoin:round;stroke-miterlimit:10;}
	.st1{fill:#787777;}
</style>
<g id="레이어_2_1_">
</g>
<g>
	<path class="st0" d="M16.9,2.9c0,0-8.3-3.6-13,4.4c0,0-3.7,7.7,2.7,12.7s13.9,1.6,16-4.3c0,0-2.7,0.4-3.8,1.7c0,0-0.3-1.8-2.4-3.5
		c0,0,0.7,3.3-1.2,5c-1.9,1.7-3.7-0.2-3.7-0.2s-2-2.1,0.8-4.2c2.8-2.1,5.1-5.4,5-9.7c0,0-1.3-0.2-2.9,0.9
		C14.4,5.5,14.9,4.3,16.9,2.9z"/>
	<path class="st0" d="M7.3,6.1c0,0,0,6.2,7.4,6"/>
	<path class="st0" d="M4.9,5.8c0,0-2.2-0.8-2.3-2.4c0,0-3.4,6.1,1.5,13.7"/>
	<circle class="st1" cx="11.6" cy="4.6" r="0.7"/>
</g>
</svg>
