<?xml version="1.0" encoding="utf-8"?>
<!-- Generator: Adobe Illustrator 24.2.1, SVG Export Plug-In . SVG Version: 6.00 Build 0)  -->
<svg version="1.1" id="레이어_1" xmlns="http://www.w3.org/2000/svg" xmlns:xlink="http://www.w3.org/1999/xlink" x="0px"
	 y="0px" width="24px" height="24px" viewBox="0 0 24 24" style="enable-background:new 0 0 24 24;" xml:space="preserve">
<style type="text/css">
	.st0{display:none;}
	.st1{display:inline;}
	.st2{fill:none;stroke:#FFFFFF;stroke-width:0.6957;stroke-linecap:round;stroke-linejoin:round;stroke-miterlimit:10;}
	.st3{fill:none;stroke:#FFFFFF;stroke-width:0.6957;stroke-linejoin:round;stroke-miterlimit:10;}
	.st4{fill:#333333;stroke:#FFFFFF;stroke-miterlimit:10;}
	.st5{display:inline;fill:#555655;stroke:#FFFFFF;stroke-miterlimit:10;}
	.st6{fill:none;stroke:#FFFFFF;stroke-linejoin:round;stroke-miterlimit:10;}
	.st7{fill:none;stroke:#FFFFFF;stroke-miterlimit:10;}
</style>
<g id="레이어_1_1_">
	<g id="Layer_3" class="st0">
		<g class="st1">
			<path class="st2" d="M16.4,11.1c-0.9,0-1.4,0.3-1.4,0.3V9.3H6.3v9.4c0,0.4,0.3,0.7,0.7,0.7h7.3c0.4,0,0.7-0.3,0.7-0.7
				c0,0,0-0.6,0-1s3.5-2,3.5-4.2C18.5,12,17.8,11.1,16.4,11.1z"/>
			<path class="st2" d="M15,13.6c0-0.5,0.3-1.2,1-1.2c0.7,0,1,0.6,1,1c0,1-2.1,1.9-2.1,2.4"/>
			<path class="st3" d="M9.8,4.6C8.9,5.1,8.4,5.8,9.3,6.4s0.5,1.2-0.5,1.9"/>
			<path class="st3" d="M12.6,3.4C11.5,4.1,10.9,5,12,5.8s0.5,1.6-0.6,2.4"/>
		</g>
	</g>
	<g id="Layer_4" class="st0">
		<g class="st1">
			<path class="st3" d="M8.9,14.1c1.7,0,4.2,0,5.9,0"/>
			<path class="st3" d="M17.9,14.1H20c0,0,0-1.5,0-2.1c0-0.8-2.4-1.8-4.2-2.1c-1.4-1.3-2.5-2.1-3.9-2.1s-2.1,0-2.7,0
				c-1.4,0-2.3,1-3.8,2.1c-0.7,0-0.7,0-1.1,0C4,10.8,3.9,12.3,4.1,13s0.6,1.1,1.3,1.1c0.1,0,0.3,0,0.3,0"/>
			<polyline class="st3" points="14.8,10.3 14.1,10.6 8.6,10.6 7.5,9.6 			"/>
			<circle class="st3" cx="16.4" cy="13.9" r="1.6"/>
			<circle class="st3" cx="7.3" cy="13.9" r="1.6"/>
		</g>
	</g>
	<g id="Layer_5" class="st0">
		<g class="st1">
			<path class="st4" d="M16.7,8.5c0-2.7-2.2-4.9-4.9-4.9S6.9,5.8,6.9,8.5c0,1.1,0.4,2.2,1.1,3.1c-0.7,0.9-1.1,2-1.1,3.1
				c0,2.7,2.2,4.9,4.9,4.9s4.9-2.2,4.9-4.9c0-1.1-0.4-2.2-1.1-3.1C16.3,10.8,16.7,9.7,16.7,8.5z M16.3,14.8c0,2.5-2,4.5-4.5,4.5
				s-4.5-2-4.5-4.5c0-1.1,0.4-2.2,1.1-3c0.1-0.1,0.1-0.2,0-0.3c-0.7-0.8-1.1-1.9-1.1-3C7.3,6,9.3,4,11.8,4s4.5,2,4.5,4.5
				c0,1.1-0.4,2.2-1.1,3c-0.1,0.1-0.1,0.2,0,0.3C15.9,12.6,16.3,13.7,16.3,14.8z"/>
			<path class="st4" d="M12.9,5.1C12.9,5,13,5,13,4.9c0-0.3-0.3-0.6-0.3-0.6c-0.1-0.1-0.2-0.1-0.3,0s-0.1,0.2,0,0.3
				c0.1,0.1,0.2,0.2,0.2,0.3c0,0,0,0.1-0.1,0.1l0,0c-0.1,0-0.3,0-0.4-0.1l0,0c0-0.3-0.3-0.6-0.3-0.6c-0.1-0.1-0.2-0.1-0.3,0
				s-0.1,0.2,0,0.3c0.1,0.1,0.2,0.2,0.2,0.3l0,0c-0.2,0-0.3,0-0.4,0V4.8c0-0.3-0.3-0.6-0.3-0.6c-0.1-0.1-0.2-0.1-0.3,0
				s-0.1,0.2,0,0.3c0.1,0.1,0.2,0.2,0.2,0.3c0,0,0,0.1-0.1,0.1L10.7,5C9.4,5.6,8.4,6.9,8.4,8.4c0,1.9,1.5,3.4,3.4,3.4
				c0.1,0,0.3,0,0.4,0c-0.9,0.8-1.3,1.8-1.3,1.9c0,0.1,0,0.2,0.1,0.2c0,0,0,0,0.1,0s0.1,0,0.2-0.1c0,0,0.8-1.8,2.2-2.4l0,0
				c1.1-0.6,1.8-1.7,1.8-3C15.2,6.9,14.3,5.6,12.9,5.1z M11.8,11.5c-1.7,0-3-1.4-3-3.1c0-1.3,0.8-2.4,1.9-2.8C10.8,5.8,11,6,11,6
				h0.1c0.1,0,0.1,0,0.2-0.1c0.1-0.1,0-0.2-0.1-0.3C11.1,5.5,11,5.4,11,5.4c0.1,0,0.3-0.1,0.4-0.1c0,0,0,0,0,0.1
				c0,0.3,0.3,0.5,0.4,0.6h0.1c0.1,0,0.2,0,0.2,0c0.1-0.1,0-0.2-0.1-0.3c-0.1-0.1-0.2-0.2-0.2-0.3c0,0,0,0,0-0.1c0.1,0,0.3,0,0.4,0
				l0,0c0,0.3,0.3,0.5,0.4,0.6h0.1C12.9,6,12.9,6,13,6c0.1-0.1,0-0.2-0.1-0.3c-0.1,0-0.2-0.1-0.2-0.2C14,5.9,14.9,7,14.9,8.4
				C14.9,10.1,13.5,11.5,11.8,11.5z"/>
			<path class="st4" d="M11,7.5c0-0.1-0.1-0.2-0.2-0.2c-0.4,0-0.9,0.2-1,0.2S9.6,7.6,9.7,7.7c0,0.1,0.1,0.1,0.2,0.1c0,0,0,0,0.1,0
				c0,0,0.5-0.2,0.8-0.2C10.9,7.7,11,7.6,11,7.5z"/>
			<path class="st4" d="M13.8,7.5c0,0-0.6-0.2-1-0.2c-0.1,0-0.2,0.1-0.2,0.2s0.1,0.2,0.2,0.2c0.3,0,0.8,0.2,0.8,0.2s0,0,0.1,0
				s0.2-0.1,0.2-0.1C13.9,7.6,13.9,7.5,13.8,7.5z"/>
			<path class="st4" d="M13.1,8.5c-1.3,1-2.3,0.1-2.4,0c-0.1-0.1-0.2-0.1-0.3,0s-0.1,0.2,0,0.3c0,0,0.6,0.6,1.4,0.6
				c0.4,0,0.9-0.1,1.4-0.5c0.1-0.1,0.1-0.2,0-0.3C13.3,8.5,13.2,8.5,13.1,8.5z"/>
		</g>
	</g>
	<g id="Layer_6" class="st0">
		<path id="_x31_" class="st5" d="M19.9,7.2h-4.2c-0.1-0.8-0.8-1.3-1.5-1.3h-0.4c0-0.1,0-0.2,0-0.3C13.7,4.8,13,4,12.1,4
			s-1.6,0.8-1.6,1.7c0,0.1,0,0.1,0,0.2H10c-0.8,0-1.4,0.5-1.5,1.3H4.3c-0.4,0-0.9,0.3-0.9,0.7v11.2c0,0.4,0.4,0.9,0.9,0.9h15.6
			c0.4,0,0.8-0.5,0.8-0.9V7.9C20.6,7.5,20.3,7.2,19.9,7.2z M12.1,4.5c0.6,0,1.1,0.5,1.1,1.1s-0.5,1.1-1.1,1.1S11,6.2,11,5.6
			S11.4,4.5,12.1,4.5z M10,6.5h0.6c0.3,0.4,0.8,0.8,1.5,0.8s1.2-0.3,1.5-0.9l0,0h0.6c0.6,0,1,0.5,1,1c0,0.6-0.5,1-1,1H10
			c-0.6,0-1-0.5-1-1S9.4,6.5,10,6.5z M20.1,19.1c0,0.1-0.1,0.4-0.2,0.4H4.3c-0.1,0-0.3-0.2-0.3-0.4V7.9c0-0.1,0.2-0.2,0.3-0.2h4.2
			C8.6,8.4,9.2,9.1,10,9.1h4.1c0.8,0,1.4-0.6,1.5-1.3h4.2c0.1,0,0.2,0,0.2,0.2L20.1,19.1L20.1,19.1z M8.1,13.7
			c0.8,0,1.5-0.7,1.5-1.5s-0.7-1.5-1.5-1.5s-1.5,0.7-1.5,1.5S7.3,13.7,8.1,13.7z M8.1,11.3c0.5,0,0.9,0.4,0.9,0.9s-0.4,0.9-0.9,0.9
			s-0.9-0.4-0.9-0.9C7.1,11.7,7.6,11.3,8.1,11.3z M9.3,13.7c-0.1-0.1-0.3-0.1-0.5,0L8,14.2l-0.8-0.5c-0.1-0.1-0.4-0.1-0.5,0
			c-0.6,0.4-1,0.8-1,1.3v1.6c0,0.3,0.3,0.5,0.5,0.5h3.6c0.3,0,0.4-0.3,0.4-0.5V15C10.2,14.5,9.8,14,9.3,13.7z M9.7,16.6H6.3V15
			c0-0.3,0.3-0.6,0.7-0.9l1.1,0.7l1-0.7c0.3,0.2,0.6,0.5,0.6,0.9C9.7,15,9.7,16.6,9.7,16.6z M18.3,11.3h-5.5c-0.1,0-0.3,0.1-0.3,0.3
			c0,0.1,0.1,0.3,0.3,0.3h5.5c0.1,0,0.3-0.1,0.3-0.3S18.4,11.3,18.3,11.3z M18.3,13.2h-5.5c-0.1,0-0.3,0.1-0.3,0.3
			c0,0.1,0.1,0.3,0.3,0.3h5.5c0.1,0,0.3-0.1,0.3-0.3C18.6,13.3,18.4,13.2,18.3,13.2z M18.3,14.9h-5.5c-0.1,0-0.3,0.1-0.3,0.3
			c0,0.1,0.1,0.3,0.3,0.3h5.5c0.1,0,0.3-0.1,0.3-0.3S18.4,14.9,18.3,14.9z M15.7,16.8h-2.9c-0.1,0-0.3,0.1-0.3,0.3s0.1,0.3,0.3,0.3
			h2.9c0.1,0,0.3-0.1,0.3-0.3S15.8,16.8,15.7,16.8z"/>
	</g>
	<g>
		<path class="st6" d="M16.6,13.7c2.2-0.1,4-1.3,4.9-2.7c-0.2-2.9-3.4-4.9-7.5-4.9"/>
		<path class="st6" d="M21.5,11.1c1.2,1.3,0.2,5.8-2.2,6.6c-1.2,3.1-3.4,3-5.3,2.7c-0.6-0.6-0.7-1.2-0.9-1.8c0.4-1.3,1.6-2,2.7-2.2
			c-0.1-0.8,0.3-2.2,0.9-2.7c-1.3-0.3-2.2-1.1-2.6-1.8"/>
		<path class="st7" d="M13.1,18.6c-1.5-0.5-5-0.3-6.2,0.4c0.4,1.3,1.1,2,2.2,2.7c0.8,0,2.6-0.1,4.9-1.3"/>
		<path class="st6" d="M3.8,6.2C1.9,6.1,1.3,4.1,2.9,3.1C5.3,1.7,7,4.8,9.7,3.5C11,2.8,12.8,1.9,18,3.8"/>
		<path class="st6" d="M14,6.2c-1.5,0-8.7,0-10.2,0c0,2.6,1.6,5.8,5.7,5.8c0.7,0,3.5,0,4.4,0C15,10.5,15.2,7.8,14,6.2z"/>
		<line class="st6" x1="6.9" y1="8" x2="7.8" y2="8"/>
		<path class="st6" d="M15.7,16.4c0.7,0.7,1.6,1.7,3.5,1.3"/>
		<line class="st6" x1="15.3" y1="13.3" x2="13.5" y2="15.1"/>
		<line class="st6" x1="14" y1="12" x2="12.2" y2="13.7"/>
		<line class="st6" x1="11.7" y1="12" x2="10" y2="13.7"/>
	</g>
</g>
<g id="레이어_2_1_">
</g>
</svg>
