<?xml version="1.0" encoding="utf-8"?>
<!-- Generator: Adobe Illustrator 16.0.3, SVG Export Plug-In . SVG Version: 6.00 Build 0)  -->
<!DOCTYPE svg PUBLIC "-//W3C//DTD SVG 1.1//EN" "http://www.w3.org/Graphics/SVG/1.1/DTD/svg11.dtd">
<svg version="1.1" xmlns="http://www.w3.org/2000/svg" xmlns:xlink="http://www.w3.org/1999/xlink" x="0px" y="0px" width="16px"
	 height="16px" viewBox="0 0 16 16" enable-background="new 0 0 16 16" xml:space="preserve">
<g id="Layer_1">
	<path id="XMLID_432_" fill="#333333" stroke="#333333" stroke-width="0.75" stroke-miterlimit="10" d="M4.667,14.778
		c0.081,0.081,0.187,0.121,0.292,0.121s0.212-0.04,0.292-0.121l6.587-6.586C12,8.031,12,7.769,11.839,7.607L5.252,1.021
		c-0.161-0.162-0.424-0.162-0.585,0c-0.162,0.162-0.162,0.424,0,0.586L10.96,7.9l-6.293,6.292
		C4.505,14.355,4.505,14.617,4.667,14.778z"/>
</g>
<g id="Layer_2" display="none">
	<path id="XMLID_1_" display="inline" fill="#333333" stroke="#333333" stroke-width="0.75" stroke-miterlimit="10" d="
		M11.839,14.778c-0.081,0.081-0.187,0.121-0.293,0.121c-0.105,0-0.212-0.04-0.292-0.121L4.667,8.192
		c-0.161-0.162-0.161-0.424,0-0.585l6.587-6.586c0.161-0.162,0.424-0.162,0.585,0c0.162,0.162,0.162,0.424,0,0.586L5.546,7.9
		l6.293,6.292C12.001,14.355,12.001,14.617,11.839,14.778z"/>
</g>
</svg>
