<?xml version="1.0" encoding="utf-8"?>
<!-- Generator: Adobe Illustrator 24.2.1, SVG Export Plug-In . SVG Version: 6.00 Build 0)  -->
<svg version="1.1" id="레이어_1" xmlns="http://www.w3.org/2000/svg" xmlns:xlink="http://www.w3.org/1999/xlink" x="0px"
	 y="0px" width="16px" height="16px" viewBox="0 0 16 16" style="enable-background:new 0 0 16 16;" xml:space="preserve">
<style type="text/css">
	.st0{fill:#777777;stroke:#777777;stroke-width:0.25;stroke-miterlimit:10;}
</style>
<path id="XMLID_1_" class="st0" d="M6.74,13.22c1.62,0,3.09-0.59,4.23-1.58l3.96,3.96c0.1,0.1,0.21,0.15,0.34,0.15
	c0.13,0,0.24-0.05,0.34-0.15c0.18-0.18,0.18-0.49,0-0.68l-3.96-3.96c0.98-1.13,1.58-2.62,1.58-4.23c0-3.57-2.91-6.49-6.49-6.49
	c-3.58,0.01-6.49,2.92-6.49,6.5S3.16,13.22,6.74,13.22z M6.74,1.21c3.05,0,5.52,2.48,5.52,5.52c0,3.05-2.48,5.52-5.52,5.52
	c-3.05,0-5.52-2.48-5.52-5.52C1.21,3.69,3.69,1.21,6.74,1.21z"/>
</svg>
