<?xml version="1.0" encoding="utf-8"?>
<!-- Generator: Adobe Illustrator 24.2.1, SVG Export Plug-In . SVG Version: 6.00 Build 0)  -->
<svg version="1.1" id="레이어_1" xmlns="http://www.w3.org/2000/svg" xmlns:xlink="http://www.w3.org/1999/xlink" x="0px"
	 y="0px" width="16px" height="16px" viewBox="0 0 16 16" style="enable-background:new 0 0 16 16;" xml:space="preserve">
<style type="text/css">
	.st0{fill:#AFB1AF;}
</style>
<g>
	<g>
		<path class="st0" d="M12.1,8.3c0-1.9,1.6-2.8,1.6-2.9c-0.9-1.3-2.3-1.5-2.7-1.5C9.8,3.8,8.7,4.6,8.1,4.6C7.5,4.6,6.6,3.9,5.6,4
			C4.3,4,3.2,4.7,2.5,5.8c-1.3,2.3-0.3,5.7,1,7.6c0.6,0.9,1.4,1.9,2.4,1.9c1,0,1.3-0.6,2.5-0.6c1.1,0,1.5,0.6,2.5,0.6
			c1,0,1.7-0.9,2.3-1.8c0.7-1.1,1-2.1,1-2.1C14.1,11.3,12.1,10.5,12.1,8.3z"/>
		<path class="st0" d="M10.2,2.7c0.5-0.6,0.9-1.5,0.8-2.4c-0.8,0-1.7,0.5-2.2,1.1C8.3,2,7.9,2.9,8,3.8C8.8,3.8,9.7,3.3,10.2,2.7z"/>
	</g>
</g>
</svg>
