<?xml version="1.0" encoding="utf-8"?>
<!-- Generator: Adobe Illustrator 24.2.1, SVG Export Plug-In . SVG Version: 6.00 Build 0)  -->
<svg version="1.1" id="레이어_1" xmlns="http://www.w3.org/2000/svg" xmlns:xlink="http://www.w3.org/1999/xlink" x="0px"
	 y="0px" width="16px" height="16px" viewBox="0 0 16 16" style="enable-background:new 0 0 16 16;" xml:space="preserve">
<style type="text/css">
	.st0{fill:none;stroke:#999999;stroke-linejoin:round;stroke-miterlimit:10;}
</style>
<g>
	<path class="st0" d="M9,10.02c-0.45,0.37-0.9,0.7-1.5,0.77 M6.93,10.78c-0.19-0.03-0.39-0.08-0.6-0.15
		c-0.31-0.11-0.77-0.32-1.13-0.5 M11.64,9.12c-0.17-0.04-0.35-0.07-0.54-0.08c-0.68-0.05-1.2,0.27-1.61,0.58 M13.6,10.84
		c-0.03-0.05-0.06-0.11-0.09-0.17c-0.19-0.37-0.48-0.92-1.17-1.29"/>
	<polyline class="st0" points="1,7.98 1,14.72 5.2,13.28 10.45,14.63 15,12.93 15,4.04 10.45,5.53 8.35,4.83 	"/>
	<path class="st0" d="M4.15,9.73C3.36,7.1,1,6.55,1,4.13c0-1.7,1.51-3.15,3.15-3.15c1.64,0,3.15,1.45,3.15,3.15
		C7.3,6.55,4.94,7.1,4.15,9.73"/>
	<path class="st0" d="M4.15,3.08c-0.58,0-1.05,0.47-1.05,1.05c0,0.58,0.47,1.05,1.05,1.05c0.58,0,1.05-0.47,1.05-1.05
		C5.2,3.55,4.73,3.08,4.15,3.08z"/>
</g>
</svg>
