<?xml version="1.0" encoding="utf-8"?>
<!-- Generator: Adobe Illustrator 24.2.1, SVG Export Plug-In . SVG Version: 6.00 Build 0)  -->
<svg version="1.1" id="레이어_1" xmlns="http://www.w3.org/2000/svg" xmlns:xlink="http://www.w3.org/1999/xlink" x="0px"
	 y="0px" width="16px" height="16px" viewBox="0 0 16 16" style="enable-background:new 0 0 16 16;" xml:space="preserve">
<style type="text/css">
	.st0{fill:none;stroke:#F62459;stroke-width:1.5;stroke-miterlimit:10;}
	.st1{fill:#F62459;}
</style>
<path class="st0" d="M15,8c0,3.9-3.1,7-7,7c-3.9,0-7-3.1-7-7c0-3.9,3.1-7,7-7C11.9,1,15,4.1,15,8z"/>
<path class="st1" d="M8,13.1c-0.5,0-0.9-0.4-0.9-0.9c0-0.5,0.4-0.9,0.9-0.9s0.9,0.4,0.9,0.9C8.9,12.7,8.5,13.1,8,13.1z"/>
<path class="st1" d="M8.5,10.2h-1L7.1,4c0-0.5,0.4-0.9,0.9-0.9S8.9,3.5,8.9,4L8.5,10.2z"/>
</svg>
