<?xml version="1.0" encoding="utf-8"?>
<!-- Generator: Adobe Illustrator 24.2.1, SVG Export Plug-In . SVG Version: 6.00 Build 0)  -->
<svg version="1.1" id="레이어_1" xmlns="http://www.w3.org/2000/svg" xmlns:xlink="http://www.w3.org/1999/xlink" x="0px"
	 y="0px" width="16px" height="16px" viewBox="0 0 16 16" style="enable-background:new 0 0 16 16;" xml:space="preserve">
<style type="text/css">
	.st0{fill:#333333;}
</style>
<path class="st0" d="M14,4.2h-1.1l-2.7-2.7H5.7L3.1,4.2H2c-1.1,0-2,0.9-2,2v6c0,1.1,0.9,2,2,2h0.7c0.4,0,0.7-0.3,0.7-0.7
	S3,12.9,2.7,12.9H2c-0.4,0-0.7-0.3-0.7-0.7v-6c0-0.4,0.3-0.7,0.7-0.7h1.6l2.7-2.7h3.4l2.7,2.7H14c0.4,0,0.7,0.3,0.7,0.7v6
	c0,0.4-0.3,0.7-0.7,0.7h-0.7c-0.4,0-0.7,0.3-0.7,0.7s0.3,0.7,0.7,0.7H14c1.1,0,2-0.9,2-2v-6C16,5.1,15.1,4.2,14,4.2z M8,4.9
	C5.4,4.9,3.3,7,3.3,9.5s2.1,4.7,4.7,4.7s4.7-2.1,4.7-4.7S10.6,4.9,8,4.9z M8,12.9c-1.8,0-3.3-1.5-3.3-3.3S6.2,6.2,8,6.2
	c1.8,0,3.3,1.5,3.3,3.3S9.8,12.9,8,12.9z"/>
</svg>
