<?xml version="1.0" encoding="utf-8"?>
<!-- Generator: Adobe Illustrator 24.2.1, SVG Export Plug-In . SVG Version: 6.00 Build 0)  -->
<svg version="1.1" xmlns="http://www.w3.org/2000/svg" xmlns:xlink="http://www.w3.org/1999/xlink" x="0px" y="0px" width="36px"
	 height="36px" viewBox="0 0 36 36" style="enable-background:new 0 0 36 36;" xml:space="preserve">
<style type="text/css">
	.st0{fill:#C1DEFD;}
	.st1{fill:none;stroke:#0B8CC8;stroke-miterlimit:10;}
</style>
<g id="레이어_1">
</g>
<g id="레이어_3">
	<circle class="st0" cx="17.5" cy="18.8" r="11"/>
</g>
<g id="레이어_2">
	<polyline class="st1" points="20.4,21.3 17.5,18.4 17.5,12 	"/>
	<path class="st1" d="M6.8,19.1c0,5.9,4.8,10.7,10.7,10.7S28.2,25,28.2,19.1c0.1-2.9-0.9-6-3.1-8.2c-4.2-4.2-11-4.3-15.2-0.1
		l-1.8,1.8l1.5,1.5v0.7H2.5V7.7h0.7l1.9,1.9l1.8-1.8C12.8,2,22.3,2,28.1,7.9c3.1,3.1,4.5,6.9,4.4,11.2h0c0,8.3-6.7,15-15,15"/>
</g>
</svg>
