<?xml version="1.0" encoding="utf-8"?>
<!-- Generator: Adobe Illustrator 24.2.1, SVG Export Plug-In . SVG Version: 6.00 Build 0)  -->
<svg version="1.1" id="레이어_1" xmlns="http://www.w3.org/2000/svg" xmlns:xlink="http://www.w3.org/1999/xlink" x="0px"
	 y="0px" width="64px" height="64px" viewBox="0 0 64 64" style="enable-background:new 0 0 64 64;" xml:space="preserve">
<style type="text/css">
	.st0{fill:#3683D5;}
	.st1{fill:#7BB85A;}
</style>
<g>
	<g>
		<path class="st0" d="M13.3,47.9v1.4h2.5v-5.1H18v14.4h-2.1v-7.4h-2.5V55c0,2-1.7,3.7-3.8,3.7c-2.1,0-3.7-1.6-3.7-3.7v-7.1
			c0-2,1.7-3.7,3.7-3.7C11.6,44.2,13.3,45.9,13.3,47.9z M8,47.9V55c0,0.8,0.7,1.5,1.6,1.5c0.9,0,1.6-0.7,1.6-1.5v-7.1
			c0-0.9-0.7-1.5-1.6-1.5C8.7,46.4,8,47.1,8,47.9z"/>
		<path class="st0" d="M24.7,51.4v-1h-4.5v-6.1h2.1v1.3h7v-1.3h2.1v6.1h-4.5v1h5.5v1.8H19.3v-1.8H24.7z M31.5,54.2V56L31,58.7h-2.2
			l0.6-2.7h-9.4v-1.8H31.5z M29.3,48.6v-1.3h-7v1.3H29.3z"/>
		<path class="st0" d="M36.2,44.8v-1.1h2.1v1.1h2.8v1.6h-1.1c0.2,0.4,0.4,0.8,0.4,1.2v0.7c0,1.1-0.9,2.1-2.1,2.4v0.8h4.9v-7.4h2v3.4
			h1.6v2.1h-1.6v3.6H33.5v-1.8h2.7v-0.8c-1.2-0.4-2.1-1.3-2.1-2.4v-0.7c0-0.4,0.1-0.8,0.4-1.2h-1.1v-1.6H36.2z M42.7,54.2
			c1.5,0,2.7,0.7,2.7,2.2s-1.2,2.2-2.7,2.2h-6.2c-1.5,0-2.7-0.7-2.7-2.2s1.2-2.2,2.7-2.2H42.7z M38.6,48c0-0.7-0.6-1.1-1.3-1.1
			s-1.3,0.4-1.3,1.1v0.1c0,0.7,0.6,1.1,1.3,1.1s1.3-0.4,1.3-1.1V48z M36.5,56c-0.4,0-0.5,0.2-0.5,0.4s0.1,0.4,0.5,0.4h6.4
			c0.4,0,0.5-0.2,0.5-0.4S43.2,56,42.8,56H36.5z"/>
		<path class="st0" d="M51.8,51.4l2.4,7.2h-2.1l-1.4-4.1l-1.4,4.1h-2.3l4.3-12.2h-4.1v-2h6.3v2L51.8,51.4z M56.7,58.7h-2v-7.1H53v-2
			h1.7v-5.4h2V58.7z M59.8,58.7h-2V44.2h2V58.7z"/>
	</g>
	<g>
		<g>
			<path class="st1" d="M58,21.4l-1.8-1.2v-2l-7.6-5.9h-3.9l1-3.7c0,0,0.1,0,0.1,0c0.5,0,0.8-0.4,0.8-0.8c0-0.5-0.4-0.8-0.8-0.8
				c-0.5,0-0.8,0.4-0.8,0.8c0,0.1,0,0.3,0.1,0.4l-2.2,1.2l-2-2.3c0.2-0.2,0.3-0.4,0.3-0.6c0-0.5-0.4-0.8-0.8-0.8
				c-0.5,0-0.8,0.4-0.8,0.8c0,0.2,0.1,0.5,0.3,0.6l-2.1,2.3l-2.1-1.2c0.1-0.1,0.1-0.2,0.1-0.4c0-0.5-0.4-0.8-0.8-0.8
				c-0.5,0-0.8,0.4-0.8,0.8c0,0.5,0.4,0.8,0.8,0.8c0.1,0,0.1,0,0.2,0l1,3.7h-2.2v1.8h12.8v5.8c0,0-28.9-13.2-42.8-9.3
				c0,0-1.3,7.5,7.3,18.6c0,0-3.5,2.1-2.1,6.7h48.4c0,0,3.3-1.3,3.3-6.9v-3.7L58,24.3V21.4z M48.5,14.3l6.2,4.6v2.2
				c0,0,1.4,0.8,1.9,1.1c0.4,0.3-0.2,0.5-0.2,0.5l-1-0.4l-0.6,0v1l-6.3-2.7V14.3z M56.7,32.7H11.9c0,0,0.7-1.3,3.1-2.4
				c0,0,0.7-0.3,0.2-0.9c0,0-8.5-10.6-8.2-16.2c0,0,9.1-3.8,50.7,14.2C57.8,27.4,58,31.2,56.7,32.7z"/>
			<path class="st0" d="M58,21.4l-1.8-1.2v-2l-7.6-5.9h-3.9l1-3.7c0,0,0.1,0,0.1,0c0.5,0,0.8-0.4,0.8-0.8c0-0.5-0.4-0.8-0.8-0.8
				c-0.5,0-0.8,0.4-0.8,0.8c0,0.1,0,0.3,0.1,0.4l-2.2,1.2l-2-2.3c0.2-0.2,0.3-0.4,0.3-0.6c0-0.5-0.4-0.8-0.8-0.8
				c-0.5,0-0.8,0.4-0.8,0.8c0,0.2,0.1,0.5,0.3,0.6l-2.1,2.3l-2.1-1.2c0.1-0.1,0.1-0.2,0.1-0.4c0-0.5-0.4-0.8-0.8-0.8
				c-0.5,0-0.8,0.4-0.8,0.8c0,0.5,0.4,0.8,0.8,0.8c0.1,0,0.1,0,0.2,0l1,3.7h-2.2v1.8h12.8v5.8c0,0-28.9-13.2-42.8-9.3
				c0,0-1.3,7.5,7.3,18.6c0,0-3.5,2.1-2.1,6.7h48.4c0,0,3.3-1.3,3.3-6.9v-3.7L58,24.3V21.4z M48.5,14.3l6.2,4.6v2.2
				c0,0,1.4,0.8,1.9,1.1c0.4,0.3-0.2,0.5-0.2,0.5l-1-0.4l-0.6,0v1l-6.3-2.7V14.3z M56.7,32.7H11.9c0,0,0.7-1.3,3.1-2.4
				c0,0,0.7-0.3,0.2-0.9c0,0-8.5-10.6-8.2-16.2c0,0,9.1-3.8,50.7,14.2C57.8,27.4,58,31.2,56.7,32.7z"/>
		</g>
		<path class="st0" d="M17.3,17.9c-0.8,0-1.5,0.7-1.5,1.5c0,0.8,0.7,1.5,1.5,1.5c0.8,0,1.5-0.7,1.5-1.5
			C18.7,18.6,18.1,17.9,17.3,17.9z"/>
	</g>
</g>
</svg>
