<?xml version="1.0" encoding="utf-8"?>
<!-- Generator: Adobe Illustrator 24.2.1, SVG Export Plug-In . SVG Version: 6.00 Build 0)  -->
<svg version="1.1" id="레이어_1" xmlns="http://www.w3.org/2000/svg" xmlns:xlink="http://www.w3.org/1999/xlink" x="0px"
	 y="0px" width="285px" height="360px" viewBox="0 0 285 360" style="enable-background:new 0 0 285 360;" xml:space="preserve">
<style type="text/css">
	.st0{fill:#C0D9F1;}
</style>
<g>
	<g>
		<path class="st0" d="M234.36,109.72h-43.64v11.59c0,3.27-2.66,5.93-5.93,5.93h52.57C237.38,121.27,236.36,115.35,234.36,109.72z"
			/>
	</g>
	<g>
		<path class="st0" d="M237.29,165.49L237.29,165.49c-2.97-0.59-4.94-3.43-4.45-6.43l3.85-23.68c0.44-2.71,0.66-5.43,0.67-8.15
			h-52.57h-25.37c-2.24,0-4.05,1.82-4.05,4.05v19.91c0,2.24,1.82,4.05,4.05,4.05c3.27,0,5.93,2.66,5.93,5.93v7.07
			c0,3.27-2.66,5.93-5.93,5.93h-8.63v10.6h11.12c4.87,0,8.84,3.96,8.84,8.84c0,3.84,3.12,6.97,6.97,6.97h60.8l3.26-28.94
			C242.11,168.74,240.16,166.06,237.29,165.49z"/>
	</g>
	<g>
		<path class="st0" d="M143.42,223.24h-5.2h-27.24c-4.07,0-7.38-3.31-7.38-7.38c0-3.04-2.47-5.51-5.51-5.51H74.68
			c-0.34,2.63-1.1,5.18-2.27,7.56l-4.55,9.32c-1.23,2.51-4.27,3.54-6.77,2.29l-1.07-0.54c-1.67-0.83-3.66-0.68-5.17,0.41l0,0
			c-1.95,1.39-2.65,3.97-1.66,6.16l0.51,1.12c2.17,4.8,1.08,10.45-2.72,14.1l-3.68,3.54c-2.44,2.35-3.82,5.59-3.82,8.98v0.6h105.44
			v-35.13C148.93,225.72,146.45,223.24,143.42,223.24z"/>
	</g>
	<g>
		<path class="st0" d="M43.49,272.29c0,1.67,0.97,3.19,2.49,3.88c2.13,0.98,3.08,3.49,2.12,5.63l-2.91,6.48
			c-1.05,2.35-0.8,5.08,0.67,7.2c2.23,3.22,6.59,4.12,9.91,2.06l13.8-8.54c4.08-2.52,9.1-3.01,13.58-1.32l8.07,3.05
			c4.34,1.64,9.18,1.24,13.19-1.08l44.52-25.77H43.49V272.29z"/>
	</g>
	<path class="st0" d="M80.19,325.76v-1.79c0-1.08,0.87-1.95,1.95-1.95h3.94c0.73,0,1.39-0.4,1.73-1.05l3.53-6.75
		c0.31-0.59,0.89-0.98,1.55-1.04l16.36-1.49c0.56-0.05,1.11,0.14,1.51,0.52l7.98,7.5c0.91,0.86,0.79,2.33-0.24,3.04l-10.39,7.05
		c-3.22,2.19-7.22,2.92-11.01,2.01l-3.76-0.9c-0.46-0.11-0.93-0.16-1.4-0.14l-6.36,0.21C82.64,331.09,80.19,328.72,80.19,325.76z"/>
	<g>
		<path class="st0" d="M117.01,36.74h14.14c2.35,0,4.26,1.91,4.26,4.26v13.22c0,2.35-1.91,4.26-4.26,4.26
			c-1.32,0-2.39,1.07-2.39,2.39v7.5c0,1.32,1.07,2.39,2.39,2.39h11.64c2.35,0,4.26,1.91,4.26,4.26v24.08h37.74
			c3.27,0,5.93,2.66,5.93,5.93v2.81h42.93c-0.63-1.58-1.33-3.14-2.12-4.66L182.57,9.02c-0.82-1.58-2.46-2.57-4.24-2.57
			c-2.2,0-4.12,1.51-4.64,3.65l-0.82,3.35c-0.42,1.74-2.77,2.04-3.62,0.46h0c-0.64-1.21-2.3-1.39-3.19-0.36l-4.05,4.66
			c-0.75,0.86-1.16,1.96-1.16,3.1c0,2.77-2.36,4.94-5.12,4.72l-13.36-1.09c-1.67-0.14-3.12-1.21-3.74-2.77
			c-0.84-2.12-3.16-3.25-5.35-2.6l-18.67,5.54v9.24C114.62,35.67,115.69,36.74,117.01,36.74z"/>
	</g>
	<g>
		<path class="st0" d="M105.47,215.86c0,3.04,2.47,5.51,5.51,5.51h26.3v-27.76c0-4.87,3.96-8.84,8.84-8.84h2.81v-10.6h-14.45h-49.3
			v14.39c0,2.94-1.96,5.51-4.8,6.28c-2.62,0.71-4.52,2.98-4.77,5.68l-0.74,7.96h23.22C102.16,208.48,105.47,211.79,105.47,215.86z"
			/>
	</g>
	<g>
		<path class="st0" d="M122.73,105.46c0-3.5,2.84-6.34,6.34-6.34h16.11V75.03c0-1.32-1.07-2.39-2.39-2.39h-11.64
			c-2.35,0-4.26-1.91-4.26-4.26v-7.5c0-2.35,1.91-4.26,4.26-4.26c1.32,0,2.39-1.07,2.39-2.39V41.01c0-1.32-1.07-2.39-2.39-2.39
			h-14.14c-2.35,0-4.26-1.91-4.26-4.26v-8.69l-12.14,3.6c-4.15,1.23-6.52,5.61-5.27,9.76h0c0.68,2.25,0.3,4.69-1.01,6.63l-4.76,7.05
			c-2.1,3.11-6.47,3.66-9.27,1.16l0,0c-2.41-2.15-6.06-2.09-8.4,0.13l-7.12,6.76c-3.17,3.01-3.93,7.78-1.84,11.63l0.83,1.53
			c0.69,1.27,1.65,2.37,2.82,3.22l5.66,4.11c1.65,1.2,3.65,1.85,5.69,1.85c5.04,0,9.23,3.86,9.65,8.88l0.62,7.47
			c0.31,3.73-3.7,6.28-6.95,4.4c-1.84-1.06-4.17-0.74-5.65,0.79l-6.49,6.69h53.63V105.46z"/>
	</g>
	<g>
		<path class="st0" d="M133.54,144.36c0-2.46-2.01-4.47-4.47-4.47c-3.5,0-6.34-2.84-6.34-6.34v-20.34H67.29l-5.94,6.13
			c-2.39,2.46-2.86,6.21-1.16,9.19l24.13,42.29c0.27,0.47,0.47,0.96,0.61,1.48h48.61V144.36z"/>
	</g>
	<g>
		<path class="st0" d="M168.89,193.62c0-3.84-3.12-6.97-6.97-6.97h-12.06h-3.74c-3.84,0-6.97,3.12-6.97,6.97v27.76h4.26
			c4.07,0,7.38,3.31,7.38,7.38v34.12c1.93-0.8,4.15-0.7,6.01,0.33l0.45,0.25c2.64,1.45,5.92,1.04,8.11-1.03l4.47-4.21
			c3.13-2.95,8.16-2.37,10.55,1.21l0,0c1.73,2.59,4.97,3.72,7.94,2.75l6.61-2.16c4.39-1.43,7.22-5.7,6.83-10.31
			c-0.35-4.04,1.8-7.89,5.42-9.73l14.21-7.19c8.93-4.52,14.98-13.23,16.1-23.17l0.81-7.17h-60.59
			C172.85,202.45,168.89,198.49,168.89,193.62z"/>
	</g>
	<g>
		<path class="st0" d="M163.48,168.25v-7.07c0-2.24-1.82-4.05-4.05-4.05c-3.27,0-5.93-2.66-5.93-5.93v-19.91
			c0-3.27,2.66-5.93,5.93-5.93h25.37c2.24,0,4.05-1.82,4.05-4.05v-12.52v-3.74c0-2.24-1.82-4.05-4.05-4.05h-38.67h-17.05
			c-2.46,0-4.47,2.01-4.47,4.47v28.09c0,2.46,2.01,4.47,4.47,4.47c3.5,0,6.34,2.84,6.34,6.34v27.94h14.45h9.56
			C161.66,172.3,163.48,170.49,163.48,168.25z"/>
	</g>
</g>
</svg>
