<?xml version="1.0" encoding="utf-8"?>
<!-- Generator: Adobe Illustrator 24.2.1, SVG Export Plug-In . SVG Version: 6.00 Build 0)  -->
<svg version="1.1" xmlns="http://www.w3.org/2000/svg" xmlns:xlink="http://www.w3.org/1999/xlink" x="0px" y="0px" width="16px"
	 height="16px" viewBox="0 0 16 16" style="enable-background:new 0 0 16 16;" xml:space="preserve">
<style type="text/css">
	.st0{fill:#FFFFFF;}
	.st1{fill-rule:evenodd;clip-rule:evenodd;fill:#377DBC;}
</style>
<g id="레이어_1">
	<g>
		<g>
			<g>
				<path class="st0" d="M1.9,4.1V3.3c0-0.5,0.4-1,1-1h10.4c0.5,0,1,0.4,1,1v6.9c0,0.5-0.4,1-1,1h-1.2c-0.1,0-0.2,0.1-0.2,0.2v2.3
					c0,0.1-0.1,0.3-0.2,0.4c-0.1,0-0.1,0-0.2,0c-0.1,0-0.2,0-0.2-0.1L8,11.2c0,0-0.1,0-0.1,0h-5c-0.5,0-1-0.4-1-1V5.7 M2.9,3.1
					c-0.1,0-0.2,0.1-0.2,0.2v6.9c0,0.1,0.1,0.2,0.2,0.2h5.2c0.1,0,0.2,0,0.2,0.1l2.5,2.1c0,0,0.1,0,0.1,0c0,0,0.1,0,0.1,0
					c0.1,0,0.1-0.1,0.1-0.2v-1.7c0-0.2,0.2-0.4,0.4-0.4h1.7c0.1,0,0.2-0.1,0.2-0.2V3.3c0-0.1-0.1-0.2-0.2-0.2H2.9z"/>
			</g>
		</g>
		<g>
			<g>
				<path class="st0" d="M5.2,6C5,6,4.8,5.8,4.8,5.6c0-0.2,0.2-0.4,0.4-0.4h5.8c0.2,0,0.4,0.2,0.4,0.4c0,0.2-0.2,0.4-0.4,0.4H5.2z"
					/>
			</g>
		</g>
		<g>
			<g>
				<path class="st0" d="M5.2,8.3C5,8.3,4.8,8.1,4.8,7.9c0-0.2,0.2-0.4,0.4-0.4h5.8c0.2,0,0.4,0.2,0.4,0.4c0,0.2-0.2,0.4-0.4,0.4
					H5.2z"/>
			</g>
		</g>
		<g>
			<g>
				<path class="st0" d="M1.5,1.5"/>
			</g>
		</g>
	</g>
</g>
<g id="레이어_2">
	<path class="st1" d="M-12.4,7"/>
</g>
</svg>
