<?xml version="1.0" encoding="utf-8"?>
<!-- Generator: Adobe Illustrator 24.2.1, SVG Export Plug-In . SVG Version: 6.00 Build 0)  -->
<svg version="1.1" id="레이어_1" xmlns="http://www.w3.org/2000/svg" xmlns:xlink="http://www.w3.org/1999/xlink" x="0px"
	 y="0px" width="24px" height="24px" viewBox="0 0 24 24" style="enable-background:new 0 0 24 24;" xml:space="preserve">
<style type="text/css">
	.st0{fill:#FFFFFF;}
</style>
<g>
	<path class="st0" d="M18.3,5.5h-2.2v2.2c0,0.2-0.2,0.4-0.4,0.4c-0.2,0-0.4-0.2-0.4-0.4V5.5H13c-0.2,0-0.4-0.2-0.4-0.4
		s0.2-0.4,0.4-0.4h2.2V2.4c0-0.2,0.2-0.4,0.4-0.4c0.2,0,0.4,0.2,0.4,0.4v2.2h2.2c0.2,0,0.4,0.2,0.4,0.4S18.5,5.5,18.3,5.5z"/>
	<path class="st0" d="M1.6,3.7h2.2V1.5c0-0.2,0.2-0.4,0.4-0.4c0.2,0,0.4,0.2,0.4,0.4v2.2h2.2c0.2,0,0.4,0.2,0.4,0.4S7.1,4.6,6.8,4.6
		H4.6v2.2c0,0.2-0.2,0.4-0.4,0.4C4,7.2,3.8,7,3.8,6.8V4.6H1.6c-0.2,0-0.4-0.2-0.4-0.4S1.3,3.7,1.6,3.7z"/>
	<path class="st0" d="M3.3,14.3h2.2v-2.2c0-0.2,0.2-0.4,0.4-0.4c0.2,0,0.4,0.2,0.4,0.4v2.2h2.2c0.2,0,0.4,0.2,0.4,0.4
		s-0.2,0.4-0.4,0.4H6.4v2.2c0,0.2-0.2,0.4-0.4,0.4c-0.2,0-0.4-0.2-0.4-0.4v-2.2H3.3c-0.2,0-0.4-0.2-0.4-0.4S3.1,14.3,3.3,14.3z"/>
	<path class="st0" d="M6.5,8.2l1.8-1.8c0.2-0.2,0.5-0.2,0.6,0L23,20.6c0.2,0.2,0.2,0.5,0,0.6l-1.8,1.8c-0.1,0.1-0.2,0.1-0.3,0.1
		c-0.1,0-0.2,0-0.3-0.1L6.5,8.9C6.4,8.7,6.4,8.4,6.5,8.2z M10.4,11.4l1.1-1.1L8.6,7.4L7.5,8.5L10.4,11.4z"/>
</g>
</svg>
