<?xml version="1.0" encoding="utf-8"?>
<!-- Generator: Adobe Illustrator 16.0.3, SVG Export Plug-In . SVG Version: 6.00 Build 0)  -->
<!DOCTYPE svg PUBLIC "-//W3C//DTD SVG 1.1//EN" "http://www.w3.org/Graphics/SVG/1.1/DTD/svg11.dtd">
<svg version="1.1" xmlns="http://www.w3.org/2000/svg" xmlns:xlink="http://www.w3.org/1999/xlink" x="0px" y="0px" width="16px"
	 height="16px" viewBox="0 0 16 16" enable-background="new 0 0 16 16" xml:space="preserve">
<g id="Layer_1" display="none">
	<g display="inline" opacity="0.3">
		<rect x="10.968" y="1.641" fill="#414042" width="3.364" height="14"/>
		<rect x="2.699" y="1.641" fill="#414042" width="3.364" height="14"/>
	</g>
</g>
<g id="Layer_2" display="none">
	<g display="inline">
		<rect x="9.959" y="0.882" fill="#414042" width="3.364" height="14"/>
		<rect x="1.69" y="0.882" fill="#414042" width="3.364" height="14"/>
	</g>
</g>
<g id="Layer_2_copy" display="none">
	<g display="inline">
		<rect x="9.959" y="0.882" fill="#FFFFFF" width="3.364" height="14"/>
		<rect x="1.69" y="0.882" fill="#FFFFFF" width="3.364" height="14"/>
	</g>
</g>
<g id="Layer_5" display="none">
	<polygon display="inline" opacity="0.5" points="3.556,14.882 3.556,0.882 14.311,7.882 	"/>
</g>
<g id="Layer_4" display="none">
	<polygon display="inline" fill="#FFFFFF" points="2.622,14.882 2.622,0.882 13.377,7.882 	"/>
</g>
<g id="Layer_6">
	<g opacity="0.5">
		<polygon fill="#414042" points="4.618,14.882 4.617,11.452 1.188,11.452 1.188,9.212 6.856,9.213 6.857,14.882 		"/>
		<polygon fill="#414042" points="1.188,6.552 1.188,4.312 4.617,4.311 4.618,0.882 6.857,0.882 6.856,6.551 		"/>
		<polygon fill="#414042" points="15.188,6.552 9.519,6.551 9.518,0.882 11.758,0.882 11.758,4.311 15.188,4.312 		"/>
		<polygon fill="#414042" points="11.758,14.882 9.518,14.882 9.518,9.212 15.188,9.212 15.188,11.452 11.758,11.452 		"/>
	</g>
</g>
<g id="Layer_7">
	<g>
		<polygon fill="#FFFFFF" points="3.759,14.882 3.758,11.452 0.328,11.452 0.328,9.212 5.997,9.213 5.998,14.882 		"/>
		<polygon fill="#FFFFFF" points="0.328,6.552 0.328,4.312 3.758,4.311 3.759,0.882 5.998,0.882 5.997,6.551 		"/>
		<polygon fill="#FFFFFF" points="14.328,6.552 8.659,6.551 8.658,0.882 10.898,0.882 10.898,4.311 14.328,4.312 		"/>
		<polygon fill="#FFFFFF" points="10.898,14.882 8.658,14.882 8.658,9.212 14.328,9.212 14.328,11.452 10.898,11.452 		"/>
	</g>
</g>
</svg>
