<?xml version="1.0" encoding="utf-8"?>
<!-- Generator: Adobe Illustrator 22.1.0, SVG Export Plug-In . SVG Version: 6.00 Build 0)  -->
<svg version="1.1" id="레이어_1" xmlns="http://www.w3.org/2000/svg" xmlns:xlink="http://www.w3.org/1999/xlink" x="0px"
	 y="0px" width="36px" height="36px" viewBox="0 0 36 36" style="enable-background:new 0 0 36 36;" xml:space="preserve">
<style type="text/css">
	.st0{fill:#FCC800;}
	.st1{fill:#FFFFFF;}
</style>
<circle class="st0" cx="18" cy="18" r="18"/>
<path class="st1" d="M22.1,9.1h-8.3c-0.6,0-1,0.4-1,1v8.2c0,0.6,0.5,1,1,1h3.8c0,1-0.4,2-1,3c-0.7,1.1-2.1,2.2-2.1,2.2
	c-0.1,0.1-0.2,0.2-0.2,0.4c0,0.1,0.1,0.2,0.1,0.3l2.7,3c0,0,0.1,0.1,0.2,0.2c0.1,0,0.3,0,0.4,0c4.6-3.5,5.3-8,5.4-10.4
	c0,0,0-7.9,0-7.9C23.1,9.6,22.7,9.1,22.1,9.1"/>
</svg>
