<?xml version="1.0" encoding="utf-8"?>
<!-- Generator: Adobe Illustrator 22.1.0, SVG Export Plug-In . SVG Version: 6.00 Build 0)  -->
<svg version="1.1" id="레이어_1" xmlns="http://www.w3.org/2000/svg" xmlns:xlink="http://www.w3.org/1999/xlink" x="0px"
	 y="0px" width="36px" height="36px" viewBox="0 0 36 36" style="enable-background:new 0 0 36 36;" xml:space="preserve">
<style type="text/css">
	.st0{fill:#FFF100;}
	.st1{fill:#452C32;}
	.st2{fill:#CABBB2;}
</style>
<circle class="st0" cx="18" cy="18" r="18"/>
<g>
	<g>
		<g>
			<g>
				<path class="st1" d="M16.3,24.5c0,0,1.1,0.1,1.7,0.1c5.5,0,10-3.5,10-7.9c0-4.4-4.5-7.9-10-7.9c-5.5,0-10,3.5-10,7.9
					c0,2.7,1.7,5.1,4.3,6.5c0,0-0.4,1.9-2.3,3.7c0,0-0.2,0.3,0.4,0.2C11,27,14.7,25.7,16.3,24.5z"/>
			</g>
		</g>
	</g>
	<path class="st0" d="M13.7,14.6h-3c-0.3,0-0.5,0.2-0.5,0.5c0,0.3,0.2,0.5,0.5,0.5h1v3.6c0,0.1,0.1,0.3,0.1,0.4
		c0.1,0.1,0.2,0.1,0.3,0.1h0.1c0.1,0,0.3-0.1,0.3-0.1c0.1-0.1,0.1-0.2,0.1-0.4v-3.6h0.9c0.3,0,0.5-0.2,0.5-0.5
		C14.2,14.8,13.9,14.6,13.7,14.6z"/>
	<path class="st0" d="M20.8,18.7h-1.4v-3.7c0-0.3-0.2-0.6-0.6-0.6c-0.3,0-0.6,0.2-0.6,0.6V19c0,0,0,0.1,0,0.1c0,0,0,0.1,0,0.1
		c0,0.3,0.2,0.5,0.5,0.5h2c0.3,0,0.5-0.2,0.5-0.5C21.3,18.9,21.1,18.7,20.8,18.7z"/>
	<path class="st0" d="M25.3,18.9l-1.5-2l1.4-1.4c0.2-0.2,0.2-0.5,0-0.7c-0.2-0.2-0.5-0.2-0.7,0l-1.7,1.7v-1.4c0-0.3-0.2-0.6-0.6-0.6
		c-0.3,0-0.6,0.2-0.6,0.6v4.1c0,0.3,0.2,0.6,0.6,0.6c0.3,0,0.6-0.2,0.6-0.6v-1.3l0.3-0.3l1.5,1.9c0.2,0.2,0.5,0.3,0.7,0.1
		C25.4,19.4,25.4,19.1,25.3,18.9z"/>
	<path class="st0" d="M17.9,19L16.4,15c0,0,0,0,0,0c-0.1-0.2-0.4-0.4-0.7-0.4c-0.4,0-0.7,0.2-0.7,0.5c0,0,0,0,0,0.1L13.5,19
		c-0.1,0.3,0,0.5,0.3,0.6c0.3,0.1,0.5,0,0.6-0.3l0.3-0.7h2l0.3,0.7c0.1,0.3,0.4,0.4,0.6,0.3C17.9,19.6,18,19.3,17.9,19z M15,17.7
		l0.7-2c0,0,0,0,0,0l0.7,2H15z"/>
	<polygon class="st2" points="16.4,12.2 16,12.2 15.6,12.8 15.6,12.2 15.3,12.2 15.3,13.5 15.6,13.5 15.6,12.9 16,13.5 16.4,13.5 
		16,12.8 	"/>
	<polygon class="st2" points="18.8,12.2 18.4,12.2 18,12.8 18,12.2 17.7,12.2 17.7,13.5 18,13.5 18,12.9 18.4,13.5 18.8,13.5 
		18.4,12.8 	"/>
	<path class="st2" d="M17.2,13.5h0.3l-0.2-1c0,0-0.1-0.3-0.4-0.3c-0.3,0-0.4,0.3-0.4,0.3l-0.2,1h0.3l0-0.3h0.3L17.2,13.5z M16.8,13
		l0.1-0.5c0.1-0.1,0.2,0,0.2,0l0.1,0.5H16.8z"/>
	<path class="st2" d="M19.6,13.5h0.3l-0.2-1c0,0-0.1-0.3-0.4-0.3c-0.3,0-0.4,0.3-0.4,0.3l-0.2,1h0.3l0-0.3h0.3L19.6,13.5z M19.2,13
		l0.1-0.5c0.1-0.1,0.2,0,0.2,0l0.1,0.5H19.2z"/>
	<path class="st2" d="M21,12.6c0,0-0.1-0.4-0.5-0.4c-0.5,0-0.5,0.4-0.5,0.4v0.6l0,0l0,0c0,0,0,0.4,0.5,0.4c0.5,0,0.5-0.4,0.5-0.4
		l0,0l0,0V12.6z M20.5,13.2c-0.2,0-0.2-0.1-0.2-0.1v-0.5c0,0,0-0.1,0.2-0.1c0.2,0,0.2,0.1,0.2,0.1v0.5
		C20.7,13.1,20.7,13.2,20.5,13.2z"/>
</g>
</svg>
