<?xml version="1.0" encoding="utf-8"?>
<!-- Generator: Adobe Illustrator 24.1.3, SVG Export Plug-In . SVG Version: 6.00 Build 0)  -->
<svg version="1.1" id="Layer_1" xmlns="http://www.w3.org/2000/svg" xmlns:xlink="http://www.w3.org/1999/xlink" x="0px" y="0px"
	 width="36px" height="36px" viewBox="0 0 36 36" style="enable-background:new 0 0 36 36;" xml:space="preserve">
<style type="text/css">
	.st0{fill:none;stroke:#00A1BA;stroke-width:1.44;stroke-linecap:round;stroke-linejoin:round;stroke-miterlimit:22.9256;}
</style>
<g>
	<line class="st0" x1="10" y1="25.3" x2="5.7" y2="32.8"/>
	<path class="st0" d="M16.1,21.9c12.4,0,9.5,0,11.3,0c4.1,0,7.5-3.1,7.5-6.9c0-3.8-3.4-6.9-7.5-6.9c-0.5,0-1,0-1.5,0.1
		C24.6,5,21.1,2.7,17,2.7c-5.3,0-9.6,3.9-9.6,8.8l0,0.1c-0.1,0-0.2,0-0.4,0c-3.1,0-5.6,2.3-5.6,5.2c0,2.8,2.5,5.2,5.6,5.2
		C8.3,21.9,9.5,21.9,16.1,21.9L16.1,21.9z"/>
	<line class="st0" x1="15.2" y1="25.5" x2="11" y2="32.7"/>
	<line class="st0" x1="20.3" y1="25.5" x2="16.2" y2="32.7"/>
	<line class="st0" x1="25.4" y1="25.5" x2="21.3" y2="32.7"/>
</g>
</svg>
