<?xml version="1.0" encoding="utf-8"?>
<!-- Generator: Adobe Illustrator 22.1.0, SVG Export Plug-In . SVG Version: 6.00 Build 0)  -->
<svg version="1.1" id="레이어_1" xmlns="http://www.w3.org/2000/svg" xmlns:xlink="http://www.w3.org/1999/xlink" x="0px"
	 y="0px" width="24px" height="24px" viewBox="0 0 24 24" style="enable-background:new 0 0 24 24;" xml:space="preserve">
<style type="text/css">
	.st0{fill:none;stroke:#777777;stroke-width:1;stroke-linejoin:round;stroke-miterlimit:10;}
</style>
<g id="레이어_2_1_">
</g>
<g>
	<path class="st0" d="M16.9,14.2c-0.6,1-0.3,3.1,1.1,5.3c-2.5-1.1-4.4-2.1-5.1-3.2"/>
	<path class="st0" d="M4.6,8.6c0.2-1.5,0.9-3.2,2.1-4.1C8.1,6,10,6.4,11,6.6c-0.4,0.5-0.6,1-0.5,1.7"/>
	<path class="st0" d="M12.5,8.7C13,8.1,14,6.2,18.1,5.5c-0.8,1.1-2.1,3.2-1.9,4.6"/>
	<path class="st0" d="M7.1,16c0-0.2,1-1.6,2.2-1.5c1,1.4,3,4,3.3,4.5C9.5,19,7.2,17,7.1,16z"/>
	<path class="st0" d="M7.8,17.2c-2.2-0.2-5.3-0.9-6.9-3.4c-0.8-1.4-0.3-2.2,0.1-2.6C1.3,11,4.4,7.9,7,7.9c5.8,0,10.6,2.7,11.4,3.2
		c1-2.6,4.3-4.2,5.1-4.4c-1,2.3-2.5,5.4-2.5,5.7c0,0.3,1.1,2.7,2.5,5.1c-2.2-0.5-4.1-2-5.3-4.1c-2.2,1.3-4.7,2.9-7.2,3.6"/>
	<line class="st0" x1="6" y1="12.5" x2="5" y2="12.5"/>
	<path class="st0" d="M16.8,11.9c-1.9-0.5-6.8-1.4-9.6-0.5l0,0c-0.4-0.6-1-1-1.7-1c-1.1,0-2,0.9-2,2c-0.6,0-1.1-0.1-1.5-0.2"/>
</g>
</svg>
