<?xml version="1.0" encoding="utf-8"?>
<!-- Generator: Adobe Illustrator 22.1.0, SVG Export Plug-In . SVG Version: 6.00 Build 0)  -->
<svg version="1.1" id="레이어_1" xmlns="http://www.w3.org/2000/svg" xmlns:xlink="http://www.w3.org/1999/xlink" x="0px"
	 y="0px" width="24px" height="24px" viewBox="0 0 24 24" style="enable-background:new 0 0 24 24;" xml:space="preserve">
<style type="text/css">
	.st0{fill:#777777;stroke:#777777;stroke-width:0.2;stroke-miterlimit:10;}
</style>
<g>
	<path class="st0" d="M1,10.2c0,0.1,0,0.2,0,0.2c0.1,0.2,0.2,0.3,0.4,0.5c0.3,0.4,0.3,0.5,0.4,0.9c0,0.1,0,0.2,0.1,0.3
		c0,0.2,0.1,0.3,0.1,0.5l-0.6,0.8c-0.1,0.1-0.1,0.2,0,0.3c0.1,0.1,0.2,0.1,0.3,0.1c0,0,0,0,0,0l0.9-0.1c0.3,0.5,0.7,0.9,1.1,1.3
		L3.5,16c0,0.1,0,0.3,0.1,0.3c0,0,0.1,0,0.2,0c0.1,0,0.1,0,0.2-0.1l0.8-0.5C5.1,16,5.6,16.1,6,16.3l0.3,0.9c0,0.1,0.1,0.2,0.3,0.2
		c0,0,0,0,0,0c0.1,0,0.2-0.1,0.3-0.2l0.5-0.8c0.2,0,0.4,0,0.7,0c0.4,0,0.8,0,1.2-0.1l0.6,0.7c0.1,0.1,0.2,0.1,0.3,0.1c0,0,0,0,0.1,0
		c0.1,0,0.2-0.1,0.2-0.3l0.2-0.9c0.6-0.2,1.2-0.5,1.7-0.9l0.8,0.3c0.1,0,0.1,0,0.1,0c0.1,0,0.1,0,0.2-0.1c0.1-0.1,0.1-0.2,0.1-0.3
		l-0.3-0.7c0.1-0.2,0.3-0.3,0.4-0.5c0,0,0,0,0.1-0.1c0.2-0.3,0.4-0.6,0.7-0.9l0.8,0.5c0.2,0.1,0.4,0.2,0.7,0.2
		c0.2,0,0.5-0.1,0.7-0.2l0.5-0.3c0.2-0.1,0.3-0.3,0.4-0.5c0-0.2-0.1-0.4-0.3-0.6l-0.4-0.4c0.7-0.2,1.5-0.4,2.4-0.4c0,0,0,0,0,0
		l2.5,1.4c0.1,0.1,0.3,0.1,0.4,0.1c0.1,0,0.2,0,0.3,0c0.2-0.1,0.4-0.2,0.4-0.4c0.3-0.6,0.4-1.3,0.4-2c0-0.7-0.1-1.4-0.4-2
		c-0.1-0.2-0.2-0.3-0.4-0.4c-0.2-0.1-0.4-0.1-0.6,0.1l-2.5,1.4c0,0,0,0-0.1,0c-0.7,0-1.3-0.2-1.9-0.3c0.3-0.4,0.3-1,0.1-1.4L17,7.2
		c-0.2-0.3-0.4-0.5-0.7-0.6c-0.3-0.1-0.6,0-0.9,0.2l-1.5,1.1C12,7.2,10,6.5,7.5,6.6C4.4,6.6,1.8,8.2,1.1,9.4C1,9.6,1.2,9.8,1.3,9.9
		c0,0,0.1,0,0.1,0.1c0,0,0,0,0,0C1.3,10,1.1,10.1,1,10.2z M16.6,8.8c-0.7-0.2-1.5-0.4-2.2-0.7l1.2-0.9C15.8,7.1,16,7,16.2,7.1
		c0.2,0,0.3,0.2,0.4,0.3l0.2,0.3C16.9,8,16.9,8.5,16.6,8.8z M19.9,11.1c0.1,0,0.2-0.1,0.3-0.2l0.9,0.4c0,0,0.1,0,0.1,0
		c0.1,0,0.2-0.1,0.2-0.1c0-0.1,0-0.2-0.1-0.3l-0.9-0.3c0,0,0-0.1,0-0.2h1.3c0.1,0,0.2-0.1,0.2-0.2c0-0.1-0.1-0.2-0.2-0.2h-1.3
		c0,0,0-0.1,0-0.1l0.9-0.4c0.1,0,0.2-0.2,0.1-0.3C21.3,9,21.1,9,21,9l-0.9,0.4c0,0,0,0,0,0c-0.1-0.1-0.2-0.1-0.3-0.2l1.9-1.1
		c0.1,0,0.2-0.1,0.3,0c0.1,0,0.1,0.1,0.2,0.2c0.2,0.6,0.4,1.2,0.4,1.9c0,0.7-0.1,1.3-0.4,1.9c0,0.1-0.1,0.1-0.2,0.2
		c-0.1,0-0.2,0-0.3,0L19.9,11.1z M14.6,12.6c0.4-0.3,0.9-0.7,1.6-0.9l0.6,0.6c0.1,0.1,0.1,0.2,0.1,0.2c0,0.1-0.1,0.2-0.2,0.2
		L16.2,13c-0.2,0.1-0.7,0.2-0.9,0L14.6,12.6z M1.5,10.4C1.5,10.4,1.5,10.4,1.5,10.4c0.1,0,0.2-0.1,0.3-0.1C1.9,10.2,2,10.1,2,10
		c0-0.2-0.2-0.4-0.3-0.5c0,0,0,0,0,0c0.6-0.9,2.9-2.4,6-2.5C10,7,12,7.7,13.9,8.3c1.8,0.6,3.6,1.3,5.7,1.3c0.1,0,0.1,0,0.2,0.1
		c0.1,0.2,0.1,0.6,0,0.8c-0.1,0.1-0.2,0.1-0.2,0.1c-4.1,0-5.8,1.8-6.5,2.9c0,0,0,0,0,0l0,0c-0.1,0.1-0.1,0.2-0.2,0.3
		c0-0.1-0.2-0.1-0.3-0.1c-0.1,0-0.2,0.2-0.1,0.3l0.3,0.9l-0.9-0.4c-0.1,0-0.2,0-0.3,0.1c0,0.1,0,0.2,0.1,0.3
		c-0.4,0.2-0.8,0.4-1.2,0.6c0-0.1-0.1-0.1-0.2-0.1c-0.1,0-0.2,0.1-0.3,0.2l-0.2,1l-0.6-0.8c-0.1-0.1-0.2-0.1-0.3,0
		c-0.1,0-0.1,0.1-0.1,0.2c-0.5,0.1-0.9,0.1-1.4,0c0-0.1,0-0.1-0.1-0.2c-0.1-0.1-0.2,0-0.3,0.1l-0.5,0.8l-0.3-1
		c0-0.1-0.2-0.2-0.3-0.1c-0.1,0-0.1,0.1-0.1,0.1c-0.3-0.1-0.5-0.2-0.8-0.3c0-0.1,0-0.1,0-0.2c-0.1-0.1-0.2-0.1-0.3-0.1L4,15.7l0.1-1
		c0-0.1-0.1-0.2-0.2-0.3c-0.1,0-0.2,0-0.2,0.1C3.5,14.3,3.2,14,3,13.7c0.1,0,0.1-0.1,0.1-0.2c0-0.1-0.1-0.2-0.2-0.2l-1,0.1l0.6-0.8
		c0.1-0.1,0.1-0.2,0-0.3c0,0-0.1,0-0.1,0c0-0.1,0-0.1,0-0.2c0-0.1,0-0.2,0-0.3c-0.1-0.4-0.1-0.6-0.5-1.1C1.6,10.6,1.6,10.5,1.5,10.4
		z"/>
	<path class="st0" d="M16.5,10.1l0.1,0c0.1,0,0.2,0.1,0.2,0.2c0,0.1-0.1,0.2-0.2,0.2c0,0,0,0,0,0l-0.1,0c-0.1,0-0.2-0.1-0.2-0.2
		C16.3,10.2,16.4,10.1,16.5,10.1z"/>
	<path class="st0" d="M15.5,10.1c0.1,0,0.2,0,0.4,0c0,0,0,0,0,0c0.1,0,0.2,0.1,0.2,0.2c0,0.1-0.1,0.2-0.2,0.2c-0.1,0-0.2,0-0.4,0
		c0,0,0,0,0,0c-0.1,0-0.2-0.1-0.2-0.2C15.3,10.2,15.4,10.1,15.5,10.1z"/>
	<path class="st0" d="M9.8,11c1,0.2,1.7,0,2.6-0.3c0.7-0.2,1.4-0.4,2.5-0.5c0.1,0,0.2,0.1,0.2,0.2c0,0.1-0.1,0.2-0.2,0.2
		c-1,0.1-1.8,0.3-2.4,0.5c-0.7,0.2-1.2,0.4-2,0.4c-0.2,0-0.5,0-0.8-0.1c-0.1,0-0.2-0.1-0.2-0.3C9.5,11,9.7,11,9.8,11z"/>
	<path class="st0" d="M4.1,12.9c0-0.1,0.2-0.2,0.3-0.1c0.1,0,0.2,0.2,0.1,0.3l-0.1,0.4l0.4-0.1c0.1,0,0.2,0.1,0.2,0.2
		c0,0.1-0.1,0.2-0.2,0.2L4,13.9c0,0,0,0,0,0c-0.1,0-0.1,0-0.2-0.1c0-0.1-0.1-0.1,0-0.2L4.1,12.9z"/>
	<path class="st0" d="M6,13.3c0.1,0,0.2,0,0.3,0.2l0.1,0.4l0.3-0.3c0.1-0.1,0.2-0.1,0.3,0c0.1,0.1,0.1,0.2,0,0.3l-0.6,0.5
		c0,0-0.1,0.1-0.2,0.1c0,0,0,0-0.1,0c-0.1,0-0.1-0.1-0.2-0.2l-0.2-0.7C5.8,13.5,5.9,13.4,6,13.3z"/>
	<path class="st0" d="M10.1,13.5l0.3,0.2l0-0.4c0-0.1,0.1-0.2,0.2-0.2c0.1,0,0.2,0.1,0.2,0.2l-0.1,0.8c0,0.1-0.1,0.1-0.1,0.2
		c0,0-0.1,0-0.1,0c0,0-0.1,0-0.1,0l-0.6-0.4c-0.1-0.1-0.1-0.2-0.1-0.3C9.9,13.4,10,13.4,10.1,13.5z"/>
	<path class="st0" d="M7.7,14.5c0.1-0.1,0.2,0,0.3,0.1l0.2,0.3l0.2-0.4c0.1-0.1,0.2-0.1,0.3-0.1c0.1,0.1,0.1,0.2,0.1,0.3l-0.4,0.7
		c0,0.1-0.1,0.1-0.2,0.1c0,0,0,0,0,0c-0.1,0-0.1,0-0.2-0.1l-0.4-0.6C7.6,14.7,7.6,14.5,7.7,14.5z"/>
	<path class="st0" d="M12.5,12.5l0.4,0l-0.2-0.4c-0.1-0.1,0-0.2,0.1-0.3c0.1-0.1,0.2,0,0.3,0.1l0.4,0.7c0,0.1,0,0.2,0,0.2
		c0,0.1-0.1,0.1-0.2,0.1l-0.8,0c0,0,0,0,0,0c-0.1,0-0.2-0.1-0.2-0.2C12.3,12.6,12.3,12.5,12.5,12.5z"/>
	<path class="st0" d="M3.5,8.7L3.5,8.7c0.2,0,0.3,0.1,0.3,0.2S3.6,9.1,3.5,9.1h0C3.4,9.1,3.3,9,3.3,8.9S3.4,8.7,3.5,8.7z"/>
	<path class="st0" d="M7.9,7.9C7.9,7.9,7.9,7.9,7.9,7.9L7.9,7.9c-0.2,0-0.3-0.1-0.3-0.2c0-0.1,0.1-0.2,0.2-0.2l0.1,0
		c0.1,0,0.2,0.1,0.2,0.2C8.1,7.8,8,7.9,7.9,7.9z"/>
	<path class="st0" d="M9.3,8.1L9.3,8.1c0.2,0,0.3,0.1,0.3,0.2c0,0.1-0.1,0.2-0.2,0.2c0,0,0,0,0,0l0,0c-0.1,0-0.2-0.1-0.2-0.2
		C9.1,8.2,9.2,8.1,9.3,8.1z"/>
	<path class="st0" d="M10.5,8.1C10.5,8.1,10.5,8.1,10.5,8.1L10.5,8.1c-0.2,0-0.3-0.1-0.3-0.2c0-0.1,0.1-0.2,0.2-0.2l0,0
		c0.1,0,0.2,0.1,0.2,0.2C10.7,8,10.6,8.1,10.5,8.1z"/>
	<path class="st0" d="M9.1,7.2L9.1,7.2c0.2,0,0.3,0.1,0.3,0.2c0,0.1-0.1,0.2-0.2,0.2c0,0,0,0,0,0l0,0C9,7.7,8.9,7.6,8.9,7.4
		C8.9,7.3,9,7.2,9.1,7.2z"/>
	<path class="st0" d="M6.1,11.3C6,11.2,6,11,6.1,10.9c0.1-0.1,0.2-0.1,0.3,0c0.2,0.3,0.6,0.6,0.9,0.6c0.2,0,0.3-0.2,0.4-0.4
		c0.3-0.6,0.4-1,0.2-1.2c-0.3-0.2-1.1,0-1.7,0.3c-0.1,0.1-0.2,0-0.3-0.1c-0.1-0.1,0-0.2,0.1-0.3c0.6-0.4,1.7-0.7,2.2-0.2
		c0.3,0.3,0.3,0.9-0.1,1.7C8,11.8,7.6,12,7.4,12c0,0-0.1,0-0.1,0C6.7,12,6.2,11.4,6.1,11.3z"/>
</g>
</svg>
