<?xml version="1.0" encoding="utf-8"?>
<!-- Generator: Adobe Illustrator 23.0.1, SVG Export Plug-In . SVG Version: 6.00 Build 0)  -->
<svg version="1.1" id="레이어_1" xmlns="http://www.w3.org/2000/svg" xmlns:xlink="http://www.w3.org/1999/xlink" x="0px"
	 y="0px" width="24px" height="24px" viewBox="0 0 24 24" style="enable-background:new 0 0 24 24;" xml:space="preserve">
<style type="text/css">
	.st0{fill:#777777;stroke:#777777;stroke-width:0.2;stroke-miterlimit:10;}
</style>
<g id="레이어_2_1_">
</g>
<g>
	<path class="st0" d="M2.9,16.2C2.4,17.1,2.1,18,2.3,19c0.2,1.3,1.2,2,2.2,2c0.1,0,0.2,0,0.4,0c0.9-0.2,1.8-1,1.6-2.5
		c-0.1-0.6-0.4-0.8-0.6-0.8c-0.3,0-0.6,0.4-0.5,1.1c0,0.5-0.2,0.7-0.5,0.8c-0.2,0-0.5,0-0.7-0.4c-0.1-0.3-0.1-0.8,0.2-1.3
		c0.2-0.4,0.7-1,1.8-1.3c0.8-0.2,1.4-0.2,1.9-0.3c0.8-0.1,1.4-0.1,2.1-0.5c-0.2,0.5-0.5,1.2-1.3,2c-1.3,1.4-1.3,2.5-1.2,3.1
		c0.3,0.9,1.1,1.6,1.8,1.8c0.2,0.1,0.4,0.1,0.5,0.1c0.4,0,0.6-0.2,0.6-0.3c0.1-0.2,0-0.5-0.4-0.8c-0.6-0.3-0.9-0.6-0.9-1
		c-0.1-0.6,0.7-1.3,1.1-1.6l0,0c0.1-0.1,0.2-0.1,0.2-0.2c0.5-0.4,0.9-0.8,1.3-1.6c0.4,0.8,0.9,1.2,1.3,1.5c0.1,0.1,0.2,0.1,0.2,0.2
		l0,0c0.4,0.4,1.2,1,1.1,1.7c0,0.4-0.4,0.7-1,1c-0.5,0.2-0.5,0.5-0.4,0.7s0.3,0.3,0.7,0.3c0.1,0,0.3,0,0.5-0.1
		c0.7-0.2,1.5-0.7,1.8-1.7S16,18.8,15,17.6c-0.8-1-1.2-1.6-1.3-2.2c0.7,0.5,1.4,0.5,2.3,0.6c0.5,0.1,1.2,0.1,1.9,0.3
		c1.1,0.3,1.6,0.8,1.8,1.3c0.3,0.5,0.3,1,0.2,1.3c-0.2,0.4-0.5,0.5-0.7,0.4s-0.5-0.3-0.5-0.8c0-0.7-0.2-1-0.5-1.1
		c-0.2,0-0.6,0.2-0.6,0.8c-0.2,1.4,0.7,2.3,1.6,2.4c1,0.2,2.3-0.4,2.6-1.9c0.2-1,0-1.9-0.6-2.7c-0.7-1-1.9-1.7-3.3-1.9
		c-0.8-0.1-1.4-0.3-1.9-0.5c0.3,0,0.7,0.1,1,0.1c1.5,0,2.7-0.5,3.4-1.4c0.7-0.9,0.8-2.2,0.3-3.2c-0.3-0.5-0.8-0.8-1.4-1
		c-0.6-0.1-1.2,0-1.6,0.3s-0.6,0.7-0.6,1.1c0,0.3,0.1,0.6,0.3,0.8c0.1,0.1,0.4,0.2,0.5,0.1c0.2-0.1,0.3-0.3,0.3-0.6
		c0-0.2,0.1-0.3,0.2-0.3c0.2-0.1,0.6,0,0.7,0.3c0.2,0.3,0.1,0.7-0.1,1.1c-0.2,0.3-0.6,0.8-1.7,0.8l0,0c-0.7,0-1.3-0.2-1.9-0.7
		c0,0,0,0,0-0.1c1.5-3,1.6-4.2,1.6-4.7V5.8c-0.1-2.8-2.3-5.1-5-5.1S7,3.1,7,6v0.1c0,0.5,0,1.7,1.6,4.7c0,0,0,0,0,0.1
		c-0.6,0.5-1.2,0.7-1.9,0.7c-1.1,0-1.6-0.5-1.8-0.8c0-0.2,0-0.6,0.1-0.9c0.2-0.3,0.5-0.4,0.7-0.3C5.9,9.6,6,9.7,6,9.9
		c-0.1,0.3,0.1,0.6,0.3,0.6c0.2,0.1,0.4,0.1,0.5-0.1C7,10.3,7.1,10,7.1,9.7c0-0.4-0.3-0.9-0.6-1.1c-0.4-0.3-1-0.4-1.6-0.3
		c-0.6,0.1-1.1,0.5-1.4,1c-0.5,1-0.4,2.2,0.3,3.2c0.7,0.9,1.9,1.4,3.4,1.4c0.3,0,0.6,0,1-0.1c-0.5,0.2-1.1,0.4-1.9,0.5
		C4.9,14.6,3.7,15.2,2.9,16.2z M17.4,12.3c1.4,0,2-0.7,2.2-1.1c0.3-0.5,0.3-1.1,0.1-1.6c-0.3-0.5-0.9-0.7-1.3-0.5
		C18,9.3,17.7,9.6,17.8,10c0,0,0,0.1-0.1,0s-0.1-0.2-0.1-0.3c0-0.3,0.2-0.6,0.4-0.8c0.3-0.2,0.7-0.3,1.2-0.2s0.8,0.4,1,0.7
		c0.4,0.8,0.3,1.9-0.2,2.6c-0.9,1.1-2.6,1.5-4.7,1l0,0c0,0,0-0.1-0.1-0.1c-0.2-0.4-0.2-0.9,0-1.5C15.9,12.1,16.6,12.3,17.4,12.3z
		 M4.2,12.2C3.6,11.4,3.5,10.4,4,9.5c0.2-0.4,0.6-0.6,1-0.7c0.4-0.1,0.9,0,1.2,0.2c0.2,0.2,0.4,0.5,0.4,0.8c0,0.1,0,0.2-0.1,0.3
		c0,0-0.1,0,0,0C6.6,9.7,6.4,9.3,6,9.2c-0.4-0.1-1,0-1.3,0.5s-0.2,1.1,0.1,1.6C5,11.7,5.6,12.4,7,12.4c0.8,0,1.5-0.3,2.1-0.7
		c0.2,0.6,0.2,1.1,0,1.5c0,0,0,0.1-0.1,0.1l0,0C6.8,13.7,5.1,13.3,4.2,12.2z M9.4,13.3c0.3-0.6,0.2-1.5-0.3-2.5
		c-1.5-2.9-1.5-4-1.5-4.5V6.2c0-2.7,2-4.8,4.5-4.8c2.4,0,4.4,2,4.5,4.6c0,0.1,0,0.4,0,0.4c0,0.5-0.1,1.6-1.5,4.5
		c-0.5,1-0.6,1.8-0.3,2.5c0.5,1,2,1.4,3.1,1.5c1.3,0.2,2.4,0.8,3,1.7c0.5,0.7,0.7,1.5,0.5,2.4c-0.2,1.2-1.2,1.7-2,1.5
		c-0.7-0.1-1.4-0.7-1.2-1.9c0-0.1,0.1-0.2,0.1-0.3c0,0,0,0,0.1,0c0,0.1,0.1,0.2,0.1,0.5c0,0.8,0.4,1.2,0.9,1.3
		c0.4,0.1,1-0.1,1.2-0.8c0.2-0.5,0.1-1.1-0.2-1.7c-0.4-0.7-1.2-1.3-2.2-1.5c-0.8-0.2-1.4-0.2-2-0.3c-0.9-0.1-1.6-0.2-2.4-0.8
		c0-0.3,0.1-0.6,0.2-1c0-0.1,0-0.3-0.2-0.3c-0.1,0-0.3,0-0.3,0.2c-0.3,1.3-0.4,2.2,1.3,4.2c0.9,1.1,1.2,2,1,2.8s-1,1.2-1.5,1.3
		c-0.2,0.1-0.4,0.1-0.5,0.1c0,0,0,0,0-0.1c0,0,0.1,0,0.1-0.1c0.7-0.4,1.2-0.8,1.2-1.3c0.1-0.9-0.8-1.7-1.2-2.1l0,0
		c-0.1-0.1-0.2-0.1-0.3-0.2c-0.5-0.4-1-0.9-1.3-1.8c0.2-0.7,0.4-1.6,0.5-2.9c0-0.1-0.1-0.3-0.2-0.3c-0.1,0-0.3,0.1-0.3,0.2
		c-0.2,3.3-1,4-1.9,4.7c-0.1,0.1-0.2,0.1-0.3,0.2l0,0c-0.5,0.4-1.4,1.2-1.3,2.1c0.1,0.5,0.5,1,1.2,1.4c0,0,0.1,0,0.1,0.1v0.1
		c-0.1,0-0.2,0-0.5-0.1c-0.5-0.1-1.2-0.7-1.5-1.5c-0.2-0.8,0.1-1.7,1-2.7c1.8-1.9,1.7-2.8,1.3-4.2c0-0.1-0.2-0.2-0.3-0.2
		s-0.2,0.2-0.2,0.3c0.1,0.4,0.2,0.7,0.2,1.1c-0.7,0.5-1.4,0.5-2.2,0.6c-0.6,0-1.2,0.1-2,0.3c-1,0.2-1.8,0.8-2.2,1.5
		c-0.3,0.6-0.4,1.2-0.2,1.7c0.2,0.7,0.8,0.9,1.2,0.8c0.5-0.1,0.9-0.5,0.9-1.3c0-0.2,0-0.3,0-0.4h0.1c0,0.1,0.1,0.1,0.1,0.3
		c0.2,1.1-0.5,1.8-1.2,1.9c-0.8,0.1-1.8-0.3-2-1.5c-0.2-0.8,0-1.7,0.5-2.4c0.6-0.9,1.7-1.5,3-1.7C7.4,14.7,8.9,14.3,9.4,13.3z"/>
	<path class="st0" d="M12.1,2.4c0-0.1-0.1-0.2-0.3-0.2c-1.3,0-2.5,0.7-3.1,1.9c-0.1,0.1,0,0.3,0.1,0.3h0.1c0.1,0,0.2,0,0.2-0.1
		c0.6-1,1.6-1.6,2.7-1.7C12,2.7,12.1,2.6,12.1,2.4z"/>
	<path class="st0" d="M8.6,4.8c-0.1,0-0.3,0-0.3,0.2C8.2,5.2,8.2,5.5,8.2,5.7C8.2,5.9,8.3,6,8.4,6l0,0c0.1,0,0.2-0.1,0.2-0.2
		c0-0.2,0.1-0.4,0.1-0.6C8.8,5,8.7,4.8,8.6,4.8z"/>
	<path class="st0" d="M11.1,10.7c-0.1,0-0.2,0.1-0.2,0.2V11c0,0.1,0.1,0.2,0.2,0.2c0.1,0,0.2-0.1,0.2-0.2v-0.1
		C11.3,10.8,11.2,10.7,11.1,10.7z"/>
	<path class="st0" d="M13.2,11.3c0.1,0,0.2-0.1,0.2-0.2V11c0-0.1-0.1-0.2-0.2-0.2S13,10.9,13,11v0.1C12.9,11.2,13,11.3,13.2,11.3z"
		/>
</g>
</svg>
