<?xml version="1.0" encoding="utf-8"?>
<!-- Generator: Adobe Illustrator 24.2.1, SVG Export Plug-In . SVG Version: 6.00 Build 0)  -->
<svg version="1.1" id="레이어_1" xmlns="http://www.w3.org/2000/svg" xmlns:xlink="http://www.w3.org/1999/xlink" x="0px"
	 y="0px" width="128px" height="128px" viewBox="0 0 128 128" style="enable-background:new 0 0 128 128;" xml:space="preserve">
<style type="text/css">
	.st0{fill:none;stroke:#58595B;stroke-width:4.3478;stroke-linecap:round;stroke-linejoin:round;stroke-miterlimit:10;}
</style>
<g>
	<path class="st0" d="M103.4,63.1c-0.9,11.4-7.7,21.2-17.3,26.2"/>
	<path class="st0" d="M81.8,35.5C81.8,35.5,81.8,35.5,81.8,35.5c6,0,10.9,4.9,10.9,10.9v13c0,6-2.4,11.4-6.4,15.4"/>
	<path class="st0" d="M70.9,45.8v0.5c0-1.9,0.5-3.7,1.4-5.3"/>
	<path class="st0" d="M106,24.5c5.2,5.8,8.4,13.4,8.4,21.8v13c0,1.5,0,3-0.1,4.5l0,0c-1.2,14.9-9.8,28-23,35
		c-1.6,0.8-3.2,1.6-4.8,2.2"/>
	<path class="st0" d="M49.7,40.3c2.4-12.5,11.9-22.5,24.1-25.6v0c2.5-0.6,5.2-1,7.9-1c5.7,0,11,1.5,15.7,4"/>
	<path class="st0" d="M60.7,42.2c2.3-9.5,10.9-16.5,21.1-16.5c12,0,21.7,9.7,21.7,21.7v3.8"/>
	<line class="st0" x1="81.8" y1="47.4" x2="81.8" y2="56.8"/>
	<path class="st0" d="M14.4,113.8V71C14.4,57.6,29,46.8,47,46.8S79.6,57.6,79.6,71v42.8"/>
	<path class="st0" d="M47,57.2c9.4,0,17.9,2.3,23.8,5.9l-0.5,8.6l-0.7,11.9c-0.3,4.9-3.2,9.4-7.6,11.6c-4.2,2.1-9.4,3.3-15,3.3
		c-5.6,0-10.7-1.2-15-3.3c-4.4-2.2-7.3-6.6-7.6-11.6l-0.7-11.9l-0.5-8.6C29.1,59.5,37.6,57.2,47,57.2z"/>
	<path class="st0" d="M61.8,86.9c-4.2-2.9-9.3-4.6-14.8-4.6c-5.5,0-10.6,1.7-14.8,4.6"/>
</g>
</svg>
