<?xml version="1.0" encoding="utf-8"?>
<!-- Generator: Adobe Illustrator 24.2.1, SVG Export Plug-In . SVG Version: 6.00 Build 0)  -->
<svg version="1.1" id="레이어_1" xmlns="http://www.w3.org/2000/svg" xmlns:xlink="http://www.w3.org/1999/xlink" x="0px"
	 y="0px" width="16px" height="16px" viewBox="0 0 16 16" style="enable-background:new 0 0 16 16;" xml:space="preserve">
<style type="text/css">
	.st0{fill:#FFFFFF;}
</style>
<g>
	<path class="st0" d="M15.57,13.09H5.76c-0.24,0-0.43-0.19-0.43-0.43c0-0.39-0.32-0.71-0.71-0.71c-0.39,0-0.71,0.32-0.71,0.71
		c0,0.24-0.19,0.43-0.43,0.43H0.43C0.19,13.09,0,12.89,0,12.66V3.15c0-0.24,0.19-0.43,0.43-0.43h3.05c0.24,0,0.43,0.19,0.43,0.43
		c0,0.39,0.32,0.71,0.71,0.71c0.39,0,0.71-0.32,0.71-0.71c0-0.24,0.19-0.43,0.43-0.43h9.81c0.24,0,0.43,0.19,0.43,0.43v9.51
		C16,12.89,15.81,13.09,15.57,13.09z M6.13,12.23h9.01V3.58H6.13C5.95,4.24,5.34,4.72,4.62,4.72S3.3,4.24,3.11,3.58H0.86v8.65h2.25
		c0.19-0.66,0.79-1.14,1.51-1.14S5.95,11.57,6.13,12.23z"/>
	<g>
		<path class="st0" d="M5.26,7.9c0-0.35-0.29-0.64-0.64-0.64S3.99,7.55,3.99,7.9c0,0.35,0.29,0.64,0.64,0.64S5.26,8.26,5.26,7.9z"/>
		<path class="st0" d="M5.26,6.01c0-0.35-0.29-0.64-0.64-0.64S3.99,5.66,3.99,6.01c0,0.35,0.29,0.64,0.64,0.64S5.26,6.36,5.26,6.01z
			"/>
		<circle class="st0" cx="4.62" cy="9.8" r="0.64"/>
	</g>
	<g>
		<path class="st0" d="M9.07,7.93c-0.38,0-0.73-0.15-0.99-0.41c-0.55-0.55-0.55-1.44,0-1.99C8.34,5.27,8.7,5.12,9.07,5.12
			c0.38,0,0.73,0.15,0.99,0.41c0.55,0.55,0.55,1.44,0,1.99C9.8,7.78,9.45,7.93,9.07,7.93z M9.07,5.98c-0.15,0-0.28,0.06-0.39,0.16
			c-0.21,0.21-0.21,0.56,0,0.77c0.1,0.1,0.24,0.16,0.39,0.16c0.15,0,0.28-0.06,0.39-0.16c0.21-0.21,0.21-0.56,0-0.77
			C9.36,6.04,9.22,5.98,9.07,5.98z"/>
		<path class="st0" d="M11.83,10.69c-0.38,0-0.73-0.15-0.99-0.41c-0.27-0.27-0.41-0.62-0.41-0.99c0-0.38,0.15-0.73,0.41-0.99
			c0.27-0.27,0.62-0.41,0.99-0.41s0.73,0.15,0.99,0.41c0.55,0.55,0.55,1.44,0,1.99C12.56,10.54,12.21,10.69,11.83,10.69z
			 M11.83,8.74c-0.15,0-0.28,0.06-0.39,0.16c-0.1,0.1-0.16,0.24-0.16,0.39c0,0.15,0.06,0.28,0.16,0.39c0.1,0.1,0.24,0.16,0.39,0.16
			c0.15,0,0.28-0.06,0.39-0.16c0.21-0.21,0.21-0.56,0-0.77C12.11,8.79,11.98,8.74,11.83,8.74z"/>
		<path class="st0" d="M8.46,10.32c-0.11,0-0.22-0.04-0.3-0.13c-0.17-0.17-0.17-0.44,0-0.61l3.97-3.97c0.17-0.17,0.44-0.17,0.61,0
			c0.17,0.17,0.17,0.44,0,0.61l-3.97,3.97C8.68,10.28,8.57,10.32,8.46,10.32z"/>
	</g>
</g>
</svg>
