<?xml version="1.0" encoding="utf-8"?>
<!-- Generator: Adobe Illustrator 24.0.1, SVG Export Plug-In . SVG Version: 6.00 Build 0)  -->
<svg version="1.1" id="Layer_1" xmlns="http://www.w3.org/2000/svg" xmlns:xlink="http://www.w3.org/1999/xlink" x="0px" y="0px"
	 width="20px" height="20px" viewBox="0 0 20 20" style="enable-background:new 0 0 20 20;" xml:space="preserve">
<style type="text/css">
	.st0{fill:#FFFFFF;}
</style>
<g>
	<path class="st0" d="M17.9,2.9h-1.6V1.3h-1.6v1.6h-4V1.3H9.2v1.6h-4V1.3H3.7v1.6H2.1c-0.9,0-1.6,0.7-1.6,1.6v12.7
		c0,0.9,0.7,1.6,1.6,1.6h15.8c0.9,0,1.6-0.7,1.6-1.6V4.4C19.5,3.6,18.8,2.9,17.9,2.9z M17.9,17.1H2.1V7.6h15.8V17.1z M17.9,6H2.1
		V4.4h1.6h1.6h4h1.6h4h1.6h1.6V6z M8,15.5h1.7l2.7-6.3H7.6v1.6H10L8,15.5z"/>
</g>
</svg>
