<?xml version="1.0" encoding="utf-8"?>
<!-- Generator: Adobe Illustrator 24.2.1, SVG Export Plug-In . SVG Version: 6.00 Build 0)  -->
<svg version="1.1" id="Layer_1" xmlns="http://www.w3.org/2000/svg" xmlns:xlink="http://www.w3.org/1999/xlink" x="0px" y="0px"
	 width="30px" height="30px" viewBox="0 0 30 30" style="enable-background:new 0 0 30 30;" xml:space="preserve">
<style type="text/css">
	.st0{fill:#FFFFFF;}
</style>
<g>
	<path class="st0" d="M8.8,21.2c3.8-0.9,9.5-2.3,9.7-10.5c0-0.9-0.3-1.8-1-2.5C16.9,7.5,16,7.1,15,7.1c-1,0-1.9,0.4-2.6,1.1
		c-0.6,0.7-0.8,1.6-0.9,2.3c-0.5,2.7-2.3,4.1-5.4,4.1c-0.5,0-0.8,0.4-0.8,0.8c0,0.5,0.4,0.8,0.8,0.8c3.9,0,6.3-2,7-5.5
		c0.1-0.6,0.2-1.1,0.5-1.5c0.4-0.4,0.9-0.6,1.4-0.6c0.5,0,1,0.2,1.4,0.6c0.3,0.4,0.5,0.8,0.5,1.3c-0.2,6.9-4.8,8-8.5,8.9
		c-0.7,0.2-1.4,0.3-1.9,0.5c-0.4,0.1-0.7,0.6-0.5,1c0.1,0.3,0.4,0.6,0.8,0.6c0.1,0,0.2,0,0.3,0C7.6,21.5,8.2,21.3,8.8,21.2z"/>
	<path class="st0" d="M23.9,17.4c-1.5-0.4-2.8-1-2.8-3.4c0-0.5,0-0.9,0.1-1.2c0-0.5,0.1-1.1,0.1-2.2c0-3.5-2.9-6.3-6.3-6.3
		c-3.1,0-5.6,2.1-6.3,5.4c-0.4,2-1.4,2-2.4,1.9c-0.5,0-0.9,0.3-0.9,0.7c0,0.5,0.3,0.9,0.7,0.9c2.8,0.3,3.8-1.6,4.1-3.3
		C10.9,7.6,12.6,6,15,6c2.5,0,4.6,2.1,4.7,4.7c0,1,0,1.5-0.1,2c0,0.4-0.1,0.8-0.1,1.4c0,3.8,2.7,4.6,3.9,5c0.1,0,0.2,0,0.2,0
		c0.4,0,0.7-0.2,0.8-0.6C24.6,18,24.4,17.5,23.9,17.4z"/>
	<path class="st0" d="M24.2,14.6c-0.1,0-0.4-0.3-0.3-1c0.1-1.1,0.2-2.8,0.2-2.9l0,0c0-5-4.1-9.1-9.1-9.1c-3.7,0-7.1,2.3-8.5,5.8
		C6.4,7.8,6.3,8.3,6.2,8.7C6.1,8.9,6,9.2,6,9.3c-0.2,0.4,0,0.9,0.5,1.1c0.4,0.2,0.9,0,1.1-0.5c0.1-0.2,0.1-0.5,0.2-0.8
		C7.9,8.7,8,8.3,8.1,8C9.2,5.2,12,3.3,15,3.3c4.1,0,7.4,3.3,7.4,7.4c0,0.2-0.1,1.8-0.2,2.7c-0.2,1.8,1,2.7,1.5,2.8
		c0.1,0,0.1,0,0.2,0c0.4,0,0.7-0.3,0.8-0.7C24.9,15.2,24.6,14.8,24.2,14.6z"/>
	<path class="st0" d="M6.5,19c0.2,0,0.3-0.1,0.5-0.1c3.2-0.6,8.6-1.7,8.8-8.2c0-0.5-0.3-0.8-0.8-0.9c-0.5,0-0.8,0.3-0.9,0.8
		c-0.2,5.2-4.4,6-7.5,6.7c-0.2,0-0.4,0.1-0.5,0.1c-0.4,0.1-0.7,0.5-0.6,1C5.6,18.7,5.9,19,6.3,19C6.4,19,6.4,19,6.5,19z"/>
	<path class="st0" d="M23.4,20.1c-0.8-0.2-1.6-0.5-2.4-0.8c-0.7-0.3-1.4-0.8-1.9-1.5c-0.3-0.3-0.8-0.4-1.2-0.1
		c-0.3,0.3-0.4,0.8-0.1,1.2c0.7,0.8,1.6,1.5,2.5,1.9c0.8,0.4,1.7,0.7,2.7,0.9c0.1,0,0.1,0,0.2,0c0.4,0,0.7-0.3,0.8-0.6
		C24.1,20.6,23.8,20.1,23.4,20.1z"/>
	<path class="st0" d="M22.6,22.7C21,22.4,20,21.8,19,21.3c-0.9-0.5-1.7-0.9-2.7-0.9c-0.7,0-1.6,0.3-2.9,0.7c-1.4,0.4-3.3,1.1-6,1.6
		c-0.4,0.1-0.7,0.5-0.6,1c0.1,0.4,0.5,0.7,1,0.6c2.7-0.6,4.7-1.2,6.1-1.6c1.1-0.4,1.9-0.6,2.4-0.6c0.5,0,1.1,0.3,1.9,0.7
		c1,0.5,2.2,1.2,4,1.5c0.1,0,0.1,0,0.2,0c0.4,0,0.7-0.3,0.8-0.7C23.3,23.2,23,22.8,22.6,22.7z"/>
	<path class="st0" d="M21,25c-0.6-0.2-1.3-0.5-2-0.8c-1-0.5-2-0.9-2.9-0.9c-0.6,0-1.7,0.3-3.4,0.8c-1.2,0.4-2.6,0.8-3.7,0.9
		c-0.4,0.1-0.8,0.5-0.7,1c0.1,0.4,0.5,0.8,1,0.7c1.1-0.2,2.6-0.6,3.8-1c1.2-0.3,2.5-0.7,3-0.7c0.5,0,1.4,0.4,2.2,0.8
		c0.7,0.3,1.5,0.7,2.3,0.9c0.1,0,0.1,0,0.2,0c0.4,0,0.7-0.2,0.8-0.6C21.7,25.6,21.5,25.1,21,25z"/>
	<path class="st0" d="M18.9,27c-0.2-0.1-0.4-0.2-0.6-0.3c-0.7-0.3-1.5-0.7-2.5-0.7c-0.5,0-1.1,0.2-2.2,0.4c-0.8,0.2-1.6,0.4-2.3,0.5
		c-0.5,0.1-0.8,0.5-0.7,0.9s0.5,0.8,0.9,0.7c0.7-0.1,1.6-0.3,2.5-0.5c0.7-0.2,1.5-0.4,1.8-0.4c0.7,0,1.2,0.3,1.8,0.5
		c0.2,0.1,0.5,0.2,0.7,0.3c0.1,0,0.2,0.1,0.3,0.1c0.3,0,0.7-0.2,0.8-0.5C19.5,27.6,19.3,27.2,18.9,27z"/>
</g>
</svg>
