<?xml version="1.0" encoding="utf-8"?>
<!-- Generator: Adobe Illustrator 24.2.1, SVG Export Plug-In . SVG Version: 6.00 Build 0)  -->
<svg version="1.1" id="Layer_1" xmlns="http://www.w3.org/2000/svg" xmlns:xlink="http://www.w3.org/1999/xlink" x="0px" y="0px"
	 width="30px" height="30px" viewBox="0 0 30 30" style="enable-background:new 0 0 30 30;" xml:space="preserve">
<style type="text/css">
	.st0{fill:#FFFFFF;}
</style>
<path class="st0" d="M24.9,14.5c0,5.1-3.9,9.4-9,9.9v-9h3.9v-1.9H16v-3.2c1.7-0.5,3-2,3-3.8c0-2.2-1.8-3.9-3.9-3.9s-3.9,1.8-3.9,3.9
	c0,1.8,1.3,3.3,3,3.8v3.1H10v2h3.9v9c-5-0.5-9-4.8-9-9.9H3c0,6.6,5.4,12,12,12s12-5.4,12-12H24.9z M13,6.5c0-1.1,0.8-2,2-2
	c1.1,0,2,0.8,2,2s-1,2-2,2S13,7.7,13,6.5z"/>
</svg>
