<?xml version="1.0" encoding="utf-8"?>
<!-- Generator: Adobe Illustrator 24.2.1, SVG Export Plug-In . SVG Version: 6.00 Build 0)  -->
<svg version="1.1" id="레이어_1" xmlns="http://www.w3.org/2000/svg" xmlns:xlink="http://www.w3.org/1999/xlink" x="0px"
	 y="0px" width="64px" height="64px" viewBox="0 0 64 64" style="enable-background:new 0 0 64 64;" xml:space="preserve">
<style type="text/css">
	.st0{fill:#3683D5;}
	.st1{fill:#3683D5;stroke:#3683D5;stroke-width:0.5;stroke-miterlimit:10;}
</style>
<g>
	<path class="st0" d="M14.4,57.5v1.7H3.5v-1.7H14.4z M11.7,55.1l-2.8-5.6l-2.8,5.6H3.9l3.8-7.9h2.4l3.8,7.9H11.7z"/>
	<path class="st0" d="M15.5,59.1V47.2h6.2v11.9H15.5z M17.4,57.3h2.3v-8.5h-2.3V57.3z M23.3,59.1v-12h1.8v4h1.3v1.7h-1.3v6.3H23.3z"
		/>
	<path class="st0" d="M37.4,57.5v1.7H26.6v-1.7H37.4z M36.9,47.2v1.7h-7.7v1.5h7.7v1.7h-7.7v1.4h7.7v1.7h-9.7v-8H36.9z"/>
	<path class="st0" d="M48.2,57.1h-7.8v0.6h7.8v1.4h-9.4v-3.3h7.8v-0.6h-7.8v-1.3h3.8v-0.7h-4.6v-1.4H49v1.4h-4.6v0.7h3.8V57.1z
		 M44.5,47.6h3.8V49l-2.2,0.6l2.2,0.6v1.4l-4.6-1.3l-4.9,1.3v-1.5l4.4-1.1h-4.4v-1.5h3.8v-0.9h2V47.6z"/>
	<path class="st0" d="M54.1,57.3v-3.4H56v3.4h4.5v1.8H49.6v-1.8H54.1z M56.4,48.8h-6.2v-1.7h9.6v1.7l-3.1,2l3.1,2v2l-4.8-3l-4.8,3
		v-2L56.4,48.8z"/>
</g>
<path class="st1" d="M44.8,25.5c-0.4-0.1-0.8,0-1,0.2L41,28.7c-0.4,0.4-0.3,1,0.1,1.3c0.4,0.4,1,0.3,1.3-0.1l1-1.1v2.6
	c0,2.9-2.4,5.3-5.3,5.3S33,34.4,33,31.5V10.9c1.5-0.4,2.6-1.8,2.6-3.4c0-2-1.6-3.6-3.6-3.6c-2,0-3.6,1.6-3.6,3.6
	c0,1.6,1.1,3,2.6,3.4v20.6c0,2.9-2.4,5.3-5.3,5.3s-5.3-2.4-5.3-5.3v-2.6l1,1.1c0.4,0.4,1,0.4,1.3,0.1c0.4-0.4,0.4-1,0.1-1.3
	l-2.7-2.9c-0.3-0.3-0.7-0.4-1-0.2c-0.4,0.1-0.6,0.5-0.6,0.9v5.1c0,3.9,3.2,7.2,7.2,7.2c2.7,0,5-1.5,6.2-3.6c1.2,2.2,3.6,3.6,6.2,3.6
	c3.9,0,7.2-3.2,7.2-7.2v-5.1C45.4,26,45.1,25.6,44.8,25.5z M30.3,7.4c0-0.9,0.7-1.7,1.7-1.7c0.9,0,1.7,0.7,1.7,1.7
	c0,0.9-0.7,1.7-1.7,1.7c0,0,0,0,0,0s0,0,0,0C31.1,9.1,30.3,8.4,30.3,7.4z"/>
</svg>
