<?xml version="1.0" encoding="utf-8"?>
<!-- Generator: Adobe Illustrator 24.2.1, SVG Export Plug-In . SVG Version: 6.00 Build 0)  -->
<svg version="1.1" xmlns="http://www.w3.org/2000/svg" xmlns:xlink="http://www.w3.org/1999/xlink" x="0px" y="0px" width="16px"
	 height="16px" viewBox="0 0 16 16" style="enable-background:new 0 0 16 16;" xml:space="preserve">
<style type="text/css">
	.st0{fill:#7783A5;}
	.st1{fill-rule:evenodd;clip-rule:evenodd;fill:#377DBC;}
</style>
<g id="레이어_1">
	<g>
		<g>
			<g>
				<path class="st0" d="M1.5,3.9V3c0-0.6,0.5-1,1-1h11c0.6,0,1,0.5,1,1v7.4c0,0.6-0.5,1-1,1h-1.2c-0.1,0-0.2,0.1-0.2,0.2V14
					c0,0.2-0.1,0.3-0.2,0.4c-0.1,0-0.1,0-0.2,0c-0.1,0-0.2,0-0.3-0.1L8,11.4c0,0-0.1,0-0.1,0H2.5c-0.6,0-1-0.5-1-1V5.5 M2.5,2.8
					C2.4,2.8,2.3,2.9,2.3,3v7.4c0,0.1,0.1,0.2,0.2,0.2h5.5c0.1,0,0.2,0,0.3,0.1l2.7,2.2c0,0,0.1,0,0.1,0c0,0,0.1,0,0.1,0
					c0.1,0,0.1-0.1,0.1-0.2V11c0-0.2,0.2-0.4,0.4-0.4h1.8c0.1,0,0.2-0.1,0.2-0.2V3c0-0.1-0.1-0.2-0.2-0.2H2.5z"/>
			</g>
		</g>
		<g>
			<g>
				<path class="st0" d="M5,5.8c-0.2,0-0.4-0.2-0.4-0.4C4.6,5.2,4.8,5,5,5h6.1c0.2,0,0.4,0.2,0.4,0.4c0,0.2-0.2,0.4-0.4,0.4H5z"/>
			</g>
		</g>
		<g>
			<g>
				<path class="st0" d="M5,8.3c-0.2,0-0.4-0.2-0.4-0.4c0-0.2,0.2-0.4,0.4-0.4h6.1c0.2,0,0.4,0.2,0.4,0.4c0,0.2-0.2,0.4-0.4,0.4H5z"
					/>
			</g>
		</g>
		<g>
			<g>
				<path class="st0" d="M1.1,1.1"/>
			</g>
		</g>
	</g>
</g>
<g id="레이어_2">
	<path class="st1" d="M-12.4,7"/>
</g>
</svg>
