<?xml version="1.0" encoding="utf-8"?>
<!-- Generator: Adobe Illustrator 24.2.1, SVG Export Plug-In . SVG Version: 6.00 Build 0)  -->
<svg version="1.1" xmlns="http://www.w3.org/2000/svg" xmlns:xlink="http://www.w3.org/1999/xlink" x="0px" y="0px" width="16px"
	 height="16px" viewBox="0 0 16 16" style="enable-background:new 0 0 16 16;" xml:space="preserve">
<style type="text/css">
	.st0{fill-rule:evenodd;clip-rule:evenodd;fill:#377DBC;stroke:#377DBC;stroke-width:0.15;stroke-miterlimit:10;}
	.st1{fill-rule:evenodd;clip-rule:evenodd;fill:#377DBC;}
</style>
<g id="레이어_1">
	<path class="st0" d="M5.6,3.4v-1V2.3l0.1-0.1l2.2-1.7h0.2l2.2,1.7l0.1,0.1v0.2v1l1.3,0.8l0.1,0.1v0.2v1.1l-0.6-0.4V4.6L8,2.6
		l-3.3,2v0.6L4.2,5.6V4.4V4.3l0.1-0.1L5.6,3.4L5.6,3.4z M7.7,5v10.1h0.7V5l4.4,2.3c-0.7,1.2-1.2,2.4-1.6,3.7
		c-0.4,1.4-0.6,2.9-0.7,4.4l0.7,0.1c0.1-1.5,0.3-2.9,0.7-4.3c0.4-1.4,0.9-2.6,1.7-3.8L13.9,7l-0.4-0.2L8.5,4.2L8.1,4L7.7,4.2
		L2.6,6.8L2.2,7l0.2,0.3c0.8,1.2,1.3,2.5,1.7,3.8c0.4,1.4,0.6,2.8,0.7,4.3l0.7-0.1c-0.1-1.5-0.3-3-0.7-4.4C4.5,9.7,4,8.5,3.3,7.3
		L7.7,5L7.7,5z M6.2,2.6v0.5L8,2h0.1l1.8,1.1V2.6L8,1.1L6.2,2.6z"/>
</g>
<g id="레이어_2">
	<path class="st1" d="M3,7"/>
</g>
</svg>
