<?xml version="1.0" encoding="utf-8"?>
<!-- Generator: Adobe Illustrator 24.2.1, SVG Export Plug-In . SVG Version: 6.00 Build 0)  -->
<svg version="1.1" id="레이어_1" xmlns="http://www.w3.org/2000/svg" xmlns:xlink="http://www.w3.org/1999/xlink" x="0px"
	 y="0px" width="24px" height="24px" viewBox="0 0 24 24" style="enable-background:new 0 0 24 24;" xml:space="preserve">
<style type="text/css">
	.st0{fill:none;stroke:#333333;stroke-miterlimit:10;}
	.st1{fill:none;stroke:#333333;stroke-linecap:round;stroke-linejoin:round;stroke-miterlimit:10;}
</style>
<g>
	<path class="st0" d="M19.6,22.6H4.3c-0.6,0-1-0.4-1-1v-10h17.3v10C20.6,22.2,20.2,22.6,19.6,22.6z"/>
	<path class="st0" d="M21.5,11.7h-19c-0.6,0-1-0.4-1-1V9c0-0.6,0.4-1,1-1h19c0.6,0,1,0.4,1,1v1.7C22.5,11.2,22,11.7,21.5,11.7z"/>
	<rect x="10.6" y="8" class="st1" width="2.7" height="14.6"/>
	<path class="st1" d="M15.1,8c1.8,0,3.2-1.4,3.2-3.2s-1.4-3.2-3.2-3.2S11.9,3,11.9,4.8V8H15.1"/>
	<path class="st1" d="M8.8,8h3.2V4.8c0-1.8-1.4-3.2-3.2-3.2S5.6,3,5.6,4.8S7,8,8.8,8"/>
</g>
</svg>
