<?xml version="1.0" encoding="utf-8"?>
<!-- Generator: Adobe Illustrator 24.2.1, SVG Export Plug-In . SVG Version: 6.00 Build 0)  -->
<svg version="1.1" id="Layer_1" xmlns="http://www.w3.org/2000/svg" xmlns:xlink="http://www.w3.org/1999/xlink" x="0px" y="0px"
	 width="30px" height="30px" viewBox="0 0 30 30" style="enable-background:new 0 0 30 30;" xml:space="preserve">
<style type="text/css">
	.st0{fill:none;stroke:#FFFFFF;stroke-width:1.5;stroke-linejoin:round;stroke-miterlimit:10;}
</style>
<g>
	<polyline class="st0" points="21.4,13.7 21.4,9.9 19.2,9.9 19.2,7.7 11.7,7.7 11.7,9.9 9.5,9.9 9.5,13.7 	"/>
	<polyline class="st0" points="17.6,7.7 17.6,5 13.3,5 13.3,7.7 	"/>
	<path class="st0" d="M9,21.7c0,0-2.3-4.3-2.7-6.1c0,0,5.7-3.5,9.2-4.1c3.5,0.6,9.2,4.1,9.2,4.1c-0.4,1.8-2.7,6.1-2.7,6.1"/>
	<path class="st0" d="M3,22.6l2-1.3c0.5-0.3,1-0.3,1.5,0.1L7.3,22c0.4,0.4,1,0.4,1.5,0.1l1.1-0.8c0.4-0.3,1-0.3,1.5,0l0.9,0.7
		c0.4,0.3,1,0.4,1.5,0l1-0.7c0.4-0.3,1-0.3,1.5,0l1,0.7c0.4,0.3,1,0.3,1.5,0l0.9-0.7c0.4-0.3,1-0.3,1.5,0l1.1,0.8
		c0.5,0.3,1.1,0.3,1.5,0l0.8-0.7c0.4-0.3,1-0.4,1.5-0.1l2,1.3"/>
	<path class="st0" d="M3,25.5l2-1.3c0.5-0.3,1-0.3,1.5,0.1l0.8,0.6c0.4,0.4,1,0.4,1.5,0.1l1.1-0.8c0.4-0.3,1-0.3,1.5,0l0.9,0.7
		c0.4,0.3,1,0.4,1.5,0l1-0.7c0.4-0.3,1-0.3,1.5,0l1,0.7c0.4,0.3,1,0.3,1.5,0l0.9-0.7c0.4-0.3,1-0.3,1.5,0l1.1,0.8
		c0.5,0.3,1.1,0.3,1.5,0l0.8-0.7c0.4-0.3,1-0.4,1.5-0.1l2,1.3"/>
	<line class="st0" x1="15.4" y1="11.5" x2="15.4" y2="19.6"/>
	<line class="st0" x1="12.7" y1="14.7" x2="12.7" y2="15.8"/>
</g>
</svg>
