<?xml version="1.0" encoding="utf-8"?>
<!-- Generator: Adobe Illustrator 24.2.1, SVG Export Plug-In . SVG Version: 6.00 Build 0)  -->
<svg version="1.1" id="레이어_1" xmlns="http://www.w3.org/2000/svg" xmlns:xlink="http://www.w3.org/1999/xlink" x="0px"
	 y="0px" width="24px" height="24px" viewBox="0 0 24 24" style="enable-background:new 0 0 24 24;" xml:space="preserve">
<style type="text/css">
	.st0{display:none;}
	.st1{display:inline;}
	.st2{fill:#FFFFFF;}
	.st3{fill:none;stroke:#FFFFFF;stroke-width:0.6957;stroke-linecap:round;stroke-linejoin:round;stroke-miterlimit:10;}
	.st4{fill:none;stroke:#FFFFFF;stroke-linecap:round;stroke-linejoin:round;stroke-miterlimit:10;}
</style>
<g id="레이어_1_1_">
	<g id="Layer_3" class="st0">
		<g class="st1">
			<g>
				<path class="st2" d="M14.31,10v1.4c0,0.25,0.14,0.47,0.35,0.6c0.11,0.06,0.23,0.09,0.35,0.09c0.12,0,0.24-0.03,0.34-0.09
					c0.02-0.01,0.38-0.21,1.05-0.21c0.6,0,1.4,0.18,1.4,1.7c0,1.19-1.54,2.3-2.46,2.97c-0.69,0.5-1.04,0.75-1.04,1.23l0,1l-7.3,0V10
					H14.31 M15,9.3H6.3v9.4c0,0.4,0.3,0.7,0.7,0.7h7.3c0.4,0,0.7-0.3,0.7-0.7c0,0,0-0.6,0-1c0-0.4,3.5-2,3.5-4.2
					c0-1.5-0.7-2.4-2.1-2.4c-0.9,0-1.4,0.3-1.4,0.3V9.3L15,9.3z"/>
			</g>
			<path class="st3" d="M15,13.6c0-0.5,0.3-1.2,1-1.2c0.7,0,1,0.6,1,1c0,1-2.1,1.9-2.1,2.4"/>
			<path class="st3" d="M9.8,4.6C8.9,5.1,8.4,5.8,9.3,6.4s0.5,1.2-0.5,1.9"/>
			<path class="st3" d="M12.6,3.4C11.5,4.1,10.9,5,12,5.8s0.5,1.6-0.6,2.4"/>
		</g>
	</g>
	<g id="Layer_4" class="st0">
		<g class="st1">
			<path class="st3" d="M8.9,14.1c1.7,0,4.2,0,5.9,0"/>
			<path class="st3" d="M17.9,14.1H20c0,0,0-1.5,0-2.1c0-0.8-2.4-1.8-4.2-2.1c-1.4-1.3-2.5-2.1-3.9-2.1s-2.1,0-2.7,0
				c-1.4,0-2.3,1-3.8,2.1c-0.7,0-0.7,0-1.1,0C4,10.8,3.9,12.3,4.1,13c0.2,0.7,0.6,1.1,1.3,1.1c0.1,0,0.3,0,0.3,0"/>
			<polyline class="st3" points="14.8,10.3 14.1,10.6 8.6,10.6 7.5,9.6 			"/>
			<g>
				<path class="st2" d="M16.4,13c0.5,0,0.9,0.41,0.9,0.9s-0.41,0.9-0.9,0.9c-0.5,0-0.9-0.41-0.9-0.9S15.9,13,16.4,13 M16.4,12.3
					c-0.88,0-1.6,0.72-1.6,1.6s0.72,1.6,1.6,1.6c0.88,0,1.6-0.72,1.6-1.6S17.29,12.3,16.4,12.3L16.4,12.3z"/>
			</g>
			<g>
				<path class="st2" d="M7.3,13c0.5,0,0.9,0.41,0.9,0.9s-0.41,0.9-0.9,0.9s-0.9-0.41-0.9-0.9S6.8,13,7.3,13 M7.3,12.3
					c-0.88,0-1.6,0.72-1.6,1.6s0.72,1.6,1.6,1.6c0.88,0,1.6-0.72,1.6-1.6S8.19,12.3,7.3,12.3L7.3,12.3z"/>
			</g>
		</g>
	</g>
	<g id="Layer_5" class="st0">
		<g class="st1">
			<g>
				<path class="st2" d="M11.8,3.6c-2.7,0-4.9,2.2-4.9,4.9c0,1.1,0.4,2.2,1.1,3.1c-0.7,0.9-1.1,2-1.1,3.1c0,2.7,2.2,4.9,4.9,4.9
					s4.9-2.2,4.9-4.9c0-1.1-0.4-2.2-1.1-3.1c0.7-0.8,1.1-1.9,1.1-3.1C16.7,5.8,14.5,3.6,11.8,3.6L11.8,3.6z M11.8,19.3
					c-2.5,0-4.5-2-4.5-4.5c0-1.1,0.4-2.2,1.1-3c0.1-0.1,0.1-0.2,0-0.3c-0.7-0.8-1.1-1.9-1.1-3C7.3,6,9.3,4,11.8,4s4.5,2,4.5,4.5
					c0,1.1-0.4,2.2-1.1,3c-0.1,0.1-0.1,0.2,0,0.3c0.7,0.8,1.1,1.9,1.1,3C16.3,17.3,14.3,19.3,11.8,19.3L11.8,19.3z"/>
			</g>
			<g>
				<path class="st2" d="M10.85,4.13c-0.05,0-0.1,0.02-0.15,0.08c-0.1,0.1-0.1,0.2,0,0.3c0.1,0.1,0.2,0.2,0.2,0.3c0,0,0,0.1-0.1,0.1
					L10.7,5C9.4,5.6,8.4,6.9,8.4,8.4c0,1.9,1.5,3.4,3.4,3.4c0.1,0,0.3,0,0.4,0c-0.9,0.8-1.3,1.8-1.3,1.9c0,0.1,0,0.2,0.1,0.2
					c0,0,0,0,0.1,0c0.1,0,0.1,0,0.2-0.1c0,0,0.8-1.8,2.2-2.4c1.1-0.6,1.8-1.7,1.8-3c-0.1-1.5-1-2.8-2.4-3.3C12.9,5,13,5,13,4.9
					c0-0.3-0.3-0.6-0.3-0.6c-0.05-0.05-0.1-0.07-0.15-0.07s-0.1,0.02-0.15,0.07c-0.1,0.1-0.1,0.2,0,0.3c0.1,0.1,0.2,0.2,0.2,0.3
					c0,0,0,0.1-0.1,0.1c-0.1,0-0.3,0-0.4-0.1c0-0.3-0.3-0.6-0.3-0.6c-0.05-0.05-0.1-0.07-0.15-0.07s-0.1,0.02-0.15,0.07
					c-0.1,0.1-0.1,0.2,0,0.3c0.1,0.1,0.2,0.2,0.2,0.3c-0.2,0-0.3,0-0.4,0V4.8c0-0.3-0.3-0.6-0.3-0.6
					C10.95,4.15,10.9,4.13,10.85,4.13L10.85,4.13z M11.8,6h0.1c0.1,0,0.2,0,0.2,0c0.1-0.1,0-0.2-0.1-0.3c-0.1-0.1-0.2-0.2-0.2-0.3
					c0,0,0,0,0-0.1c0.1,0,0.3,0,0.4,0c0,0.3,0.3,0.5,0.4,0.6h0.1C12.9,6,12.9,6,13,6c0.1-0.1,0-0.2-0.1-0.3c-0.1,0-0.2-0.1-0.2-0.2
					C14,5.9,14.9,7,14.9,8.4c0,1.7-1.4,3.1-3.1,3.1s-3-1.4-3-3.1c0-1.3,0.8-2.4,1.9-2.8C10.8,5.8,11,6,11,6h0.1c0.1,0,0.1,0,0.2-0.1
					c0.1-0.1,0-0.2-0.1-0.3S11,5.4,11,5.4c0.1,0,0.3-0.1,0.4-0.1c0,0,0,0,0,0.1C11.4,5.7,11.7,5.9,11.8,6L11.8,6z"/>
			</g>
			<g>
				<path class="st2" d="M10.8,7.3c-0.4,0-0.9,0.2-1,0.2S9.6,7.6,9.7,7.7c0,0.1,0.1,0.1,0.2,0.1c0,0,0,0,0.1,0c0,0,0.5-0.2,0.8-0.2
					c0.03,0.03,0.06,0.04,0.09,0.04C10.95,7.64,11,7.57,11,7.5C11,7.4,10.9,7.3,10.8,7.3L10.8,7.3z"/>
			</g>
			<g>
				<path class="st2" d="M12.8,7.3c-0.1,0-0.2,0.1-0.2,0.2s0.1,0.2,0.2,0.2c0.3,0,0.8,0.2,0.8,0.2s0,0,0.1,0c0.1,0,0.2-0.1,0.2-0.1
					c0-0.2,0-0.3-0.1-0.3C13.8,7.5,13.2,7.3,12.8,7.3L12.8,7.3z"/>
			</g>
			<g>
				<path class="st2" d="M10.55,8.43c-0.05,0-0.1,0.02-0.15,0.07c-0.1,0.1-0.1,0.2,0,0.3c0,0,0.6,0.6,1.4,0.6c0.4,0,0.9-0.1,1.4-0.5
					c0.1-0.1,0.1-0.2,0-0.3c0.1-0.1,0-0.1-0.1-0.1c-0.46,0.35-0.87,0.47-1.23,0.47c-0.66,0-1.1-0.4-1.17-0.47
					C10.65,8.45,10.6,8.43,10.55,8.43L10.55,8.43z"/>
			</g>
		</g>
	</g>
	<g id="Layer_6" class="st0">
		<g id="_x31_" class="st1">
			<path class="st2" d="M12.1,4c-0.9,0-1.6,0.8-1.6,1.7c0,0.1,0,0.1,0,0.2H10c-0.8,0-1.4,0.5-1.5,1.3H4.3c-0.4,0-0.9,0.3-0.9,0.7
				v11.2c0,0.4,0.4,0.9,0.9,0.9h15.6c0.4,0,0.8-0.5,0.8-0.9V7.9c-0.1-0.4-0.4-0.7-0.8-0.7h-4.2c-0.1-0.8-0.8-1.3-1.5-1.3h-0.4
				c0-0.1,0-0.2,0-0.3C13.7,4.8,13,4,12.1,4L12.1,4z M12.1,6.7c-0.6,0-1.1-0.5-1.1-1.1c0-0.6,0.4-1.1,1.1-1.1c0.6,0,1.1,0.5,1.1,1.1
				C13.2,6.2,12.7,6.7,12.1,6.7L12.1,6.7z M12.1,7.3c0.7,0,1.2-0.3,1.5-0.9h0.6c0.6,0,1,0.5,1,1c0,0.6-0.5,1-1,1H10
				c-0.6,0-1-0.5-1-1s0.4-0.9,1-0.9h0.6C10.9,6.9,11.4,7.3,12.1,7.3L12.1,7.3z M4.3,19.5c-0.1,0-0.3-0.2-0.3-0.4V7.9
				c0-0.1,0.2-0.2,0.3-0.2h4.2C8.6,8.4,9.2,9.1,10,9.1h4.1c0.8,0,1.4-0.6,1.5-1.3h4.2c0.1,0,0.2,0,0.2,0.2l0.1,11.1
				c0,0.1-0.1,0.4-0.2,0.4H4.3L4.3,19.5z M8.1,10.7c-0.8,0-1.5,0.7-1.5,1.5s0.7,1.5,1.5,1.5s1.5-0.7,1.5-1.5S8.9,10.7,8.1,10.7
				L8.1,10.7z M8.1,13.1c-0.5,0-0.9-0.4-0.9-0.9c-0.1-0.5,0.4-0.9,0.9-0.9S9,11.7,9,12.2S8.6,13.1,8.1,13.1L8.1,13.1z M18.3,11.3
				h-5.5c-0.1,0-0.3,0.1-0.3,0.3c0,0.1,0.1,0.3,0.3,0.3h5.5c0.1,0,0.3-0.1,0.3-0.3C18.6,11.4,18.4,11.3,18.3,11.3L18.3,11.3z
				 M18.3,13.2h-5.5c-0.1,0-0.3,0.1-0.3,0.3c0,0.1,0.1,0.3,0.3,0.3h5.5c0.1,0,0.3-0.1,0.3-0.3S18.4,13.2,18.3,13.2L18.3,13.2z
				 M9.09,13.62C9,13.62,8.9,13.65,8.8,13.7L8,14.2l-0.8-0.5c-0.05-0.05-0.15-0.07-0.25-0.07s-0.2,0.02-0.25,0.07
				c-0.6,0.4-1,0.8-1,1.3v1.6c0,0.3,0.3,0.5,0.5,0.5h3.6c0.3,0,0.4-0.3,0.4-0.5V15c0-0.5-0.4-1-0.9-1.3
				C9.25,13.65,9.18,13.62,9.09,13.62L9.09,13.62z M8.1,14.8l1-0.7c0.3,0.2,0.6,0.5,0.6,0.9v1.6H6.3V15c0-0.3,0.3-0.6,0.7-0.9
				L8.1,14.8L8.1,14.8z M18.3,14.9h-5.5c-0.1,0-0.3,0.1-0.3,0.3c0,0.1,0.1,0.3,0.3,0.3h5.5c0.1,0,0.3-0.1,0.3-0.3
				S18.4,14.9,18.3,14.9L18.3,14.9z M15.7,16.8h-2.9c-0.1,0-0.3,0.1-0.3,0.3c0,0.2,0.1,0.3,0.3,0.3h2.9c0.1,0,0.3-0.1,0.3-0.3
				C16,16.9,15.8,16.8,15.7,16.8L15.7,16.8z"/>
		</g>
	</g>
	<g>
		<path class="st4" d="M14.9,13.5c0.1-0.3,1.4-5.5-1.4-8.8c-2.4-2.8-5.1-1.9-6.9-0.6C5,5.4,2.8,6.5,1.7,7.3C0.6,8,0.8,9.7,2.2,10
			c1.7,0.4,3.3,0.4,4.6,0.1C7.7,9.9,8.6,9.4,9.4,9c0.6-0.3,0.7-0.3,1.1-0.3 M20.1,19.4c0.9,0,2.4-0.2,2.9-0.5
			c-0.1-1-0.9-2.2-2.4-2.9c-1.3-0.6-3.4-0.7-4.8-0.5c-0.2,0-2.4-1-5.3-0.5 M10.1,4.5c2.2,1.8,1.9,4.1,1.3,5.6s-4,4.9-3.2,8.3
			c0.6,2.5,2.4,2.6,4.3,2.4c1.2-0.1,1.9-0.5,2.4-0.5c1.1,0.6,5.2,1.4,7.2,0"/>
		<line class="st4" x1="18.2" y1="17.5" x2="19.2" y2="17.5"/>
	</g>
</g>
<g id="레이어_2_1_">
</g>
</svg>
