<?xml version="1.0" encoding="utf-8"?>
<!-- Generator: Adobe Illustrator 24.2.1, SVG Export Plug-In . SVG Version: 6.00 Build 0)  -->
<svg version="1.1" id="레이어_1" xmlns="http://www.w3.org/2000/svg" xmlns:xlink="http://www.w3.org/1999/xlink" x="0px"
	 y="0px" width="30px" height="24px" viewBox="0 0 30 24" style="enable-background:new 0 0 30 24;" xml:space="preserve">
<style type="text/css">
	.st0{fill:#2B79C9;}
</style>
<g>
	<path class="st0" d="M9.6,23.5c3.1-1.8,6.2-3.6,9.3-5.5c2.4-1.4,4.9-2.8,7.3-4.3c0.2-0.1,0.3-0.3,0.3-0.4c0-0.1,0-0.3-0.2-0.4
		c-0.4-0.4-0.8-0.8-1.2-1.2c0.5-0.3,0.9-0.5,1.4-0.8c0.2-0.1,0.3-0.3,0.3-0.4c0-0.1,0-0.3-0.2-0.4c-0.4-0.4-0.8-0.8-1.2-1.2
		c0.4-0.2,0.9-0.5,1.3-0.7c0.2-0.1,0.3-0.3,0.3-0.4c0-0.1,0-0.3-0.2-0.4c-2.2-2.2-4.3-4.3-6.5-6.5c-0.2-0.2-0.5-0.2-0.7-0.1
		c-3.1,1.8-6.2,3.6-9.3,5.5c-2.4,1.4-4.9,2.8-7.3,4.3c-0.3,0.2-0.4,0.6-0.1,0.9c0.4,0.4,0.8,0.8,1.2,1.2c-0.4,0.2-0.9,0.5-1.3,0.7
		c-0.3,0.2-0.4,0.6-0.1,0.9c0.4,0.4,0.8,0.8,1.2,1.2c-0.5,0.3-0.9,0.5-1.4,0.8c-0.3,0.2-0.4,0.6-0.1,0.9c2.2,2.2,4.3,4.3,6.5,6.5
		C9.1,23.5,9.4,23.6,9.6,23.5z M12.9,5.8c2.3-1.4,4.6-2.7,6.9-4.1c1.9,1.9,3.8,3.8,5.7,5.7c-0.3,0.2-0.6,0.4-0.9,0.5
		c-0.2,0.1-0.3,0.2-0.5,0.3c-0.2,0.1-0.3,0.2-0.5,0.3c-0.3,0.2-0.7,0.4-1,0.6c-0.3,0.2-0.6,0.4-1,0.6c-1.6,0.9-3.2,1.9-4.8,2.8
		c-2.3,1.4-4.6,2.7-6.9,4.1c-0.7-0.8-1.5-1.5-2.2-2.3c-0.3-0.3-0.5-0.5-0.8-0.8c-0.3-0.3-0.6-0.6-0.9-0.9c-0.1-0.1-0.3-0.3-0.4-0.4
		c-0.1-0.1-0.3-0.3-0.4-0.4c-0.3-0.3-0.6-0.6-0.9-0.9C7.1,9.2,10,7.5,12.9,5.8z M4.9,13.1c0.3,0.3,0.6,0.6,0.9,0.9
		c0.3,0.3,0.5,0.5,0.8,0.8c0.9,0.9,1.8,1.8,2.7,2.8c0.2,0.2,0.5,0.2,0.7,0.1c3.1-1.8,6.2-3.6,9.3-5.5c1-0.6,2-1.2,3-1.8
		c0.3-0.2,0.6-0.4,1-0.6c0.3-0.2,0.7-0.4,1-0.6c0.3,0.3,0.6,0.6,0.9,0.9c-0.3,0.2-0.7,0.4-1,0.6c-0.3,0.2-0.6,0.4-1,0.6
		c-2.2,1.3-4.5,2.6-6.7,3.9c-2.3,1.4-4.6,2.7-6.9,4.1c-1.3-1.3-2.6-2.6-3.9-4c-0.3-0.3-0.5-0.5-0.8-0.8C4.6,14.3,4.3,14,4,13.7
		C4.3,13.5,4.6,13.3,4.9,13.1z M4.8,16c1.5,1.5,2.9,3,4.4,4.5c0.2,0.2,0.5,0.2,0.7,0.1c3.1-1.8,6.2-3.6,9.3-5.5
		c1.6-1,3.3-1.9,4.9-2.9c0.3,0.3,0.6,0.6,0.9,0.9c-2.9,1.7-5.8,3.4-8.7,5.1c-2.3,1.4-4.6,2.7-6.9,4.1c-1.9-1.9-3.8-3.8-5.7-5.7
		C4.1,16.4,4.4,16.2,4.8,16z"/>
	<path class="st0" d="M6.4,12.1l0.1,0.1l0.3,0.3l0.6,0.6L8.3,14l0.8,0.9l0.3-0.3l0,0c0.3-0.2,0.9-0.1,1.2,0.2l0,0l0.2,0.4l6.4-3.8v0
		l3.8-2.2l1-0.6l1-0.6l0,0l-0.4-0.6l0,0c0,0,0,0-0.1-0.1l-0.1-0.1c0-0.1,0-0.1,0-0.2c0,0,0,0,0-0.1l0.1-0.1l0.4-0.4l0.2-0.2
		l-0.4-0.4l-0.4-0.4L21,3.9v0l-0.4-0.4l-0.2,0.2l-0.1,0.1l0,0c-0.1,0.1-0.3,0.1-0.4,0.1c-0.1,0-0.1,0-0.2,0c-0.2,0-0.4-0.1-0.6-0.3
		l0,0l0,0l-0.2-0.4L13,6.7L7.4,9.9l0,0l-0.8,0.5l0.2,0.4L7,11l0,0c0,0,0,0,0.1,0.1l0.1,0.1c0,0,0,0,0,0c0,0,0,0.1,0,0.1
		c0,0,0,0,0,0.1L6.4,12.1z M8.2,11.2c0-0.1,0-0.3-0.1-0.4l5.5-3.2l5-2.9l0.1,0c0.1,0.1,0.3,0.2,0.5,0.2C19.3,5,19.6,5,19.8,5
		c0.1,0,0.2,0,0.3,0c0.1,0,0.2,0,0.3-0.1l1.3,1.3c-0.1,0.1-0.1,0.2-0.1,0.2c0,0.1-0.1,0.2-0.1,0.3c0,0.2,0,0.5,0.1,0.7l-0.4,0.2
		l-1,0.6l-4.2,2.4v0l-4.9,2.9v0l-0.1,0c-0.5-0.4-1.2-0.5-1.8-0.3l0,0l-0.8-0.8L8,12.1c0.1-0.2,0.2-0.4,0.2-0.6
		C8.2,11.4,8.2,11.3,8.2,11.2z"/>
	<path class="st0" d="M13.5,10.1c0.2,0.2,0.4,0.3,0.6,0.4c0.3,0.1,0.6,0.2,0.9,0.2c0,0,0,0,0,0c0.3,0,0.7-0.1,0.9-0.2
		c0.4-0.2,0.6-0.6,0.7-1c0-0.1,0-0.3,0-0.4c-0.1-0.3-0.2-0.6-0.4-0.8c0,0-0.1-0.1-0.1-0.1c-0.4-0.3-0.9-0.5-1.4-0.5
		c-0.1,0-0.2,0-0.4,0c-0.2,0-0.4,0.1-0.6,0.2c-0.2,0.1-0.3,0.2-0.4,0.4c-0.1,0.2-0.2,0.4-0.3,0.6c0,0.3,0,0.6,0.2,0.9
		C13.4,9.9,13.4,10,13.5,10.1z M14.2,9c0-0.1,0.1-0.2,0.2-0.2c0.1-0.1,0.2-0.1,0.4-0.1c0.1,0,0.2,0,0.3,0c0.2,0,0.3,0.1,0.4,0.2
		c0.1,0.1,0.2,0.2,0.1,0.3c0,0.1-0.1,0.2-0.2,0.2c-0.1,0.1-0.2,0.1-0.4,0.1c-0.3,0-0.5-0.1-0.7-0.3c0,0-0.1-0.1-0.1-0.1
		C14.2,9.1,14.2,9,14.2,9z"/>
	<path class="st0" d="M17.9,7.5c0.2,0.2,0.4,0.3,0.6,0.3c0,0,0,0,0,0c0.2,0,0.3,0,0.4-0.1c0.2-0.1,0.3-0.2,0.3-0.4c0,0,0-0.1,0-0.1
		c0,0,0,0,0,0c0-0.2-0.1-0.5-0.2-0.6c0,0-0.1-0.1-0.1-0.1c-0.1-0.1-0.3-0.2-0.5-0.2c-0.2,0-0.3,0-0.4,0.1c-0.2,0.1-0.3,0.3-0.4,0.5
		c0,0.1,0,0.2,0,0.3C17.7,7.3,17.8,7.4,17.9,7.5z M18.2,7c0-0.1,0-0.1,0.1-0.2c0,0,0.1-0.1,0.1-0.1c0,0,0.1,0,0.1,0c0,0,0,0,0,0
		c0.1,0,0.1,0,0.1,0.1c0.1,0.1,0.1,0.2,0.1,0.3c0,0.1-0.1,0.2-0.2,0.3c0,0-0.1,0-0.1,0c-0.1,0-0.1,0-0.1-0.1
		C18.2,7.2,18.2,7.1,18.2,7z"/>
	<path class="st0" d="M10.7,11.7c0.2,0.2,0.4,0.3,0.6,0.3c0.2,0,0.3,0,0.4-0.1c0.2-0.1,0.3-0.3,0.4-0.5c0-0.2-0.1-0.5-0.2-0.6
		c0,0-0.1-0.1-0.1-0.1c-0.1-0.1-0.3-0.2-0.5-0.2c-0.2,0-0.3,0-0.4,0.1c-0.2,0.1-0.3,0.3-0.4,0.5c0,0.1,0,0.2,0,0.3
		C10.5,11.5,10.6,11.6,10.7,11.7z M11,11.2c0-0.1,0-0.1,0.1-0.2c0,0,0.1-0.1,0.1-0.1c0,0,0.1,0,0.1,0c0,0,0,0,0,0
		c0.1,0,0.1,0,0.1,0.1c0.1,0.1,0.1,0.2,0.1,0.3c0,0.1-0.1,0.2-0.2,0.3c0,0-0.1,0-0.1,0c-0.1,0-0.1,0-0.1-0.1
		C11,11.4,11,11.3,11,11.2z"/>
</g>
</svg>
