<?xml version="1.0" encoding="utf-8"?>
<!-- Generator: Adobe Illustrator 24.2.1, SVG Export Plug-In . SVG Version: 6.00 Build 0)  -->
<svg version="1.1" id="레이어_1" xmlns="http://www.w3.org/2000/svg" xmlns:xlink="http://www.w3.org/1999/xlink" x="0px"
	 y="0px" width="12px" height="12px" viewBox="0 0 12 12" style="enable-background:new 0 0 12 12;" xml:space="preserve">
<style type="text/css">
	.st0{fill:none;stroke:#9DC2E2;stroke-linecap:round;stroke-linejoin:round;stroke-miterlimit:10;}
</style>
<g>
	<path class="st0" d="M10.9,9.33L4.8,7.1V2.8l6.12-1.79c0.3-0.06,0.58,0.16,0.58,0.47v7.39C11.5,9.19,11.2,9.41,10.9,9.33z"/>
	<path class="st0" d="M3.25,10.78L2.3,10.54c-0.21-0.05-0.36-0.24-0.36-0.46V7.1h1.91v3.21C3.85,10.63,3.56,10.86,3.25,10.78z"/>
	<path class="st0" d="M2.65,7.1H4.8V2.8H2.65C1.46,2.8,0.5,3.76,0.5,4.95v0C0.5,6.14,1.46,7.1,2.65,7.1z"/>
</g>
</svg>
