<?xml version="1.0" encoding="utf-8"?>
<!-- Generator: Adobe Illustrator 24.2.1, SVG Export Plug-In . SVG Version: 6.00 Build 0)  -->
<svg version="1.1" id="레이어_1" xmlns="http://www.w3.org/2000/svg" xmlns:xlink="http://www.w3.org/1999/xlink" x="0px"
	 y="0px" width="24px" height="24px" viewBox="0 0 24 24" style="enable-background:new 0 0 24 24;" xml:space="preserve">
<style type="text/css">
	.st0{fill:#333333;}
</style>
<path class="st0" d="M3.1,22.7c-0.3-0.2-0.5-0.6-0.5-0.9l0,0l0-10.8c0-0.3,0.1-0.7,0.2-1c0.1-0.3,0.3-0.6,0.6-0.8
	c1.1-1,2.2-2.2,3.4-3.4c1.3-1.4,2.7-2.9,4-4l0,0c0.4-0.3,0.8-0.5,1.3-0.6c0.5,0,0.9,0.1,1.4,0.5l0,0c1.4,1.2,2.7,2.6,4,4.1
	c1.1,1.2,2.3,2.5,3.4,3.5c0.3,0.2,0.5,0.5,0.6,0.8c0.1,0.3,0.2,0.6,0.2,1v9.4c0,0.1,0,0.2,0,0.3c0,0.2,0,0.3,0,0.5c0,1-0.2,2-1.6,2
	h-4.8c-0.4,0-0.8-0.2-1-0.4c-0.3-0.3-0.4-0.6-0.4-1v-6.5c0-0.1,0-0.1-0.1-0.2c0,0-0.1-0.1-0.2-0.1h-3.1c-0.1,0-0.1,0-0.2,0.1
	c0,0-0.1,0.1-0.1,0.2v6.5c0,0.4-0.2,0.8-0.4,1c-0.3,0.3-0.6,0.4-1,0.4H4.1C3.7,23.1,3.4,23,3.1,22.7L3.1,22.7z M4.1,21.6l4.7,0v-6.4
	c0-0.5,0.2-0.9,0.5-1.2c0.3-0.3,0.8-0.5,1.2-0.5h3.1c0.5,0,0.9,0.2,1.2,0.5c0.3,0.3,0.5,0.8,0.5,1.2v6.4h4.7c0,0,0-0.2,0-0.5
	c0-0.2,0-0.3,0-0.4l0-0.3V11c0-0.1,0-0.3-0.1-0.4c0-0.1-0.1-0.2-0.2-0.3c-1.2-1.1-2.3-2.3-3.5-3.6c-1.3-1.4-2.6-2.8-3.9-3.9
	c-0.2-0.1-0.3-0.2-0.4-0.2c-0.1,0-0.3,0.1-0.4,0.2c-1.3,1.1-2.6,2.5-3.9,3.9C6.7,8,5.6,9.2,4.4,10.3c-0.1,0.1-0.2,0.2-0.2,0.3
	c0,0.1-0.1,0.2-0.1,0.4L4.1,21.6L4.1,21.6z"/>
</svg>
