<?xml version="1.0" encoding="utf-8"?>
<!-- Generator: Adobe Illustrator 24.2.1, SVG Export Plug-In . SVG Version: 6.00 Build 0)  -->
<svg version="1.1" id="레이어_1" xmlns="http://www.w3.org/2000/svg" xmlns:xlink="http://www.w3.org/1999/xlink" x="0px"
	 y="0px" width="24px" height="24px" viewBox="0 0 24 24" style="enable-background:new 0 0 24 24;" xml:space="preserve">
<style type="text/css">
	.st0{fill:#333333;}
</style>
<path class="st0" d="M9.3,3.2H15c0.4,0,0.7,0.3,0.7,0.7v0.4C15.7,4.7,15.4,5,15,5H9.3C8.9,5,8.6,4.7,8.6,4.3V3.9
	C8.6,3.6,8.9,3.2,9.3,3.2L9.3,3.2z M8,16h0.7c0.4,0,0.7,0.3,0.7,0.7v0.2c0,0.4-0.3,0.7-0.7,0.7H8c-0.4,0-0.7-0.3-0.7-0.7v-0.2
	C7.3,16.3,7.6,16,8,16L8,16z M11.8,16h0.7c0.4,0,0.7,0.3,0.7,0.7v0.2c0,0.4-0.3,0.7-0.7,0.7h-0.7c-0.4,0-0.7-0.3-0.7-0.7v-0.2
	C11.1,16.3,11.4,16,11.8,16L11.8,16z M15.6,16h0.7c0.4,0,0.7,0.3,0.7,0.7v0.2c0,0.4-0.3,0.7-0.7,0.7h-0.7c-0.4,0-0.7-0.3-0.7-0.7
	v-0.2C14.9,16.3,15.2,16,15.6,16L15.6,16z M4.1,4.1l0,0.4C4.1,4.7,4,5,3.7,5.1C3.3,5.3,3,5.7,3,6.2v13.2c0,0.3,0.1,0.6,0.3,0.8
	c0.2,0.2,0.5,0.3,0.8,0.3h16.1c0.6,0,1.2-0.5,1.2-1.2V6.2c0-0.3-0.1-0.6-0.3-0.8c-0.1-0.1-0.2-0.2-0.4-0.3c-0.3-0.1-0.4-0.4-0.4-0.7
	l0-0.4c0-0.2,0.1-0.4,0.3-0.6c0.2-0.1,0.4-0.2,0.6-0.1c0.4,0.1,0.8,0.4,1.2,0.7c0.5,0.5,0.9,1.3,0.9,2.1v13.2c0,1.7-1.7,3-3.3,3H4.1
	c-0.8,0-1.6-0.3-2.1-0.9c-0.5-0.5-0.9-1.3-0.9-2.1V6.2c0-1.3,0.9-2.4,2-2.8c0.2-0.1,0.5,0,0.7,0.1C4,3.6,4.1,3.8,4.1,4.1L4.1,4.1z
	 M11.8,12.9h0.7c0.4,0,0.7,0.3,0.7,0.7v0.2c0,0.4-0.3,0.7-0.7,0.7h-0.7c-0.4,0-0.7-0.3-0.7-0.7v-0.2C11.1,13.2,11.4,12.9,11.8,12.9
	L11.8,12.9z M15.6,12.9h0.7c0.4,0,0.7,0.3,0.7,0.7v0.2c0,0.4-0.3,0.7-0.7,0.7h-0.7c-0.4,0-0.7-0.3-0.7-0.7v-0.2
	C14.9,13.2,15.2,12.9,15.6,12.9L15.6,12.9z M8,12.9h0.7c0.4,0,0.7,0.3,0.7,0.7v0.2c0,0.4-0.3,0.7-0.7,0.7H8c-0.4,0-0.7-0.3-0.7-0.7
	v-0.2C7.3,13.2,7.6,12.9,8,12.9L8,12.9z M8,9.9h0.7c0.4,0,0.7,0.3,0.7,0.7v0.2c0,0.4-0.3,0.7-0.7,0.7H8c-0.4,0-0.7-0.3-0.7-0.7v-0.2
	C7.3,10.2,7.6,9.9,8,9.9L8,9.9z M11.8,9.9h0.7c0.4,0,0.7,0.3,0.7,0.7v0.2c0,0.4-0.3,0.7-0.7,0.7h-0.7c-0.4,0-0.7-0.3-0.7-0.7v-0.2
	C11.1,10.2,11.4,9.9,11.8,9.9L11.8,9.9z M15.6,9.9h0.7c0.4,0,0.7,0.3,0.7,0.7v0.2c0,0.4-0.3,0.7-0.7,0.7h-0.7
	c-0.4,0-0.7-0.3-0.7-0.7v-0.2C14.9,10.2,15.2,9.9,15.6,9.9L15.6,9.9z M18.9,2.5v3.9c0,0.4-0.3,0.7-0.7,0.7h-0.4
	c-0.4,0-0.7-0.3-0.7-0.7V2.5c0-0.4,0.3-0.7,0.7-0.7h0.4C18.5,1.8,18.9,2.1,18.9,2.5L18.9,2.5z M7.3,2.5v3.9c0,0.4-0.3,0.7-0.7,0.7
	H6.2c-0.4,0-0.7-0.3-0.7-0.7V2.5c0-0.4,0.3-0.7,0.7-0.7h0.4C7,1.8,7.3,2.1,7.3,2.5L7.3,2.5z"/>
</svg>
