<?xml version="1.0" encoding="utf-8"?>
<!-- Generator: Adobe Illustrator 24.2.1, SVG Export Plug-In . SVG Version: 6.00 Build 0)  -->
<svg version="1.1" id="레이어_1" xmlns="http://www.w3.org/2000/svg" xmlns:xlink="http://www.w3.org/1999/xlink" x="0px"
	 y="0px" width="16px" height="16px" viewBox="0 0 16 16" style="enable-background:new 0 0 16 16;" xml:space="preserve">
<style type="text/css">
	.st0{fill:#777777;}
</style>
<path class="st0" d="M13.9,9.9c-0.2-0.1-0.4,0-0.5,0.1l-1.2,1.3c-0.2,0.2-0.1,0.5,0,0.6c0.2,0.2,0.5,0.2,0.6,0l0.5-0.5v1.2
	c0,1.3-1.1,2.4-2.4,2.4S8.4,14,8.4,12.7V3.2C9.1,3,9.6,2.4,9.6,1.6C9.6,0.7,8.9,0,8,0C7.1,0,6.4,0.7,6.4,1.6c0,0.8,0.5,1.4,1.2,1.6
	v9.5c0,1.3-1.1,2.4-2.4,2.4S2.7,14,2.7,12.7v-1.2L3.2,12c0.2,0.2,0.4,0.2,0.6,0c0.2-0.2,0.2-0.4,0-0.6l-1.2-1.3
	C2.5,9.9,2.3,9.9,2.1,9.9C2,10,1.8,10.2,1.8,10.4v2.4c0,1.8,1.5,3.3,3.3,3.3c1.2,0,2.3-0.7,2.9-1.7c0.6,1,1.6,1.7,2.9,1.7
	c1.8,0,3.3-1.5,3.3-3.3v-2.4C14.2,10.2,14,10,13.9,9.9z M7.2,1.6c0-0.4,0.3-0.8,0.8-0.8c0.4,0,0.8,0.3,0.8,0.8
	c0,0.4-0.3,0.8-0.8,0.8c0,0,0,0,0,0s0,0,0,0C7.6,2.4,7.2,2.1,7.2,1.6z"/>
</svg>
