<?xml version="1.0" encoding="utf-8"?>
<!-- Generator: Adobe Illustrator 24.0.1, SVG Export Plug-In . SVG Version: 6.00 Build 0)  -->
<svg version="1.1" id="Layer_1" xmlns="http://www.w3.org/2000/svg" xmlns:xlink="http://www.w3.org/1999/xlink" x="0px" y="0px"
	 width="20px" height="20px" viewBox="0 0 20 20" style="enable-background:new 0 0 20 20;" xml:space="preserve">
<style type="text/css">
	.st0{fill:#FFFFFF;}
</style>
<path class="st0" d="M18.3,10c0,4.3-3.3,7.9-7.5,8.3v-7.5h3.3V9.2h-3.3V6.5c1.4-0.4,2.5-1.7,2.5-3.2C13.3,1.5,11.8,0,10,0
	S6.7,1.5,6.7,3.3c0,1.5,1.1,2.8,2.5,3.2v2.6H5.8v1.7h3.3v7.5c-4.2-0.4-7.5-4-7.5-8.3H0c0,5.5,4.5,10,10,10s10-4.5,10-10H18.3z
	 M8.3,3.3C8.3,2.4,9,1.6,10,1.6c0.9,0,1.7,0.7,1.7,1.7S10.9,5,10,5S8.3,4.3,8.3,3.3z"/>
</svg>
