<?xml version="1.0" encoding="utf-8"?>
<!-- Generator: Adobe Illustrator 24.0.1, SVG Export Plug-In . SVG Version: 6.00 Build 0)  -->
<svg version="1.1" id="Layer_1" xmlns="http://www.w3.org/2000/svg" xmlns:xlink="http://www.w3.org/1999/xlink" x="0px" y="0px"
	 width="20px" height="20px" viewBox="0 0 20 20" style="enable-background:new 0 0 20 20;" xml:space="preserve">
<style type="text/css">
	.st0{fill:#787878;}
</style>
<path class="st0" d="M17.5,12.4c-0.9,0-1.7-0.7-1.7-1.7V7.4c0-3.2-2.6-5.8-5.8-5.8S4.2,4.2,4.2,7.4v3.3c0,0.9-0.7,1.7-1.7,1.7
	c-0.7,0-1.3,0.3-1.8,0.7C0.3,13.6,0,14.2,0,14.9c0,1.4,1.1,2.5,2.5,2.5h5.2c0.3,1,1.3,1.7,2.3,1.7s2-0.7,2.3-1.7h5.2
	c1.4,0,2.5-1.1,2.5-2.5S18.9,12.4,17.5,12.4z M17.5,15.7h-15c-0.5,0-0.8-0.4-0.8-0.8c0-0.2,0.1-0.4,0.3-0.6c0.2-0.2,0.4-0.2,0.6-0.2
	c1.8,0,3.3-1.5,3.3-3.3V7.4c0-2.3,1.9-4.2,4.2-4.2s4.2,1.9,4.2,4.2v3.3c0,1.8,1.5,3.3,3.3,3.3c0.5,0,0.8,0.4,0.8,0.8
	C18.3,15.4,18,15.7,17.5,15.7z"/>
</svg>
