<?xml version="1.0" encoding="utf-8"?>
<!-- Generator: Adobe Illustrator 24.0.1, SVG Export Plug-In . SVG Version: 6.00 Build 0)  -->
<svg version="1.1" id="Layer_1" xmlns="http://www.w3.org/2000/svg" xmlns:xlink="http://www.w3.org/1999/xlink" x="0px" y="0px"
	 width="20px" height="20px" viewBox="0 0 20 20" style="enable-background:new 0 0 20 20;" xml:space="preserve">
<style type="text/css">
	.st0{fill:#787878;}
</style>
<path class="st0" d="M10,0.1c-5.5,0-9.9,4.5-9.9,9.9v9.9H10c5.5,0,9.9-4.5,9.9-9.9S15.5,0.1,10,0.1z M10,18.3H1.7V10
	c0-4.6,3.7-8.3,8.3-8.3s8.3,3.7,8.3,8.3S14.6,18.3,10,18.3z M9.2,10.8h1.7V9.2H9.2V10.8z M5.9,10.8h1.7V9.2H5.9V10.8z M12.5,10.8
	h1.7V9.2h-1.7V10.8z"/>
</svg>
