<?xml version="1.0" encoding="utf-8"?>
<!-- Generator: Adobe Illustrator 24.0.1, SVG Export Plug-In . SVG Version: 6.00 Build 0)  -->
<svg version="1.1" id="Layer_1" xmlns="http://www.w3.org/2000/svg" xmlns:xlink="http://www.w3.org/1999/xlink" x="0px" y="0px"
	 width="20px" height="20px" viewBox="0 0 20 20" style="enable-background:new 0 0 20 20;" xml:space="preserve">
<style type="text/css">
	.st0{fill:#FFFFFF;}
</style>
<path class="st0" d="M16.2,7l3.6-3.7l-0.6-0.6c-2-1.9-4.9-2.4-7.4-1.4C7.7-0.6,2.4-0.2,0.6,0.9L0.2,1.2v0.5c0,7.2,5.8,8.5,9.3,9.2
	c0.7,0.2,1.7,0.4,2.1,0.6c0,0.1-0.1,0.1-0.2,0.2c-3.1,0.3-5,2.2-7.1,4.2l-2,2.1l2.9-0.7c3.4-0.8,8.4-0.6,11.2,1.7l1.2,1l0.1-1.6
	c0-0.1,0.2-2.9-1.9-4.8C17.1,11.6,17.2,9.1,16.2,7z M15.9,16.7c-2-1.1-4.4-1.5-6.8-1.5c-0.5,0-1.1,0-1.6,0.1
	c1.3-1.1,2.6-1.8,4.4-1.9h0.3l0.2-0.2c0.5-0.5,1.1-1.3,0.9-2.1c-0.3-1-1.6-1.3-3.4-1.7c-2-0.4-4.5-1-6.2-2.6c0.9-0.8,2.3-1,3.2-1
	V4.2c-1.8,0-3.2,0.4-4.2,1.1C2.3,4.5,2,3.4,1.9,2.2C3.6,1.5,8,1.3,11.4,3c0.7,0.3,1.7,1,2.3,1.7l1.2-1.2c-0.3-0.3-0.7-0.6-1.1-1
	c1.2-0.2,2.5,0.1,3.6,0.9l-3.3,3.3l0.3,0.6c1.2,1.9,1.1,4.2-0.4,6L13.4,14l0.7,0.5C15.2,15.1,15.6,15.9,15.9,16.7z"/>
</svg>
