<?xml version="1.0" encoding="utf-8"?>
<!-- Generator: Adobe Illustrator 24.0.1, SVG Export Plug-In . SVG Version: 6.00 Build 0)  -->
<svg version="1.1" id="Layer_1" xmlns="http://www.w3.org/2000/svg" xmlns:xlink="http://www.w3.org/1999/xlink" x="0px" y="0px"
	 width="20px" height="20px" viewBox="0 0 20 20" style="enable-background:new 0 0 20 20;" xml:space="preserve">
<style type="text/css">
	.st0{fill:#787878;}
</style>
<g>
	<rect x="9.2" y="4.5" class="st0" width="1.7" height="5.8"/>
	<polygon class="st0" points="16.7,12 3.3,12 3.3,3.6 1.7,3.6 1.7,13.6 18.3,13.6 18.3,3.6 16.7,3.6 	"/>
	<path class="st0" d="M19.2,0.3H0.8C0.4,0.3,0,0.7,0,1.1S0.4,2,0.8,2h18.3C19.6,2,20,1.6,20,1.1S19.6,0.3,19.2,0.3z"/>
	<path class="st0" d="M10.8,15.7v-1.3H9.2v1.3l-3,2.3c-0.4,0.3-0.4,0.8-0.2,1.2c0.3,0.4,0.8,0.4,1.2,0.2l2.8-2.1l2.8,2.1
		c0.1,0.1,0.3,0.2,0.5,0.2c0.3,0,0.5-0.1,0.7-0.3c0.3-0.4,0.2-0.9-0.2-1.2L10.8,15.7z"/>
	<rect x="5.8" y="7.8" class="st0" width="1.7" height="2.5"/>
	<rect x="12.5" y="6.1" class="st0" width="1.7" height="4.1"/>
</g>
</svg>
