<?xml version="1.0" encoding="utf-8"?>
<!-- Generator: Adobe Illustrator 24.2.1, SVG Export Plug-In . SVG Version: 6.00 Build 0)  -->
<svg version="1.1" id="Layer_1" xmlns="http://www.w3.org/2000/svg" xmlns:xlink="http://www.w3.org/1999/xlink" x="0px" y="0px"
	 width="30px" height="30px" viewBox="0 0 30 30" style="enable-background:new 0 0 30 30;" xml:space="preserve">
<style type="text/css">
	.st0{fill:#FFFFFF;}
</style>
<path class="st0" d="M16.4,10c2.2,0.1,3.9,1.9,4,4c0,0.5,0.5,1,1,1c0,0,0,0,0,0c0.6,0,1-0.5,1-1c-0.1-3.2-2.7-5.8-5.9-6
	c-0.5,0-1,0.4-1,1C15.4,9.5,15.9,10,16.4,10z M15.4,3c-0.6,0-1,0.4-1,1s0.4,1,1,1c5.5,0,10,4.5,10,10c0,0.6,0.4,1,1,1s1-0.4,1-1
	C27.4,8.4,22.1,3,15.4,3z M19.4,17c-2,0-3.7,1.2-4.5,2.9c-1.9-1-3.4-2.5-4.4-4.4c1.7-0.8,2.9-2.6,2.9-4.5c0-2.8-2.2-5-5-5
	s-5,2.2-5,5c0,8.8,7.2,16,16,16c2.8,0,5-2.2,5-5S22.2,17,19.4,17z M19.4,25c-7.7,0-14-6.3-14-14c0-1.7,1.3-3,3-3s3,1.3,3,3
	c0,1.4-1,2.7-2.4,2.9l-1.2,0.2l0.4,1.1c1.2,3.2,3.7,5.7,6.9,6.9l1.1,0.4l0.2-1.2C16.8,20,18,19,19.4,19c1.7,0,3,1.3,3,3
	S21.1,25,19.4,25z"/>
</svg>
