<?xml version="1.0" encoding="utf-8"?>
<!-- Generator: Adobe Illustrator 24.2.1, SVG Export Plug-In . SVG Version: 6.00 Build 0)  -->
<svg version="1.1" id="Layer_1" xmlns="http://www.w3.org/2000/svg" xmlns:xlink="http://www.w3.org/1999/xlink" x="0px" y="0px"
	 width="30px" height="30px" viewBox="0 0 30 30" style="enable-background:new 0 0 30 30;" xml:space="preserve">
<style type="text/css">
	.st0{fill:#FFFFFF;}
</style>
<g>
	<path class="st0" d="M15.6,17.1c1.4-1.1,2.4-2.8,2.4-4.8c0-3.3-2.7-6-6-6c-3.3,0-6,2.7-6,6c0,1.9,0.9,3.7,2.4,4.8
		c-2.9,1.3-5,4-5.4,7.2h2c0.5-3.4,3.5-6,7-6c3.5,0,6.5,2.6,7,6h2C20.6,21.2,18.5,18.4,15.6,17.1z M8,12.4c0-2.2,1.8-4,4-4
		c2.2,0,4,1.8,4,4s-1.8,4-4,4C9.8,16.4,8,14.6,8,12.4z"/>
	<path class="st0" d="M23.7,17c0.8-1,1.3-2.3,1.3-3.7c0-3.6-3.2-6.4-6.7-6c0.3,0.3,0.5,0.7,0.7,1.1c0.2,0.3,0.3,0.6,0.4,0.9
		c2.3,0.4,3.6,2.1,3.6,4c0,1.3-0.7,2.5-1.6,3.2c-0.3,0.2-0.4,0.5-0.4,0.9v0c0,0.5,0.3,0.9,0.8,1c1.8,0.4,3.2,2,3.2,3.9h2
		C27,20,25.7,18,23.7,17z"/>
</g>
</svg>
