<?xml version="1.0" encoding="utf-8"?>
<!-- Generator: Adobe Illustrator 24.2.1, SVG Export Plug-In . SVG Version: 6.00 Build 0)  -->
<svg version="1.1" id="Layer_1" xmlns="http://www.w3.org/2000/svg" xmlns:xlink="http://www.w3.org/1999/xlink" x="0px" y="0px"
	 width="30px" height="30px" viewBox="0 0 30 30" style="enable-background:new 0 0 30 30;" xml:space="preserve">
<style type="text/css">
	.st0{fill:#FFFFFF;}
</style>
<path class="st0" d="M22.4,12.6l4.3-4.4L26,7.5c-2.4-2.2-5.8-2.9-8.8-1.6C12.2,3.5,5.9,4,3.7,5.4L3.3,5.6v0.5
	c0,8.6,7,10.1,11.2,11.1c0.9,0.2,2,0.4,2.5,0.7c0,0.1-0.1,0.2-0.2,0.3c-3.7,0.3-6,2.6-8.5,5l-2.5,2.5l3.5-0.8c4.1-1,10-0.8,13.4,2
	l1.5,1.2l0.2-1.9c0-0.2,0.3-3.4-2.3-5.8C23.5,18.1,23.7,15.1,22.4,12.6z M22,24.2c-2.4-1.3-5.3-1.8-8.1-1.8c-0.6,0-1.3,0-1.9,0.1
	c1.6-1.4,3.1-2.2,5.2-2.3l0.4,0l0.3-0.3c0.6-0.6,1.4-1.5,1.1-2.5c-0.4-1.3-1.9-1.6-4-2.1c-2.4-0.5-5.4-1.2-7.4-3.1
	c1.1-0.8,2.8-1,3.8-1v-2c-2.1,0-3.8,0.5-5,1.4c-0.6-1-0.9-2.2-1-3.8c2.1-0.8,7.3-1,11.4,1c0.8,0.4,2,1.2,2.8,2l1.4-1.4
	c-0.4-0.4-0.8-0.8-1.4-1.2c1.5-0.2,3,0.2,4.3,1l-3.9,4l0.4,0.7c1.4,2.3,1.3,5-0.4,7.2l-0.7,0.8l0.9,0.6C21.2,22.3,21.8,23.3,22,24.2
	z"/>
</svg>
