<?xml version="1.0" encoding="utf-8"?>
<!-- Generator: Adobe Illustrator 24.2.1, SVG Export Plug-In . SVG Version: 6.00 Build 0)  -->
<svg version="1.1" id="Layer_1" xmlns="http://www.w3.org/2000/svg" xmlns:xlink="http://www.w3.org/1999/xlink" x="0px" y="0px"
	 width="30px" height="30px" viewBox="0 0 30 30" style="enable-background:new 0 0 30 30;" xml:space="preserve">
<style type="text/css">
	.st0{fill:#777777;}
</style>
<path class="st0" d="M23.8,12.5h0.1v-7h-5v-2h-2v5h2v-1h3v4.3c-0.6-0.2-1.3-0.3-2-0.3c-4.1,0-7.4,3.1-7.9,7H5.9v-11h1v-2h-3v15H12
	c0.5,3.9,3.9,7,7.9,7c4.4,0,8-3.6,8-8C27.9,16.5,26.3,13.9,23.8,12.5z M19.9,25.5c-3.3,0-6-2.7-6-6s2.7-6,6-6s6,2.7,6,6
	S23.3,25.5,19.9,25.5z M20.9,15.5h-2V20l2.3,2.3l1.4-1.4l-1.7-1.7C20.9,19.2,20.9,15.5,20.9,15.5z M9.9,10.5h-2v2h2V10.5z M10.9,7.5
	h4v-2h-4v-2h-2v5h2V7.5z M9.9,14.5h-2v2h2V14.5z M13.9,12.5v-2h-2v2H13.9z"/>
</svg>
