<?xml version="1.0" encoding="utf-8"?>
<!-- Generator: Adobe Illustrator 23.0.6, SVG Export Plug-In . SVG Version: 6.00 Build 0)  -->
<!DOCTYPE svg PUBLIC "-//W3C//DTD SVG 1.1//EN" "http://www.w3.org/Graphics/SVG/1.1/DTD/svg11.dtd" [
	<!ENTITY ns_extend "http://ns.adobe.com/Extensibility/1.0/">
	<!ENTITY ns_ai "http://ns.adobe.com/AdobeIllustrator/10.0/">
	<!ENTITY ns_graphs "http://ns.adobe.com/Graphs/1.0/">
	<!ENTITY ns_vars "http://ns.adobe.com/Variables/1.0/">
	<!ENTITY ns_imrep "http://ns.adobe.com/ImageReplacement/1.0/">
	<!ENTITY ns_sfw "http://ns.adobe.com/SaveForWeb/1.0/">
	<!ENTITY ns_custom "http://ns.adobe.com/GenericCustomNamespace/1.0/">
	<!ENTITY ns_adobe_xpath "http://ns.adobe.com/XPath/1.0/">
]>
<svg version="1.1" id="Layer_1" xmlns:x="&ns_extend;" xmlns:i="&ns_ai;" xmlns:graph="&ns_graphs;"
	 xmlns="http://www.w3.org/2000/svg" xmlns:xlink="http://www.w3.org/1999/xlink" x="0px" y="0px" width="36px" height="36px"
	 viewBox="0 0 36 36" style="enable-background:new 0 0 36 36;" xml:space="preserve">
<style type="text/css">
	.st0{fill:none;stroke:#00A1BA;stroke-width:1.44;stroke-linecap:round;stroke-linejoin:round;stroke-miterlimit:22.9256;}
	.st1{fill:none;stroke:#FF8F33;stroke-width:1.44;stroke-linecap:round;stroke-linejoin:round;stroke-miterlimit:22.9256;}
</style>
<metadata>
	<sfw  xmlns="&ns_sfw;">
		<slices></slices>
		<sliceSourceBounds  bottomLeftOrigin="true" height="30" width="34.9" x="0.5" y="3.8"></sliceSourceBounds>
	</sfw>
</metadata>
<g>
	<path class="st0" d="M18.4,31.5c7.5,0,5.4,0,7.1,0c3.9,0,7-2.9,7-6.4c0-3.5-3.1-6.4-7-6.4c-0.5,0-1,0-1.4,0.1
		c-1.3-3-4.5-5.2-8.3-5.2c-4.9,0-8.9,3.7-8.9,8.2l0,0.1c-0.1,0-0.2,0-0.3,0c-2.9,0-5.2,2.1-5.2,4.8c0,2.6,2.3,4.8,5.2,4.8
		C8.5,31.5,10.5,31.5,18.4,31.5L18.4,31.5z"/>
	<path class="st1" d="M17.4,13.3c0.5-2.5,2.5-4.5,5.2-4.8c3.2-0.3,6.2,2,6.5,5.3c0.2,1.7-0.4,3.4-1.5,4.6"/>
	<polygon class="st1" points="22.4,5.2 22.1,2.9 22.4,5.2 	"/>
	<polygon class="st1" points="17.8,6.8 16.5,5 17.8,6.8 	"/>
	<polygon class="st1" points="14.8,10.6 12.7,9.7 14.8,10.6 	"/>
	<polygon class="st1" points="31.7,18.3 33.8,19.2 31.7,18.3 	"/>
	<polygon class="st1" points="32.5,13.5 34.7,13.3 32.5,13.5 	"/>
	<polygon class="st1" points="30.8,9 32.6,7.7 30.8,9 	"/>
	<polygon class="st1" points="27.1,6 28,3.9 27.1,6 	"/>
</g>
</svg>
