<?xml version="1.0" encoding="utf-8"?>
<!-- Generator: Adobe Illustrator 24.2.1, SVG Export Plug-In . SVG Version: 6.00 Build 0)  -->
<svg version="1.1" id="레이어_1" xmlns="http://www.w3.org/2000/svg" xmlns:xlink="http://www.w3.org/1999/xlink" x="0px"
	 y="0px" width="40px" height="30px" viewBox="0 0 40 30" style="enable-background:new 0 0 40 30;" xml:space="preserve">
<style type="text/css">
	.st0{fill:none;stroke:#333333;stroke-linejoin:round;stroke-miterlimit:10;}
	.st1{fill:none;stroke:#333333;stroke-miterlimit:10;}
</style>
<g>
	<path class="st0" d="M26.3,4.5h3c0.3,0,0.6,0.3,0.6,0.6v8.4"/>
	<path class="st0" d="M20.3,21.9h-12c-0.3,0-0.6-0.3-0.6-0.6V5.1c0-0.3,0.3-0.6,0.6-0.6h3"/>
	<circle class="st0" cx="28.1" cy="21.3" r="6.6"/>
	<line class="st0" x1="7.7" y1="9.3" x2="29.9" y2="9.3"/>
	<polyline class="st0" points="31.1,18.3 28.1,21.9 25.7,20.1 	"/>
	<line class="st0" x1="25.1" y1="2.7" x2="25.1" y2="6.3"/>
	<line class="st0" x1="13.7" y1="4.5" x2="23.9" y2="4.5"/>
	<line class="st0" x1="12.5" y1="2.7" x2="12.5" y2="6.3"/>
	<line class="st1" x1="14.3" y1="12.3" x2="16.1" y2="12.3"/>
	<line class="st1" x1="17.3" y1="12.3" x2="19.1" y2="12.3"/>
	<line class="st1" x1="20.3" y1="12.3" x2="22.1" y2="12.3"/>
	<line class="st1" x1="23.3" y1="12.3" x2="25.1" y2="12.3"/>
	<line class="st1" x1="11.3" y1="15.3" x2="13.1" y2="15.3"/>
	<line class="st1" x1="14.3" y1="15.3" x2="16.1" y2="15.3"/>
	<line class="st1" x1="17.3" y1="15.3" x2="19.1" y2="15.3"/>
	<line class="st1" x1="20.3" y1="15.3" x2="22.1" y2="15.3"/>
	<line class="st1" x1="11.3" y1="18.3" x2="13.1" y2="18.3"/>
	<line class="st1" x1="14.3" y1="18.3" x2="16.1" y2="18.3"/>
	<line class="st1" x1="17.3" y1="18.3" x2="19.1" y2="18.3"/>
</g>
</svg>
