<?xml version="1.0" encoding="utf-8"?>
<!-- Generator: Adobe Illustrator 22.1.0, SVG Export Plug-In . SVG Version: 6.00 Build 0)  -->
<svg version="1.1" id="레이어_1" xmlns="http://www.w3.org/2000/svg" xmlns:xlink="http://www.w3.org/1999/xlink" x="0px"
	 y="0px" width="36px" height="36px" viewBox="0 0 36 36" style="enable-background:new 0 0 36 36;" xml:space="preserve">
<style type="text/css">
	.st0{fill:#41A836;}
	.st1{fill:#FFFFFF;}
	.st2{fill:url(#SVGID_1_);}
	.st3{fill:#6D0C08;}
	.st4{fill:#931812;}
	.st5{fill:#81BF2C;}
	.st6{fill:url(#SVGID_2_);}
</style>
<circle class="st0" cx="18" cy="18" r="18"/>
<g>
	<path class="st1" d="M18,7.2c5.5,0,10.1,4.2,10.7,9.6H30c0.7,0,1.2,0.6,1.2,1.3l0,0c0,0.7-0.6,1.2-1.2,1.2h-1.2
		c-0.6,5.4-5.2,9.6-10.7,9.6c-5.9,0-10.8-4.9-10.8-10.8C7.2,12.1,12.1,7.2,18,7.2z"/>
	<linearGradient id="SVGID_1_" gradientUnits="userSpaceOnUse" x1="13.3202" y1="11.0366" x2="22.9534" y2="25.3184">
		<stop  offset="0" style="stop-color:#A19F9B"/>
		<stop  offset="1" style="stop-color:#EDEDED"/>
	</linearGradient>
	<path class="st2" d="M18,27.1c5,0,9.1-4.1,9.1-9.1c0-5-4.1-9.1-9.1-9.1c-5,0-9.1,4.1-9.1,9.1C8.9,23,13,27.1,18,27.1z"/>
	<path class="st3" d="M18,25.6c4.2,0,7.6-3.4,7.6-7.6c0-4.2-3.4-7.6-7.6-7.6c-4.2,0-7.6,3.4-7.6,7.6C10.4,22.2,13.8,25.6,18,25.6z"
		/>
	<path class="st4" d="M22.6,11.9c1.8,1.4,3,3.6,3,6.1c0,4.2-3.4,7.6-7.6,7.6c-2.1,0-3.9-0.8-5.3-2.2c-0.8-1.2-1.2-2.7-1.2-4.2
		c0-4.4,3.6-7.9,7.9-7.9C20.5,11.3,21.6,11.5,22.6,11.9z"/>
	<path class="st5" d="M18.2,16.6c-0.5,0.3-0.8-4.4,3.6-6.3c4.4-1.9,6.1-0.9,7-0.9c0,0-0.6,1.5-1,2.2c-0.4,0.7-1.8,3.8-5.5,4.5
		C18.6,16.8,18.7,16.3,18.2,16.6z"/>
	<linearGradient id="SVGID_2_" gradientUnits="userSpaceOnUse" x1="20.9886" y1="15.5984" x2="27.5252" y2="11.0214">
		<stop  offset="0" style="stop-color:#3AA537"/>
		<stop  offset="1" style="stop-color:#9DC814"/>
	</linearGradient>
	<path class="st6" d="M18.2,16.6c-0.1,0-0.1,0-0.2-0.2c0.6-0.9,1.6-2,2.6-2.8c1.9-1.4,6.1-3,8.1-4.1c-0.1,0.4-0.6,1.5-0.9,2.1
		c-0.4,0.7-1.8,3.8-5.5,4.5C18.6,16.8,18.7,16.3,18.2,16.6z"/>
</g>
</svg>
