<?xml version="1.0" encoding="utf-8"?>
<!-- Generator: Adobe Illustrator 22.1.0, SVG Export Plug-In . SVG Version: 6.00 Build 0)  -->
<svg version="1.1" id="레이어_1" xmlns="http://www.w3.org/2000/svg" xmlns:xlink="http://www.w3.org/1999/xlink" x="0px"
	 y="0px" width="24px" height="24px" viewBox="0 0 24 24" style="enable-background:new 0 0 24 24;" xml:space="preserve">
<style type="text/css">
	.st0{fill:none;stroke:#787777;stroke-width:0.7544;stroke-linecap:round;stroke-linejoin:round;stroke-miterlimit:10;}
	.st1{fill:#787777;}
</style>
<g>
	<path class="st0" d="M0.5,7.9c0,0,10.2-5.3,17,6.7c0,0,3.8,0,6.1-1.6c0,0,0.8,4.3-2.7,6.8c-0.6-2.7-3.4-5.3-3.4-5.3
		C4.4,18.8,0.5,8,0.5,7.9"/>
	<circle class="st1" cx="4.9" cy="8.8" r="0.6"/>
	<path class="st0" d="M13.3,10.5c1.2,0.5,1.8,1.8,1.4,3s-1.8,1.7-3.1,1.3"/>
	<path class="st0" d="M12,8.5c1,0.4,1.5,1.5,1.1,2.4c-0.4,0.9-1.5,1.4-2.4,1c1,0.4,1.5,1.5,1.1,2.4s-1.5,1.4-2.4,1"/>
	<path class="st0" d="M9.7,7.4c1,0.4,1.6,1.5,1.2,2.5c-0.4,1-1.5,1.5-2.6,1.1c1,0.4,1.6,1.5,1.2,2.5c-0.4,1-1.5,1.5-2.6,1.1"/>
	<line class="st0" x1="8.2" y1="11" x2="10.7" y2="11.9"/>
	<path class="st0" d="M17.5,14.6c0,0,5,1.9,6.1,1"/>
</g>
</svg>
