<?xml version="1.0" encoding="utf-8"?>
<!-- Generator: Adobe Illustrator 22.1.0, SVG Export Plug-In . SVG Version: 6.00 Build 0)  -->
<svg version="1.1" id="레이어_1" xmlns="http://www.w3.org/2000/svg" xmlns:xlink="http://www.w3.org/1999/xlink" x="0px"
	 y="0px" width="24px" height="24px" viewBox="0 0 24 24" style="enable-background:new 0 0 24 24;" xml:space="preserve">
<style type="text/css">
	.st0{fill:none;stroke:#777777;stroke-width:0.6164;stroke-linecap:round;stroke-linejoin:round;stroke-miterlimit:10;}
</style>
<g id="레이어_2_1_">
</g>
<g>
	<path class="st0" d="M12.4,14.5c-0.2,0.5-0.1,1.1,0.4,1.8c-2.7-0.7-3.6-1.2-3.9-1.8"/>
	<path class="st0" d="M13.4,10.3c-0.3-0.4,0-0.9,0.6-1.6c-1.9,0.2-4,0.8-4.4,1.4"/>
	<path class="st0" d="M9.9,14.6c-5-0.1-9.4-2.2-9.4-2.5c0-0.3,4.3-1.8,7.7-2c5.6-0.4,11,1.5,11.6,1.7c0.8-1,3.1-1.5,3.7-1.6
		c-0.7,0.8-1.8,2-1.8,2.1c0,0.1,0.8,1,1.8,1.9c-1.6-0.2-2.9-0.7-3.8-1.5C18.2,13.1,14.5,14.8,9.9,14.6z"/>
	<line class="st0" x1="0.5" y1="12.1" x2="3.3" y2="12.1"/>
	<line class="st0" x1="5.5" y1="11.7" x2="6.1" y2="11.7"/>
	<path class="st0" d="M5.1,13.9c1.5,0.2,1.9-0.1,2.8-1.2c0.6-0.7-0.6-1.4-1.4-1.9"/>
</g>
</svg>
