<?xml version="1.0" encoding="utf-8"?>
<!-- Generator: Adobe Illustrator 24.2.1, SVG Export Plug-In . SVG Version: 6.00 Build 0)  -->
<svg version="1.1" id="레이어_1" xmlns="http://www.w3.org/2000/svg" xmlns:xlink="http://www.w3.org/1999/xlink" x="0px"
	 y="0px" width="90px" height="90px" viewBox="0 0 90 90" style="enable-background:new 0 0 90 90;" xml:space="preserve">
<style type="text/css">
	.st0{fill:#52A1FF;}
	.st1{fill:#F0004A;}
	.st2{fill:#FFFFFF;}
</style>
<path class="st0" d="M89.1,36.1c-0.3-1-0.6-1.9-0.9-3c-0.5-1.8-0.9-3.6-1.7-5.3c-0.5-1.2-1.2-2.2-1.7-3.2c-0.8-1.4-1.4-2.8-2.3-4.2
	c-0.4-0.6-1-1.3-1.4-1.9L45,45V0C20.2,0,0,20.2,0,45s20.2,45,45,45s45-20.2,45-45C90,41.9,89.7,39,89.1,36.1z"/>
<path class="st1" d="M81.1,18.5c-0.3-0.4-0.6-0.8-0.9-1.2C72,6.8,59.4,0,45,0v45L81.1,18.5z"/>
<g>
	<path class="st2" d="M24.2,62.7c0-0.3,0-0.5,0.1-0.8s0.3-0.5,0.4-0.6c0.1-0.3,0.4-0.4,0.5-0.5c0.3-0.1,0.4-0.3,0.6-0.4
		c-0.5-0.3-0.9-0.5-1.2-1s-0.4-0.9-0.4-1.3v-0.3c0-0.4,0.1-0.8,0.3-1c0.1-0.3,0.4-0.6,0.6-0.9c0.3-0.3,0.6-0.4,1-0.6
		c0.4-0.1,0.8-0.3,1.3-0.3c0.5,0,0.9,0.1,1.3,0.3c0.4,0.1,0.8,0.4,1,0.6c0.3,0.3,0.5,0.5,0.6,0.9c0.1,0.4,0.3,0.6,0.3,1v0.3
		c0,0.4-0.1,0.9-0.4,1.3c-0.3,0.4-0.6,0.8-1.2,1c0.5,0.1,0.9,0.4,1.3,0.9c0.4,0.4,0.5,0.9,0.5,1.5V63c0,0.4-0.1,0.8-0.3,1.2
		c-0.1,0.4-0.4,0.6-0.6,0.9c-0.3,0.3-0.6,0.4-1,0.6c-0.4,0.1-0.9,0.3-1.4,0.3c-0.5,0-1-0.1-1.4-0.3c-0.4-0.1-0.8-0.4-1-0.6
		c-0.3-0.3-0.5-0.5-0.6-0.9c-0.1-0.4-0.3-0.8-0.3-1.2v-0.3H24.2z M25.7,62.9c0,0.5,0.1,0.9,0.5,1.2c0.4,0.3,0.9,0.4,1.4,0.4
		c0.6,0,1-0.1,1.4-0.4c0.4-0.3,0.5-0.6,0.5-1.2v-0.1c0-0.5-0.1-1-0.5-1.3c-0.4-0.3-0.8-0.4-1.4-0.4c-0.3,0-0.5,0-0.8,0.1
		c-0.3,0.1-0.5,0.1-0.6,0.4S26,62,25.8,62.1c-0.1,0.1-0.1,0.4-0.1,0.6V62.9z M26,58.2c0,0.5,0.1,0.9,0.5,1.2
		c0.4,0.3,0.8,0.4,1.2,0.4s0.9-0.1,1.2-0.4c0.4-0.3,0.5-0.6,0.5-1.2v-0.1c0-0.5-0.1-0.9-0.5-1.2c-0.3-0.3-0.8-0.4-1.3-0.4
		c-0.5,0-0.9,0.1-1.3,0.4c-0.3,0.3-0.5,0.6-0.5,1.2v0.1H26z"/>
	<path class="st2" d="M34.7,65.7h-1.5l4-9h-5.5v-1.2h7.1v1L34.7,65.7z"/>
	<path class="st2" d="M41.7,55.3c0.8,0,1.3,0.3,1.7,0.6c0.4,0.4,0.6,1,0.6,1.8v0.6c0,0.8-0.3,1.3-0.6,1.8c-0.4,0.5-1,0.6-1.7,0.6
		c-0.8,0-1.3-0.3-1.7-0.6c-0.4-0.4-0.6-1-0.6-1.8v-0.6c0-0.8,0.3-1.3,0.6-1.8C40.4,55.5,41,55.3,41.7,55.3z M41.7,59.7
		c0.8,0,1.2-0.5,1.2-1.4v-0.5c0-1-0.4-1.4-1.2-1.4s-1.2,0.5-1.2,1.4v0.5C40.5,59.3,40.9,59.7,41.7,59.7z M41.1,65.6l6-10.2h1.3
		l-6.2,10.2H41.1z M47.8,60.4c0.8,0,1.3,0.3,1.7,0.6c0.4,0.4,0.6,1,0.6,1.8v0.6c0,0.8-0.3,1.3-0.6,1.8c-0.4,0.5-1,0.6-1.7,0.6
		c-0.8,0-1.3-0.3-1.7-0.6c-0.4-0.4-0.6-1-0.6-1.8v-0.6c0-0.8,0.3-1.3,0.6-1.8C46.5,60.6,47.2,60.4,47.8,60.4z M47.8,64.8
		c0.8,0,1.2-0.5,1.2-1.4v-0.5c0-1-0.4-1.4-1.2-1.4c-0.8,0-1.2,0.5-1.2,1.4v0.5C46.7,64.3,47.1,64.8,47.8,64.8z"/>
</g>
<g>
	<path class="st2" d="M50.4,21.7v-8.6L48,14.5l-0.6-1.2l3.3-1.8h1.2v10.2H50.4z"/>
	<path class="st2" d="M54.5,13c0.1-0.3,0.3-0.4,0.5-0.6c0.1-0.1,0.4-0.4,0.6-0.5c0.1-0.1,0.5-0.3,0.8-0.3c0.3-0.1,0.6-0.1,1-0.1
		c0.5,0,0.9,0,1.3,0.1c0.4,0.1,0.6,0.3,1,0.5c0.3,0.3,0.5,0.5,0.6,0.8c0.1,0.3,0.3,0.6,0.3,1v0.3c0,0.3,0,0.4-0.1,0.6
		c0,0.3-0.1,0.4-0.3,0.6c-0.1,0.3-0.3,0.4-0.5,0.6c-0.3,0.1-0.5,0.4-0.8,0.4c0.6,0.1,1.2,0.4,1.5,0.8c0.4,0.4,0.5,0.9,0.5,1.5V19
		c0,0.4-0.1,0.8-0.3,1.2c-0.1,0.4-0.4,0.6-0.6,0.9c-0.3,0.3-0.6,0.5-1.2,0.6c-0.4,0.1-0.9,0.1-1.5,0.1c-0.6,0-1.2-0.1-1.7-0.3
		c-0.5-0.1-1-0.5-1.5-0.9l0.6-1.2c0.5,0.4,0.9,0.6,1.3,0.8c0.4,0.1,0.8,0.3,1.3,0.3c0.4,0,0.6,0,0.9-0.1c0.3-0.1,0.5-0.3,0.6-0.4
		c0.1-0.1,0.3-0.4,0.4-0.5c0.1-0.3,0.1-0.4,0.1-0.6v-0.1c0-0.4,0-0.6-0.1-0.9c-0.1-0.3-0.3-0.4-0.4-0.5c-0.1-0.1-0.4-0.3-0.6-0.3
		c-0.3,0-0.5-0.1-0.8-0.1h-1.3v-1.2h1.2c0.3,0,0.6,0,0.8-0.1c0.3-0.1,0.4-0.3,0.5-0.4c0.1-0.1,0.3-0.4,0.3-0.5
		c0-0.3,0.1-0.4,0.1-0.6V14c0-0.3,0-0.4-0.1-0.6c-0.1-0.1-0.3-0.3-0.4-0.4c-0.1-0.1-0.4-0.3-0.5-0.3s-0.4-0.1-0.6-0.1
		c-0.4,0-0.8,0.1-1.2,0.3c-0.3,0.1-0.6,0.4-0.9,0.8L54.5,13z"/>
	<path class="st2" d="M64.2,11.4c0.8,0,1.3,0.3,1.7,0.6c0.4,0.4,0.6,1,0.6,1.8v0.6c0,0.8-0.3,1.3-0.6,1.8c-0.4,0.5-0.9,0.4-1.7,0.4
		c-0.8,0-1.3-0.3-1.7-0.6c-0.4-0.4-0.6-1-0.6-1.8v-0.6c0-0.8,0.3-1.3,0.6-1.8C62.9,11.6,63.5,11.4,64.2,11.4z M64.2,15.8
		c0.8,0,1.2-0.5,1.2-1.4v-0.5c0-1-0.4-1.4-1.2-1.4S63,12.9,63,13.8v0.5C63,15.3,63.4,15.8,64.2,15.8z M63.6,21.7l6-10.2H71l-6,10.2
		H63.6z M70.5,16.5c0.8,0,1.3,0.3,1.7,0.6c0.4,0.4,0.6,1,0.6,1.8v0.6c0,0.8-0.3,1.3-0.6,1.8c-0.4,0.5-1,0.5-1.7,0.5
		c-0.8,0-1.3-0.3-1.7-0.6c-0.4-0.4-0.6-1-0.6-1.8v-0.6c0-0.8,0.3-1.3,0.6-1.8C69.2,16.7,69.7,16.5,70.5,16.5z M70.5,21
		c0.8,0,1.2-0.5,1.2-1.4V19c0-1-0.4-1.4-1.2-1.4c-0.8,0-1.2,0.5-1.2,1.4v0.5C69.2,20.4,69.6,21,70.5,21z"/>
</g>
</svg>
