<?xml version="1.0" encoding="utf-8"?>
<!-- Generator: Adobe Illustrator 24.2.1, SVG Export Plug-In . SVG Version: 6.00 Build 0)  -->
<svg version="1.1" id="레이어_1" xmlns="http://www.w3.org/2000/svg" xmlns:xlink="http://www.w3.org/1999/xlink" x="0px"
	 y="0px" width="24px" height="24px" viewBox="0 0 24 24" style="enable-background:new 0 0 24 24;" xml:space="preserve">
<style type="text/css">
	.st0{fill:#333333;}
</style>
<path class="st0" d="M16.6,13.6l6,5.6c0.1,0.1,0.2,0.2,0.2,0.3c0.1,0.1,0.1,0.2,0.2,0.3l0,0c0,0.1,0.1,0.2,0.1,0.3
	c0,0.1,0,0.2,0,0.3c0,0.1,0,0.2,0,0.3c0,0.1-0.1,0.2-0.1,0.3c0,0.1-0.1,0.2-0.2,0.3c-0.1,0.1-0.1,0.2-0.2,0.3l-0.8,0.8
	c-0.1,0.1-0.2,0.2-0.3,0.2c-0.1,0.1-0.2,0.1-0.3,0.2l0,0C21.2,23,21,23,20.9,23c-0.1,0-0.2,0-0.3,0c-0.1,0-0.2,0-0.3,0
	c-0.1,0-0.2-0.1-0.3-0.1c-0.1,0-0.2-0.1-0.3-0.2c-0.1-0.1-0.2-0.1-0.3-0.2l-5.6-6c-0.5,0.3-1.1,0.6-1.7,0.8
	c-0.8,0.3-1.7,0.4-2.5,0.4c-1.1,0-2.2-0.2-3.2-0.6c-1-0.4-1.9-1-2.7-1.8l0,0c-0.8-0.8-1.4-1.7-1.8-2.7c-0.4-1-0.6-2.1-0.6-3.2
	c0-1.1,0.2-2.2,0.6-3.2c0.4-1,1-1.9,1.8-2.7c0.8-0.8,1.7-1.4,2.7-1.8c1-0.4,2.1-0.6,3.2-0.6c2.1,0,4.3,0.8,5.9,2.4
	c0.8,0.8,1.4,1.7,1.8,2.7c0.4,1,0.6,2.1,0.6,3.2C17.8,10.9,17.4,12.3,16.6,13.6L16.6,13.6z M14.1,12.3c-0.3,0.5-0.8,1-1.2,1.4
	c-0.6,0.4-1.2,0.8-1.9,1c-0.7,0.2-1.4,0.3-2.1,0.2C7.4,14.7,8.1,13,9,13.3c0.5,0.1,1,0,1.5-0.1c0.5-0.1,1-0.4,1.4-0.7
	c0.3-0.3,0.6-0.6,0.9-1c0.2-0.3,0.4-0.7,0.5-1.1l0,0l0.1-0.3c0-0.1,0-0.2,0-0.2c0.1-1.3,1.5-1.2,1.6-0.4
	C15,10.4,14.6,11.5,14.1,12.3L14.1,12.3z M4.5,11.7c-0.1-0.3-0.2-0.5-0.3-0.8C4,10.2,4,9.5,4.1,8.7c0.1-0.7,0.3-1.4,0.7-2
	c0.4-0.6,0.8-1.2,1.4-1.6c0.6-0.4,1.2-0.8,1.9-1C8.7,3.9,9.4,3.9,10.1,4l0,0c0.7,0.1,1.4,0.3,2,0.7c0.3,0.1,0.5,0.3,0.7,0.5
	c0.7,0.6-0.4,1.7-1,1.2c-0.1-0.1-0.3-0.2-0.5-0.3C11,5.7,10.5,5.6,10,5.5c-0.5-0.1-1,0-1.5,0.1C7.9,5.8,7.5,6,7.1,6.3
	C6.7,6.6,6.3,7,6.1,7.5C5.8,7.9,5.7,8.4,5.6,8.9c-0.1,0.5,0,1,0.1,1.5c0.1,0.2,0.1,0.4,0.2,0.5C6.2,11.7,4.9,12.5,4.5,11.7L4.5,11.7
	z M21.5,20.4l-6.9-6.5l0.4-0.6c0.8-1.2,1.2-2.5,1.2-3.9c0-0.9-0.2-1.8-0.5-2.6c-0.3-0.8-0.8-1.5-1.5-2.2c-1.3-1.3-3.1-2-4.8-2
	c-0.9,0-1.8,0.2-2.6,0.5C6.1,3.5,5.4,4,4.7,4.6C4.1,5.3,3.6,6,3.2,6.8C2.9,7.6,2.7,8.5,2.7,9.4c0,0.9,0.2,1.8,0.5,2.6
	c0.3,0.8,0.8,1.5,1.5,2.2l0,0c0.6,0.6,1.4,1.1,2.2,1.5c0.8,0.3,1.7,0.5,2.6,0.5c0.7,0,1.4-0.1,2.1-0.3c0.6-0.2,1.3-0.5,1.9-0.9
	l0.6-0.4l6.5,6.9c0.1,0,0.1,0.1,0.1,0.1l0.1,0l0.1,0c0.3-0.2,0.6-0.6,0.8-0.8l0,0l0,0l0-0.1L21.5,20.4
	C21.6,20.4,21.6,20.4,21.5,20.4L21.5,20.4z"/>
</svg>
