<?xml version="1.0" encoding="utf-8"?>
<!-- Generator: Adobe Illustrator 24.2.1, SVG Export Plug-In . SVG Version: 6.00 Build 0)  -->
<svg version="1.1" id="레이어_1" xmlns="http://www.w3.org/2000/svg" xmlns:xlink="http://www.w3.org/1999/xlink" x="0px"
	 y="0px" width="16px" height="16px" viewBox="0 0 16 16" style="enable-background:new 0 0 16 16;" xml:space="preserve">
<style type="text/css">
	.st0{fill:#FFFFFF;}
</style>
<g>
	<path class="st0" d="M4.5,11.6c2.2-0.5,5.6-1.4,5.8-6.2c0-0.6-0.2-1.1-0.6-1.5c-0.4-0.4-1-0.7-1.6-0.7C7.5,3.2,7,3.5,6.6,3.9
		C6.2,4.3,6.1,4.9,6,5.3C5.7,6.9,4.7,7.7,2.8,7.7c-0.3,0-0.5,0.2-0.5,0.5c0,0.3,0.2,0.5,0.5,0.5c2.3,0,3.8-1.2,4.1-3.2
		C7,5.1,7.1,4.8,7.3,4.6c0.2-0.2,0.5-0.4,0.8-0.4c0.3,0,0.6,0.1,0.8,0.4C9.2,4.8,9.3,5,9.3,5.3c-0.1,4.1-2.8,4.8-5,5.3
		c-0.4,0.1-0.8,0.2-1.1,0.3c-0.3,0.1-0.4,0.4-0.3,0.6c0.1,0.2,0.3,0.3,0.5,0.3c0.1,0,0.1,0,0.2,0C3.7,11.8,4.1,11.7,4.5,11.6z"/>
	<path class="st0" d="M13.4,9.3c-0.9-0.3-1.6-0.6-1.6-2c0-0.3,0-0.5,0-0.7c0-0.3,0.1-0.6,0-1.3c0-2.1-1.7-3.7-3.7-3.7
		c-1.9,0-3.3,1.3-3.7,3.2C4.2,6,3.6,6,3,6C2.8,6,2.5,6.2,2.5,6.4c0,0.3,0.2,0.5,0.4,0.5C4.6,7.1,5.2,6,5.4,5
		c0.3-1.5,1.4-2.4,2.7-2.4c1.5,0,2.7,1.2,2.8,2.8c0,0.6,0,0.9,0,1.2c0,0.2,0,0.5,0,0.8c0,2.2,1.6,2.7,2.3,2.9c0,0,0.1,0,0.1,0
		c0.2,0,0.4-0.1,0.5-0.3C13.8,9.7,13.7,9.4,13.4,9.3z"/>
	<path class="st0" d="M13.6,7.7c0,0-0.2-0.2-0.2-0.6c0.1-0.6,0.1-1.7,0.1-1.7l0,0c0-3-2.4-5.4-5.4-5.4c-2.2,0-4.2,1.4-5,3.4
		C3,3.7,3,4,2.9,4.2c0,0.1-0.1,0.3-0.1,0.4c-0.1,0.3,0,0.5,0.3,0.6c0.3,0.1,0.5,0,0.6-0.3c0-0.1,0.1-0.3,0.1-0.5C3.9,4.2,4,4,4,3.8
		C4.7,2.1,6.3,1,8.1,1c2.4,0,4.4,2,4.4,4.4c0,0.1,0,1.1-0.1,1.6c-0.1,1.1,0.6,1.6,0.9,1.7c0,0,0.1,0,0.1,0c0.2,0,0.4-0.2,0.5-0.4
		C14,8,13.8,7.8,13.6,7.7z"/>
	<path class="st0" d="M3.1,10.3c0.1,0,0.2,0,0.3-0.1c1.9-0.4,5.1-1,5.2-4.9c0-0.3-0.2-0.5-0.5-0.5C7.9,4.8,7.6,5,7.6,5.3
		C7.5,8.4,5,8.9,3.2,9.3c-0.1,0-0.2,0-0.3,0.1C2.6,9.4,2.4,9.6,2.5,9.9c0,0.2,0.3,0.4,0.5,0.4C3,10.3,3,10.3,3.1,10.3z"/>
	<path class="st0" d="M13.1,10.9c-0.5-0.1-0.9-0.3-1.4-0.5c-0.4-0.2-0.8-0.5-1.2-0.9c-0.2-0.2-0.5-0.2-0.7,0c-0.2,0.2-0.2,0.5,0,0.7
		c0.4,0.5,1,0.9,1.5,1.1c0.5,0.2,1,0.4,1.6,0.6c0,0,0.1,0,0.1,0c0.2,0,0.4-0.2,0.5-0.4C13.5,11.2,13.4,11,13.1,10.9z"/>
	<path class="st0" d="M12.6,12.5c-0.9-0.2-1.5-0.5-2.1-0.8c-0.5-0.3-1-0.5-1.6-0.5c-0.4,0-1,0.2-1.7,0.4c-0.8,0.3-2,0.6-3.5,0.9
		c-0.3,0.1-0.4,0.3-0.4,0.6c0.1,0.3,0.3,0.4,0.6,0.4c1.6-0.3,2.8-0.7,3.6-1c0.7-0.2,1.2-0.4,1.4-0.4c0.3,0,0.7,0.2,1.1,0.4
		c0.6,0.3,1.3,0.7,2.3,0.9c0,0,0.1,0,0.1,0c0.2,0,0.4-0.2,0.5-0.4C13,12.8,12.9,12.5,12.6,12.5z"/>
	<path class="st0" d="M11.7,13.9c-0.4-0.1-0.8-0.3-1.2-0.5c-0.6-0.3-1.2-0.6-1.7-0.6c-0.4,0-1,0.2-2,0.5c-0.7,0.2-1.6,0.5-2.2,0.6
		c-0.3,0-0.4,0.3-0.4,0.6c0,0.3,0.3,0.4,0.6,0.4c0.7-0.1,1.5-0.4,2.3-0.6c0.7-0.2,1.5-0.4,1.8-0.4c0.3,0,0.8,0.2,1.3,0.5
		c0.4,0.2,0.9,0.4,1.3,0.5c0,0,0.1,0,0.1,0c0.2,0,0.4-0.1,0.5-0.4C12.1,14.2,12,13.9,11.7,13.9z"/>
	<path class="st0" d="M10.4,15.1c-0.1,0-0.2-0.1-0.4-0.2c-0.4-0.2-0.9-0.4-1.5-0.4c-0.3,0-0.7,0.1-1.3,0.2c-0.5,0.1-1,0.2-1.3,0.3
		c-0.3,0-0.5,0.3-0.4,0.5c0,0.3,0.3,0.5,0.5,0.4c0.4-0.1,1-0.2,1.5-0.3c0.4-0.1,0.9-0.2,1.1-0.2c0.4,0,0.7,0.1,1.1,0.3
		c0.1,0.1,0.3,0.1,0.4,0.2c0.1,0,0.1,0,0.2,0c0.2,0,0.4-0.1,0.5-0.3C10.8,15.4,10.7,15.1,10.4,15.1z"/>
</g>
</svg>
