<?xml version="1.0" encoding="utf-8"?>
<!-- Generator: Adobe Illustrator 24.2.1, SVG Export Plug-In . SVG Version: 6.00 Build 0)  -->
<svg version="1.1" id="레이어_1" xmlns="http://www.w3.org/2000/svg" xmlns:xlink="http://www.w3.org/1999/xlink" x="0px"
	 y="0px" width="16px" height="16px" viewBox="0 0 16 16" style="enable-background:new 0 0 16 16;" xml:space="preserve">
<style type="text/css">
	.st0{fill:#333333;}
</style>
<path class="st0" d="M8.6,4.7c1.4,0.1,2.6,1.2,2.7,2.7C11.3,7.7,11.6,8,12,8c0,0,0,0,0,0c0.4,0,0.7-0.3,0.6-0.7
	c-0.1-2.1-1.8-3.9-4-4C8.3,3.3,8,3.6,8,4C8,4.3,8.3,4.7,8.6,4.7z M8,0C7.6,0,7.3,0.3,7.3,0.7S7.6,1.3,8,1.3c3.7,0,6.7,3,6.7,6.7
	c0,0.4,0.3,0.7,0.7,0.7C15.7,8.7,16,8.4,16,8C16,3.6,12.4,0,8,0z M10.7,9.3c-1.3,0-2.5,0.8-3,1.9c-1.3-0.6-2.3-1.7-2.9-2.9
	c1.2-0.5,1.9-1.7,1.9-3C6.7,3.5,5.2,2,3.3,2S0,3.5,0,5.3C0,11.2,4.8,16,10.7,16c1.8,0,3.3-1.5,3.3-3.3S12.5,9.3,10.7,9.3z
	 M10.7,14.7c-5.1,0-9.3-4.2-9.3-9.3c0-1.1,0.9-2,2-2s2,0.9,2,2c0,1-0.7,1.8-1.6,2L2.9,7.4l0.3,0.7C4,10.3,5.7,12,7.8,12.8l0.7,0.3
	l0.1-0.8c0.2-0.9,1-1.6,2-1.6c1.1,0,2,0.9,2,2S11.8,14.7,10.7,14.7z"/>
</svg>
