<?xml version="1.0" encoding="utf-8"?>
<!-- Generator: Adobe Illustrator 24.2.1, SVG Export Plug-In . SVG Version: 6.00 Build 0)  -->
<svg version="1.1" xmlns="http://www.w3.org/2000/svg" xmlns:xlink="http://www.w3.org/1999/xlink" x="0px" y="0px" width="24px"
	 height="24px" viewBox="0 0 24 24" style="enable-background:new 0 0 24 24;" xml:space="preserve">
<style type="text/css">
	.st0{fill:#3683D5;}
	.st1{fill:none;stroke:#FFFFFF;stroke-linecap:round;stroke-linejoin:round;stroke-miterlimit:10;}
</style>
<g id="레이어_2">
	<path class="st0" d="M7.07,22.12H2.92c-0.55,0-1-0.45-1-1V10.81c0-0.55,0.45-1,1-1h4.16c0.55,0,1,0.45,1,1v10.31
		C8.07,21.68,7.62,22.12,7.07,22.12z"/>
</g>
<g id="레이어_1">
	<circle class="st1" cx="6.55" cy="20.24" r="0.39"/>
</g>
<g id="레이어_3">
	<path class="st0" d="M20.36,12.91l0,0.01c0,0-0.01,0-0.01,0l0-0.01H20.36h0.38c0.85,0,1.54-0.69,1.54-1.54s-0.69-1.54-1.54-1.54
		h-3.86c0.77-1.93,1.79-3.91,1.16-6.17c-0.56-2-2.7-1.85-2.7-0.77c0,4.33-2.95,7.97-5.9,8.68l0.01,8.79c0,0,2.81,1.42,4.36,1.42
		h1.15h3.46H19h0.2l-0.12-0.02c0.71-0.05,1.27-0.61,1.27-1.33c0-0.68-0.51-1.22-1.16-1.31l0.01-0.04h0.23c0.94,0,1.7-0.69,1.7-1.54
		c0-0.8-0.68-1.45-1.54-1.53l0-0.02h0.38h0.25h0.14c0.85,0,1.54-0.69,1.54-1.54C21.9,13.6,21.21,12.91,20.36,12.91z M18.44,21.67
		L18.44,21.67l0.01-0.05L18.44,21.67z"/>
</g>
</svg>
