<?xml version="1.0" encoding="utf-8"?>
<!-- Generator: Adobe Illustrator 24.2.1, SVG Export Plug-In . SVG Version: 6.00 Build 0)  -->
<svg version="1.1" id="레이어_1" xmlns="http://www.w3.org/2000/svg" xmlns:xlink="http://www.w3.org/1999/xlink" x="0px"
	 y="0px" width="24px" height="24px" viewBox="0 0 24 24" style="enable-background:new 0 0 24 24;" xml:space="preserve">
<style type="text/css">
	.st0{fill:#FFFFFF;}
</style>
<path class="st0" d="M20,8c0-4.4-3.6-8-8-8C7.6,0,4,3.6,4,8c0,2.8,1.5,5.3,3.7,6.8c-4,1.5-7,5-7.8,9.2h2c1-4.6,5.1-8,10-8
	C16.4,16,20,12.4,20,8z M12,14c-3.3,0-6-2.7-6-6s2.7-6,6-6c3.3,0,6,2.7,6,6S15.3,14,12,14z M21,19v-3h-2v3h-3v2h3v3h2v-3h3v-2H21z"
	/>
</svg>
