<?xml version="1.0" encoding="utf-8"?>
<!-- Generator: Adobe Illustrator 23.0.3, SVG Export Plug-In . SVG Version: 6.00 Build 0)  -->
<!DOCTYPE svg PUBLIC "-//W3C//DTD SVG 1.1//EN" "http://www.w3.org/Graphics/SVG/1.1/DTD/svg11.dtd" [
	<!ENTITY ns_extend "http://ns.adobe.com/Extensibility/1.0/">
	<!ENTITY ns_ai "http://ns.adobe.com/AdobeIllustrator/10.0/">
	<!ENTITY ns_graphs "http://ns.adobe.com/Graphs/1.0/">
	<!ENTITY ns_vars "http://ns.adobe.com/Variables/1.0/">
	<!ENTITY ns_imrep "http://ns.adobe.com/ImageReplacement/1.0/">
	<!ENTITY ns_sfw "http://ns.adobe.com/SaveForWeb/1.0/">
	<!ENTITY ns_custom "http://ns.adobe.com/GenericCustomNamespace/1.0/">
	<!ENTITY ns_adobe_xpath "http://ns.adobe.com/XPath/1.0/">
]>
<svg version="1.1" id="Layer_1" xmlns:x="&ns_extend;" xmlns:i="&ns_ai;" xmlns:graph="&ns_graphs;"
	 xmlns="http://www.w3.org/2000/svg" xmlns:xlink="http://www.w3.org/1999/xlink" x="0px" y="0px" width="24px" height="24px"
	 viewBox="0 0 24 24" style="enable-background:new 0 0 24 24;" xml:space="preserve">
<style type="text/css">
	.st0{fill:none;stroke:#FFFFFF;stroke-width:1.5;stroke-linecap:round;stroke-linejoin:round;stroke-miterlimit:10;}
</style>
<metadata>
	<sfw  xmlns="&ns_sfw;">
		<slices></slices>
		<sliceSourceBounds  bottomLeftOrigin="true" height="18.3" width="18.3" x="2.9" y="1.6"></sliceSourceBounds>
	</sfw>
</metadata>
<g id="Layer_3_1_">
	<g id="_x3C_Group_x3E__1_">
		<path class="st0" d="M3.6,17.6h16.8c-0.1-0.3-0.4-0.6-0.7-1.1c-0.2-0.3-0.4-0.5-0.7-0.8c-0.4-0.4-0.8-0.9-1-1.3
			C17.4,13,17,10.6,17,10.5c0-0.1-0.3-2.3-0.8-3.3c-0.2-0.4-0.5-0.9-0.9-1.3c-0.6-0.7-1.5-1.1-2.3-1.1h-1.7c-0.9,0-1.8,0.4-2.3,1.1
			c-0.4,0.5-0.7,1-0.9,1.3c-0.6,1.1-0.8,3.3-0.8,3.3c0,0.1-0.4,2.5-1.1,4c-0.2,0.4-0.6,0.9-1,1.3c-0.2,0.3-0.4,0.5-0.7,0.8
			C4,16.9,3.8,17.3,3.6,17.6z"/>
		<g>
			<path class="st0" d="M12,21.6c1.1,0,2-0.9,2-2c0-0.1,0-0.1,0-0.2h-4c0,0.1,0,0.1,0,0.2C10,20.8,10.9,21.6,12,21.6z"/>
		</g>
	</g>
</g>
</svg>
