<?xml version="1.0" encoding="utf-8"?>
<!-- Generator: Adobe Illustrator 24.2.1, SVG Export Plug-In . SVG Version: 6.00 Build 0)  -->
<svg version="1.1" id="레이어_1" xmlns="http://www.w3.org/2000/svg" xmlns:xlink="http://www.w3.org/1999/xlink" x="0px"
	 y="0px" width="24px" height="24px" viewBox="0 0 24 24" style="enable-background:new 0 0 24 24;" xml:space="preserve">
<style type="text/css">
	.st0{fill:none;stroke:#333333;stroke-miterlimit:10;}
</style>
<g>
	<path class="st0" d="M4.5,10.3V4.8c0-0.8,0.7-1.5,1.5-1.5h15c0.8,0,1.5,0.7,1.5,1.5v12.5c0,0.8-0.7,1.5-1.5,1.5h-7.5"/>
	<path class="st0" d="M22.5,6.8h-18V5.3c0-1.1,0.9-2,2-2h14c1.1,0,2,0.9,2,2V6.8z"/>
	<line class="st0" x1="7.5" y1="1.8" x2="7.5" y2="4.8"/>
	<line class="st0" x1="10.5" y1="1.8" x2="10.5" y2="4.8"/>
	<line class="st0" x1="13.5" y1="1.8" x2="13.5" y2="4.8"/>
	<line class="st0" x1="16.5" y1="1.8" x2="16.5" y2="4.8"/>
	<line class="st0" x1="19.5" y1="1.8" x2="19.5" y2="4.8"/>
	<circle class="st0" cx="7" cy="16.8" r="5.5"/>
	<polyline class="st0" points="7,13.3 7,16.8 10,16.8 	"/>
</g>
</svg>
