<?xml version="1.0" encoding="utf-8"?>
<!-- Generator: Adobe Illustrator 24.2.1, SVG Export Plug-In . SVG Version: 6.00 Build 0)  -->
<svg version="1.1" id="레이어_1" xmlns="http://www.w3.org/2000/svg" xmlns:xlink="http://www.w3.org/1999/xlink" x="0px"
	 y="0px" width="80px" height="64px" viewBox="0 0 80 64" style="enable-background:new 0 0 80 64;" xml:space="preserve">
<style type="text/css">
	.st0{fill:none;stroke:#3683D5;stroke-width:2;stroke-linecap:round;stroke-linejoin:round;stroke-miterlimit:10;}
	.st1{fill:#3683D5;}
</style>
<g>
	<polyline class="st0" points="50.9,19.5 50.9,12.9 47.1,12.9 47.1,9.1 33.9,9.1 33.9,12.9 30.1,12.9 30.1,19.5 	"/>
	<polyline class="st0" points="44.3,9.1 44.3,4.4 36.7,4.4 36.7,9.1 	"/>
	<path class="st0" d="M29.2,33.6c0,0-4-7.6-4.7-10.7c0,0,10-6,16-7.2c6,1.1,16,7.2,16,7.2c-0.7,3.1-4.7,10.7-4.7,10.7"/>
	<path class="st0" d="M18.8,35.1l3.5-2.3c0.8-0.5,1.8-0.5,2.6,0.2l1.3,1.1c0.7,0.6,1.8,0.7,2.6,0.1l2-1.4c0.8-0.5,1.8-0.5,2.5,0.1
		l1.5,1.2c0.8,0.6,1.8,0.6,2.6,0.1l1.8-1.3c0.8-0.6,1.8-0.5,2.5,0l1.7,1.3c0.8,0.6,1.8,0.6,2.6,0l1.6-1.2c0.7-0.6,1.8-0.6,2.5,0
		l1.9,1.3c0.8,0.6,1.8,0.5,2.6-0.1l1.4-1.2c0.7-0.6,1.8-0.6,2.6-0.1l3.4,2.3"/>
	<path class="st0" d="M18.8,40.2l3.5-2.3c0.8-0.5,1.8-0.5,2.6,0.2l1.3,1.1c0.7,0.6,1.8,0.7,2.6,0.1l2-1.4c0.8-0.5,1.8-0.5,2.5,0.1
		l1.5,1.2c0.8,0.6,1.8,0.6,2.6,0.1l1.8-1.3c0.8-0.6,1.8-0.5,2.5,0l1.7,1.3c0.8,0.6,1.8,0.6,2.6,0l1.6-1.2c0.7-0.6,1.8-0.6,2.5,0
		l1.9,1.3c0.8,0.6,1.8,0.5,2.6-0.1l1.4-1.2c0.7-0.6,1.8-0.6,2.6-0.1l3.4,2.3"/>
	<line class="st0" x1="40.5" y1="15.7" x2="40.5" y2="29.9"/>
	<line class="st0" x1="35.8" y1="21.4" x2="35.8" y2="23.3"/>
</g>
<g>
	<path class="st1" d="M11.5,57.7v1.6H0.8v-1.6H11.5z M8.9,55.4l-2.7-5.5l-2.7,5.5H1.2l3.7-7.8h2.4l3.7,7.8H8.9z"/>
	<path class="st1" d="M12.5,59.3V47.6h6.1v11.7H12.5z M14.4,57.6h2.3v-8.3h-2.3V57.6z M20.2,59.3V47.6H22v3.9h1.3v1.7H22v6.2H20.2z"
		/>
	<path class="st1" d="M34.1,57.7v1.6H23.4v-1.6H34.1z M33.5,47.6v1.7h-7.6v1.4h7.6v1.7h-7.6v1.3h7.6v1.7H24v-7.8H33.5z"/>
	<path class="st1" d="M45.4,52.8v1.6H34.7v-1.6H45.4z M44.9,51.9h-2.4l-2.5-2.8l-2.5,2.8h-2.4l3.7-4.3h2.4L44.9,51.9z M37.4,55.1
		h5.2c1.2,0,2.2,0.9,2.2,2.1s-1,2.1-2.2,2.1h-5.2c-1.2,0-2.2-0.9-2.2-2.1S36.2,55.1,37.4,55.1z M37.4,57.8h5.2
		c0.3,0,0.5-0.3,0.5-0.6c0-0.3-0.2-0.6-0.5-0.6h-5.2c-0.3,0-0.5,0.3-0.5,0.6C36.9,57.5,37.1,57.8,37.4,57.8z"/>
	<path class="st1" d="M50.4,47.6l2.5,6.3h-2L49.4,50L47.8,54h-2l2.5-6.3H50.4z M48.6,57.7h5.9v-6.2h-1.9v-1.7h1.9v-2.3h1.8v11.8
		h-9.4v-3.8h1.8V57.7z"/>
	<path class="st1" d="M57.3,53.9h2.6v-0.6c-1-0.2-1.9-0.9-1.9-1.9v-0.7c0-0.3,0.1-0.6,0.3-0.9h-0.8V48h2.3v-0.8h1.7V48h2.3v1.7h-0.9
		c0.2,0.3,0.3,0.6,0.3,0.9v0.7c0,0.9-0.7,1.6-1.7,1.9v0.7h3.9v-6.3h1.8v3.1h1.3v1.6h-1.3v3.1h-9.9V53.9z M58.1,56.2h9.1v3.1h-1.8
		v-1.7h-7.3V56.2z M59.6,51.1c0,0.5,0.4,0.9,1,0.9c0.6,0,1-0.3,1-0.9v-0.3c0-0.5-0.4-0.9-1-0.9c-0.6,0-1,0.3-1,0.9V51.1z"/>
	<path class="st1" d="M72.6,47.6c1.5,0,2.7,1.2,2.7,2.7v1.2c0,1.5-1.2,2.7-2.7,2.7h-1c-1.5,0-2.7-1.2-2.7-2.7v-1.2
		c0-1.5,1.2-2.7,2.7-2.7H72.6z M71.2,57.7h5.9V47.6h1.7v11.8h-9.4v-3.8h1.7V57.7z M71.6,49.4c-0.5,0-1,0.4-1,1v1.2c0,0.5,0.4,1,1,1
		h1c0.5,0,1-0.4,1-1v-1.2c0-0.5-0.4-1-1-1H71.6z"/>
</g>
</svg>
