<?xml version="1.0" encoding="utf-8"?>
<!-- Generator: Adobe Illustrator 24.0.1, SVG Export Plug-In . SVG Version: 6.00 Build 0)  -->
<svg version="1.1" id="Layer_1" xmlns="http://www.w3.org/2000/svg" xmlns:xlink="http://www.w3.org/1999/xlink" x="0px" y="0px"
	 width="20px" height="20px" viewBox="0 0 20 20" style="enable-background:new 0 0 20 20;" xml:space="preserve">
<style type="text/css">
	.st0{fill:#787878;}
</style>
<path class="st0" d="M15.3,0h-1.2L2.1,12.1l1.2,1.2L14.7,1.8L15.9,3l-9.8,9.8c-0.3,0.3-0.3,0.9,0,1.2c0.2,0.2,0.4,0.2,0.6,0.2
	c0.2,0,0.4-0.1,0.6-0.2l9.8-9.8l1.2,1.2L6.8,16.8L7.9,18L20,5.9V4.7L15.3,0z M1.7,18.3v-2.5L0,14.2h0V20h5.8v0l-1.7-1.7H1.7z"/>
</svg>
