<?xml version="1.0" encoding="utf-8"?>
<!-- Generator: Adobe Illustrator 24.0.1, SVG Export Plug-In . SVG Version: 6.00 Build 0)  -->
<svg version="1.1" id="Layer_1" xmlns="http://www.w3.org/2000/svg" xmlns:xlink="http://www.w3.org/1999/xlink" x="0px" y="0px"
	 width="20px" height="20px" viewBox="0 0 20 20" style="enable-background:new 0 0 20 20;" xml:space="preserve">
<style type="text/css">
	.st0{fill:#787878;}
</style>
<path class="st0" d="M20,10.8V9.2h-1.7c-0.2-1.7-0.8-3.2-1.8-4.4l1.2-1.2l-1.2-1.2l-1.2,1.2c-1.2-1-2.8-1.7-4.4-1.8V0H9.2v1.7
	C7.5,1.9,5.9,2.5,4.7,3.6L3.5,2.3L2.3,3.5l1.2,1.2C2.5,6,1.9,7.5,1.7,9.2H0v1.7h1.7c0.2,1.7,0.8,3.2,1.8,4.4l-1.2,1.2l1.2,1.2
	l1.2-1.2c1.2,1,2.8,1.7,4.4,1.8V20h1.7v-1.7c1.7-0.2,3.2-0.8,4.4-1.8l1.2,1.2l1.2-1.2l-1.2-1.2c1-1.2,1.7-2.8,1.8-4.4H20z M16.6,9.2
	h-3.4c-0.1-0.3-0.2-0.6-0.4-0.8l2.4-2.4C16,6.8,16.4,8,16.6,9.2z M10,11.7c-0.9,0-1.7-0.7-1.7-1.7S9.1,8.3,10,8.3s1.7,0.7,1.7,1.7
	S10.9,11.7,10,11.7z M14.1,4.7l-2.4,2.4c-0.3-0.2-0.5-0.3-0.8-0.4V3.4C12,3.5,13.1,4,14.1,4.7z M9.2,3.4v3.4C8.8,6.9,8.6,7,8.3,7.1
	L5.9,4.7C6.8,4,7.9,3.5,9.2,3.4z M4.7,5.9l2.4,2.4C7,8.6,6.8,8.9,6.8,9.2H3.4C3.5,8,4,6.8,4.7,5.9z M3.4,10.8h3.4
	c0.1,0.3,0.2,0.6,0.4,0.8l-2.4,2.4C4,13.2,3.5,12,3.4,10.8z M5.9,15.3l2.4-2.4c0.3,0.2,0.5,0.3,0.8,0.4v3.4
	C7.9,16.5,6.8,16,5.9,15.3z M10.8,16.6v-3.4c0.3-0.1,0.6-0.2,0.8-0.4l2.4,2.4C13.1,16,12,16.5,10.8,16.6z M15.2,14.1l-2.4-2.4
	c0.2-0.3,0.3-0.5,0.4-0.8h3.4C16.4,12,16,13.2,15.2,14.1z"/>
</svg>
