<?xml version="1.0" encoding="utf-8"?>
<!-- Generator: Adobe Illustrator 24.0.1, SVG Export Plug-In . SVG Version: 6.00 Build 0)  -->
<svg version="1.1" id="Layer_1" xmlns="http://www.w3.org/2000/svg" xmlns:xlink="http://www.w3.org/1999/xlink" x="0px" y="0px"
	 width="20px" height="20px" viewBox="0 0 20 20" style="enable-background:new 0 0 20 20;" xml:space="preserve">
<style type="text/css">
	.st0{fill:#787878;}
</style>
<g>
	<path class="st0" d="M16.5,0.2l-0.9,1.4c1.2,0.8,2.3,1.8,3,3L20,3.8C19.1,2.3,17.9,1.1,16.5,0.2z M4.4,1.6L3.5,0.2
		C2.1,1.1,0.9,2.3,0,3.8l1.4,0.9C2.2,3.4,3.2,2.4,4.4,1.6z M10,1.9c-4.6,0-8.3,3.7-8.3,8.3c0,2.2,0.9,4.2,2.3,5.7l-1.4,1.4l1.2,1.2
		L5.2,17c1.4,1,3,1.5,4.8,1.5c1.8,0,3.4-0.6,4.8-1.5l1.5,1.5l1.2-1.2l-1.4-1.4c1.4-1.5,2.3-3.5,2.3-5.7C18.3,5.6,14.6,1.9,10,1.9z
		 M10,16.9c-3.7,0-6.7-3-6.7-6.7s3-6.7,6.7-6.7s6.7,3,6.7,6.7S13.7,16.9,10,16.9z M12.7,7.1L9.9,10L7.2,8C6.8,7.7,6.3,7.8,6,8.1
		C5.7,8.5,5.8,9,6.2,9.3l3.3,2.4c0.1,0.1,0.3,0.2,0.5,0.2c0.2,0,0.4-0.1,0.6-0.2l3.3-3.3c0.3-0.3,0.3-0.9,0-1.2
		C13.6,6.8,13.1,6.8,12.7,7.1z"/>
</g>
</svg>
