<?xml version="1.0" encoding="utf-8"?>
<!-- Generator: Adobe Illustrator 24.2.1, SVG Export Plug-In . SVG Version: 6.00 Build 0)  -->
<svg version="1.1" id="레이어_1" xmlns="http://www.w3.org/2000/svg" xmlns:xlink="http://www.w3.org/1999/xlink" x="0px"
	 y="0px" width="122px" height="16px" viewBox="0 0 122 16" style="enable-background:new 0 0 122 16;" xml:space="preserve">
<style type="text/css">
	.st0{fill:none;stroke:#FFFFFF;stroke-width:1.0971;stroke-linecap:round;stroke-linejoin:round;stroke-miterlimit:10;}
	.st1{fill:#FFFFFF;}
</style>
<g>
	<polyline class="st0" points="14.3,6.9 14.3,4.2 12.7,4.2 12.7,2.6 7.2,2.6 7.2,4.2 5.6,4.2 5.6,6.9 	"/>
	<polyline class="st0" points="11.6,2.6 11.6,0.6 8.4,0.6 8.4,2.6 	"/>
	<path class="st0" d="M5.2,12.9c0,0-1.7-3.2-2-4.5c0,0,4.2-2.5,6.7-3c2.5,0.5,6.7,3,6.7,3c-0.3,1.3-2,4.5-2,4.5"/>
	<path class="st0" d="M0.9,13.5l1.5-1c0.3-0.2,0.8-0.2,1.1,0.1L4,13.1c0.3,0.3,0.8,0.3,1.1,0.1l0.8-0.6c0.3-0.2,0.8-0.2,1.1,0
		l0.6,0.5c0.3,0.3,0.8,0.3,1.1,0l0.8-0.5c0.3-0.2,0.8-0.2,1.1,0l0.7,0.5c0.3,0.2,0.8,0.2,1.1,0l0.7-0.5c0.3-0.2,0.7-0.2,1.1,0
		l0.8,0.6c0.3,0.2,0.8,0.2,1.1,0l0.6-0.5c0.3-0.2,0.7-0.3,1.1,0l1.4,1"/>
	<path class="st0" d="M0.9,15.6l1.5-1c0.3-0.2,0.8-0.2,1.1,0.1L4,15.2c0.3,0.3,0.8,0.3,1.1,0.1l0.8-0.6c0.3-0.2,0.8-0.2,1.1,0
		l0.6,0.5c0.3,0.3,0.8,0.3,1.1,0l0.8-0.5c0.3-0.2,0.8-0.2,1.1,0l0.7,0.5c0.3,0.2,0.8,0.2,1.1,0l0.7-0.5c0.3-0.2,0.7-0.2,1.1,0
		l0.8,0.6c0.3,0.2,0.8,0.2,1.1,0l0.6-0.5c0.3-0.2,0.7-0.3,1.1,0l1.4,1"/>
	<line class="st0" x1="10" y1="5.4" x2="10" y2="11.3"/>
	<line class="st0" x1="8" y1="7.7" x2="8" y2="8.5"/>
</g>
<g>
	<path class="st1" d="M36.3,13.4v2H22.9v-2H36.3z M33,10.5l-3.4-6.9l-3.4,6.9h-2.7l4.7-9.8h3l4.7,9.8H33z"/>
	<path class="st1" d="M37.6,15.4V0.8h7.7v14.6H37.6z M40,13.3h2.9V2.9H40V13.3z M47.3,15.5V0.7h2.2v4.9h1.6v2.1h-1.6v7.7H47.3z"/>
	<path class="st1" d="M64.6,13.4v2H51.2v-2H64.6z M63.9,0.8v2.1h-9.5v1.8h9.5v2.1h-9.5v1.7h9.5v2.1H52V0.8H63.9z"/>
	<path class="st1" d="M78.8,7.3v2H65.4v-2H78.8z M78.3,6.1h-3l-3.1-3.6L69,6.1h-3l4.6-5.4h3L78.3,6.1z M68.8,10.2h6.5
		c1.5,0,2.8,1.1,2.8,2.6s-1.2,2.6-2.8,2.6h-6.5c-1.5,0-2.8-1.1-2.8-2.6S67.3,10.2,68.8,10.2z M68.8,13.6h6.5c0.4,0,0.7-0.3,0.7-0.7
		c0-0.4-0.3-0.7-0.7-0.7h-6.5c-0.4,0-0.7,0.3-0.7,0.7C68.1,13.2,68.4,13.6,68.8,13.6z"/>
	<path class="st1" d="M85.1,0.8l3.1,7.9h-2.5l-1.9-4.9l-1.9,4.9h-2.5l3.1-7.9H85.1z M82.8,13.4h7.3V5.7h-2.4V3.5h2.4V0.7h2.2v14.8
		H80.6v-4.8h2.2V13.4z"/>
	<path class="st1" d="M93.7,8.6H97V7.8c-1.3-0.3-2.3-1.2-2.3-2.4V4.5c0-0.4,0.1-0.8,0.3-1.2h-1.1V1.2h2.9V0.2H99v1.1h2.9v2.1h-1.1
		c0.2,0.3,0.3,0.7,0.3,1.2v0.9c0,1.2-0.9,2-2.1,2.4v0.9h4.9V0.7h2.2v3.9h1.6v2h-1.6v3.8H93.7V8.6z M94.8,11.5h11.4v3.9h-2.2v-2.1
		h-9.1V11.5z M96.6,5.1c0,0.7,0.5,1.1,1.3,1.1s1.3-0.4,1.3-1.1V4.8c0-0.7-0.5-1.1-1.3-1.1s-1.3,0.4-1.3,1.1V5.1z"/>
	<path class="st1" d="M112.9,0.8c1.9,0,3.4,1.5,3.4,3.4v1.6c0,1.9-1.5,3.4-3.4,3.4h-1.2c-1.9,0-3.4-1.5-3.4-3.4V4.2
		c0-1.9,1.5-3.4,3.4-3.4H112.9z M111.1,13.4h7.4V0.7h2.2v14.8h-11.8v-4.8h2.2V13.4z M111.7,2.9c-0.7,0-1.2,0.6-1.2,1.2v1.6
		c0,0.7,0.6,1.2,1.2,1.2h1.2c0.7,0,1.2-0.6,1.2-1.2V4.2c0-0.7-0.6-1.2-1.2-1.2H111.7z"/>
</g>
</svg>
