<?xml version="1.0" encoding="utf-8"?>
<!-- Generator: Adobe Illustrator 24.2.1, SVG Export Plug-In . SVG Version: 6.00 Build 0)  -->
<svg version="1.1" id="레이어_1" xmlns="http://www.w3.org/2000/svg" xmlns:xlink="http://www.w3.org/1999/xlink" x="0px"
	 y="0px" width="90px" height="16px" viewBox="0 0 90 16" style="enable-background:new 0 0 90 16;" xml:space="preserve">
<style type="text/css">
	.st0{fill:#FFFFFF;}
	.st1{fill:#FFFFFF;stroke:#FFFFFF;stroke-width:0.5167;stroke-miterlimit:10;}
</style>
<g>
	<path class="st0" d="M32.3,13.8v2.1H18.5v-2.1H32.3z M28.9,10.8l-3.5-7.1l-3.5,7.1h-2.8l4.8-10h3l4.8,10H28.9z"/>
	<path class="st0" d="M33.7,15.8V0.8h7.9v15.1H33.7z M36.1,13.7h3V3h-3V13.7z M43.6,15.9V0.7h2.3v5.1h1.6v2.2h-1.6v8H43.6z"/>
	<path class="st0" d="M61.5,13.8v2.1H47.7v-2.1H61.5z M60.7,0.8V3h-9.8v1.8h9.8V7h-9.8v1.7h9.8v2.2H48.4V0.8H60.7z"/>
	<path class="st0" d="M76,7.5v2H62.3v-2H76z M75.5,6.3h-3.1l-3.2-3.7L66,6.3h-3.1l4.8-5.5h3L75.5,6.3z M65.8,10.5h6.7
		c1.6,0,2.9,1.1,2.9,2.7s-1.3,2.7-2.9,2.7h-6.7c-1.6,0-2.9-1.1-2.9-2.7S64.2,10.5,65.8,10.5z M65.8,13.9h6.7c0.4,0,0.7-0.4,0.7-0.7
		c0-0.4-0.3-0.7-0.7-0.7h-6.7c-0.4,0-0.7,0.4-0.7,0.7C65.1,13.6,65.4,13.9,65.8,13.9z"/>
	<path class="st0" d="M82.5,0.8L85.7,9h-2.5l-2-5.1l-2,5.1h-2.5l3.2-8.2H82.5z M80.2,13.7h7.5V5.8h-2.5V3.6h2.5V0.7h2.3v15.2H77.9
		V11h2.3V13.7z"/>
</g>
<g>
	<path class="st1" d="M15.5,7.7h-1.7c-0.1-1.3-0.6-2.6-1.5-3.6l1.2-1.2c0.1-0.1,0.1-0.3,0-0.4c-0.1-0.1-0.3-0.1-0.4,0l-1.2,1.2
		c-1-0.9-2.3-1.4-3.6-1.5V0.5c0-0.2-0.1-0.3-0.3-0.3S7.8,0.4,7.8,0.5v1.7C6.4,2.3,5.2,2.8,4.2,3.7L2.9,2.5c-0.1-0.1-0.3-0.1-0.4,0
		c-0.1,0.1-0.1,0.3,0,0.4l1.2,1.2c-0.9,1-1.4,2.3-1.5,3.6H0.6C0.4,7.7,0.3,7.8,0.3,8c0,0.2,0.1,0.3,0.3,0.3h1.7
		c0.1,1.3,0.6,2.6,1.5,3.6l-1.2,1.2c-0.1,0.1-0.1,0.3,0,0.4c0.1,0.1,0.1,0.1,0.2,0.1c0.1,0,0.1,0,0.2-0.1l1.2-1.2
		c1,0.9,2.3,1.4,3.6,1.5v1.7c0,0.2,0.1,0.3,0.3,0.3s0.3-0.1,0.3-0.3v-1.7c1.3-0.1,2.6-0.6,3.6-1.5l1.2,1.2c0.1,0.1,0.1,0.1,0.2,0.1
		c0.1,0,0.1,0,0.2-0.1c0.1-0.1,0.1-0.3,0-0.4l-1.2-1.2c0.9-1,1.4-2.3,1.5-3.6h1.7c0.2,0,0.3-0.1,0.3-0.3C15.8,7.8,15.7,7.7,15.5,7.7
		z M11.7,11.7c-0.1,0.1-0.1,0.1-0.2,0.2c-0.9,0.8-2,1.3-3.2,1.3c-0.1,0-0.2,0-0.3,0c-0.1,0-0.2,0-0.3,0c-1.2-0.1-2.3-0.5-3.2-1.3
		c-0.1-0.1-0.1-0.1-0.2-0.2c-0.1-0.1-0.1-0.1-0.2-0.2c-0.8-0.9-1.3-2.1-1.3-3.2c0-0.2,0-0.4,0-0.5c0.1-1.2,0.5-2.3,1.3-3.2
		c0.1-0.1,0.1-0.1,0.2-0.2c0.1-0.1,0.1-0.1,0.2-0.2c0.9-0.8,2-1.3,3.2-1.3c0.1,0,0.2,0,0.3,0c0.1,0,0.2,0,0.3,0
		c1.2,0.1,2.3,0.5,3.2,1.3c0.1,0.1,0.1,0.1,0.2,0.2c0.1,0.1,0.1,0.1,0.2,0.2c0.8,0.9,1.3,2.1,1.3,3.2c0,0.2,0,0.4,0,0.5
		c-0.1,1.2-0.5,2.3-1.3,3.2C11.9,11.5,11.8,11.6,11.7,11.7z"/>
	<path class="st1" d="M11.4,5c-0.1-0.1-0.1-0.1-0.2-0.2c-0.1-0.1-0.1-0.1-0.2-0.2C10.3,4,9.3,3.6,8.3,3.5c-0.1,0-0.2,0-0.3,0
		c-0.1,0-0.2,0-0.3,0C6.8,3.6,5.8,4,5.1,4.6C5,4.7,4.9,4.8,4.9,4.8C4.8,4.9,4.8,5,4.7,5C4,5.8,3.6,6.8,3.6,7.7c0,0.2,0,0.4,0,0.5
		c0.1,1,0.4,1.9,1.1,2.7c0.1,0.1,0.1,0.1,0.2,0.2c0.1,0.1,0.1,0.1,0.2,0.2c0.8,0.7,1.7,1.1,2.7,1.1c0.1,0,0.2,0,0.3,0
		c0.1,0,0.2,0,0.3,0c1-0.1,1.9-0.4,2.7-1.1c0.1-0.1,0.1-0.1,0.2-0.2c0.1-0.1,0.1-0.1,0.2-0.2c0.7-0.8,1.1-1.7,1.1-2.7
		c0-0.1,0-0.2,0-0.3c0-0.1,0-0.2,0-0.3C12.5,6.7,12.1,5.8,11.4,5z M8.3,11.9V9.4c0.2,0,0.3-0.1,0.5-0.2l1.8,1.8
		C10,11.5,9.2,11.9,8.3,11.9z M7.8,4.1v2.6c-0.2,0-0.3,0.1-0.5,0.2L5.5,5C6.1,4.5,6.9,4.1,7.8,4.1z M8.8,7.7c0.1,0.2,0.1,0.4,0,0.5
		c0,0,0,0.1,0,0.1c0,0.1-0.1,0.2-0.2,0.2C8.6,8.7,8.5,8.7,8.4,8.8c0,0-0.1,0-0.1,0c-0.1,0-0.2,0-0.3,0c-0.1,0-0.2,0-0.3,0
		c0,0-0.1,0-0.1,0c-0.1,0-0.2-0.1-0.2-0.2C7.4,8.5,7.3,8.5,7.3,8.4c0,0,0-0.1,0-0.1c-0.1-0.2-0.1-0.4,0-0.5c0,0,0-0.1,0-0.1
		c0-0.1,0.1-0.2,0.2-0.2c0.1-0.1,0.1-0.1,0.2-0.2c0,0,0.1,0,0.1,0c0.1,0,0.2,0,0.3,0c0.1,0,0.2,0,0.3,0c0,0,0.1,0,0.1,0
		c0.1,0,0.2,0.1,0.2,0.2C8.7,7.5,8.8,7.5,8.8,7.7C8.8,7.7,8.8,7.7,8.8,7.7z M8.8,6.8C8.7,6.7,8.5,6.7,8.3,6.6V4.1
		c0.9,0.1,1.7,0.4,2.3,1L8.8,6.8z M6.9,7.2C6.8,7.4,6.7,7.6,6.7,7.7H4.1c0.1-0.8,0.4-1.6,1-2.3L6.9,7.2z M6.7,8.3
		c0,0.2,0.1,0.3,0.2,0.5l-1.8,1.8c-0.6-0.7-0.9-1.5-1-2.3H6.7z M7.3,9.2c0.2,0.1,0.3,0.2,0.5,0.2v2.6c-0.9-0.1-1.7-0.4-2.3-1
		L7.3,9.2z M9.2,8.8c0.1-0.2,0.2-0.3,0.2-0.5H12c-0.1,0.9-0.4,1.7-1,2.3L9.2,8.8z M9.4,7.7c0-0.2-0.1-0.3-0.2-0.5L11,5.4
		c0.6,0.6,0.9,1.5,1,2.3H9.4z"/>
	<path class="st1" d="M8.3,7.8C8.3,7.7,8.3,7.7,8.3,7.8C8.2,7.7,8.1,7.7,8.1,7.7c0,0,0,0,0,0c0,0,0,0,0,0c-0.1,0-0.1,0-0.2,0.1
		c0,0,0,0,0,0c0,0,0,0,0,0c0,0-0.1,0.1-0.1,0.2c0,0,0,0.1,0,0.1c0,0.1,0,0.1,0.1,0.2c0,0,0,0,0,0c0,0,0,0,0,0c0,0,0.1,0.1,0.2,0.1
		c0,0,0,0,0,0c0,0,0,0,0,0c0.1,0,0.1,0,0.2-0.1c0,0,0,0,0,0c0,0,0,0,0,0c0,0,0.1-0.1,0.1-0.2c0,0,0-0.1,0-0.1
		C8.4,7.9,8.4,7.8,8.3,7.8C8.3,7.8,8.3,7.8,8.3,7.8z"/>
</g>
</svg>
