<?xml version="1.0" encoding="utf-8"?>
<!-- Generator: Adobe Illustrator 24.2.1, SVG Export Plug-In . SVG Version: 6.00 Build 0)  -->
<svg version="1.1" id="레이어_1" xmlns="http://www.w3.org/2000/svg" xmlns:xlink="http://www.w3.org/1999/xlink" x="0px"
	 y="0px" width="16px" height="16px" viewBox="0 0 16 16" style="enable-background:new 0 0 16 16;" xml:space="preserve">
<style type="text/css">
	.st0{fill:#FFFFFF;stroke:#FFFFFF;stroke-width:0.7;stroke-miterlimit:10;}
</style>
<path id="XMLID_428_" class="st0" d="M0.55,7.83L0.55,7.83c0,0.08,0,0.08,0,0.08v0.08v0.08c0,0,0,0,0,0.08l0,0V8.2l0,0
	c0,0,0,0.08,0.08,0.08l6.93,6.93c0.08,0.08,0.23,0.15,0.3,0.15c0.08,0,0.23-0.08,0.3-0.15c0.15-0.15,0.15-0.45,0-0.6L1.98,8.43
	h13.12c0.23,0,0.45-0.23,0.45-0.45c0-0.23-0.23-0.45-0.45-0.45H1.98l6.18-6.18c0.15-0.15,0.15-0.45,0-0.6s-0.45-0.15-0.6,0
	L0.62,7.67C0.62,7.67,0.55,7.67,0.55,7.83C0.55,7.75,0.55,7.75,0.55,7.83C0.55,7.75,0.55,7.83,0.55,7.83z"/>
</svg>
