<?xml version="1.0" encoding="utf-8"?>
<!-- Generator: Adobe Illustrator 24.2.1, SVG Export Plug-In . SVG Version: 6.00 Build 0)  -->
<svg version="1.1" id="레이어_1" xmlns="http://www.w3.org/2000/svg" xmlns:xlink="http://www.w3.org/1999/xlink" x="0px"
	 y="0px" width="40px" height="30px" viewBox="0 0 40 30" style="enable-background:new 0 0 40 30;" xml:space="preserve">
<style type="text/css">
	.st0{fill:none;stroke:#333333;stroke-linejoin:round;stroke-miterlimit:10;}
	.st1{fill:none;stroke:#333333;stroke-miterlimit:10;}
</style>
<g>
	<path class="st0" d="M27.3,2.1h3.6c0.4,0,0.7,0.3,0.7,0.7v10"/>
	<path class="st0" d="M20.1,22.9H5.8c-0.4,0-0.7-0.3-0.7-0.7V2.9c0-0.4,0.3-0.7,0.7-0.7h3.6"/>
	<circle class="st0" cx="29.4" cy="22.1" r="7.9"/>
	<line class="st0" x1="5.1" y1="7.9" x2="31.5" y2="7.9"/>
	<polyline class="st0" points="33,18.6 29.4,22.9 26.5,20.7 	"/>
	<line class="st0" x1="25.8" y1="0" x2="25.8" y2="4.3"/>
	<line class="st0" x1="12.3" y1="2.1" x2="24.4" y2="2.1"/>
	<line class="st0" x1="10.8" y1="0" x2="10.8" y2="4.3"/>
	<line class="st1" x1="13" y1="11.4" x2="15.1" y2="11.4"/>
	<line class="st1" x1="16.5" y1="11.4" x2="18.7" y2="11.4"/>
	<line class="st1" x1="20.1" y1="11.4" x2="22.3" y2="11.4"/>
	<line class="st1" x1="23.7" y1="11.4" x2="25.8" y2="11.4"/>
	<line class="st1" x1="9.4" y1="15" x2="11.5" y2="15"/>
	<line class="st1" x1="13" y1="15" x2="15.1" y2="15"/>
	<line class="st1" x1="16.5" y1="15" x2="18.7" y2="15"/>
	<line class="st1" x1="20.1" y1="15" x2="22.3" y2="15"/>
	<line class="st1" x1="9.4" y1="18.6" x2="11.5" y2="18.6"/>
	<line class="st1" x1="13" y1="18.6" x2="15.1" y2="18.6"/>
	<line class="st1" x1="16.5" y1="18.6" x2="18.7" y2="18.6"/>
</g>
</svg>
