<?xml version="1.0" encoding="utf-8"?>
<!-- Generator: Adobe Illustrator 24.2.1, SVG Export Plug-In . SVG Version: 6.00 Build 0)  -->
<svg version="1.1" id="Layer_1" xmlns="http://www.w3.org/2000/svg" xmlns:xlink="http://www.w3.org/1999/xlink" x="0px" y="0px"
	 width="30px" height="30px" viewBox="0 0 30 30" style="enable-background:new 0 0 30 30;" xml:space="preserve">
<style type="text/css">
	.st0{fill:#777777;}
</style>
<g>
	<rect x="14.5" y="8.4" class="st0" width="2" height="7"/>
	<polygon class="st0" points="23.5,17.4 7.5,17.4 7.5,7.4 5.5,7.4 5.5,19.4 25.5,19.4 25.5,7.4 23.5,7.4 	"/>
	<path class="st0" d="M26.5,3.4h-22c-0.6,0-1,0.4-1,1s0.4,1,1,1h22c0.6,0,1-0.4,1-1S27.1,3.4,26.5,3.4z"/>
	<path class="st0" d="M16.5,21.9v-1.5h-2v1.5l-3.6,2.7c-0.4,0.3-0.5,1-0.2,1.4s1,0.5,1.4,0.2l3.4-2.5l3.4,2.5
		c0.2,0.1,0.4,0.2,0.6,0.2c0.3,0,0.6-0.1,0.8-0.4c0.3-0.4,0.2-1.1-0.2-1.4L16.5,21.9z"/>
	<rect x="10.5" y="12.4" class="st0" width="2" height="3"/>
	<rect x="18.5" y="10.4" class="st0" width="2" height="5"/>
</g>
</svg>
