<?xml version="1.0" encoding="utf-8"?>
<!-- Generator: Adobe Illustrator 24.2.1, SVG Export Plug-In . SVG Version: 6.00 Build 0)  -->
<svg version="1.1" id="Layer_1" xmlns="http://www.w3.org/2000/svg" xmlns:xlink="http://www.w3.org/1999/xlink" x="0px" y="0px"
	 width="30px" height="30px" viewBox="0 0 30 30" style="enable-background:new 0 0 30 30;" xml:space="preserve">
<style type="text/css">
	.st0{fill:#FFFFFF;}
</style>
<path class="st0" d="M6.9,17c-1.7,0-3,1.3-3,3v4c0,1.7,1.3,3,3,3c1.7,0,3-1.3,3-3v-4C9.9,18.3,8.6,17,6.9,17z M7.9,24
	c0,0.6-0.4,1-1,1c-0.6,0-1-0.4-1-1v-4c0-0.6,0.4-1,1-1c0.6,0,1,0.4,1,1V24z M22.9,11c-1.7,0-3,1.3-3,3v10c0,1.7,1.3,3,3,3
	c1.7,0,3-1.3,3-3V14C25.9,12.3,24.6,11,22.9,11z M23.9,24c0,0.6-0.4,1-1,1c-0.6,0-1-0.4-1-1V14c0-0.6,0.4-1,1-1c0.6,0,1,0.4,1,1V24z
	 M14.9,3c-1.7,0-3,1.3-3,3v18c0,1.7,1.3,3,3,3c1.7,0,3-1.3,3-3V6C17.9,4.3,16.6,3,14.9,3z M15.9,24c0,0.6-0.4,1-1,1
	c-0.6,0-1-0.4-1-1V6c0-0.6,0.4-1,1-1c0.6,0,1,0.4,1,1V24z"/>
</svg>
