<?xml version="1.0" encoding="utf-8"?>
<!-- Generator: Adobe Illustrator 24.2.1, SVG Export Plug-In . SVG Version: 6.00 Build 0)  -->
<svg version="1.1" xmlns="http://www.w3.org/2000/svg" xmlns:xlink="http://www.w3.org/1999/xlink" x="0px" y="0px" width="22px"
	 height="17px" viewBox="0 0 22 17" style="enable-background:new 0 0 22 17;" xml:space="preserve">
<style type="text/css">
	.st0{display:none;}
	.st1{display:inline;fill:none;stroke:#2C6CAE;stroke-width:0.75;stroke-linejoin:round;stroke-miterlimit:10;}
	.st2{display:inline;fill:#2B72BA;}
	.st3{display:inline;}
	.st4{fill:none;stroke:#777778;stroke-linecap:round;stroke-linejoin:round;stroke-miterlimit:10;}
	.st5{fill:#2B72BA;}
	.st6{fill:none;stroke:#2B72BA;stroke-linecap:round;stroke-linejoin:round;stroke-miterlimit:10;}
	.st7{display:inline;fill:none;stroke:#FFFFFF;stroke-width:0.5;stroke-linecap:round;stroke-linejoin:round;stroke-miterlimit:10;}
	.st8{fill:none;stroke:#777778;stroke-linecap:round;stroke-linejoin:round;stroke-miterlimit:22.9256;}
	.st9{fill:none;stroke:#2C6CAE;stroke-linecap:round;stroke-linejoin:round;stroke-miterlimit:22.9256;}
	.st10{display:inline;fill:#2C6CAE;stroke:#2C6CAE;stroke-linecap:round;stroke-linejoin:round;stroke-miterlimit:22.9256;}
	.st11{fill:#777778;}
	.st12{display:inline;fill:#FFFFFF;}
</style>
<g id="레이어_1" class="st0">
	<path class="st1" d="M9.75,1.25L3.83,6.07c-0.1,0.08-0.16,0.21-0.16,0.34v9.06c0,0.24,0.2,0.44,0.44,0.44h3.97
		c0.24,0,0.44-0.2,0.44-0.44V9.73c0-0.24,0.2-0.44,0.44-0.44h3.53c0.24,0,0.44,0.2,0.44,0.44v5.74c0,0.24,0.2,0.44,0.44,0.44h3.97
		c0.24,0,0.44-0.2,0.44-0.44V6.41c0-0.13-0.06-0.26-0.16-0.34L11.7,1.25C11.13,0.79,10.32,0.79,9.75,1.25z"/>
</g>
<g id="레이어_2" class="st0">
	<path class="st2" d="M9.75,1.31L3.83,6.12c-0.1,0.08-0.16,0.21-0.16,0.34v9.06c0,0.24,0.2,0.44,0.44,0.44h3.97
		c0.24,0,0.44-0.2,0.44-0.44V9.79c0-0.24,0.2-0.44,0.44-0.44h3.53c0.24,0,0.44,0.2,0.44,0.44v5.74c0,0.24,0.2,0.44,0.44,0.44h3.97
		c0.24,0,0.44-0.2,0.44-0.44V6.47c0-0.13-0.06-0.26-0.16-0.34L11.7,1.31C11.13,0.85,10.32,0.85,9.75,1.31z"/>
</g>
<g id="레이어_3" class="st0">
	<g class="st3">
		<polyline class="st4" points="6.33,14.69 3.9,8.21 10.88,5.25 17.87,8.21 15.44,14.69 		"/>
		<line class="st4" x1="12.58" y1="7.94" x2="14.27" y2="8.66"/>
		<line class="st4" x1="10.88" y1="14.72" x2="10.88" y2="5.25"/>
		<path class="st4" d="M10.88,0.91"/>
		<line class="st4" x1="9.19" y1="7.94" x2="7.5" y2="8.66"/>
		<path class="st4" d="M6.23,7.22V3.67c0-0.22,0.19-0.39,0.42-0.39h8.47c0.23,0,0.42,0.18,0.42,0.39v3.55"/>
		<path class="st4" d="M7.92,3.28V1.3c0-0.22,0.19-0.39,0.42-0.39h5.08c0.23,0,0.42,0.18,0.42,0.39v1.97"/>
		<path class="st4" d="M0.72,15.91c0.92,0,1.84-0.33,2.54-0.99c1.4,1.32,3.68,1.32,5.08,0c1.4,1.32,3.68,1.32,5.08,0
			c1.4,1.32,3.68,1.32,5.08,0c0.7,0.66,1.62,0.99,2.54,0.99"/>
	</g>
</g>
<g id="레이어_4" class="st0">
	<g class="st3">
		<polyline class="st5" points="6.33,14.69 3.9,8.21 10.88,5.25 17.87,8.21 15.44,14.69 		"/>
		<line class="st6" x1="12.58" y1="7.94" x2="14.27" y2="8.66"/>
		<line class="st6" x1="10.88" y1="14.72" x2="10.88" y2="5.25"/>
		<path class="st6" d="M10.88,0.91"/>
		<line class="st6" x1="9.19" y1="7.94" x2="7.5" y2="8.66"/>
		<path class="st5" d="M6.23,7.22V3.67c0-0.22,0.19-0.39,0.42-0.39h8.47c0.23,0,0.42,0.18,0.42,0.39v3.55"/>
		<path class="st5" d="M7.92,3.28V1.3c0-0.22,0.19-0.39,0.42-0.39h5.08c0.23,0,0.42,0.18,0.42,0.39v1.97"/>
		<path class="st6" d="M0.72,15.91c0.92,0,1.84-0.33,2.54-0.99c1.4,1.32,3.68,1.32,5.08,0c1.4,1.32,3.68,1.32,5.08,0
			c1.4,1.32,3.68,1.32,5.08,0c0.7,0.66,1.62,0.99,2.54,0.99"/>
	</g>
	<polyline class="st7" points="6.33,14.56 3.9,8.09 10.88,5.12 17.87,8.09 15.44,14.56 	"/>
	<line class="st7" x1="12.58" y1="7.82" x2="14.27" y2="8.53"/>
	<line class="st7" x1="10.88" y1="14.6" x2="10.88" y2="5.12"/>
	<path class="st7" d="M10.88,0.78"/>
	<line class="st7" x1="9.19" y1="7.82" x2="7.5" y2="8.53"/>
	<path class="st7" d="M6.23,7.1V3.55c0-0.22,0.19-0.39,0.42-0.39h8.47c0.23,0,0.42,0.18,0.42,0.39V7.1"/>
	<path class="st7" d="M7.92,3.15V1.18c0-0.22,0.19-0.39,0.42-0.39h5.08c0.23,0,0.42,0.18,0.42,0.39v1.97"/>
</g>
<g id="레이어_5" class="st0">
	<g class="st3">
		<path class="st8" d="M20.01,15.41c-0.98,0-1.82-0.6-2.25-1.49c-0.43,0.89-1.28,1.49-2.25,1.49c-0.98,0-1.82-0.6-2.25-1.49
			c-0.43,0.89-1.28,1.49-2.25,1.49c-0.98,0-1.82-0.6-2.25-1.49c-0.43,0.89-1.28,1.49-2.25,1.49c-0.98,0-1.82-0.6-2.25-1.49
			c-0.43,0.89-1.28,1.49-2.25,1.49"/>
		<polyline class="st8" points="4.63,10.61 9.57,1.41 14.28,10.68 		"/>
		<polyline class="st8" points="12.89,7.68 14.25,6.05 16.46,9.36 17.39,8.41 19.52,12.11 		"/>
	</g>
</g>
<g id="레이어_6" class="st0">
	<g class="st3">
		<path class="st9" d="M20.01,15.41c-0.98,0-1.82-0.6-2.25-1.49c-0.43,0.89-1.28,1.49-2.25,1.49c-0.98,0-1.82-0.6-2.25-1.49
			c-0.43,0.89-1.28,1.49-2.25,1.49c-0.98,0-1.82-0.6-2.25-1.49c-0.43,0.89-1.28,1.49-2.25,1.49c-0.98,0-1.82-0.6-2.25-1.49
			c-0.43,0.89-1.28,1.49-2.25,1.49"/>
		<polyline class="st9" points="4.63,10.61 9.57,1.41 14.28,10.68 		"/>
		<polyline class="st9" points="12.89,7.68 14.25,6.05 16.46,9.36 17.39,8.41 19.52,12.11 		"/>
	</g>
	<path class="st10" d="M9.6,1.48l-5.23,9.48c0,0,1.88,1.21,5.3,1.08s4.82-1.35,4.82-1.35s1.17,1.15,2.54,1.29
		c1.37,0.15,2.39,0.13,2.39,0.13L17.44,8.5l-1.07,0.73l-2.19-2.9l-1.44,1.32L9.6,1.48z"/>
</g>
<g id="레이어_7" class="st0">
	<g class="st3">
		<path class="st11" d="M13.78,5.38H8.22c-0.25,0-0.45,0.2-0.45,0.45c0,0.25,0.2,0.45,0.45,0.45h5.57c0.25,0,0.45-0.2,0.45-0.45
			C14.23,5.58,14.03,5.38,13.78,5.38z"/>
		<path class="st11" d="M11.5,8.07H8.22c-0.25,0-0.45,0.2-0.45,0.45s0.2,0.45,0.45,0.45h3.28c0.25,0,0.45-0.2,0.45-0.45
			S11.75,8.07,11.5,8.07z"/>
		<path class="st11" d="M12.72,0.79H9.28C5.82,0.79,3,3.61,3,7.07c0,2.91,1.99,5.42,4.78,6.1v2.67c0,0.29,0.17,0.55,0.44,0.66
			c0.09,0.03,0.18,0.05,0.26,0.05c0.19,0,0.37-0.08,0.51-0.22l2.83-2.98h0.89c3.46,0,6.28-2.82,6.28-6.28
			C19,3.61,16.18,0.79,12.72,0.79z M12.72,12.45h-1.28l-2.77,2.91v-2.93l-0.37-0.07C5.75,11.9,3.9,9.68,3.9,7.07
			c0-2.97,2.41-5.38,5.38-5.38h3.45c2.97,0,5.38,2.41,5.38,5.38C18.1,10.04,15.69,12.45,12.72,12.45z"/>
	</g>
</g>
<g id="레이어_9" class="st0">
	<path class="st2" d="M12.72,12.45h-1.28l-2.77,2.91v-2.93l-0.37-0.07C5.75,11.9,3.9,9.68,3.9,7.07c0-2.97,2.41-5.38,5.38-5.38h3.45
		c2.97,0,5.38,2.41,5.38,5.38C18.1,10.04,15.69,12.45,12.72,12.45z"/>
</g>
<g id="레이어_8" class="st0">
	<g class="st3">
		<path class="st5" d="M12.72,0.79H9.28C5.82,0.79,3,3.61,3,7.07c0,2.91,1.99,5.42,4.78,6.1v2.67c0,0.29,0.17,0.55,0.44,0.66
			c0.09,0.03,0.18,0.05,0.26,0.05c0.19,0,0.37-0.08,0.51-0.22l2.83-2.98h0.89c3.46,0,6.28-2.82,6.28-6.28
			C19,3.61,16.18,0.79,12.72,0.79z M12.72,12.45h-1.28l-2.77,2.91v-2.93l-0.37-0.07C5.75,11.9,3.9,9.68,3.9,7.07
			c0-2.97,2.41-5.38,5.38-5.38h3.45c2.97,0,5.38,2.41,5.38,5.38C18.1,10.04,15.69,12.45,12.72,12.45z"/>
	</g>
	<path class="st12" d="M13.78,5.38H8.22c-0.25,0-0.45,0.2-0.45,0.45c0,0.25,0.2,0.45,0.45,0.45h5.57c0.25,0,0.45-0.2,0.45-0.45
		C14.23,5.58,14.03,5.38,13.78,5.38z"/>
	<path class="st12" d="M11.5,8.07H8.22c-0.25,0-0.45,0.2-0.45,0.45s0.2,0.45,0.45,0.45h3.28c0.25,0,0.45-0.2,0.45-0.45
		S11.75,8.07,11.5,8.07z"/>
</g>
<g id="레이어_10" class="st0">
	<g class="st3">
		<path class="st4" d="M13.94,4.68c0,1.53-1.31,2.76-2.87,2.62c-1.38-0.12-2.4-1.37-2.4-2.76V3.77c0-1.39,1.01-2.64,2.4-2.76
			c1.56-0.14,2.87,1.09,2.87,2.62V4.68z"/>
		<path class="st4" d="M12.69,9.74l-0.88,1.05c-0.26,0.31-0.75,0.31-1.01,0L9.92,9.74c-0.37-0.44-0.98-0.6-1.5-0.38
			c-2.35,1.02-4.05,3.25-4.31,5.9C4.07,15.66,4.37,16,4.76,16h13.08c0.39,0,0.7-0.34,0.66-0.73c-0.27-2.65-1.97-4.88-4.31-5.9
			C13.67,9.14,13.06,9.3,12.69,9.74z"/>
	</g>
</g>
<g id="레이어_11">
	<g>
		<path class="st5" d="M13.94,4.68c0,1.53-1.31,2.76-2.87,2.62c-1.38-0.12-2.4-1.37-2.4-2.76V3.77c0-1.39,1.01-2.64,2.4-2.76
			c1.56-0.14,2.87,1.09,2.87,2.62V4.68z"/>
		<path class="st5" d="M12.69,9.74l-0.88,1.05c-0.26,0.31-0.75,0.31-1.01,0L9.92,9.74c-0.37-0.44-0.98-0.6-1.5-0.38
			c-2.35,1.02-4.05,3.25-4.31,5.9C4.07,15.66,4.37,16,4.76,16h13.08c0.39,0,0.7-0.34,0.66-0.73c-0.27-2.65-1.97-4.88-4.31-5.9
			C13.67,9.14,13.06,9.3,12.69,9.74z"/>
	</g>
</g>
</svg>
