<?xml version="1.0" encoding="utf-8"?>
<!-- Generator: Adobe Illustrator 24.2.1, SVG Export Plug-In . SVG Version: 6.00 Build 0)  -->
<svg version="1.1" id="레이어_1" xmlns="http://www.w3.org/2000/svg" xmlns:xlink="http://www.w3.org/1999/xlink" x="0px"
	 y="0px" width="70px" height="70px" viewBox="0 0 70 70" style="enable-background:new 0 0 70 70;" xml:space="preserve">
<style type="text/css">
	.st0{fill:#52A1FF;}
	.st1{fill:#F0004A;}
	.st2{fill:#FFFFFF;}
</style>
<path class="st0" d="M69.3,28.1c-0.2-0.8-0.5-1.5-0.7-2.3c-0.4-1.4-0.7-2.8-1.3-4.1c-0.4-0.9-0.9-1.7-1.3-2.5
	c-0.6-1.1-1.1-2.2-1.8-3.3c-0.3-0.5-0.8-1-1.1-1.5L35,35V0C15.7,0,0,15.7,0,35c0,19.3,15.7,35,35,35c19.3,0,35-15.7,35-35
	C70,32.6,69.8,30.3,69.3,28.1z"/>
<path class="st1" d="M63.1,14.4c-0.2-0.3-0.5-0.6-0.7-0.9C56,5.3,46.2,0,35,0v35L63.1,14.4z"/>
<g>
	<path class="st2" d="M18.8,48.8c0-0.2,0-0.4,0.1-0.6c0.1-0.2,0.2-0.4,0.3-0.5c0.1-0.2,0.3-0.3,0.4-0.4c0.2-0.1,0.3-0.2,0.5-0.3
		c-0.4-0.2-0.7-0.4-0.9-0.8s-0.3-0.7-0.3-1v-0.2c0-0.3,0.1-0.6,0.2-0.8c0.1-0.2,0.3-0.5,0.5-0.7c0.2-0.2,0.5-0.3,0.8-0.5
		c0.3-0.1,0.6-0.2,1-0.2c0.4,0,0.7,0.1,1,0.2c0.3,0.1,0.6,0.3,0.8,0.5c0.2,0.2,0.4,0.4,0.5,0.7c0.1,0.3,0.2,0.5,0.2,0.8v0.2
		c0,0.3-0.1,0.7-0.3,1c-0.2,0.3-0.5,0.6-0.9,0.8c0.4,0.1,0.7,0.3,1,0.7c0.3,0.3,0.4,0.7,0.4,1.2V49c0,0.3-0.1,0.6-0.2,0.9
		c-0.1,0.3-0.3,0.5-0.5,0.7c-0.2,0.2-0.5,0.3-0.8,0.5c-0.3,0.1-0.7,0.2-1.1,0.2s-0.8-0.1-1.1-0.2c-0.3-0.1-0.6-0.3-0.8-0.5
		c-0.2-0.2-0.4-0.4-0.5-0.7c-0.1-0.3-0.2-0.6-0.2-0.9V48.8z M20,48.9c0,0.4,0.1,0.7,0.4,0.9c0.3,0.2,0.7,0.3,1.1,0.3
		c0.5,0,0.8-0.1,1.1-0.3c0.3-0.2,0.4-0.5,0.4-0.9v-0.1c0-0.4-0.1-0.8-0.4-1c-0.3-0.2-0.6-0.3-1.1-0.3c-0.2,0-0.4,0-0.6,0.1
		c-0.2,0.1-0.4,0.1-0.5,0.3s-0.2,0.3-0.3,0.4C20,48.4,20,48.6,20,48.8V48.9z M20.2,45.3c0,0.4,0.1,0.7,0.4,0.9
		c0.3,0.2,0.6,0.3,0.9,0.3s0.7-0.1,0.9-0.3c0.3-0.2,0.4-0.5,0.4-0.9v-0.1c0-0.4-0.1-0.7-0.4-0.9c-0.2-0.2-0.6-0.3-1-0.3
		s-0.7,0.1-1,0.3c-0.2,0.2-0.4,0.5-0.4,0.9V45.3z"/>
	<path class="st2" d="M27,51.1h-1.2l3.1-7h-4.3v-0.9h5.5V44L27,51.1z"/>
	<path class="st2" d="M32.4,43c0.6,0,1,0.2,1.3,0.5c0.3,0.3,0.5,0.8,0.5,1.4v0.5c0,0.6-0.2,1-0.5,1.4s-0.8,0.5-1.3,0.5
		c-0.6,0-1-0.2-1.3-0.5s-0.5-0.8-0.5-1.4v-0.5c0-0.6,0.2-1,0.5-1.4C31.4,43.2,31.9,43,32.4,43z M32.4,46.4c0.6,0,0.9-0.4,0.9-1.1
		v-0.4c0-0.8-0.3-1.1-0.9-1.1c-0.6,0-0.9,0.4-0.9,1.1v0.4C31.5,46.1,31.8,46.4,32.4,46.4z M32,51l4.7-7.9h1L32.9,51H32z M37.2,47
		c0.6,0,1,0.2,1.3,0.5c0.3,0.3,0.5,0.8,0.5,1.4v0.5c0,0.6-0.2,1-0.5,1.4s-0.8,0.5-1.3,0.5c-0.6,0-1-0.2-1.3-0.5
		c-0.3-0.3-0.5-0.8-0.5-1.4v-0.5c0-0.6,0.2-1,0.5-1.4C36.2,47.1,36.7,47,37.2,47z M37.2,50.4c0.6,0,0.9-0.4,0.9-1.1v-0.4
		c0-0.8-0.3-1.1-0.9-1.1c-0.6,0-0.9,0.4-0.9,1.1v0.4C36.3,50,36.6,50.4,37.2,50.4z"/>
</g>
<g>
	<path class="st2" d="M39.2,16.9v-6.7l-1.9,1.1l-0.5-0.9L39.4,9h0.9v7.9H39.2z"/>
	<path class="st2" d="M42.4,10.1c0.1-0.2,0.2-0.3,0.4-0.5c0.1-0.1,0.3-0.3,0.5-0.4C43.4,9.1,43.7,9,43.9,9c0.2-0.1,0.5-0.1,0.8-0.1
		c0.4,0,0.7,0,1,0.1c0.3,0.1,0.5,0.2,0.8,0.4c0.2,0.2,0.4,0.4,0.5,0.6c0.1,0.2,0.2,0.5,0.2,0.8V11c0,0.2,0,0.3-0.1,0.5
		c0,0.2-0.1,0.3-0.2,0.5c-0.1,0.2-0.2,0.3-0.4,0.5c-0.2,0.1-0.4,0.3-0.6,0.3c0.5,0.1,0.9,0.3,1.2,0.6s0.4,0.7,0.4,1.2v0.2
		c0,0.3-0.1,0.6-0.2,0.9c-0.1,0.3-0.3,0.5-0.5,0.7c-0.2,0.2-0.5,0.4-0.9,0.5C45.6,17,45.2,17,44.7,17c-0.5,0-0.9-0.1-1.3-0.2
		c-0.4-0.1-0.8-0.4-1.2-0.7l0.5-0.9c0.4,0.3,0.7,0.5,1,0.6c0.3,0.1,0.6,0.2,1,0.2c0.3,0,0.5,0,0.7-0.1c0.2-0.1,0.4-0.2,0.5-0.3
		c0.1-0.1,0.2-0.3,0.3-0.4c0.1-0.2,0.1-0.3,0.1-0.5v-0.1c0-0.3,0-0.5-0.1-0.7c-0.1-0.2-0.2-0.3-0.3-0.4s-0.3-0.2-0.5-0.2
		c-0.2,0-0.4-0.1-0.6-0.1h-1v-0.9h0.9c0.2,0,0.5,0,0.6-0.1c0.2-0.1,0.3-0.2,0.4-0.3c0.1-0.1,0.2-0.3,0.2-0.4c0-0.2,0.1-0.3,0.1-0.5
		v-0.1c0-0.2,0-0.3-0.1-0.5c-0.1-0.1-0.2-0.2-0.3-0.3c-0.1-0.1-0.3-0.2-0.4-0.2s-0.3-0.1-0.5-0.1c-0.3,0-0.6,0.1-0.9,0.2
		c-0.2,0.1-0.5,0.3-0.7,0.6L42.4,10.1z"/>
	<path class="st2" d="M49.9,8.9c0.6,0,1,0.2,1.3,0.5c0.3,0.3,0.5,0.8,0.5,1.4v0.5c0,0.6-0.2,1-0.5,1.4S50.5,13,49.9,13
		s-1-0.2-1.3-0.5s-0.5-0.8-0.5-1.4v-0.5c0-0.6,0.2-1,0.5-1.4C48.9,9,49.4,8.9,49.9,8.9z M49.9,12.3c0.6,0,0.9-0.4,0.9-1.1v-0.4
		c0-0.8-0.3-1.1-0.9-1.1S49,10,49,10.7v0.4C49,11.9,49.3,12.3,49.9,12.3z M49.5,16.9L54.2,9h1l-4.7,7.9H49.5z M54.8,12.8
		c0.6,0,1,0.2,1.3,0.5c0.3,0.3,0.5,0.8,0.5,1.4v0.5c0,0.6-0.2,1-0.5,1.4S55.3,17,54.8,17c-0.6,0-1-0.2-1.3-0.5
		c-0.3-0.3-0.5-0.8-0.5-1.4v-0.5c0-0.6,0.2-1,0.5-1.4C53.8,13,54.2,12.8,54.8,12.8z M54.8,16.3c0.6,0,0.9-0.4,0.9-1.1v-0.4
		c0-0.8-0.3-1.1-0.9-1.1c-0.6,0-0.9,0.4-0.9,1.1v0.4C53.8,15.9,54.1,16.3,54.8,16.3z"/>
</g>
</svg>
