<?xml version="1.0" encoding="utf-8"?>
<!-- Generator: Adobe Illustrator 24.0.1, SVG Export Plug-In . SVG Version: 6.00 Build 0)  -->
<svg version="1.1" id="Layer_1" xmlns="http://www.w3.org/2000/svg" xmlns:xlink="http://www.w3.org/1999/xlink" x="0px" y="0px"
	 width="21px" height="21px" viewBox="0 0 21 21" style="enable-background:new 0 0 21 21;" xml:space="preserve">
<style type="text/css">
	.st0{display:none;}
	.st1{display:inline;fill:#B3C1C8;}
	.st2{fill:#333333;}
</style>
<g id="Layer_1_1_" class="st0">
	<path id="XMLID_430_" class="st1" d="M0.7,11.2h9.1v9.1c0,0.4,0.3,0.7,0.7,0.7s0.7-0.3,0.7-0.7v-9.1h9.1c0.4,0,0.7-0.3,0.7-0.7
		s-0.3-0.7-0.7-0.7h-9.1V0.7c0-0.4-0.3-0.7-0.7-0.7S9.8,0.3,9.8,0.7v9.1H0.7C0.3,9.8,0,10.1,0,10.5S0.3,11.2,0.7,11.2z"/>
</g>
<g id="Layer_2_1_" class="st0">
	<path class="st1" d="M20.3,9.8h-8h-1.1H0.7C0.3,9.8,0,10.1,0,10.5s0.3,0.7,0.7,0.7h10.5h1.1h8c0.4,0,0.7-0.3,0.7-0.7
		S20.7,9.8,20.3,9.8z"/>
</g>
<g id="Layer_3" class="st0">
	<path id="XMLID_1_" class="st1" d="M8.8,17.6c2.2,0,4.2-0.8,5.7-2.1l5.4,5.4c0.1,0.1,0.3,0.2,0.5,0.2c0.2,0,0.3-0.1,0.5-0.2
		c0.3-0.3,0.3-0.7,0-0.9l-5.4-5.4c1.3-1.5,2.1-3.5,2.1-5.7c0-4.8-3.9-8.8-8.8-8.8S0,3.9,0,8.8C0,13.6,3.9,17.6,8.8,17.6z M8.8,1.3
		c4.1,0,7.5,3.4,7.5,7.5c0,4.1-3.4,7.5-7.5,7.5s-7.5-3.4-7.5-7.5C1.3,4.7,4.7,1.3,8.8,1.3z"/>
</g>
<g id="Layer_4">
	<g id="V_1_">
		<g>
			<path class="st2" d="M16.7,19c0.9,0,1.7-0.8,1.7-1.7V5c0-0.9-0.8-1.7-1.7-1.7H4.3C3.4,3.4,2.6,4.1,2.6,5v12.3
				c0,0.9,0.8,1.7,1.7,1.7H16.7z M3.3,17.3V5c0-0.5,0.4-1,1-1h12.3c0.5,0,1,0.4,1,1v12.3c0,0.5-0.4,1-1,1H4.3
				C3.8,18.3,3.3,17.9,3.3,17.3z"/>
		</g>
		<g>
			<path class="st2" d="M7.6,5.1V2.4C7.6,2.2,7.4,2,7.2,2C7,2,6.9,2.2,6.9,2.4v2.8c0,0.2,0.2,0.4,0.4,0.4C7.4,5.5,7.6,5.3,7.6,5.1z"
				/>
		</g>
		<g>
			<path class="st2" d="M14.2,5.1V2.4c0-0.2-0.2-0.4-0.4-0.4s-0.4,0.2-0.4,0.4v2.8c0,0.2,0.2,0.4,0.4,0.4S14.2,5.3,14.2,5.1z"/>
		</g>
		<g>
			<rect x="3" y="6.8" class="st2" width="14.9" height="0.7"/>
		</g>
		<g id="XMLID_14_">
			<g>
				<g id="XMLID_15_">
					<path class="st2" d="M10.2,14.5C10.2,14.5,10.2,14.5,10.2,14.5c0.1,0,0.2-0.1,0.3-0.1l3-3.6c0.1-0.1,0.1-0.4,0-0.5
						c-0.1-0.1-0.4-0.1-0.5,0l-2.8,3.3l-1.4-1.4c-0.1-0.1-0.4-0.1-0.5,0c-0.1,0.1-0.1,0.4,0,0.5l1.7,1.6
						C10,14.4,10.1,14.5,10.2,14.5z"/>
				</g>
			</g>
		</g>
	</g>
</g>
</svg>
