<?xml version="1.0" encoding="utf-8"?>
<!-- Generator: Adobe Illustrator 24.2.1, SVG Export Plug-In . SVG Version: 6.00 Build 0)  -->
<svg version="1.1" id="레이어_1" xmlns="http://www.w3.org/2000/svg" xmlns:xlink="http://www.w3.org/1999/xlink" x="0px"
	 y="0px" width="102px" height="127.6px" viewBox="0 0 102 127.6" style="enable-background:new 0 0 102 127.6;"
	 xml:space="preserve">
<style type="text/css">
	.st0{enable-background:new    ;}
	.st1{fill:none;stroke:#3683D5;stroke-width:3.2671;stroke-linecap:round;stroke-linejoin:round;stroke-miterlimit:10;}
	.st2{fill:#3683D5;}
</style>
<g class="st0">
	<path d="M20.7,16V9.8h-2.1v0.3c0,2.1-1.2,3.2-2.8,3.2S13,12.2,13,10.1V8.9c0-2.1,1.2-3.2,2.8-3.2c1.6,0,2.8,1.1,2.8,3.1h2.1V4.9
		h1.2V16H20.7z M17.5,9.9V9c0-1.7-0.8-2.3-1.6-2.3c-0.9,0-1.6,0.6-1.6,2.3v0.9c0,1.7,0.8,2.3,1.6,2.3C16.7,12.2,17.5,11.6,17.5,9.9z
		"/>
	<path d="M32.3,9.5h-3v1h4.5v1H23.6v-1h4.5v-1h-3V5.1h1.2v1.3h4.9V5.1h1.2V9.5z M24.9,12.5h7.4v3.6h-1.2v-2.6h-6.2V12.5z M26.2,8.5
		h4.9V7.4h-4.9V8.5z"/>
	<path d="M41.6,11.7c-1.9,0.2-3.3,0.3-7,0.3v-1c1.2,0,2.1,0,2.9,0v-0.6c-1.3-0.1-1.9-0.7-1.9-1.5V8.6c0-0.9,0.9-1.5,2.5-1.5
		c1.7,0,2.5,0.7,2.5,1.5v0.3c0,0.7-0.7,1.3-1.9,1.5V11c1,0,1.9-0.1,2.9-0.2L41.6,11.7z M41,5.8v1h-6v-1h2.4v-1h1.2v1H41z M36.4,14.2
		c0-1.1,1.3-1.8,3.5-1.8s3.5,0.7,3.5,1.8v0.3c0,1.1-1.3,1.8-3.5,1.8s-3.5-0.7-3.5-1.8V14.2z M36.6,8.7v0.1c0,0.4,0.4,0.7,1.4,0.7
		c0.9,0,1.4-0.3,1.4-0.7V8.7C39.3,8.3,38.9,8,38,8C37,8,36.6,8.3,36.6,8.7z M37.6,14.4c0,0.4,0.8,0.9,2.3,0.9s2.3-0.5,2.3-0.9v-0.2
		c0-0.4-0.8-0.9-2.3-0.9s-2.3,0.5-2.3,0.9V14.4z M42.1,12V4.9h1.2v3.3h1.6v1h-1.6V12H42.1z"/>
	<path d="M48.2,10.6c-0.1,0.2-0.3,0.5-0.5,0.8c-0.5,0.6-1.1,1.2-1.7,1.9l-0.8-0.8c0.7-0.7,1.3-1.3,1.9-2c0.5-0.6,0.6-1.2,0.6-1.9V7
		h-1.9V6h4.8v1h-1.8v1.6c0,0.7,0.2,1.2,0.6,1.9c0.5,0.6,1,1.2,1.7,1.9l-0.8,0.8c-0.6-0.6-1.1-1.2-1.6-1.7
		C48.5,11.1,48.3,10.8,48.2,10.6L48.2,10.6z M51.7,5.1h1.2v10.3h-1.2V9.6H50v-1h1.7V5.1z M55.1,16h-1.2V4.9h1.2V16z"/>
	<path d="M64.9,7.8h-5.5v-1h2.2V5.2h1.2v1.5h2.1V7.8z M64.7,10.5V11c0,1.1-1,2.1-2.4,2.1c-1.5,0-2.4-1-2.4-2.1v-0.6
		c0-1.1,1-2.1,2.4-2.1C63.7,8.3,64.7,9.3,64.7,10.5z M63.6,11v-0.5c0-0.6-0.5-1.2-1.4-1.2c-0.9,0-1.4,0.7-1.4,1.2V11
		c0,0.6,0.5,1.2,1.4,1.2C63.1,12.2,63.6,11.5,63.6,11z M65.6,5.1h1.2V9h1.2V4.9h1.2V16h-1.2V10h-1.2v5.4h-1.2V5.1z"/>
	<path d="M74.6,6.6h-3.5v-1h4.7v1.7c0,1.8-0.9,2.5-4.7,4.1l-0.5-0.9c3.3-1.4,4-2,4-3.3V6.6z M72.8,13.7c0-1.2,1.3-2.1,3.4-2.1
		s3.4,0.9,3.4,2.1v0.5c0,1.2-1.3,2.1-3.4,2.1s-3.4-0.9-3.4-2.1V13.7z M78.4,13.8c0-0.6-0.9-1.2-2.2-1.2s-2.2,0.6-2.2,1.2v0.3
		c0,0.6,0.9,1.2,2.2,1.2s2.2-0.6,2.2-1.2V13.8z M78.3,11.4V9.8h-2.1v-1h2.1V7.5h-2v-1h2V4.9h1.2v6.5H78.3z"/>
	<path d="M83.2,5.5v3.7c2,0,3.2,0,5-0.3l0.1,1c-1.7,0.2-3.1,0.3-6.3,0.3V5.5H83.2z M90.4,11.5v4.4h-6.9v-4.4H90.4z M84.6,14.9h4.5
		v-2.4h-4.5V14.9z M89.2,11V4.9h1.2V11H89.2z"/>
</g>
<g>
	<polyline class="st1" points="68.9,57.8 68.9,47 62.7,47 62.7,40.8 41.1,40.8 41.1,47 34.9,47 34.9,57.8 	"/>
	<polyline class="st1" points="58.1,40.8 58.1,33.1 45.7,33.1 45.7,40.8 	"/>
	<path class="st1" d="M33.5,80.8c0,0-6.5-12.4-7.7-17.5c0,0,16.3-9.8,26.1-11.8C61.7,53.3,78,63.3,78,63.3
		c-1.1,5.1-7.7,17.5-7.7,17.5"/>
	<path class="st1" d="M16.5,83.3l5.7-3.8c1.3-0.8,2.9-0.8,4.2,0.3l2.1,1.8c1.1,1,2.9,1.1,4.2,0.2l3.3-2.3c1.3-0.8,2.9-0.8,4.1,0.2
		l2.5,2c1.3,1,2.9,1,4.2,0.2l2.9-2.1c1.3-1,2.9-0.8,4.1,0l2.8,2.1c1.3,1,2.9,1,4.2,0l2.6-2c1.1-1,2.9-1,4.1,0l3.1,2.1
		c1.3,1,2.9,0.8,4.2-0.2l2.3-2c1.1-1,2.9-1,4.2-0.2l5.6,3.8"/>
	<path class="st1" d="M16.5,91.6l5.7-3.8c1.3-0.8,2.9-0.8,4.2,0.3l2.1,1.8c1.1,1,2.9,1.1,4.2,0.2l3.3-2.3c1.3-0.8,2.9-0.8,4.1,0.2
		l2.5,2c1.3,1,2.9,1,4.2,0.2l2.9-2.1c1.3-1,2.9-0.8,4.1,0l2.8,2.1c1.3,1,2.9,1,4.2,0l2.6-2c1.1-1,2.9-1,4.1,0l3.1,2.1
		c1.3,1,2.9,0.8,4.2-0.2l2.3-2c1.1-1,2.9-1,4.2-0.2l5.6,3.8"/>
	<line class="st1" x1="51.9" y1="51.6" x2="51.9" y2="74.8"/>
	<line class="st1" x1="44.2" y1="60.9" x2="44.2" y2="64"/>
</g>
<g>
	<path class="st2" d="M14.9,121.1v2.1h-14v-2.1H14.9z M11.5,118.1L8,110.9l-3.5,7.2h-3l4.8-10.2h3.1l4.8,10.2H11.5z"/>
	<path class="st2" d="M16.2,123.1v-15.2h7.9v15.2H16.2z M18.6,120.9h3v-10.8h-3V120.9z M26.2,123.1v-15.2h2.3v5.1h1.7v2.2h-1.7v8.1
		h-2.3V123.1z"/>
	<path class="st2" d="M44.3,121.1v2.1h-14v-2.1H44.3z M43.5,107.9v2.2h-9.9v1.8h9.9v2.2h-9.9v1.7h9.9v2.2H31.1v-10.2
		C31.1,107.9,43.5,107.9,43.5,107.9z"/>
	<path class="st2" d="M59,114.7v2.1H45.1v-2.1H59z M58.3,113.5h-3.1l-3.3-3.6l-3.3,3.6h-3.1l4.8-5.6h3.1L58.3,113.5z M48.6,117.7
		h6.8c1.6,0,2.9,1.2,2.9,2.7c0,1.6-1.3,2.7-2.9,2.7h-6.8c-1.6,0-2.9-1.2-2.9-2.7C45.7,118.8,47,117.7,48.6,117.7z M48.6,121.2h6.8
		c0.4,0,0.7-0.4,0.7-0.8s-0.3-0.8-0.7-0.8h-6.8c-0.4,0-0.7,0.4-0.7,0.8C47.9,120.8,48.2,121.2,48.6,121.2z"/>
	<path class="st2" d="M65.5,107.9l3.3,8.2h-2.6l-2-5.1l-2.1,5.2h-2.6l3.3-8.2L65.5,107.9C65.5,108,65.5,107.9,65.5,107.9z
		 M63.2,121.1h7.7V113h-2.5v-2.2h2.5v-3h2.3v15.4H60.9v-4.9h2.3v2.9l0,0V121.1z"/>
	<path class="st2" d="M74.5,116.1h3.4v-0.8c-1.3-0.3-2.5-1.2-2.5-2.5v-0.9c0-0.4,0.1-0.8,0.4-1.2h-1v-2.3h3v-1H80v1h3v2.2h-1.2
		c0.3,0.4,0.4,0.8,0.4,1.2v0.9c0,1.2-0.9,2.1-2.2,2.5v0.9h5.1v-8.2h2.3v4h1.7v2.1h-1.7v4H74.5C74.5,118.1,74.5,116.1,74.5,116.1z
		 M75.5,119.1h11.8v4H85v-2.2h-9.5V119.1z M77.5,112.5c0,0.7,0.5,1.2,1.3,1.2s1.3-0.4,1.3-1.2v-0.4c0-0.7-0.5-1.2-1.3-1.2
		s-1.3,0.4-1.3,1.2V112.5z"/>
	<path class="st2" d="M94.4,107.9c2,0,3.5,1.6,3.5,3.5v1.6c0,2-1.6,3.5-3.5,3.5h-1.3c-2,0-3.5-1.6-3.5-3.5v-1.6c0-2,1.6-3.5,3.5-3.5
		H94.4z M92.6,121.1h7.7v-13.2h2.2v15.4H90.2v-4.9h2.2v2.7H92.6z M93.1,110.3c-0.7,0-1.3,0.5-1.3,1.3v1.6c0,0.7,0.5,1.3,1.3,1.3h1.3
		c0.7,0,1.3-0.5,1.3-1.3v-1.6c0-0.7-0.5-1.3-1.3-1.3H93.1z"/>
</g>
</svg>
