<?xml version="1.0" encoding="utf-8"?>
<!-- Generator: Adobe Illustrator 22.1.0, SVG Export Plug-In . SVG Version: 6.00 Build 0)  -->
<svg version="1.1" id="레이어_1" xmlns="http://www.w3.org/2000/svg" xmlns:xlink="http://www.w3.org/1999/xlink" x="0px"
	 y="0px" width="24px" height="24px" viewBox="0 0 24 24" style="enable-background:new 0 0 24 24;" xml:space="preserve">
<style type="text/css">
	.st0{fill:#777777;stroke:#777777;stroke-width:0.2;stroke-miterlimit:10;}
</style>
<g id="레이어_2_1_">
</g>
<g>
	<path class="st0" d="M0.5,12.4c0,0.5,1.6,1.6,3.1,2.3c1,0.5,2.5,1.1,4.2,1.4c0.3,0.9,1,2,1.7,2.2c0.1,0,0.1,0,0.2,0
		c0.1,0,0.2,0,0.3-0.1c0.2-0.2,0.2-0.5,0.3-0.9c0-0.3,0-0.6,0.1-0.9c0.1,0,0.3,0,0.4,0c2,0,3.8-0.5,5.4-1.1c0.3,0.3,1,0.9,1.7,0.9
		c0,0,0,0,0.1,0c0.2,0,0.3-0.1,0.4-0.2c0.1-0.2-0.1-0.5-0.3-0.8c-0.1-0.2-0.2-0.3-0.3-0.5c0.8-0.4,1.6-0.8,2.1-1.2
		c0.3,0.8,1.1,2.2,2.9,2.9c0.3,0.1,0.5,0.2,0.6,0.2c0.1,0,0.2,0,0.2-0.1c0.1-0.2,0-0.3-0.3-0.6c-0.3-0.4-1-1.1-1.2-1.9
		c-0.2-0.6-0.4-1.2-1.3-1.4c0,0,0-0.1,0-0.1c0,0,0-0.1,0-0.1c0.9-0.2,1.1-0.8,1.3-1.4c0.2-0.8,0.9-1.6,1.2-1.9
		c0.3-0.3,0.4-0.4,0.3-0.6c-0.1-0.2-0.4-0.1-0.8,0.1c-1.8,0.8-2.6,2.2-2.9,3c-0.8-0.5-1.8-1.1-3.1-1.7c0-0.6,0.3-1.4,0.4-1.9
		c0.1-0.3,0-0.5-0.1-0.6c-0.1-0.1-0.3-0.2-0.6,0c-0.9,0.5-1.5,1.2-1.9,1.7c-0.1,0-0.2-0.1-0.3-0.1C12.1,8.2,10.4,6.7,9.8,6
		C9.5,5.7,9,5.7,8.6,6C7.9,6.7,7.5,7.6,7.3,8.8c-1.5,0.3-2.8,0.8-3.7,1.3C2.1,10.8,0.5,11.8,0.5,12.4z M12.2,8.5
		c-0.5-0.1-1-0.1-1.5-0.1c-0.2,0-0.4,0-0.6,0c0.1-0.2,0.2-0.3,0.2-0.4c0.1-0.1,0-0.2-0.1-0.3c-0.1-0.1-0.2,0-0.3,0.1
		C9.9,7.8,9.8,8.1,9.7,8.4c-0.2,0-0.5,0-0.7,0.1c0.1-0.5,0.4-0.9,0.4-1c0.1-0.1,0-0.2-0.1-0.3C9.2,7.1,9.1,7.2,9,7.3
		C8.9,7.4,8.6,7.9,8.5,8.6C8.2,8.6,8,8.6,7.8,8.7C8,7.7,8.3,6.9,9,6.3c0.1-0.1,0.4-0.1,0.5,0C10,6.9,11,7.8,12.2,8.5z M16.2,9.5
		c-0.4-0.1-0.8-0.3-1.2-0.4c0.3-0.5,0.9-1,1.6-1.4C16.4,8.2,16.2,8.9,16.2,9.5z M20.4,11.8C20.4,11.8,20.4,11.8,20.4,11.8
		c-0.1-0.1-0.2-0.2-0.3-0.2c0.2-0.7,0.9-1.9,2.5-2.7c-0.4,0.4-0.8,1.1-1,1.8C21.4,11.2,21.2,11.7,20.4,11.8z M20.1,13.1
		c0.1-0.1,0.2-0.2,0.3-0.2c0,0,0,0,0,0c0.8,0.2,1,0.6,1.1,1.1c0.2,0.7,0.7,1.4,1,1.8C21,15,20.3,13.8,20.1,13.1z M16.6,15.1
		c0.2-0.1,0.4-0.2,0.6-0.3c0.1,0.2,0.2,0.4,0.4,0.6c0.1,0.1,0.1,0.2,0.2,0.3C17.4,15.6,17,15.4,16.6,15.1z M8.3,16.1
		c0.5,0.1,1,0.1,1.5,0.2c-0.1,0.3-0.1,0.7-0.1,0.9c0,0.2,0,0.5-0.1,0.6c0,0,0,0,0,0C9.2,17.7,8.7,17,8.3,16.1z M1,12.4
		c0.3-0.5,4.5-3.5,9.8-3.5c1.2,0,2.3,0.2,3.4,0.4c0,0,0,0,0,0l0,0c2.8,0.7,5,2.2,6,2.9c0.1,0,0.1,0.1,0.1,0.2c0,0.1,0,0.1-0.1,0.2
		c-1.4,1-5.1,3.3-9.4,3.3c-1.8,0-3.4-0.3-4.9-0.8c0.7-0.5,1-1.2,1-1.8c0-0.8-0.5-1.5-1.3-2c-0.1-0.1-0.2,0-0.3,0.1
		c-0.1,0.1,0,0.3,0.1,0.3c0.7,0.4,1.1,1,1.1,1.7c0,0.6-0.4,1.2-1.1,1.7C2.8,14,1.1,12.7,1,12.4z"/>
	<path class="st0" d="M5.3,10.3c1.5-0.4,3.3-0.6,5.2-0.6c2.8,0,5.5,0.5,7.3,1.3c0.1,0.1,0.2,0.2,0.1,0.3c0,0.1-0.1,0.1-0.2,0.1
		c0,0-0.1,0-0.1,0c-1.8-0.8-4.4-1.3-7.1-1.3c-1.8,0-3.6,0.2-5.1,0.6c-0.1,0-0.2,0-0.3-0.2C5.1,10.4,5.2,10.3,5.3,10.3z"/>
	<path class="st0" d="M3.5,11.6L3.5,11.6c0.2,0,0.3,0.1,0.3,0.2S3.7,12,3.6,12h0c-0.1,0-0.2-0.1-0.2-0.2S3.4,11.6,3.5,11.6z"/>
	<path class="st0" d="M8.3,12.2c2.9-0.6,3-0.3,3.1-0.1c0.1,0.3-0.2,0.5-0.3,0.5c-0.4,0.2-0.7,0.5-0.9,0.7C9.6,13.7,9.3,14,8.7,14
		c-0.1,0-0.1,0-0.2,0c-0.1,0-0.2-0.1-0.2-0.3c0-0.1,0.1-0.2,0.3-0.2C9,13.6,9.3,13.4,9.8,13c0.2-0.2,0.5-0.4,0.9-0.7
		c-0.3,0-1,0.1-2.2,0.3c-0.1,0-0.2-0.1-0.3-0.2C8.1,12.4,8.1,12.2,8.3,12.2z"/>
</g>
</svg>
