<?xml version="1.0" encoding="utf-8"?>
<!-- Generator: Adobe Illustrator 22.1.0, SVG Export Plug-In . SVG Version: 6.00 Build 0)  -->
<svg version="1.1" id="레이어_1" xmlns="http://www.w3.org/2000/svg" xmlns:xlink="http://www.w3.org/1999/xlink" x="0px"
	 y="0px" width="24px" height="24px" viewBox="0 0 24 24" style="enable-background:new 0 0 24 24;" xml:space="preserve">
<style type="text/css">
	.st0{fill:none;stroke:#777777;stroke-width:0.9;stroke-linecap:round;stroke-linejoin:round;stroke-miterlimit:10;}
	.st1{fill:#787777;}
</style>
<g id="레이어_2_1_">
</g>
<path class="st0" d="M12.9,1.7c0,0,9.6,2.2,10,7.1c0,0-1.4-3.5-7.8-2.2C15.1,6.6,16.5,4.9,12.9,1.7z"/>
<path class="st1" d="M5.8,18.1c0,0.4-0.3,0.7-0.7,0.7c-0.4,0-0.7-0.3-0.7-0.7c0-0.4,0.3-0.7,0.7-0.7C5.5,17.4,5.8,17.7,5.8,18.1z"/>
<path class="st0" d="M22.9,8.8c0,0-0.8,7.5-14.6,9.9"/>
<path class="st0" d="M22.9,8.8c-1.8,2.7-4.3,2.7-5.9,2.8C15.1,11.8,16.1,9,16.1,9c-4.5,1.4-6.3,4-6.3,4c0,0,0,0,0,0
	c-7,2.4-8.7,7.5-8.7,7.5s5.1,2.1,11.9,0.5c0,0,0,0,0,0c0,0,1.7,0.7,4,0.6c0,0,1.5-0.3,1.9-1.6l-1.4-0.7C24.1,15.7,23,8.7,22.9,8.8z"
	/>
</svg>
