<?xml version="1.0" encoding="utf-8"?>
<!-- Generator: Adobe Illustrator 22.1.0, SVG Export Plug-In . SVG Version: 6.00 Build 0)  -->
<svg version="1.1" id="레이어_1" xmlns="http://www.w3.org/2000/svg" xmlns:xlink="http://www.w3.org/1999/xlink" x="0px"
	 y="0px" width="24px" height="24px" viewBox="0 0 24 24" style="enable-background:new 0 0 24 24;" xml:space="preserve">
<style type="text/css">
	.st0{fill:none;stroke:#777777;stroke-width:0.7667;stroke-linecap:round;stroke-linejoin:round;stroke-miterlimit:10;}
	.st1{fill:#787777;}
</style>
<g id="레이어_2_1_">
</g>
<g>
	<g>
		<path class="st0" d="M10.7,17.2c5.3-0.6,6.6-4.6,6.6-4.6C14.6,7.1,9.1,8,9.1,8C2,8.6,0.5,12.6,0.5,12.6c0.2,2.1,3.3,4,3.3,4
			s5.6,4.1,11.1,0.8c5.5-3.3,5.2-9.4,5.2-9.4l-2-0.8c0,0,1.2,3.8,0.9,5.7"/>
		<path class="st0" d="M7.3,8.2c0,0,2.3,2.3,1.1,5.9"/>
		<path class="st0" d="M14.4,17.7c0,0,0.9,0.5,1.3,1.2c0.3,0.8-4.2,1.1-6.8-0.3"/>
		<path class="st0" d="M15.7,10.3l1-1.8c0,0-4.4-3.2-9.5-0.3"/>
		<path class="st0" d="M21.2,8.4c0,0,1.7,0.9,2.3,1.7c0,0-1,1.9-3.3,2.6C20.2,12.8,21.5,10.3,21.2,8.4z"/>
	</g>
	<path class="st1" d="M4.2,12.4c0,0.3-0.3,0.6-0.6,0.6C3.3,13,3,12.7,3,12.4s0.3-0.6,0.6-0.6C3.9,11.8,4.2,12.1,4.2,12.4z"/>
</g>
</svg>
