<?xml version="1.0" encoding="utf-8"?>
<!-- Generator: Adobe Illustrator 24.2.1, SVG Export Plug-In . SVG Version: 6.00 Build 0)  -->
<svg version="1.1" id="레이어_1" xmlns="http://www.w3.org/2000/svg" xmlns:xlink="http://www.w3.org/1999/xlink" x="0px"
	 y="0px" width="24px" height="24px" viewBox="0 0 24 24" style="enable-background:new 0 0 24 24;" xml:space="preserve">
<style type="text/css">
	.st0{fill:none;stroke:#FFFFFF;stroke-width:1.02;stroke-linecap:round;stroke-linejoin:round;stroke-miterlimit:22.9256;}
</style>
<g id="레이어_2_1_">
</g>
<path class="st0" d="M5.4,9.7l-2.8,0.4c-0.6,0.2-1.1-0.3-1-1l0.8-5.2c0.1-0.7,0.8-1.3,1.5-1.4l5.2-0.7c0.7-0.1,1.2,0.4,1.1,1.1
	L9.8,5.4"/>
<path class="st0" d="M3.6,2.9C8.7,3.8,8.9,5.1,13,9.3c0.4,0.4,0.5,1.2,0.1,1.6l-2.6,2.5c-0.4,0.4-1.2,0.2-1.6-0.2
	C4.9,9,3.6,8.8,2.8,3.7C2.6,2.5,2.5,2.6,3.6,2.9L3.6,2.9z"/>
<path class="st0" d="M9.6,14.5c0.4-0.6,1.4-0.6,2.2-0.1s1.2,1.4,0.9,2c-0.4,0.6-1.4,0.6-2.2,0.1C9.6,16,9.2,15.1,9.6,14.5L9.6,14.5z
	"/>
<path class="st0" d="M10.6,15.9c0.1-0.2,0.4-0.2,0.6,0c0.2,0.2,0.4,0.4,0.2,0.6c-0.1,0.2-0.4,0.2-0.6,0C10.6,16.3,10.5,16,10.6,15.9
	L10.6,15.9z"/>
<path class="st0" d="M14.3,9.9c-0.6,0.4-0.7,1.3-0.2,2.2s1.4,1.3,2,0.9c0.6-0.4,0.7-1.3,0.2-2.2C15.8,10,14.9,9.6,14.3,9.9L14.3,9.9
	z"/>
<path class="st0" d="M15.6,11c-0.2,0.1-0.2,0.4,0,0.6c0.1,0.2,0.4,0.4,0.6,0.3c0.2-0.1,0.2-0.4,0-0.6C16.1,11,15.8,10.9,15.6,11
	L15.6,11z"/>
<path class="st0" d="M12.3,17.1c1,1,1.1,5.3,3.7,5.8l0,0"/>
<path class="st0" d="M16.8,12.8c1,1,5.3,1.3,5.7,3.8l0,0"/>
<path class="st0" d="M13.9,15.9c1,4.3,5.3,4.5,4.8,7.2v0.1"/>
<path class="st0" d="M15.4,15.4c2.4,4,4.1,3.8,6.4,6.9"/>
<path class="st0" d="M17,14.8c3.2,1.6,3.3,4.7,5.9,4.2H23"/>
</svg>
