<?xml version="1.0" encoding="utf-8"?>
<!-- Generator: Adobe Illustrator 24.2.1, SVG Export Plug-In . SVG Version: 6.00 Build 0)  -->
<svg version="1.1" xmlns="http://www.w3.org/2000/svg" xmlns:xlink="http://www.w3.org/1999/xlink" x="0px" y="0px" width="24px"
	 height="24px" viewBox="0 0 24 24" style="enable-background:new 0 0 24 24;" xml:space="preserve">
<style type="text/css">
	.st0{fill:none;stroke:#9CB5D3;stroke-width:1.25;stroke-linecap:round;stroke-linejoin:round;stroke-miterlimit:10;}
</style>
<g id="레이어_1">
</g>
<g id="레이어_2">
	<g id="headset">
		<g>
			<path class="st0" d="M5.6,15.9c0,0-2.3-0.7-2.3-1.6V12c0-1.6,2.3-1.6,2.3-1.6V15.9z"/>
			<path class="st0" d="M19,15.9c0,0,2.3-0.7,2.3-1.6V12c0-1.6-2.3-1.6-2.3-1.6V15.9z"/>
			<path class="st0" d="M19.7,15.9c0,3.1-2.7,4.7-5.5,4.7"/>
			<path class="st0" d="M13.5,21.4h-2.3c-0.4,0-0.8-0.4-0.8-0.8l0,0c0-0.4,0.4-0.8,0.8-0.8h2.3c0.4,0,0.8,0.4,0.8,0.8l0,0
				C14.3,21,13.9,21.4,13.5,21.4z"/>
		</g>
		<path class="st0" d="M19,10.4V10c0-3.7-3-6.7-6.7-6.7l0,0c-3.7,0-6.7,3-6.7,6.7v0.4"/>
	</g>
</g>
</svg>
