<?xml version="1.0" encoding="utf-8"?>
<!-- Generator: Adobe Illustrator 24.2.1, SVG Export Plug-In . SVG Version: 6.00 Build 0)  -->
<svg version="1.1" xmlns="http://www.w3.org/2000/svg" xmlns:xlink="http://www.w3.org/1999/xlink" x="0px" y="0px" width="36px"
	 height="36px" viewBox="0 0 36 36" style="enable-background:new 0 0 36 36;" xml:space="preserve">
<style type="text/css">
	.st0{fill:#C1DEFD;}
	.st1{fill:none;stroke:#0B8CC8;stroke-linecap:round;stroke-linejoin:round;stroke-miterlimit:22.9256;}
	.st2{fill:none;stroke:#0B8CC8;stroke-width:0.9716;stroke-linecap:round;stroke-linejoin:round;stroke-miterlimit:22.9256;}
</style>
<g id="레이어_1">
	<path class="st0" d="M15.9,4L7.2,20c0,0,4.7,1.2,9.1,1c4.4-0.1,7.6-1,7.6-1L15.9,4z"/>
	<path class="st0" d="M24,12.3l3.7,5.4l1.7-1.4l3.5,6.3c0,0-2.8,0.6-6.7,0S19,17.8,19,17.8L24,12.3z"/>
</g>
<g id="레이어_3">
	<path class="st1" d="M33.9,25.4c-1.7,0-3.1-1-3.9-2.6c-0.7,1.5-2.2,2.6-3.9,2.6c-1.7,0-3.1-1-3.9-2.6c-0.7,1.5-2.2,2.6-3.9,2.6
		c-1.7,0-3.1-1-3.9-2.6c-0.7,1.5-2.2,2.6-3.9,2.6c-1.7,0-3.1-1-3.9-2.6c-0.7,1.5-2.2,2.6-3.9,2.6"/>
	<path class="st2" d="M33.9,29.8c-1.7,0-3.1-1-3.9-2.6c-0.7,1.5-2.2,2.6-3.9,2.6c-1.7,0-3.1-1-3.9-2.6c-0.7,1.5-2.2,2.6-3.9,2.6
		c-1.7,0-3.1-1-3.9-2.6c-0.7,1.5-2.2,2.6-3.9,2.6c-1.7,0-3.1-1-3.9-2.6c-0.7,1.5-2.2,2.6-3.9,2.6"/>
	<polyline class="st2" points="7.4,19.8 15.9,4 24,20 	"/>
	<polyline class="st2" points="21.6,14.8 24,12 27.8,17.7 29.4,16.1 33.1,22.4 	"/>
</g>
<g id="레이어_2">
</g>
</svg>
