<?xml version="1.0" encoding="utf-8"?>
<!-- Generator: Adobe Illustrator 24.2.1, SVG Export Plug-In . SVG Version: 6.00 Build 0)  -->
<svg version="1.1" id="레이어_1" xmlns="http://www.w3.org/2000/svg" xmlns:xlink="http://www.w3.org/1999/xlink" x="0px"
	 y="0px" width="12px" height="12px" viewBox="0 0 12 12" style="enable-background:new 0 0 12 12;" xml:space="preserve">
<style type="text/css">
	.st0{fill:#FFFFFF;}
</style>
<g>
	<path class="st0" d="M4,3.5H1.68C2.57,1.97,4.2,1,6,1c2.41,0,4.48,1.72,4.92,4.09c0.04,0.24,0.25,0.41,0.49,0.41
		c0.03,0,0.06,0,0.09-0.01c0.27-0.05,0.45-0.31,0.4-0.58C11.38,2.07,8.9,0,6,0C3.96,0,2.1,1.03,1,2.69V0.5H0l0,4h4V3.5z"/>
	<path class="st0" d="M8,7.5v1h2.32C9.44,10.03,7.8,11,6,11c-2.41,0-4.48-1.72-4.92-4.09c-0.05-0.27-0.3-0.45-0.58-0.4
		C0.23,6.56,0.05,6.82,0.1,7.09C0.62,9.94,3.1,12,6,12c2.04,0,3.9-1.03,5-2.69v2.19h1v-4H8z"/>
</g>
</svg>
