<?xml version="1.0" encoding="utf-8"?>
<!-- Generator: Adobe Illustrator 24.2.1, SVG Export Plug-In . SVG Version: 6.00 Build 0)  -->
<svg version="1.1" id="레이어_1" xmlns="http://www.w3.org/2000/svg" xmlns:xlink="http://www.w3.org/1999/xlink" x="0px"
	 y="0px" width="24px" height="24px" viewBox="0 0 24 24" style="enable-background:new 0 0 24 24;" xml:space="preserve">
<style type="text/css">
	.st0{fill:#9CB5D3;}
</style>
<g id="레이어_1_1_">
</g>
<path class="st0" d="M18.8,7.9h-1.2l-2.9-2.9h-5L6.7,7.9H5.6c-1.2,0-2.2,1-2.2,2.2v6.6c0,1.2,1,2.2,2.2,2.2h0.7
	c0.4,0,0.7-0.3,0.7-0.7c0-0.4-0.3-0.7-0.7-0.7H5.6c-0.4,0-0.7-0.3-0.7-0.7v-6.6c0-0.4,0.3-0.7,0.7-0.7h1.8l2.9-2.9h3.8l2.9,2.9h1.8
	c0.4,0,0.7,0.3,0.7,0.7v6.6c0,0.4-0.3,0.7-0.7,0.7h-0.7c-0.4,0-0.7,0.3-0.7,0.7c0,0.4,0.3,0.7,0.7,0.7h0.7c1.2,0,2.2-1,2.2-2.2v-6.6
	C21,8.9,20.1,7.9,18.8,7.9z M12.2,8.6C9.4,8.6,7,10.9,7,13.8s2.3,5.2,5.2,5.2s5.2-2.3,5.2-5.2S15,8.6,12.2,8.6z M12.2,17.4
	c-2,0-3.7-1.7-3.7-3.7s1.7-3.7,3.7-3.7s3.7,1.7,3.7,3.7S14.2,17.4,12.2,17.4z"/>
</svg>
