<?xml version="1.0" encoding="utf-8"?>
<!-- Generator: Adobe Illustrator 24.2.1, SVG Export Plug-In . SVG Version: 6.00 Build 0)  -->
<svg version="1.1" id="레이어_1" xmlns="http://www.w3.org/2000/svg" xmlns:xlink="http://www.w3.org/1999/xlink" x="0px"
	 y="0px" width="24px" height="24px" viewBox="0 0 24 24" style="enable-background:new 0 0 24 24;" xml:space="preserve">
<style type="text/css">
	.st0{fill:#9CB5D3;}
</style>
<g id="레이어_1_1_">
</g>
<path class="st0" d="M12.7,8.5c1.5,0.1,2.8,1.3,2.9,2.9c0,0.4,0.3,0.7,0.7,0.7c0,0,0,0,0,0c0.4,0,0.7-0.3,0.7-0.7
	C16.9,9,15,7.1,12.7,7C12.4,7,12,7.3,12,7.7C12,8.1,12.3,8.4,12.7,8.5z M12,3.5c-0.4,0-0.7,0.3-0.7,0.7c0,0.4,0.3,0.7,0.7,0.7
	c3.9,0,7.1,3.2,7.1,7.1c0,0.4,0.3,0.7,0.7,0.7c0.4,0,0.7-0.3,0.7-0.7C20.5,7.3,16.7,3.5,12,3.5z M14.8,13.4c-1.4,0-2.7,0.8-3.2,2.1
	c-1.3-0.7-2.4-1.8-3.1-3.1c1.2-0.6,2.1-1.8,2.1-3.2c0-2-1.6-3.5-3.5-3.5S3.5,7.2,3.5,9.2c0,6.2,5.1,11.3,11.3,11.3
	c2,0,3.5-1.6,3.5-3.5S16.8,13.4,14.8,13.4z M14.8,19.1c-5.5,0-9.9-4.4-9.9-9.9C4.9,8,5.9,7,7,7s2.1,1,2.1,2.1c0,1-0.7,1.9-1.7,2.1
	l-0.8,0.2l0.3,0.8c0.9,2.3,2.6,4,4.9,4.9l0.8,0.3l0.2-0.8c0.2-1,1.1-1.7,2.1-1.7c1.2,0,2.1,1,2.1,2.1C17,18.1,16,19.1,14.8,19.1z"/>
</svg>
