<?xml version="1.0" encoding="utf-8"?>
<!-- Generator: Adobe Illustrator 22.1.0, SVG Export Plug-In . SVG Version: 6.00 Build 0)  -->
<svg version="1.1" id="레이어_1" xmlns="http://www.w3.org/2000/svg" xmlns:xlink="http://www.w3.org/1999/xlink" x="0px"
	 y="0px" width="16px" height="16px" viewBox="0 0 16 16" style="enable-background:new 0 0 16 16;" xml:space="preserve">
<style type="text/css">
	.st0{fill:#999999;}
</style>
<path id="XMLID_430_" class="st0" d="M0.5,8.5h6.9v6.9C7.5,15.8,7.7,16,8,16c0.3,0,0.5-0.2,0.5-0.5V8.5h6.9C15.8,8.5,16,8.3,16,8
	c0-0.3-0.2-0.5-0.5-0.5H8.5V0.5C8.5,0.2,8.3,0,8,0C7.7,0,7.5,0.2,7.5,0.5v6.9H0.5C0.2,7.5,0,7.7,0,8C0,8.3,0.2,8.5,0.5,8.5z"/>
</svg>
