<?xml version="1.0" encoding="utf-8"?>
<!-- Generator: Adobe Illustrator 24.2.1, SVG Export Plug-In . SVG Version: 6.00 Build 0)  -->
<svg version="1.1" xmlns="http://www.w3.org/2000/svg" xmlns:xlink="http://www.w3.org/1999/xlink" x="0px" y="0px" width="24px"
	 height="24px" viewBox="0 0 24 24" style="enable-background:new 0 0 24 24;" xml:space="preserve">
<style type="text/css">
	.st0{fill:#3683D5;stroke:#3683D5;stroke-width:0.25;stroke-miterlimit:10;}
	.st1{fill:#FFFFFF;stroke:#FFFFFF;stroke-width:0.25;stroke-miterlimit:10;}
</style>
<g id="레이어_2">
	<path class="st0" d="M19.14,21.77l-6.67-4.48c-0.14-0.09-0.3-0.14-0.47-0.14c-0.16,0-0.33,0.05-0.47,0.14l-6.67,4.48V2.87
		c0-0.23,0.19-0.42,0.42-0.42h13.44c0.23,0,0.42,0.19,0.42,0.42V21.77z"/>
</g>
<g id="레이어_1">
	<g>
		<path class="st0" d="M18.72,1.61H5.28c-0.69,0-1.26,0.57-1.26,1.26v18.9c0,0.46,0.38,0.84,0.84,0.84c0.16,0,0.33-0.05,0.46-0.14
			L12,17.99l6.67,4.48c0.14,0.09,0.3,0.14,0.46,0.14c0.46,0,0.84-0.38,0.84-0.84V2.87C19.98,2.18,19.41,1.61,18.72,1.61z
			 M19.14,21.77l-6.67-4.48c-0.14-0.09-0.3-0.14-0.47-0.14c-0.16,0-0.33,0.05-0.47,0.14l-6.67,4.48V2.87c0-0.23,0.19-0.42,0.42-0.42
			h13.44c0.23,0,0.42,0.19,0.42,0.42V21.77z"/>
	</g>
</g>
<g id="레이어_3">
	<path class="st1" d="M15.78,9.17h-3.36V5.81c0-0.23-0.19-0.42-0.42-0.42c-0.23,0-0.42,0.19-0.42,0.42v3.36H8.22
		c-0.23,0-0.42,0.19-0.42,0.42c0,0.23,0.19,0.42,0.42,0.42h3.36v3.36c0,0.23,0.19,0.42,0.42,0.42c0.23,0,0.42-0.19,0.42-0.42v-3.36
		h3.36c0.23,0,0.42-0.19,0.42-0.42C16.2,9.36,16.01,9.17,15.78,9.17z"/>
</g>
</svg>
