<?xml version="1.0" encoding="utf-8"?>
<!-- Generator: Adobe Illustrator 24.2.1, SVG Export Plug-In . SVG Version: 6.00 Build 0)  -->
<svg version="1.1" xmlns="http://www.w3.org/2000/svg" xmlns:xlink="http://www.w3.org/1999/xlink" x="0px" y="0px" width="24px"
	 height="24px" viewBox="0 0 24 24" style="enable-background:new 0 0 24 24;" xml:space="preserve">
<style type="text/css">
	.st0{fill:#9CB5D3;}
</style>
<g id="레이어_1">
</g>
<g id="레이어_2">
	<g>
		<path class="st0" d="M7.2,7c0.3-0.5,0.6-0.9,1.1-1.2c0.4-0.4,1-0.6,1.5-0.8s1.2-0.3,1.8-0.3c0.7,0,1.3,0.1,1.9,0.2
			c0.6,0.2,1.2,0.4,1.6,0.7C15.6,6,16,6.4,16.3,6.9c0.3,0.5,0.4,1.1,0.4,1.8c0,0.4-0.1,0.8-0.2,1.2c-0.2,0.4-0.4,0.7-0.6,1
			c-0.2,0.3-0.5,0.5-0.8,0.8c-0.3,0.2-0.6,0.5-1,0.8c-0.6,0.4-1,0.7-1.1,0.9c-0.1,0.1-0.2,0.4-0.3,0.7c-0.1,0.4-0.3,0.6-0.5,0.8
			c-0.2,0.2-0.5,0.3-0.9,0.3c-0.4,0-0.7-0.1-1-0.4c-0.2-0.3-0.3-0.6-0.3-0.9c0-0.6,0.2-1,0.5-1.4c0.3-0.4,0.8-0.8,1.4-1.3
			c0.6-0.4,1-0.8,1.2-1.1c0.3-0.3,0.4-0.7,0.4-1.1c0-0.5-0.2-1-0.5-1.3C12.8,7.1,12.3,7,11.7,7s-1.1,0.1-1.3,0.4
			C10.1,7.6,9.8,8,9.6,8.5C9.4,8.9,9.2,9.2,9,9.4C8.8,9.6,8.5,9.7,8.1,9.7c-0.4,0-0.7-0.1-0.9-0.3C6.9,9.1,6.8,8.8,6.8,8.4
			C6.8,7.9,6.9,7.5,7.2,7z M10.3,16.9c0.3-0.3,0.7-0.5,1.2-0.5c0.5,0,0.9,0.2,1.2,0.5c0.3,0.3,0.5,0.7,0.5,1.2
			c0,0.5-0.2,0.9-0.5,1.2c-0.3,0.3-0.7,0.5-1.2,0.5c-0.5,0-0.9-0.2-1.2-0.5c-0.3-0.3-0.5-0.7-0.5-1.2C9.8,17.6,10,17.2,10.3,16.9z"
			/>
	</g>
</g>
</svg>
