<?xml version="1.0" encoding="utf-8"?>
<!-- Generator: Adobe Illustrator 22.1.0, SVG Export Plug-In . SVG Version: 6.00 Build 0)  -->
<svg version="1.1" xmlns="http://www.w3.org/2000/svg" xmlns:xlink="http://www.w3.org/1999/xlink" x="0px" y="0px" width="16px"
	 height="16px" viewBox="0 0 16 16" style="enable-background:new 0 0 16 16;" xml:space="preserve">
<style type="text/css">
	.st0{fill:#777777;}
	.st1{fill:#FFFFFF;}
</style>
<g id="레이어_1">
</g>
<g id="레이어_2">
	<g>
		<path class="st0" d="M8.7,1.4L3.5,5c0,0,0,0,0,0H0.7C0.3,5,0,5.3,0,5.6V11c0,0.4,0.3,0.7,0.7,0.7h2.8l5.1,3.6
			c0.3,0.2,0.5,0.1,0.5-0.3V1.7C9.2,1.4,8.9,1.2,8.7,1.4z"/>
		<path class="st0" d="M14.2,8.3l1.7-1.7c0.3-0.3,0.3-0.7,0-0.9c-0.3-0.3-0.7-0.3-0.9,0l-1.7,1.7l-1.7-1.7c-0.3-0.3-0.7-0.3-0.9,0
			c-0.3,0.3-0.3,0.7,0,0.9l1.7,1.7L10.7,10c-0.3,0.3-0.3,0.7,0,0.9c0.1,0.1,0.3,0.2,0.5,0.2c0.2,0,0.3-0.1,0.5-0.2l1.7-1.7l1.7,1.7
			c0.1,0.1,0.3,0.2,0.5,0.2c0.2,0,0.3-0.1,0.5-0.2c0.3-0.3,0.3-0.7,0-0.9L14.2,8.3z"/>
	</g>
</g>
<g id="레이어_3">
	<g>
		<path class="st1" d="M8.7,1L3.5,4.5c0,0,0,0,0,0H0.7C0.3,4.5,0,4.8,0,5.2v5.4c0,0.4,0.3,0.7,0.7,0.7h2.8l5.1,3.6
			c0.3,0.2,0.5,0.1,0.5-0.3V1.3C9.2,0.9,8.9,0.8,8.7,1z"/>
		<path class="st1" d="M14.2,7.9l1.7-1.7c0.3-0.3,0.3-0.7,0-0.9c-0.3-0.3-0.7-0.3-0.9,0L13.2,7l-1.7-1.7c-0.3-0.3-0.7-0.3-0.9,0
			c-0.3,0.3-0.3,0.7,0,0.9l1.7,1.7l-1.7,1.7c-0.3,0.3-0.3,0.7,0,0.9c0.1,0.1,0.3,0.2,0.5,0.2c0.2,0,0.3-0.1,0.5-0.2l1.7-1.7l1.7,1.7
			c0.1,0.1,0.3,0.2,0.5,0.2c0.2,0,0.3-0.1,0.5-0.2c0.3-0.3,0.3-0.7,0-0.9L14.2,7.9z"/>
	</g>
</g>
</svg>
