<?xml version="1.0" encoding="utf-8"?>
<!-- Generator: Adobe Illustrator 24.2.1, SVG Export Plug-In . SVG Version: 6.00 Build 0)  -->
<svg version="1.1" id="레이어_1" xmlns="http://www.w3.org/2000/svg" xmlns:xlink="http://www.w3.org/1999/xlink" x="0px"
	 y="0px" width="102px" height="120px" viewBox="0 0 102 120" style="enable-background:new 0 0 102 120;" xml:space="preserve">
<style type="text/css">
	.st0{fill:#3683D5;}
</style>
<g>
	<g>
		<path class="st0" d="M17.4,99.7v2.4h4.3v-8.7h3.7v24.6h-3.7v-12.5h-4.3v6.3c0,3.5-2.9,6.2-6.4,6.2c-3.5,0-6.4-2.8-6.4-6.2V99.7
			c0-3.5,2.8-6.2,6.4-6.2C14.6,93.5,17.4,96.3,17.4,99.7z M8.3,99.7v12.1c0,1.4,1.2,2.6,2.7,2.6c1.5,0,2.7-1.2,2.7-2.6V99.7
			c0-1.5-1.2-2.6-2.7-2.6C9.6,97.1,8.3,98.3,8.3,99.7z"/>
		<path class="st0" d="M36.9,105.7v-1.8h-7.6V93.5h3.5v2.2h11.8v-2.2h3.5v10.4h-7.6v1.8h9.3v3H27.6v-3H36.9z M48.5,110.4v3.1l-1,4.7
			h-3.7l1-4.7H28.7v-3.1H48.5z M44.7,100.9v-2.2H32.8v2.2H44.7z"/>
		<path class="st0" d="M56.4,94.5v-1.8h3.6v1.8h4.8v2.8H63c0.4,0.6,0.7,1.3,0.7,2.1v1.3c0,1.9-1.6,3.5-3.7,4.1v1.4h8.4V93.5h3.4v5.9
			h2.6v3.5h-2.6v6.2h-20v-3h4.6v-1.4c-2.1-0.6-3.6-2.2-3.6-4.1v-1.3c0-0.7,0.2-1.4,0.6-2.1h-1.8v-2.8H56.4z M67.5,110.5
			c2.5,0,4.6,1.2,4.6,3.8c0,2.6-2.1,3.8-4.6,3.8H57c-2.5,0-4.6-1.2-4.6-3.8c0-2.6,2.1-3.8,4.6-3.8H67.5z M60.5,99.8
			c0-1.1-1-1.8-2.3-1.8C57,98,56,98.7,56,99.8v0.2c0,1.1,1,1.8,2.3,1.8c1.2,0,2.3-0.7,2.3-1.8V99.8z M56.9,113.6
			c-0.7,0-0.8,0.4-0.8,0.7c0,0.4,0.1,0.7,0.8,0.7h10.9c0.7,0,0.8-0.4,0.8-0.7c0-0.4-0.1-0.7-0.8-0.7H56.9z"/>
		<path class="st0" d="M82.9,105.6l4.1,12.3h-3.6l-2.4-7l-2.4,7h-3.9L82,97.1h-6.9v-3.5h10.8v3.5L82.9,105.6z M91.3,118.1H88V106h-3
			v-3.3h3v-9.2h3.3V118.1z M96.6,118.1h-3.4V93.5h3.4V118.1z"/>
	</g>
</g>
<g>
	<g>
		<path class="st0" d="M67.8,50.4c-3.4-1.3-7-2.7-10.8-4.1L67.8,50.4z"/>
		<path class="st0" d="M23.1,48.9c-1.5,0-2.8,1.2-2.8,2.8c0,1.5,1.2,2.8,2.8,2.8c1.5,0,2.8-1.2,2.8-2.8
			C25.9,50.1,24.6,48.9,23.1,48.9z"/>
		<path class="st0" d="M97,63.2l-0.1-2.1l-2-0.4c0,0-0.8-0.1-2.8-0.7v-0.8v-3.7v-0.7l-0.6-0.4L89,53v-2.9v-0.6l-0.5-0.4l-12.4-9.7
			h-1.7h-4.7l1.5-6.1c0.1,0,0.2,0.1,0.4,0.1c0.8,0,1.5-0.7,1.5-1.5c0-0.8-0.7-1.5-1.5-1.5c-0.8,0-1.5,0.7-1.5,1.5
			c0,0.2,0.1,0.4,0.1,0.6l-3.9,1.8l-3-3.8c0.3-0.3,0.5-0.7,0.5-1.1c0-0.8-0.7-1.5-1.5-1.5c-0.8,0-1.5,0.7-1.5,1.5
			c0,0.4,0.2,0.8,0.5,1.1l-3.3,4.4l-3.7-2.2c0.1-0.2,0.2-0.5,0.2-0.8c0-0.8-0.7-1.5-1.5-1.5c-0.8,0-1.5,0.7-1.5,1.5
			c0,0.8,0.7,1.5,1.5,1.5c0.1,0,0.2,0,0.4,0l1.5,6h-3.7v3.4h21.6v9.5c-1.4-0.6-2.9-1.2-4.4-1.7l-12-4.6c-4.2-1.5-8.6-3.1-13-4.6
			c-23.6-7.9-41-5.4-41.1-5.4L0,36.4v2.2c0,5.7,2,11.6,4.8,17.1c2.3,4.5,5.1,8.7,7.8,12.4c-0.9,0.7-2,1.7-2.7,2.9
			c-2,3.1-1.2,6.6-1.2,6.6l0.5,1.9h2h79.4h0.8L92,79c0,0,1.9-1.4,3.6-4.9C97.2,70.7,97,63.2,97,63.2z M76.1,42.9l10.3,7.9v3v0.7
			l0.6,0.4l2.6,1.5v1.1l-2.9-1.1l0,0.2l0,1.7l-3.1-1.4c-2.2-0.9-4.7-1.9-7.5-3.1V42.9z M91,72c-0.6,1.3-1.1,2-1.5,2.5H13.7
			c0.1-0.2,0.2-0.5,0.3-0.7c1.1-1.6,3.2-2.8,3.2-2.8l2.7-1.4l-1.8-2.4c-3-3.9-6.3-8.7-8.9-13.8C7.3,49.3,5.7,45,5.2,40.9
			c5.3-0.3,19-0.4,36.5,5.4c15.8,5.3,31.1,11.6,40,15.3c4,1.7,6.8,2.8,7.8,3.1c1,0.3,1.8,0.5,2.4,0.6C91.9,67.4,91.7,70.5,91,72z"/>
	</g>
</g>
<g>
	<path d="M19.4,6.7H24v0.7H13.9V6.7h4.6V5.5h0.8V6.7z M18.7,5.1c-0.4,0-0.8,0.1-1.3,0.1c-0.5,0-1,0-1.6,0H15V1.6h3.5v0.7h-2.6v2.2
		h0.3c0.5,0,0.9,0,1.4,0c0.4,0,0.8-0.1,1.2-0.1L18.7,5.1z M15.2,8.7h7.3v3.5h-0.8V9.4h-6.5V8.7z M23,4.5v0.7h-3.8V1.6h3.7v0.7H20
		v2.2H23z"/>
	<path d="M30,6.7h4.6v0.7H24.6V6.7h4.6V5.5H30V6.7z M29.3,5.1c-0.4,0-0.8,0.1-1.3,0.1c-0.5,0-1,0-1.6,0h-0.8V1.6h3.5v0.7h-2.6v2.2
		h0.3c0.5,0,0.9,0,1.4,0c0.4,0,0.8-0.1,1.2-0.1L29.3,5.1z M25.9,8.7h7.3v3.5h-0.8V9.4h-6.5V8.7z M33.6,4.5v0.7h-3.8V1.6h3.7v0.7
		h-2.8v2.2H33.6z"/>
	<path d="M38.9,2.4h2.7v0.7h-6.3V2.4H38V1h0.8V2.4z M41,6.1c0,0.2-0.1,0.5-0.2,0.7c-0.1,0.2-0.3,0.4-0.5,0.6
		c-0.2,0.2-0.5,0.3-0.8,0.4c-0.3,0.1-0.7,0.2-1.1,0.2S37.7,8,37.4,7.9c-0.3-0.1-0.6-0.3-0.8-0.4c-0.2-0.2-0.4-0.4-0.5-0.6
		c-0.1-0.2-0.2-0.5-0.2-0.7V5.7c0-0.2,0.1-0.5,0.2-0.7c0.1-0.2,0.3-0.4,0.5-0.6c0.2-0.2,0.5-0.3,0.8-0.4s0.7-0.2,1.1-0.2
		s0.7,0.1,1.1,0.2s0.6,0.3,0.8,0.4s0.4,0.4,0.5,0.6C40.9,5.2,41,5.4,41,5.7V6.1z M38.5,7.3c0.3,0,0.5,0,0.7-0.1
		c0.2-0.1,0.4-0.2,0.5-0.3c0.1-0.1,0.3-0.3,0.3-0.4c0.1-0.1,0.1-0.3,0.1-0.4V5.7c0-0.1,0-0.3-0.1-0.4S39.9,5,39.7,4.9
		c-0.1-0.1-0.3-0.2-0.5-0.3c-0.2-0.1-0.5-0.1-0.7-0.1c-0.3,0-0.5,0-0.7,0.1c-0.2,0.1-0.4,0.2-0.5,0.3c-0.1,0.1-0.3,0.3-0.3,0.4
		c-0.1,0.1-0.1,0.3-0.1,0.4v0.4c0,0.1,0,0.3,0.1,0.4c0.1,0.1,0.2,0.3,0.3,0.4c0.1,0.1,0.3,0.2,0.5,0.3S38.2,7.3,38.5,7.3z
		 M38.1,11.2h6V12h-6.9v-3h0.9V11.2z M43.8,4.5h1.7v0.7h-1.7v3.9H43v-8h0.8V4.5z"/>
	<path d="M54.1,9.2h-5V2h0.8v2.7h3.3V2h0.8V9.2z M49.9,8.4h3.3V5.5h-3.3V8.4z M57,5.2h1.8V6H57v6.1h-0.9v-11H57V5.2z"/>
	<path d="M59.7,2.1h5v0.8h-4.1v5.5H62c0.6,0,1.2,0,1.8-0.1s1.2-0.1,1.9-0.2l0.1,0.8c-0.6,0.1-1.3,0.2-2,0.2c-0.7,0-1.4,0.1-2.1,0.1
		h-2.1V2.1z M67.6,5.2h1.8v0.8h-1.8v6.1h-0.9v-11h0.9V5.2z"/>
	<path d="M71.3,1.7v3.9c0.6,0,1.1,0,1.5,0c0.4,0,0.9,0,1.2,0c0.4,0,0.8,0,1.1-0.1c0.4,0,0.8-0.1,1.2-0.2l0.1,0.8
		c-0.5,0.1-0.9,0.1-1.3,0.2c-0.4,0-0.8,0.1-1.2,0.1c-0.4,0-0.9,0-1.5,0c-0.6,0-1.3,0-2.1,0V1.7H71.3z M71,8h3.5v4.2h-0.8V8.7H71V8z
		 M75.1,8h3.3v4.2h-0.8V8.7h-2.4V8z M78.4,3.7H80v0.7h-1.7v2.9h-0.8V1.1h0.8V3.7z"/>
	<path d="M82.5,6.8c0.2-0.2,0.3-0.4,0.5-0.6C83,6,83.1,5.9,83.2,5.7c0.1-0.2,0.1-0.4,0.1-0.5c0-0.2,0-0.4,0-0.6V1.9h0.9v2.6
		c0,0.2,0,0.4,0,0.6c0,0.2,0,0.3,0.1,0.5c0,0.2,0.1,0.3,0.2,0.5c0.1,0.2,0.2,0.3,0.4,0.5c0.2,0.3,0.5,0.6,0.9,0.9
		c0.3,0.4,0.8,0.7,1.2,1.1l-0.6,0.6c-0.4-0.4-0.7-0.7-1.1-1c-0.3-0.3-0.6-0.6-0.8-0.9c-0.2-0.2-0.3-0.4-0.5-0.6
		c-0.1-0.2-0.2-0.3-0.3-0.4h0c0,0,0,0.1-0.1,0.2c-0.1,0.1-0.1,0.2-0.2,0.3S83.3,7,83.2,7.2c-0.1,0.1-0.2,0.2-0.3,0.3
		c-0.1,0.1-0.2,0.2-0.4,0.4c-0.1,0.2-0.3,0.3-0.5,0.5s-0.3,0.3-0.5,0.5C81.4,9,81.2,9.2,81,9.4l-0.6-0.6c0.4-0.4,0.8-0.7,1.1-1
		C81.9,7.4,82.2,7.1,82.5,6.8z M89.4,12.1h-0.9v-11h0.9V12.1z"/>
</g>
</svg>
