<?xml version="1.0" encoding="utf-8"?>
<!-- Generator: Adobe Illustrator 23.0.6, SVG Export Plug-In . SVG Version: 6.00 Build 0)  -->
<!DOCTYPE svg PUBLIC "-//W3C//DTD SVG 1.1//EN" "http://www.w3.org/Graphics/SVG/1.1/DTD/svg11.dtd" [
	<!ENTITY ns_extend "http://ns.adobe.com/Extensibility/1.0/">
	<!ENTITY ns_ai "http://ns.adobe.com/AdobeIllustrator/10.0/">
	<!ENTITY ns_graphs "http://ns.adobe.com/Graphs/1.0/">
	<!ENTITY ns_vars "http://ns.adobe.com/Variables/1.0/">
	<!ENTITY ns_imrep "http://ns.adobe.com/ImageReplacement/1.0/">
	<!ENTITY ns_sfw "http://ns.adobe.com/SaveForWeb/1.0/">
	<!ENTITY ns_custom "http://ns.adobe.com/GenericCustomNamespace/1.0/">
	<!ENTITY ns_adobe_xpath "http://ns.adobe.com/XPath/1.0/">
]>
<svg version="1.1" id="Layer_1" xmlns:x="&ns_extend;" xmlns:i="&ns_ai;" xmlns:graph="&ns_graphs;"
	 xmlns="http://www.w3.org/2000/svg" xmlns:xlink="http://www.w3.org/1999/xlink" x="0px" y="0px" width="36px" height="36px"
	 viewBox="0 0 36 36" style="enable-background:new 0 0 36 36;" xml:space="preserve">
<style type="text/css">
	.st0{fill:none;stroke:#00A1BA;stroke-width:1.44;stroke-linecap:round;stroke-linejoin:round;stroke-miterlimit:22.9256;}
	.st1{fill:none;stroke:#FF8F33;stroke-width:1.44;stroke-linecap:round;stroke-linejoin:round;stroke-miterlimit:22.9256;}
</style>
<metadata>
	<sfw  xmlns="&ns_sfw;">
		<slices></slices>
		<sliceSourceBounds  bottomLeftOrigin="true" height="34.2" width="35" x="0.6" y="0.8"></sliceSourceBounds>
	</sfw>
</metadata>
<path class="st0" d="M19.4,24.2l-2.9,5.1 M22.3,27.4l-4.1,7.1 M28.8,24.2l-2.9,5.1 M20.7,21c8,0,4.8,0,6.6,0c4.1,0,7.5-3.1,7.5-6.9
	c0-3.8-3.4-6.9-7.5-6.9c-0.5,0-1,0-1.5,0.1c-1.4-3.3-4.9-5.6-8.9-5.6c-5.3,0-9.6,3.9-9.6,8.8l0,0.1c-0.1,0-0.2,0-0.4,0
	c-3.1,0-5.6,2.3-5.6,5.2c0,2,1.3,3.8,3.1,4.6"/>
<polygon class="st1" points="7.1,32.1 10.8,23.5 7.2,23.6 11.3,14.3 16.5,14.3 12,21 16.4,21 7.1,32.1 "/>
</svg>
