<?xml version="1.0" encoding="utf-8"?>
<!-- Generator: Adobe Illustrator 24.2.1, SVG Export Plug-In . SVG Version: 6.00 Build 0)  -->
<svg version="1.1" id="Layer_1" xmlns="http://www.w3.org/2000/svg" xmlns:xlink="http://www.w3.org/1999/xlink" x="0px" y="0px"
	 width="36px" height="36px" viewBox="0 0 36 36" style="enable-background:new 0 0 36 36;" xml:space="preserve">
<style type="text/css">
	.st0{fill:none;stroke:#FF8F33;stroke-width:1.3429;stroke-linecap:round;stroke-linejoin:round;stroke-miterlimit:22.9256;}
	.st1{fill:none;stroke:#00A1BA;stroke-width:1.3429;stroke-linecap:round;stroke-linejoin:round;stroke-miterlimit:22.9256;}
</style>
<polyline class="st0" points="13.2,19.8 9.4,27.2 13.6,27.2 9.5,34.4 "/>
<path class="st0" d="M16.6,10.7C17,8.4,19,6.5,21.4,6.2c3-0.3,5.7,1.9,6.1,4.9c0.2,1.6-0.4,3.1-1.4,4.3 M21.2,3.1L21,1L21.2,3.1
	L21.2,3.1z M17,4.7L15.8,3L17,4.7L17,4.7z M14.1,8.1l-1.9-0.9L14.1,8.1L14.1,8.1z M29.9,15.3l1.9,0.9L29.9,15.3L29.9,15.3z
	 M30.7,10.9l2.1-0.2L30.7,10.9L30.7,10.9z M29.1,6.7l1.7-1.2L29.1,6.7L29.1,6.7z M25.6,3.8l0.9-1.9L25.6,3.8L25.6,3.8z"/>
<path class="st1" d="M16.5,27.4l-2.2,3.8 M19.1,29.8l-3,5.2 M24.5,27.4l-2.2,3.8 M15.1,25.1c5.9,0,5.9,0,7.2,0c3,0,5.5-2.3,5.5-5
	s-2.5-5-5.5-5c-0.4,0-0.8,0-1.1,0.1c-1-2.4-3.6-4.1-6.6-4.1c-3.9,0-7,2.9-7,6.4l0,0.1c-0.1,0-0.2,0-0.3,0c-2.3,0-4.1,1.7-4.1,3.8
	c0,2.1,1.8,3.8,4.1,3.8"/>
</svg>
