<?xml version="1.0" encoding="utf-8"?>
<!-- Generator: Adobe Illustrator 22.1.0, SVG Export Plug-In . SVG Version: 6.00 Build 0)  -->
<svg version="1.1" id="레이어_1" xmlns="http://www.w3.org/2000/svg" xmlns:xlink="http://www.w3.org/1999/xlink" x="0px"
	 y="0px" width="24px" height="24px" viewBox="0 0 24 24" style="enable-background:new 0 0 24 24;" xml:space="preserve">
<style type="text/css">
	.st0{fill:#777777;stroke:#777777;stroke-width:0.2;stroke-miterlimit:10;}
</style>
<path class="st0" d="M21.4,7.1c-0.8-0.5-1.5-0.9-1.6-0.9c-1.7-0.7-3.5-1.2-4.8-1.1c-0.3,0-0.7,0-0.9,0c-0.2,0-0.5,0-0.7,0
	c-1.7,0-4.3,0.2-5.8,0.7c-0.7,0.2-1,0.4-1.2,0.6C6.4,6.5,6.1,6.6,6,6.6C4.7,6.8,4.4,7.2,3.9,7.9C3.6,8.4,3.1,9,1.9,9.8
	c-1.8,1.2-1.7,1.9-1.2,2.9c0.2,0.5,0.4,0.9,0.2,1.6c-0.4,1.3,0.4,1.9,1.1,2.3c0.6,0.4,1.2,0.8,1.4,1.8c0.1,0.8,0.4,1.8,1.4,1.8
	c0.3,0,0.6-0.1,1-0.2c0.3-0.1,0.7-0.2,1-0.2c0.3,0,0.5,0.1,0.7,0.2c0.4,0.2,0.8,0.3,1.3,0.3c1.2,0,2.3-0.7,3.6-2.1
	c0.1-0.1,0.4-0.3,0.6-0.4l0.1,0c0.5-0.3,1-0.9,1.4-1.5c0.4-0.6,0.9-1.1,1.4-1.5c0.1-0.1,0.4-0.2,0.5-0.3c0.1,0,0.2-0.1,0.3-0.1
	c0.4-0.2,0.9-0.6,1.4-0.9c0.6-0.4,1.3-0.9,2-1.3c0.4-0.2,0.9-0.5,1.3-0.7l0,0c0,0,0.2-0.1,0.4-0.3c0.7-0.6,1.2-1.3,1.2-1.7
	C23,8.6,22.5,7.9,21.4,7.1z M21.3,10.5c-0.2,0.1-0.3,0.2-0.4,0.3l0,0c-0.4,0.3-0.7,0.5-1.2,0.7c-0.8,0.4-1.5,0.9-2.1,1.3
	c-0.5,0.3-0.9,0.7-1.3,0.9c-0.1,0-0.1,0.1-0.2,0.1c-0.2,0.1-0.5,0.2-0.7,0.4c-0.6,0.5-1.1,1.1-1.6,1.7c-0.4,0.5-0.8,1-1.2,1.3
	l-0.1,0c-0.2,0.1-0.6,0.3-0.8,0.6c-1.1,1.3-2.1,1.9-3.1,1.9c-0.3,0-0.6-0.1-0.9-0.2c-0.3-0.2-0.6-0.2-1-0.2c-0.4,0-0.9,0.1-1.2,0.2
	c-0.3,0.1-0.6,0.1-0.8,0.1c0,0,0,0,0,0c-0.2,0-0.5,0-0.7-1.1c-0.2-1.4-1-1.9-1.7-2.4c-0.7-0.5-1-0.7-0.8-1.5c0.3-1,0-1.6-0.3-2.2
	c-0.3-0.7-0.5-1,0.9-2c1.4-0.9,1.8-1.6,2.2-2.1c0.4-0.5,0.6-0.8,1.7-1c0,0,0.5-0.1,0.8-0.3c0.2-0.2,0.7-0.3,0.9-0.4
	c1.6-0.5,4.6-0.7,6.2-0.7c0.3,0,0.7,0,1,0c0.1,0,0.1,0,0.2,0c1.1,0,2.7,0.4,4.2,1c0,0,0.7,0.3,1.5,0.8c0.9,0.6,1.3,1.2,1.3,1.6
	C22.3,9.4,22,9.9,21.3,10.5z"/>
<path class="st0" d="M14.2,7.3c-0.5-0.1-1-0.1-1.5-0.2C12,7,11.3,6.9,10.7,6.9C9,6.9,7.7,7.5,6.2,9c-1.3,1.3-1.8,2.8-1.2,4.2
	c0.6,1.4,2.2,2.4,4,2.4c0.9,0,1.7-0.2,2.6-0.6c0.7-0.3,1.1-0.8,1.5-1.3c0.7-0.8,1.4-1.7,3.7-2.4c1.1-0.3,1.7-0.8,1.6-1.4
	C18.2,8.4,14.9,7.4,14.2,7.3z M16.5,10.5c-2.5,0.7-3.3,1.8-4,2.6c-0.4,0.5-0.7,0.9-1.2,1.1c-0.7,0.4-1.5,0.6-2.2,0.6
	c-1.5,0-2.9-0.8-3.4-2c-0.4-1.1-0.1-2.3,1.1-3.4c1.7-1.6,2.9-1.9,3.9-1.9c0.6,0,1.3,0.1,1.9,0.2c0.5,0.1,1,0.2,1.6,0.2
	c0.8,0.1,3.4,1.1,3.4,1.8C17.6,10,17.3,10.3,16.5,10.5z"/>
<path class="st0" d="M9,10c-1.5,0.1-2.6,1.2-2.5,2.3c0,0.5,0.3,1,0.8,1.3c0.2,0.1,0.4,0.1,0.5-0.1c0.1-0.2,0.1-0.4-0.1-0.5
	c-0.2-0.2-0.4-0.4-0.5-0.8c-0.1-0.7,0.8-1.4,1.9-1.5c1.1-0.1,2,0.5,2.1,1.2c0,0.5-0.4,1.1-1.1,1.3c-0.2,0.1-0.3,0.3-0.2,0.5
	c0.1,0.1,0.2,0.2,0.3,0.2c0,0,0.1,0,0.1,0c1-0.4,1.7-1.2,1.6-2.1C11.8,10.7,10.5,9.8,9,10z"/>
</svg>
