<?xml version="1.0" encoding="utf-8"?>
<!-- Generator: Adobe Illustrator 24.2.1, SVG Export Plug-In . SVG Version: 6.00 Build 0)  -->
<svg version="1.1" xmlns="http://www.w3.org/2000/svg" xmlns:xlink="http://www.w3.org/1999/xlink" x="0px" y="0px" width="24px"
	 height="24px" viewBox="0 0 24 24" style="enable-background:new 0 0 24 24;" xml:space="preserve">
<style type="text/css">
	.st0{fill:none;stroke:#9CB5D3;stroke-linecap:round;stroke-linejoin:round;stroke-miterlimit:10;}
</style>
<g id="레이어_1">
</g>
<g id="레이어_2">
	<g>
		<g>
			<line class="st0" x1="20.4" y1="8.7" x2="4.4" y2="8.7"/>
		</g>
		<polyline class="st0" points="6.8,6.3 6.8,7.1 8.8,7.1 8.8,6.3 		"/>
		<polyline class="st0" points="16,6.3 16,7.1 18,7.1 18,6.3 		"/>
		<path class="st0" d="M6.8,5.5H5.2c-0.4,0-0.8,0.4-0.8,0.8v12.4c0,0.4,0.4,0.8,0.8,0.8h14.4c0.4,0,0.8-0.4,0.8-0.8V6.3
			c0-0.4-0.4-0.8-0.8-0.8H18V4.3c0-0.2-0.2-0.4-0.4-0.4h-1.2c-0.2,0-0.4,0.2-0.4,0.4v1.2H8.8V4.3c0-0.2-0.2-0.4-0.4-0.4H7.2
			C7,3.9,6.8,4.1,6.8,4.3V5.5z"/>
		<line class="st0" x1="10" y1="11.9" x2="11.6" y2="11.9"/>
		<line class="st0" x1="13.2" y1="11.9" x2="14.8" y2="11.9"/>
		<line class="st0" x1="16.4" y1="11.9" x2="18" y2="11.9"/>
		<line class="st0" x1="6.8" y1="13.9" x2="8.4" y2="13.9"/>
		<line class="st0" x1="10" y1="13.9" x2="11.6" y2="13.9"/>
		<line class="st0" x1="13.2" y1="13.9" x2="14.8" y2="13.9"/>
		<line class="st0" x1="16.4" y1="13.9" x2="18" y2="13.9"/>
		<line class="st0" x1="6.8" y1="15.9" x2="8.4" y2="15.9"/>
		<line class="st0" x1="10" y1="15.9" x2="11.6" y2="15.9"/>
		<line class="st0" x1="13.2" y1="15.9" x2="14.8" y2="15.9"/>
	</g>
</g>
</svg>
