<?xml version="1.0" encoding="utf-8"?>
<!-- Generator: Adobe Illustrator 24.2.1, SVG Export Plug-In . SVG Version: 6.00 Build 0)  -->
<svg version="1.1" xmlns="http://www.w3.org/2000/svg" xmlns:xlink="http://www.w3.org/1999/xlink" x="0px" y="0px" width="24px"
	 height="24px" viewBox="0 0 24 24" style="enable-background:new 0 0 24 24;" xml:space="preserve">
<style type="text/css">
	.st0{fill:none;stroke:#9CB5D3;stroke-width:1.2;stroke-linecap:round;stroke-linejoin:round;stroke-miterlimit:10;}
</style>
<g id="레이어_1">
</g>
<g id="레이어_2">
	<g>
		<path class="st0" d="M18.1,14.5c-1.7-0.5-2-3.3-2.4-7.3C15.5,5,14.2,3.5,12,3.5S8.5,5,8.3,7.2C8,11.3,7.6,14,5.9,14.5
			c-0.3,0.1-0.6,0.4-0.6,0.7v1.6c0,0.4,0.3,0.7,0.7,0.7H12h5.9c0.4,0,0.7-0.3,0.7-0.7v-1.6C18.7,14.9,18.4,14.6,18.1,14.5z"/>
		<path class="st0" d="M13.5,19c0,0.8-0.7,1.5-1.5,1.5s-1.5-0.7-1.5-1.5"/>
	</g>
</g>
</svg>
