<?xml version="1.0" encoding="utf-8"?>
<!-- Generator: Adobe Illustrator 24.2.1, SVG Export Plug-In . SVG Version: 6.00 Build 0)  -->
<svg version="1.1" id="레이어_1" xmlns="http://www.w3.org/2000/svg" xmlns:xlink="http://www.w3.org/1999/xlink" x="0px"
	 y="0px" width="10px" height="10px" viewBox="0 0 10 10" style="enable-background:new 0 0 10 10;" xml:space="preserve">
<style type="text/css">
	.st0{fill:#FFFFFF;}
</style>
<g id="Layer_2_1_">
	<path id="XMLID_19_" class="st0" d="M0.62,1.27l3.78,3.78L0.62,8.83c-0.16,0.16-0.16,0.43,0,0.6c0.16,0.16,0.43,0.16,0.59,0L5,5.64
		l3.78,3.78c0.16,0.16,0.43,0.16,0.59,0c0.16-0.16,0.16-0.43,0-0.6L5.6,5.05l3.78-3.78c0.16-0.16,0.16-0.43,0-0.59
		c-0.16-0.16-0.43-0.16-0.6,0L5,4.45L1.22,0.67c-0.16-0.16-0.43-0.16-0.59,0C0.46,0.84,0.46,1.1,0.62,1.27z"/>
</g>
</svg>
