<?xml version="1.0" encoding="utf-8"?>
<!-- Generator: Adobe Illustrator 24.2.1, SVG Export Plug-In . SVG Version: 6.00 Build 0)  -->
<svg version="1.1" id="레이어_1" xmlns="http://www.w3.org/2000/svg" xmlns:xlink="http://www.w3.org/1999/xlink" x="0px"
	 y="0px" width="24px" height="24px" viewBox="0 0 24 24" style="enable-background:new 0 0 24 24;" xml:space="preserve">
<style type="text/css">
	.st0{fill:none;stroke:#333333;stroke-miterlimit:10;}
	.st1{fill:none;stroke:#333333;stroke-linejoin:round;stroke-miterlimit:10;}
</style>
<g>
	<path class="st0" d="M12,15.8c-1.8,0-3.9-2-4.7-4.7C6.6,11,6.1,10.2,6,9.2c-0.1-1,0.4-1.8,1-1.9c0.2-3.8,1.2-6,5-6s4.9,2.3,5,6
		c0.6,0.2,1,1,1,1.9c-0.1,1-0.7,1.8-1.3,1.8C15.9,13.8,13.8,15.8,12,15.8z"/>
	<path class="st1" d="M15.8,13.6c4.1,0.9,7,3,7,7.3c-2.8,1.3-7,1.9-10.8,1.9c-3.7,0-7.9-0.6-10.8-1.9c0-4.3,2.9-6.3,7-7.3"/>
</g>
</svg>
