<?xml version="1.0" encoding="utf-8"?>
<!-- Generator: Adobe Illustrator 24.2.1, SVG Export Plug-In . SVG Version: 6.00 Build 0)  -->
<svg version="1.1" id="레이어_1" xmlns="http://www.w3.org/2000/svg" xmlns:xlink="http://www.w3.org/1999/xlink" x="0px"
	 y="0px" width="24px" height="24px" viewBox="0 0 24 24" style="enable-background:new 0 0 24 24;" xml:space="preserve">
<style type="text/css">
	.st0{fill:none;stroke:#333333;stroke-linejoin:round;stroke-miterlimit:10;}
	.st1{fill:none;stroke:#333333;stroke-miterlimit:10;}
</style>
<g>
	<rect x="4.7" y="5.5" class="st0" width="10.7" height="4.8"/>
	<line class="st1" x1="4.1" y1="13.3" x2="16" y2="13.3"/>
	<line class="st1" x1="4.1" y1="16.2" x2="16" y2="16.2"/>
	<line class="st1" x1="4.1" y1="19.2" x2="10.1" y2="19.2"/>
	<path class="st1" d="M19,7.3h2.4c1,0,1.8,0.8,1.8,1.8v11c0,1.1-0.9,2.1-2.1,2.1c-1.1,0-2.1-0.9-2.1-2.1V3.7c0-1-0.8-1.8-1.8-1.8H3
		C2,2,1.2,2.8,1.2,3.7v16.6c0,1,0.8,1.8,1.8,1.8h17.8"/>
</g>
</svg>
