<?xml version="1.0" encoding="utf-8"?>
<!-- Generator: Adobe Illustrator 24.2.1, SVG Export Plug-In . SVG Version: 6.00 Build 0)  -->
<svg version="1.1" id="레이어_1" xmlns="http://www.w3.org/2000/svg" xmlns:xlink="http://www.w3.org/1999/xlink" x="0px"
	 y="0px" width="12px" height="12px" viewBox="0 0 12 12" style="enable-background:new 0 0 12 12;" xml:space="preserve">
<style type="text/css">
	.st0{fill:none;stroke:#C5B098;stroke-width:0.75;stroke-miterlimit:10;}
	.st1{fill:none;stroke:#C5B098;stroke-width:0.75;stroke-linecap:round;stroke-linejoin:round;stroke-miterlimit:10;}
	.st2{fill:none;stroke:#C5B098;stroke-width:0.75;stroke-linejoin:round;stroke-miterlimit:10;}
</style>
<g>
	<path class="st0" d="M9.54,11.4H2.46c-0.55,0-1-0.45-1-1V5.66h9.09v4.74C10.54,10.95,10.1,11.4,9.54,11.4z"/>
	<path class="st0" d="M11.5,5.66h-11V4.75c0-0.55,0.45-1,1-1h9c0.55,0,1,0.45,1,1V5.66z"/>
	<path class="st1" d="M5.1,1.2l0.66,2.33L3.6,2.44c-0.65-0.32-0.79-1.19-0.28-1.7l0,0C3.9,0.17,4.87,0.42,5.1,1.2z"/>
	<path class="st1" d="M6.54,1.2L5.88,3.53l2.16-1.08c0.65-0.32,0.79-1.19,0.28-1.7l0,0C7.74,0.17,6.77,0.42,6.54,1.2z"/>
	<line class="st2" x1="5.76" y1="3.98" x2="5.76" y2="11.4"/>
</g>
</svg>
