<?xml version="1.0" encoding="utf-8"?>
<!-- Generator: Adobe Illustrator 24.2.1, SVG Export Plug-In . SVG Version: 6.00 Build 0)  -->
<svg version="1.1" id="레이어_1" xmlns="http://www.w3.org/2000/svg" xmlns:xlink="http://www.w3.org/1999/xlink" x="0px"
	 y="0px" width="24px" height="24px" viewBox="0 0 24 24" style="enable-background:new 0 0 24 24;" xml:space="preserve">
<style type="text/css">
	.st0{fill:#3683D5;}
</style>
<g>
	<path class="st0" d="M18.8,15.1c-1.9-0.6-2.3-3.7-2.7-8.2C16,4.3,14.5,2.7,12,2.7S8,4.3,7.8,6.8c-0.4,4.6-0.8,7.7-2.7,8.2
		c-0.4,0.1-0.7,0.4-0.7,0.8v1.8c0,0.5,0.4,0.8,0.8,0.8H12h6.7c0.5,0,0.8-0.4,0.8-0.8v-1.8C19.5,15.5,19.2,15.2,18.8,15.1z"/>
	<path class="st0" d="M13.7,20.2c0,0.9-0.7,1.7-1.7,1.7s-1.7-0.7-1.7-1.7"/>
</g>
</svg>
