<?xml version="1.0" encoding="utf-8"?>
<!-- Generator: Adobe Illustrator 24.2.1, SVG Export Plug-In . SVG Version: 6.00 Build 0)  -->
<svg version="1.1" id="레이어_1" xmlns="http://www.w3.org/2000/svg" xmlns:xlink="http://www.w3.org/1999/xlink" x="0px"
	 y="0px" width="16px" height="16px" viewBox="0 0 16 16" style="enable-background:new 0 0 16 16;" xml:space="preserve">
<style type="text/css">
	.st0{fill:#381E1F;}
	.st1{fill:url(#SVGID_1_);}
	.st2{fill:url(#SVGID_2_);}
	.st3{fill:url(#SVGID_3_);}
	.st4{fill:url(#SVGID_4_);}
</style>
<g>
	<path class="st0" d="M8,0.6c-4.4,0-8,2.8-8,6.3c0,2.3,1.5,4.3,3.8,5.4c-0.2,0.6-0.6,2.3-0.7,2.6c-0.1,0.4,0.2,0.4,0.3,0.3
		c0.1-0.1,2.2-1.5,3.1-2.1c0.5,0.1,1,0.1,1.5,0.1c4.4,0,8-2.8,8-6.3S12.4,0.6,8,0.6z"/>
	<g>
		<g>
			<g>
				<linearGradient id="SVGID_1_" gradientUnits="userSpaceOnUse" x1="2.0957" y1="7.4545" x2="5.3864" y2="7.4545">
					<stop  offset="0" style="stop-color:#E5DD4A"/>
					<stop  offset="2.374291e-02" style="stop-color:#E5DC47"/>
					<stop  offset="0.1784" style="stop-color:#E4D83C"/>
					<stop  offset="0.3958" style="stop-color:#E4D635"/>
					<stop  offset="1" style="stop-color:#E4D533"/>
				</linearGradient>
				<path class="st1" d="M5,5.5c-0.6,0-2.5,0-2.5,0C2,5.5,2,6.3,2.5,6.3l0.8,0c0,0,0,2.3,0,2.8c0,0.4,0.9,0.4,0.9,0l0-2.8
					c0,0,0.3,0,0.8,0C5.5,6.3,5.5,5.5,5,5.5z"/>
			</g>
			<g>
				<g>
					<linearGradient id="SVGID_2_" gradientUnits="userSpaceOnUse" x1="4.7149" y1="7.4585" x2="8.1658" y2="7.4585">
						<stop  offset="0" style="stop-color:#E5DD4A"/>
						<stop  offset="2.374291e-02" style="stop-color:#E5DC47"/>
						<stop  offset="0.1784" style="stop-color:#E4D83C"/>
						<stop  offset="0.3958" style="stop-color:#E4D635"/>
						<stop  offset="1" style="stop-color:#E4D533"/>
					</linearGradient>
					<path class="st2" d="M7,5.7c-0.1-0.3-0.8-0.4-1,0C5.7,6.2,5,8.3,4.7,8.9C4.6,9.3,5.3,9.6,5.5,9.2l0.2-0.6l1.5,0
						c0,0-0.1,0,0.2,0.6c0.2,0.4,1,0.1,0.8-0.3C7.9,8.3,7.1,6.1,7,5.7z M6,7.9l0.5-1.5l0.5,1.5H6z"/>
				</g>
			</g>
			<g>
				<linearGradient id="SVGID_3_" gradientUnits="userSpaceOnUse" x1="8.4354" y1="7.4534" x2="10.7379" y2="7.4534">
					<stop  offset="0" style="stop-color:#E5DD4A"/>
					<stop  offset="2.374291e-02" style="stop-color:#E5DC47"/>
					<stop  offset="0.1784" style="stop-color:#E4D83C"/>
					<stop  offset="0.3958" style="stop-color:#E4D635"/>
					<stop  offset="1" style="stop-color:#E4D533"/>
				</linearGradient>
				<path class="st3" d="M10.4,8.6c-0.4,0-1.1,0-1.1,0s0-2.2,0-2.7c0-0.5-0.9-0.5-0.9,0c0,0.7,0,3.1,0,3.1S8.4,9.4,8.8,9.4
					s1.3,0,1.7,0C10.8,9.4,10.8,8.6,10.4,8.6z"/>
			</g>
			<g>
				<linearGradient id="SVGID_4_" gradientUnits="userSpaceOnUse" x1="10.9314" y1="7.4624" x2="13.8805" y2="7.4624">
					<stop  offset="0" style="stop-color:#E5DD4A"/>
					<stop  offset="2.374291e-02" style="stop-color:#E5DC47"/>
					<stop  offset="0.1784" style="stop-color:#E4D83C"/>
					<stop  offset="0.3958" style="stop-color:#E4D635"/>
					<stop  offset="1" style="stop-color:#E4D533"/>
				</linearGradient>
				<path class="st4" d="M13.8,8.8l-1.2-1.5c0,0,0.8-0.9,1.1-1.2c0.2-0.2-0.4-0.7-0.6-0.6C13,5.7,11.8,7,11.8,7s0-0.8,0-1.2
					c0-0.3-0.9-0.3-0.9,0c0,0.3,0,3.2,0,3.4c0,0.3,0.9,0.3,0.9,0c0-0.4,0-1.1,0-1.1L12,7.8l1.1,1.5C13.4,9.6,14.1,9.1,13.8,8.8z"/>
			</g>
		</g>
	</g>
</g>
</svg>
