<?xml version="1.0" encoding="utf-8"?>
<!-- Generator: Adobe Illustrator 24.2.1, SVG Export Plug-In . SVG Version: 6.00 Build 0)  -->
<svg version="1.1" id="레이어_1" xmlns="http://www.w3.org/2000/svg" xmlns:xlink="http://www.w3.org/1999/xlink" x="0px"
	 y="0px" width="64px" height="64px" viewBox="0 0 64 64" style="enable-background:new 0 0 64 64;" xml:space="preserve">
<style type="text/css">
	.st0{fill:#C1DEFD;}
	.st1{fill:#73D7FF;}
	.st2{fill:#FFFFFF;}
	.st3{fill:#003575;}
</style>
<circle class="st0" cx="31.8" cy="32" r="31"/>
<g>
	<g>
		<g>
			<polygon class="st1" points="34.5,11.3 38.6,14.9 45.3,13.1 47.5,20.4 53.8,24.6 51.6,32 53.8,39.1 47.3,42.9 46.2,50.1 
				38.6,50.1 35.8,51.6 31.8,54.8 25.1,49.5 17.9,50.4 15.6,42.4 9.3,39.1 12.3,31.5 9.3,25 16.7,21 17.9,13.7 25.8,15 31.6,9.1 			
				"/>
		</g>
	</g>
	<g>
		<g>
			<circle class="st2" cx="38.6" cy="37.2" r="4"/>
		</g>
	</g>
	<g>
		<g>
			<path class="st2" d="M29.1,26.8c0,2.2-1.8,4-4,4c-2.2,0-4-1.8-4-4s1.8-4,4-4C27.3,22.7,29.1,24.5,29.1,26.8z"/>
		</g>
	</g>
	<g>
		<g>
			<g>
				<g>
					<path class="st3" d="M31.8,55.5c-1.7,0-3-1.5-4.1-2.9c-0.8-1-1.5-1.8-2.2-2c-0.2-0.1-0.4-0.1-0.6-0.1c-0.7,0-1.7,0.3-2.5,0.5
						l0,0c-1,0.3-2.1,0.5-3.1,0.5c-0.8,0-1.4-0.2-1.9-0.5c-1.4-1-1.5-2.8-1.6-4.6c-0.1-1.3-0.1-2.4-0.5-2.9
						c-0.4-0.5-1.4-0.9-2.7-1.4c-1.7-0.6-3.6-1.3-4.1-2.9C8,37.7,9,36.2,10,34.7c0.8-1.2,1.4-2.1,1.4-2.7c0-0.7-0.6-1.5-1.4-2.7
						c-1-1.5-2.1-3-1.5-4.6c0.5-1.6,2.4-2.3,4.1-2.9c1.4-0.5,2.3-0.9,2.7-1.4c0.4-0.5,0.5-1.5,0.5-2.9c0.1-1.8,0.2-3.7,1.6-4.6
						c0.5-0.4,1.1-0.5,1.9-0.5c1,0,2,0.3,3,0.5l0,0c0.9,0.2,1.8,0.5,2.6,0.5c0.2,0,0.4,0,0.6-0.1c0.6-0.2,1.3-1,2.2-2
						c1.2-1.4,2.4-2.9,4.1-2.9c1.7,0,3,1.5,4.1,2.9c0.9,1.1,1.5,1.8,2.2,2c0.2,0,0.3,0.1,0.6,0.1c0.7,0,1.7-0.3,2.6-0.5l0,0
						c1-0.3,2.1-0.5,3-0.5c0.8,0,1.4,0.2,1.9,0.5c1.4,1,1.5,2.8,1.6,4.6c0.1,1.4,0.1,2.4,0.5,2.9c0.4,0.5,1.4,0.9,2.7,1.4
						c1.7,0.6,3.6,1.3,4.1,2.9c0.5,1.6-0.5,3.1-1.5,4.6c-0.8,1.2-1.4,2.1-1.4,2.7c0,0.7,0.6,1.5,1.4,2.7c1,1.5,2.1,3,1.5,4.6
						c-0.5,1.6-2.4,2.3-4.1,2.9c-1.3,0.5-2.3,0.9-2.7,1.4c-0.4,0.5-0.5,1.6-0.5,2.9c-0.1,1.8-0.2,3.7-1.6,4.6
						c-0.5,0.4-1.2,0.5-1.9,0.5h0c-1,0-2-0.3-3-0.5c-0.9-0.2-1.9-0.5-2.6-0.5c-0.2,0-0.4,0-0.6,0.1c-0.6,0.2-1.3,0.9-2.1,2
						C34.8,54,33.6,55.5,31.8,55.5z M25,48.5c0.4,0,0.8,0.1,1.2,0.2c1.2,0.4,2.2,1.5,3.1,2.6c1.1,1.3,1.9,2.2,2.6,2.2
						c0.7,0,1.5-0.9,2.6-2.2c0.9-1.1,1.9-2.3,3.1-2.6c0.4-0.1,0.7-0.2,1.2-0.2c1,0,2,0.3,3.1,0.5c0.8,0.2,1.9,0.5,2.6,0.5
						c0.3,0,0.6-0.1,0.8-0.2c0.5-0.3,0.6-1.3,0.7-3.1c0.1-1.5,0.1-3,0.9-4c0.8-1,2.2-1.5,3.6-2c1.8-0.6,2.7-1.1,2.9-1.6
						c0.2-0.5-0.1-1.1-1.3-2.8c-0.9-1.3-1.7-2.5-1.7-3.9c0-1.3,0.9-2.6,1.7-3.9c1.2-1.7,1.5-2.3,1.3-2.8c-0.2-0.6-1.1-1-2.9-1.6
						c-1.4-0.5-2.9-1-3.6-2c-0.8-1-0.9-2.6-0.9-4c-0.1-1.8-0.2-2.7-0.7-3.1c-0.2-0.1-0.4-0.2-0.8-0.2c-0.7,0-1.8,0.3-2.6,0.5
						c-1,0.3-2.1,0.5-3.1,0.5c-0.4,0-0.8-0.1-1.2-0.2c-1.2-0.4-2.2-1.5-3.1-2.6c-1-1.2-1.9-2.2-2.6-2.2c-0.7,0-1.5,0.9-2.6,2.2
						c-0.9,1.1-1.9,2.3-3.1,2.6c-0.4,0.1-0.7,0.2-1.2,0.2c-1,0-2-0.3-3.1-0.5c-0.8-0.2-1.9-0.5-2.6-0.5c-0.3,0-0.6,0.1-0.8,0.2
						c-0.5,0.3-0.6,1.3-0.7,3.1c-0.1,1.5-0.1,3-0.9,4c-0.8,1-2.2,1.5-3.6,2c-1.8,0.6-2.7,1.1-2.9,1.6c-0.2,0.5,0.1,1.1,1.3,2.8
						c0.9,1.2,1.7,2.5,1.7,3.9c0,1.3-0.9,2.6-1.7,3.9c-1.1,1.6-1.5,2.3-1.3,2.8c0.2,0.6,1.1,1,2.9,1.6c1.4,0.5,2.9,1,3.6,2
						c0.8,1,0.9,2.5,0.9,4c0.1,1.8,0.2,2.7,0.7,3.1c0.2,0.1,0.4,0.2,0.8,0.2c0.7,0,1.8-0.3,2.6-0.5C22.9,48.8,24,48.5,25,48.5z"/>
				</g>
			</g>
		</g>
		<g>
			<g>
				<g>
					<path class="st3" d="M25.8,40.5c-0.2,0-0.4-0.1-0.6-0.2c-0.4-0.3-0.5-1-0.2-1.4l12-15c0.2-0.2,0.5-0.4,0.8-0.4
						c0.2,0,0.4,0.1,0.6,0.2c0.4,0.3,0.5,1,0.2,1.4l-12,15C26.4,40.4,26.1,40.5,25.8,40.5z"/>
				</g>
			</g>
		</g>
		<g>
			<g>
				<g>
					<path class="st3" d="M25.1,31.5c-2.6,0-4.8-2.1-4.8-4.8c0-2.6,2.1-4.8,4.8-4.8c2.6,0,4.8,2.1,4.8,4.8
						C29.8,29.4,27.7,31.5,25.1,31.5z M25.1,24c-1.5,0-2.7,1.2-2.7,2.7c0,1.5,1.2,2.7,2.7,2.7c1.5,0,2.7-1.2,2.7-2.7
						C27.8,25.2,26.6,24,25.1,24z"/>
				</g>
			</g>
		</g>
		<g>
			<g>
				<g>
					<path class="st3" d="M38.6,42c-2.6,0-4.8-2.1-4.8-4.8c0-2.6,2.1-4.8,4.8-4.8c2.6,0,4.8,2.1,4.8,4.8C43.3,39.9,41.2,42,38.6,42z
						 M38.6,34.5c-1.5,0-2.7,1.2-2.7,2.7c0,1.5,1.2,2.7,2.7,2.7s2.7-1.2,2.7-2.7C41.3,35.7,40.1,34.5,38.6,34.5z"/>
				</g>
			</g>
		</g>
	</g>
</g>
</svg>
