<?xml version="1.0" encoding="utf-8"?>
<!-- Generator: Adobe Illustrator 24.2.1, SVG Export Plug-In . SVG Version: 6.00 Build 0)  -->
<svg version="1.1" id="레이어_1" xmlns="http://www.w3.org/2000/svg" xmlns:xlink="http://www.w3.org/1999/xlink" x="0px"
	 y="0px" width="64px" height="64px" viewBox="0 0 64 64" style="enable-background:new 0 0 64 64;" xml:space="preserve">
<style type="text/css">
	.st0{fill:#C1DEFD;}
	.st1{fill:#73D7FF;}
	.st2{fill:#FFFFFF;}
	.st3{fill:#003575;}
</style>
<circle class="st0" cx="32" cy="32" r="31"/>
<g>
	<g>
		<g>
			<rect x="14.4" y="31.1" class="st1" width="34.3" height="21.1"/>
		</g>
	</g>
	<g>
		<g>
			<rect x="10.4" y="22.8" class="st2" width="42.1" height="8.3"/>
		</g>
	</g>
	<g>
		<g>
			<rect x="27" y="31.6" class="st2" width="9.1" height="20.1"/>
		</g>
	</g>
	<g>
		<g>
			<g>
				<g>
					<path class="st3" d="M14.8,53.1c-0.5,0-0.9-0.4-0.9-0.9V32.5c0-0.3-0.2-0.5-0.5-0.5h-2.8c-0.5,0-0.9-0.4-0.9-0.9v-8.4
						c0-0.5,0.4-0.9,0.9-0.9h7.3c0.2,0,0.4-0.1,0.4-0.3c0.1-0.2,0-0.4-0.2-0.5c-1.6-1-2.9-2.1-3.6-3.4c-0.7-1.2-0.8-2.5-0.3-3.8
						c0.6-1.7,2.2-3.3,4.1-4c1.1-0.4,2.3-0.6,3.3-0.6c1.4,0,2.7,0.3,3.9,1c2.9,1.7,4.8,5.1,5.8,7.7c0.1,0.2,0.2,0.3,0.4,0.3
						s0.4-0.1,0.4-0.3c1-2.6,2.8-6,5.8-7.7c1.2-0.7,2.5-1,3.9-1c1.1,0,2.2,0.2,3.3,0.6c1.9,0.7,3.5,2.2,4.1,4
						c0.5,1.3,0.4,2.6-0.3,3.8c-0.8,1.3-2,2.5-3.6,3.4C45.1,21,45,21.2,45,21.4c0.1,0.2,0.2,0.3,0.4,0.3h7.3c0.5,0,0.9,0.4,0.9,0.9
						v8.4c0,0.5-0.4,0.9-0.9,0.9h-2.8c-0.3,0-0.5,0.2-0.5,0.5v19.7c0,0.5-0.4,0.9-0.9,0.9H14.8z M37.3,32c-0.3,0-0.5,0.2-0.5,0.5
						v18.2c0,0.3,0.2,0.5,0.5,0.5h9.8c0.3,0,0.5-0.2,0.5-0.5V32.5c0-0.3-0.2-0.5-0.5-0.5h-3.6c-0.1,0-0.3,0.1-0.4,0.2
						c-0.1,0.1-0.1,0.3-0.1,0.4c0.5,1.8,0.7,3.6,0.7,5.5c0,0.5-0.4,0.9-0.9,0.9c-0.5,0-0.9-0.4-0.9-0.9c0-2.1-0.3-4-0.9-5.8
						C41,32.2,40.9,32,40.7,32H37.3z M28.9,32c-0.3,0-0.5,0.2-0.5,0.5v18.2c0,0.3,0.2,0.5,0.5,0.5h5.6c0.3,0,0.5-0.2,0.5-0.5V32.5
						c0-0.3-0.2-0.5-0.5-0.5H28.9z M16.2,32c-0.3,0-0.5,0.2-0.5,0.5v18.2c0,0.3,0.2,0.5,0.5,0.5h9.8c0.3,0,0.5-0.2,0.5-0.5V32.5
						c0-0.3-0.2-0.5-0.5-0.5h-3.4c-0.2,0-0.4,0.1-0.4,0.3c-0.6,1.7-0.9,3.7-0.9,5.8c0,0.5-0.4,0.9-0.9,0.9c-0.5,0-0.9-0.4-0.9-0.9
						c0-1.9,0.2-3.7,0.7-5.5c0-0.1,0-0.3-0.1-0.4c-0.1-0.1-0.2-0.2-0.4-0.2H16.2z M37.8,23.6c-0.2,0-0.4,0.1-0.4,0.3
						c-0.1,0.2,0,0.4,0.2,0.5c2,1.4,3.5,3.3,4.5,5.4c0.1,0.2,0.2,0.3,0.4,0.3h8.8c0.3,0,0.5-0.2,0.5-0.5v-5.6c0-0.3-0.2-0.5-0.5-0.5
						H37.8z M31.7,23.7c0,0-0.1,0-0.1,0c-1.2,0.3-5.3,1.6-7.9,5.8c-0.1,0.1-0.1,0.3,0,0.5c0.1,0.1,0.2,0.2,0.4,0.2h15.3
						c0.2,0,0.3-0.1,0.4-0.2c0.1-0.1,0.1-0.3,0-0.5c-2.6-4.3-6.8-5.5-8-5.8C31.8,23.7,31.7,23.7,31.7,23.7z M12,23.6
						c-0.3,0-0.5,0.2-0.5,0.5v5.6c0,0.3,0.2,0.5,0.5,0.5h8.8c0.2,0,0.3-0.1,0.4-0.3c1.1-2.2,2.6-4,4.5-5.4c0.2-0.1,0.2-0.3,0.2-0.5
						c-0.1-0.2-0.2-0.3-0.4-0.3H12z M21.6,11c-0.8,0-1.7,0.2-2.7,0.5c-1.3,0.5-2.6,1.7-3,2.8c-0.3,0.8-0.2,1.5,0.2,2.2
						c2.1,3.6,8.4,5.2,13.3,5.2c0.2,0,0.3,0,0.5,0c0.1,0,0.3-0.1,0.4-0.2c0.1-0.1,0.1-0.3,0.1-0.4c-0.7-2.7-2.5-7.5-5.8-9.4
						C23.6,11.3,22.6,11,21.6,11z M41.8,11c-1,0-2,0.3-2.9,0.8c-3.5,2-5.2,7.2-5.8,9.4c0,0.1,0,0.3,0.1,0.4c0.1,0.1,0.2,0.2,0.4,0.2
						c0.1,0,0.3,0,0.4,0c5,0,11.3-1.6,13.4-5.2c0.4-0.7,0.5-1.4,0.2-2.2c-0.4-1.2-1.7-2.3-3-2.8C43.5,11.2,42.6,11,41.8,11z"/>
				</g>
			</g>
		</g>
	</g>
</g>
</svg>
