<?xml version="1.0" encoding="utf-8"?>
<!-- Generator: Adobe Illustrator 24.2.1, SVG Export Plug-In . SVG Version: 6.00 Build 0)  -->
<svg version="1.1" id="레이어_1" xmlns="http://www.w3.org/2000/svg" xmlns:xlink="http://www.w3.org/1999/xlink" x="0px"
	 y="0px" width="65px" height="62px" viewBox="0 0 65 62" style="enable-background:new 0 0 65 62;" xml:space="preserve">
<style type="text/css">
	.st0{fill:#FFFFFF;}
</style>
<g>
	<g>
		<path class="st0" d="M12,48.6v1.6h2.8v-5.7h2.4v16.2h-2.4v-8.3H12v4.1c0,2.3-1.9,4.1-4.2,4.1c-2.3,0-4.2-1.8-4.2-4.1v-8
			c0-2.3,1.9-4.1,4.2-4.1C10.1,44.5,12,46.4,12,48.6z M6,48.6v8c0,0.9,0.8,1.7,1.8,1.7c1,0,1.8-0.8,1.8-1.7v-8c0-1-0.8-1.7-1.8-1.7
			C6.8,46.9,6,47.7,6,48.6z"/>
		<path class="st0" d="M24.9,52.6v-1.2h-5v-6.9h2.3V46H30v-1.5h2.3v6.9h-5v1.2h6.2v2H18.7v-2H24.9z M32.5,55.7v2l-0.6,3.1h-2.5
			l0.7-3.1H19.5v-2H32.5z M30,49.4V48h-7.8v1.4H30z"/>
		<path class="st0" d="M37.7,45.2V44h2.4v1.2h3.1V47h-1.2c0.3,0.4,0.4,0.9,0.4,1.4v0.8c0,1.3-1,2.3-2.4,2.7v0.9h5.5v-8.3h2.3v3.9
			h1.7v2.3h-1.7v4.1H34.7v-2h3.1v-0.9c-1.4-0.4-2.4-1.4-2.4-2.7v-0.8c0-0.5,0.2-0.9,0.4-1.4h-1.2v-1.8H37.7z M45.1,55.7
			c1.7,0,3,0.8,3,2.5c0,1.7-1.4,2.5-3,2.5h-6.9c-1.7,0-3-0.8-3-2.5c0-1.7,1.4-2.5,3-2.5H45.1z M40.4,48.7c0-0.7-0.7-1.2-1.5-1.2
			c-0.8,0-1.5,0.5-1.5,1.2v0.2c0,0.7,0.7,1.2,1.5,1.2c0.8,0,1.5-0.5,1.5-1.2V48.7z M38,57.8c-0.4,0-0.5,0.2-0.5,0.5
			c0,0.2,0.1,0.5,0.5,0.5h7.2c0.4,0,0.5-0.2,0.5-0.5c0-0.2-0.1-0.5-0.5-0.5H38z"/>
		<path class="st0" d="M55.2,52.5l2.7,8.1h-2.4L54,56l-1.6,4.6h-2.6l4.9-13.7h-4.6v-2.3h7.1v2.3L55.2,52.5z M60.8,60.8h-2.2v-8h-1.9
			v-2.2h1.9v-6.1h2.2V60.8z M64.2,60.8H62V44.5h2.3V60.8z"/>
	</g>
</g>
<g>
	<g>
		<path class="st0" d="M45.2,16.1c-2.2-0.9-4.6-1.8-7.1-2.7L45.2,16.1z"/>
		<path class="st0" d="M15.7,15.1c-1,0-1.8,0.8-1.8,1.8c0,1,0.8,1.8,1.8,1.8c1,0,1.8-0.8,1.8-1.8C17.6,15.9,16.8,15.1,15.7,15.1z"/>
		<path class="st0" d="M64.5,24.5l0-1.4l-1.3-0.2c0,0-0.5-0.1-1.8-0.4V22v-2.4v-0.5l-0.4-0.2l-1.7-1v-1.9v-0.4l-0.3-0.3l-8.2-6.4
			h-1.1h-3.1l1-4c0.1,0,0.2,0,0.2,0c0.5,0,1-0.4,1-1c0-0.5-0.4-1-1-1c-0.5,0-1,0.4-1,1c0,0.2,0,0.3,0.1,0.4l-2.6,1.2l-2-2.5
			c0.2-0.2,0.4-0.4,0.4-0.8c0-0.6-0.4-1-1-1c-0.5,0-1,0.4-1,1c0,0.3,0.1,0.5,0.3,0.7l-2.2,2.9l-2.4-1.4c0.1-0.1,0.1-0.3,0.1-0.5
			c0-0.5-0.4-1-1-1c-0.5,0-1,0.4-1,1c0,0.5,0.4,1,1,1c0.1,0,0.2,0,0.2,0l1,4h-2.4v2.2h14.2v6.3c-0.9-0.4-1.9-0.8-2.9-1.2l-7.9-3
			c-2.8-1-5.6-2-8.6-3C13.5,5,2,6.6,2,6.6L0.5,6.8v1.5c0,3.8,1.3,7.6,3.2,11.3c1.5,3,3.3,5.8,5.1,8.2c-0.6,0.5-1.3,1.1-1.8,1.9
			c-1.3,2.1-0.8,4.4-0.8,4.4l0.3,1.3h1.3h52.4h0.6l0.5-0.3c0,0,1.3-0.9,2.3-3.2C64.6,29.5,64.5,24.5,64.5,24.5z M50.7,11.1l6.8,5.2
			v2v0.5l0.4,0.2l1.7,1v0.7L57.7,20l0,0.1l0,1.1l-2-0.9c-1.4-0.6-3.1-1.3-5-2V11.1z M60.5,30.3c-0.4,0.8-0.7,1.3-1,1.6h-50
			c0.1-0.1,0.1-0.3,0.2-0.4c0.7-1.1,2.1-1.8,2.1-1.8l1.8-0.9l-1.2-1.6c-2-2.6-4.2-5.8-5.8-9.1c-1.4-2.7-2.4-5.5-2.7-8.3
			C7.4,9.6,16.5,9.5,28,13.4c10.4,3.5,20.5,7.6,26.4,10.1c2.7,1.1,4.5,1.9,5.2,2.1c0.6,0.2,1.2,0.3,1.6,0.4
			C61.1,27.3,61,29.3,60.5,30.3z"/>
	</g>
</g>
</svg>
