<?xml version="1.0" encoding="utf-8"?>
<!-- Generator: Adobe Illustrator 24.2.1, SVG Export Plug-In . SVG Version: 6.00 Build 0)  -->
<svg version="1.1" id="레이어_1" xmlns="http://www.w3.org/2000/svg" xmlns:xlink="http://www.w3.org/1999/xlink" x="0px"
	 y="0px" width="24px" height="24px" viewBox="0 0 24 24" style="enable-background:new 0 0 24 24;" xml:space="preserve">
<style type="text/css">
	.st0{fill:none;stroke:#333333;stroke-linecap:round;stroke-linejoin:round;stroke-miterlimit:10;}
</style>
<g>
	<polygon class="st0" points="20.1,19.2 3.9,15.4 3.9,7.7 20.1,3.9 	"/>
	<path class="st0" d="M3.9,15.4H2c-0.6,0-1-0.4-1-1V8.7c0-0.6,0.4-1,1-1h1.9V15.4z"/>
	<path class="st0" d="M20.1,19.2l1.6,0.5c0.6,0.2,1.3-0.3,1.3-0.9V4.3c0-0.7-0.6-1.1-1.3-0.9l-1.6,0.5V19.2z"/>
	<path class="st0" d="M6.7,16.3l0.8,2.4c0.1,0.3,0.3,0.5,0.6,0.6l5.4,1.6c0.4,0.1,0.9-0.1,1.1-0.5l0.6-2.2"/>
</g>
</svg>
