<?xml version="1.0" encoding="utf-8"?>
<!-- Generator: Adobe Illustrator 24.2.1, SVG Export Plug-In . SVG Version: 6.00 Build 0)  -->
<svg version="1.1" id="레이어_1" xmlns="http://www.w3.org/2000/svg" xmlns:xlink="http://www.w3.org/1999/xlink" x="0px"
	 y="0px" width="24px" height="24px" viewBox="0 0 24 24" style="enable-background:new 0 0 24 24;" xml:space="preserve">
<style type="text/css">
	.st0{fill:none;stroke:#333333;stroke-linecap:round;stroke-linejoin:round;stroke-miterlimit:10;}
</style>
<g>
	<g>
		<path class="st0" d="M21.3,9.4v11.9c0,0.5-0.4,0.9-0.9,0.9H3c-0.5,0-0.9-0.4-0.9-0.9V9.4"/>
		<path class="st0" d="M1.2,7.5l1-5.5h18.9l1.1,5.5l0,0c0,1-0.9,1.8-2.1,1.8S18,8.6,18,7.5c0,1-0.9,1.8-2.1,1.8s-2.1-0.8-2.1-1.8
			c0,1-0.9,1.8-2.1,1.8S9.6,8.6,9.6,7.5c0,1-0.9,1.8-2.1,1.8S5.4,8.6,5.4,7.5c0,1-0.9,1.8-2.1,1.8S1.2,8.6,1.2,7.5L1.2,7.5z"/>
	</g>
	<path class="st0" d="M9.3,11.9c-0.8,0.2-1.4,0.8-1.6,1.5c-0.1,0.6,0,1.2,0.4,1.7h0l3.3,3.9c0.2,0.2,0.5,0.2,0.6,0l3.3-3.9h0
		c0.3-0.4,0.5-1,0.4-1.7c-0.2-0.8-0.8-1.4-1.6-1.5c-1.3-0.3-2.4,0.7-2.4,2C11.7,12.7,10.6,11.7,9.3,11.9z"/>
</g>
</svg>
