<?xml version="1.0" encoding="utf-8"?>
<!-- Generator: Adobe Illustrator 24.2.1, SVG Export Plug-In . SVG Version: 6.00 Build 0)  -->
<svg version="1.1" id="레이어_1" xmlns="http://www.w3.org/2000/svg" xmlns:xlink="http://www.w3.org/1999/xlink" x="0px"
	 y="0px" width="24px" height="24px" viewBox="0 0 24 24" style="enable-background:new 0 0 24 24;" xml:space="preserve">
<style type="text/css">
	.st0{fill:none;stroke:#333333;stroke-miterlimit:10;}
	.st1{fill:none;stroke:#333333;stroke-linecap:round;stroke-linejoin:round;stroke-miterlimit:10;}
</style>
<g>
	<path class="st0" d="M10.3,8.8C10.2,8.8,10.2,8.8,10.3,8.8c-0.4,0.4-0.2,0.9,0,1.4c0.6,1.6,2.1,3.1,3.5,3.9c0.5,0.2,1,0.3,1.3,0
		c0,0,0.1-0.1,0.1-0.1c0.3-0.3,0.8-0.5,1.2-0.3c0.3,0.1,0.5,0.2,0.9,0.4c0.5,0.2,0.9,0.8,0.8,1.3c-0.1,0.6-0.5,1.2-0.6,1.6
		c-0.2,0.4-0.8,0.5-1.5,0.3c-5.1-1.5-7.5-4.7-8.9-9.1C6.8,7.4,6.9,6.8,7.3,6.6C7.6,6.4,8.1,6,8.8,5.9c0.5,0,1,0.2,1.3,0.8
		c0.1,0.2,0.2,0.5,0.3,0.8C10.7,7.9,10.5,8.5,10.3,8.8z"/>
	<path class="st1" d="M6.6,21.1l-5.1,1.5l1.5-5.1c-0.9-1.6-1.5-3.4-1.5-5.4c0-5.8,4.7-10.5,10.5-10.5s10.5,4.7,10.5,10.5
		s-4.7,10.5-10.5,10.5C10,22.6,8.2,22.1,6.6,21.1z"/>
</g>
</svg>
