<?xml version="1.0" encoding="utf-8"?>
<!-- Generator: Adobe Illustrator 24.2.1, SVG Export Plug-In . SVG Version: 6.00 Build 0)  -->
<svg version="1.1" id="레이어_1" xmlns="http://www.w3.org/2000/svg" xmlns:xlink="http://www.w3.org/1999/xlink" x="0px"
	 y="0px" width="16px" height="16px" viewBox="0 0 16 16" style="enable-background:new 0 0 16 16;" xml:space="preserve">
<style type="text/css">
	.st0{fill:none;stroke:#FFFFFF;stroke-linecap:round;stroke-linejoin:round;stroke-miterlimit:10;}
</style>
<g>
	<path class="st0" d="M3.2,5.3L2,3.4L3.4,2l1.9,1.2l0,0c0.4-0.2,0.8-0.4,1.2-0.5L7,0.5h2l0.5,2.2c0.4,0.1,0.8,0.3,1.2,0.5l0,0
		L12.6,2L14,3.4l-1.2,1.9l0,0c0.2,0.4,0.4,0.8,0.5,1.2L15.5,7v2l-2.2,0.5c-0.1,0.4-0.3,0.8-0.5,1.2l0,0l1.2,1.9L12.6,14l-1.9-1.2
		l0,0c-0.4,0.2-0.8,0.4-1.2,0.5L9,15.5H7l-0.5-2.2c-0.4-0.1-0.8-0.3-1.2-0.5l0,0L3.4,14L2,12.6l1.2-1.9l0,0C3,10.3,2.8,9.9,2.7,9.5
		L0.5,9V7l2.2-0.5C2.8,6.1,3,5.7,3.2,5.3L3.2,5.3z"/>
	<circle class="st0" cx="8" cy="8" r="3.3"/>
</g>
</svg>
