<?xml version="1.0" encoding="utf-8"?>
<!-- Generator: Adobe Illustrator 22.1.0, SVG Export Plug-In . SVG Version: 6.00 Build 0)  -->
<svg version="1.1" xmlns="http://www.w3.org/2000/svg" xmlns:xlink="http://www.w3.org/1999/xlink" x="0px" y="0px" width="16px"
	 height="16px" viewBox="0 0 16 16" style="enable-background:new 0 0 16 16;" xml:space="preserve">
<style type="text/css">
	.st0{fill:#414141;}
	.st1{fill:#FFFFFF;}
</style>
<g id="레이어_1">
	<g>
		<path class="st0" d="M14.7,7.9c0,1.3-0.5,2.6-1.5,3.5c-0.2,0.2-0.2,0.6,0,0.8c0.2,0.2,0.6,0.2,0.8,0c1.2-1.2,1.8-2.7,1.8-4.3
			c0-1.6-0.6-3.2-1.8-4.3c-0.2-0.2-0.6-0.2-0.8,0c-0.1,0.1-0.2,0.3-0.2,0.4c0,0.2,0.1,0.3,0.2,0.4C14.2,5.3,14.7,6.6,14.7,7.9z"/>
		<path class="st0" d="M12,7.9c0,0.6-0.2,1.1-0.6,1.6c-0.1,0.1-0.2,0.3-0.2,0.4c0,0.2,0.1,0.3,0.2,0.4c0.2,0.2,0.6,0.2,0.8,0
			c0.6-0.6,1-1.5,1-2.4c0-0.9-0.4-1.8-1-2.4c-0.2-0.2-0.6-0.2-0.8,0c-0.2,0.2-0.2,0.6,0,0.8C11.8,6.7,12,7.3,12,7.9z"/>
		<path class="st0" d="M9.1,1L4,4.5c0,0,0,0,0,0H1.1c-0.4,0-0.7,0.3-0.7,0.7v5.4c0,0.4,0.3,0.7,0.7,0.7h2.8l5.1,3.6
			c0.3,0.2,0.5,0.1,0.5-0.3V1.3C9.6,0.9,9.4,0.8,9.1,1z"/>
	</g>
</g>
<g id="레이어_2">
	<g>
		<path class="st1" d="M14.3,7.9c0,1.3-0.5,2.6-1.5,3.5c-0.2,0.2-0.2,0.6,0,0.8c0.2,0.2,0.6,0.2,0.8,0c1.2-1.2,1.8-2.7,1.8-4.3
			c0-1.6-0.6-3.2-1.8-4.3c-0.2-0.2-0.6-0.2-0.8,0c-0.1,0.1-0.2,0.3-0.2,0.4c0,0.2,0.1,0.3,0.2,0.4C13.8,5.3,14.3,6.6,14.3,7.9z"/>
		<path class="st1" d="M11.6,7.9c0,0.6-0.2,1.1-0.6,1.6c-0.1,0.1-0.2,0.3-0.2,0.4c0,0.2,0.1,0.3,0.2,0.4c0.2,0.2,0.6,0.2,0.8,0
			c0.6-0.6,1-1.5,1-2.4c0-0.9-0.4-1.8-1-2.4c-0.2-0.2-0.6-0.2-0.8,0c-0.2,0.2-0.2,0.6,0,0.8C11.4,6.7,11.6,7.3,11.6,7.9z"/>
		<path class="st1" d="M8.6,1L3.5,4.5c0,0,0,0,0,0H0.7C0.3,4.5,0,4.8,0,5.2v5.4c0,0.4,0.3,0.7,0.7,0.7h2.8l5.1,3.6
			c0.3,0.2,0.5,0.1,0.5-0.3V1.3C9.2,0.9,8.9,0.8,8.6,1z"/>
	</g>
</g>
</svg>
