<?xml version="1.0" encoding="utf-8"?>
<!-- Generator: Adobe Illustrator 24.2.1, SVG Export Plug-In . SVG Version: 6.00 Build 0)  -->
<svg version="1.1" id="레이어_1" xmlns="http://www.w3.org/2000/svg" xmlns:xlink="http://www.w3.org/1999/xlink" x="0px"
	 y="0px" width="24px" height="24px" viewBox="0 0 24 24" style="enable-background:new 0 0 24 24;" xml:space="preserve">
<style type="text/css">
	.st0{fill:none;stroke:#777777;stroke-linecap:round;stroke-linejoin:round;stroke-miterlimit:10;}
	.st1{fill:none;stroke:#777777;stroke-miterlimit:10;}
</style>
<g id="map_2_">
	<polyline class="st0" points="4.23,9 3.32,9 1.49,21.79 6.97,19.05 12,21.28 17.03,19.05 22.51,21.79 20.68,9 19.77,9 	"/>
	<g id="pin">
		<path class="st1" d="M18.24,7.03c0,4.5-6.24,10.78-6.24,10.78S5.75,11.57,5.76,7.03c0-3.45,2.79-6.24,6.24-6.24
			S18.24,3.59,18.24,7.03z"/>
		<path class="st1" d="M14.84,6.82c0,1.57-1.27,2.84-2.84,2.84S9.16,8.39,9.16,6.82S10.43,3.98,12,3.98S14.84,5.26,14.84,6.82z"/>
	</g>
</g>
</svg>
