<?xml version="1.0" encoding="utf-8"?>
<!-- Generator: Adobe Illustrator 24.2.1, SVG Export Plug-In . SVG Version: 6.00 Build 0)  -->
<svg version="1.1" xmlns="http://www.w3.org/2000/svg" xmlns:xlink="http://www.w3.org/1999/xlink" x="0px" y="0px" width="22px"
	 height="17px" viewBox="0 0 22 17" style="enable-background:new 0 0 22 17;" xml:space="preserve">
<style type="text/css">
	.st0{display:none;}
	.st1{display:inline;fill:none;stroke:#2C6CAE;stroke-width:0.75;stroke-linejoin:round;stroke-miterlimit:10;}
	.st2{display:inline;fill:#2B72BA;}
	.st3{display:inline;}
	.st4{fill:none;stroke:#777778;stroke-linecap:round;stroke-linejoin:round;stroke-miterlimit:10;}
	.st5{fill:#2B72BA;}
	.st6{fill:none;stroke:#2B72BA;stroke-linecap:round;stroke-linejoin:round;stroke-miterlimit:10;}
	.st7{fill:none;stroke:#FFFFFF;stroke-width:0.5;stroke-linecap:round;stroke-linejoin:round;stroke-miterlimit:10;}
</style>
<g id="레이어_1" class="st0">
	<path class="st1" d="M9.75,1.25L3.83,6.07c-0.1,0.08-0.16,0.21-0.16,0.34v9.06c0,0.24,0.2,0.44,0.44,0.44h3.97
		c0.24,0,0.44-0.2,0.44-0.44V9.73c0-0.24,0.2-0.44,0.44-0.44h3.53c0.24,0,0.44,0.2,0.44,0.44v5.74c0,0.24,0.2,0.44,0.44,0.44h3.97
		c0.24,0,0.44-0.2,0.44-0.44V6.41c0-0.13-0.06-0.26-0.16-0.34L11.7,1.25C11.13,0.79,10.32,0.79,9.75,1.25z"/>
</g>
<g id="레이어_2" class="st0">
	<path class="st2" d="M9.75,1.31L3.83,6.12c-0.1,0.08-0.16,0.21-0.16,0.34v9.06c0,0.24,0.2,0.44,0.44,0.44h3.97
		c0.24,0,0.44-0.2,0.44-0.44V9.79c0-0.24,0.2-0.44,0.44-0.44h3.53c0.24,0,0.44,0.2,0.44,0.44v5.74c0,0.24,0.2,0.44,0.44,0.44h3.97
		c0.24,0,0.44-0.2,0.44-0.44V6.47c0-0.13-0.06-0.26-0.16-0.34L11.7,1.31C11.13,0.85,10.32,0.85,9.75,1.31z"/>
</g>
<g id="레이어_3" class="st0">
	<g class="st3">
		<polyline class="st4" points="6.33,14.69 3.9,8.21 10.88,5.25 17.87,8.21 15.44,14.69 		"/>
		<line class="st4" x1="12.58" y1="7.94" x2="14.27" y2="8.66"/>
		<line class="st4" x1="10.88" y1="14.72" x2="10.88" y2="5.25"/>
		<path class="st4" d="M10.88,0.91"/>
		<line class="st4" x1="9.19" y1="7.94" x2="7.5" y2="8.66"/>
		<path class="st4" d="M6.23,7.22V3.67c0-0.22,0.19-0.39,0.42-0.39h8.47c0.23,0,0.42,0.18,0.42,0.39v3.55"/>
		<path class="st4" d="M7.92,3.28V1.3c0-0.22,0.19-0.39,0.42-0.39h5.08c0.23,0,0.42,0.18,0.42,0.39v1.97"/>
		<path class="st4" d="M0.72,15.91c0.92,0,1.84-0.33,2.54-0.99c1.4,1.32,3.68,1.32,5.08,0c1.4,1.32,3.68,1.32,5.08,0
			c1.4,1.32,3.68,1.32,5.08,0c0.7,0.66,1.62,0.99,2.54,0.99"/>
	</g>
</g>
<g id="레이어_4">
	<g>
		<polyline class="st5" points="6.33,14.69 3.9,8.21 10.88,5.25 17.87,8.21 15.44,14.69 		"/>
		<line class="st6" x1="12.58" y1="7.94" x2="14.27" y2="8.66"/>
		<line class="st6" x1="10.88" y1="14.72" x2="10.88" y2="5.25"/>
		<path class="st6" d="M10.88,0.91"/>
		<line class="st6" x1="9.19" y1="7.94" x2="7.5" y2="8.66"/>
		<path class="st5" d="M6.23,7.22V3.67c0-0.22,0.19-0.39,0.42-0.39h8.47c0.23,0,0.42,0.18,0.42,0.39v3.55"/>
		<path class="st5" d="M7.92,3.28V1.3c0-0.22,0.19-0.39,0.42-0.39h5.08c0.23,0,0.42,0.18,0.42,0.39v1.97"/>
		<path class="st6" d="M0.72,15.91c0.92,0,1.84-0.33,2.54-0.99c1.4,1.32,3.68,1.32,5.08,0c1.4,1.32,3.68,1.32,5.08,0
			c1.4,1.32,3.68,1.32,5.08,0c0.7,0.66,1.62,0.99,2.54,0.99"/>
	</g>
	<polyline class="st7" points="6.33,14.56 3.9,8.09 10.88,5.12 17.87,8.09 15.44,14.56 	"/>
	<line class="st7" x1="12.58" y1="7.82" x2="14.27" y2="8.53"/>
	<line class="st7" x1="10.88" y1="14.6" x2="10.88" y2="5.12"/>
	<path class="st7" d="M10.88,0.78"/>
	<line class="st7" x1="9.19" y1="7.82" x2="7.5" y2="8.53"/>
	<path class="st7" d="M6.23,7.1V3.55c0-0.22,0.19-0.39,0.42-0.39h8.47c0.23,0,0.42,0.18,0.42,0.39V7.1"/>
	<path class="st7" d="M7.92,3.15V1.18c0-0.22,0.19-0.39,0.42-0.39h5.08c0.23,0,0.42,0.18,0.42,0.39v1.97"/>
</g>
</svg>
