<?xml version="1.0" encoding="utf-8"?>
<!-- Generator: Adobe Illustrator 24.2.1, SVG Export Plug-In . SVG Version: 6.00 Build 0)  -->
<svg version="1.1" xmlns="http://www.w3.org/2000/svg" xmlns:xlink="http://www.w3.org/1999/xlink" x="0px" y="0px" width="22px"
	 height="17px" viewBox="0 0 22 17" style="enable-background:new 0 0 22 17;" xml:space="preserve">
<style type="text/css">
	.st0{fill:none;stroke:#767777;stroke-width:0.75;stroke-linejoin:round;stroke-miterlimit:10;}
	.st1{display:none;}
	.st2{display:inline;fill:#2B72BA;}
</style>
<g id="레이어_1">
	<path class="st0" d="M9.75,1.25L3.83,6.07c-0.1,0.08-0.16,0.21-0.16,0.34v9.06c0,0.24,0.2,0.44,0.44,0.44h3.97
		c0.24,0,0.44-0.2,0.44-0.44V9.73c0-0.24,0.2-0.44,0.44-0.44h3.53c0.24,0,0.44,0.2,0.44,0.44v5.74c0,0.24,0.2,0.44,0.44,0.44h3.97
		c0.24,0,0.44-0.2,0.44-0.44V6.41c0-0.13-0.06-0.26-0.16-0.34L11.7,1.25C11.13,0.79,10.32,0.79,9.75,1.25z"/>
</g>
<g id="레이어_2" class="st1">
	<path class="st2" d="M9.75,1.31L3.83,6.12c-0.1,0.08-0.16,0.21-0.16,0.34v9.06c0,0.24,0.2,0.44,0.44,0.44h3.97
		c0.24,0,0.44-0.2,0.44-0.44V9.79c0-0.24,0.2-0.44,0.44-0.44h3.53c0.24,0,0.44,0.2,0.44,0.44v5.74c0,0.24,0.2,0.44,0.44,0.44h3.97
		c0.24,0,0.44-0.2,0.44-0.44V6.47c0-0.13-0.06-0.26-0.16-0.34L11.7,1.31C11.13,0.85,10.32,0.85,9.75,1.31z"/>
</g>
</svg>
