<?xml version="1.0" encoding="utf-8"?>
<!-- Generator: Adobe Illustrator 23.0.6, SVG Export Plug-In . SVG Version: 6.00 Build 0)  -->
<!DOCTYPE svg PUBLIC "-//W3C//DTD SVG 1.1//EN" "http://www.w3.org/Graphics/SVG/1.1/DTD/svg11.dtd" [
	<!ENTITY ns_extend "http://ns.adobe.com/Extensibility/1.0/">
	<!ENTITY ns_ai "http://ns.adobe.com/AdobeIllustrator/10.0/">
	<!ENTITY ns_graphs "http://ns.adobe.com/Graphs/1.0/">
	<!ENTITY ns_vars "http://ns.adobe.com/Variables/1.0/">
	<!ENTITY ns_imrep "http://ns.adobe.com/ImageReplacement/1.0/">
	<!ENTITY ns_sfw "http://ns.adobe.com/SaveForWeb/1.0/">
	<!ENTITY ns_custom "http://ns.adobe.com/GenericCustomNamespace/1.0/">
	<!ENTITY ns_adobe_xpath "http://ns.adobe.com/XPath/1.0/">
]>
<svg version="1.1" xmlns:x="&ns_extend;" xmlns:i="&ns_ai;" xmlns:graph="&ns_graphs;"
	 xmlns="http://www.w3.org/2000/svg" xmlns:xlink="http://www.w3.org/1999/xlink" x="0px" y="0px" width="48px" height="48px"
	 viewBox="0 0 48 48" style="enable-background:new 0 0 48 48;" xml:space="preserve">
<style type="text/css">
	.st0{fill:#C4C4C4;}
	.st1{fill:#777777;}
	.st2{display:none;}
	.st3{display:inline;}
	.st4{clip-path:url(#SVGID_2_);}
	.st5{fill:#F9E482;}
	.st6{fill:#F4D451;}
	.st7{clip-path:url(#SVGID_4_);}
	.st8{clip-path:url(#SVGID_6_);fill:#F9E482;}
	.st9{clip-path:url(#SVGID_6_);}
</style>
<metadata>
	<sfw  xmlns="&ns_sfw;">
		<slices></slices>
		<sliceSourceBounds  bottomLeftOrigin="true" height="96.3" width="96.2" x="-19.4" y="-77.4"></sliceSourceBounds>
	</sfw>
</metadata>
<g id="Layer_2">
	<circle class="st0" cx="25" cy="25" r="23"/>
</g>
<g id="Layer_4">
	<circle class="st1" cx="24" cy="24" r="23"/>
</g>
<g id="Layer_3" class="st2">
</g>
<g id="Layer_1">
</g>
<g id="Layer_6" class="st2">
	<g class="st3">
		<defs>
			<circle id="SVGID_1_" cx="24" cy="24" r="23"/>
		</defs>
		<clipPath id="SVGID_2_">
			<use xlink:href="#SVGID_1_"  style="overflow:visible;"/>
		</clipPath>
		<g class="st4">
			<g>
				<path class="st5" d="M27.1,1c-0.3,0-0.5,0-0.8,0c-1.1,0.1-2,0.7-2.6,1.8c-0.3,0.3-0.5,0.7-0.7,1.1h0c-0.2,0.4-0.5,0.8-0.7,1.3
					c0,0,0,0.1,0,0.2C19.4,10.4,18,16.5,18,23.5c0,4.4,0.5,8.5,1.6,12.2c0.8,2.7,2,5.2,3.5,7.6c0.7,1.2,1.5,2.3,2.2,3.2
					c0.3,0.4,0.9,0.6,1.8,0.5c5.3-0.3,10-2.5,13.8-6.8C45,35.8,47,30.4,47,24c0-6.3-2-11.8-6.1-16.3C37.1,3.6,32.5,1.4,27.3,1
					C27.2,1,27.2,1,27.1,1z"/>
			</g>
			<g>
				<path class="st6" d="M43.3,13.1c-0.2-0.1-0.3-0.2-0.4-0.4c-0.5-0.4-1.1-0.6-1.8-0.6c-0.1,0-0.1,0-0.1,0
					c-0.3,0.2-0.3,0.5-0.3,0.8c0,0.1,0,0.2,0,0.4c0,0,0,0,0,0.1c0,0,0,0,0,0c0.1,0.3,0.2,0.5,0.2,0.9c0,0.2,0.1,0.4,0.2,0.5
					c0,0.3,0.1,0.7,0.3,1c0.2,0.4,0.3,0.7,0.6,1c0,0,0,0,0.1,0c0.5,0.2,0.9,0.2,1.4,0.1c0,0,0-0.1,0-0.2c0-0.2,0-0.4,0-0.6
					c0,0,0-0.1,0-0.3c0.2,0,0.5,0,0.7-0.1c0,0,0.1,0,0.1-0.1C44.7,14.7,44.3,13.8,43.3,13.1z"/>
				<path class="st6" d="M27.7,10.5C27.7,10.5,27.7,10.5,27.7,10.5c-0.1,0.6,0,1.1,0.1,1.6c0.1,0.4,0.2,0.8,0.4,1.1
					c0.2,0.1,0.3,0.1,0.5,0c0,0,0-0.1,0.1-0.1c0-0.1,0-0.1,0-0.2c0.1-0.1,0.2-0.3,0.4-0.3c0,0,0.1,0,0.1,0c0.6,1.1,1.5,1.9,2.7,2.2
					c0.2,0,0.3,0.1,0.4,0.1c0.1,0,0.2,0.1,0.3,0.1c0,0,0,0,0,0c-0.1,0.1-0.2,0.3-0.3,0.5c0,0,0,0,0,0.1c0,0.3,0,0.6,0.1,0.9
					c0,0,0,0,0,0.1c0,0,0.1,0,0.1,0.1c-0.2,0.2-0.3,0.5-0.3,0.7c0,0,0,0.1,0,0.2c0,0.3,0,0.7-0.1,1c0,0,0,0.1,0,0.1
					c0,0.4-0.1,0.7-0.1,1.1c0.2,0.4,0.5,0.7,0.9,0.8c0.5,0.2,1.1,0.3,1.6,0.3l0,0c0,0,0,0.1,0,0.1c0,0,0,0.1,0,0.2
					c0.1,0.4,0.1,0.8,0.1,1.3c0,0,0,0,0,0c0,0,0.1,0.1,0.1,0.1c0,0,0,0.1,0,0.1c0,0.3,0,0.5,0,0.8c0.3,0.2,0.5,0.3,0.7,0.3
					c0,0,0,0.1,0,0.1c0,0,0,0.1,0,0.1c0.3,0.5,0.6,0.6,1,0.5c0,0,0-0.1,0.1-0.1c0,0,0-0.1,0.1-0.1c0,0,0-0.1,0-0.1
					c0-0.3,0-0.5-0.1-0.8c0,0,0,0,0-0.1c-0.3-0.4-0.5-0.8-0.4-1.4c0.3-0.4,0.7-0.7,1-1c0,0,0-0.1,0-0.1c0,0,0,0,0-0.1c0,0,0,0,0-0.1
					c0-0.2,0.1-0.5,0-0.7c0,0,0,0,0,0c0.1-0.2,0.2-0.2,0.4-0.1c0.2,0.5,0.6,0.8,1.1,0.6c0,0,0-0.1,0-0.2c0,0,0,0,0.1-0.1
					c0-0.1,0-0.3,0-0.4c0-0.3,0-0.6,0-0.9c0.1-0.1,0.1-0.1,0.2-0.1c0,0,0-0.1,0,0c0.2-0.4,0.3-0.7,0.5-1.1c0.2-0.4,0.2-0.7,0-1.1
					c0-0.2-0.1-0.3-0.3-0.4c-0.3-0.3-0.7-0.5-1-0.5c0-0.1,0-0.2,0-0.2c0-0.7-0.1-1.3-0.3-1.9c0,0-0.1-0.1-0.1-0.1c0,0,0-0.1-0.1-0.1
					c0-0.1,0-0.1,0-0.2c0-0.2-0.1-0.4-0.2-0.5c0,0-0.1,0-0.1,0c0,0-0.1,0-0.2,0v0c0,0,0,0-0.1,0l0,0c0,0-0.1,0-0.1,0.1
					c0,0,0,0.1-0.1,0.1c0,0.1,0,0.2,0,0.2c0,0.1-0.1,0.2-0.1,0.3c-0.4,0-0.6-0.2-0.8-0.5c0-0.1-0.1-0.1-0.2-0.1
					c-0.3,0-0.5,0-0.8,0.1c-0.2,0-0.4,0.1-0.6,0.2c0-0.1,0.1-0.3,0.1-0.5c0-0.1,0.1-0.2,0.1-0.3v0c0,0,0,0,0-0.1
					c0.1,0,0.2-0.1,0.2-0.2c0.1-0.2,0.1-0.4,0.1-0.6c0-1.1-0.4-1.7-1.4-1.8c0,0-0.1-0.1-0.1-0.1c-0.1,0-0.1-0.1-0.1-0.2
					c0,0,0,0,0-0.1c0,0-0.1,0-0.1,0c-0.1-0.2-0.2-0.3-0.3-0.4c0,0,0,0,0-0.1c0-0.1,0-0.2,0-0.2c0-0.4-0.2-0.7-0.4-0.9
					c-0.4-0.5-0.9-0.6-1.5-0.3c0,0.1,0,0.2-0.1,0.3c0,0,0,0.1-0.1,0.2v0c0,0,0,0,0,0c-0.6-0.8-1.3-1-2.3-0.9v0c0,0,0,0-0.1,0v0
					c0,0,0,0-0.1,0.1c0,0-0.1,0.1-0.2,0.1v0c0,0,0,0.1,0,0.2c0,0.1,0,0.3,0,0.4c0,0.3,0,0.6-0.1,1c0,0.2,0,0.4,0,0.6
					c0,0-0.1,0.1-0.1,0.1C28,10.2,27.9,10.3,27.7,10.5z"/>
				<path class="st6" d="M30.3,4.2L30.3,4.2C30.3,4.2,30.2,4.2,30.3,4.2c-0.1,0-0.1,0-0.2,0c0,0,0,0,0,0.1c-0.3,0.2-0.4,0.5-0.4,0.8
					c0,0.1,0,0.2,0,0.4c0,0,0.1,0,0.1,0.1c0.1,0.1,0.2,0.2,0.3,0.2c0,0,0,0,0,0.1c0,0.1,0,0.2,0.1,0.2c0,0,0.1,0.1,0.1,0.2
					c0,0,0,0,0,0.1c0,0,0.1,0,0.1,0.1c0,0,0,0,0.1,0c0,0,0,0,0.1,0c0,0,0.1-0.1,0.2-0.1c0,0,0,0,0,0c0,0,0,0,0,0
					c0,0-0.1-0.1-0.2-0.2l0,0c0,0,0-0.1,0,0c0-0.1,0-0.2-0.1-0.3c0-0.1,0-0.2,0-0.2c0,0,0-0.1,0-0.1c0,0,0.1,0,0.1,0
					c0.2,0,0.5,0,0.7,0c0,0,0,0,0.1,0.1c0.1,0.1,0.2,0.1,0.3,0.2c0.1,0,0.1,0,0.1,0c0,0,0,0,0,0.1c0,0,0,0,0,0.1c0,0,0,0.1,0,0.2
					c0,0,0,0,0,0c-0.2,0-0.3,0-0.4,0.2c0,0,0,0,0,0c0,0,0,0,0,0.1c0,0,0,0,0,0c0,0,0,0,0,0.1c0,0,0,0,0,0.1c0.5,0.3,0.8,0.2,1.1-0.3
					c0.1-0.1,0.1-0.2,0.1-0.3C32.2,4.9,31.5,4.2,30.3,4.2z"/>
				<path class="st6" d="M40,11.7C40,11.6,40,11.6,40,11.7c0-0.1,0-0.1,0-0.2c0,0,0,0,0-0.1c0.1,0,0.1-0.1,0.1-0.1c0,0,0-0.1,0-0.1
					c0,0,0-0.1-0.1,0c0,0-0.1,0-0.2,0c0,0-0.1,0-0.2,0c0,0,0,0,0,0c0,0.1,0,0.1,0,0.2c0,0,0,0.1,0,0.1c0,0,0,0,0,0.1
					C39.7,11.7,39.8,11.7,40,11.7C40,11.7,40,11.7,40,11.7z"/>
				<path class="st6" d="M41,19.4c0,0,0,0.1,0,0.1c0,0.1,0,0.2-0.1,0.4c0,0,0,0.1,0,0.1c-0.1,0.1-0.2,0.3-0.3,0.4
					c-0.1,0.1-0.2,0.2-0.3,0.3c-0.1,0.2-0.1,0.5,0,0.6c0,0.2,0.1,0.3,0.1,0.4c0,0,0,0,0,0.1c0,0,0,0,0,0.1c-0.1,0.2-0.1,0.5-0.2,0.8
					c0,0.4,0,0.8,0.2,1.1c0,0,0,0.1-0.1,0.1c0,0.1,0,0.2-0.1,0.3c0,0,0,0,0,0c0,0.2,0,0.4,0,0.7c0,0.1,0,0.2,0,0.4c0,0,0,0,0,0
					c0,0,0,0.1,0.1,0.1c0,0,0,0,0,0c0.4,0.2,0.8,0.2,1.2,0.2c0,0,0,0,0,0c0.1,0,0.2,0,0.2,0.1v0c0,0,0,0,0,0.1c0,0,0,0,0,0.1
					c0,0,0,0,0,0c0,0,0,0,0,0c0,0,0,0,0,0.1c-0.2,0.5-0.3,1.1-0.3,1.7c0,0.1,0,0.2,0,0.3c0.4,0.7,0.8,0.8,1.4,0.3c0,0,0-0.1,0-0.1
					c0-0.1,0-0.2,0-0.3c0,0,0,0,0-0.1c0,0,0,0,0-0.1c0,0,0-0.1,0.1-0.2c0,0,0.1,0,0.1,0c0-0.2,0.2-0.4,0.3-0.4
					c0.2,0,0.3-0.1,0.4-0.2c0,0,0-0.1,0-0.1c0-0.1,0.1-0.2,0.1-0.2v0c0,0,0-0.1,0-0.1c0-0.1,0.1-0.2,0.2-0.3c0,0,0,0,0-0.1
					c0-0.3,0-0.5,0-0.8c0-0.3,0-0.6,0.1-0.9c0-0.1,0.1-0.2,0.2-0.2c0,0,0-0.1,0-0.1c0,0,0-0.1,0-0.1v0c0,0,0,0,0,0
					c0,0,0.1-0.1,0.2-0.1c0,0,0,0,0.1-0.1c0.2-0.2,0.3-0.4,0.3-0.7c0-0.3,0-0.7,0-1h0c-0.1-0.1-0.1-0.2-0.1-0.2c0,0,0,0,0-0.1
					C44.4,21.3,44,21,43.4,21c-0.3-0.4-0.5-0.7-0.7-1.2c-0.3-0.7-0.8-1-1.4-1c-0.1,0-0.3,0.1-0.3,0.4C41,19.2,41,19.3,41,19.4z"/>
				<path class="st6" d="M39.2,28.2c0-0.2,0-0.4,0.1-0.6c0.1,0,0.1-0.1,0.1-0.2c0,0,0-0.1,0-0.1c0-0.1,0.1-0.2,0.1-0.3v0
					c0-0.1,0-0.1,0-0.2c-0.3-0.4-0.6-0.7-0.9-0.9c-0.2-0.2-0.4-0.2-0.6-0.3c-0.3-0.1-0.6-0.2-1-0.4l0,0c0,0,0,0-0.1,0
					c0,0-0.1,0-0.1,0c-0.1,0.4-0.1,0.8-0.1,1.3c0,0.5,0,0.9,0.1,1.4c0,0,0,0,0.1,0c0,0,0,0,0,0.1c0,0,0,0,0,0.1c0,0,0,0,0,0.1
					c0.2,0.3,0.6,0.5,1,0.3c0,0.1,0.1,0.1,0.2,0.1c0.3,0.2,0.7,0.2,1,0C39.2,28.6,39.2,28.4,39.2,28.2z"/>
				<path class="st6" d="M40.8,28.7c-0.2,0-0.3,0-0.4-0.1v0c0,0-0.1,0-0.2,0c0,0.1-0.1,0.2-0.1,0.3C40,29,40,29.1,40,29.2v0
					c0,0,0,0.1,0,0.2c0,0,0,0,0,0.1c0,0,0.1,0,0.1,0c0,0,0,0,0,0h0c0,0,0,0,0,0.1c0.1,0,0.1,0,0.2,0c0,0,0,0,0,0
					c0.1-0.1,0.2-0.1,0.2-0.2c0.1-0.1,0.2-0.3,0.3-0.4C41,29,41,28.9,40.8,28.7C40.9,28.8,40.9,28.8,40.8,28.7
					C40.9,28.7,40.9,28.7,40.8,28.7z"/>
				<path class="st6" d="M37.6,30L37.6,30c0-0.3,0-0.5-0.1-0.6c0,0,0,0,0-0.1c-0.2,0-0.4,0-0.5,0.2c0,0,0,0,0,0.1c0,0,0,0.1,0,0.1v0
					c0,0.1,0.1,0.2,0.1,0.3C37.2,30.3,37.5,30.3,37.6,30z"/>
				<path class="st6" d="M23.6,37.7c0,0,0,0,0,0.1c0,0-0.1,0-0.1,0.1c0,0,0,0-0.1,0.1c0.1,0,0.1,0,0.2,0c0.5-0.2,0.9,0,1.3,0.4
					c0,0,0,0,0,0.1c0,0,0,0.1,0,0.2c0,0.1,0,0.2,0,0.2c0,0,0,0-0.1,0.1c0,0,0,0.1-0.1,0.2c0,0,0,0,0,0c0,0,0,0,0,0.1
					c0,0,0.1,0.1,0.2,0l0,0c0.1-0.1,0.2-0.3,0.2-0.5c0-0.7-0.4-1.1-1.1-1.3C23.9,37.7,23.8,37.7,23.6,37.7z"/>
				<path class="st6" d="M23.5,38.4C23.5,38.4,23.5,38.4,23.5,38.4c0,0.1-0.1,0.1-0.2,0.1c0,0,0-0.1,0-0.1c-0.1,0-0.1,0-0.1,0.1
					c0,0,0,0,0,0v0c0,0.1,0.1,0.1,0.2,0.2c0.3,0.5,0.8,0.6,1.2,0.4v0c0,0,0.1,0,0.2,0c0,0,0,0,0,0c0,0,0-0.1,0-0.1c0,0,0,0,0-0.1
					c-0.2-0.3-0.4-0.5-0.7-0.6C23.7,38.2,23.6,38.2,23.5,38.4z"/>
				<path class="st6" d="M40.7,35.4C40.7,35.4,40.7,35.4,40.7,35.4C40.7,35.4,40.7,35.4,40.7,35.4c-0.1,0.1-0.1,0.1-0.1,0.2
					c0,0,0,0,0,0.1v0c0,0,0,0,0.1,0c0.1,0,0.2,0,0.3-0.1c0,0,0-0.1,0,0c0.1-0.1,0.2-0.3,0.3-0.3c0,0,0.1,0,0.2,0c0,0,0,0,0,0
					c0,0,0,0.1,0,0.2c0,0,0,0-0.1,0c0,0,0,0.1-0.1,0.1v0c0,0,0,0,0,0.1c0,0,0,0,0,0.1c-0.1,0.2-0.3,0.3-0.5,0.4c0,0,0,0,0,0.1
					c0,0,0,0,0,0l0,0c0.2,0.2,0.3,0.2,0.5,0.1c0.3-0.2,0.5-0.5,0.7-0.8c0.2-0.4,0.2-0.7,0-0.9c0-0.2-0.2-0.4-0.5-0.5
					c0,0,0,0-0.1,0.1C41,34.8,40.8,35,40.7,35.4z M41.4,34.9L41.4,34.9C41.3,34.9,41.3,34.9,41.4,34.9
					C41.3,34.9,41.3,34.9,41.4,34.9z"/>
				<path class="st6" d="M35,41.3c-0.1,0-0.1,0-0.2,0c-0.2,0-0.4,0-0.5,0c0,0,0.1-0.1,0.1-0.2c0.2-0.3,0.2-0.7,0.2-1.1
					c0,0-0.1,0-0.1-0.1c-0.3-0.2-0.5-0.3-0.8-0.5c0.1-0.1,0.2-0.3,0.2-0.5c0,0,0-0.1-0.1-0.1c-0.1-0.2-0.2-0.4-0.4-0.4
					c-1-0.3-1.8-0.1-2.5,0.5c0,0.1,0,0.2,0,0.2c0,0.2,0,0.4,0.1,0.5c0.3,0.2,0.6,0.3,0.8,0.4c-0.8,0.5-1.6,1-2.3,1.6
					c0,0.1,0,0.2,0,0.2c0,0,0,0.1,0,0.2c0.1,0.1,0.2,0.2,0.2,0.3c0,0.1,0.1,0.1,0.2,0.2c0.9,0.5,1.8,0.5,2.7,0.2c0,0,0,0.1,0,0.2
					c0.1,0,0.2,0,0.3,0c0.4-0.2,0.7-0.4,1.2-0.5c-0.5,0.5-1,0.9-1.6,1.2c0,0,0,0.1,0,0.2c0,0.1,0,0.3,0,0.4c0.6,0.4,1.2,0.4,1.9,0
					c1.3-0.8,1.6-1.8,0.9-3.1C35.1,41.3,35,41.3,35,41.3z"/>
				<path class="st6" d="M44.4,17C44.4,16.9,44.4,17,44.4,17c-0.2,0.2-0.2,0.4-0.1,0.6c0.1,0.2,0.2,0.4,0.4,0.5c0,0,0,0,0.1,0
					c0,0,0,0,0,0c0,0,0-0.1,0-0.2c0-0.2,0-0.4,0-0.5c0,0,0,0,0,0C44.8,17,44.6,17,44.4,17z"/>
				<path class="st6" d="M43.9,28.2c0,0,0-0.1,0-0.1c-0.1,0-0.1,0-0.1,0c0-0.1-0.1-0.2-0.2-0.2c0,0,0,0-0.1,0c0,0-0.1,0-0.2,0
					c0,0,0,0.1,0,0.1c0,0.2,0,0.3,0.1,0.4c0.2,0.1,0.4,0.1,0.5-0.1C43.9,28.3,43.9,28.2,43.9,28.2z"/>
				<path class="st6" d="M23.2,3.9c0,0-0.1-0.1-0.1-0.1c-0.2,0.4-0.5,0.8-0.7,1.3c0,0,0,0,0,0.1c0,0,0,0,0,0.1
					C19.4,10.4,18,16.5,18,23.5c0,4.4,0.5,8.5,1.6,12.2c0.1,0,0.1,0,0.1,0c0.7,0.4,1.2,0.2,1.5-0.5c0,0,0,0,0,0c0,0,0-0.1,0-0.1
					c0.2-0.3,0.2-0.6,0.2-0.9c0,0,0.1-0.1,0.2-0.2c0.6,0.1,1.3,0.1,1.9,0.1c0.1-0.1,0.2-0.1,0.2-0.3c0-0.3,0-0.5,0.1-0.7
					c0.2-0.5,0.2-0.9,0.2-1.3c-0.3-0.1-0.4-0.3-0.6-0.5c0,0,0-0.1,0-0.2c-0.1-0.2-0.1-0.3-0.1-0.5c0-0.3,0.2-0.5,0.3-0.8
					c0.5-1,0.4-2.1-0.3-3c-0.2-0.1-0.4-0.3-0.5-0.5c-0.2-0.1-0.3-0.3-0.5-0.4c0,0-0.1-0.1-0.1-0.2v0c0-0.1-0.1-0.3-0.1-0.5
					c0,0,0,0,0,0c0,0,0-0.1,0.1-0.1c0.1-0.1,0.2-0.2,0.3-0.4v0c0-0.2,0-0.3,0-0.5c0,0,0,0,0,0.1c0,0,0.1,0,0.1,0c0,0,0,0,0.1,0
					c0,0,0,0,0-0.1c0-0.2,0-0.3,0-0.4c0.1,0,0.3,0,0.5,0.1c0.4,0,0.8-0.1,1-0.5c0.9-1.1,1-2.4,0.5-3.7c0,0,0,0,0,0
					c0.4-0.3,0.7-0.6,1-0.9c0,0,0.1,0,0.2,0.1c0.4,0.3,0.8,0.4,1.1,0.4c0.3-0.3,0.5-0.6,0.6-0.9c0.1,0,0.2,0,0.3,0
					c0.2,0.1,0.4,0.3,0.7,0.4c0.1,0.1,0.3,0.1,0.5,0c0.5-0.4,0.8-0.9,0.8-1.6c0-0.2,0.1-0.3,0.1-0.5c0.1-0.3,0-0.5-0.1-0.7
					c-0.2-0.1-0.3-0.3-0.4-0.4c-0.3-0.2-0.5-0.2-0.6,0c0,0,0,0.1,0,0.1c0,0,0,0.1,0,0.2c0,0,0,0,0,0.1c-0.1-0.1-0.3-0.3-0.5-0.3
					c0,0,0,0-0.1,0c-0.9-0.8-1.8-0.9-2.7-0.3c-0.2-0.1-0.3-0.3-0.4-0.5c0-0.1-0.1-0.1-0.2-0.2c0,0,0-0.1,0-0.1c0-0.1,0-0.2,0-0.3
					c0,0,0,0,0,0c0.1-0.3,0.2-0.6,0.2-0.9c0.1-0.5,0.3-0.9,0.7-1.3c0,0,0,0,0,0c0-0.1,0.1-0.2,0.2-0.3l0,0c0-0.4,0.1-0.7,0.3-0.9
					c0.1-0.3,0.1-0.6,0.2-0.9c0.2-0.1,0.3-0.2,0.5-0.3c0.3-0.1,0.4-0.3,0.5-0.5c0,0,0,0,0.1-0.1c0.1-0.2,0.1-0.5,0.1-0.8
					c0-0.2,0-0.4-0.2-0.6c0-0.2,0-0.4-0.2-0.5c-0.1,0-0.1-0.1-0.1-0.2c-0.1,0-0.2-0.1-0.2-0.1c-0.5,0-0.9,0-1.3-0.1
					c0,0,0-0.1-0.1-0.1c-0.1-0.1-0.2-0.3-0.2-0.4c0,0,0,0,0-0.1c-0.1-0.2-0.2-0.4-0.2-0.6C25,5,24.7,4.7,24.3,4.6c0,0,0,0-0.1-0.1
					c-0.3-0.3-0.6-0.4-1-0.3l0,0C23.3,4.1,23.3,4,23.2,3.9L23.2,3.9z M22.5,23.8L22.5,23.8L22.5,23.8L22.5,23.8L22.5,23.8z"/>
			</g>
		</g>
	</g>
</g>
<g id="Layer_7">
	<g>
		<defs>
			<rect id="SVGID_3_" x="24" y="-2" width="24" height="57"/>
		</defs>
		<clipPath id="SVGID_4_">
			<use xlink:href="#SVGID_3_"  style="overflow:visible;"/>
		</clipPath>
		<g class="st7">
			<defs>
				<circle id="SVGID_5_" cx="24" cy="24" r="23"/>
			</defs>
			<clipPath id="SVGID_6_">
				<use xlink:href="#SVGID_5_"  style="overflow:visible;"/>
			</clipPath>
			<circle class="st8" cx="24" cy="24" r="23"/>
			<g class="st9">
				<g>
					<path class="st6" d="M3.5,26.2L3.5,26.2c0,0-0.1,0-0.1,0c0,0,0,0,0,0c0,0.1-0.1,0.1-0.1,0.2c-0.1,0.4,0,0.8,0,1.3c0,0,0,0,0,0
						c0,0,0,0,0,0.1c0,0,0,0,0,0.1c0,0,0,0,0,0c0.3,0.2,0.5,0.1,0.7-0.1c0,0,0-0.1,0.1-0.2c0-0.3,0-0.6-0.1-0.8c0,0,0,0,0-0.1
						c0,0-0.1-0.1-0.1-0.1c0,0,0,0,0-0.1C3.8,26.3,3.7,26.2,3.5,26.2z"/>
					<path class="st6" d="M10.3,34.2C10.3,34.1,10.3,34.1,10.3,34.2c0.1-0.1,0.1-0.1,0.1-0.1l0-0.1c-0.1-0.3-0.3-0.4-0.5-0.4
						c0,0-0.1,0-0.1,0c0,0,0,0,0,0c0,0,0,0,0,0.1c0,0,0,0.1,0,0.2c0.2,0.3,0.4,0.6,0.7,0.8c0,0,0.1,0,0.1,0c0,0,0,0,0.1,0
						c0,0,0,0,0,0c0-0.1,0-0.1,0-0.2C10.5,34.4,10.4,34.3,10.3,34.2z"/>
					<path class="st6" d="M11.6,34.5C11.6,34.4,11.5,34.4,11.6,34.5c-0.1-0.1-0.1-0.1-0.2-0.1v0c0,0-0.1,0-0.1,0c0,0,0,0.1-0.1,0.1
						c0,0,0,0,0,0c0.1,0.2,0.2,0.3,0.3,0.3c0,0,0,0,0.1,0l0,0c0,0,0,0,0-0.1c0,0,0,0,0-0.1C11.7,34.6,11.7,34.5,11.6,34.5z"/>
					<path class="st6" d="M36.6,25.4c0,0-0.1,0-0.1,0c-0.1,0.4-0.1,0.8-0.1,1.3s0,0.9,0.1,1.4c0,0,0,0,0.1,0.1c0,0,0,0,0,0
						c0,0,0,0,0,0.1c0,0,0,0.1,0,0.1c0.2,0.3,0.6,0.5,1.1,0.3c0,0,0.1,0.1,0.2,0.1c0.3,0.1,0.7,0.1,1,0c0.1-0.2,0.1-0.4,0.1-0.6
						c0-0.2,0-0.4,0-0.6c0.1,0,0.1-0.1,0.2-0.2c0,0,0,0,0,0c0-0.1,0-0.2,0.1-0.3v0c0,0,0-0.1,0-0.2c-0.3-0.3-0.6-0.7-0.9-0.9
						c-0.2-0.1-0.4-0.2-0.7-0.3C37.3,25.7,37,25.6,36.6,25.4L36.6,25.4C36.6,25.4,36.6,25.4,36.6,25.4z"/>
					<path class="st6" d="M36.5,29.6C36.5,29.7,36.5,29.7,36.5,29.6c0,0.1,0,0.2,0,0.2v0c0,0.1,0.1,0.2,0.1,0.3
						c0.2,0.2,0.5,0.1,0.6-0.1l0,0c0-0.2,0-0.4-0.1-0.6c0,0,0,0-0.1,0C36.9,29.4,36.7,29.5,36.5,29.6z"/>
					<path class="st6" d="M40.7,28.9C40.7,28.9,40.7,28.9,40.7,28.9c-0.2-0.1-0.4-0.1-0.5-0.1v0c0,0-0.1,0-0.1,0
						c0,0.1-0.1,0.2-0.2,0.3c0,0,0,0.1-0.1,0.1v0.1c0,0,0,0,0,0.1c0,0,0,0,0,0.1c0,0,0,0,0.1,0s0,0,0,0h0c0,0,0,0,0,0
						c0,0,0.1,0,0.1,0c0,0,0,0,0.1,0c0.1-0.1,0.1-0.1,0.2-0.2c0.1-0.1,0.2-0.2,0.3-0.3C40.8,29.1,40.8,29,40.7,28.9
						C40.8,28.9,40.8,28.9,40.7,28.9z"/>
					<path class="st6" d="M40.8,19.8C40.8,19.8,40.8,19.8,40.8,19.8c0,0.2,0,0.4,0,0.5c0,0,0,0.1,0,0.1c-0.1,0.1-0.2,0.3-0.3,0.4
						c-0.1,0.1-0.2,0.2-0.3,0.3c0,0.2,0,0.4,0,0.6c0,0.1,0,0.3,0,0.4c0,0,0,0,0,0.1c0,0,0,0-0.1,0C40,22.5,40,22.8,40,23.1
						c0,0.4,0,0.7,0.2,1.1c0,0,0,0-0.1,0.1c0,0.1-0.1,0.2-0.1,0.2c0,0,0,0,0,0.1c0,0.2,0,0.4,0,0.7c0,0.1,0,0.2,0,0.3
						c0,0.1,0,0.1,0,0.1c0,0,0,0,0.1,0.1c0,0,0,0,0,0.1c0.4,0.2,0.8,0.2,1.3,0.2c0,0,0,0,0,0.1c0.1,0,0.2,0,0.2,0l0,0
						c0,0,0,0.1,0,0.1c0,0,0,0,0,0c0,0,0,0,0,0.1c0,0,0,0,0,0s0,0,0,0.1c-0.2,0.5-0.3,1.1-0.2,1.6c0,0.1,0,0.2,0,0.3
						c0.4,0.7,0.9,0.8,1.5,0.3c0,0,0-0.1,0-0.1c0-0.1,0-0.2,0-0.3c0,0,0,0,0-0.1c0,0,0,0,0,0c0-0.1,0.1-0.2,0.2-0.2c0,0,0,0,0.1,0
						c0-0.2,0.2-0.3,0.4-0.4c0.1,0,0.2,0,0.3-0.2c0,0,0-0.1,0.1-0.1c0-0.1,0.1-0.1,0.1-0.2l0-0.1c0,0,0-0.1,0-0.1
						c0-0.1,0.1-0.2,0.1-0.2c0-0.1,0-0.1,0-0.1c0-0.3,0-0.6,0-0.8c0-0.3,0-0.6,0-0.9c0.1,0,0.2-0.1,0.2-0.2c0,0,0,0,0,0
						c0,0,0,0,0-0.1c0,0,0,0,0,0c0,0,0,0,0,0c0,0,0.1-0.1,0.1-0.1c0,0,0,0,0.1,0c0.2-0.2,0.3-0.4,0.3-0.7c0-0.3,0-0.7,0-1l0,0
						c0-0.1-0.1-0.1-0.1-0.2c0,0,0,0,0,0c-0.4-0.5-0.8-0.7-1.4-0.8c-0.3-0.3-0.7-0.7-0.8-1.2c-0.3-0.7-0.8-1-1.5-1
						c-0.2,0-0.3,0.2-0.3,0.4C40.9,19.6,40.9,19.7,40.8,19.8z"/>
					<path class="st6" d="M44,28.2C43.9,28.2,43.9,28.2,44,28.2c-0.1-0.2-0.2-0.2-0.3-0.2c0,0,0,0-0.1,0c0,0-0.1,0-0.2,0
						c0,0,0,0.1,0,0.2c0,0.1,0,0.3,0.1,0.4c0.2,0.1,0.4,0.1,0.6-0.1c0,0,0-0.1,0-0.1C44,28.3,44,28.3,44,28.2z"/>
					<path class="st6" d="M26.6,11.1C26.6,11.1,26.6,11.1,26.6,11.1c-0.1,0.6,0,1.1,0.1,1.6c0.1,0.4,0.3,0.7,0.4,1.1
						c0.2,0.1,0.4,0.1,0.6,0c0,0,0.1,0,0.1-0.1c0,0,0-0.1,0.1-0.1c0.1-0.1,0.2-0.2,0.4-0.3h0.1c0.7,1.1,1.6,1.9,2.9,2.1
						c0.1,0,0.3,0.1,0.5,0.1c0.1,0,0.2,0,0.3,0.1c0,0,0,0,0,0.1c-0.1,0.1-0.2,0.3-0.3,0.4c0,0,0,0,0,0.1c0,0.3,0,0.6,0,0.9
						c0,0,0.1,0,0.1,0.1c0,0,0,0,0,0.1c-0.2,0.2-0.3,0.4-0.3,0.7c0,0,0,0.1,0,0.1c0,0.3-0.1,0.7-0.1,1c0,0,0,0.1,0,0.2
						c0,0.3,0,0.7,0,1.1c0.2,0.4,0.5,0.7,0.9,0.8c0.7,0.1,1.2,0.2,1.7,0.3h0c0,0,0,0.1,0.1,0.1c0,0.1,0,0.1,0,0.2
						c0,0.4,0.1,0.8,0,1.2c0,0,0,0,0,0c0,0,0.1,0.1,0.1,0.1c0,0,0,0.1,0,0.1c0,0.2,0,0.5,0,0.7c0.3,0.2,0.5,0.3,0.7,0.3
						c0,0,0,0,0,0.1c0,0,0,0.1,0,0.1c0.3,0.5,0.6,0.6,1.1,0.5c0,0,0,0,0.1,0c0,0,0-0.1,0.1-0.1c0,0,0,0,0,0c0-0.3,0-0.5-0.1-0.7
						c0,0,0,0,0-0.1c-0.3-0.4-0.5-0.8-0.5-1.3c0.3-0.4,0.7-0.7,1.2-1c0,0,0,0,0,0c0,0,0,0,0-0.1c0,0,0,0,0-0.1
						c0.1-0.2,0.1-0.5,0.1-0.7c0,0,0,0,0,0c0.1-0.2,0.2-0.2,0.5-0.1c0.2,0.6,0.7,0.7,1.2,0.7c0,0,0-0.1,0.1-0.2c0,0,0-0.1,0.1-0.1
						c0-0.1,0-0.3,0-0.4c0-0.3,0-0.6,0-0.9c0,0,0.1-0.1,0.2-0.1c0,0,0,0,0,0c0.2-0.3,0.4-0.7,0.6-1c0.1-0.3,0.1-0.7,0-1.1
						c-0.1-0.1-0.2-0.2-0.4-0.3c-0.3-0.3-0.7-0.5-1-0.6c0-0.1,0-0.2,0-0.2c0-0.7-0.1-1.3-0.3-1.8c0,0,0-0.1-0.1-0.2c0,0,0,0,0,0
						c0-0.1,0-0.1,0-0.2c0-0.2-0.1-0.4-0.3-0.5c0,0,0,0-0.1,0s-0.1,0-0.2,0l0,0c0,0,0,0-0.1,0l0,0c0,0-0.1,0.1-0.1,0.1
						c0,0-0.1,0.1-0.1,0.1c0,0,0,0.1-0.1,0.2c0,0.1,0,0.2-0.1,0.3c-0.4,0-0.7-0.2-0.9-0.5c0-0.1-0.1-0.1-0.1-0.1
						c-0.3,0-0.7,0-0.9,0.1c-0.2,0-0.4,0.1-0.6,0.2c0-0.2,0.1-0.3,0.1-0.5c0-0.1,0.1-0.2,0.1-0.3v0c0,0,0,0,0,0
						c0.1-0.1,0.1-0.1,0.2-0.2c0.1-0.2,0.1-0.4,0.1-0.6c0-1-0.5-1.6-1.5-1.7c0,0-0.1-0.1-0.1-0.1c0,0-0.1-0.1-0.1-0.2c0,0,0,0,0,0
						c0,0-0.1,0-0.1-0.1c-0.1-0.1-0.2-0.3-0.4-0.4c0,0,0,0,0-0.1c0-0.1,0-0.2,0-0.2c0-0.3-0.1-0.6-0.3-0.9c-0.5-0.5-1-0.6-1.7-0.3
						c0,0.1,0,0.1,0,0.2c0,0.1,0,0.1-0.1,0.2l0,0c0,0,0,0,0,0c-0.6-0.7-1.4-1-2.5-0.8v0c-0.1,0-0.1,0-0.1,0l0,0c0,0,0,0-0.1,0.1
						c0,0-0.1,0.1-0.1,0.1l0,0c0,0,0,0.1,0,0.1c0,0.1,0,0.3,0,0.4c0,0.3-0.1,0.6-0.1,0.9c0,0.2,0,0.5,0,0.7c0,0-0.1,0.1-0.1,0.1
						C27,10.8,26.8,10.9,26.6,11.1z"/>
					<path class="st6" d="M44.6,16.3c0,0,0.1,0,0.1-0.1c0.1-1.1-0.4-2-1.4-2.7c-0.2-0.1-0.3-0.2-0.4-0.3c-0.6-0.4-1.2-0.7-1.9-0.6
						c0,0,0,0-0.1,0c-0.2,0.2-0.3,0.5-0.3,0.8c0,0.1,0,0.2,0,0.3c0,0,0,0,0,0.1c0,0,0,0,0,0.1c0.1,0.3,0.1,0.6,0.2,0.8
						c0.1,0.2,0.1,0.4,0.3,0.6c0,0.3,0.1,0.6,0.3,0.9c0.1,0.3,0.4,0.7,0.6,1c0,0,0.1,0,0.1,0c0.5,0.1,0.9,0.2,1.4,0.1
						c0,0,0-0.1,0-0.2c0-0.2,0-0.4,0-0.6c0-0.1,0-0.1,0-0.3C44.1,16.4,44.4,16.4,44.6,16.3z"/>
					<path class="st6" d="M39.4,11.6C39.4,11.6,39.4,11.6,39.4,11.6c0,0.1,0,0.2,0,0.3c0,0,0,0.1,0,0.1c0,0,0,0,0,0
						c0,0.1,0.1,0.1,0.3,0.2c0,0,0,0,0.1,0c0,0,0,0,0-0.1c0,0,0,0,0-0.1c0,0,0,0,0-0.1c0,0,0-0.1,0-0.1c0,0,0-0.1,0-0.1c0,0,0,0,0,0
						c-0.1,0-0.2,0-0.3,0C39.5,11.6,39.5,11.6,39.4,11.6z"/>
					<path class="st6" d="M44.6,17.4c0,0-0.1,0-0.1,0c-0.1,0.2-0.1,0.4,0,0.6c0,0.2,0.2,0.3,0.4,0.4c0,0,0,0,0.1,0c0,0,0,0,0,0
						c0,0,0.1-0.1,0.1-0.2c0-0.1,0-0.3,0-0.5c0,0,0,0,0-0.1C44.9,17.4,44.7,17.4,44.6,17.4z"/>
					<path class="st6" d="M13.2,37.4C13.3,37.4,13.3,37.4,13.2,37.4c0.1,0,0.1-0.1,0.1-0.2c0-0.1,0-0.1,0-0.2c0,0,0,0,0,0
						c-0.1-0.1-0.4-0.3-0.7-0.3c-0.1,0-0.2,0-0.3,0.1c0,0,0,0.1,0,0.1c0,0.2,0.2,0.4,0.5,0.3c0,0,0,0,0.1,0
						C13,37.3,13.1,37.4,13.2,37.4C13.2,37.4,13.2,37.4,13.2,37.4z"/>
					<path class="st6" d="M41.3,34.5C41.3,34.6,41.2,34.6,41.3,34.5c-0.4,0.2-0.6,0.5-0.7,0.8c0,0,0,0-0.1,0c0,0.1,0,0.1,0,0.1
						c0,0,0,0,0,0c0,0,0,0.1,0,0.2l0,0c0,0,0,0,0,0c0.1,0,0.2,0,0.3,0c0,0,0,0,0,0c0.1-0.1,0.2-0.2,0.3-0.3c0,0,0.1,0,0.2,0
						c0,0,0,0,0,0c0,0.1,0,0.1,0,0.1c0,0,0,0-0.1,0c0,0,0,0.1-0.1,0.1c0,0,0,0,0,0.1c0,0,0,0,0,0c0,0.1,0,0.1,0,0.1
						c-0.1,0.2-0.3,0.3-0.6,0.5c0,0,0,0,0,0c0,0,0,0,0,0v0c0.2,0.2,0.4,0.2,0.6,0.1c0.3-0.2,0.6-0.5,0.7-0.8
						c0.2-0.3,0.2-0.6,0.1-0.8C41.9,34.8,41.6,34.6,41.3,34.5z M41.2,34.9C41.2,34.9,41.2,34.9,41.2,34.9
						C41.2,34.9,41.2,34.9,41.2,34.9L41.2,34.9z"/>
					<path class="st6" d="M14.6,41.1c0-0.2-0.1-0.4-0.2-0.6c-0.2-0.3-0.4-0.5-0.7-0.6c-0.2,0-0.3-0.1-0.5-0.1c-0.1,0-0.2,0-0.2,0v0
						c-0.1,0-0.2,0-0.2,0c0,0-0.1,0.1-0.2,0.1v0c0,0.1,0,0.1,0,0.2c0,0.1,0,0.1,0,0.2c0,0,0,0,0,0.1c0.1,0.1,0.2,0.1,0.3,0.3
						c0,0,0,0,0,0c0,0,0,0,0,0c0,0,0.1,0.1,0.1,0.2c0,0,0,0,0.1,0c0,0,0.1,0.1,0.1,0.2c0.1,0,0.1,0,0.2,0c0,0,0,0,0-0.1c0,0,0,0,0,0
						c0,0,0,0,0,0c0-0.1,0-0.1,0-0.1c-0.1-0.1-0.1-0.2-0.2-0.3c0,0-0.1-0.1,0-0.2v0c0.1,0,0.1,0,0.3,0c0.1,0,0.2,0,0.3,0.1v0
						c0,0,0,0,0.1,0.1c0,0,0.1,0,0.2,0c0.1,0.1,0.2,0.3,0.2,0.5c0,0,0,0,0.1,0C14.5,41.2,14.5,41.2,14.6,41.1
						C14.6,41.1,14.6,41.1,14.6,41.1C14.6,41.1,14.6,41.1,14.6,41.1z"/>
					<path class="st6" d="M23.5,38.3C23.5,38.4,23.5,38.4,23.5,38.3c0,0.2,0,0.2,0,0.3c0,0.1,0,0.1,0,0.2c0,0,0,0-0.1,0.1
						c0,0-0.1,0.1-0.1,0.2c0,0,0,0,0,0c0,0,0,0,0,0c0.1,0,0.2,0.1,0.2,0l0.1,0c0.1-0.1,0.1-0.3,0.1-0.4c0-0.7-0.4-1.1-1.2-1.3
						c-0.2,0-0.3,0-0.5,0c0,0,0,0.1,0,0.1c0,0.1-0.1,0.1-0.1,0.1c0,0,0,0,0,0c0,0,0.1,0,0.1,0C22.6,37.8,23.1,37.9,23.5,38.3z"/>
					<path class="st6" d="M23.3,38.8C23.3,38.8,23.3,38.8,23.3,38.8c-0.2-0.4-0.4-0.6-0.8-0.6c-0.2,0-0.3,0-0.5,0.1c0,0,0,0,0,0.1
						c0,0-0.1,0-0.2,0c0,0,0,0-0.1-0.1c0,0,0,0,0,0.1c0,0,0,0,0,0.1l0,0c0,0.1,0.1,0.1,0.1,0.2c0.4,0.5,0.9,0.6,1.4,0.4v0
						c0,0,0,0,0.1,0c0,0,0,0,0,0C23.3,38.9,23.3,38.8,23.3,38.8z"/>
					<path class="st6" d="M29.1,5C29.1,5,29.1,5,29.1,5c-0.4,0.3-0.5,0.5-0.5,0.8c0,0.1,0,0.3,0,0.4c0,0,0.1,0,0.1,0.1
						c0.1,0.1,0.2,0.2,0.3,0.2c0,0,0,0,0,0c0,0.1,0,0.2,0.1,0.2c0,0,0.1,0.1,0.1,0.2c0,0,0,0,0,0c0,0,0,0,0.1,0.1c0,0,0.1,0,0.1,0
						c0,0,0,0,0.1,0c0.1,0,0.1-0.1,0.2-0.1l0,0c0,0,0,0,0-0.1c-0.1,0-0.1-0.1-0.2-0.1c0,0,0,0,0-0.1c0,0,0,0,0,0c0-0.1,0-0.2,0-0.3
						c0,0,0-0.1,0-0.2c0,0,0,0,0-0.1c0,0,0,0,0.1,0c0.2,0,0.6,0,0.8,0c0,0,0,0,0,0c0.1,0.1,0.2,0.1,0.3,0.2c0,0,0,0,0,0
						c0,0,0,0,0,0.1c0,0,0,0,0,0.1c0,0,0,0.1,0,0.1c0,0,0,0,0,0.1c-0.2,0-0.4,0-0.5,0.2c0,0,0,0,0,0c0,0,0,0,0,0.1c0,0,0,0,0,0
						c0,0,0,0,0,0.1c0,0,0,0,0,0C31,7.6,31.3,7.5,31.7,7c0-0.1,0.1-0.2,0-0.3C31.4,5.6,30.6,5,29.3,5l0,0H29.1C29.2,5,29.2,5,29.1,5
						z"/>
					<path class="st6" d="M34.4,41.1c-0.1,0-0.1,0-0.2,0c-0.2,0-0.4,0-0.6,0c0,0,0-0.1,0.1-0.2c0.2-0.3,0.2-0.6,0.2-1
						c0,0-0.1,0-0.1-0.1c-0.3-0.2-0.6-0.3-0.9-0.4c0.1-0.2,0.2-0.3,0.2-0.5c0,0,0-0.1,0-0.2c-0.1-0.2-0.3-0.3-0.5-0.3
						c-1.1-0.3-2-0.1-2.7,0.5c0,0.1,0,0.2,0,0.3c0,0.2,0,0.4,0.1,0.5c0.2,0.1,0.6,0.3,0.9,0.4c-0.9,0.5-1.7,0.9-2.5,1.5
						c0,0.1,0,0.2,0,0.2c0,0.1,0,0.1,0,0.1c0.1,0.1,0.1,0.2,0.2,0.3c0,0.1,0.1,0.1,0.2,0.1c0.9,0.5,1.9,0.5,2.8,0.2
						c0,0,0,0.1,0.1,0.2c0.1,0,0.2,0,0.3,0c0.4-0.3,0.8-0.4,1.3-0.5c-0.6,0.5-1.1,0.9-1.7,1.2v0.1c0,0.1,0,0.3,0,0.4
						c0.7,0.4,1.4,0.4,2.1,0c1.4-0.7,1.7-1.7,1-3C34.5,41.2,34.5,41.2,34.4,41.1z"/>
					<path class="st6" d="M21.8,4.7L21.8,4.7c-0.2-0.2-0.4-0.2-0.6-0.2c0,0-0.1,0-0.1,0c-0.3,0-0.5,0.1-0.6,0.3c0,0,0,0,0,0.1
						c0,0,0,0.1,0,0.1c0,0,0,0,0,0c0.1,0.1,0.3,0.2,0.4,0.3c0,0.1,0,0.2,0,0.3c0,0,0,0.1,0,0.2c-0.1,0-0.2,0.1-0.3,0.2
						c0,0-0.1,0-0.1,0.1c0,0-0.1,0-0.1,0C20.1,6,20,5.9,19.8,5.7c-0.1-0.1-0.2-0.2-0.3-0.4c-0.9-0.2-1.7-0.1-2.4,0.5
						c0,0,0,0.1,0,0.2c0,0,0,0-0.1,0.1c0,0,0,0-0.1,0.1c0,0.1-0.1,0.3-0.1,0.4l0,0c-0.3-0.4-0.8-0.6-1.4-0.4
						c-0.3,0.1-0.6,0.2-0.8,0.3c-0.7,0.3-1,0.8-1,1.5c0,0,0.1,0.1,0.1,0.1c0,0,0,0,0,0c0,0,0,0,0,0.1c0,0.2-0.1,0.3-0.2,0.5
						c0,0,0,0-0.1,0c0,0,0,0,0,0.1c0,0.1-0.1,0.2-0.1,0.3c0,0,0,0,0,0c0,0,0,0,0,0c0,0,0,0,0,0.1c-0.1,0.2-0.3,0.3-0.5,0.3
						c-0.3,0-0.6,0.2-0.7,0.4c0-0.1-0.1-0.1-0.1-0.2c-0.1-0.1-0.2-0.2-0.4-0.3c-0.1,0-0.3-0.1-0.3-0.2c0-0.1,0-0.2,0-0.3
						c0,0,0-0.1,0-0.2v0c0,0,0.1-0.1,0.1-0.2c0-0.2,0-0.5,0.1-0.7c0,0,0,0,0,0c0.2,0,0.4,0,0.6-0.1c0,0,0,0,0.1,0
						c0.2,0,0.3,0,0.5-0.1c0,0,0,0,0,0c0.7-0.8,1.4-1.4,2.3-1.8c0.6-0.3,0.8-0.7,0.8-1.3c0,0,0,0,0,0c-0.5-0.1-1-0.1-1.4-0.1
						c-0.2,0.1-0.5,0.2-0.7,0.3c-1,0.4-2,0.9-2.9,1.5c0,0,0,0,0,0c0,0,0,0,0-0.1l0,0c0,0,0,0,0-0.1c-0.1-0.2-0.3-0.2-0.4-0.2
						c0,0-0.1,0.1-0.1,0.1C9.6,6,9.4,6.2,9.2,6.4C8.9,6.7,8.6,7,8.3,7.4C8.1,7.6,7.9,7.8,7.8,8c0,0.1-0.1,0.3-0.1,0.4
						c-0.1,0.4-0.4,0.7-0.7,1C6.8,9.6,6.7,9.6,6.7,9.8c-0.1,0.2-0.3,0.4-0.4,0.6C6,10.6,5.9,10.8,5.7,11c0,0.1,0,0.2-0.1,0.3
						l-0.2,0.2c0,0,0,0.1,0,0.1c-0.1,0.2-0.2,0.4-0.3,0.6c-0.3,0.5-0.5,1-0.7,1.5c-0.1,0.3-0.2,0.6-0.2,0.8c0,0-0.1,0.1-0.1,0.1
						c0,0-0.1,0.1-0.1,0.1c0,0,0,0.1,0,0.1c0,0.1-0.1,0.3-0.1,0.4c0,0-0.1,0.1-0.1,0.2c-0.1,0.3-0.2,0.7-0.3,1c0,0,0,0,0,0.1
						c0,0.1,0,0.3,0,0.4c0,0,0,0,0,0c0,0,0,0-0.1,0.1c0,0,0,0.1,0,0.1c0,0.1,0,0.2,0,0.4c-0.1,0.2-0.2,0.5-0.2,0.7
						c-0.1,1.1-0.1,2.2,0,3.3c0.3,0.3,0.5,0.6,0.8,0.7c0,0.1,0.1,0.2,0.2,0.3C3.9,23.3,4,23.7,3.9,24c0,0,0,0,0,0
						c0,0.1,0,0.2-0.1,0.3c0,0.3,0,0.6,0,0.9c0,0,0,0,0,0.1c0,0.3,0.1,0.6,0.3,0.9c0.3,0.1,0.5,0.1,0.7,0.1c0.1,0.1,0.3,0.3,0.5,0.3
						c0.1,0.1,0.2,0.2,0.2,0.3c0.3,0.6,0.4,1.3,0.4,2c0.5,0.5,1,0.7,1.6,0.6c0,0,0,0,0-0.1c0,0,0,0,0.1,0c0,0,0-0.1,0-0.1
						c0-0.3,0-0.6-0.1-0.9c0.1,0,0.3,0,0.4-0.1c0,0,0,0,0,0c0,0,0.1-0.1,0.1-0.1c0.1,0,0.3,0.1,0.4,0.1c0,0,0,0.1,0.1,0.1
						c0.6,0.3,1.2,0.3,1.6-0.2c0.1,0,0.2,0,0.2,0c0.6,0.3,1,0.7,1.2,1.3c-0.5,0.5-0.5,1-0.1,1.5c0,0,0,0,0,0
						c-0.3,0.1-0.6,0.2-0.9,0.3c0,0,0,0-0.1,0c-0.4,0.5-0.5,1-0.3,1.7c0.2,0.4,0.6,0.7,1.1,0.8c0.4,0.7,1,0.9,1.8,0.5
						c0.3,0.3,0.6,0.3,1,0.2c0-0.1,0-0.1,0.1-0.2c0.3-0.8,0-1.4-0.6-2c0,0,0,0,0-0.1c0-0.1,0-0.2,0-0.3c0,0,0.1-0.1,0.1-0.1
						c0.2-0.4,0.3-0.7,0.3-1.2c0,0,0.1,0,0.2,0c0.3,0.2,0.5,0.5,0.7,0.8c0,0.2,0,0.4,0,0.5c0,0.2,0,0.4,0.1,0.5
						c0.2,0.4,0.5,0.8,0.7,1.1c-0.1,0-0.3,0.1-0.4,0.2c0,0.1,0,0.2-0.1,0.3c0,0.6,0,1,0.1,1.5c0,0.4,0.3,0.7,0.7,0.8
						c0,0,0.1,0.1,0.3,0.1c0.7,0.3,1.1,0.2,1.4-0.3c0,0,0,0,0-0.1c0-0.1,0-0.2,0-0.3c0.1,0,0.2,0,0.2,0c0.7,0.3,1.3,0.2,1.6-0.5
						c0,0,0,0,0,0c0,0,0,0,0-0.1c0.2-0.2,0.2-0.6,0.2-0.9c0-0.1,0-0.1,0.1-0.1c0.7,0,1.4,0,2.1,0c0.1,0,0.2-0.1,0.2-0.3
						c0-0.2,0.1-0.5,0.2-0.7c0.2-0.5,0.2-0.9,0.1-1.3c-0.2-0.1-0.4-0.3-0.6-0.5c0-0.1,0-0.1,0-0.2c-0.1-0.2-0.1-0.3-0.1-0.5
						c0-0.2,0.1-0.5,0.3-0.7c0.5-1.1,0.5-2-0.3-3c-0.2-0.1-0.4-0.2-0.5-0.4c-0.2,0-0.4-0.2-0.6-0.3c0,0,0-0.1-0.1-0.2l0,0
						c0-0.2,0-0.3-0.1-0.5c0,0,0,0,0-0.1c0,0,0,0,0.1-0.1c0.1-0.1,0.2-0.2,0.3-0.4v0c0-0.1,0-0.3,0-0.4c0,0,0,0,0,0c0,0,0.1,0,0.1,0
						c0,0,0,0,0,0s0,0,0,0c0-0.1,0-0.3,0-0.4c0.2,0,0.3,0.1,0.5,0.1c0.5,0.1,0.9-0.1,1.2-0.4c0.9-1.1,1.1-2.3,0.6-3.7c0,0,0,0,0,0
						c0.4-0.3,0.7-0.7,1-0.9c0.1,0,0.1,0.1,0.2,0.1c0.4,0.3,0.8,0.4,1.2,0.4c0.3-0.2,0.5-0.6,0.7-0.9c0.1,0,0.2,0,0.3,0
						c0.2,0.1,0.4,0.3,0.7,0.4c0.1,0,0.2,0,0.5,0c0.6-0.3,0.9-0.9,0.9-1.5c0-0.2,0.1-0.3,0.1-0.5c0.1-0.2,0-0.5-0.1-0.7
						c-0.1-0.1-0.3-0.2-0.5-0.3c-0.2-0.2-0.5-0.2-0.7,0c0,0,0,0,0,0.1c0,0,0,0.1,0,0.2c0,0,0,0,0,0.1c-0.1-0.1-0.3-0.2-0.5-0.3
						c0,0-0.1,0-0.1,0c-0.9-0.7-1.9-0.9-2.9-0.3c-0.2-0.1-0.3-0.3-0.4-0.5c0-0.1-0.1-0.1-0.2-0.2c0,0,0-0.1,0-0.1c0-0.1,0-0.2,0-0.3
						c0,0,0,0,0,0c0.1-0.3,0.2-0.6,0.2-0.9c0-0.6,0.3-0.9,0.7-1.3c0,0,0,0,0-0.1c0-0.1,0-0.2,0.1-0.3l0,0c0-0.3,0-0.7,0.2-0.9
						c0.1-0.2,0.1-0.5,0.2-0.8c0.2-0.1,0.3-0.2,0.5-0.3c0.2-0.1,0.4-0.3,0.5-0.5c0,0,0,0,0.1-0.1c0.1-0.2,0.1-0.5,0-0.8
						c0-0.2,0-0.4-0.1-0.6c0-0.2,0-0.4-0.2-0.6c-0.1,0-0.1-0.1-0.1-0.1c-0.1,0-0.1-0.1-0.2-0.1c-0.5,0-0.9,0-1.4-0.1
						c0,0-0.1-0.1-0.1-0.1c0-0.1-0.1-0.3-0.1-0.4c0,0,0,0-0.1,0c0-0.2-0.1-0.5-0.2-0.6c-0.2-0.5-0.5-0.7-1-0.9c0,0,0,0,0,0
						C22.6,5,22.2,4.9,21.8,5c0,0,0,0,0,0C21.8,4.8,21.8,4.8,21.8,4.7z M21,24L21,24L21,24L21,24L21,24z"/>
				</g>
			</g>
		</g>
	</g>
</g>
<g id="Layer_5" class="st2">
	<g class="st3">
		<g>
			<path class="st5" d="M62.8-4.8C53.3-14.2,42-18.9,28.7-18.9c-13.3,0-24.6,4.7-34,14.1c-9.5,9.4-14.1,20.7-14.1,34
				c0,13.3,4.6,24.6,14.1,34.1c9.4,9.4,20.7,14.1,34,14.1c13.3,0,24.6-4.7,34.1-14.1c9.3-9.5,14-20.8,14-34.1
				C76.8,15.9,72.1,4.6,62.8-4.8z"/>
		</g>
		<g>
			<path class="st6" d="M71.1,12.3c0,0,0.2-0.1,0.3-0.2c0.1-2.3-0.9-4.3-3-5.7c-0.4-0.2-0.7-0.5-1-0.7c-1.1-0.9-2.5-1.4-4-1.3
				c-0.1,0.1-0.1,0.1-0.2,0.1c-0.5,0.4-0.7,1-0.7,1.7c0,0.2,0,0.4,0.1,0.6c0.1,0.1,0.1,0.1,0.2,0.2c0,0.1,0,0.1,0,0.2
				c0.3,0.6,0.4,1.2,0.6,1.8c0.1,0.4,0.3,0.8,0.5,1.2c0.1,0.6,0.3,1.3,0.7,2c0.4,0.7,0.8,1.5,1.4,2.2c0.1,0.1,0.1,0.1,0.2,0.1
				c1,0.3,2,0.5,3.1,0.3c0.1-0.1,0.1-0.3,0.1-0.4c0-0.4,0-0.9,0-1.3c0-0.2,0-0.3,0-0.6C70,12.5,70.5,12.4,71.1,12.3z"/>
			<path class="st6" d="M32.5,1c0,0,0,0-0.1,0.1c-0.1,1.1,0.1,2.2,0.4,3.3C33,5.2,33.3,6,33.7,6.7c0.4,0.2,0.8,0.2,1.1,0
				c0.1-0.1,0.3-0.1,0.4-0.2c0,0,0-0.2,0.1-0.3c0.2-0.3,0.5-0.5,0.9-0.7c0,0,0.1,0,0.2,0c1.4,2.4,3.4,4,6.2,4.6
				c0.4,0.1,0.7,0.2,1,0.3c0.2,0.1,0.5,0.1,0.8,0.2c0,0.1,0,0.1,0,0.2c-0.3,0.3-0.5,0.6-0.7,0.9c0,0.1,0,0.1,0,0.2
				c-0.1,0.7,0,1.3,0.1,1.9c0,0.1,0.1,0.1,0.1,0.2c0.1,0.1,0.2,0.1,0.2,0.2c-0.4,0.5-0.6,0.9-0.8,1.5c0,0.1,0,0.2,0,0.3
				c0,0.7-0.1,1.5-0.1,2.1c-0.1,0.1-0.1,0.3-0.1,0.4c-0.1,0.7-0.2,1.5-0.2,2.3c0.5,0.8,1.2,1.4,2.1,1.7c1.3,0.3,2.5,0.5,3.7,0.6h0.1
				c0,0.1,0,0.2,0.1,0.2c0,0.2,0,0.3,0,0.5c0.2,0.8,0.2,1.7,0.2,2.6c0,0.1,0,0.1,0,0.1c0.1,0.1,0.2,0.2,0.3,0.3c0,0,0,0.2,0,0.3
				c0,0.6,0,1.1,0,1.6c0.5,0.4,1.1,0.5,1.6,0.5c0,0.1,0,0.2,0.1,0.3c0,0,0,0.2,0,0.3c0.5,1,1.3,1.4,2.3,1.1c0.1-0.1,0.1-0.1,0.1-0.1
				c0.1-0.1,0.2-0.1,0.3-0.3c0-0.1,0-0.1,0-0.1c0-0.6-0.1-1.1-0.3-1.6c0-0.1,0-0.1,0-0.1c-0.7-0.9-1.1-1.9-1-2.9
				c0.7-0.8,1.6-1.5,2.4-2.2c0-0.1,0-0.1,0-0.1c0-0.1,0-0.1,0-0.2c0.1-0.1,0.1-0.1,0.1-0.2c0.1-0.5,0.2-1,0.1-1.5
				c0.1-0.1,0.1-0.1,0.1-0.1c0.2-0.4,0.5-0.4,0.9-0.2c0.6,1.2,1.4,1.6,2.6,1.4c0-0.1,0.1-0.2,0.1-0.4c0.1-0.1,0.2-0.2,0.3-0.2
				c0-0.3,0-0.6,0-0.8c0.1-0.7,0.1-1.3,0-2c0.2-0.1,0.4-0.2,0.4-0.2c0.1-0.1,0.1-0.1,0.2-0.1c0.4-0.7,0.8-1.5,1.1-2.2
				c0.4-0.7,0.4-1.5,0.1-2.3c-0.1-0.3-0.4-0.5-0.7-0.7c-0.7-0.6-1.4-1-2.3-1.2c-0.1-0.2-0.1-0.4-0.1-0.5c0-1.4-0.2-2.7-0.6-3.9
				c-0.1-0.1-0.1-0.3-0.2-0.4c-0.1,0-0.1,0-0.2-0.1c0-0.2,0-0.3,0-0.4c0-0.4-0.3-0.8-0.5-1c-0.1-0.1-0.2-0.1-0.2-0.1
				c-0.2,0-0.3,0-0.4,0l0,0c-0.1,0-0.2,0-0.2,0l-0.1,0.1c-0.1,0.1-0.2,0.2-0.3,0.2c0,0.1-0.1,0.2-0.2,0.3c-0.1,0.1-0.1,0.3-0.1,0.4
				c0,0.3-0.1,0.5-0.3,0.7c-0.8-0.1-1.4-0.4-1.8-1.1c-0.1-0.2-0.2-0.3-0.4-0.3c-0.7-0.1-1.3,0-1.8,0.2c-0.5,0.1-1,0.3-1.4,0.5
				c0.1-0.4,0.3-0.7,0.4-1c0-0.2,0.1-0.4,0.3-0.6V5.5c0,0,0,0,0-0.1c0.1-0.2,0.3-0.3,0.3-0.5c0.2-0.4,0.3-0.8,0.3-1.3
				c0-2.1-1.1-3.4-3.3-3.6c-0.1-0.1-0.3-0.2-0.3-0.3c-0.2-0.1-0.3-0.2-0.3-0.4c0-0.1,0-0.1-0.1-0.1c-0.1-0.1-0.2-0.1-0.3-0.2
				c-0.2-0.3-0.5-0.6-0.7-0.8c0-0.1,0-0.1-0.1-0.2c0.1-0.2,0.1-0.4,0.1-0.5c-0.1-0.7-0.3-1.3-0.8-1.9c-1-1-2.1-1.2-3.5-0.6
				C41-4.8,41-4.7,40.9-4.5c0,0.2-0.1,0.3-0.1,0.5l-0.1,0.1c-0.1,0-0.1,0-0.1-0.1c-1.3-1.6-3.1-2.2-5.3-1.8v0.1c-0.1,0-0.1,0-0.2,0
				L35-5.6c-0.1,0.1-0.2,0.1-0.2,0.2c-0.1,0.1-0.3,0.2-0.3,0.3L34.4-5c0,0.1,0,0.2,0,0.3c-0.1,0.3-0.1,0.6-0.1,0.9
				c0,0.6-0.1,1.3-0.2,2c-0.1,0.5-0.1,1-0.2,1.4c-0.1,0.1-0.1,0.2-0.2,0.3C33.3,0.3,32.9,0.7,32.5,1z"/>
			<path class="st6" d="M38-12.1c-0.1,0.1-0.1,0.1-0.1,0.2c-0.7,0.4-1,0.8-1,1.5c0,0.3,0,0.6,0.1,0.8c0.1,0.1,0.2,0.1,0.2,0.2
				c0.3,0.2,0.4,0.4,0.6,0.5c0.1,0.1,0.1,0.1,0.1,0.1c0,0.3,0.1,0.4,0.3,0.5c0,0.1,0.2,0.2,0.3,0.4c0,0.1,0,0.1,0,0.1
				c0.1,0.1,0.2,0.1,0.3,0.2c0,0.1,0.1,0.1,0.2,0.1c0.1,0,0.1,0,0.2,0c0.1-0.1,0.3-0.2,0.4-0.3c0.1,0,0.1,0,0.1,0
				c0-0.1,0-0.1-0.1-0.2c-0.1-0.1-0.3-0.2-0.4-0.3c0-0.1-0.1-0.1-0.1-0.2c0,0,0,0-0.1,0c-0.1-0.3-0.1-0.4-0.2-0.7c0-0.1,0-0.3,0-0.4
				c0-0.1,0-0.1,0.1-0.2c0.1,0,0.2,0,0.3,0c0.5,0,1.1,0,1.7,0c0.1,0,0.1,0,0.2,0.1c0.2,0.2,0.4,0.3,0.7,0.5c0,0,0,0,0,0.1
				C41.9-9,41.9-9,41.9-8.9c0,0.1,0,0.1,0,0.2c0,0.1,0,0.2,0,0.3c0,0.1,0,0.1,0,0.2c-0.4,0-0.7,0.1-1,0.4c-0.1,0-0.1,0-0.1,0
				c0,0.1,0,0.1,0,0.2c0,0.1,0,0.1,0,0.1c0,0.1,0,0.1,0,0.2c0,0.1,0,0.1,0,0.1c1,0.7,1.9,0.5,2.5-0.6c0.2-0.2,0.2-0.4,0.2-0.6
				c-0.7-2.4-2.4-3.7-5.1-3.7l0,0c-0.1,0-0.2,0-0.2,0C38.1-12.1,38.1-12.1,38-12.1z"/>
			<path class="st6" d="M60,2.2c-0.1,0-0.1,0-0.1,0.1c-0.1,0.2-0.1,0.3-0.1,0.5c0,0,0,0.2,0,0.3c0.1,0.1,0.1,0.1,0.1,0.1
				c0.2,0.3,0.4,0.3,0.6,0.4c0.1-0.1,0.2-0.1,0.3-0.1c0-0.1,0-0.1,0-0.2c0.1-0.1,0.1-0.1,0.1-0.2c0-0.1,0-0.1,0-0.2
				C61,2.8,61,2.7,61,2.6c0-0.1,0-0.2,0-0.3c0-0.1,0-0.1-0.1-0.1c-0.2,0-0.4,0-0.6-0.1C60.2,2.2,60.1,2.2,60,2.2z"/>
			<path class="st6" d="M63,19.6c0,0.1,0,0.2,0,0.2c-0.1,0.3-0.1,0.6-0.2,0.8c0,0.1,0,0.2,0,0.3c-0.3,0.3-0.5,0.6-0.7,0.9
				c-0.3,0.2-0.5,0.4-0.6,0.7c-0.1,0.4-0.1,0.9,0,1.3c0.1,0.3,0.2,0.6,0.2,0.8c-0.1,0.1-0.1,0.1-0.1,0.2c-0.1,0-0.1,0-0.1,0.1
				c-0.2,0.6-0.3,1.2-0.4,1.8c0,0.8,0.1,1.6,0.4,2.3c0,0.1,0,0.2-0.1,0.2c-0.1,0.3-0.2,0.5-0.3,0.6C61,29.9,61,29.9,61,30
				c0,0.4,0,0.9,0,1.4c0,0.3,0,0.5,0,0.8c0.1,0,0.1,0,0.1,0.1c0,0.1,0.1,0.1,0.2,0.2c0.1,0.2,0.1,0.2,0.1,0.2
				c0.8,0.4,1.7,0.5,2.7,0.4c0,0.1,0,0.1,0.1,0.1c0.2,0.1,0.3,0.1,0.5,0.2l0,0c0,0.1,0,0.3,0,0.3c0,0.1,0,0.1,0,0.1
				c0,0.1,0,0.1,0,0.2c-0.1,0.1-0.1,0.1-0.2,0.1c-0.1,0.1-0.1,0.1-0.1,0.1c-0.3,1.2-0.6,2.5-0.5,3.6c0,0.3,0,0.4,0.1,0.6
				c0.8,1.5,1.9,1.8,3.2,0.6c0-0.1,0-0.2,0-0.3c0-0.3,0-0.4-0.1-0.6c0-0.1,0-0.1,0-0.2c0.1-0.1,0.1-0.1,0.1-0.1
				c0.1-0.1,0.2-0.4,0.3-0.4c0.1-0.1,0.2-0.1,0.3-0.2c0-0.4,0.3-0.5,0.7-0.8c0.3,0,0.6-0.2,0.8-0.4c0.1-0.1,0.1-0.2,0.1-0.3
				c0.1-0.2,0.2-0.3,0.3-0.5h0.1c0-0.1,0-0.3,0-0.4c0-0.1,0.1-0.4,0.3-0.6c0,0,0,0,0-0.1c0-0.6,0-1.2,0-1.7c0-0.7,0-1.3,0.2-2
				c0.1-0.2,0.3-0.3,0.5-0.5c0-0.1,0-0.1,0-0.1c0-0.1,0-0.1,0-0.1c0-0.2,0-0.2,0-0.2c0.1,0,0.1,0,0.1-0.1c0.1-0.1,0.2-0.2,0.4-0.3
				c0.1,0,0.1,0,0.1-0.1c0.6-0.3,0.8-0.8,0.8-1.5c0.1-0.7,0-1.4-0.1-2.1L72,25.3c-0.2-0.2-0.2-0.3-0.2-0.5c0,0,0,0,0-0.1
				c-0.9-1.1-1.9-1.6-3.2-1.7c-0.7-0.7-1.3-1.5-1.7-2.5c-0.6-1.5-1.7-2.2-3.1-2.2c-0.4,0.1-0.7,0.4-0.7,0.8
				C63.1,19.3,63.1,19.5,63,19.6z"/>
			<path class="st6" d="M53.8,31.8c0,0-0.2,0-0.3,0.1c-0.1,0.9-0.2,1.8-0.2,2.8s0.1,2,0.2,3c0,0,0,0,0.1,0.1c0.1,0,0.1,0,0.1,0.1
				c0,0.1,0,0.1,0,0.2c0,0.1,0,0.1,0.1,0.2c0.5,0.7,1.3,0.9,2.3,0.7c0,0.2,0.2,0.2,0.4,0.3c0.7,0.4,1.5,0.4,2.2,0.1
				c0.2-0.4,0.3-0.9,0.3-1.3c0-0.4,0-0.8,0.1-1.2c0.2-0.1,0.3-0.2,0.4-0.5c0-0.1,0-0.1,0-0.2c0-0.2,0-0.4,0.2-0.5v-0.2
				c0.1-0.1,0.1-0.3,0-0.4c-0.6-0.7-1.3-1.4-2-1.9c-0.5-0.4-0.9-0.5-1.5-0.7c-0.7-0.1-1.4-0.3-2.1-0.7H54
				C53.9,31.8,53.9,31.8,53.8,31.8z"/>
			<path class="st6" d="M62.8,39.2C62.8,39.2,62.8,39.2,62.8,39.2c-0.5-0.1-0.8-0.1-1.1-0.2v0.1c-0.1,0-0.2,0-0.3,0
				c-0.1,0.2-0.3,0.4-0.4,0.7c-0.1,0-0.2,0.2-0.3,0.4l0,0c0,0.1,0,0.2,0.1,0.3c0,0.1,0,0.1,0,0.2c0.1,0.1,0.2,0.1,0.3,0.1
				c0,0,0,0,0.1,0h0.1c0.1,0,0.1,0,0.1,0.1c0.1,0.1,0.2,0.1,0.3,0.1c0.1,0,0.1,0,0.1,0c0.3-0.2,0.4-0.3,0.5-0.5
				c0.2-0.2,0.3-0.4,0.5-0.7c0.1-0.1,0.1-0.3,0-0.4C62.8,39.3,62.8,39.3,62.8,39.2z"/>
			<path class="st6" d="M53.8,40.8c0,0.1,0,0.1,0,0.2c0,0.1,0,0.2,0,0.3v0.1c0,0.2,0.1,0.4,0.1,0.6c0.6,0.4,1,0.3,1.4-0.2l0.1-0.1
				c0-0.4-0.1-0.8-0.3-1.2c0-0.1,0-0.1-0.1-0.1C54.5,40.3,54.1,40.4,53.8,40.8z"/>
			<path class="st6" d="M25.9,59.4c0,0.1,0,0.1,0,0.2c0.1,0.1,0.1,0.3,0.1,0.6c0,0.1,0,0.2,0,0.4c-0.1,0.1-0.1,0.1-0.2,0.1
				c0,0.2-0.1,0.4-0.2,0.5c-0.1,0-0.1,0,0,0.1c0,0.1,0,0.1,0.1,0.1c0.1,0.1,0.3,0.2,0.5,0.1l0.1-0.1c0.2-0.2,0.3-0.6,0.3-0.9
				c0-1.5-0.8-2.4-2.4-2.7c-0.4,0.1-0.7,0.1-1.1,0.1C23,58,23,58.1,22.9,58.2c0,0-0.1,0.1-0.2,0.2c0,0,0,0-0.1,0.1
				c0.2,0.1,0.3,0.1,0.3,0C24.1,58.2,25.1,58.5,25.9,59.4z"/>
			<path class="st6" d="M25.5,60.4C25.5,60.4,25.5,60.4,25.5,60.4c-0.4-0.8-1-1.2-1.7-1.3c-0.5-0.1-0.8,0.1-1,0.3c0,0.1,0,0.1,0,0.2
				c-0.1,0-0.3,0-0.4,0c-0.1-0.1-0.1-0.1-0.2-0.2c0,0.1-0.1,0.1-0.2,0.2c-0.1,0.1-0.1,0.1-0.1,0.1v0.1c0.1,0.2,0.3,0.4,0.3,0.5
				c0.9,1,1.8,1.2,2.8,0.8V61c0.1,0,0.2,0,0.3-0.1c0-0.1,0-0.1,0.1-0.2C25.5,60.7,25.5,60.5,25.5,60.4z"/>
			<path class="st6" d="M4.2,57c0-0.2,0-0.3,0-0.5c0-0.1,0-0.1-0.1-0.1c-0.4-0.3-0.9-0.6-1.5-0.7c-0.2,0-0.4,0-0.5,0.3
				c0,0.1,0,0.2,0,0.3c0.1,0.5,0.5,0.8,1,0.7c0.1,0.1,0.1,0.1,0.1,0.1c0.1,0.2,0.4,0.3,0.6,0.3c0.1,0,0.1,0,0.1,0
				c0.1,0,0.2,0,0.3-0.1C4.2,57.2,4.2,57.1,4.2,57z"/>
			<path class="st6" d="M64,51.3c-0.1,0.1-0.2,0.1-0.2,0.1c-0.7,0.4-1.1,1-1.4,1.7c-0.1,0-0.1,0-0.2,0.1c0,0,0,0,0,0.1
				c-0.1,0.1-0.1,0.1-0.1,0.1c0,0.1,0,0.3,0,0.3v0.1c0,0.1,0,0.1,0.1,0.1c0.3-0.1,0.4-0.1,0.6-0.2c0,0,0,0,0.1,0
				c0.2-0.3,0.5-0.5,0.8-0.6c0.1-0.1,0.2-0.1,0.4-0.1C64,53.1,64,53.1,64,53.2c-0.1,0-0.1,0.2-0.1,0.2c-0.1,0.1-0.1,0.1-0.1,0.1
				c-0.1,0.1-0.2,0.2-0.3,0.3c0,0.1,0,0.1,0,0.2c0,0.1,0,0.1,0,0.2c0,0,0,0-0.1,0.1c-0.3,0.4-0.6,0.7-1.2,0.9
				c-0.1,0.1-0.1,0.1-0.1,0.2c0,0,0,0,0,0.1l0.1,0.1c0.4,0.4,0.8,0.5,1.2,0.3c0.7-0.5,1.2-1.1,1.6-1.7c0.4-0.8,0.4-1.5,0.2-1.9
				C65.1,51.7,64.7,51.4,64,51.3z M63.8,52.2C63.8,52.1,63.8,52.1,63.8,52.2c0-0.1,0-0.1,0-0.1V52.2z"/>
			<path class="st6" d="M49.1,65.4c-0.1,0-0.3,0-0.3,0c-0.4,0-0.9,0-1.3,0.1c0.1-0.1,0.2-0.3,0.3-0.3c0.3-0.8,0.4-1.5,0.3-2.3
				c0-0.1-0.1-0.2-0.2-0.2c-0.6-0.4-1.2-0.7-1.9-1c0.2-0.3,0.4-0.5,0.5-1c-0.1,0-0.1-0.2-0.2-0.3c-0.2-0.4-0.5-0.7-1-0.7
				c-2.2-0.5-4.1-0.2-5.7,1.1c0,0.3,0,0.4,0,0.6c-0.1,0.4,0,0.8,0.2,1.1c0.6,0.3,1.3,0.6,2,0.7c-2,1-3.7,2.1-5.4,3.4
				c0,0.2,0,0.4,0,0.6c0,0,0,0.2,0.1,0.2c0.1,0.3,0.3,0.4,0.4,0.7c0.1,0.1,0.3,0.3,0.4,0.3c2.1,1,4.2,1.1,6.1,0.5
				c0.1,0.1,0.1,0.3,0.1,0.3c0.3,0.1,0.4,0.1,0.6,0.2c0.9-0.6,1.7-0.9,2.7-1c-1.1,1-2.3,1.8-3.6,2.6c0,0,0,0.2,0,0.3
				c-0.1,0.3-0.1,0.6,0,0.9c1.4,0.7,2.9,0.7,4.3-0.2c3-1.6,3.7-3.7,2.1-6.4C49.5,65.5,49.3,65.5,49.1,65.4z"/>
			<path class="st6" d="M70.9,14.5c-0.1,0-0.1,0-0.2,0.1c-0.3,0.4-0.3,0.8-0.1,1.2c0.2,0.4,0.5,0.7,0.8,0.9c0.1,0,0.1,0,0.2-0.1
				c0.1,0,0.1,0,0.2-0.1c0,0,0.1-0.2,0.1-0.4c0-0.3,0-0.7,0-1.1c-0.1-0.1-0.1-0.1-0.1-0.2C71.6,14.6,71.3,14.5,70.9,14.5z"/>
			<path class="st6" d="M69.6,37.8c-0.1,0-0.1,0-0.1-0.1c-0.1-0.3-0.3-0.3-0.5-0.4c-0.1,0-0.2,0-0.2,0.1c-0.1,0-0.3,0-0.4,0
				c0,0.1,0,0.3-0.1,0.4c-0.1,0.3,0,0.6,0.1,0.9c0.6,0.1,1,0.1,1.2-0.3c0-0.1,0-0.2,0-0.3C69.6,38,69.6,37.9,69.6,37.8z"/>
			<path class="st6" d="M-2.4,50.5c0.1-0.1,0.1-0.1,0.2-0.1c0.1-0.1,0.1-0.1,0.1-0.2l0,0c-0.3-0.7-0.7-1-1.2-0.9
				c-0.1,0.1-0.1,0.1-0.2,0.1s-0.1,0-0.2,0.1c0,0.1,0,0.1,0,0.2c0,0.1,0,0.3,0.1,0.5c0.4,0.5,0.8,1.1,1.4,1.6
				c0.1,0.1,0.1,0.1,0.2,0.1s0.2,0,0.2-0.1c0-0.1,0-0.1,0.1-0.1c0.1-0.2,0-0.3-0.1-0.5C-1.9,51-2.1,50.7-2.4,50.5z"/>
			<path class="st6" d="M0.4,51.1C0.3,51,0.2,51,0.2,51c-0.1-0.1-0.2-0.1-0.3-0.1V51c0,0-0.2,0-0.3,0c0,0.1,0,0.2-0.1,0.3
				c0,0.1,0,0.1,0,0.1c0.1,0.3,0.4,0.6,0.7,0.8c0-0.1,0-0.1,0.1-0.1h0.1c0-0.1,0-0.1,0.1-0.2c0-0.1,0-0.2,0.1-0.2
				C0.6,51.4,0.6,51.2,0.4,51.1z"/>
			<path class="st6" d="M6.7,65.3c-0.1-0.5-0.2-0.9-0.5-1.2c-0.3-0.6-0.8-1-1.5-1.3c-0.3-0.1-0.6-0.2-0.9-0.2
				c-0.2-0.1-0.4-0.1-0.6-0.1v0.1c-0.2,0-0.3,0-0.5,0.1c-0.1,0-0.2,0.2-0.3,0.3l-0.1,0.1c0,0.1,0,0.3,0,0.4c0,0.2,0,0.3,0,0.4
				C2.4,64,2.4,64,2.4,64.1c0.2,0.2,0.3,0.3,0.5,0.6l0,0c0,0.1,0,0.1,0.1,0.2c0.1,0.1,0.2,0.3,0.4,0.3c0.1,0.1,0.1,0.1,0.2,0.1
				c0,0.1,0.2,0.3,0.3,0.4c0.1,0,0.3,0,0.3,0c0.1-0.1,0.1-0.1,0.2-0.2c0-0.1,0-0.1,0.1-0.1c-0.1-0.1-0.1-0.1-0.2-0.2c0,0,0,0,0-0.1
				c-0.1-0.3-0.3-0.5-0.4-0.7c-0.2-0.2-0.3-0.3-0.2-0.5v-0.1c0.2,0,0.4,0,0.6,0C4.5,63.9,4.8,63.9,5,64l0.1,0.1
				c0.1,0.1,0.1,0.1,0.1,0.1c0.2,0.1,0.3,0.1,0.5,0.2c0.2,0.3,0.5,0.7,0.5,1c0.1,0.1,0.2,0.1,0.3,0.1c0,0,0,0,0.1-0.1
				C6.7,65.4,6.7,65.4,6.7,65.3C6.8,65.3,6.8,65.3,6.7,65.3z"/>
			<path class="st6" d="M-17.4,33.7c0,0.1-0.1,0.2-0.1,0.4c-0.2,0.8-0.2,1.7,0.1,2.7c0,0,0,0,0,0.1c0.1,0.1,0.1,0.1,0.2,0.2
				c0,0.1,0,0.1,0,0.1c0,0.1,0,0.1,0,0.2c0.5,0.4,1,0.3,1.4-0.2c0.1-0.2,0.1-0.4,0.1-0.5c0-0.7,0-1.3-0.2-1.9c0-0.1,0-0.1-0.1-0.1
				c-0.1-0.2-0.1-0.3-0.2-0.4c0-0.1,0-0.1,0-0.1c-0.1-0.5-0.3-0.8-0.8-0.8v0.1c-0.1,0-0.1,0-0.2,0C-17.3,33.7-17.3,33.7-17.4,33.7z"
				/>
			<path class="st6" d="M22.2-12.7v-0.1c-0.4-0.3-0.8-0.3-1.3-0.3c0,0-0.2,0-0.3,0.1c-0.5,0.1-1,0.2-1.3,0.6c0,0.1,0,0.1,0,0.2
				c0,0.1,0,0.2,0.1,0.3c0,0.1,0,0.1,0,0.1c0.2,0.3,0.5,0.5,0.8,0.6c-0.1,0.2-0.1,0.5-0.1,0.7c0,0.1,0,0.3,0,0.4
				c-0.2,0.1-0.5,0.3-0.7,0.4c-0.1,0.1-0.2,0.1-0.2,0.2c-0.1,0-0.3,0-0.3,0c-0.3-0.4-0.6-0.7-1-1c-0.2-0.3-0.4-0.5-0.6-0.8
				c-1.9-0.5-3.6-0.2-5.1,1.1c0,0.1-0.1,0.3-0.2,0.4c-0.1,0.1-0.1,0.1-0.1,0.2c-0.1,0.1-0.1,0.1-0.2,0.2c-0.1,0.2-0.2,0.6-0.3,0.8
				h-0.1c-0.7-0.9-1.7-1.2-2.8-0.8C7.8-9.2,7.2-8.9,6.6-8.7C5.2-8,4.5-7,4.5-5.5c0.1,0,0.3,0.2,0.4,0.3c0,0,0,0,0,0.1
				c0,0.1,0,0.1,0,0.2c-0.2,0.4-0.4,0.7-0.6,1C4.2-3.8,4.2-3.8,4.2-3.8c0,0.1,0,0.1,0,0.2C4.1-3.4,3.9-3.2,3.9-3
				C3.8-3,3.8-3,3.8-2.9c0,0.1,0,0.1,0,0.1c0,0.1,0,0.1,0,0.2C3.5-2.2,3.1-2,2.6-1.9C1.9-1.8,1.5-1.5,1.1-1C0.9-1.2,0.8-1.3,0.7-1.5
				C0.5-1.7,0.2-1.9-0.1-2.1c-0.3-0.1-0.5-0.3-0.7-0.4c0-0.3,0-0.4,0-0.7c0-0.1,0-0.3,0-0.4v-0.1C-0.6-3.8-0.5-4-0.5-4.2
				c-0.1-0.5,0.1-1,0.3-1.6c0.1,0,0.1,0,0.1-0.1c0.4,0.1,0.8,0,1.1-0.3c0.1,0,0.2,0,0.2-0.1c0.4,0,0.7-0.1,1-0.2c0.1,0,0.1,0,0.2,0
				c1.3-1.7,2.9-3,4.8-3.9C8.5-11,9-11.9,8.9-13.1l0,0c-0.9-0.2-1.8-0.3-2.7-0.2C2.4-11.1-1.1-8.5-4.3-5.2
				c-8.3,8.4-13,18.2-14.1,29.5c0.5,0.6,1,1.1,1.7,1.5c0,0.2,0.2,0.4,0.3,0.7c0.4,0.7,0.6,1.5,0.4,2.3c-0.1,0-0.1,0-0.1,0
				c0,0.3,0,0.4-0.1,0.7c-0.2,0.7-0.2,1.3-0.1,2c0,0.2,0,0.2,0,0.2c0.2,0.7,0.4,1.3,0.8,2c0.5,0.1,1,0.1,1.5,0.1
				c0.3,0.4,0.7,0.6,1.1,0.6c0.1,0.3,0.3,0.5,0.5,0.8c0.6,1.2,0.9,2.6,0.7,4.1c1,1,2.2,1.4,3.5,1.3c0.1-0.1,0.1-0.1,0.1-0.2
				c0,0,0,0,0.1-0.1c0-0.1,0-0.2,0-0.3c0-0.7-0.1-1.3-0.1-2c0.2-0.1,0.5-0.1,0.8-0.2c0.1,0,0.1,0,0.2,0c0-0.1,0.2-0.1,0.3-0.3
				c0.2,0.2,0.5,0.2,0.7,0.3c0.1,0.1,0.2,0.2,0.3,0.3c1.4,0.7,2.5,0.6,3.4-0.4c0.3,0,0.4,0,0.6,0c1.3,0.5,2.2,1.4,2.6,2.5
				c-1.1,1-1.2,2.2-0.3,3.4c-0.1,0-0.1,0-0.2,0.1c-0.7,0.2-1.3,0.5-1.9,0.7c-0.1,0-0.2,0-0.2,0c-0.9,1-1.1,2.2-0.6,3.6
				c0.5,0.9,1.3,1.5,2.3,1.7c0.8,1.7,2.1,2,3.9,1c0.5,0.7,1.3,0.8,2.1,0.6C6,51.2,6.1,51,6.2,50.8c0.5-1.7,0-3.1-1.3-4.3
				c-0.1-0.1-0.1-0.1-0.1-0.2c0-0.2,0-0.4,0.1-0.6c0-0.1,0.2-0.2,0.3-0.3c0.3-0.8,0.6-1.6,0.7-2.6c0,0,0.2,0,0.4,0
				c0.7,0.5,1.2,1,1.6,1.7c0,0.4,0,0.7,0,1c0,0.4,0,0.8,0.2,1.1C8.5,47.5,9,48.3,9.5,49c-0.3,0.1-0.6,0.3-0.9,0.5
				c0,0.2-0.1,0.4-0.2,0.7c-0.1,1,0,2.1,0.2,3.1c0.2,0.9,0.6,1.4,1.4,1.7c0.2,0.1,0.4,0.2,0.6,0.3c1.4,0.7,2.4,0.5,3.1-0.6
				c-0.1-0.1-0.1-0.1-0.1-0.2c-0.1-0.2,0-0.4,0.1-0.7c0.2-0.1,0.3-0.1,0.5-0.1c1.5,0.8,2.7,0.5,3.3-0.9c0-0.1,0-0.1,0-0.1
				c0-0.1,0-0.1,0-0.2c0.4-0.5,0.6-1.2,0.5-1.9c0.1-0.2,0.2-0.3,0.4-0.4c1.5,0.2,2.9,0.2,4.4,0.2c0.2-0.2,0.4-0.3,0.4-0.6
				c0-0.5,0.1-1,0.3-1.4c0.4-1,0.5-1.9,0.3-2.7c-0.5-0.3-0.9-0.5-1.2-1c0-0.2,0-0.3-0.1-0.5c-0.2-0.3-0.2-0.6-0.1-0.9
				c0.1-0.5,0.3-1.1,0.6-1.6c1.2-2.3,1-4.3-0.7-6.4c-0.4-0.1-0.8-0.5-1-0.9c-0.4-0.2-0.8-0.5-1.1-0.7c-0.1,0-0.2-0.3-0.3-0.4v-0.1
				c0-0.3-0.1-0.5-0.2-0.9c0-0.1,0-0.1,0-0.1c0.1-0.1,0.1-0.2,0.2-0.3c0.2-0.2,0.4-0.5,0.6-0.9v-0.1c0.1-0.2,0.1-0.6,0.2-0.9
				c0,0.1,0,0.1,0,0.2c0.1,0,0.2,0,0.2,0c0.1,0,0.1,0,0.2,0c0-0.1,0-0.1,0-0.2c0.1-0.3,0.1-0.6,0.1-0.9c0.3,0.1,0.7,0.1,1,0.2
				c1,0.2,1.9-0.1,2.5-0.9c1.9-2.4,2.3-5,1.1-7.9c0,0,0,0,0.1,0c0.9-0.7,1.6-1.4,2.3-1.9c0.1,0.1,0.3,0.2,0.4,0.2
				c0.9,0.6,1.7,0.9,2.6,0.8c0.6-0.5,1-1.2,1.3-2c0.3,0,0.4,0,0.7-0.1c0.4,0.3,0.9,0.6,1.4,0.9c0.3,0.1,0.6,0.1,1,0
				c1.3-0.7,1.9-1.9,1.9-3.3c0.1-0.4,0.3-0.7,0.3-1c0.3-0.5,0.2-1-0.1-1.4c-0.4-0.2-0.7-0.5-1-0.7c-0.5-0.4-1-0.4-1.5-0.1
				c0,0.1,0,0.1,0,0.2c0,0.1,0,0.3,0,0.4c0,0.1,0,0.1,0,0.2c-0.3-0.2-0.7-0.5-1-0.6c-0.1,0-0.2,0-0.3,0c-2-1.6-4.1-1.9-6.1-0.6
				c-0.4-0.3-0.7-0.7-1-1c0-0.2-0.2-0.3-0.3-0.4c0-0.1,0-0.3,0-0.3c0-0.3,0-0.4,0-0.6c0,0,0,0,0-0.1c0.2-0.6,0.3-1.3,0.4-1.9
				c0.1-1.2,0.6-2,1.6-2.7c0.1-0.1,0.1-0.1,0.1-0.2c0.1-0.2,0.2-0.4,0.3-0.6L29,3.6c0.1-0.7,0.2-1.4,0.5-2c0.3-0.5,0.3-1.1,0.4-1.8
				c0.4-0.2,0.7-0.4,1.1-0.6c0.5-0.2,0.9-0.6,1.2-1.1c0-0.1,0-0.1,0.1-0.2c0.2-0.5,0.2-1.1,0.2-1.7c0-0.4-0.1-0.8-0.3-1.2
				c0-0.5-0.2-0.8-0.6-1.2c-0.1,0-0.2-0.2-0.3-0.3c-0.1-0.1-0.3-0.2-0.4-0.2c-1-0.1-2-0.1-3-0.2c-0.1-0.1-0.1-0.3-0.2-0.3
				c-0.2-0.3-0.3-0.6-0.4-0.9c0-0.1,0-0.1-0.1-0.1c-0.1-0.5-0.3-1-0.4-1.3c-0.4-1-1.1-1.6-2.1-1.9c-0.1-0.1-0.1-0.1-0.2-0.1
				c-0.7-0.6-1.4-0.8-2.3-0.6c0-0.1,0-0.1,0-0.1C22.3-12.4,22.3-12.5,22.2-12.7z M20.5,28.8h0.1h0.1h-0.1H20.5z"/>
		</g>
	</g>
</g>
</svg>
