<?xml version="1.0" encoding="utf-8"?>
<!-- Generator: Adobe Illustrator 22.1.0, SVG Export Plug-In . SVG Version: 6.00 Build 0)  -->
<svg version="1.1" id="레이어_1" xmlns="http://www.w3.org/2000/svg" xmlns:xlink="http://www.w3.org/1999/xlink" x="0px"
	 y="0px" width="24px" height="24px" viewBox="0 0 24 24" style="enable-background:new 0 0 24 24;" xml:space="preserve">
<style type="text/css">
	.st0{display:none;}
	.st1{display:inline;}
	.st2{fill:none;stroke:#B2B3B3;stroke-width:0.6463;stroke-linecap:round;stroke-linejoin:round;stroke-miterlimit:10;}
	.st3{fill:none;stroke:#B2B3B3;stroke-width:0.6463;stroke-linejoin:round;stroke-miterlimit:10;}
	.st4{fill:#333333;}
	.st5{display:inline;fill:#555655;}
	.st6{fill:#777777;}
	.st7{fill:none;stroke:#777777;stroke-width:0.6503;stroke-miterlimit:10;}
</style>
<g id="레이어_2_1_">
</g>
<g>
	<g id="레이어_1_1_">
		<g id="Layer_3" class="st0">
			<g class="st1">
				<path class="st2" d="M15.5,12.5c-0.8,0-1.3,0.3-1.3,0.3v-2H6.1v8.7c0,0.4,0.3,0.7,0.7,0.7h6.8c0.4,0,0.7-0.3,0.7-0.7
					c0,0,0-0.6,0-0.9c0-0.4,3.3-1.9,3.3-3.9C17.4,13.3,16.8,12.5,15.5,12.5z"/>
				<path class="st2" d="M14.2,14.8c0-0.5,0.3-1.1,0.9-1.1s0.9,0.6,0.9,0.9c0,0.9-2,1.8-2,2.2"/>
				<path class="st3" d="M9.3,6.4C8.5,6.9,8,7.5,8.9,8.1c0.8,0.6,0.5,1.1-0.5,1.8"/>
				<path class="st3" d="M11.9,5.3c-1,0.7-1.6,1.5-0.6,2.2s0.5,1.5-0.6,2.2"/>
			</g>
		</g>
		<g id="Layer_4" class="st0">
			<g class="st1">
				<path class="st3" d="M8.5,15.2c1.6,0,3.9,0,5.5,0"/>
				<path class="st3" d="M16.8,15.2h2c0,0,0-1.4,0-2c0-0.7-2.2-1.7-3.9-2c-1.3-1.2-2.3-2-3.6-2s-2,0-2.5,0c-1.3,0-2.1,0.9-3.5,2
					c-0.7,0-0.7,0-1,0c-0.3,0.8-0.4,2.2-0.2,2.9c0.2,0.7,0.6,1,1.2,1c0.1,0,0.3,0,0.3,0"/>
				<polyline class="st3" points="14,11.7 13.3,12 8.2,12 7.2,11.1 				"/>
				<circle class="st3" cx="15.5" cy="15.1" r="1.5"/>
				<circle class="st3" cx="7" cy="15.1" r="1.5"/>
			</g>
		</g>
		<g id="Layer_5" class="st0">
			<g class="st1">
				<path class="st4" d="M15.7,10c0-2.5-2-4.6-4.6-4.6s-4.6,2-4.6,4.6c0,1,0.4,2,1,2.9c-0.7,0.8-1,1.9-1,2.9c0,2.5,2,4.6,4.6,4.6
					s4.6-2,4.6-4.6c0-1-0.4-2-1-2.9C15.4,12.2,15.7,11.2,15.7,10z M15.4,15.9c0,2.3-1.9,4.2-4.2,4.2S7,18.2,7,15.9c0-1,0.4-2,1-2.8
					c0.1-0.1,0.1-0.2,0-0.3c-0.7-0.7-1-1.8-1-2.8c0-2.3,1.9-4.2,4.2-4.2s4.2,1.9,4.2,4.2c0,1-0.4,2-1,2.8c-0.1,0.1-0.1,0.2,0,0.3
					C15,13.8,15.4,14.9,15.4,15.9z"/>
				<path class="st4" d="M12.2,6.9c0-0.1,0.1-0.1,0.1-0.2c0-0.3-0.3-0.6-0.3-0.6c-0.1-0.1-0.2-0.1-0.3,0c-0.1,0.1-0.1,0.2,0,0.3
					s0.2,0.2,0.2,0.3c0,0,0,0.1-0.1,0.1l0,0c-0.1,0-0.3,0-0.4-0.1l0,0c0-0.3-0.3-0.6-0.3-0.6C11.1,6,11,6,10.9,6.1
					c-0.1,0.1-0.1,0.2,0,0.3c0.1,0.1,0.2,0.2,0.2,0.3l0,0c-0.2,0-0.3,0-0.4,0V6.6c0-0.3-0.3-0.6-0.3-0.6C10.3,6,10.3,6,10.2,6
					c-0.1,0.1-0.1,0.2,0,0.3c0.1,0.1,0.2,0.2,0.2,0.3c0,0,0,0.1-0.1,0.1l-0.1,0.1C9,7.3,8,8.6,8,9.9c0,1.8,1.4,3.2,3.2,3.2
					c0.1,0,0.3,0,0.4,0c-0.8,0.7-1.2,1.7-1.2,1.8c0,0.1,0,0.2,0.1,0.2c0,0,0,0,0.1,0c0.1,0,0.1,0,0.2-0.1c0,0,0.7-1.7,2-2.2l0,0
					c1-0.6,1.7-1.6,1.7-2.8C14.3,8.6,13.5,7.3,12.2,6.9z M11.2,12.8c-1.6,0-2.8-1.3-2.8-2.9c0-1.2,0.7-2.2,1.8-2.6
					c0.1,0.2,0.3,0.4,0.3,0.4h0.1c0.1,0,0.1,0,0.2-0.1c0.1-0.1,0-0.2-0.1-0.3s-0.2-0.2-0.2-0.2c0.1,0,0.3-0.1,0.4-0.1c0,0,0,0,0,0.1
					c0,0.3,0.3,0.5,0.4,0.6h0.1c0.1,0,0.2,0,0.2,0c0.1-0.1,0-0.2-0.1-0.3c-0.1-0.1-0.2-0.2-0.2-0.3c0,0,0,0,0-0.1c0.1,0,0.3,0,0.4,0
					l0,0c0,0.3,0.3,0.5,0.4,0.6H12c0.2,0.1,0.2,0.1,0.3,0.1c0.1-0.1,0-0.2-0.1-0.3c-0.1,0-0.2-0.1-0.2-0.2c1.2,0.4,2,1.4,2,2.7
					C14.1,11.5,12.8,12.8,11.2,12.8z"/>
				<path class="st4" d="M10.4,9.1c0-0.1-0.1-0.2-0.2-0.2c-0.4,0-0.8,0.2-0.9,0.2S9.1,9.2,9.2,9.3c0,0.1,0.1,0.1,0.2,0.1
					c0,0,0,0,0.1,0c0,0,0.5-0.2,0.7-0.2C10.3,9.3,10.4,9.2,10.4,9.1z"/>
				<path class="st4" d="M13,9.1c0,0-0.6-0.2-0.9-0.2c-0.1,0-0.2,0.1-0.2,0.2c0,0.1,0.1,0.2,0.2,0.2c0.3,0,0.7,0.2,0.7,0.2
					s0,0,0.1,0s0.2-0.1,0.2-0.1C13.1,9.2,13.1,9.1,13,9.1z"/>
				<path class="st4" d="M12.4,10c-1.2,0.9-2.1,0.1-2.2,0c-0.1-0.1-0.2-0.1-0.3,0s-0.1,0.2,0,0.3c0,0,0.6,0.6,1.3,0.6
					c0.4,0,0.8-0.1,1.3-0.5C12.6,10.3,12.6,10.2,12.4,10C12.6,10,12.5,10,12.4,10z"/>
			</g>
		</g>
		<g id="Layer_6" class="st0">
			<path id="_x31_" class="st5" d="M18.7,8.8h-3.9c-0.1-0.7-0.7-1.2-1.4-1.2H13c0-0.1,0-0.2,0-0.3c-0.1-0.7-0.7-1.5-1.6-1.5
				S10,6.6,10,7.4c0,0.1,0,0.1,0,0.2H9.5c-0.7,0-1.3,0.5-1.4,1.2H4.2c-0.4,0-0.8,0.3-0.8,0.7v10.4c0,0.4,0.4,0.8,0.8,0.8h14.5
				c0.4,0,0.7-0.5,0.7-0.8V9.5C19.4,9.1,19.1,8.8,18.7,8.8z M11.5,6.3c0.6,0,1,0.5,1,1s-0.5,1-1,1c-0.6,0-1-0.5-1-1
				S10.8,6.3,11.5,6.3z M9.5,8.2h0.6c0.3,0.4,0.7,0.7,1.4,0.7c0.7,0,1.1-0.3,1.4-0.8l0,0h0.6c0.6,0,0.9,0.5,0.9,0.9
				c0,0.6-0.5,0.9-0.9,0.9H9.5C9,9.9,8.6,9.5,8.6,9C8.6,8.6,9,8.2,9.5,8.2z M18.9,19.9c0,0.1-0.1,0.4-0.2,0.4H4.2
				c-0.1,0-0.3-0.2-0.3-0.4V9.5c0-0.1,0.2-0.2,0.3-0.2h3.9c0.1,0.7,0.7,1.3,1.4,1.3h3.8c0.7,0,1.3-0.6,1.4-1.2h3.9
				c0.1,0,0.2,0,0.2,0.2L18.9,19.9L18.9,19.9z M7.7,14.9c0.7,0,1.4-0.7,1.4-1.4c0-0.7-0.7-1.4-1.4-1.4s-1.4,0.7-1.4,1.4
				C6.3,14.2,7,14.9,7.7,14.9z M7.7,12.6c0.5,0,0.8,0.4,0.8,0.8c0,0.5-0.4,0.8-0.8,0.8c-0.5,0-0.8-0.4-0.8-0.8
				C6.8,13,7.3,12.6,7.7,12.6z M8.9,14.9c-0.1-0.1-0.3-0.1-0.5,0l-0.7,0.5l-0.7-0.5c-0.1-0.1-0.4-0.1-0.5,0
				c-0.6,0.4-0.9,0.7-0.9,1.2v1.5C5.5,17.8,5.8,18,6,18h3.3c0.3,0,0.4-0.3,0.4-0.5v-1.5C9.7,15.6,9.3,15.1,8.9,14.9z M9.2,17.6H6.1
				v-1.5c0-0.3,0.3-0.6,0.7-0.8l1,0.7l0.9-0.7c0.3,0.2,0.6,0.5,0.6,0.8C9.2,16.1,9.2,17.6,9.2,17.6z M17.2,12.6h-5.1
				c-0.1,0-0.3,0.1-0.3,0.3c0,0.1,0.1,0.3,0.3,0.3h5.1c0.1,0,0.3-0.1,0.3-0.3C17.5,12.7,17.3,12.6,17.2,12.6z M17.2,14.4h-5.1
				c-0.1,0-0.3,0.1-0.3,0.3c0,0.1,0.1,0.3,0.3,0.3h5.1c0.1,0,0.3-0.1,0.3-0.3C17.5,14.5,17.3,14.4,17.2,14.4z M17.2,16h-5.1
				c-0.1,0-0.3,0.1-0.3,0.3c0,0.1,0.1,0.3,0.3,0.3h5.1c0.1,0,0.3-0.1,0.3-0.3C17.5,16.1,17.3,16,17.2,16z M14.8,17.8h-2.7
				c-0.1,0-0.3,0.1-0.3,0.3c0,0.2,0.1,0.3,0.3,0.3h2.7c0.1,0,0.3-0.1,0.3-0.3C15.1,17.8,14.9,17.8,14.8,17.8z"/>
		</g>
		<g>
			<path class="st6" d="M11.5,13.5c-1.2-0.4-2.2-1.2-2.7-2.3C8.6,11,8.4,10.9,8.2,11C8,11.1,7.9,11.2,8,11.4
				c0.7,1.3,1.8,2.3,3.2,2.7h0.1c0.2,0,0.3-0.1,0.4-0.3C11.7,13.8,11.6,13.6,11.5,13.5z"/>
			<path class="st6" d="M16.9,19.4L16.9,19.4l-1.1-3.7c2.3-1.2,4-3.6,4-6.4c0-0.2-0.2-0.4-0.4-0.4H5.8c-0.2,0-0.4,0.2-0.4,0.4
				c0,0.5,0.1,1,0.2,1.5H3.9c-0.6,0-1.1,0.5-1.1,1.1V13c0.1,0.1,0.2,0.3,0.5,0.3c0.2,0,0.4-0.2,0.4-0.4v-1.1c0-0.2,0.2-0.4,0.4-0.4
				h1.8c0.6,1.9,1.9,3.3,3.5,4.2l-2.4,7c-0.1,0.2,0,0.4,0.2,0.5h0.1c0.2,0,0.3-0.1,0.4-0.3l0.4-1.2h7.2c0.2,0.8,0.9,1.5,1.8,1.5
				c1,0,1.8-0.8,1.8-1.8C18.8,20.3,18,19.4,16.9,19.4z M6.2,9.7h13c-0.2,3.4-3.1,6.1-6.5,6.1C9.1,15.8,6.3,13.1,6.2,9.7z M9.9,16
				c0.8,0.4,1.8,0.6,2.7,0.6s1.8-0.2,2.6-0.5l0.9,3.5c-0.5,0.3-0.8,0.7-1,1.3H8.2L9.9,16z M16.9,22.3c-0.6,0-1.1-0.5-1.1-1.1
				s0.5-1.1,1.1-1.1c0.6,0,1.1,0.5,1.1,1.1S17.6,22.3,16.9,22.3z"/>
		</g>
	</g>
	<path class="st7" d="M19.2,7.8h-13c0.2-3.4,3.1-6.1,6.5-6.1C16.2,1.7,19,4.4,19.2,7.8z"/>
</g>
</svg>
