<?xml version="1.0" encoding="utf-8"?>
<!-- Generator: Adobe Illustrator 24.2.1, SVG Export Plug-In . SVG Version: 6.00 Build 0)  -->
<svg version="1.1" xmlns="http://www.w3.org/2000/svg" xmlns:xlink="http://www.w3.org/1999/xlink" x="0px" y="0px" width="36px"
	 height="36px" viewBox="0 0 36 36" style="enable-background:new 0 0 36 36;" xml:space="preserve">
<style type="text/css">
	.st0{fill:#0B8CC8;}
	.st1{fill:#C1DEFD;}
</style>
<g id="레이어_1">
</g>
<g id="레이어_3">
	<g>
		<path class="st0" d="M21.9,15.7c0.3-1,0.4-2.1,0.5-3.4c0-1-0.3-2-1.1-2.7c-0.7-0.8-1.8-1.2-2.9-1.2c-1.1,0-2.1,0.5-2.9,1.2
			c-0.7,0.8-0.9,1.8-1,2.5c-0.3,1.6-1,2.8-2.2,3.6H15c0.7-0.9,1.1-2,1.4-3.2c0.1-0.7,0.3-1.3,0.6-1.6c0.4-0.4,0.9-0.7,1.6-0.7
			c0.6,0,1.1,0.2,1.5,0.7c0.4,0.4,0.6,0.9,0.6,1.4c0,1.3-0.2,2.5-0.5,3.4H21.9z"/>
		<path class="st0" d="M11.8,23.8c1-0.2,2-0.5,3.1-0.9H8.8c-0.2,0.2-0.2,0.5-0.1,0.8c0.1,0.4,0.5,0.6,0.9,0.6c0.1,0,0.2,0,0.3,0
			C10.3,24.2,11,24,11.8,23.8z"/>
		<path class="st0" d="M8.9,15.3c3.1,0.3,4.2-1.8,4.5-3.6C14,9,15.9,7.2,18.5,7.2c2.8,0,5.1,2.3,5.1,5.1c0,1.1,0,1.6-0.1,2.2
			c0,0.4-0.1,0.7-0.1,1.2h1.8c0-0.4,0-0.7,0.1-1c0-0.6,0.1-1.2,0.1-2.3c-0.1-3.8-3.1-6.9-6.9-6.9c-3.4,0-6.1,2.3-6.8,5.9
			c-0.4,2.1-1.6,2.2-2.6,2.1c-0.5,0-0.9,0.3-1,0.8C8,14.8,8.4,15.2,8.9,15.3z"/>
		<path class="st0" d="M17.6,12.3c-0.1,1.4-0.4,2.6-0.9,3.5h2c0.4-0.9,0.6-2.1,0.7-3.4c0-0.5-0.4-0.9-0.9-0.9
			C18,11.4,17.6,11.8,17.6,12.3z"/>
		<path class="st0" d="M23.5,22.9c0.3,0.2,0.5,0.3,0.8,0.4c0.9,0.4,1.9,0.8,3,1c0.1,0,0.1,0,0.2,0c0.4,0,0.8-0.3,0.9-0.7
			c0.1-0.3,0-0.5-0.2-0.7H23.5z"/>
		<path class="st0" d="M26.7,25.5c-1.7-0.4-2.8-1-3.9-1.5c-1-0.5-1.9-1-2.9-1c-0.8,0-1.8,0.3-3.2,0.8c-1.5,0.5-3.6,1.2-6.5,1.7
			c-0.5,0.1-0.8,0.6-0.7,1.1c0.1,0.5,0.6,0.8,1.1,0.7c3-0.6,5.1-1.3,6.7-1.8c1.2-0.4,2.1-0.7,2.7-0.7c0.6,0,1.2,0.3,2.1,0.8
			c1.1,0.6,2.4,1.3,4.3,1.7c0.1,0,0.1,0,0.2,0c0.4,0,0.8-0.3,0.9-0.7C27.5,26.1,27.2,25.6,26.7,25.5z"/>
		<path class="st0" d="M25.1,28c-0.7-0.2-1.4-0.5-2.2-0.9c-1.1-0.5-2.2-1-3.1-1c-0.7,0-1.9,0.3-3.7,0.9c-1.4,0.4-2.9,0.8-4,1
			c-0.5,0.1-0.8,0.6-0.7,1c0.1,0.5,0.5,0.8,1,0.7c1.2-0.2,2.8-0.7,4.2-1.1c1.3-0.4,2.8-0.8,3.2-0.8c0.5,0,1.5,0.4,2.4,0.9
			c0.8,0.4,1.7,0.8,2.5,1c0.1,0,0.2,0,0.2,0c0.4,0,0.8-0.3,0.9-0.7C25.8,28.7,25.5,28.2,25.1,28z"/>
		<path class="st0" d="M22.7,30.2c-0.2-0.1-0.4-0.2-0.7-0.3c-0.8-0.3-1.6-0.7-2.7-0.7c-0.5,0-1.2,0.2-2.4,0.4
			c-0.8,0.2-1.8,0.4-2.5,0.5c-0.5,0.1-0.8,0.5-0.8,1c0.1,0.5,0.5,0.8,1,0.8c0.8-0.1,1.8-0.3,2.7-0.5c0.8-0.2,1.6-0.4,2-0.4
			c0.7,0,1.4,0.3,2,0.6c0.3,0.1,0.5,0.2,0.8,0.3c0.1,0,0.2,0.1,0.3,0.1c0.4,0,0.7-0.2,0.8-0.6C23.4,30.9,23.2,30.4,22.7,30.2z"/>
		<path class="st1" d="M33.2,17.5H3.8c-0.2,0-0.3,0.1-0.3,0.3v3c0,0.2,0.1,0.3,0.3,0.3h29.4c0.2,0,0.3-0.1,0.3-0.3v-3
			C33.5,17.7,33.4,17.5,33.2,17.5z"/>
		<path class="st0" d="M9.1,12c0.5,0.2,1,0,1.2-0.5c0.1-0.2,0.2-0.5,0.2-0.9c0.1-0.4,0.2-0.9,0.4-1.2c1.2-3.1,4.2-5.2,7.6-5.2
			c4.5,0,8.1,3.6,8.1,8.1c0,0.2-0.1,2-0.2,3c0,0.1,0,0.3,0,0.4h1.8c0-0.1,0-0.1,0-0.2c0.1-1.2,0.2-3.1,0.2-3.1l0,0
			c0-5.5-4.4-9.9-9.9-9.9c-4,0-7.8,2.5-9.2,6.3c-0.2,0.4-0.3,1-0.4,1.4c-0.1,0.3-0.1,0.5-0.2,0.7C8.5,11.3,8.7,11.9,9.1,12z"/>
	</g>
</g>
<g id="레이어_2">
</g>
</svg>
