<?xml version="1.0" encoding="utf-8"?>
<!-- Generator: Adobe Illustrator 24.2.1, SVG Export Plug-In . SVG Version: 6.00 Build 0)  -->
<svg version="1.1" id="레이어_1" xmlns="http://www.w3.org/2000/svg" xmlns:xlink="http://www.w3.org/1999/xlink" x="0px"
	 y="0px" width="24px" height="24px" viewBox="0 0 24 24" style="enable-background:new 0 0 24 24;" xml:space="preserve">
<style type="text/css">
	.st0{fill:#9CB5D3;}
	.st1{fill:#9CB5D3;stroke:#9CB5D3;stroke-width:0.25;stroke-miterlimit:10;}
</style>
<g>
	<path class="st0" d="M12,15.1c-0.5,0-0.9-0.4-0.9-0.9s0.4-0.9,0.9-0.9s0.9,0.4,0.9,0.9C12.9,14.6,12.5,15.1,12,15.1z"/>
	<path class="st0" d="M12.5,12.2h-1L11.1,6c0-0.5,0.4-0.9,0.9-0.9s0.9,0.4,0.9,0.9L12.5,12.2z"/>
</g>
<g>
	<path class="st1" d="M18.7,1.5H5.3C4.6,1.5,4,2.1,4,2.8v18.9c0,0.5,0.4,0.8,0.8,0.8c0.2,0,0.3,0,0.5-0.1l6.7-4.5l6.7,4.5
		c0.1,0.1,0.3,0.1,0.5,0.1c0.5,0,0.8-0.4,0.8-0.8V2.8C20,2.1,19.4,1.5,18.7,1.5z M19.1,21.7l-6.7-4.5C12.3,17.1,12.2,17,12,17
		c-0.2,0-0.3,0-0.5,0.1l-6.7,4.5V2.8c0-0.2,0.2-0.4,0.4-0.4h13.4c0.2,0,0.4,0.2,0.4,0.4C19.1,2.8,19.1,21.7,19.1,21.7z"/>
</g>
</svg>
