<?xml version="1.0" encoding="utf-8"?>
<!-- Generator: Adobe Illustrator 24.2.1, SVG Export Plug-In . SVG Version: 6.00 Build 0)  -->
<svg version="1.1" id="레이어_1" xmlns="http://www.w3.org/2000/svg" xmlns:xlink="http://www.w3.org/1999/xlink" x="0px"
	 y="0px" width="58px" height="16px" viewBox="0 0 58 16" style="enable-background:new 0 0 58 16;" xml:space="preserve">
<style type="text/css">
	.st0{fill:#FFFFFF;}
</style>
<g>
	<g>
		<path class="st0" d="M8.14,4.47v1.52h2.7V0.55h2.3V16h-2.3V8.13h-2.7v3.95c0,2.19-1.81,3.92-4.02,3.92c-2.21,0-4-1.73-4-3.92V4.47
			c0-2.19,1.79-3.92,4-3.92C6.33,0.55,8.14,2.29,8.14,4.47z M2.42,4.47v7.61c0,0.9,0.77,1.63,1.69,1.63c0.94,0,1.69-0.73,1.69-1.63
			V4.47c0-0.91-0.75-1.65-1.69-1.65C3.19,2.82,2.42,3.56,2.42,4.47z"/>
		<path class="st0" d="M20.38,8.21V7.1h-4.8V0.55h2.23v1.4h7.44v-1.4h2.21V7.1h-4.8v1.11h5.86v1.88h-14V8.21H20.38z M27.66,11.15
			v1.93L27.04,16h-2.34l0.63-2.92H15.24v-1.93H27.66z M25.25,5.19V3.82h-7.44v1.37H25.25z"/>
		<path class="st0" d="M32.66,1.16V0h2.28v1.16h3v1.75h-1.16C37.04,3.3,37.2,3.74,37.2,4.2V5c0,1.21-0.99,2.2-2.3,2.58v0.88h5.27
			v-7.9h2.15v3.69h1.66v2.2h-1.66v3.9H29.74V8.46h2.91v-0.9c-1.3-0.38-2.26-1.37-2.26-2.56V4.2c0-0.46,0.15-0.9,0.41-1.29h-1.14
			V1.16H32.66z M39.62,11.23c1.6,0,2.9,0.77,2.9,2.38S41.22,16,39.62,16h-6.59c-1.6,0-2.9-0.77-2.9-2.38s1.3-2.38,2.9-2.38H39.62z
			 M35.23,4.52c0-0.7-0.65-1.16-1.43-1.16c-0.78,0-1.43,0.46-1.43,1.16v0.15c0,0.7,0.65,1.16,1.43,1.16c0.78,0,1.43-0.46,1.43-1.16
			V4.52z M32.92,13.16c-0.42,0-0.49,0.23-0.49,0.46c0,0.23,0.07,0.46,0.49,0.46h6.82c0.42,0,0.49-0.23,0.49-0.46
			c0-0.23-0.07-0.46-0.49-0.46H32.92z"/>
		<path class="st0" d="M49.28,8.18l2.59,7.74h-2.28l-1.48-4.41l-1.53,4.41h-2.46l4.62-13.09h-4.35V0.64h6.76v2.19L49.28,8.18z
			 M54.59,16h-2.1V8.41h-1.86V6.32h1.86V0.55h2.1V16z M57.89,16h-2.15V0.55h2.15V16z"/>
	</g>
</g>
</svg>
