<?xml version="1.0" encoding="utf-8"?>
<!-- Generator: Adobe Illustrator 24.2.1, SVG Export Plug-In . SVG Version: 6.00 Build 0)  -->
<svg version="1.1" id="레이어_1" xmlns="http://www.w3.org/2000/svg" xmlns:xlink="http://www.w3.org/1999/xlink" x="0px"
	 y="0px" width="90px" height="16px" viewBox="0 0 90 16" style="enable-background:new 0 0 90 16;" xml:space="preserve">
<style type="text/css">
	.st0{fill:#FFFFFF;}
	.st1{fill:#FFFFFF;stroke:#FFFFFF;stroke-miterlimit:10;}
</style>
<g>
	<path class="st0" d="M31,13.8V16H17.2v-2.2H31z M27.6,10.8L24,3.7l-3.6,7.1h-2.8l4.8-10h3l4.8,10H27.6z"/>
	<path class="st0" d="M32.4,15.9V0.8h7.9v15.1H32.4z M34.8,13.6h2.9V2.8h-2.9V13.6z M42.3,15.9V0.6h2.3v5.1h1.7v2.2h-1.7v8H42.3z"/>
	<path class="st0" d="M60.2,13.8V16H46.5v-2.2H60.2z M59.6,0.8v2.2h-9.8v1.9h9.8V7h-9.8v1.8h9.8v2.2H47.3V0.8
		C47.3,0.8,59.6,0.8,59.6,0.8z"/>
	<path class="st0" d="M73.9,13.3H64v0.8h9.9v1.8H62v-4.2h9.9v-0.8H62V9.3h4.8V8.4H61V6.6h14v1.8h-5.8v0.9h4.8V13.3z M69.2,1.3h4.8V3
		l-2.8,0.8l2.8,0.8v1.8l-5.8-1.7L62,6.3V4.4L67.6,3H62V1.1h4.8V0h2.5v1.3H69.2z"/>
	<path class="st0" d="M81.4,13.6V9.3h2.4v4.3h5.7v2.3H75.7v-2.3H81.4z M84.3,2.8h-7.9V0.6h12.2v2.2l-3.9,2.5l3.9,2.5v2.5l-6.1-3.8
		l-6.1,3.8V7.9L84.3,2.8z"/>
</g>
<path class="st1" d="M11.9,9.8c-0.2,0-0.3,0-0.4,0.1l-1.2,1.3c-0.2,0.2-0.1,0.4,0,0.6c0.2,0.2,0.4,0.1,0.6,0l0.4-0.5v1.1
	c0,1.2-1,2.3-2.3,2.3s-2.2-1-2.2-2.2V3.5C7.5,3.3,8,2.7,8,2c0-0.9-0.7-1.5-1.5-1.5S4.9,1.2,4.9,2c0,0.7,0.5,1.3,1.1,1.5v8.8
	c0,1.2-1,2.3-2.3,2.3s-2.3-1-2.3-2.3v-1.1l0.4,0.5c0.2,0.2,0.4,0.2,0.6,0c0.2-0.2,0.2-0.4,0-0.6L1.3,9.9C1.2,9.8,1,9.8,0.9,9.8
	c-0.2,0-0.3,0.2-0.3,0.4v2.2c0,1.7,1.4,3.1,3.1,3.1c1.2,0,2.1-0.6,2.7-1.5c0.5,0.9,1.5,1.5,2.7,1.5c1.7,0,3.1-1.4,3.1-3.1v-2.2
	C12.2,10,12.1,9.8,11.9,9.8z M5.7,2c0-0.4,0.3-0.7,0.7-0.7c0.4,0,0.7,0.3,0.7,0.7c0,0.4-0.3,0.7-0.7,0.7l0,0l0,0
	C6.1,2.7,5.7,2.4,5.7,2z"/>
</svg>
