<?xml version="1.0" encoding="utf-8"?>
<!-- Generator: Adobe Illustrator 24.2.1, SVG Export Plug-In . SVG Version: 6.00 Build 0)  -->
<svg version="1.1" id="레이어_1" xmlns="http://www.w3.org/2000/svg" xmlns:xlink="http://www.w3.org/1999/xlink" x="0px"
	 y="0px" width="22px" height="17px" viewBox="0 0 22 17" style="enable-background:new 0 0 22 17;" xml:space="preserve">
<style type="text/css">
	.st0{display:none;}
	.st1{display:inline;fill:none;stroke:#2C6CAE;stroke-width:0.75;stroke-linejoin:round;stroke-miterlimit:10;}
	.st2{display:inline;fill:#2B72BA;}
	.st3{fill:none;stroke:#777777;stroke-width:1.1654;stroke-linejoin:round;stroke-miterlimit:10;}
</style>
<g id="레이어_1_1_" class="st0">
	<path class="st1" d="M9.8,1.3L3.8,6.1C3.7,6.2,3.7,6.3,3.7,6.4v9.1c0,0.2,0.2,0.4,0.4,0.4h4c0.2,0,0.4-0.2,0.4-0.4V9.7
		c0-0.2,0.2-0.4,0.4-0.4h3.5c0.2,0,0.4,0.2,0.4,0.4v5.7c0,0.2,0.2,0.4,0.4,0.4h4c0.2,0,0.4-0.2,0.4-0.4V6.4c0-0.1-0.1-0.3-0.2-0.3
		l-5.9-4.8C11.1,0.8,10.3,0.8,9.8,1.3z"/>
</g>
<g id="레이어_2_1_" class="st0">
	<path class="st2" d="M9.8,1.3L3.8,6.1C3.7,6.2,3.7,6.3,3.7,6.5v9.1c0,0.2,0.2,0.4,0.4,0.4h4c0.2,0,0.4-0.2,0.4-0.4V9.8
		c0-0.2,0.2-0.4,0.4-0.4h3.5c0.2,0,0.4,0.2,0.4,0.4v5.7c0,0.2,0.2,0.4,0.4,0.4h4c0.2,0,0.4-0.2,0.4-0.4V6.5c0-0.1-0.1-0.3-0.2-0.3
		l-5.9-4.8C11.1,0.9,10.3,0.9,9.8,1.3z"/>
</g>
<g>
	<path class="st3" d="M12.1,10.9c-0.5,0.4-1,0.8-1.6,0.8 M9.8,11.7c-0.2,0-0.4-0.1-0.7-0.2c-0.3-0.1-0.8-0.4-1.2-0.5 M15,9.9
		c-0.2,0-0.4-0.1-0.6-0.1c-0.7-0.1-1.3,0.3-1.8,0.6 M17.1,11.8c0-0.1-0.1-0.1-0.1-0.2c-0.2-0.4-0.5-1-1.3-1.4"/>
	<polyline class="st3" points="3.4,8.6 3.4,16 7.9,14.4 13.7,15.9 18.6,14 18.6,4.3 13.7,6 11.4,5.2 	"/>
	<path class="st3" d="M6.8,10.6C5.9,7.7,3.4,7.1,3.4,4.4C3.4,2.6,5,1,6.8,1c1.8,0,3.4,1.6,3.4,3.4C10.2,7.1,7.7,7.7,6.8,10.6"/>
	<path class="st3" d="M6.8,3.3c-0.6,0-1.2,0.5-1.2,1.1c0,0.6,0.5,1.1,1.2,1.1c0.6,0,1.2-0.5,1.2-1.1C7.9,3.8,7.4,3.3,6.8,3.3z"/>
</g>
</svg>
